<svg id="Group_27829" data-name="Group 27829" xmlns="http://www.w3.org/2000/svg" width="48" height="48" viewBox="0 0 48 48">
  <rect id="Rectangle_17212" data-name="Rectangle 17212" width="48" height="48" rx="10" transform="translate(0 0)" fill="#fff"/>
  <path id="Rectangle_17212-2" data-name="Rectangle 17212" d="M10,0H38A10,10,0,0,1,48,10v1.03a0,0,0,0,1,0,0H0a0,0,0,0,1,0,0V10A10,10,0,0,1,10,0Z" transform="translate(0 0)" fill="#4c6c83"/>
  <path id="Path_4412" data-name="Path 4412" d="M128.158,142.3H104.636a1.631,1.631,0,0,1-1.736-1.5h0a1.631,1.631,0,0,1,1.736-1.5h23.521a1.631,1.631,0,0,1,1.736,1.5h0A1.631,1.631,0,0,1,128.158,142.3Z" transform="translate(-96.746 -135.245)" fill="#fff"/>
  <rect id="Rectangle_17209" data-name="Rectangle 17209" width="36.119" height="3.089" rx="1.545" transform="translate(5.94 14.97)" fill="#4883f0"/>
  <rect id="Rectangle_17210" data-name="Rectangle 17210" width="27.089" height="3.089" rx="1.545" transform="translate(5.94 29.941)" fill="#4883f0"/>
  <rect id="Rectangle_17211" data-name="Rectangle 17211" width="23.995" height="2.999" rx="1.5" transform="translate(6.004 22.5)" fill="#4883f0"/>
  <circle id="Ellipse_1616" data-name="Ellipse 1616" cx="1.426" cy="1.426" r="1.426" transform="translate(39.96 4.139)" fill="#00c853"/>
  <circle id="Ellipse_1617" data-name="Ellipse 1617" cx="1.5" cy="1.5" r="1.5" transform="translate(35.397 4.055)" fill="#ffa726"/>
</svg>
