<svg width="395" height="286" viewBox="0 0 395 286" fill="none" xmlns="http://www.w3.org/2000/svg">
<path fill-rule="evenodd" clip-rule="evenodd" d="M176.865 203.19V256.451H112.614L110.712 207.925L176.865 203.19Z" fill="#4E587F"/>
<path fill-rule="evenodd" clip-rule="evenodd" d="M102.184 78.7285L90.2657 138.395L53.572 145.039C53.572 145.039 49.1678 149.116 50.1711 153.449L51.1744 157.782C51.1744 157.782 94.8848 158.558 101.985 156.24C109.086 153.923 109.052 97.5133 108.926 91.3141C108.799 85.1149 102.184 78.7285 102.184 78.7285Z" fill="url(#paint0_linear)"/>
<path fill-rule="evenodd" clip-rule="evenodd" d="M166.336 75.3262L196.986 100.751L253.117 90.5709C253.117 90.5709 256.799 97.8712 257.075 100.585L257.351 103.305C257.351 103.305 201.992 120.229 194.803 119.888C187.615 119.546 160.856 97.7115 160.856 97.7115L166.336 75.3262Z" fill="url(#paint1_linear)"/>
<path fill-rule="evenodd" clip-rule="evenodd" d="M124.587 69.1426L102.184 78.7276L103.639 211.746C103.639 211.746 146.688 220.246 163.667 215.859L180.646 211.454L168.573 79.0965C168.371 76.9286 166.826 75.1216 164.714 74.582L144.714 69.4068L124.587 69.1426Z" fill="url(#paint2_linear)"/>
<path fill-rule="evenodd" clip-rule="evenodd" d="M101.985 99.8633L103.198 211.746C103.198 211.746 137.349 218.49 156.814 216.861L101.985 99.8633Z" fill="url(#paint3_linear)"/>
<path fill-rule="evenodd" clip-rule="evenodd" d="M207.097 128.134L204.175 159.521L179.533 204.925L187.339 208.779L220.625 162.653L221.766 126.785L207.097 128.134Z" fill="#FBAD83"/>
<path fill-rule="evenodd" clip-rule="evenodd" d="M269.831 228.594C269.831 228.594 271.044 239.913 271.044 245.237C271.044 250.561 268.712 258.538 268.712 258.538H228.872L231.76 225.043L269.831 228.594Z" fill="#4E587F"/>
<path fill-rule="evenodd" clip-rule="evenodd" d="M204.555 127.534C204.555 127.534 207.99 106.255 214.445 100.315C219.076 96.0424 223.591 96.1635 226.744 96.8792C229.897 97.5949 232.808 108.413 229.737 123.003C227.626 133.116 227.35 134.179 227.35 134.179C227.35 134.179 210.735 134.735 204.555 127.534Z" fill="#E2E2E2"/>
<path fill-rule="evenodd" clip-rule="evenodd" d="M249.065 90.5479L275.085 102.137L270.305 229.705H207.096L212.791 104.504C212.905 102.054 214.268 99.8332 216.402 98.6189L230.183 90.8066L249.065 90.5479Z" fill="#FF9398"/>
<path fill-rule="evenodd" clip-rule="evenodd" d="M248.866 90.457L274.886 102.046L270.106 229.614H206.897L212.592 104.413C212.706 101.963 214.069 99.7424 216.203 98.5281L229.985 90.7158L248.866 90.457Z" fill="#F0F1F4"/>
<path fill-rule="evenodd" clip-rule="evenodd" d="M114.477 157.374L119.99 212.016L178.976 237.044C178.976 237.044 183.386 242.23 178.976 249.007L112.614 229.705L114.477 157.374Z" fill="#FFADDD"/>
<path fill-rule="evenodd" clip-rule="evenodd" d="M76.0757 144.993L55.9653 152.734C52.3754 154.105 50.0483 157.596 50.1659 161.433L53.2695 259.26H116.115L114.582 158.845C114.513 154.087 111.457 149.887 106.947 148.352L93.5951 143.81L76.0757 144.993Z" fill="#FF6BC1"/>
<path d="M330.62 86.3096H329.986V260.41H330.62V86.3096Z" fill="#393762"/>
<path d="M338.398 103.161H337.765V256.33H338.398V103.161Z" fill="#393762"/>
<path d="M335.642 134.714H335.008V261.406H335.642V134.714Z" fill="#393762"/>
<path d="M321.568 162.087H320.934V261.406H321.568V162.087Z" fill="#393762"/>
<path d="M343.122 190.027H342.489V260.404H343.122V190.027Z" fill="#303D72"/>
<path fill-rule="evenodd" clip-rule="evenodd" d="M317.803 122.381C327.175 117.657 337.737 119.782 341.464 127.132C345.19 134.482 340.637 144.243 331.315 148.989C321.993 153.735 302.152 171.385 298.426 164.063C294.699 156.741 308.464 127.104 317.803 122.381Z" fill="url(#paint4_linear)"/>
<path fill-rule="evenodd" clip-rule="evenodd" d="M306.871 216.393C314.887 207.766 328.652 207.496 337.621 215.804C346.59 224.112 347.351 237.826 339.336 246.464C331.32 255.102 319.115 283.136 310.151 274.834C301.188 266.532 298.856 225.026 306.871 216.393Z" fill="url(#paint5_linear)"/>
<path d="M299.694 164.481C310.57 157.126 324.093 158.095 329.893 166.65C335.692 175.206 331.585 188.122 320.714 195.46C309.843 202.799 288.001 227.943 282.197 219.393C276.392 210.843 288.823 171.836 299.694 164.481Z" fill="url(#paint6_linear)"/>
<path d="M299.693 164.481C289.462 171.402 277.852 206.323 281.358 217.571C290.801 189.058 296.937 180.624 306.717 170.262C310.627 166.124 315.248 162.719 320.361 160.209C314.082 158.585 306.386 159.956 299.693 164.481Z" fill="url(#paint7_linear)"/>
<path d="M362.185 129.643C349.705 125.547 336.97 130.194 333.745 140.005C330.52 149.815 338.012 161.102 350.493 165.192C362.974 169.283 390.879 187.462 394.104 177.646C397.329 167.829 374.661 133.734 362.185 129.643Z" fill="url(#paint8_linear)"/>
<path d="M362.186 129.638C373.928 133.492 394.711 163.904 394.413 175.658C377.495 150.834 369.275 144.404 357.02 137.12C352.123 134.207 346.742 132.195 341.133 131.179C346.75 127.915 354.507 127.122 362.186 129.638Z" fill="url(#paint9_linear)"/>
<path fill-rule="evenodd" clip-rule="evenodd" d="M50.9048 184.312L53.2808 259.258H116.126L115.53 240.947L63.5234 212.527L68.2313 174.82L50.9048 184.312Z" fill="#FF6BC1"/>
<path d="M347.091 91.7924C339.043 95.1728 334.682 103.04 337.345 109.366C340.008 115.692 348.69 118.092 356.733 114.712C364.776 111.331 386.706 108.314 384.043 101.983C381.381 95.6518 355.135 88.4175 347.091 91.7924Z" fill="url(#paint10_linear)"/>
<path fill-rule="evenodd" clip-rule="evenodd" d="M329.936 72.8098C334.964 76.2563 336.833 82.2573 334.109 86.2102C331.386 90.1632 325.113 90.5706 320.091 87.1241C315.069 83.6777 300.498 78.5025 303.2 74.5551C305.901 70.6076 324.914 69.3689 329.936 72.8098Z" fill="url(#paint11_linear)"/>
<path d="M347.092 91.7926C354.661 88.6159 378.343 94.8371 383.333 100.855C364.038 95.7621 357.086 96.1144 347.764 97.7936C344.038 98.4674 340.461 99.7985 337.202 101.725C338.586 97.6505 342.142 93.8737 347.092 91.7926Z" fill="url(#paint12_linear)"/>
<path d="M382.213 253.638H0V259.259H382.213V253.638Z" fill="#393762"/>
<path d="M382.213 259.259H0V262.072H382.213V259.259Z" fill="#393762"/>
<path d="M301.97 230.322C313.376 223.815 326.778 225.808 331.915 234.782C337.053 243.756 331.97 256.303 320.57 262.81C309.17 269.318 285.476 292.716 280.327 283.731C275.179 274.746 290.57 236.835 301.97 230.322Z" fill="url(#paint13_linear)"/>
<path d="M301.97 230.322C291.243 236.45 277.009 270.408 279.644 281.865C291.221 254.155 297.99 246.205 308.531 236.62C312.746 232.787 317.613 229.737 322.902 227.613C316.761 225.538 308.988 226.314 301.97 230.322Z" fill="url(#paint14_linear)"/>
<path d="M372.219 194.993C357.737 185.083 338.53 185.083 329.319 195.037C320.107 204.991 324.357 221.089 338.861 231.01C353.365 240.931 381.193 273.507 390.405 263.564C399.617 253.621 386.701 204.914 372.219 194.993Z" fill="url(#paint15_linear)"/>
<path d="M372.225 194.994C385.852 204.353 398.09 248.001 391.811 261.407C381.888 225.775 374.204 214.94 361.618 201.446C356.431 195.933 350.315 191.373 343.547 187.974C352.61 186.548 363.288 188.888 372.225 194.994Z" fill="url(#paint16_linear)"/>
<path fill-rule="evenodd" clip-rule="evenodd" d="M103.793 237.413C103.793 237.413 114.819 240.579 120.469 242.368C126.12 244.157 129.631 246.976 129.356 247.94C129.08 248.903 128.667 249.107 128.667 249.107H105.651L96.0039 243.568L103.793 237.413Z" fill="#FBAD83"/>
<path fill-rule="evenodd" clip-rule="evenodd" d="M51.6325 156.24C51.6325 156.24 30.6842 207.832 35.0944 223.875C39.5046 239.918 103.64 249.008 103.64 249.008C103.64 249.008 105.508 244.328 105.845 240.75L106.203 237.171L50.1662 217.891C50.1662 217.891 68.1817 181.632 69.1685 169.993C70.1553 158.354 51.6325 156.24 51.6325 156.24Z" fill="#FFADDD"/>
<path fill-rule="evenodd" clip-rule="evenodd" d="M144.224 253.537H230.398C232.289 253.537 233.822 252.006 233.822 250.118V190.196C233.822 188.308 232.289 186.777 230.398 186.777H144.224V253.537Z" fill="#F0EDED"/>
<path fill-rule="evenodd" clip-rule="evenodd" d="M143.099 253.537H144.488C146.177 253.534 147.545 252.168 147.548 250.481V189.833C147.545 188.147 146.177 186.78 144.488 186.777H143.099V253.537Z" fill="#B4BAC7"/>
<path fill-rule="evenodd" clip-rule="evenodd" d="M184.368 215.727C184.368 219.581 186.705 222.675 189.588 222.675C192.471 222.675 194.803 219.565 194.803 215.727C194.803 211.89 192.466 208.779 189.588 208.779C186.711 208.779 184.368 211.89 184.368 215.727Z" fill="#B4BAC7"/>
<path d="M143.094 249.106H93.7769V253.637H143.094V249.106Z" fill="#B4BAC7"/>
<path fill-rule="evenodd" clip-rule="evenodd" d="M270.244 229.706L274.324 120.768L263.695 118.318L238.53 229.706H270.244Z" fill="#E2E2E2"/>
<path fill-rule="evenodd" clip-rule="evenodd" d="M76.0757 144.993C76.0757 144.993 80.8111 153.593 88.0714 153.455C95.3316 153.318 93.6116 143.81 93.6116 143.81L76.0757 144.993Z" fill="white"/>
<path fill-rule="evenodd" clip-rule="evenodd" d="M106.71 100.563C106.71 100.563 110.337 129.908 108.915 135.644C107.492 141.381 92.9278 140.214 85.7006 139.63C78.4734 139.047 74.6256 140.021 71.4613 138.26C68.297 136.498 74.0963 118.143 74.0963 118.143L106.71 100.563Z" fill="#39436C"/>
<path fill-rule="evenodd" clip-rule="evenodd" d="M99.2898 141.221C94.7925 141.324 90.9381 138.031 90.3441 133.577C89.7501 129.124 92.607 124.938 96.9745 123.862C97.1205 123.823 97.2705 123.909 97.3107 124.055C97.3497 124.202 97.2641 124.353 97.1178 124.396C92.9179 125.542 90.3268 129.743 91.1925 134.005C92.0582 138.266 96.084 141.127 100.399 140.547C104.714 139.967 107.839 136.146 107.547 131.807C107.254 127.469 103.644 124.101 99.2898 124.104C99.1376 124.104 99.0142 123.981 99.0142 123.829C99.0171 123.678 99.1388 123.557 99.2898 123.554C104.175 123.554 108.135 127.509 108.135 132.387C108.135 137.266 104.175 141.221 99.2898 141.221Z" fill="white"/>
<path fill-rule="evenodd" clip-rule="evenodd" d="M94.9843 131.878L93.5951 143.809C93.5951 143.809 91.9413 146.562 83.2973 146.562C80.8007 146.607 78.3279 146.07 76.0757 144.993V123.939L94.9843 131.878Z" fill="#FBAD83"/>
<path fill-rule="evenodd" clip-rule="evenodd" d="M94.9846 131.878L94.0309 140.086C92.4492 140.206 90.8584 140.088 89.312 139.734C87.2723 139.266 81.4454 133.254 77.7354 124.644L94.9846 131.878Z" fill="#E68D5C"/>
<path fill-rule="evenodd" clip-rule="evenodd" d="M106.142 93.9288C106.142 93.9288 108.16 113.93 105.343 123.614C102.526 133.299 93.7659 137.378 85.9985 135.622C83.1208 134.961 72.7018 123.262 71.3843 108.81C70.0667 94.3582 71.3236 90.0034 73.6776 86.9478C76.0315 83.8923 97.4208 80.088 101.307 83.4298C105.194 86.7717 106.142 93.9288 106.142 93.9288Z" fill="#FBAD83"/>
<path fill-rule="evenodd" clip-rule="evenodd" d="M99.2896 93.197C99.2896 93.197 105.844 102.446 107.498 102.716C109.152 102.986 109.334 96.8416 108.926 91.3141C108.259 82.5824 102.184 78.7285 102.184 78.7285L99.2896 93.197Z" fill="#39436C"/>
<path fill-rule="evenodd" clip-rule="evenodd" d="M105.524 85.8852C105.524 85.8852 103.567 96.665 99.4605 103.112C95.3535 109.559 79.9344 107.208 77.1781 107.401C74.4217 107.593 77.5695 129.274 79.5265 136.503C81.4835 143.731 67.3985 141.579 62.9001 140.604C58.4018 139.63 56.0534 101.548 61.9244 86.7991C67.7954 72.0499 92.0404 72.6225 98.6887 75.8542C102.587 77.7507 105.188 81.5675 105.524 85.8852Z" fill="#39436C"/>
<path fill-rule="evenodd" clip-rule="evenodd" d="M70.4858 119.469C70.4858 122.31 74.2731 124.837 76.5939 124.837C78.9148 124.837 78.8982 122.31 78.8982 119.469C78.8982 116.628 77.0129 114.321 74.692 114.321C72.3712 114.321 70.4858 116.606 70.4858 119.469Z" fill="#FBAD83"/>
<path fill-rule="evenodd" clip-rule="evenodd" d="M72.3159 118.197C72.586 116.798 74.6809 115.923 75.8165 116.143C76.9521 116.363 73.9697 117.162 73.6996 118.555C73.4295 119.947 75.0227 121.34 73.887 121.12C72.7514 120.9 72.0458 119.59 72.3159 118.197Z" fill="#E68D5C"/>
<path fill-rule="evenodd" clip-rule="evenodd" d="M88.628 112.752C88.3839 112.752 88.1692 112.591 88.1005 112.357C88.0317 112.123 88.1253 111.872 88.3303 111.739L93.154 108.618C93.2828 108.534 93.4407 108.508 93.5895 108.546L97.1617 109.477C97.457 109.554 97.6335 109.856 97.5559 110.151C97.4782 110.446 97.1759 110.622 96.8806 110.545L93.5454 109.675L88.9257 112.664C88.837 112.722 88.7336 112.752 88.628 112.752Z" fill="#39436C"/>
<path fill-rule="evenodd" clip-rule="evenodd" d="M108.38 111.47C108.274 111.469 108.171 111.439 108.082 111.382L105.442 109.675L102.134 110.545C101.943 110.595 101.74 110.539 101.601 110.399C101.462 110.259 101.408 110.056 101.46 109.865C101.512 109.675 101.662 109.527 101.853 109.477L105.425 108.546C105.574 108.508 105.732 108.534 105.861 108.618L108.705 110.457C108.911 110.589 109.004 110.842 108.934 111.077C108.864 111.311 108.647 111.471 108.402 111.47H108.38Z" fill="#39436C"/>
<path fill-rule="evenodd" clip-rule="evenodd" d="M76.0756 141.221C71.5918 141.311 67.7538 138.027 67.1557 133.588C66.5576 129.15 69.3899 124.969 73.7382 123.873C73.8905 123.832 74.0472 123.922 74.0883 124.074C74.1294 124.226 74.0393 124.382 73.8871 124.423C69.6872 125.569 67.0961 129.771 67.9618 134.032C68.8275 138.293 72.8533 141.154 77.1682 140.574C81.4831 139.995 84.6088 136.173 84.3162 131.835C84.0235 127.497 80.4128 124.128 76.0591 124.132C75.9069 124.132 75.7835 124.008 75.7835 123.856C75.7835 123.704 75.9069 123.581 76.0591 123.581C80.9441 123.581 84.9043 127.536 84.9043 132.415C84.9043 137.293 80.9441 141.248 76.0591 141.248L76.0756 141.221Z" fill="white"/>
<path fill-rule="evenodd" clip-rule="evenodd" d="M249.065 66.3906V90.5488C249.065 90.5488 245.002 93.9952 237.858 93.5823C231.242 93.2024 230.195 90.8295 230.195 90.8295L227.438 78.299L249.043 66.4126" fill="#FBAD83"/>
<path fill-rule="evenodd" clip-rule="evenodd" d="M229.731 88.6926C232.374 87.6113 234.84 86.1396 237.046 84.3267C240.374 81.7741 242.868 78.2926 244.213 74.3232L229.714 77.076L227.509 78.2982L229.781 88.7146" fill="#E68D5C"/>
<path d="M223.794 52.395H211.518V53.0279H223.794V52.395Z" fill="#39436C"/>
<path fill-rule="evenodd" clip-rule="evenodd" d="M215.173 35.4C215.173 35.4 213.089 40.5476 213.089 45.0511C213.089 48.6793 214.555 55.5116 214.555 55.5116L222.907 34.2163L215.173 35.4Z" fill="#364156"/>
<path fill-rule="evenodd" clip-rule="evenodd" d="M215.679 76.1903C222.295 90.0641 238.679 81.8664 245.702 74.8689C252.725 67.8715 251.766 41.1313 249.809 36.0662C247.852 31.0011 231.617 26.894 223.083 30.1588C214.549 33.4236 209.075 62.3109 215.679 76.1903Z" fill="#FBAD83"/>
<path fill-rule="evenodd" clip-rule="evenodd" d="M213.094 66.4121C213.427 69.7885 214.3 73.0896 215.68 76.1899C218.309 81.6954 222.482 83.7324 227.003 83.7324C222.488 83.7324 218.309 81.7064 215.685 76.1899C214.305 73.0896 213.433 69.7885 213.1 66.4121" fill="#D7C5BE"/>
<path fill-rule="evenodd" clip-rule="evenodd" d="M251.066 55.5283H243.662C243.662 55.5283 238.761 68.3616 234.555 69.5949C234.217 69.6875 233.869 69.7338 233.519 69.7325C230.013 69.7325 225.349 65.4822 219.461 65.2345C218.91 65.2345 218.425 65.196 217.978 65.196C215.459 65.196 214.329 65.5703 213.083 66.4127C213.416 69.789 214.289 73.0902 215.668 76.1904C218.293 81.6959 222.471 83.733 226.986 83.733C233.827 83.733 241.457 79.0863 245.685 74.8691C249.081 71.4832 250.608 63.4727 251.055 55.5283" fill="#D48C68"/>
<path fill-rule="evenodd" clip-rule="evenodd" d="M248.861 57.2235C246.463 57.0021 244.257 55.8184 242.748 53.9433C241.239 52.0681 240.557 49.6619 240.857 47.2751C241.231 44.2691 242.119 43.3056 241.336 40.4592C239.804 34.7776 232.957 35.3116 228.359 37.4367C223.762 39.5618 218.739 39.5508 214.781 36.5614C212.896 35.1409 210.526 31.1825 213.089 27.0479C215.652 22.9132 224.77 17.9473 224.77 17.9473C224.77 17.9473 223.668 20.4302 224.032 21.7185C224.396 23.0068 248.624 15.7341 253.585 26.4863C258.547 37.2385 251.932 57.5043 251.932 57.5043L248.861 57.2235Z" fill="#39436C"/>
<path fill-rule="evenodd" clip-rule="evenodd" d="M253.116 57.3667C253.116 60.9453 248.353 64.1219 245.431 64.1219C242.51 64.1219 242.559 60.9453 242.559 57.3667C242.559 53.7881 244.93 50.8867 247.851 50.8867C250.773 50.8867 253.116 53.7881 253.116 57.3667Z" fill="#FBAD83"/>
<path fill-rule="evenodd" clip-rule="evenodd" d="M250.934 57.0475C251.27 58.6496 249.44 60.5214 248.133 60.7967C246.827 61.072 249.638 58.8863 249.296 57.2842C248.955 55.6821 246.639 54.9223 247.946 54.6471C249.252 54.3718 250.592 55.4454 250.934 57.0475Z" fill="#E68D5C"/>
<path fill-rule="evenodd" clip-rule="evenodd" d="M216.098 60.2187C213.436 60.2187 211.269 57.4164 211.269 53.9699C211.269 50.5235 213.436 47.7212 216.098 47.7212C218.761 47.7212 220.927 50.5235 220.927 53.9699C220.927 57.4164 218.733 60.2187 216.098 60.2187ZM216.098 48.2717C213.739 48.2717 211.82 50.8263 211.82 53.9699C211.82 57.1136 213.739 59.6681 216.098 59.6681C218.458 59.6681 220.376 57.1081 220.376 53.9699C220.376 50.8318 218.43 48.2717 216.098 48.2717Z" fill="#39436C"/>
<path fill-rule="evenodd" clip-rule="evenodd" d="M227.461 60.2187C224.798 60.2187 222.631 57.4164 222.631 53.9699C222.631 50.5235 224.798 47.7212 227.461 47.7212C230.123 47.7212 232.29 50.5235 232.29 53.9699C232.29 57.4164 230.123 60.2187 227.461 60.2187ZM227.461 48.2717C225.101 48.2717 223.183 50.8263 223.183 53.9699C223.183 57.1136 225.101 59.6681 227.461 59.6681C229.82 59.6681 231.738 57.1081 231.738 53.9699C231.738 50.8318 229.82 48.2717 227.461 48.2717Z" fill="#39436C"/>
<path d="M243.243 52.395H231.903V53.0279H243.243V52.395Z" fill="#39436C"/>
<path d="M222.901 52.395H220.624V53.0279H222.901V52.395Z" fill="#39436C"/>
<path fill-rule="evenodd" clip-rule="evenodd" d="M216.143 68.7793H226.429C226.429 68.7793 224.368 73.6407 220.872 73.7728C217.377 73.9049 216.143 68.7793 216.143 68.7793Z" fill="white"/>
<path fill-rule="evenodd" clip-rule="evenodd" d="M285.559 128.135L269.572 133.64L277.289 164.719L260.145 231.583L255.283 234.451C255.283 234.451 255.007 241.609 260.316 242.985C265.625 244.361 267.549 240.441 267.549 240.441V235.195C271.799 224.47 293.127 170.527 293.458 167.048C293.828 163.183 285.559 128.135 285.559 128.135Z" fill="#FBAD83"/>
<path fill-rule="evenodd" clip-rule="evenodd" d="M267.797 135.562C267.797 135.562 261.496 116.975 264.142 109.477C266.05 104.07 269.732 102.248 272.571 101.488C275.41 100.729 282.345 108.2 286.105 121.237C288.707 130.266 288.938 131.235 288.938 131.235C288.938 131.235 275.835 138.739 267.797 135.562Z" fill="#F0F1F4"/>
<path fill-rule="evenodd" clip-rule="evenodd" d="M252.956 90.4382C252.956 90.4382 254.61 88.7865 258.866 90.4382C263.122 92.0898 263.982 94.7985 263.756 97.5127C263.53 100.227 258.326 101.603 255.04 100.684C251.755 99.7645 248.844 96.1859 249.081 94.7325C249.318 93.279 252.956 90.4382 252.956 90.4382Z" fill="#BC7150"/>
<path fill-rule="evenodd" clip-rule="evenodd" d="M49.9676 160.897C48.0412 159.674 46.7289 157.688 46.3604 155.438C45.992 153.188 46.6023 150.888 48.0381 149.115C48.209 148.9 48.3909 148.691 48.5894 148.477C52.3656 144.292 55.8882 144.54 58.9092 146.01C61.9301 147.48 61.2025 154.065 58.6887 157.429C56.1749 160.792 51.7371 161.938 50.166 161.024L49.9676 160.897Z" fill="#BC7150"/>
<path fill-rule="evenodd" clip-rule="evenodd" d="M124.599 69.1426L131.319 78.7277L138.303 73.602L145.718 77.2026L144.726 69.4179L124.599 69.1426Z" fill="white"/>
<path fill-rule="evenodd" clip-rule="evenodd" d="M124.587 43.3716V69.1428C124.587 69.1428 128.92 72.815 136.544 72.3745C143.595 71.9671 144.714 69.4181 144.714 69.4181L147.631 56.0507L124.587 43.3716Z" fill="#BC7150"/>
<path fill-rule="evenodd" clip-rule="evenodd" d="M159.792 12.3702C159.792 12.3702 163.21 13.642 162.973 21.7901C162.857 25.644 161.412 32.9663 161.412 32.9663L152.504 10.2451L159.792 12.3702Z" fill="#39436C"/>
<path fill-rule="evenodd" clip-rule="evenodd" d="M160.211 54.9993C153.165 69.8036 135.679 61.0553 128.187 53.5954C120.695 46.1354 121.737 17.6169 123.81 12.205C125.883 6.79313 143.187 2.41626 152.316 5.90675C161.445 9.39723 167.256 40.1895 160.211 54.9993Z" fill="#BC7150"/>
<path fill-rule="evenodd" clip-rule="evenodd" d="M133.629 30.2798C133.629 30.2798 135.575 46.6641 140.067 47.9745C143.926 49.0756 149.246 43.6196 156.165 43.3278C160.023 43.1627 161.407 43.526 162.973 44.5831C162.62 48.184 161.689 51.7048 160.216 55.0105C153.171 69.8148 135.685 61.0665 128.193 53.6066C124.588 49.984 122.934 41.4339 122.465 32.9665L133.629 30.2798Z" fill="#39436C"/>
<path fill-rule="evenodd" clip-rule="evenodd" d="M130.69 36.1431C130.69 36.1431 132.851 36.3578 133.733 35.075C134.615 33.7922 132.079 26.547 134.643 18.8613C136.468 13.3558 144.764 10.2012 151.556 11.5335C158.348 12.8658 160.056 13.4659 160.751 11.495C161.446 9.524 158.717 4.88837 156.341 3.05504C153.965 1.22171 142.94 -2.02103 133.739 1.73372C124.538 5.48847 122.713 7.98246 120.63 13.9394C118.546 19.8964 119.896 34.8218 120.63 35.7742C121.363 36.7267 130.69 36.1431 130.69 36.1431Z" fill="#39436C"/>
<path fill-rule="evenodd" clip-rule="evenodd" d="M120.282 34.9265C120.282 38.7418 125.359 42.1332 128.474 42.1332C131.589 42.1332 131.567 38.7418 131.567 34.9265C131.567 31.1112 129.042 28.0171 125.922 28.0171C122.802 28.0171 120.282 31.1112 120.282 34.9265Z" fill="#BC7150"/>
<path fill-rule="evenodd" clip-rule="evenodd" d="M162.973 44.5938C162.973 44.5938 162.973 62.5362 160.856 65.7734C158.739 69.0106 151.799 69.7098 148.656 68.361C145.514 67.0121 140.387 62.1453 139.136 58.0272C137.884 53.909 157.741 48.0072 157.741 48.0072L162.973 44.5938Z" fill="#39436C"/>
<path fill-rule="evenodd" clip-rule="evenodd" d="M122.344 33.143C121.98 34.8497 123.932 36.8482 125.327 37.1455C126.721 37.4428 123.722 35.1085 124.086 33.3962C124.45 31.684 126.92 30.8802 125.525 30.5829C124.13 30.2856 122.703 31.4363 122.344 33.143Z" fill="#8E4A2F"/>
<path fill-rule="evenodd" clip-rule="evenodd" d="M159.317 50.4411C159.317 50.4411 151.864 50.6393 150.624 50.2429L149.395 49.8521C149.395 49.8521 149.428 53.4912 152.884 54.7464C156.341 56.0017 158.231 53.6839 158.694 52.4011C159.158 51.1183 159.317 50.4411 159.317 50.4411Z" fill="white"/>
<path fill-rule="evenodd" clip-rule="evenodd" d="M157.488 27.6313C157.221 27.6284 156.995 27.4355 156.95 27.1731C156.906 26.9107 157.055 26.654 157.306 26.5633C159.427 25.9359 161.684 25.9359 163.805 26.5633C164.004 26.6089 164.161 26.7604 164.214 26.9571C164.267 27.1537 164.207 27.3635 164.058 27.5024C163.908 27.6412 163.695 27.6866 163.502 27.6203C161.596 27.0739 159.575 27.0739 157.67 27.6203C157.61 27.634 157.548 27.6378 157.488 27.6313Z" fill="#39436C"/>
<path fill-rule="evenodd" clip-rule="evenodd" d="M144.913 29.4817C144.78 29.483 144.65 29.4361 144.549 29.3496C144.319 29.1503 144.295 28.8029 144.494 28.5733C144.626 28.4246 147.736 24.9286 153.276 26.6959C153.464 26.7549 153.606 26.9097 153.649 27.1018C153.692 27.294 153.629 27.4944 153.484 27.6276C153.338 27.7608 153.133 27.8065 152.945 27.7475C148.11 26.2059 145.437 29.1679 145.326 29.2945C145.222 29.4133 145.071 29.4815 144.913 29.4817Z" fill="#39436C"/>
<defs>
<linearGradient id="paint0_linear" x1="63.4661" y1="102.846" x2="101.845" y2="128.81" gradientUnits="userSpaceOnUse">
<stop stop-color="#136BDE"/>
<stop offset="1" stop-color="#68ADFD"/>
</linearGradient>
<linearGradient id="paint1_linear" x1="182.868" y1="88.9013" x2="201.666" y2="125.895" gradientUnits="userSpaceOnUse">
<stop stop-color="#136BDE"/>
<stop offset="1" stop-color="#68ADFD"/>
</linearGradient>
<linearGradient id="paint2_linear" x1="120.082" y1="114.216" x2="180.525" y2="143.346" gradientUnits="userSpaceOnUse">
<stop stop-color="#136BDE"/>
<stop offset="1" stop-color="#68ADFD"/>
</linearGradient>
<linearGradient id="paint3_linear" x1="114.493" y1="135.578" x2="158.577" y2="154.315" gradientUnits="userSpaceOnUse">
<stop stop-color="#136BDE"/>
<stop offset="1" stop-color="#68ADFD"/>
</linearGradient>
<linearGradient id="paint4_linear" x1="317.073" y1="142.903" x2="296.096" y2="142.903" gradientUnits="userSpaceOnUse">
<stop stop-color="#57D0A1"/>
<stop offset="1" stop-color="#4DE1A3"/>
</linearGradient>
<linearGradient id="paint5_linear" x1="320.364" y1="243.137" x2="300.345" y2="243.137" gradientUnits="userSpaceOnUse">
<stop stop-color="#35AD7E"/>
<stop offset="1" stop-color="#4DE1A3"/>
</linearGradient>
<linearGradient id="paint6_linear" x1="297.283" y1="166.186" x2="334.447" y2="213.069" gradientUnits="userSpaceOnUse">
<stop stop-color="#A3EDD0"/>
<stop offset="1" stop-color="#4DE1A3"/>
</linearGradient>
<linearGradient id="paint7_linear" x1="297.711" y1="188.638" x2="279.216" y2="188.638" gradientUnits="userSpaceOnUse">
<stop stop-color="#57D0A1"/>
<stop offset="1" stop-color="#4DE1A3"/>
</linearGradient>
<linearGradient id="paint8_linear" x1="352.635" y1="133.803" x2="380.51" y2="182.85" gradientUnits="userSpaceOnUse">
<stop stop-color="#A3EDD0"/>
<stop offset="1" stop-color="#4DE1A3"/>
</linearGradient>
<linearGradient id="paint9_linear" x1="363.971" y1="151.969" x2="339.112" y2="151.969" gradientUnits="userSpaceOnUse">
<stop stop-color="#57D0A1"/>
<stop offset="1" stop-color="#4DE1A3"/>
</linearGradient>
<linearGradient id="paint10_linear" x1="351.816" y1="93.664" x2="361.677" y2="121.542" gradientUnits="userSpaceOnUse">
<stop stop-color="#A3EDD0"/>
<stop offset="1" stop-color="#4DE1A3"/>
</linearGradient>
<linearGradient id="paint11_linear" x1="316.796" y1="80.1571" x2="301.636" y2="80.1571" gradientUnits="userSpaceOnUse">
<stop stop-color="#57D0A1"/>
<stop offset="1" stop-color="#4DE1A3"/>
</linearGradient>
<linearGradient id="paint12_linear" x1="356.975" y1="96.3433" x2="335.453" y2="96.3433" gradientUnits="userSpaceOnUse">
<stop stop-color="#57D0A1"/>
<stop offset="1" stop-color="#4DE1A3"/>
</linearGradient>
<linearGradient id="paint13_linear" x1="296.768" y1="232.889" x2="331.644" y2="281.103" gradientUnits="userSpaceOnUse">
<stop stop-color="#A3EDD0"/>
<stop offset="1" stop-color="#4DE1A3"/>
</linearGradient>
<linearGradient id="paint14_linear" x1="298.003" y1="254.254" x2="277.672" y2="254.254" gradientUnits="userSpaceOnUse">
<stop stop-color="#57D0A1"/>
<stop offset="1" stop-color="#4DE1A3"/>
</linearGradient>
<linearGradient id="paint15_linear" x1="346.532" y1="195.966" x2="392.878" y2="257.617" gradientUnits="userSpaceOnUse">
<stop stop-color="#A3EDD0"/>
<stop offset="1" stop-color="#4DE1A3"/>
</linearGradient>
<linearGradient id="paint16_linear" x1="364.96" y1="224.586" x2="341.653" y2="224.586" gradientUnits="userSpaceOnUse">
<stop stop-color="#57D0A1"/>
<stop offset="1" stop-color="#4DE1A3"/>
</linearGradient>
</defs>
</svg>
