<svg width="14" height="14" viewBox="0 0 14 14" fill="none" xmlns="http://www.w3.org/2000/svg">
<path d="M7 4.57764e-05C3.13853 4.57764e-05 0 3.13857 0 7.00005C0 10.8615 3.13853 14 7 14C10.8615 14 14 10.8615 14 7.00005C14 3.13857 10.8615 4.57764e-05 7 4.57764e-05ZM7 0.777824C10.4407 0.777824 13.2222 3.55935 13.2222 7.00005C13.2222 10.4407 10.4407 13.2223 7 13.2223C3.55931 13.2223 0.777778 10.4407 0.777778 7.00005C0.777778 3.55935 3.55931 0.777824 7 0.777824Z" fill="#468EF1"/>
<path d="M8.52322 6.7482C8.41176 6.81301 8.30031 6.86897 8.18885 6.9161C8.08359 6.95734 7.97214 6.98679 7.85449 7.00446C8.09597 7.03981 8.31889 7.12228 8.52322 7.25189L10 8.07368L9.4613 8.95734L7.98452 8.13554C7.87306 8.07074 7.7678 8.00299 7.66873 7.9323C7.57585 7.86161 7.49536 7.78502 7.42724 7.70255C7.50774 7.89695 7.54799 8.12081 7.54799 8.37413V10H6.45201V8.38296C6.45201 8.26514 6.4582 8.15027 6.47059 8.03834C6.48916 7.92641 6.51703 7.82037 6.55418 7.72022C6.48607 7.8027 6.40557 7.87633 6.31269 7.94114C6.21981 8.00594 6.12074 8.07074 6.01548 8.13554L4.54799 8.9485L4 8.06485L5.47678 7.25189C5.71207 7.12228 5.93498 7.03981 6.14551 7.00446C5.92879 6.96912 5.70588 6.8837 5.47678 6.7482L4 5.92641L4.5387 5.04275L6.01548 5.87339C6.12693 5.93819 6.2291 6.00594 6.32198 6.07663C6.41486 6.14143 6.49845 6.21507 6.57276 6.29754C6.49226 6.10314 6.45201 5.88223 6.45201 5.6348V4.00005H7.54799V5.61713C7.54799 5.74084 7.5387 5.85866 7.52012 5.97059C7.50774 6.08252 7.47988 6.18856 7.43653 6.28871C7.51084 6.20623 7.59443 6.13259 7.68731 6.06779C7.78019 6.00299 7.87926 5.93819 7.98452 5.87339L9.45201 5.06043L10 5.94408L8.52322 6.7482Z" fill="#468EF1"/>
</svg>
