<svg width="679" height="343" viewBox="0 0 679 343" fill="none" xmlns="http://www.w3.org/2000/svg">
<g clip-path="url(#clip0)">
<rect x="-78" y="-1063" width="834" height="3588" fill="white"/>
<g filter="url(#filter0_d)">
<rect x="14" y="7" width="300" height="80" rx="5" fill="white"/>
</g>
<path d="M130.31 47.81C130.803 47.81 131.233 47.75 131.6 47.63C131.967 47.5033 132.27 47.3267 132.51 47.1C132.757 46.8667 132.94 46.5867 133.06 46.26C133.18 45.9267 133.24 45.5567 133.24 45.15C133.24 44.7633 133.18 44.4133 133.06 44.1C132.94 43.7867 132.76 43.52 132.52 43.3C132.28 43.08 131.977 42.9133 131.61 42.8C131.243 42.68 130.81 42.62 130.31 42.62H128.3V47.81H130.31ZM130.31 40.54C131.277 40.54 132.113 40.6533 132.82 40.88C133.527 41.1067 134.11 41.4233 134.57 41.83C135.03 42.2367 135.37 42.7233 135.59 43.29C135.817 43.8567 135.93 44.4767 135.93 45.15C135.93 45.85 135.813 46.4933 135.58 47.08C135.347 47.66 134.997 48.16 134.53 48.58C134.063 49 133.477 49.3267 132.77 49.56C132.07 49.7933 131.25 49.91 130.31 49.91H128.3V55H125.61V40.54H130.31ZM139.777 46.52C140.097 45.9067 140.477 45.4267 140.917 45.08C141.357 44.7267 141.877 44.55 142.477 44.55C142.95 44.55 143.33 44.6533 143.617 44.86L143.457 46.71C143.423 46.83 143.373 46.9167 143.307 46.97C143.247 47.0167 143.163 47.04 143.057 47.04C142.957 47.04 142.807 47.0233 142.607 46.99C142.413 46.9567 142.223 46.94 142.037 46.94C141.763 46.94 141.52 46.98 141.307 47.06C141.093 47.14 140.9 47.2567 140.727 47.41C140.56 47.5567 140.41 47.7367 140.277 47.95C140.15 48.1633 140.03 48.4067 139.917 48.68V55H137.447V44.74H138.897C139.15 44.74 139.327 44.7867 139.427 44.88C139.527 44.9667 139.593 45.1267 139.627 45.36L139.777 46.52ZM149.155 44.58C149.915 44.58 150.605 44.7033 151.225 44.95C151.851 45.1967 152.385 45.5467 152.825 46C153.271 46.4533 153.615 47.0067 153.855 47.66C154.095 48.3133 154.215 49.0433 154.215 49.85C154.215 50.6633 154.095 51.3967 153.855 52.05C153.615 52.7033 153.271 53.26 152.825 53.72C152.385 54.18 151.851 54.5333 151.225 54.78C150.605 55.0267 149.915 55.15 149.155 55.15C148.388 55.15 147.691 55.0267 147.065 54.78C146.438 54.5333 145.901 54.18 145.455 53.72C145.015 53.26 144.671 52.7033 144.425 52.05C144.185 51.3967 144.065 50.6633 144.065 49.85C144.065 49.0433 144.185 48.3133 144.425 47.66C144.671 47.0067 145.015 46.4533 145.455 46C145.901 45.5467 146.438 45.1967 147.065 44.95C147.691 44.7033 148.388 44.58 149.155 44.58ZM149.155 53.25C150.008 53.25 150.638 52.9633 151.045 52.39C151.458 51.8167 151.665 50.9767 151.665 49.87C151.665 48.7633 151.458 47.92 151.045 47.34C150.638 46.76 150.008 46.47 149.155 46.47C148.288 46.47 147.645 46.7633 147.225 47.35C146.811 47.93 146.605 48.77 146.605 49.87C146.605 50.97 146.811 51.81 147.225 52.39C147.645 52.9633 148.288 53.25 149.155 53.25ZM162.539 47.36C162.259 47.02 161.952 46.78 161.619 46.64C161.292 46.5 160.939 46.43 160.559 46.43C160.186 46.43 159.849 46.5 159.549 46.64C159.249 46.78 158.992 46.9933 158.779 47.28C158.566 47.56 158.402 47.92 158.289 48.36C158.176 48.7933 158.119 49.3067 158.119 49.9C158.119 50.5 158.166 51.01 158.259 51.43C158.359 51.8433 158.499 52.1833 158.679 52.45C158.859 52.71 159.079 52.9 159.339 53.02C159.599 53.1333 159.889 53.19 160.209 53.19C160.722 53.19 161.159 53.0833 161.519 52.87C161.879 52.6567 162.219 52.3533 162.539 51.96V47.36ZM165.009 40.14V55H163.499C163.172 55 162.966 54.85 162.879 54.55L162.669 53.56C162.256 54.0333 161.779 54.4167 161.239 54.71C160.706 55.0033 160.082 55.15 159.369 55.15C158.809 55.15 158.296 55.0333 157.829 54.8C157.362 54.5667 156.959 54.23 156.619 53.79C156.286 53.3433 156.026 52.7933 155.839 52.14C155.659 51.4867 155.569 50.74 155.569 49.9C155.569 49.14 155.672 48.4333 155.879 47.78C156.086 47.1267 156.382 46.56 156.769 46.08C157.156 45.6 157.619 45.2267 158.159 44.96C158.699 44.6867 159.306 44.55 159.979 44.55C160.552 44.55 161.042 44.64 161.449 44.82C161.856 45 162.219 45.2433 162.539 45.55V40.14H165.009ZM176.287 44.74V55H174.777C174.45 55 174.243 54.85 174.157 54.55L173.987 53.73C173.567 54.1567 173.103 54.5033 172.597 54.77C172.09 55.03 171.493 55.16 170.807 55.16C170.247 55.16 169.75 55.0667 169.317 54.88C168.89 54.6867 168.53 54.4167 168.237 54.07C167.943 53.7233 167.72 53.3133 167.567 52.84C167.42 52.36 167.347 51.8333 167.347 51.26V44.74H169.817V51.26C169.817 51.8867 169.96 52.3733 170.247 52.72C170.54 53.06 170.977 53.23 171.557 53.23C171.983 53.23 172.383 53.1367 172.757 52.95C173.13 52.7567 173.483 52.4933 173.817 52.16V44.74H176.287ZM186.086 46.91C186.012 47.0033 185.939 47.0767 185.866 47.13C185.799 47.1833 185.699 47.21 185.566 47.21C185.439 47.21 185.316 47.1733 185.196 47.1C185.076 47.02 184.932 46.9333 184.766 46.84C184.599 46.74 184.399 46.6533 184.166 46.58C183.939 46.5 183.656 46.46 183.316 46.46C182.882 46.46 182.502 46.54 182.176 46.7C181.849 46.8533 181.576 47.0767 181.356 47.37C181.142 47.6633 180.982 48.02 180.876 48.44C180.769 48.8533 180.716 49.3233 180.716 49.85C180.716 50.3967 180.772 50.8833 180.886 51.31C181.006 51.7367 181.176 52.0967 181.396 52.39C181.616 52.6767 181.882 52.8967 182.196 53.05C182.509 53.1967 182.862 53.27 183.256 53.27C183.649 53.27 183.966 53.2233 184.206 53.13C184.452 53.03 184.659 52.9233 184.826 52.81C184.992 52.69 185.136 52.5833 185.256 52.49C185.382 52.39 185.522 52.34 185.676 52.34C185.876 52.34 186.026 52.4167 186.126 52.57L186.836 53.47C186.562 53.79 186.266 54.06 185.946 54.28C185.626 54.4933 185.292 54.6667 184.946 54.8C184.606 54.9267 184.252 55.0167 183.886 55.07C183.526 55.1233 183.166 55.15 182.806 55.15C182.172 55.15 181.576 55.0333 181.016 54.8C180.456 54.56 179.966 54.2133 179.546 53.76C179.126 53.3067 178.792 52.7533 178.546 52.1C178.306 51.44 178.186 50.69 178.186 49.85C178.186 49.0967 178.292 48.4 178.506 47.76C178.726 47.1133 179.046 46.5567 179.466 46.09C179.886 45.6167 180.406 45.2467 181.026 44.98C181.646 44.7133 182.359 44.58 183.166 44.58C183.932 44.58 184.602 44.7033 185.176 44.95C185.756 45.1967 186.276 45.55 186.736 46.01L186.086 46.91ZM191.804 55.16C190.911 55.16 190.224 54.91 189.744 54.41C189.271 53.9033 189.034 53.2067 189.034 52.32V46.59H187.984C187.851 46.59 187.737 46.5467 187.644 46.46C187.551 46.3733 187.504 46.2433 187.504 46.07V45.09L189.154 44.82L189.674 42.02C189.707 41.8867 189.771 41.7833 189.864 41.71C189.957 41.6367 190.077 41.6 190.224 41.6H191.504V44.83H194.244V46.59H191.504V52.15C191.504 52.47 191.581 52.72 191.734 52.9C191.894 53.08 192.111 53.17 192.384 53.17C192.537 53.17 192.664 53.1533 192.764 53.12C192.871 53.08 192.961 53.04 193.034 53C193.114 52.96 193.184 52.9233 193.244 52.89C193.304 52.85 193.364 52.83 193.424 52.83C193.497 52.83 193.557 52.85 193.604 52.89C193.651 52.9233 193.701 52.9767 193.754 53.05L194.494 54.25C194.134 54.55 193.721 54.7767 193.254 54.93C192.787 55.0833 192.304 55.16 191.804 55.16ZM203.779 42.68V46.96H209.199V49.11H203.779V55H201.079V40.54H210.199V42.68H203.779ZM215.658 44.58C216.418 44.58 217.108 44.7033 217.728 44.95C218.355 45.1967 218.888 45.5467 219.328 46C219.775 46.4533 220.118 47.0067 220.358 47.66C220.598 48.3133 220.718 49.0433 220.718 49.85C220.718 50.6633 220.598 51.3967 220.358 52.05C220.118 52.7033 219.775 53.26 219.328 53.72C218.888 54.18 218.355 54.5333 217.728 54.78C217.108 55.0267 216.418 55.15 215.658 55.15C214.892 55.15 214.195 55.0267 213.568 54.78C212.942 54.5333 212.405 54.18 211.958 53.72C211.518 53.26 211.175 52.7033 210.928 52.05C210.688 51.3967 210.568 50.6633 210.568 49.85C210.568 49.0433 210.688 48.3133 210.928 47.66C211.175 47.0067 211.518 46.4533 211.958 46C212.405 45.5467 212.942 45.1967 213.568 44.95C214.195 44.7033 214.892 44.58 215.658 44.58ZM215.658 53.25C216.512 53.25 217.142 52.9633 217.548 52.39C217.962 51.8167 218.168 50.9767 218.168 49.87C218.168 48.7633 217.962 47.92 217.548 47.34C217.142 46.76 216.512 46.47 215.658 46.47C214.792 46.47 214.148 46.7633 213.728 47.35C213.315 47.93 213.108 48.77 213.108 49.87C213.108 50.97 213.315 51.81 213.728 52.39C214.148 52.9633 214.792 53.25 215.658 53.25ZM229.953 46.91C229.879 47.0033 229.806 47.0767 229.733 47.13C229.666 47.1833 229.566 47.21 229.433 47.21C229.306 47.21 229.183 47.1733 229.063 47.1C228.943 47.02 228.799 46.9333 228.633 46.84C228.466 46.74 228.266 46.6533 228.033 46.58C227.806 46.5 227.523 46.46 227.183 46.46C226.749 46.46 226.369 46.54 226.043 46.7C225.716 46.8533 225.443 47.0767 225.223 47.37C225.009 47.6633 224.849 48.02 224.743 48.44C224.636 48.8533 224.583 49.3233 224.583 49.85C224.583 50.3967 224.639 50.8833 224.753 51.31C224.873 51.7367 225.043 52.0967 225.263 52.39C225.483 52.6767 225.749 52.8967 226.063 53.05C226.376 53.1967 226.729 53.27 227.123 53.27C227.516 53.27 227.833 53.2233 228.073 53.13C228.319 53.03 228.526 52.9233 228.693 52.81C228.859 52.69 229.003 52.5833 229.123 52.49C229.249 52.39 229.389 52.34 229.543 52.34C229.743 52.34 229.893 52.4167 229.993 52.57L230.703 53.47C230.429 53.79 230.133 54.06 229.813 54.28C229.493 54.4933 229.159 54.6667 228.813 54.8C228.473 54.9267 228.119 55.0167 227.753 55.07C227.393 55.1233 227.033 55.15 226.673 55.15C226.039 55.15 225.443 55.0333 224.883 54.8C224.323 54.56 223.833 54.2133 223.413 53.76C222.993 53.3067 222.659 52.7533 222.413 52.1C222.173 51.44 222.053 50.69 222.053 49.85C222.053 49.0967 222.159 48.4 222.373 47.76C222.593 47.1133 222.913 46.5567 223.333 46.09C223.753 45.6167 224.273 45.2467 224.893 44.98C225.513 44.7133 226.226 44.58 227.033 44.58C227.799 44.58 228.469 44.7033 229.043 44.95C229.623 45.1967 230.143 45.55 230.603 46.01L229.953 46.91ZM241.091 44.74V55H239.581C239.255 55 239.048 54.85 238.961 54.55L238.791 53.73C238.371 54.1567 237.908 54.5033 237.401 54.77C236.895 55.03 236.298 55.16 235.611 55.16C235.051 55.16 234.555 55.0667 234.121 54.88C233.695 54.6867 233.335 54.4167 233.041 54.07C232.748 53.7233 232.525 53.3133 232.371 52.84C232.225 52.36 232.151 51.8333 232.151 51.26V44.74H234.621V51.26C234.621 51.8867 234.765 52.3733 235.051 52.72C235.345 53.06 235.781 53.23 236.361 53.23C236.788 53.23 237.188 53.1367 237.561 52.95C237.935 52.7567 238.288 52.4933 238.621 52.16V44.74H241.091ZM249.8 46.74C249.734 46.8467 249.664 46.9233 249.59 46.97C249.517 47.01 249.424 47.03 249.31 47.03C249.19 47.03 249.06 46.9967 248.92 46.93C248.787 46.8633 248.63 46.79 248.45 46.71C248.27 46.6233 248.064 46.5467 247.83 46.48C247.604 46.4133 247.334 46.38 247.02 46.38C246.534 46.38 246.15 46.4833 245.87 46.69C245.597 46.8967 245.46 47.1667 245.46 47.5C245.46 47.72 245.53 47.9067 245.67 48.06C245.817 48.2067 246.007 48.3367 246.24 48.45C246.48 48.5633 246.75 48.6667 247.05 48.76C247.35 48.8467 247.654 48.9433 247.96 49.05C248.274 49.1567 248.58 49.28 248.88 49.42C249.18 49.5533 249.447 49.7267 249.68 49.94C249.92 50.1467 250.11 50.3967 250.25 50.69C250.397 50.9833 250.47 51.3367 250.47 51.75C250.47 52.2433 250.38 52.7 250.2 53.12C250.027 53.5333 249.767 53.8933 249.42 54.2C249.074 54.5 248.644 54.7367 248.13 54.91C247.624 55.0767 247.037 55.16 246.37 55.16C246.017 55.16 245.67 55.1267 245.33 55.06C244.997 55 244.674 54.9133 244.36 54.8C244.054 54.6867 243.767 54.5533 243.5 54.4C243.24 54.2467 243.01 54.08 242.81 53.9L243.38 52.96C243.454 52.8467 243.54 52.76 243.64 52.7C243.74 52.64 243.867 52.61 244.02 52.61C244.174 52.61 244.317 52.6533 244.45 52.74C244.59 52.8267 244.75 52.92 244.93 53.02C245.11 53.12 245.32 53.2133 245.56 53.3C245.807 53.3867 246.117 53.43 246.49 53.43C246.784 53.43 247.034 53.3967 247.24 53.33C247.454 53.2567 247.627 53.1633 247.76 53.05C247.9 52.9367 248 52.8067 248.06 52.66C248.127 52.5067 248.16 52.35 248.16 52.19C248.16 51.95 248.087 51.7533 247.94 51.6C247.8 51.4467 247.61 51.3133 247.37 51.2C247.137 51.0867 246.867 50.9867 246.56 50.9C246.26 50.8067 245.95 50.7067 245.63 50.6C245.317 50.4933 245.007 50.37 244.7 50.23C244.4 50.0833 244.13 49.9 243.89 49.68C243.657 49.46 243.467 49.19 243.32 48.87C243.18 48.55 243.11 48.1633 243.11 47.71C243.11 47.29 243.194 46.89 243.36 46.51C243.527 46.13 243.77 45.8 244.09 45.52C244.417 45.2333 244.82 45.0067 245.3 44.84C245.787 44.6667 246.347 44.58 246.98 44.58C247.687 44.58 248.33 44.6967 248.91 44.93C249.49 45.1633 249.974 45.47 250.36 45.85L249.8 46.74ZM258.939 48.69C258.939 48.37 258.893 48.07 258.799 47.79C258.713 47.5033 258.579 47.2533 258.399 47.04C258.219 46.8267 257.989 46.66 257.709 46.54C257.436 46.4133 257.116 46.35 256.749 46.35C256.036 46.35 255.473 46.5533 255.059 46.96C254.653 47.3667 254.393 47.9433 254.279 48.69H258.939ZM254.229 50.18C254.269 50.7067 254.363 51.1633 254.509 51.55C254.656 51.93 254.849 52.2467 255.089 52.5C255.329 52.7467 255.613 52.9333 255.939 53.06C256.273 53.18 256.639 53.24 257.039 53.24C257.439 53.24 257.783 53.1933 258.069 53.1C258.363 53.0067 258.616 52.9033 258.829 52.79C259.049 52.6767 259.239 52.5733 259.399 52.48C259.566 52.3867 259.726 52.34 259.879 52.34C260.086 52.34 260.239 52.4167 260.339 52.57L261.049 53.47C260.776 53.79 260.469 54.06 260.129 54.28C259.789 54.4933 259.433 54.6667 259.059 54.8C258.693 54.9267 258.316 55.0167 257.929 55.07C257.549 55.1233 257.179 55.15 256.819 55.15C256.106 55.15 255.443 55.0333 254.829 54.8C254.216 54.56 253.683 54.21 253.229 53.75C252.776 53.2833 252.419 52.71 252.159 52.03C251.899 51.3433 251.769 50.55 251.769 49.65C251.769 48.95 251.883 48.2933 252.109 47.68C252.336 47.06 252.659 46.5233 253.079 46.07C253.506 45.61 254.023 45.2467 254.629 44.98C255.243 44.7133 255.933 44.58 256.699 44.58C257.346 44.58 257.943 44.6833 258.489 44.89C259.036 45.0967 259.506 45.4 259.899 45.8C260.293 46.1933 260.599 46.68 260.819 47.26C261.046 47.8333 261.159 48.49 261.159 49.23C261.159 49.6033 261.119 49.8567 261.039 49.99C260.959 50.1167 260.806 50.18 260.579 50.18H254.229ZM269.453 47.36C269.173 47.02 268.866 46.78 268.533 46.64C268.206 46.5 267.853 46.43 267.473 46.43C267.1 46.43 266.763 46.5 266.463 46.64C266.163 46.78 265.906 46.9933 265.693 47.28C265.48 47.56 265.316 47.92 265.203 48.36C265.09 48.7933 265.033 49.3067 265.033 49.9C265.033 50.5 265.08 51.01 265.173 51.43C265.273 51.8433 265.413 52.1833 265.593 52.45C265.773 52.71 265.993 52.9 266.253 53.02C266.513 53.1333 266.803 53.19 267.123 53.19C267.636 53.19 268.073 53.0833 268.433 52.87C268.793 52.6567 269.133 52.3533 269.453 51.96V47.36ZM271.923 40.14V55H270.413C270.086 55 269.88 54.85 269.793 54.55L269.583 53.56C269.17 54.0333 268.693 54.4167 268.153 54.71C267.62 55.0033 266.996 55.15 266.283 55.15C265.723 55.15 265.21 55.0333 264.743 54.8C264.276 54.5667 263.873 54.23 263.533 53.79C263.2 53.3433 262.94 52.7933 262.753 52.14C262.573 51.4867 262.483 50.74 262.483 49.9C262.483 49.14 262.586 48.4333 262.793 47.78C263 47.1267 263.296 46.56 263.683 46.08C264.07 45.6 264.533 45.2267 265.073 44.96C265.613 44.6867 266.22 44.55 266.893 44.55C267.466 44.55 267.956 44.64 268.363 44.82C268.77 45 269.133 45.2433 269.453 45.55V40.14H271.923Z" fill="#6C7380"/>
<path d="M79 56.1478L70.6666 51.1478V42.8145L79 47.8144V56.1478Z" fill="url(#paint0_linear)"/>
<path d="M78.9996 56.1478L87.3329 51.1478V42.8145L78.9996 47.8144V56.1478Z" fill="url(#paint1_linear)"/>
<path d="M70.6666 42.8144L79 37.8145L87.3333 42.8144L79 47.8144L70.6666 42.8144Z" fill="url(#paint2_linear)"/>
<path d="M78.333 34.9997L75.833 31.6664L77.1663 30.6664L78.1663 31.9997V25.333H79.833V31.9997L80.833 30.6664L82.1663 31.6664L79.6663 34.9997C79.363 35.368 78.8196 35.4205 78.4513 35.118C78.408 35.0822 78.3688 35.043 78.333 34.9997Z" fill="#FF6BC1"/>
<path d="M79.833 23.666H78.1663V21.9993H79.833V23.666Z" fill="#FF6BC1"/>
<path d="M79.833 61.9818V68.6484H78.1663V61.9818L77.1663 63.3151L75.833 62.3151L78.333 58.9818C78.6089 58.6134 79.1313 58.5393 79.4997 58.8151C79.5631 58.8625 79.6188 58.9184 79.6664 58.9818L82.1664 62.3151L80.8331 63.3151L79.833 61.9818Z" fill="#FF6BC1"/>
<path d="M79.833 71.9814H78.1663V70.3148H79.833V71.9814Z" fill="#FF6BC1"/>
<path d="M57.3334 47.8144V46.1477H64.0001L62.6668 45.1478L63.6668 43.8145L67.0001 46.3144C67.3684 46.5903 67.4426 47.1128 67.1668 47.4811C67.1193 47.5445 67.0635 47.6003 67.0001 47.6478L63.6668 50.1478L62.6668 48.8145L64.0001 47.8145H57.3334V47.8144Z" fill="#FF6BC1"/>
<path d="M55.6667 46.1484H54V47.8151H55.6667V46.1484Z" fill="#FF6BC1"/>
<path d="M91.0005 46.3144L94.3338 43.8145L95.3338 45.1478L94.0005 46.1477H100.667V47.8144H94.0004L95.3337 48.8144L94.3337 50.1477L91.0004 47.6477C90.6321 47.3719 90.558 46.8494 90.8337 46.481C90.8813 46.4178 90.9372 46.362 91.0005 46.3144Z" fill="#FF6BC1"/>
<path d="M102.334 46.1484H104V47.8151H102.334V46.1484Z" fill="#FF6BC1"/>
<path d="M69.0852 34.4789L69.3202 36.128L64.6068 31.4146L63.4285 32.5929L68.1419 37.3063L66.4928 37.0714L66.2569 38.7213L70.381 39.3122C70.836 39.3796 71.2602 39.0655 71.3277 38.6105C71.3393 38.5296 71.3393 38.4471 71.3277 38.3655L70.7386 34.2414L69.0852 34.4789Z" fill="#FF6BC1"/>
<path d="M62.253 29.0559L61.0745 30.2344L62.253 31.4129L63.4315 30.2344L62.253 29.0559Z" fill="#FF6BC1"/>
<path d="M88.9098 59.4797L88.6748 57.8306L93.3882 62.5439L94.5665 61.3656L89.8532 56.6523L91.5006 56.8889L91.7365 55.2389L87.6123 54.6497C87.5732 54.6439 87.534 54.6414 87.494 54.6414C87.034 54.6414 86.6607 55.0148 86.6607 55.4747C86.6607 55.5148 86.6632 55.5539 86.669 55.5931L87.2581 59.7172L88.9098 59.4797Z" fill="#FF6BC1"/>
<path d="M95.7444 62.5461L94.5659 63.7246L95.7444 64.9031L96.923 63.7246L95.7444 62.5461Z" fill="#FF6BC1"/>
<path d="M64.6157 62.5459L69.329 57.8325L69.094 59.4816L70.744 59.7176L71.3365 55.5935C71.4015 55.1376 71.0856 54.7159 70.6298 54.6501C70.5907 54.6443 70.5506 54.6418 70.5115 54.6418C70.4714 54.6418 70.4323 54.6444 70.3931 54.6501L66.269 55.2393L66.5049 56.8893L68.154 56.6543L63.4406 61.3677L64.6157 62.5459Z" fill="#FF6BC1"/>
<path d="M62.253 62.5461L61.0745 63.7246L62.253 64.9031L63.4315 63.7246L62.253 62.5461Z" fill="#FF6BC1"/>
<path d="M93.3866 31.4149L88.6733 36.1283L88.9082 34.4808L87.2582 34.245L86.6691 38.3691C86.6316 38.6291 86.7191 38.8908 86.9049 39.0766C87.0899 39.2632 87.3524 39.3507 87.6124 39.3125L91.7365 38.7233L91.5007 37.0733L89.8516 37.3083L94.5649 32.5949L93.3866 31.4149Z" fill="#FF6BC1"/>
<path d="M95.7429 29.0578L94.5643 30.2363L95.7429 31.4148L96.9214 30.2363L95.7429 29.0578Z" fill="#FF6BC1"/>
<g filter="url(#filter1_d)">
<rect x="364" y="7" width="300" height="80" rx="5" fill="white"/>
</g>
<path d="M481.31 47.81C481.803 47.81 482.233 47.75 482.6 47.63C482.967 47.5033 483.27 47.3267 483.51 47.1C483.757 46.8667 483.94 46.5867 484.06 46.26C484.18 45.9267 484.24 45.5567 484.24 45.15C484.24 44.7633 484.18 44.4133 484.06 44.1C483.94 43.7867 483.76 43.52 483.52 43.3C483.28 43.08 482.977 42.9133 482.61 42.8C482.243 42.68 481.81 42.62 481.31 42.62H479.3V47.81H481.31ZM481.31 40.54C482.277 40.54 483.113 40.6533 483.82 40.88C484.527 41.1067 485.11 41.4233 485.57 41.83C486.03 42.2367 486.37 42.7233 486.59 43.29C486.817 43.8567 486.93 44.4767 486.93 45.15C486.93 45.85 486.813 46.4933 486.58 47.08C486.347 47.66 485.997 48.16 485.53 48.58C485.063 49 484.477 49.3267 483.77 49.56C483.07 49.7933 482.25 49.91 481.31 49.91H479.3V55H476.61V40.54H481.31ZM493.71 50.62C492.997 50.6533 492.397 50.7167 491.91 50.81C491.424 50.8967 491.034 51.01 490.74 51.15C490.447 51.29 490.237 51.4533 490.11 51.64C489.984 51.8267 489.92 52.03 489.92 52.25C489.92 52.6833 490.047 52.9933 490.3 53.18C490.56 53.3667 490.897 53.46 491.31 53.46C491.817 53.46 492.254 53.37 492.62 53.19C492.994 53.0033 493.357 52.7233 493.71 52.35V50.62ZM488.05 46.17C489.23 45.09 490.65 44.55 492.31 44.55C492.91 44.55 493.447 44.65 493.92 44.85C494.394 45.0433 494.794 45.3167 495.12 45.67C495.447 46.0167 495.694 46.4333 495.86 46.92C496.034 47.4067 496.12 47.94 496.12 48.52V55H495C494.767 55 494.587 54.9667 494.46 54.9C494.334 54.8267 494.234 54.6833 494.16 54.47L493.94 53.73C493.68 53.9633 493.427 54.17 493.18 54.35C492.934 54.5233 492.677 54.67 492.41 54.79C492.144 54.91 491.857 55 491.55 55.06C491.25 55.1267 490.917 55.16 490.55 55.16C490.117 55.16 489.717 55.1033 489.35 54.99C488.984 54.87 488.667 54.6933 488.4 54.46C488.134 54.2267 487.927 53.9367 487.78 53.59C487.634 53.2433 487.56 52.84 487.56 52.38C487.56 52.12 487.604 51.8633 487.69 51.61C487.777 51.35 487.917 51.1033 488.11 50.87C488.31 50.6367 488.567 50.4167 488.88 50.21C489.194 50.0033 489.577 49.8233 490.03 49.67C490.49 49.5167 491.024 49.3933 491.63 49.3C492.237 49.2 492.93 49.14 493.71 49.12V48.52C493.71 47.8333 493.564 47.3267 493.27 47C492.977 46.6667 492.554 46.5 492 46.5C491.6 46.5 491.267 46.5467 491 46.64C490.74 46.7333 490.51 46.84 490.31 46.96C490.11 47.0733 489.927 47.1767 489.76 47.27C489.6 47.3633 489.42 47.41 489.22 47.41C489.047 47.41 488.9 47.3667 488.78 47.28C488.66 47.1867 488.564 47.08 488.49 46.96L488.05 46.17ZM504.707 46.74C504.64 46.8467 504.57 46.9233 504.497 46.97C504.423 47.01 504.33 47.03 504.217 47.03C504.097 47.03 503.967 46.9967 503.827 46.93C503.693 46.8633 503.537 46.79 503.357 46.71C503.177 46.6233 502.97 46.5467 502.737 46.48C502.51 46.4133 502.24 46.38 501.927 46.38C501.44 46.38 501.057 46.4833 500.777 46.69C500.503 46.8967 500.367 47.1667 500.367 47.5C500.367 47.72 500.437 47.9067 500.577 48.06C500.723 48.2067 500.913 48.3367 501.147 48.45C501.387 48.5633 501.657 48.6667 501.957 48.76C502.257 48.8467 502.56 48.9433 502.867 49.05C503.18 49.1567 503.487 49.28 503.787 49.42C504.087 49.5533 504.353 49.7267 504.587 49.94C504.827 50.1467 505.017 50.3967 505.157 50.69C505.303 50.9833 505.377 51.3367 505.377 51.75C505.377 52.2433 505.287 52.7 505.107 53.12C504.933 53.5333 504.673 53.8933 504.327 54.2C503.98 54.5 503.55 54.7367 503.037 54.91C502.53 55.0767 501.943 55.16 501.277 55.16C500.923 55.16 500.577 55.1267 500.237 55.06C499.903 55 499.58 54.9133 499.267 54.8C498.96 54.6867 498.673 54.5533 498.407 54.4C498.147 54.2467 497.917 54.08 497.717 53.9L498.287 52.96C498.36 52.8467 498.447 52.76 498.547 52.7C498.647 52.64 498.773 52.61 498.927 52.61C499.08 52.61 499.223 52.6533 499.357 52.74C499.497 52.8267 499.657 52.92 499.837 53.02C500.017 53.12 500.227 53.2133 500.467 53.3C500.713 53.3867 501.023 53.43 501.397 53.43C501.69 53.43 501.94 53.3967 502.147 53.33C502.36 53.2567 502.533 53.1633 502.667 53.05C502.807 52.9367 502.907 52.8067 502.967 52.66C503.033 52.5067 503.067 52.35 503.067 52.19C503.067 51.95 502.993 51.7533 502.847 51.6C502.707 51.4467 502.517 51.3133 502.277 51.2C502.043 51.0867 501.773 50.9867 501.467 50.9C501.167 50.8067 500.857 50.7067 500.537 50.6C500.223 50.4933 499.913 50.37 499.607 50.23C499.307 50.0833 499.037 49.9 498.797 49.68C498.563 49.46 498.373 49.19 498.227 48.87C498.087 48.55 498.017 48.1633 498.017 47.71C498.017 47.29 498.1 46.89 498.267 46.51C498.433 46.13 498.677 45.8 498.997 45.52C499.323 45.2333 499.727 45.0067 500.207 44.84C500.693 44.6667 501.253 44.58 501.887 44.58C502.593 44.58 503.237 44.6967 503.817 44.93C504.397 45.1633 504.88 45.47 505.267 45.85L504.707 46.74ZM513.496 46.74C513.429 46.8467 513.359 46.9233 513.286 46.97C513.212 47.01 513.119 47.03 513.006 47.03C512.886 47.03 512.756 46.9967 512.616 46.93C512.482 46.8633 512.326 46.79 512.146 46.71C511.966 46.6233 511.759 46.5467 511.526 46.48C511.299 46.4133 511.029 46.38 510.716 46.38C510.229 46.38 509.846 46.4833 509.566 46.69C509.292 46.8967 509.156 47.1667 509.156 47.5C509.156 47.72 509.226 47.9067 509.366 48.06C509.512 48.2067 509.702 48.3367 509.936 48.45C510.176 48.5633 510.446 48.6667 510.746 48.76C511.046 48.8467 511.349 48.9433 511.656 49.05C511.969 49.1567 512.276 49.28 512.576 49.42C512.876 49.5533 513.142 49.7267 513.376 49.94C513.616 50.1467 513.806 50.3967 513.946 50.69C514.092 50.9833 514.166 51.3367 514.166 51.75C514.166 52.2433 514.076 52.7 513.896 53.12C513.722 53.5333 513.462 53.8933 513.116 54.2C512.769 54.5 512.339 54.7367 511.826 54.91C511.319 55.0767 510.732 55.16 510.066 55.16C509.712 55.16 509.366 55.1267 509.026 55.06C508.692 55 508.369 54.9133 508.056 54.8C507.749 54.6867 507.462 54.5533 507.196 54.4C506.936 54.2467 506.706 54.08 506.506 53.9L507.076 52.96C507.149 52.8467 507.236 52.76 507.336 52.7C507.436 52.64 507.562 52.61 507.716 52.61C507.869 52.61 508.012 52.6533 508.146 52.74C508.286 52.8267 508.446 52.92 508.626 53.02C508.806 53.12 509.016 53.2133 509.256 53.3C509.502 53.3867 509.812 53.43 510.186 53.43C510.479 53.43 510.729 53.3967 510.936 53.33C511.149 53.2567 511.322 53.1633 511.456 53.05C511.596 52.9367 511.696 52.8067 511.756 52.66C511.822 52.5067 511.856 52.35 511.856 52.19C511.856 51.95 511.782 51.7533 511.636 51.6C511.496 51.4467 511.306 51.3133 511.066 51.2C510.832 51.0867 510.562 50.9867 510.256 50.9C509.956 50.8067 509.646 50.7067 509.326 50.6C509.012 50.4933 508.702 50.37 508.396 50.23C508.096 50.0833 507.826 49.9 507.586 49.68C507.352 49.46 507.162 49.19 507.016 48.87C506.876 48.55 506.806 48.1633 506.806 47.71C506.806 47.29 506.889 46.89 507.056 46.51C507.222 46.13 507.466 45.8 507.786 45.52C508.112 45.2333 508.516 45.0067 508.996 44.84C509.482 44.6667 510.042 44.58 510.676 44.58C511.382 44.58 512.026 44.6967 512.606 44.93C513.186 45.1633 513.669 45.47 514.056 45.85L513.496 46.74ZM518.585 44.74V55H516.105V44.74H518.585ZM518.925 41.75C518.925 41.9633 518.881 42.1633 518.795 42.35C518.708 42.5367 518.591 42.7 518.445 42.84C518.305 42.98 518.138 43.0933 517.945 43.18C517.751 43.26 517.545 43.3 517.325 43.3C517.111 43.3 516.908 43.26 516.715 43.18C516.528 43.0933 516.365 42.98 516.225 42.84C516.085 42.7 515.971 42.5367 515.885 42.35C515.805 42.1633 515.765 41.9633 515.765 41.75C515.765 41.53 515.805 41.3233 515.885 41.13C515.971 40.9367 516.085 40.77 516.225 40.63C516.365 40.49 516.528 40.38 516.715 40.3C516.908 40.2133 517.111 40.17 517.325 40.17C517.545 40.17 517.751 40.2133 517.945 40.3C518.138 40.38 518.305 40.49 518.445 40.63C518.591 40.77 518.708 40.9367 518.795 41.13C518.881 41.3233 518.925 41.53 518.925 41.75ZM525.643 44.58C526.403 44.58 527.093 44.7033 527.713 44.95C528.339 45.1967 528.873 45.5467 529.313 46C529.759 46.4533 530.103 47.0067 530.343 47.66C530.583 48.3133 530.703 49.0433 530.703 49.85C530.703 50.6633 530.583 51.3967 530.343 52.05C530.103 52.7033 529.759 53.26 529.313 53.72C528.873 54.18 528.339 54.5333 527.713 54.78C527.093 55.0267 526.403 55.15 525.643 55.15C524.876 55.15 524.179 55.0267 523.553 54.78C522.926 54.5333 522.389 54.18 521.943 53.72C521.503 53.26 521.159 52.7033 520.913 52.05C520.673 51.3967 520.553 50.6633 520.553 49.85C520.553 49.0433 520.673 48.3133 520.913 47.66C521.159 47.0067 521.503 46.4533 521.943 46C522.389 45.5467 522.926 45.1967 523.553 44.95C524.179 44.7033 524.876 44.58 525.643 44.58ZM525.643 53.25C526.496 53.25 527.126 52.9633 527.533 52.39C527.946 51.8167 528.153 50.9767 528.153 49.87C528.153 48.7633 527.946 47.92 527.533 47.34C527.126 46.76 526.496 46.47 525.643 46.47C524.776 46.47 524.133 46.7633 523.713 47.35C523.299 47.93 523.093 48.77 523.093 49.87C523.093 50.97 523.299 51.81 523.713 52.39C524.133 52.9633 524.776 53.25 525.643 53.25ZM534.897 46C535.104 45.7933 535.321 45.6033 535.547 45.43C535.781 45.25 536.024 45.1 536.277 44.98C536.537 44.8533 536.814 44.7567 537.107 44.69C537.401 44.6167 537.721 44.58 538.067 44.58C538.627 44.58 539.124 44.6767 539.557 44.87C539.991 45.0567 540.351 45.3233 540.637 45.67C540.931 46.01 541.151 46.42 541.297 46.9C541.451 47.3733 541.527 47.8967 541.527 48.47V55H539.057V48.47C539.057 47.8433 538.914 47.36 538.627 47.02C538.341 46.6733 537.904 46.5 537.317 46.5C536.891 46.5 536.491 46.5967 536.117 46.79C535.744 46.9833 535.391 47.2467 535.057 47.58V55H532.587V44.74H534.097C534.417 44.74 534.627 44.89 534.727 45.19L534.897 46ZM549.46 55V46.6L548.57 46.46C548.376 46.42 548.22 46.3533 548.1 46.26C547.986 46.16 547.93 46.02 547.93 45.84V44.83H549.46V44.07C549.46 43.4833 549.546 42.9567 549.72 42.49C549.9 42.0233 550.153 41.6267 550.48 41.3C550.813 40.9733 551.216 40.7233 551.69 40.55C552.163 40.3767 552.696 40.29 553.29 40.29C553.763 40.29 554.203 40.3533 554.61 40.48L554.56 41.72C554.553 41.8133 554.526 41.89 554.48 41.95C554.433 42.0033 554.37 42.0467 554.29 42.08C554.216 42.1067 554.13 42.1267 554.03 42.14C553.93 42.1467 553.823 42.15 553.71 42.15C553.416 42.15 553.153 42.1833 552.92 42.25C552.693 42.31 552.5 42.42 552.34 42.58C552.18 42.7333 552.056 42.94 551.97 43.2C551.89 43.4533 551.85 43.77 551.85 44.15V44.83H554.52V46.59H551.93V55H549.46ZM560.174 44.58C560.934 44.58 561.624 44.7033 562.244 44.95C562.871 45.1967 563.404 45.5467 563.844 46C564.291 46.4533 564.634 47.0067 564.874 47.66C565.114 48.3133 565.234 49.0433 565.234 49.85C565.234 50.6633 565.114 51.3967 564.874 52.05C564.634 52.7033 564.291 53.26 563.844 53.72C563.404 54.18 562.871 54.5333 562.244 54.78C561.624 55.0267 560.934 55.15 560.174 55.15C559.407 55.15 558.711 55.0267 558.084 54.78C557.457 54.5333 556.921 54.18 556.474 53.72C556.034 53.26 555.691 52.7033 555.444 52.05C555.204 51.3967 555.084 50.6633 555.084 49.85C555.084 49.0433 555.204 48.3133 555.444 47.66C555.691 47.0067 556.034 46.4533 556.474 46C556.921 45.5467 557.457 45.1967 558.084 44.95C558.711 44.7033 559.407 44.58 560.174 44.58ZM560.174 53.25C561.027 53.25 561.657 52.9633 562.064 52.39C562.477 51.8167 562.684 50.9767 562.684 49.87C562.684 48.7633 562.477 47.92 562.064 47.34C561.657 46.76 561.027 46.47 560.174 46.47C559.307 46.47 558.664 46.7633 558.244 47.35C557.831 47.93 557.624 48.77 557.624 49.87C557.624 50.97 557.831 51.81 558.244 52.39C558.664 52.9633 559.307 53.25 560.174 53.25ZM569.448 46.52C569.768 45.9067 570.148 45.4267 570.588 45.08C571.028 44.7267 571.548 44.55 572.148 44.55C572.622 44.55 573.002 44.6533 573.288 44.86L573.128 46.71C573.095 46.83 573.045 46.9167 572.978 46.97C572.918 47.0167 572.835 47.04 572.728 47.04C572.628 47.04 572.478 47.0233 572.278 46.99C572.085 46.9567 571.895 46.94 571.708 46.94C571.435 46.94 571.192 46.98 570.978 47.06C570.765 47.14 570.572 47.2567 570.398 47.41C570.232 47.5567 570.082 47.7367 569.948 47.95C569.822 48.1633 569.702 48.4067 569.588 48.68V55H567.118V44.74H568.568C568.822 44.74 568.998 44.7867 569.098 44.88C569.198 44.9667 569.265 45.1267 569.298 45.36L569.448 46.52ZM588.898 42.75H584.538V55H581.848V42.75H577.488V40.54H588.898V42.75ZM594.607 48.69C594.607 48.37 594.561 48.07 594.467 47.79C594.381 47.5033 594.247 47.2533 594.067 47.04C593.887 46.8267 593.657 46.66 593.377 46.54C593.104 46.4133 592.784 46.35 592.417 46.35C591.704 46.35 591.141 46.5533 590.727 46.96C590.321 47.3667 590.061 47.9433 589.947 48.69H594.607ZM589.897 50.18C589.937 50.7067 590.031 51.1633 590.177 51.55C590.324 51.93 590.517 52.2467 590.757 52.5C590.997 52.7467 591.281 52.9333 591.607 53.06C591.941 53.18 592.307 53.24 592.707 53.24C593.107 53.24 593.451 53.1933 593.737 53.1C594.031 53.0067 594.284 52.9033 594.497 52.79C594.717 52.6767 594.907 52.5733 595.067 52.48C595.234 52.3867 595.394 52.34 595.547 52.34C595.754 52.34 595.907 52.4167 596.007 52.57L596.717 53.47C596.444 53.79 596.137 54.06 595.797 54.28C595.457 54.4933 595.101 54.6667 594.727 54.8C594.361 54.9267 593.984 55.0167 593.597 55.07C593.217 55.1233 592.847 55.15 592.487 55.15C591.774 55.15 591.111 55.0333 590.497 54.8C589.884 54.56 589.351 54.21 588.897 53.75C588.444 53.2833 588.087 52.71 587.827 52.03C587.567 51.3433 587.437 50.55 587.437 49.65C587.437 48.95 587.551 48.2933 587.777 47.68C588.004 47.06 588.327 46.5233 588.747 46.07C589.174 45.61 589.691 45.2467 590.297 44.98C590.911 44.7133 591.601 44.58 592.367 44.58C593.014 44.58 593.611 44.6833 594.157 44.89C594.704 45.0967 595.174 45.4 595.567 45.8C595.961 46.1933 596.267 46.68 596.487 47.26C596.714 47.8333 596.827 48.49 596.827 49.23C596.827 49.6033 596.787 49.8567 596.707 49.99C596.627 50.1167 596.474 50.18 596.247 50.18H589.897ZM606.031 46.91C605.958 47.0033 605.884 47.0767 605.811 47.13C605.744 47.1833 605.644 47.21 605.511 47.21C605.384 47.21 605.261 47.1733 605.141 47.1C605.021 47.02 604.878 46.9333 604.711 46.84C604.544 46.74 604.344 46.6533 604.111 46.58C603.884 46.5 603.601 46.46 603.261 46.46C602.828 46.46 602.448 46.54 602.121 46.7C601.794 46.8533 601.521 47.0767 601.301 47.37C601.088 47.6633 600.928 48.02 600.821 48.44C600.714 48.8533 600.661 49.3233 600.661 49.85C600.661 50.3967 600.718 50.8833 600.831 51.31C600.951 51.7367 601.121 52.0967 601.341 52.39C601.561 52.6767 601.828 52.8967 602.141 53.05C602.454 53.1967 602.808 53.27 603.201 53.27C603.594 53.27 603.911 53.2233 604.151 53.13C604.398 53.03 604.604 52.9233 604.771 52.81C604.938 52.69 605.081 52.5833 605.201 52.49C605.328 52.39 605.468 52.34 605.621 52.34C605.821 52.34 605.971 52.4167 606.071 52.57L606.781 53.47C606.508 53.79 606.211 54.06 605.891 54.28C605.571 54.4933 605.238 54.6667 604.891 54.8C604.551 54.9267 604.198 55.0167 603.831 55.07C603.471 55.1233 603.111 55.15 602.751 55.15C602.118 55.15 601.521 55.0333 600.961 54.8C600.401 54.56 599.911 54.2133 599.491 53.76C599.071 53.3067 598.738 52.7533 598.491 52.1C598.251 51.44 598.131 50.69 598.131 49.85C598.131 49.0967 598.238 48.4 598.451 47.76C598.671 47.1133 598.991 46.5567 599.411 46.09C599.831 45.6167 600.351 45.2467 600.971 44.98C601.591 44.7133 602.304 44.58 603.111 44.58C603.878 44.58 604.548 44.7033 605.121 44.95C605.701 45.1967 606.221 45.55 606.681 46.01L606.031 46.91ZM610.799 45.84C611.199 45.4667 611.639 45.1633 612.119 44.93C612.599 44.6967 613.163 44.58 613.809 44.58C614.369 44.58 614.866 44.6767 615.299 44.87C615.733 45.0567 616.093 45.3233 616.379 45.67C616.673 46.01 616.893 46.42 617.039 46.9C617.193 47.3733 617.269 47.8967 617.269 48.47V55H614.799V48.47C614.799 47.8433 614.656 47.36 614.369 47.02C614.083 46.6733 613.646 46.5 613.059 46.5C612.633 46.5 612.233 46.5967 611.859 46.79C611.486 46.9833 611.133 47.2467 610.799 47.58V55H608.329V40.14H610.799V45.84Z" fill="#6C7380"/>
<path d="M438.748 67.8033L436.602 60.291H427.96L425.814 67.8033H438.748Z" fill="url(#paint3_linear)"/>
<path d="M415.367 26H449.102C452.067 26 454.469 28.4029 454.469 31.367V55.9019C454.469 58.866 452.067 61.2689 449.102 61.2689H415.367C412.403 61.2689 410 58.866 410 55.9019V31.367C410 28.4029 412.403 26 415.367 26Z" fill="url(#paint4_linear)"/>
<path d="M414.788 28.7793H449.586C450.96 28.7793 452.074 29.8325 452.074 31.1317V52.3035C452.074 53.6027 450.96 54.6559 449.586 54.6559H414.788C413.414 54.6559 412.3 53.6027 412.3 52.3035V31.1317C412.3 29.8325 413.414 28.7793 414.788 28.7793Z" fill="white"/>
<path d="M431.468 58.2023C431.468 58.6257 431.811 58.969 432.235 58.969C432.658 58.969 433.001 58.6257 433.001 58.2023C433.001 57.7788 432.658 57.4355 432.235 57.4355C431.811 57.4355 431.468 57.7788 431.468 58.2023Z" fill="#CFD6E0"/>
<path d="M444.502 47.4678H442.202C441.778 47.4678 441.435 47.811 441.435 48.2345C441.435 48.6579 441.778 49.0012 442.202 49.0012H444.502C444.925 49.0012 445.269 48.6579 445.269 48.2345C445.269 47.811 444.925 47.4678 444.502 47.4678Z" fill="#60A6FA"/>
<path d="M446.802 50.5352H442.202C441.778 50.5352 441.435 50.8784 441.435 51.3019C441.435 51.7253 441.778 52.0686 442.202 52.0686H446.802C447.226 52.0686 447.569 51.7253 447.569 51.3019C447.569 50.8784 447.226 50.5352 446.802 50.5352Z" fill="#60A6FA"/>
<path d="M419.967 47.4678H417.667C417.244 47.4678 416.901 47.811 416.901 48.2345C416.901 48.6579 417.244 49.0012 417.667 49.0012H419.967C420.391 49.0012 420.734 48.6579 420.734 48.2345C420.734 47.811 420.391 47.4678 419.967 47.4678Z" fill="#60A6FA"/>
<path d="M422.268 50.5352H417.667C417.244 50.5352 416.901 50.8784 416.901 51.3019C416.901 51.7253 417.244 52.0686 417.667 52.0686H422.268C422.691 52.0686 423.034 51.7253 423.034 51.3019C423.034 50.8784 422.691 50.5352 422.268 50.5352Z" fill="#60A6FA"/>
<path d="M416.901 33.6671C416.901 34.0906 417.244 34.4338 417.667 34.4338C418.091 34.4338 418.434 34.0906 418.434 33.6671C418.434 33.2437 418.091 32.9004 417.667 32.9004C417.244 32.9004 416.901 33.2437 416.901 33.6671Z" fill="#60A6FA"/>
<path d="M421.501 32.9004H419.967V34.4338H421.501V32.9004Z" fill="#146CDE"/>
<path d="M442.969 33.6671C442.969 34.0906 443.312 34.4338 443.735 34.4338C444.159 34.4338 444.502 34.0906 444.502 33.6671C444.502 33.2437 444.159 32.9004 443.735 32.9004C443.312 32.9004 442.969 33.2437 442.969 33.6671Z" fill="#60A6FA"/>
<path d="M447.569 32.9004H446.036V34.4338H447.569V32.9004Z" fill="#146CDE"/>
<path d="M440.669 43.6343V40.5674H438.958C438.786 39.8106 438.486 39.0886 438.072 38.4321L439.283 37.2215L437.114 35.0532L435.904 36.2639C435.247 35.8496 434.525 35.5499 433.768 35.3775V33.667H430.702V35.3775C429.945 35.5499 429.223 35.8496 428.566 36.2639L427.356 35.0532L425.187 37.2215L426.398 38.4321C425.984 39.0886 425.684 39.8106 425.512 40.5674H423.801V43.6343H425.512C425.684 44.3911 425.984 45.1131 426.398 45.7696L425.187 46.9802L427.356 49.1485L428.566 47.9379C429.223 48.3521 429.945 48.6518 430.702 48.8242V50.5347H433.768V48.8242C434.525 48.6518 435.247 48.3521 435.904 47.9379L437.114 49.1485L439.283 46.9802L438.072 45.7696C438.486 45.1131 438.786 44.3911 438.958 43.6343H440.669ZM432.235 45.1677C430.541 45.1677 429.168 43.7946 429.168 42.1009C429.168 40.4071 430.541 39.034 432.235 39.034C433.929 39.034 435.302 40.4071 435.302 42.1009C435.302 43.7946 433.929 45.1677 432.235 45.1677Z" fill="#FF6BC1"/>
<g filter="url(#filter2_d)">
<rect x="189" y="247" width="300" height="80" rx="5" fill="white"/>
</g>
<path d="M316.8 280.54V295H314.1V288.68H307.31V295H304.61V280.54H307.31V286.76H314.1V280.54H316.8ZM324.796 290.62C324.083 290.653 323.483 290.717 322.996 290.81C322.51 290.897 322.12 291.01 321.826 291.15C321.533 291.29 321.323 291.453 321.196 291.64C321.07 291.827 321.006 292.03 321.006 292.25C321.006 292.683 321.133 292.993 321.386 293.18C321.646 293.367 321.983 293.46 322.396 293.46C322.903 293.46 323.34 293.37 323.706 293.19C324.08 293.003 324.443 292.723 324.796 292.35V290.62ZM319.136 286.17C320.316 285.09 321.736 284.55 323.396 284.55C323.996 284.55 324.533 284.65 325.006 284.85C325.48 285.043 325.88 285.317 326.206 285.67C326.533 286.017 326.78 286.433 326.946 286.92C327.12 287.407 327.206 287.94 327.206 288.52V295H326.086C325.853 295 325.673 294.967 325.546 294.9C325.42 294.827 325.32 294.683 325.246 294.47L325.026 293.73C324.766 293.963 324.513 294.17 324.266 294.35C324.02 294.523 323.763 294.67 323.496 294.79C323.23 294.91 322.943 295 322.636 295.06C322.336 295.127 322.003 295.16 321.636 295.16C321.203 295.16 320.803 295.103 320.436 294.99C320.07 294.87 319.753 294.693 319.486 294.46C319.22 294.227 319.013 293.937 318.866 293.59C318.72 293.243 318.646 292.84 318.646 292.38C318.646 292.12 318.69 291.863 318.776 291.61C318.863 291.35 319.003 291.103 319.196 290.87C319.396 290.637 319.653 290.417 319.966 290.21C320.28 290.003 320.663 289.823 321.116 289.67C321.576 289.517 322.11 289.393 322.716 289.3C323.323 289.2 324.016 289.14 324.796 289.12V288.52C324.796 287.833 324.65 287.327 324.356 287C324.063 286.667 323.64 286.5 323.086 286.5C322.686 286.5 322.353 286.547 322.086 286.64C321.826 286.733 321.596 286.84 321.396 286.96C321.196 287.073 321.013 287.177 320.846 287.27C320.686 287.363 320.506 287.41 320.306 287.41C320.133 287.41 319.986 287.367 319.866 287.28C319.746 287.187 319.65 287.08 319.576 286.96L319.136 286.17ZM331.863 286.52C332.183 285.907 332.563 285.427 333.003 285.08C333.443 284.727 333.963 284.55 334.562 284.55C335.036 284.55 335.416 284.653 335.703 284.86L335.543 286.71C335.509 286.83 335.459 286.917 335.393 286.97C335.333 287.017 335.249 287.04 335.143 287.04C335.043 287.04 334.893 287.023 334.693 286.99C334.499 286.957 334.309 286.94 334.123 286.94C333.849 286.94 333.606 286.98 333.393 287.06C333.179 287.14 332.986 287.257 332.813 287.41C332.646 287.557 332.496 287.737 332.363 287.95C332.236 288.163 332.116 288.407 332.003 288.68V295H329.533V284.74H330.983C331.236 284.74 331.413 284.787 331.513 284.88C331.613 284.967 331.679 285.127 331.713 285.36L331.863 286.52ZM343.16 287.36C342.88 287.02 342.573 286.78 342.24 286.64C341.913 286.5 341.56 286.43 341.18 286.43C340.807 286.43 340.47 286.5 340.17 286.64C339.87 286.78 339.613 286.993 339.4 287.28C339.187 287.56 339.023 287.92 338.91 288.36C338.797 288.793 338.74 289.307 338.74 289.9C338.74 290.5 338.787 291.01 338.88 291.43C338.98 291.843 339.12 292.183 339.3 292.45C339.48 292.71 339.7 292.9 339.96 293.02C340.22 293.133 340.51 293.19 340.83 293.19C341.343 293.19 341.78 293.083 342.14 292.87C342.5 292.657 342.84 292.353 343.16 291.96V287.36ZM345.63 280.14V295H344.12C343.793 295 343.587 294.85 343.5 294.55L343.29 293.56C342.877 294.033 342.4 294.417 341.86 294.71C341.327 295.003 340.703 295.15 339.99 295.15C339.43 295.15 338.917 295.033 338.45 294.8C337.983 294.567 337.58 294.23 337.24 293.79C336.907 293.343 336.647 292.793 336.46 292.14C336.28 291.487 336.19 290.74 336.19 289.9C336.19 289.14 336.293 288.433 336.5 287.78C336.707 287.127 337.003 286.56 337.39 286.08C337.777 285.6 338.24 285.227 338.78 284.96C339.32 284.687 339.927 284.55 340.6 284.55C341.173 284.55 341.663 284.64 342.07 284.82C342.477 285 342.84 285.243 343.16 285.55V280.14H345.63ZM372.424 280.54L367.934 295H365.504L362.344 285.12C362.258 284.88 362.178 284.587 362.104 284.24C362.064 284.407 362.024 284.563 361.984 284.71C361.944 284.857 361.901 284.993 361.854 285.12L358.664 295H356.224L351.744 280.54H353.994C354.228 280.54 354.421 280.597 354.574 280.71C354.734 280.817 354.841 280.963 354.894 281.15L357.354 289.8C357.408 290.013 357.458 290.247 357.504 290.5C357.558 290.747 357.611 291.007 357.664 291.28C357.718 291 357.774 290.737 357.834 290.49C357.901 290.243 357.971 290.013 358.044 289.8L360.884 281.15C360.938 280.997 361.041 280.857 361.194 280.73C361.354 280.603 361.548 280.54 361.774 280.54H362.564C362.798 280.54 362.988 280.597 363.134 280.71C363.281 280.823 363.391 280.97 363.464 281.15L366.294 289.8C366.434 290.213 366.561 290.69 366.674 291.23C366.761 290.703 366.858 290.227 366.964 289.8L369.424 281.15C369.464 280.983 369.564 280.84 369.724 280.72C369.891 280.6 370.088 280.54 370.314 280.54H372.424ZM377.139 284.58C377.899 284.58 378.589 284.703 379.209 284.95C379.836 285.197 380.369 285.547 380.809 286C381.256 286.453 381.599 287.007 381.839 287.66C382.079 288.313 382.199 289.043 382.199 289.85C382.199 290.663 382.079 291.397 381.839 292.05C381.599 292.703 381.256 293.26 380.809 293.72C380.369 294.18 379.836 294.533 379.209 294.78C378.589 295.027 377.899 295.15 377.139 295.15C376.372 295.15 375.676 295.027 375.049 294.78C374.422 294.533 373.886 294.18 373.439 293.72C372.999 293.26 372.656 292.703 372.409 292.05C372.169 291.397 372.049 290.663 372.049 289.85C372.049 289.043 372.169 288.313 372.409 287.66C372.656 287.007 372.999 286.453 373.439 286C373.886 285.547 374.422 285.197 375.049 284.95C375.676 284.703 376.372 284.58 377.139 284.58ZM377.139 293.25C377.992 293.25 378.622 292.963 379.029 292.39C379.442 291.817 379.649 290.977 379.649 289.87C379.649 288.763 379.442 287.92 379.029 287.34C378.622 286.76 377.992 286.47 377.139 286.47C376.272 286.47 375.629 286.763 375.209 287.35C374.796 287.93 374.589 288.77 374.589 289.87C374.589 290.97 374.796 291.81 375.209 292.39C375.629 292.963 376.272 293.25 377.139 293.25ZM386.413 286.52C386.733 285.907 387.113 285.427 387.553 285.08C387.993 284.727 388.513 284.55 389.113 284.55C389.587 284.55 389.967 284.653 390.253 284.86L390.093 286.71C390.06 286.83 390.01 286.917 389.943 286.97C389.883 287.017 389.8 287.04 389.693 287.04C389.593 287.04 389.443 287.023 389.243 286.99C389.05 286.957 388.86 286.94 388.673 286.94C388.4 286.94 388.157 286.98 387.943 287.06C387.73 287.14 387.537 287.257 387.363 287.41C387.197 287.557 387.047 287.737 386.913 287.95C386.787 288.163 386.667 288.407 386.553 288.68V295H384.083V284.74H385.533C385.787 284.74 385.963 284.787 386.063 284.88C386.163 284.967 386.23 285.127 386.263 285.36L386.413 286.52ZM394.014 280.14V288.65H394.474C394.641 288.65 394.771 288.63 394.864 288.59C394.964 288.543 395.064 288.453 395.164 288.32L397.714 285.17C397.821 285.03 397.938 284.923 398.064 284.85C398.198 284.777 398.368 284.74 398.574 284.74H400.834L397.644 288.55C397.418 288.85 397.171 289.08 396.904 289.24C397.044 289.34 397.168 289.457 397.274 289.59C397.388 289.723 397.494 289.867 397.594 290.02L401.014 295H398.784C398.591 295 398.424 294.97 398.284 294.91C398.144 294.843 398.028 294.727 397.934 294.56L395.314 290.67C395.221 290.517 395.124 290.417 395.024 290.37C394.924 290.323 394.774 290.3 394.574 290.3H394.014V295H391.544V280.14H394.014ZM404.788 284.74V295H402.308V284.74H404.788ZM405.128 281.75C405.128 281.963 405.084 282.163 404.998 282.35C404.911 282.537 404.794 282.7 404.648 282.84C404.508 282.98 404.341 283.093 404.148 283.18C403.954 283.26 403.748 283.3 403.528 283.3C403.314 283.3 403.111 283.26 402.918 283.18C402.731 283.093 402.568 282.98 402.428 282.84C402.288 282.7 402.174 282.537 402.088 282.35C402.008 282.163 401.968 281.963 401.968 281.75C401.968 281.53 402.008 281.323 402.088 281.13C402.174 280.937 402.288 280.77 402.428 280.63C402.568 280.49 402.731 280.38 402.918 280.3C403.111 280.213 403.314 280.17 403.528 280.17C403.748 280.17 403.954 280.213 404.148 280.3C404.341 280.38 404.508 280.49 404.648 280.63C404.794 280.77 404.911 280.937 404.998 281.13C405.084 281.323 405.128 281.53 405.128 281.75ZM409.616 286C409.823 285.793 410.039 285.603 410.266 285.43C410.499 285.25 410.743 285.1 410.996 284.98C411.256 284.853 411.533 284.757 411.826 284.69C412.119 284.617 412.439 284.58 412.786 284.58C413.346 284.58 413.843 284.677 414.276 284.87C414.709 285.057 415.069 285.323 415.356 285.67C415.649 286.01 415.869 286.42 416.016 286.9C416.169 287.373 416.246 287.897 416.246 288.47V295H413.776V288.47C413.776 287.843 413.633 287.36 413.346 287.02C413.059 286.673 412.623 286.5 412.036 286.5C411.609 286.5 411.209 286.597 410.836 286.79C410.463 286.983 410.109 287.247 409.776 287.58V295H407.306V284.74H408.816C409.136 284.74 409.346 284.89 409.446 285.19L409.616 286ZM422.345 289.62C422.652 289.62 422.918 289.58 423.145 289.5C423.372 289.413 423.558 289.297 423.705 289.15C423.858 289.003 423.972 288.827 424.045 288.62C424.125 288.413 424.165 288.187 424.165 287.94C424.165 287.433 424.012 287.033 423.705 286.74C423.405 286.44 422.952 286.29 422.345 286.29C421.738 286.29 421.282 286.44 420.975 286.74C420.675 287.033 420.525 287.433 420.525 287.94C420.525 288.18 420.562 288.403 420.635 288.61C420.715 288.817 420.828 288.997 420.975 289.15C421.128 289.297 421.318 289.413 421.545 289.5C421.778 289.58 422.045 289.62 422.345 289.62ZM425.135 295.46C425.135 295.26 425.075 295.097 424.955 294.97C424.835 294.843 424.672 294.747 424.465 294.68C424.258 294.607 424.015 294.553 423.735 294.52C423.462 294.487 423.168 294.463 422.855 294.45C422.548 294.43 422.228 294.413 421.895 294.4C421.568 294.387 421.248 294.36 420.935 294.32C420.662 294.473 420.438 294.653 420.265 294.86C420.098 295.067 420.015 295.307 420.015 295.58C420.015 295.76 420.058 295.927 420.145 296.08C420.238 296.24 420.382 296.377 420.575 296.49C420.775 296.603 421.032 296.69 421.345 296.75C421.658 296.817 422.042 296.85 422.495 296.85C422.955 296.85 423.352 296.813 423.685 296.74C424.018 296.673 424.292 296.577 424.505 296.45C424.725 296.33 424.885 296.183 424.985 296.01C425.085 295.843 425.135 295.66 425.135 295.46ZM427.595 285.09V286.01C427.595 286.303 427.418 286.483 427.065 286.55L426.145 286.72C426.285 287.073 426.355 287.46 426.355 287.88C426.355 288.387 426.252 288.847 426.045 289.26C425.845 289.667 425.565 290.013 425.205 290.3C424.845 290.587 424.418 290.81 423.925 290.97C423.438 291.123 422.912 291.2 422.345 291.2C422.145 291.2 421.952 291.19 421.765 291.17C421.578 291.15 421.395 291.123 421.215 291.09C420.895 291.283 420.735 291.5 420.735 291.74C420.735 291.947 420.828 292.1 421.015 292.2C421.208 292.293 421.462 292.36 421.775 292.4C422.088 292.44 422.445 292.467 422.845 292.48C423.245 292.487 423.655 292.507 424.075 292.54C424.495 292.573 424.905 292.633 425.305 292.72C425.705 292.8 426.062 292.93 426.375 293.11C426.688 293.29 426.938 293.537 427.125 293.85C427.318 294.157 427.415 294.553 427.415 295.04C427.415 295.493 427.302 295.933 427.075 296.36C426.855 296.787 426.532 297.167 426.105 297.5C425.685 297.833 425.165 298.1 424.545 298.3C423.932 298.507 423.232 298.61 422.445 298.61C421.672 298.61 420.998 298.533 420.425 298.38C419.852 298.233 419.375 298.033 418.995 297.78C418.615 297.533 418.332 297.247 418.145 296.92C417.958 296.593 417.865 296.253 417.865 295.9C417.865 295.42 418.008 295.02 418.295 294.7C418.588 294.373 418.988 294.113 419.495 293.92C419.222 293.78 419.005 293.593 418.845 293.36C418.685 293.127 418.605 292.82 418.605 292.44C418.605 292.287 418.632 292.13 418.685 291.97C418.745 291.803 418.828 291.64 418.935 291.48C419.048 291.32 419.188 291.17 419.355 291.03C419.522 290.883 419.718 290.753 419.945 290.64C419.425 290.36 419.015 289.987 418.715 289.52C418.422 289.053 418.275 288.507 418.275 287.88C418.275 287.373 418.375 286.917 418.575 286.51C418.782 286.097 419.065 285.747 419.425 285.46C419.792 285.167 420.222 284.943 420.715 284.79C421.215 284.637 421.758 284.56 422.345 284.56C422.785 284.56 423.198 284.607 423.585 284.7C423.972 284.787 424.325 284.917 424.645 285.09H427.595Z" fill="#6C7380"/>
<path d="M270.859 270.049C269.941 267.328 268.692 265.381 268.639 265.299C268.502 265.086 268.254 264.972 268.003 265.006C267.906 265.019 265.615 265.336 262.95 266.407C259.364 267.848 256.837 269.981 255.642 272.576C253.649 276.904 251.568 285.624 251.003 292.014C250.978 292.289 251.13 292.55 251.381 292.666L258.426 295.911C258.514 295.951 258.607 295.97 258.699 295.97C258.872 295.97 259.041 295.902 259.167 295.774C263.656 291.19 268.929 283.941 270.922 279.613C272.117 277.018 272.095 273.711 270.859 270.049Z" fill="#FF6BC1"/>
<path d="M268.003 265.006C267.906 265.019 265.615 265.336 262.95 266.407C260.755 267.289 258.958 268.431 257.619 269.778L271.778 276.083C271.894 274.244 271.588 272.208 270.859 270.049C269.941 267.328 268.692 265.381 268.639 265.299C268.502 265.086 268.254 264.972 268.003 265.006Z" fill="url(#paint5_linear)"/>
<path d="M262.542 280.226C263.938 280.226 265.069 279.094 265.069 277.699C265.069 276.303 263.938 275.172 262.542 275.172C261.147 275.172 260.015 276.303 260.015 277.699C260.015 279.094 261.147 280.226 262.542 280.226Z" fill="white"/>
<path d="M258.594 289.702C258.406 289.194 258.032 288.79 257.54 288.563C257.048 288.336 256.497 288.315 255.989 288.503C255.481 288.69 255.076 289.065 254.85 289.557C254.837 289.585 254.826 289.614 254.817 289.644L252.828 296.338C252.679 296.838 252.915 297.359 253.389 297.577C253.531 297.642 253.68 297.674 253.827 297.674C254.168 297.674 254.497 297.504 254.695 297.198L258.488 291.335C258.505 291.309 258.52 291.281 258.533 291.253C258.76 290.761 258.781 290.21 258.594 289.702Z" fill="url(#paint6_linear)"/>
<path d="M276.27 275.232C275.253 274.9 274.168 274.984 273.214 275.468C272.26 275.952 271.552 276.778 271.219 277.795L270.655 279.522C269.969 281.621 271.118 283.887 273.217 284.573C273.629 284.708 274.047 284.772 274.459 284.772C276.144 284.772 277.717 283.698 278.268 282.011L278.833 280.283C279.519 278.184 278.369 275.918 276.27 275.232Z" fill="#F9C295"/>
<path d="M281.931 273.802C281.776 273.629 281.541 273.55 281.313 273.596L278.777 274.106C278.744 274.113 278.71 274.11 278.678 274.1L276.2 273.29C274.452 272.719 272.566 273.676 271.995 275.424L271.025 278.391C270.913 278.734 271.1 279.103 271.444 279.216L273.421 279.862C273.487 279.883 273.556 279.894 273.624 279.894C273.726 279.894 273.827 279.87 273.92 279.823C274.075 279.745 274.192 279.608 274.246 279.443L274.28 279.338C274.418 278.916 274.873 278.685 275.295 278.823L276.494 279.215C278.491 279.868 280.647 278.774 281.3 276.777L282.063 274.44C282.136 274.219 282.085 273.976 281.931 273.802Z" fill="#4E587F"/>
<path d="M272.218 284.429C270.696 283.302 268.54 283.623 267.413 285.146L262.668 291.555C262.558 291.702 262.516 291.89 262.552 292.07C262.587 292.251 262.698 292.408 262.855 292.503L267.637 295.394C267.742 295.458 267.859 295.488 267.975 295.488C268.176 295.488 268.373 295.396 268.501 295.223L272.936 289.234C273.377 288.637 273.61 287.931 273.61 287.192C273.61 286.107 273.09 285.074 272.218 284.429Z" fill="#F0F1F4"/>
<path d="M271.306 285.934C270.965 285.52 270.484 285.263 269.951 285.209L259.47 284.039C259.467 284.039 259.464 284.038 259.461 284.038C258.355 283.93 257.37 284.742 257.262 285.847C257.155 286.95 257.964 287.935 259.066 288.045L269.547 289.215C269.55 289.216 269.553 289.216 269.556 289.216C269.623 289.223 269.689 289.226 269.755 289.226C270.22 289.226 270.666 289.067 271.03 288.767C271.445 288.426 271.703 287.943 271.755 287.408C271.807 286.872 271.647 286.349 271.306 285.934Z" fill="#E2E2E2"/>
<path d="M261.203 284.432C261.095 284.293 260.935 284.203 260.76 284.184L259.47 284.04C259.467 284.039 259.464 284.039 259.461 284.039C258.357 283.932 257.37 284.743 257.262 285.848C257.21 286.383 257.37 286.906 257.711 287.321C258.052 287.735 258.533 287.992 259.066 288.046L260.248 288.178C260.272 288.18 260.297 288.182 260.321 288.182C260.644 288.182 260.924 287.943 260.968 287.616L261.335 284.922C261.359 284.748 261.311 284.571 261.203 284.432Z" fill="#F9C295"/>
<path d="M267.262 296.58C267.237 296.406 267.144 296.25 267.003 296.146L262.533 292.836C262.334 292.689 262.07 292.667 261.849 292.778C261.727 292.84 261.629 292.937 261.567 293.054L254.571 305.598C254.4 305.904 254.502 306.292 254.802 306.475L257.8 308.304C257.906 308.369 258.024 308.4 258.141 308.4C258.338 308.4 258.533 308.31 258.661 308.143L267.133 297.069C267.24 296.929 267.286 296.753 267.262 296.58Z" fill="#393762"/>
<path d="M272.894 297.043L263.532 291.383C263.243 291.209 262.869 291.283 262.668 291.554L261.618 292.972C261.597 293.001 261.578 293.031 261.562 293.062L261.359 293.426C260.532 294.91 261.016 296.772 262.461 297.664L268.489 301.387L266.689 307.835C266.593 308.18 266.792 308.538 267.135 308.638L270.507 309.626C270.567 309.643 270.629 309.652 270.691 309.652C270.801 309.652 270.91 309.624 271.008 309.57C271.161 309.485 271.273 309.343 271.321 309.175L273.961 299.783C274.268 298.735 273.829 297.608 272.894 297.043Z" fill="#4E587F"/>
<g filter="url(#filter3_d)">
<rect x="14" y="127" width="300" height="80" rx="5" fill="white"/>
</g>
<path d="M135.817 167.42C136.324 167.42 136.764 167.357 137.137 167.23C137.517 167.103 137.827 166.93 138.067 166.71C138.314 166.483 138.497 166.217 138.617 165.91C138.737 165.603 138.797 165.267 138.797 164.9C138.797 164.167 138.554 163.603 138.067 163.21C137.587 162.817 136.85 162.62 135.857 162.62H134.137V167.42H135.817ZM142.737 175H140.307C139.847 175 139.514 174.82 139.307 174.46L136.267 169.83C136.154 169.657 136.027 169.533 135.887 169.46C135.754 169.387 135.554 169.35 135.287 169.35H134.137V175H131.447V160.54H135.857C136.837 160.54 137.677 160.643 138.377 160.85C139.084 161.05 139.66 161.333 140.107 161.7C140.56 162.067 140.894 162.507 141.107 163.02C141.32 163.527 141.427 164.087 141.427 164.7C141.427 165.187 141.354 165.647 141.207 166.08C141.067 166.513 140.86 166.907 140.587 167.26C140.32 167.613 139.987 167.923 139.587 168.19C139.194 168.457 138.744 168.667 138.237 168.82C138.41 168.92 138.57 169.04 138.717 169.18C138.864 169.313 138.997 169.473 139.117 169.66L142.737 175ZM149.854 168.69C149.854 168.37 149.808 168.07 149.714 167.79C149.628 167.503 149.494 167.253 149.314 167.04C149.134 166.827 148.904 166.66 148.624 166.54C148.351 166.413 148.031 166.35 147.664 166.35C146.951 166.35 146.388 166.553 145.974 166.96C145.568 167.367 145.308 167.943 145.194 168.69H149.854ZM145.144 170.18C145.184 170.707 145.278 171.163 145.424 171.55C145.571 171.93 145.764 172.247 146.004 172.5C146.244 172.747 146.528 172.933 146.854 173.06C147.188 173.18 147.554 173.24 147.954 173.24C148.354 173.24 148.698 173.193 148.984 173.1C149.278 173.007 149.531 172.903 149.744 172.79C149.964 172.677 150.154 172.573 150.314 172.48C150.481 172.387 150.641 172.34 150.794 172.34C151.001 172.34 151.154 172.417 151.254 172.57L151.964 173.47C151.691 173.79 151.384 174.06 151.044 174.28C150.704 174.493 150.348 174.667 149.974 174.8C149.608 174.927 149.231 175.017 148.844 175.07C148.464 175.123 148.094 175.15 147.734 175.15C147.021 175.15 146.358 175.033 145.744 174.8C145.131 174.56 144.598 174.21 144.144 173.75C143.691 173.283 143.334 172.71 143.074 172.03C142.814 171.343 142.684 170.55 142.684 169.65C142.684 168.95 142.798 168.293 143.024 167.68C143.251 167.06 143.574 166.523 143.994 166.07C144.421 165.61 144.938 165.247 145.544 164.98C146.158 164.713 146.848 164.58 147.614 164.58C148.261 164.58 148.858 164.683 149.404 164.89C149.951 165.097 150.421 165.4 150.814 165.8C151.208 166.193 151.514 166.68 151.734 167.26C151.961 167.833 152.074 168.49 152.074 169.23C152.074 169.603 152.034 169.857 151.954 169.99C151.874 170.117 151.721 170.18 151.494 170.18H145.144ZM153.928 175V164.74H155.438C155.758 164.74 155.968 164.89 156.068 165.19L156.228 165.95C156.408 165.75 156.595 165.567 156.788 165.4C156.988 165.233 157.198 165.09 157.418 164.97C157.645 164.85 157.885 164.757 158.138 164.69C158.398 164.617 158.681 164.58 158.988 164.58C159.635 164.58 160.165 164.757 160.578 165.11C160.998 165.457 161.311 165.92 161.518 166.5C161.678 166.16 161.878 165.87 162.118 165.63C162.358 165.383 162.621 165.183 162.908 165.03C163.195 164.877 163.498 164.763 163.818 164.69C164.145 164.617 164.471 164.58 164.798 164.58C165.365 164.58 165.868 164.667 166.308 164.84C166.748 165.013 167.118 165.267 167.418 165.6C167.718 165.933 167.945 166.34 168.098 166.82C168.258 167.3 168.338 167.85 168.338 168.47V175H165.868V168.47C165.868 167.817 165.725 167.327 165.438 167C165.151 166.667 164.731 166.5 164.178 166.5C163.925 166.5 163.688 166.543 163.468 166.63C163.255 166.717 163.065 166.843 162.898 167.01C162.738 167.17 162.611 167.373 162.518 167.62C162.425 167.867 162.378 168.15 162.378 168.47V175H159.898V168.47C159.898 167.783 159.758 167.283 159.478 166.97C159.205 166.657 158.801 166.5 158.268 166.5C157.908 166.5 157.571 166.59 157.258 166.77C156.951 166.943 156.665 167.183 156.398 167.49V175H153.928ZM175.226 164.58C175.986 164.58 176.676 164.703 177.296 164.95C177.922 165.197 178.456 165.547 178.896 166C179.342 166.453 179.686 167.007 179.926 167.66C180.166 168.313 180.286 169.043 180.286 169.85C180.286 170.663 180.166 171.397 179.926 172.05C179.686 172.703 179.342 173.26 178.896 173.72C178.456 174.18 177.922 174.533 177.296 174.78C176.676 175.027 175.986 175.15 175.226 175.15C174.459 175.15 173.762 175.027 173.136 174.78C172.509 174.533 171.972 174.18 171.526 173.72C171.086 173.26 170.742 172.703 170.496 172.05C170.256 171.397 170.136 170.663 170.136 169.85C170.136 169.043 170.256 168.313 170.496 167.66C170.742 167.007 171.086 166.453 171.526 166C171.972 165.547 172.509 165.197 173.136 164.95C173.762 164.703 174.459 164.58 175.226 164.58ZM175.226 173.25C176.079 173.25 176.709 172.963 177.116 172.39C177.529 171.817 177.736 170.977 177.736 169.87C177.736 168.763 177.529 167.92 177.116 167.34C176.709 166.76 176.079 166.47 175.226 166.47C174.359 166.47 173.716 166.763 173.296 167.35C172.882 167.93 172.676 168.77 172.676 169.87C172.676 170.97 172.882 171.81 173.296 172.39C173.716 172.963 174.359 173.25 175.226 173.25ZM185.395 175.16C184.502 175.16 183.815 174.91 183.335 174.41C182.862 173.903 182.625 173.207 182.625 172.32V166.59H181.575C181.442 166.59 181.328 166.547 181.235 166.46C181.142 166.373 181.095 166.243 181.095 166.07V165.09L182.745 164.82L183.265 162.02C183.298 161.887 183.362 161.783 183.455 161.71C183.548 161.637 183.668 161.6 183.815 161.6H185.095V164.83H187.835V166.59H185.095V172.15C185.095 172.47 185.172 172.72 185.325 172.9C185.485 173.08 185.702 173.17 185.975 173.17C186.128 173.17 186.255 173.153 186.355 173.12C186.462 173.08 186.552 173.04 186.625 173C186.705 172.96 186.775 172.923 186.835 172.89C186.895 172.85 186.955 172.83 187.015 172.83C187.088 172.83 187.148 172.85 187.195 172.89C187.242 172.923 187.292 172.977 187.345 173.05L188.085 174.25C187.725 174.55 187.312 174.777 186.845 174.93C186.378 175.083 185.895 175.16 185.395 175.16ZM195.948 168.69C195.948 168.37 195.901 168.07 195.808 167.79C195.721 167.503 195.588 167.253 195.408 167.04C195.228 166.827 194.998 166.66 194.718 166.54C194.445 166.413 194.125 166.35 193.758 166.35C193.045 166.35 192.481 166.553 192.068 166.96C191.661 167.367 191.401 167.943 191.288 168.69H195.948ZM191.238 170.18C191.278 170.707 191.371 171.163 191.518 171.55C191.665 171.93 191.858 172.247 192.098 172.5C192.338 172.747 192.621 172.933 192.948 173.06C193.281 173.18 193.648 173.24 194.048 173.24C194.448 173.24 194.791 173.193 195.078 173.1C195.371 173.007 195.625 172.903 195.838 172.79C196.058 172.677 196.248 172.573 196.408 172.48C196.575 172.387 196.735 172.34 196.888 172.34C197.095 172.34 197.248 172.417 197.348 172.57L198.058 173.47C197.785 173.79 197.478 174.06 197.138 174.28C196.798 174.493 196.441 174.667 196.068 174.8C195.701 174.927 195.325 175.017 194.938 175.07C194.558 175.123 194.188 175.15 193.828 175.15C193.115 175.15 192.451 175.033 191.838 174.8C191.225 174.56 190.691 174.21 190.238 173.75C189.785 173.283 189.428 172.71 189.168 172.03C188.908 171.343 188.778 170.55 188.778 169.65C188.778 168.95 188.891 168.293 189.118 167.68C189.345 167.06 189.668 166.523 190.088 166.07C190.515 165.61 191.031 165.247 191.638 164.98C192.251 164.713 192.941 164.58 193.708 164.58C194.355 164.58 194.951 164.683 195.498 164.89C196.045 165.097 196.515 165.4 196.908 165.8C197.301 166.193 197.608 166.68 197.828 167.26C198.055 167.833 198.168 168.49 198.168 169.23C198.168 169.603 198.128 169.857 198.048 169.99C197.968 170.117 197.815 170.18 197.588 170.18H191.238ZM215.205 171.59C215.352 171.59 215.482 171.647 215.595 171.76L216.655 172.91C216.068 173.637 215.345 174.193 214.485 174.58C213.632 174.967 212.605 175.16 211.405 175.16C210.332 175.16 209.365 174.977 208.505 174.61C207.652 174.243 206.922 173.733 206.315 173.08C205.708 172.427 205.242 171.647 204.915 170.74C204.595 169.833 204.435 168.843 204.435 167.77C204.435 166.683 204.608 165.69 204.955 164.79C205.302 163.883 205.788 163.103 206.415 162.45C207.048 161.797 207.802 161.29 208.675 160.93C209.548 160.563 210.515 160.38 211.575 160.38C212.628 160.38 213.562 160.553 214.375 160.9C215.195 161.247 215.892 161.7 216.465 162.26L215.565 163.51C215.512 163.59 215.442 163.66 215.355 163.72C215.275 163.78 215.162 163.81 215.015 163.81C214.915 163.81 214.812 163.783 214.705 163.73C214.598 163.67 214.482 163.6 214.355 163.52C214.228 163.433 214.082 163.34 213.915 163.24C213.748 163.14 213.555 163.05 213.335 162.97C213.115 162.883 212.858 162.813 212.565 162.76C212.278 162.7 211.945 162.67 211.565 162.67C210.918 162.67 210.325 162.787 209.785 163.02C209.252 163.247 208.792 163.58 208.405 164.02C208.018 164.453 207.718 164.987 207.505 165.62C207.292 166.247 207.185 166.963 207.185 167.77C207.185 168.583 207.298 169.307 207.525 169.94C207.758 170.573 208.072 171.107 208.465 171.54C208.858 171.973 209.322 172.307 209.855 172.54C210.388 172.767 210.962 172.88 211.575 172.88C211.942 172.88 212.272 172.86 212.565 172.82C212.865 172.78 213.138 172.717 213.385 172.63C213.638 172.543 213.875 172.433 214.095 172.3C214.322 172.16 214.545 171.99 214.765 171.79C214.832 171.73 214.902 171.683 214.975 171.65C215.048 171.61 215.125 171.59 215.205 171.59ZM226.811 164.74V175H225.301C224.974 175 224.768 174.85 224.681 174.55L224.511 173.73C224.091 174.157 223.628 174.503 223.121 174.77C222.614 175.03 222.018 175.16 221.331 175.16C220.771 175.16 220.274 175.067 219.841 174.88C219.414 174.687 219.054 174.417 218.761 174.07C218.468 173.723 218.244 173.313 218.091 172.84C217.944 172.36 217.871 171.833 217.871 171.26V164.74H220.341V171.26C220.341 171.887 220.484 172.373 220.771 172.72C221.064 173.06 221.501 173.23 222.081 173.23C222.508 173.23 222.908 173.137 223.281 172.95C223.654 172.757 224.008 172.493 224.341 172.16V164.74H226.811ZM231.76 160.14V175H229.29V160.14H231.76ZM237.641 175.16C236.748 175.16 236.061 174.91 235.581 174.41C235.108 173.903 234.871 173.207 234.871 172.32V166.59H233.821C233.688 166.59 233.574 166.547 233.481 166.46C233.388 166.373 233.341 166.243 233.341 166.07V165.09L234.991 164.82L235.511 162.02C235.544 161.887 235.608 161.783 235.701 161.71C235.794 161.637 235.914 161.6 236.061 161.6H237.341V164.83H240.081V166.59H237.341V172.15C237.341 172.47 237.418 172.72 237.571 172.9C237.731 173.08 237.948 173.17 238.221 173.17C238.374 173.17 238.501 173.153 238.601 173.12C238.708 173.08 238.798 173.04 238.871 173C238.951 172.96 239.021 172.923 239.081 172.89C239.141 172.85 239.201 172.83 239.261 172.83C239.334 172.83 239.394 172.85 239.441 172.89C239.488 172.923 239.538 172.977 239.591 173.05L240.331 174.25C239.971 174.55 239.558 174.777 239.091 174.93C238.624 175.083 238.141 175.16 237.641 175.16ZM250.502 164.74V175H248.992C248.666 175 248.459 174.85 248.372 174.55L248.202 173.73C247.782 174.157 247.319 174.503 246.812 174.77C246.306 175.03 245.709 175.16 245.022 175.16C244.462 175.16 243.966 175.067 243.532 174.88C243.106 174.687 242.746 174.417 242.452 174.07C242.159 173.723 241.936 173.313 241.782 172.84C241.636 172.36 241.562 171.833 241.562 171.26V164.74H244.032V171.26C244.032 171.887 244.176 172.373 244.462 172.72C244.756 173.06 245.192 173.23 245.772 173.23C246.199 173.23 246.599 173.137 246.972 172.95C247.346 172.757 247.699 172.493 248.032 172.16V164.74H250.502ZM255.281 166.52C255.601 165.907 255.981 165.427 256.421 165.08C256.861 164.727 257.381 164.55 257.981 164.55C258.455 164.55 258.835 164.653 259.121 164.86L258.961 166.71C258.928 166.83 258.878 166.917 258.811 166.97C258.751 167.017 258.668 167.04 258.561 167.04C258.461 167.04 258.311 167.023 258.111 166.99C257.918 166.957 257.728 166.94 257.541 166.94C257.268 166.94 257.025 166.98 256.811 167.06C256.598 167.14 256.405 167.257 256.231 167.41C256.065 167.557 255.915 167.737 255.781 167.95C255.655 168.163 255.535 168.407 255.421 168.68V175H252.951V164.74H254.401C254.655 164.74 254.831 164.787 254.931 164.88C255.031 164.967 255.098 165.127 255.131 165.36L255.281 166.52ZM266.729 168.69C266.729 168.37 266.683 168.07 266.589 167.79C266.503 167.503 266.369 167.253 266.189 167.04C266.009 166.827 265.779 166.66 265.499 166.54C265.226 166.413 264.906 166.35 264.539 166.35C263.826 166.35 263.263 166.553 262.849 166.96C262.443 167.367 262.183 167.943 262.069 168.69H266.729ZM262.019 170.18C262.059 170.707 262.153 171.163 262.299 171.55C262.446 171.93 262.639 172.247 262.879 172.5C263.119 172.747 263.403 172.933 263.729 173.06C264.063 173.18 264.429 173.24 264.829 173.24C265.229 173.24 265.573 173.193 265.859 173.1C266.153 173.007 266.406 172.903 266.619 172.79C266.839 172.677 267.029 172.573 267.189 172.48C267.356 172.387 267.516 172.34 267.669 172.34C267.876 172.34 268.029 172.417 268.129 172.57L268.839 173.47C268.566 173.79 268.259 174.06 267.919 174.28C267.579 174.493 267.223 174.667 266.849 174.8C266.483 174.927 266.106 175.017 265.719 175.07C265.339 175.123 264.969 175.15 264.609 175.15C263.896 175.15 263.233 175.033 262.619 174.8C262.006 174.56 261.473 174.21 261.019 173.75C260.566 173.283 260.209 172.71 259.949 172.03C259.689 171.343 259.559 170.55 259.559 169.65C259.559 168.95 259.673 168.293 259.899 167.68C260.126 167.06 260.449 166.523 260.869 166.07C261.296 165.61 261.813 165.247 262.419 164.98C263.033 164.713 263.723 164.58 264.489 164.58C265.136 164.58 265.733 164.683 266.279 164.89C266.826 165.097 267.296 165.4 267.689 165.8C268.083 166.193 268.389 166.68 268.609 167.26C268.836 167.833 268.949 168.49 268.949 169.23C268.949 169.603 268.909 169.857 268.829 169.99C268.749 170.117 268.596 170.18 268.369 170.18H262.019Z" fill="#6C7380"/>
<path d="M108.071 165.37C106.894 166.547 104.912 166.547 103.734 165.37C98.2839 159.92 91.1607 157.194 83.9765 157.194C76.8539 157.194 69.7307 159.92 64.2807 165.37C63.1036 166.547 61.1214 166.547 59.8828 165.37C58.7057 164.131 58.7057 162.149 59.8828 160.972C66.5098 154.283 75.305 151 83.9765 151C92.7095 151 101.443 154.283 108.071 160.972C109.309 162.149 109.309 164.131 108.071 165.37Z" fill="url(#paint7_linear)"/>
<path d="M99.337 174.102C98.0984 175.28 96.1783 175.28 94.9397 174.103C91.9042 171.068 87.9403 169.519 83.9769 169.519C80.0124 169.519 76.0485 171.068 73.0757 174.103C71.8365 175.28 69.8543 175.28 68.6778 174.103C67.4392 172.864 67.4398 170.944 68.6778 169.705C72.8898 165.493 78.402 163.388 83.9763 163.387C89.5507 163.388 95.125 165.494 99.3364 169.705C100.514 170.944 100.513 172.864 99.337 174.102Z" fill="url(#paint8_linear)"/>
<path d="M90.542 182.836C89.3655 184.075 87.3833 184.075 86.2068 182.836C85.5875 182.278 84.7817 181.969 83.9765 181.969C83.1713 181.969 82.3666 182.278 81.8089 182.836C80.5703 184.075 78.6508 184.075 77.4116 182.835C76.2351 181.659 76.2346 179.677 77.4116 178.5C79.2695 176.704 81.623 175.775 83.9771 175.775C86.3921 175.774 88.7462 176.704 90.542 178.5C91.7812 179.677 91.7812 181.66 90.542 182.836Z" fill="url(#paint9_linear)"/>
<path d="M86.2076 182.836C85.5883 182.278 84.7825 181.969 83.9773 181.969L83.9779 175.775C86.3935 175.775 88.747 176.704 90.5433 178.5C91.7819 179.677 91.7819 181.66 90.5428 182.836C89.3663 184.075 87.3841 184.075 86.2076 182.836Z" fill="#FF6BC1"/>
<path d="M99.3376 169.706C100.515 170.944 100.515 172.864 99.3376 174.102C98.099 175.28 96.1789 175.28 94.9403 174.103C91.9047 171.068 87.9408 169.519 83.9775 169.519L83.9775 163.388C89.5512 163.388 95.1256 165.494 99.3376 169.706Z" fill="#FF6BC1"/>
<path d="M108.072 165.37C106.895 166.547 104.912 166.547 103.735 165.37C98.2849 159.92 91.1617 157.194 83.9775 157.194V151C92.7105 151 101.444 154.283 108.072 160.972C109.31 162.149 109.31 164.131 108.072 165.37Z" fill="#FF6BC1"/>
<g filter="url(#filter4_d)">
<rect x="364" y="127" width="300" height="80" rx="5" fill="white"/>
</g>
<path d="M484.31 162.68V166.96H489.73V169.11H484.31V175H481.61V160.54H490.73V162.68H484.31ZM494.077 166.52C494.397 165.907 494.777 165.427 495.217 165.08C495.657 164.727 496.177 164.55 496.777 164.55C497.251 164.55 497.631 164.653 497.917 164.86L497.757 166.71C497.724 166.83 497.674 166.917 497.607 166.97C497.547 167.017 497.464 167.04 497.357 167.04C497.257 167.04 497.107 167.023 496.907 166.99C496.714 166.957 496.524 166.94 496.337 166.94C496.064 166.94 495.821 166.98 495.607 167.06C495.394 167.14 495.201 167.257 495.027 167.41C494.861 167.557 494.711 167.737 494.577 167.95C494.451 168.163 494.331 168.407 494.217 168.68V175H491.747V164.74H493.197C493.451 164.74 493.627 164.787 493.727 164.88C493.827 164.967 493.894 165.127 493.927 165.36L494.077 166.52ZM501.768 164.74V175H499.288V164.74H501.768ZM502.108 161.75C502.108 161.963 502.065 162.163 501.978 162.35C501.892 162.537 501.775 162.7 501.628 162.84C501.488 162.98 501.322 163.093 501.128 163.18C500.935 163.26 500.728 163.3 500.508 163.3C500.295 163.3 500.092 163.26 499.898 163.18C499.712 163.093 499.548 162.98 499.408 162.84C499.268 162.7 499.155 162.537 499.068 162.35C498.988 162.163 498.948 161.963 498.948 161.75C498.948 161.53 498.988 161.323 499.068 161.13C499.155 160.937 499.268 160.77 499.408 160.63C499.548 160.49 499.712 160.38 499.898 160.3C500.092 160.213 500.295 160.17 500.508 160.17C500.728 160.17 500.935 160.213 501.128 160.3C501.322 160.38 501.488 160.49 501.628 160.63C501.775 160.77 501.892 160.937 501.978 161.13C502.065 161.323 502.108 161.53 502.108 161.75ZM510.896 168.69C510.896 168.37 510.85 168.07 510.756 167.79C510.67 167.503 510.536 167.253 510.356 167.04C510.176 166.827 509.946 166.66 509.666 166.54C509.393 166.413 509.073 166.35 508.706 166.35C507.993 166.35 507.43 166.553 507.016 166.96C506.61 167.367 506.35 167.943 506.236 168.69H510.896ZM506.186 170.18C506.226 170.707 506.32 171.163 506.466 171.55C506.613 171.93 506.806 172.247 507.046 172.5C507.286 172.747 507.57 172.933 507.896 173.06C508.23 173.18 508.596 173.24 508.996 173.24C509.396 173.24 509.74 173.193 510.026 173.1C510.32 173.007 510.573 172.903 510.786 172.79C511.006 172.677 511.196 172.573 511.356 172.48C511.523 172.387 511.683 172.34 511.836 172.34C512.043 172.34 512.196 172.417 512.296 172.57L513.006 173.47C512.733 173.79 512.426 174.06 512.086 174.28C511.746 174.493 511.39 174.667 511.016 174.8C510.65 174.927 510.273 175.017 509.886 175.07C509.506 175.123 509.136 175.15 508.776 175.15C508.063 175.15 507.4 175.033 506.786 174.8C506.173 174.56 505.64 174.21 505.186 173.75C504.733 173.283 504.376 172.71 504.116 172.03C503.856 171.343 503.726 170.55 503.726 169.65C503.726 168.95 503.84 168.293 504.066 167.68C504.293 167.06 504.616 166.523 505.036 166.07C505.463 165.61 505.98 165.247 506.586 164.98C507.2 164.713 507.89 164.58 508.656 164.58C509.303 164.58 509.9 164.683 510.446 164.89C510.993 165.097 511.463 165.4 511.856 165.8C512.25 166.193 512.556 166.68 512.776 167.26C513.003 167.833 513.116 168.49 513.116 169.23C513.116 169.603 513.076 169.857 512.996 169.99C512.916 170.117 512.763 170.18 512.536 170.18H506.186ZM517.28 166C517.487 165.793 517.703 165.603 517.93 165.43C518.163 165.25 518.407 165.1 518.66 164.98C518.92 164.853 519.197 164.757 519.49 164.69C519.783 164.617 520.103 164.58 520.45 164.58C521.01 164.58 521.507 164.677 521.94 164.87C522.373 165.057 522.733 165.323 523.02 165.67C523.313 166.01 523.533 166.42 523.68 166.9C523.833 167.373 523.91 167.897 523.91 168.47V175H521.44V168.47C521.44 167.843 521.297 167.36 521.01 167.02C520.723 166.673 520.287 166.5 519.7 166.5C519.273 166.5 518.873 166.597 518.5 166.79C518.127 166.983 517.773 167.247 517.44 167.58V175H514.97V164.74H516.48C516.8 164.74 517.01 164.89 517.11 165.19L517.28 166ZM532.699 167.36C532.419 167.02 532.112 166.78 531.779 166.64C531.452 166.5 531.099 166.43 530.719 166.43C530.346 166.43 530.009 166.5 529.709 166.64C529.409 166.78 529.152 166.993 528.939 167.28C528.726 167.56 528.562 167.92 528.449 168.36C528.336 168.793 528.279 169.307 528.279 169.9C528.279 170.5 528.326 171.01 528.419 171.43C528.519 171.843 528.659 172.183 528.839 172.45C529.019 172.71 529.239 172.9 529.499 173.02C529.759 173.133 530.049 173.19 530.369 173.19C530.882 173.19 531.319 173.083 531.679 172.87C532.039 172.657 532.379 172.353 532.699 171.96V167.36ZM535.169 160.14V175H533.659C533.332 175 533.126 174.85 533.039 174.55L532.829 173.56C532.416 174.033 531.939 174.417 531.399 174.71C530.866 175.003 530.242 175.15 529.529 175.15C528.969 175.15 528.456 175.033 527.989 174.8C527.522 174.567 527.119 174.23 526.779 173.79C526.446 173.343 526.186 172.793 525.999 172.14C525.819 171.487 525.729 170.74 525.729 169.9C525.729 169.14 525.832 168.433 526.039 167.78C526.246 167.127 526.542 166.56 526.929 166.08C527.316 165.6 527.779 165.227 528.319 164.96C528.859 164.687 529.466 164.55 530.139 164.55C530.712 164.55 531.202 164.64 531.609 164.82C532.016 165 532.379 165.243 532.699 165.55V160.14H535.169ZM540.107 160.14V175H537.637V160.14H540.107ZM551.888 164.74L546.298 177.82C546.224 177.993 546.128 178.123 546.008 178.21C545.894 178.303 545.718 178.35 545.478 178.35H543.638L545.558 174.23L541.408 164.74H543.578C543.771 164.74 543.921 164.787 544.028 164.88C544.141 164.973 544.224 165.08 544.278 165.2L546.458 170.52C546.531 170.7 546.591 170.88 546.638 171.06C546.691 171.24 546.741 171.423 546.788 171.61C546.848 171.423 546.908 171.24 546.968 171.06C547.028 170.873 547.094 170.69 547.168 170.51L549.228 165.2C549.281 165.067 549.368 164.957 549.488 164.87C549.614 164.783 549.754 164.74 549.908 164.74H551.888ZM561.03 168.24C560.497 168.587 560.107 168.98 559.86 169.42C559.62 169.853 559.5 170.32 559.5 170.82C559.5 171.187 559.563 171.517 559.69 171.81C559.817 172.103 559.987 172.353 560.2 172.56C560.42 172.76 560.673 172.917 560.96 173.03C561.253 173.137 561.563 173.19 561.89 173.19C562.477 173.19 563.013 173.1 563.5 172.92C563.987 172.733 564.427 172.477 564.82 172.15L561.03 168.24ZM570.66 175H568.24C567.987 175 567.78 174.97 567.62 174.91C567.467 174.85 567.303 174.723 567.13 174.53L566.13 173.5C565.497 174.02 564.787 174.427 564 174.72C563.213 175.013 562.363 175.16 561.45 175.16C560.897 175.16 560.35 175.067 559.81 174.88C559.277 174.687 558.8 174.41 558.38 174.05C557.96 173.69 557.62 173.257 557.36 172.75C557.107 172.237 556.98 171.66 556.98 171.02C556.98 170.567 557.053 170.14 557.2 169.74C557.347 169.333 557.55 168.957 557.81 168.61C558.07 168.263 558.38 167.953 558.74 167.68C559.1 167.4 559.493 167.16 559.92 166.96C559.56 166.46 559.3 165.973 559.14 165.5C558.98 165.02 558.9 164.543 558.9 164.07C558.9 163.57 558.99 163.097 559.17 162.65C559.357 162.197 559.623 161.803 559.97 161.47C560.317 161.137 560.743 160.873 561.25 160.68C561.757 160.48 562.33 160.38 562.97 160.38C563.557 160.38 564.08 160.47 564.54 160.65C565.007 160.83 565.403 161.07 565.73 161.37C566.063 161.67 566.323 162.013 566.51 162.4C566.703 162.787 566.817 163.187 566.85 163.6L565.28 163.93C564.987 163.99 564.773 163.863 564.64 163.55C564.58 163.377 564.5 163.213 564.4 163.06C564.307 162.9 564.193 162.763 564.06 162.65C563.927 162.53 563.77 162.437 563.59 162.37C563.41 162.297 563.203 162.26 562.97 162.26C562.69 162.26 562.44 162.31 562.22 162.41C562 162.503 561.813 162.633 561.66 162.8C561.513 162.96 561.4 163.15 561.32 163.37C561.24 163.583 561.2 163.81 561.2 164.05C561.2 164.25 561.22 164.443 561.26 164.63C561.3 164.817 561.367 165.003 561.46 165.19C561.553 165.377 561.673 165.57 561.82 165.77C561.973 165.963 562.16 166.173 562.38 166.4L566.22 170.39C566.44 169.97 566.617 169.527 566.75 169.06C566.883 168.593 566.97 168.12 567.01 167.64C567.03 167.487 567.083 167.363 567.17 167.27C567.257 167.177 567.377 167.13 567.53 167.13H569.07C569.063 168.01 568.937 168.85 568.69 169.65C568.443 170.45 568.09 171.187 567.63 171.86L570.66 175ZM579.896 162.68V166.96H585.316V169.11H579.896V175H577.196V160.54H586.316V162.68H579.896ZM596.271 164.74V175H594.761C594.434 175 594.228 174.85 594.141 174.55L593.971 173.73C593.551 174.157 593.088 174.503 592.581 174.77C592.074 175.03 591.478 175.16 590.791 175.16C590.231 175.16 589.734 175.067 589.301 174.88C588.874 174.687 588.514 174.417 588.221 174.07C587.928 173.723 587.704 173.313 587.551 172.84C587.404 172.36 587.331 171.833 587.331 171.26V164.74H589.801V171.26C589.801 171.887 589.944 172.373 590.231 172.72C590.524 173.06 590.961 173.23 591.541 173.23C591.968 173.23 592.368 173.137 592.741 172.95C593.114 172.757 593.468 172.493 593.801 172.16V164.74H596.271ZM601.03 166C601.237 165.793 601.453 165.603 601.68 165.43C601.913 165.25 602.157 165.1 602.41 164.98C602.67 164.853 602.947 164.757 603.24 164.69C603.533 164.617 603.853 164.58 604.2 164.58C604.76 164.58 605.257 164.677 605.69 164.87C606.123 165.057 606.483 165.323 606.77 165.67C607.063 166.01 607.283 166.42 607.43 166.9C607.583 167.373 607.66 167.897 607.66 168.47V175H605.19V168.47C605.19 167.843 605.047 167.36 604.76 167.02C604.473 166.673 604.037 166.5 603.45 166.5C603.023 166.5 602.623 166.597 602.25 166.79C601.877 166.983 601.523 167.247 601.19 167.58V175H598.72V164.74H600.23C600.55 164.74 600.76 164.89 600.86 165.19L601.03 166Z" fill="#6C7380"/>
<path d="M439.314 159.049C438.398 158.13 436.914 158.13 435.999 159.049L429.934 165.14H425.078C422.278 165.14 420 167.428 420 170.241V183.468C420 184.118 420.525 184.645 421.172 184.645H430.625C431.272 184.645 431.797 184.118 431.797 183.468V169.927L439.314 162.378C440.229 161.458 440.229 159.968 439.314 159.049Z" fill="url(#paint10_linear)"/>
<path d="M440 153.469C439.353 153.469 438.828 152.944 438.828 152.297V149.172C438.828 148.525 439.353 148 440 148C440.647 148 441.172 148.525 441.172 149.172V152.297C441.172 152.944 440.647 153.469 440 153.469Z" fill="#FF6BC1"/>
<path d="M435.704 155.032C435.299 155.032 434.905 154.822 434.688 154.446L433.126 151.74C432.802 151.179 432.994 150.462 433.555 150.139C434.115 149.815 434.832 150.007 435.155 150.568L436.718 153.274C437.041 153.834 436.849 154.551 436.289 154.875C436.104 154.981 435.903 155.032 435.704 155.032Z" fill="#FF6BC1"/>
<path d="M444.296 155.032C444.097 155.032 443.895 154.981 443.711 154.875C443.15 154.551 442.958 153.834 443.282 153.274L444.844 150.568C445.168 150.007 445.885 149.815 446.445 150.139C447.006 150.462 447.198 151.179 446.874 151.74L445.312 154.446C445.095 154.822 444.701 155.032 444.296 155.032Z" fill="#FF6BC1"/>
<path d="M454.922 165.3H450.066L444.001 159.234C443.086 158.319 441.602 158.319 440.686 159.234C439.771 160.15 439.771 161.634 440.686 162.549L448.203 170.066V183.548C448.203 184.195 448.728 184.72 449.375 184.72H458.828C459.475 184.72 460 184.195 460 183.548V170.378C460 167.578 457.722 165.3 454.922 165.3Z" fill="url(#paint11_linear)"/>
<path d="M454.102 167.643C451.301 167.643 449.023 165.365 449.023 162.564C449.023 159.764 451.301 157.486 454.102 157.486C456.902 157.486 459.18 159.764 459.18 162.564C459.18 165.365 456.902 167.643 454.102 167.643Z" fill="#F9C295"/>
<path d="M425.898 167.643C423.098 167.643 420.82 165.365 420.82 162.564C420.82 159.764 423.098 157.486 425.898 157.486C428.699 157.486 430.977 159.764 430.977 162.564C430.977 165.365 428.699 167.643 425.898 167.643Z" fill="#F9C295"/>
</g>
<defs>
<filter id="filter0_d" x="4" y="0" width="320" height="100" filterUnits="userSpaceOnUse" color-interpolation-filters="sRGB">
<feFlood flood-opacity="0" result="BackgroundImageFix"/>
<feColorMatrix in="SourceAlpha" type="matrix" values="0 0 0 0 0 0 0 0 0 0 0 0 0 0 0 0 0 0 127 0"/>
<feOffset dy="3"/>
<feGaussianBlur stdDeviation="5"/>
<feColorMatrix type="matrix" values="0 0 0 0 0 0 0 0 0 0 0 0 0 0 0 0 0 0 0.1 0"/>
<feBlend mode="normal" in2="BackgroundImageFix" result="effect1_dropShadow"/>
<feBlend mode="normal" in="SourceGraphic" in2="effect1_dropShadow" result="shape"/>
</filter>
<filter id="filter1_d" x="354" y="0" width="320" height="100" filterUnits="userSpaceOnUse" color-interpolation-filters="sRGB">
<feFlood flood-opacity="0" result="BackgroundImageFix"/>
<feColorMatrix in="SourceAlpha" type="matrix" values="0 0 0 0 0 0 0 0 0 0 0 0 0 0 0 0 0 0 127 0"/>
<feOffset dy="3"/>
<feGaussianBlur stdDeviation="5"/>
<feColorMatrix type="matrix" values="0 0 0 0 0 0 0 0 0 0 0 0 0 0 0 0 0 0 0.1 0"/>
<feBlend mode="normal" in2="BackgroundImageFix" result="effect1_dropShadow"/>
<feBlend mode="normal" in="SourceGraphic" in2="effect1_dropShadow" result="shape"/>
</filter>
<filter id="filter2_d" x="179" y="240" width="320" height="100" filterUnits="userSpaceOnUse" color-interpolation-filters="sRGB">
<feFlood flood-opacity="0" result="BackgroundImageFix"/>
<feColorMatrix in="SourceAlpha" type="matrix" values="0 0 0 0 0 0 0 0 0 0 0 0 0 0 0 0 0 0 127 0"/>
<feOffset dy="3"/>
<feGaussianBlur stdDeviation="5"/>
<feColorMatrix type="matrix" values="0 0 0 0 0 0 0 0 0 0 0 0 0 0 0 0 0 0 0.1 0"/>
<feBlend mode="normal" in2="BackgroundImageFix" result="effect1_dropShadow"/>
<feBlend mode="normal" in="SourceGraphic" in2="effect1_dropShadow" result="shape"/>
</filter>
<filter id="filter3_d" x="4" y="120" width="320" height="100" filterUnits="userSpaceOnUse" color-interpolation-filters="sRGB">
<feFlood flood-opacity="0" result="BackgroundImageFix"/>
<feColorMatrix in="SourceAlpha" type="matrix" values="0 0 0 0 0 0 0 0 0 0 0 0 0 0 0 0 0 0 127 0"/>
<feOffset dy="3"/>
<feGaussianBlur stdDeviation="5"/>
<feColorMatrix type="matrix" values="0 0 0 0 0 0 0 0 0 0 0 0 0 0 0 0 0 0 0.1 0"/>
<feBlend mode="normal" in2="BackgroundImageFix" result="effect1_dropShadow"/>
<feBlend mode="normal" in="SourceGraphic" in2="effect1_dropShadow" result="shape"/>
</filter>
<filter id="filter4_d" x="354" y="120" width="320" height="100" filterUnits="userSpaceOnUse" color-interpolation-filters="sRGB">
<feFlood flood-opacity="0" result="BackgroundImageFix"/>
<feColorMatrix in="SourceAlpha" type="matrix" values="0 0 0 0 0 0 0 0 0 0 0 0 0 0 0 0 0 0 127 0"/>
<feOffset dy="3"/>
<feGaussianBlur stdDeviation="5"/>
<feColorMatrix type="matrix" values="0 0 0 0 0 0 0 0 0 0 0 0 0 0 0 0 0 0 0.1 0"/>
<feBlend mode="normal" in2="BackgroundImageFix" result="effect1_dropShadow"/>
<feBlend mode="normal" in="SourceGraphic" in2="effect1_dropShadow" result="shape"/>
</filter>
<linearGradient id="paint0_linear" x1="72.5676" y1="46.8758" x2="78.5483" y2="50.2732" gradientUnits="userSpaceOnUse">
<stop stop-color="#136BDE"/>
<stop offset="1" stop-color="#68ADFD"/>
</linearGradient>
<linearGradient id="paint1_linear" x1="80.9006" y1="46.8758" x2="86.8812" y2="50.2732" gradientUnits="userSpaceOnUse">
<stop stop-color="#136BDE"/>
<stop offset="1" stop-color="#68ADFD"/>
</linearGradient>
<linearGradient id="paint2_linear" x1="74.4686" y1="40.8605" x2="79.2706" y2="48.1346" gradientUnits="userSpaceOnUse">
<stop stop-color="#136BDE"/>
<stop offset="1" stop-color="#68ADFD"/>
</linearGradient>
<linearGradient id="paint3_linear" x1="428.764" y1="62.5793" x2="432.324" y2="68.1503" gradientUnits="userSpaceOnUse">
<stop stop-color="#136BDE"/>
<stop offset="1" stop-color="#68ADFD"/>
</linearGradient>
<linearGradient id="paint4_linear" x1="420.144" y1="36.743" x2="438.392" y2="57.6552" gradientUnits="userSpaceOnUse">
<stop stop-color="#136BDE"/>
<stop offset="1" stop-color="#68ADFD"/>
</linearGradient>
<linearGradient id="paint5_linear" x1="260.854" y1="268.376" x2="266.576" y2="275.032" gradientUnits="userSpaceOnUse">
<stop stop-color="#136BDE"/>
<stop offset="1" stop-color="#68ADFD"/>
</linearGradient>
<linearGradient id="paint6_linear" x1="254.138" y1="291.208" x2="258.354" y2="293.655" gradientUnits="userSpaceOnUse">
<stop stop-color="#136BDE"/>
<stop offset="1" stop-color="#68ADFD"/>
</linearGradient>
<linearGradient id="paint7_linear" x1="76.3885" y1="181.185" x2="84.6263" y2="181.474" gradientUnits="userSpaceOnUse">
<stop stop-color="#136BDE"/>
<stop offset="1" stop-color="#68ADFD"/>
</linearGradient>
<linearGradient id="paint8_linear" x1="76.3885" y1="181.185" x2="84.6263" y2="181.474" gradientUnits="userSpaceOnUse">
<stop stop-color="#136BDE"/>
<stop offset="1" stop-color="#68ADFD"/>
</linearGradient>
<linearGradient id="paint9_linear" x1="76.3885" y1="181.185" x2="84.6263" y2="181.474" gradientUnits="userSpaceOnUse">
<stop stop-color="#136BDE"/>
<stop offset="1" stop-color="#68ADFD"/>
</linearGradient>
<linearGradient id="paint10_linear" x1="424.562" y1="166.366" x2="437.406" y2="175.248" gradientUnits="userSpaceOnUse">
<stop stop-color="#136BDE"/>
<stop offset="1" stop-color="#68ADFD"/>
</linearGradient>
<linearGradient id="paint11_linear" x1="444.562" y1="166.52" x2="457.369" y2="175.415" gradientUnits="userSpaceOnUse">
<stop stop-color="#136BDE"/>
<stop offset="1" stop-color="#68ADFD"/>
</linearGradient>
<clipPath id="clip0">
<rect x="-78" y="-1063" width="834" height="3588" fill="white"/>
</clipPath>
</defs>
</svg>
