<svg width="1060" height="230" viewBox="0 0 1060 230" fill="none" xmlns="http://www.w3.org/2000/svg">
<g filter="url(#filter0_d)">
<rect x="10" y="7" width="300" height="80" rx="5" fill="white"/>
</g>
<path d="M126.31 47.81C126.803 47.81 127.233 47.75 127.6 47.63C127.967 47.5033 128.27 47.3267 128.51 47.1C128.757 46.8667 128.94 46.5867 129.06 46.26C129.18 45.9267 129.24 45.5567 129.24 45.15C129.24 44.7633 129.18 44.4133 129.06 44.1C128.94 43.7867 128.76 43.52 128.52 43.3C128.28 43.08 127.977 42.9133 127.61 42.8C127.243 42.68 126.81 42.62 126.31 42.62H124.3V47.81H126.31ZM126.31 40.54C127.277 40.54 128.113 40.6533 128.82 40.88C129.527 41.1067 130.11 41.4233 130.57 41.83C131.03 42.2367 131.37 42.7233 131.59 43.29C131.817 43.8567 131.93 44.4767 131.93 45.15C131.93 45.85 131.813 46.4933 131.58 47.08C131.347 47.66 130.997 48.16 130.53 48.58C130.063 49 129.477 49.3267 128.77 49.56C128.07 49.7933 127.25 49.91 126.31 49.91H124.3V55H121.61V40.54H126.31ZM135.777 46.52C136.097 45.9067 136.477 45.4267 136.917 45.08C137.357 44.7267 137.877 44.55 138.477 44.55C138.95 44.55 139.33 44.6533 139.617 44.86L139.457 46.71C139.423 46.83 139.373 46.9167 139.307 46.97C139.247 47.0167 139.163 47.04 139.057 47.04C138.957 47.04 138.807 47.0233 138.607 46.99C138.413 46.9567 138.223 46.94 138.037 46.94C137.763 46.94 137.52 46.98 137.307 47.06C137.093 47.14 136.9 47.2567 136.727 47.41C136.56 47.5567 136.41 47.7367 136.277 47.95C136.15 48.1633 136.03 48.4067 135.917 48.68V55H133.447V44.74H134.897C135.15 44.74 135.327 44.7867 135.427 44.88C135.527 44.9667 135.593 45.1267 135.627 45.36L135.777 46.52ZM145.155 44.58C145.915 44.58 146.605 44.7033 147.225 44.95C147.851 45.1967 148.385 45.5467 148.825 46C149.271 46.4533 149.615 47.0067 149.855 47.66C150.095 48.3133 150.215 49.0433 150.215 49.85C150.215 50.6633 150.095 51.3967 149.855 52.05C149.615 52.7033 149.271 53.26 148.825 53.72C148.385 54.18 147.851 54.5333 147.225 54.78C146.605 55.0267 145.915 55.15 145.155 55.15C144.388 55.15 143.691 55.0267 143.065 54.78C142.438 54.5333 141.901 54.18 141.455 53.72C141.015 53.26 140.671 52.7033 140.425 52.05C140.185 51.3967 140.065 50.6633 140.065 49.85C140.065 49.0433 140.185 48.3133 140.425 47.66C140.671 47.0067 141.015 46.4533 141.455 46C141.901 45.5467 142.438 45.1967 143.065 44.95C143.691 44.7033 144.388 44.58 145.155 44.58ZM145.155 53.25C146.008 53.25 146.638 52.9633 147.045 52.39C147.458 51.8167 147.665 50.9767 147.665 49.87C147.665 48.7633 147.458 47.92 147.045 47.34C146.638 46.76 146.008 46.47 145.155 46.47C144.288 46.47 143.645 46.7633 143.225 47.35C142.811 47.93 142.605 48.77 142.605 49.87C142.605 50.97 142.811 51.81 143.225 52.39C143.645 52.9633 144.288 53.25 145.155 53.25ZM158.539 47.36C158.259 47.02 157.952 46.78 157.619 46.64C157.292 46.5 156.939 46.43 156.559 46.43C156.186 46.43 155.849 46.5 155.549 46.64C155.249 46.78 154.992 46.9933 154.779 47.28C154.566 47.56 154.402 47.92 154.289 48.36C154.176 48.7933 154.119 49.3067 154.119 49.9C154.119 50.5 154.166 51.01 154.259 51.43C154.359 51.8433 154.499 52.1833 154.679 52.45C154.859 52.71 155.079 52.9 155.339 53.02C155.599 53.1333 155.889 53.19 156.209 53.19C156.722 53.19 157.159 53.0833 157.519 52.87C157.879 52.6567 158.219 52.3533 158.539 51.96V47.36ZM161.009 40.14V55H159.499C159.172 55 158.966 54.85 158.879 54.55L158.669 53.56C158.256 54.0333 157.779 54.4167 157.239 54.71C156.706 55.0033 156.082 55.15 155.369 55.15C154.809 55.15 154.296 55.0333 153.829 54.8C153.362 54.5667 152.959 54.23 152.619 53.79C152.286 53.3433 152.026 52.7933 151.839 52.14C151.659 51.4867 151.569 50.74 151.569 49.9C151.569 49.14 151.672 48.4333 151.879 47.78C152.086 47.1267 152.382 46.56 152.769 46.08C153.156 45.6 153.619 45.2267 154.159 44.96C154.699 44.6867 155.306 44.55 155.979 44.55C156.552 44.55 157.042 44.64 157.449 44.82C157.856 45 158.219 45.2433 158.539 45.55V40.14H161.009ZM172.287 44.74V55H170.777C170.45 55 170.243 54.85 170.157 54.55L169.987 53.73C169.567 54.1567 169.103 54.5033 168.597 54.77C168.09 55.03 167.493 55.16 166.807 55.16C166.247 55.16 165.75 55.0667 165.317 54.88C164.89 54.6867 164.53 54.4167 164.237 54.07C163.943 53.7233 163.72 53.3133 163.567 52.84C163.42 52.36 163.347 51.8333 163.347 51.26V44.74H165.817V51.26C165.817 51.8867 165.96 52.3733 166.247 52.72C166.54 53.06 166.977 53.23 167.557 53.23C167.983 53.23 168.383 53.1367 168.757 52.95C169.13 52.7567 169.483 52.4933 169.817 52.16V44.74H172.287ZM182.086 46.91C182.012 47.0033 181.939 47.0767 181.866 47.13C181.799 47.1833 181.699 47.21 181.566 47.21C181.439 47.21 181.316 47.1733 181.196 47.1C181.076 47.02 180.932 46.9333 180.766 46.84C180.599 46.74 180.399 46.6533 180.166 46.58C179.939 46.5 179.656 46.46 179.316 46.46C178.882 46.46 178.502 46.54 178.176 46.7C177.849 46.8533 177.576 47.0767 177.356 47.37C177.142 47.6633 176.982 48.02 176.876 48.44C176.769 48.8533 176.716 49.3233 176.716 49.85C176.716 50.3967 176.772 50.8833 176.886 51.31C177.006 51.7367 177.176 52.0967 177.396 52.39C177.616 52.6767 177.882 52.8967 178.196 53.05C178.509 53.1967 178.862 53.27 179.256 53.27C179.649 53.27 179.966 53.2233 180.206 53.13C180.452 53.03 180.659 52.9233 180.826 52.81C180.992 52.69 181.136 52.5833 181.256 52.49C181.382 52.39 181.522 52.34 181.676 52.34C181.876 52.34 182.026 52.4167 182.126 52.57L182.836 53.47C182.562 53.79 182.266 54.06 181.946 54.28C181.626 54.4933 181.292 54.6667 180.946 54.8C180.606 54.9267 180.252 55.0167 179.886 55.07C179.526 55.1233 179.166 55.15 178.806 55.15C178.172 55.15 177.576 55.0333 177.016 54.8C176.456 54.56 175.966 54.2133 175.546 53.76C175.126 53.3067 174.792 52.7533 174.546 52.1C174.306 51.44 174.186 50.69 174.186 49.85C174.186 49.0967 174.292 48.4 174.506 47.76C174.726 47.1133 175.046 46.5567 175.466 46.09C175.886 45.6167 176.406 45.2467 177.026 44.98C177.646 44.7133 178.359 44.58 179.166 44.58C179.932 44.58 180.602 44.7033 181.176 44.95C181.756 45.1967 182.276 45.55 182.736 46.01L182.086 46.91ZM187.804 55.16C186.911 55.16 186.224 54.91 185.744 54.41C185.271 53.9033 185.034 53.2067 185.034 52.32V46.59H183.984C183.851 46.59 183.737 46.5467 183.644 46.46C183.551 46.3733 183.504 46.2433 183.504 46.07V45.09L185.154 44.82L185.674 42.02C185.707 41.8867 185.771 41.7833 185.864 41.71C185.957 41.6367 186.077 41.6 186.224 41.6H187.504V44.83H190.244V46.59H187.504V52.15C187.504 52.47 187.581 52.72 187.734 52.9C187.894 53.08 188.111 53.17 188.384 53.17C188.537 53.17 188.664 53.1533 188.764 53.12C188.871 53.08 188.961 53.04 189.034 53C189.114 52.96 189.184 52.9233 189.244 52.89C189.304 52.85 189.364 52.83 189.424 52.83C189.497 52.83 189.557 52.85 189.604 52.89C189.651 52.9233 189.701 52.9767 189.754 53.05L190.494 54.25C190.134 54.55 189.721 54.7767 189.254 54.93C188.787 55.0833 188.304 55.16 187.804 55.16ZM199.779 42.68V46.96H205.199V49.11H199.779V55H197.079V40.54H206.199V42.68H199.779ZM211.658 44.58C212.418 44.58 213.108 44.7033 213.728 44.95C214.355 45.1967 214.888 45.5467 215.328 46C215.775 46.4533 216.118 47.0067 216.358 47.66C216.598 48.3133 216.718 49.0433 216.718 49.85C216.718 50.6633 216.598 51.3967 216.358 52.05C216.118 52.7033 215.775 53.26 215.328 53.72C214.888 54.18 214.355 54.5333 213.728 54.78C213.108 55.0267 212.418 55.15 211.658 55.15C210.892 55.15 210.195 55.0267 209.568 54.78C208.942 54.5333 208.405 54.18 207.958 53.72C207.518 53.26 207.175 52.7033 206.928 52.05C206.688 51.3967 206.568 50.6633 206.568 49.85C206.568 49.0433 206.688 48.3133 206.928 47.66C207.175 47.0067 207.518 46.4533 207.958 46C208.405 45.5467 208.942 45.1967 209.568 44.95C210.195 44.7033 210.892 44.58 211.658 44.58ZM211.658 53.25C212.512 53.25 213.142 52.9633 213.548 52.39C213.962 51.8167 214.168 50.9767 214.168 49.87C214.168 48.7633 213.962 47.92 213.548 47.34C213.142 46.76 212.512 46.47 211.658 46.47C210.792 46.47 210.148 46.7633 209.728 47.35C209.315 47.93 209.108 48.77 209.108 49.87C209.108 50.97 209.315 51.81 209.728 52.39C210.148 52.9633 210.792 53.25 211.658 53.25ZM225.953 46.91C225.879 47.0033 225.806 47.0767 225.733 47.13C225.666 47.1833 225.566 47.21 225.433 47.21C225.306 47.21 225.183 47.1733 225.063 47.1C224.943 47.02 224.799 46.9333 224.633 46.84C224.466 46.74 224.266 46.6533 224.033 46.58C223.806 46.5 223.523 46.46 223.183 46.46C222.749 46.46 222.369 46.54 222.043 46.7C221.716 46.8533 221.443 47.0767 221.223 47.37C221.009 47.6633 220.849 48.02 220.743 48.44C220.636 48.8533 220.583 49.3233 220.583 49.85C220.583 50.3967 220.639 50.8833 220.753 51.31C220.873 51.7367 221.043 52.0967 221.263 52.39C221.483 52.6767 221.749 52.8967 222.063 53.05C222.376 53.1967 222.729 53.27 223.123 53.27C223.516 53.27 223.833 53.2233 224.073 53.13C224.319 53.03 224.526 52.9233 224.693 52.81C224.859 52.69 225.003 52.5833 225.123 52.49C225.249 52.39 225.389 52.34 225.543 52.34C225.743 52.34 225.893 52.4167 225.993 52.57L226.703 53.47C226.429 53.79 226.133 54.06 225.813 54.28C225.493 54.4933 225.159 54.6667 224.813 54.8C224.473 54.9267 224.119 55.0167 223.753 55.07C223.393 55.1233 223.033 55.15 222.673 55.15C222.039 55.15 221.443 55.0333 220.883 54.8C220.323 54.56 219.833 54.2133 219.413 53.76C218.993 53.3067 218.659 52.7533 218.413 52.1C218.173 51.44 218.053 50.69 218.053 49.85C218.053 49.0967 218.159 48.4 218.373 47.76C218.593 47.1133 218.913 46.5567 219.333 46.09C219.753 45.6167 220.273 45.2467 220.893 44.98C221.513 44.7133 222.226 44.58 223.033 44.58C223.799 44.58 224.469 44.7033 225.043 44.95C225.623 45.1967 226.143 45.55 226.603 46.01L225.953 46.91ZM237.091 44.74V55H235.581C235.255 55 235.048 54.85 234.961 54.55L234.791 53.73C234.371 54.1567 233.908 54.5033 233.401 54.77C232.895 55.03 232.298 55.16 231.611 55.16C231.051 55.16 230.555 55.0667 230.121 54.88C229.695 54.6867 229.335 54.4167 229.041 54.07C228.748 53.7233 228.525 53.3133 228.371 52.84C228.225 52.36 228.151 51.8333 228.151 51.26V44.74H230.621V51.26C230.621 51.8867 230.765 52.3733 231.051 52.72C231.345 53.06 231.781 53.23 232.361 53.23C232.788 53.23 233.188 53.1367 233.561 52.95C233.935 52.7567 234.288 52.4933 234.621 52.16V44.74H237.091ZM245.8 46.74C245.734 46.8467 245.664 46.9233 245.59 46.97C245.517 47.01 245.424 47.03 245.31 47.03C245.19 47.03 245.06 46.9967 244.92 46.93C244.787 46.8633 244.63 46.79 244.45 46.71C244.27 46.6233 244.064 46.5467 243.83 46.48C243.604 46.4133 243.334 46.38 243.02 46.38C242.534 46.38 242.15 46.4833 241.87 46.69C241.597 46.8967 241.46 47.1667 241.46 47.5C241.46 47.72 241.53 47.9067 241.67 48.06C241.817 48.2067 242.007 48.3367 242.24 48.45C242.48 48.5633 242.75 48.6667 243.05 48.76C243.35 48.8467 243.654 48.9433 243.96 49.05C244.274 49.1567 244.58 49.28 244.88 49.42C245.18 49.5533 245.447 49.7267 245.68 49.94C245.92 50.1467 246.11 50.3967 246.25 50.69C246.397 50.9833 246.47 51.3367 246.47 51.75C246.47 52.2433 246.38 52.7 246.2 53.12C246.027 53.5333 245.767 53.8933 245.42 54.2C245.074 54.5 244.644 54.7367 244.13 54.91C243.624 55.0767 243.037 55.16 242.37 55.16C242.017 55.16 241.67 55.1267 241.33 55.06C240.997 55 240.674 54.9133 240.36 54.8C240.054 54.6867 239.767 54.5533 239.5 54.4C239.24 54.2467 239.01 54.08 238.81 53.9L239.38 52.96C239.454 52.8467 239.54 52.76 239.64 52.7C239.74 52.64 239.867 52.61 240.02 52.61C240.174 52.61 240.317 52.6533 240.45 52.74C240.59 52.8267 240.75 52.92 240.93 53.02C241.11 53.12 241.32 53.2133 241.56 53.3C241.807 53.3867 242.117 53.43 242.49 53.43C242.784 53.43 243.034 53.3967 243.24 53.33C243.454 53.2567 243.627 53.1633 243.76 53.05C243.9 52.9367 244 52.8067 244.06 52.66C244.127 52.5067 244.16 52.35 244.16 52.19C244.16 51.95 244.087 51.7533 243.94 51.6C243.8 51.4467 243.61 51.3133 243.37 51.2C243.137 51.0867 242.867 50.9867 242.56 50.9C242.26 50.8067 241.95 50.7067 241.63 50.6C241.317 50.4933 241.007 50.37 240.7 50.23C240.4 50.0833 240.13 49.9 239.89 49.68C239.657 49.46 239.467 49.19 239.32 48.87C239.18 48.55 239.11 48.1633 239.11 47.71C239.11 47.29 239.194 46.89 239.36 46.51C239.527 46.13 239.77 45.8 240.09 45.52C240.417 45.2333 240.82 45.0067 241.3 44.84C241.787 44.6667 242.347 44.58 242.98 44.58C243.687 44.58 244.33 44.6967 244.91 44.93C245.49 45.1633 245.974 45.47 246.36 45.85L245.8 46.74ZM254.939 48.69C254.939 48.37 254.893 48.07 254.799 47.79C254.713 47.5033 254.579 47.2533 254.399 47.04C254.219 46.8267 253.989 46.66 253.709 46.54C253.436 46.4133 253.116 46.35 252.749 46.35C252.036 46.35 251.473 46.5533 251.059 46.96C250.653 47.3667 250.393 47.9433 250.279 48.69H254.939ZM250.229 50.18C250.269 50.7067 250.363 51.1633 250.509 51.55C250.656 51.93 250.849 52.2467 251.089 52.5C251.329 52.7467 251.613 52.9333 251.939 53.06C252.273 53.18 252.639 53.24 253.039 53.24C253.439 53.24 253.783 53.1933 254.069 53.1C254.363 53.0067 254.616 52.9033 254.829 52.79C255.049 52.6767 255.239 52.5733 255.399 52.48C255.566 52.3867 255.726 52.34 255.879 52.34C256.086 52.34 256.239 52.4167 256.339 52.57L257.049 53.47C256.776 53.79 256.469 54.06 256.129 54.28C255.789 54.4933 255.433 54.6667 255.059 54.8C254.693 54.9267 254.316 55.0167 253.929 55.07C253.549 55.1233 253.179 55.15 252.819 55.15C252.106 55.15 251.443 55.0333 250.829 54.8C250.216 54.56 249.683 54.21 249.229 53.75C248.776 53.2833 248.419 52.71 248.159 52.03C247.899 51.3433 247.769 50.55 247.769 49.65C247.769 48.95 247.883 48.2933 248.109 47.68C248.336 47.06 248.659 46.5233 249.079 46.07C249.506 45.61 250.023 45.2467 250.629 44.98C251.243 44.7133 251.933 44.58 252.699 44.58C253.346 44.58 253.943 44.6833 254.489 44.89C255.036 45.0967 255.506 45.4 255.899 45.8C256.293 46.1933 256.599 46.68 256.819 47.26C257.046 47.8333 257.159 48.49 257.159 49.23C257.159 49.6033 257.119 49.8567 257.039 49.99C256.959 50.1167 256.806 50.18 256.579 50.18H250.229ZM265.453 47.36C265.173 47.02 264.866 46.78 264.533 46.64C264.206 46.5 263.853 46.43 263.473 46.43C263.1 46.43 262.763 46.5 262.463 46.64C262.163 46.78 261.906 46.9933 261.693 47.28C261.48 47.56 261.316 47.92 261.203 48.36C261.09 48.7933 261.033 49.3067 261.033 49.9C261.033 50.5 261.08 51.01 261.173 51.43C261.273 51.8433 261.413 52.1833 261.593 52.45C261.773 52.71 261.993 52.9 262.253 53.02C262.513 53.1333 262.803 53.19 263.123 53.19C263.636 53.19 264.073 53.0833 264.433 52.87C264.793 52.6567 265.133 52.3533 265.453 51.96V47.36ZM267.923 40.14V55H266.413C266.086 55 265.88 54.85 265.793 54.55L265.583 53.56C265.17 54.0333 264.693 54.4167 264.153 54.71C263.62 55.0033 262.996 55.15 262.283 55.15C261.723 55.15 261.21 55.0333 260.743 54.8C260.276 54.5667 259.873 54.23 259.533 53.79C259.2 53.3433 258.94 52.7933 258.753 52.14C258.573 51.4867 258.483 50.74 258.483 49.9C258.483 49.14 258.586 48.4333 258.793 47.78C259 47.1267 259.296 46.56 259.683 46.08C260.07 45.6 260.533 45.2267 261.073 44.96C261.613 44.6867 262.22 44.55 262.893 44.55C263.466 44.55 263.956 44.64 264.363 44.82C264.77 45 265.133 45.2433 265.453 45.55V40.14H267.923Z" fill="#6C7380"/>
<path d="M75 56.1478L66.6666 51.1478V42.8145L75 47.8144V56.1478Z" fill="url(#paint0_linear)"/>
<path d="M74.9996 56.1478L83.3329 51.1478V42.8145L74.9996 47.8144V56.1478Z" fill="url(#paint1_linear)"/>
<path d="M66.6666 42.8144L75 37.8145L83.3333 42.8144L75 47.8144L66.6666 42.8144Z" fill="url(#paint2_linear)"/>
<path d="M74.3331 34.9997L71.8331 31.6664L73.1664 30.6664L74.1664 31.9997V25.333H75.8331V31.9997L76.8331 30.6664L78.1664 31.6664L75.6664 34.9997C75.363 35.368 74.8197 35.4205 74.4513 35.118C74.4081 35.0822 74.3689 35.043 74.3331 34.9997Z" fill="#FF6BC1"/>
<path d="M75.8331 23.666H74.1664V21.9993H75.8331V23.666Z" fill="#FF6BC1"/>
<path d="M75.8331 61.9818V68.6484H74.1664V61.9818L73.1664 63.3151L71.8331 62.3151L74.3331 58.9818C74.609 58.6134 75.1315 58.5393 75.4998 58.8151C75.5632 58.8625 75.619 58.9184 75.6665 58.9818L78.1665 62.3151L76.8332 63.3151L75.8331 61.9818Z" fill="#FF6BC1"/>
<path d="M75.8331 71.9814H74.1664V70.3148H75.8331V71.9814Z" fill="#FF6BC1"/>
<path d="M53.3335 47.8144V46.1477H60.0001L58.6668 45.1478L59.6668 43.8145L63.0001 46.3144C63.3685 46.5903 63.4426 47.1128 63.1668 47.4811C63.1194 47.5445 63.0635 47.6003 63.0001 47.6478L59.6668 50.1478L58.6668 48.8145L60.0001 47.8145H53.3335V47.8144Z" fill="#FF6BC1"/>
<path d="M51.6667 46.1484H50V47.8151H51.6667V46.1484Z" fill="#FF6BC1"/>
<path d="M87.0005 46.3144L90.3338 43.8145L91.3338 45.1478L90.0005 46.1477H96.6671V47.8144H90.0004L91.3337 48.8144L90.3337 50.1477L87.0004 47.6477C86.632 47.3719 86.5579 46.8494 86.8337 46.481C86.8812 46.4178 86.9371 46.362 87.0005 46.3144Z" fill="#FF6BC1"/>
<path d="M98.3336 46.1484H100V47.8151H98.3336V46.1484Z" fill="#FF6BC1"/>
<path d="M65.0853 34.4789L65.3203 36.128L60.6069 31.4146L59.4286 32.5929L64.1419 37.3063L62.4928 37.0714L62.257 38.7213L66.3811 39.3122C66.8361 39.3796 67.2603 39.0655 67.3278 38.6105C67.3394 38.5296 67.3394 38.4471 67.3278 38.3655L66.7386 34.2414L65.0853 34.4789Z" fill="#FF6BC1"/>
<path d="M58.2531 29.0559L57.0746 30.2344L58.2531 31.4129L59.4316 30.2344L58.2531 29.0559Z" fill="#FF6BC1"/>
<path d="M84.9099 59.4797L84.6749 57.8306L89.3883 62.5439L90.5666 61.3656L85.8532 56.6523L87.5007 56.8889L87.7365 55.2389L83.6124 54.6497C83.5732 54.6439 83.5341 54.6414 83.494 54.6414C83.0341 54.6414 82.6607 55.0148 82.6607 55.4747C82.6607 55.5148 82.6633 55.5539 82.669 55.5931L83.2582 59.7172L84.9099 59.4797Z" fill="#FF6BC1"/>
<path d="M91.7444 62.5461L90.5659 63.7246L91.7444 64.9031L92.923 63.7246L91.7444 62.5461Z" fill="#FF6BC1"/>
<path d="M60.6157 62.5459L65.329 57.8325L65.094 59.4816L66.744 59.7176L67.3365 55.5935C67.4015 55.1376 67.0856 54.7159 66.6298 54.6501C66.5907 54.6443 66.5506 54.6418 66.5115 54.6418C66.4714 54.6418 66.4323 54.6444 66.3931 54.6501L62.269 55.2393L62.5049 56.8893L64.154 56.6543L59.4406 61.3677L60.6157 62.5459Z" fill="#FF6BC1"/>
<path d="M58.253 62.5461L57.0745 63.7246L58.253 64.9031L59.4315 63.7246L58.253 62.5461Z" fill="#FF6BC1"/>
<path d="M89.3867 31.4149L84.6733 36.1283L84.9083 34.4808L83.2583 34.245L82.6691 38.3691C82.6316 38.6291 82.7191 38.8908 82.905 39.0766C83.0899 39.2632 83.3524 39.3507 83.6125 39.3125L87.7366 38.7233L87.5008 37.0733L85.8516 37.3083L90.565 32.5949L89.3867 31.4149Z" fill="#FF6BC1"/>
<path d="M91.7429 29.0578L90.5643 30.2363L91.7429 31.4148L92.9214 30.2363L91.7429 29.0578Z" fill="#FF6BC1"/>
<g filter="url(#filter1_d)">
<rect x="380" y="7" width="300" height="80" rx="5" fill="white"/>
</g>
<path d="M497.31 47.81C497.803 47.81 498.233 47.75 498.6 47.63C498.967 47.5033 499.27 47.3267 499.51 47.1C499.757 46.8667 499.94 46.5867 500.06 46.26C500.18 45.9267 500.24 45.5567 500.24 45.15C500.24 44.7633 500.18 44.4133 500.06 44.1C499.94 43.7867 499.76 43.52 499.52 43.3C499.28 43.08 498.977 42.9133 498.61 42.8C498.243 42.68 497.81 42.62 497.31 42.62H495.3V47.81H497.31ZM497.31 40.54C498.277 40.54 499.113 40.6533 499.82 40.88C500.527 41.1067 501.11 41.4233 501.57 41.83C502.03 42.2367 502.37 42.7233 502.59 43.29C502.817 43.8567 502.93 44.4767 502.93 45.15C502.93 45.85 502.813 46.4933 502.58 47.08C502.347 47.66 501.997 48.16 501.53 48.58C501.063 49 500.477 49.3267 499.77 49.56C499.07 49.7933 498.25 49.91 497.31 49.91H495.3V55H492.61V40.54H497.31ZM509.71 50.62C508.997 50.6533 508.397 50.7167 507.91 50.81C507.424 50.8967 507.034 51.01 506.74 51.15C506.447 51.29 506.237 51.4533 506.11 51.64C505.984 51.8267 505.92 52.03 505.92 52.25C505.92 52.6833 506.047 52.9933 506.3 53.18C506.56 53.3667 506.897 53.46 507.31 53.46C507.817 53.46 508.254 53.37 508.62 53.19C508.994 53.0033 509.357 52.7233 509.71 52.35V50.62ZM504.05 46.17C505.23 45.09 506.65 44.55 508.31 44.55C508.91 44.55 509.447 44.65 509.92 44.85C510.394 45.0433 510.794 45.3167 511.12 45.67C511.447 46.0167 511.694 46.4333 511.86 46.92C512.034 47.4067 512.12 47.94 512.12 48.52V55H511C510.767 55 510.587 54.9667 510.46 54.9C510.334 54.8267 510.234 54.6833 510.16 54.47L509.94 53.73C509.68 53.9633 509.427 54.17 509.18 54.35C508.934 54.5233 508.677 54.67 508.41 54.79C508.144 54.91 507.857 55 507.55 55.06C507.25 55.1267 506.917 55.16 506.55 55.16C506.117 55.16 505.717 55.1033 505.35 54.99C504.984 54.87 504.667 54.6933 504.4 54.46C504.134 54.2267 503.927 53.9367 503.78 53.59C503.634 53.2433 503.56 52.84 503.56 52.38C503.56 52.12 503.604 51.8633 503.69 51.61C503.777 51.35 503.917 51.1033 504.11 50.87C504.31 50.6367 504.567 50.4167 504.88 50.21C505.194 50.0033 505.577 49.8233 506.03 49.67C506.49 49.5167 507.024 49.3933 507.63 49.3C508.237 49.2 508.93 49.14 509.71 49.12V48.52C509.71 47.8333 509.564 47.3267 509.27 47C508.977 46.6667 508.554 46.5 508 46.5C507.6 46.5 507.267 46.5467 507 46.64C506.74 46.7333 506.51 46.84 506.31 46.96C506.11 47.0733 505.927 47.1767 505.76 47.27C505.6 47.3633 505.42 47.41 505.22 47.41C505.047 47.41 504.9 47.3667 504.78 47.28C504.66 47.1867 504.564 47.08 504.49 46.96L504.05 46.17ZM520.707 46.74C520.64 46.8467 520.57 46.9233 520.497 46.97C520.423 47.01 520.33 47.03 520.217 47.03C520.097 47.03 519.967 46.9967 519.827 46.93C519.693 46.8633 519.537 46.79 519.357 46.71C519.177 46.6233 518.97 46.5467 518.737 46.48C518.51 46.4133 518.24 46.38 517.927 46.38C517.44 46.38 517.057 46.4833 516.777 46.69C516.503 46.8967 516.367 47.1667 516.367 47.5C516.367 47.72 516.437 47.9067 516.577 48.06C516.723 48.2067 516.913 48.3367 517.147 48.45C517.387 48.5633 517.657 48.6667 517.957 48.76C518.257 48.8467 518.56 48.9433 518.867 49.05C519.18 49.1567 519.487 49.28 519.787 49.42C520.087 49.5533 520.353 49.7267 520.587 49.94C520.827 50.1467 521.017 50.3967 521.157 50.69C521.303 50.9833 521.377 51.3367 521.377 51.75C521.377 52.2433 521.287 52.7 521.107 53.12C520.933 53.5333 520.673 53.8933 520.327 54.2C519.98 54.5 519.55 54.7367 519.037 54.91C518.53 55.0767 517.943 55.16 517.277 55.16C516.923 55.16 516.577 55.1267 516.237 55.06C515.903 55 515.58 54.9133 515.267 54.8C514.96 54.6867 514.673 54.5533 514.407 54.4C514.147 54.2467 513.917 54.08 513.717 53.9L514.287 52.96C514.36 52.8467 514.447 52.76 514.547 52.7C514.647 52.64 514.773 52.61 514.927 52.61C515.08 52.61 515.223 52.6533 515.357 52.74C515.497 52.8267 515.657 52.92 515.837 53.02C516.017 53.12 516.227 53.2133 516.467 53.3C516.713 53.3867 517.023 53.43 517.397 53.43C517.69 53.43 517.94 53.3967 518.147 53.33C518.36 53.2567 518.533 53.1633 518.667 53.05C518.807 52.9367 518.907 52.8067 518.967 52.66C519.033 52.5067 519.067 52.35 519.067 52.19C519.067 51.95 518.993 51.7533 518.847 51.6C518.707 51.4467 518.517 51.3133 518.277 51.2C518.043 51.0867 517.773 50.9867 517.467 50.9C517.167 50.8067 516.857 50.7067 516.537 50.6C516.223 50.4933 515.913 50.37 515.607 50.23C515.307 50.0833 515.037 49.9 514.797 49.68C514.563 49.46 514.373 49.19 514.227 48.87C514.087 48.55 514.017 48.1633 514.017 47.71C514.017 47.29 514.1 46.89 514.267 46.51C514.433 46.13 514.677 45.8 514.997 45.52C515.323 45.2333 515.727 45.0067 516.207 44.84C516.693 44.6667 517.253 44.58 517.887 44.58C518.593 44.58 519.237 44.6967 519.817 44.93C520.397 45.1633 520.88 45.47 521.267 45.85L520.707 46.74ZM529.496 46.74C529.429 46.8467 529.359 46.9233 529.286 46.97C529.212 47.01 529.119 47.03 529.006 47.03C528.886 47.03 528.756 46.9967 528.616 46.93C528.482 46.8633 528.326 46.79 528.146 46.71C527.966 46.6233 527.759 46.5467 527.526 46.48C527.299 46.4133 527.029 46.38 526.716 46.38C526.229 46.38 525.846 46.4833 525.566 46.69C525.292 46.8967 525.156 47.1667 525.156 47.5C525.156 47.72 525.226 47.9067 525.366 48.06C525.512 48.2067 525.702 48.3367 525.936 48.45C526.176 48.5633 526.446 48.6667 526.746 48.76C527.046 48.8467 527.349 48.9433 527.656 49.05C527.969 49.1567 528.276 49.28 528.576 49.42C528.876 49.5533 529.142 49.7267 529.376 49.94C529.616 50.1467 529.806 50.3967 529.946 50.69C530.092 50.9833 530.166 51.3367 530.166 51.75C530.166 52.2433 530.076 52.7 529.896 53.12C529.722 53.5333 529.462 53.8933 529.116 54.2C528.769 54.5 528.339 54.7367 527.826 54.91C527.319 55.0767 526.732 55.16 526.066 55.16C525.712 55.16 525.366 55.1267 525.026 55.06C524.692 55 524.369 54.9133 524.056 54.8C523.749 54.6867 523.462 54.5533 523.196 54.4C522.936 54.2467 522.706 54.08 522.506 53.9L523.076 52.96C523.149 52.8467 523.236 52.76 523.336 52.7C523.436 52.64 523.562 52.61 523.716 52.61C523.869 52.61 524.012 52.6533 524.146 52.74C524.286 52.8267 524.446 52.92 524.626 53.02C524.806 53.12 525.016 53.2133 525.256 53.3C525.502 53.3867 525.812 53.43 526.186 53.43C526.479 53.43 526.729 53.3967 526.936 53.33C527.149 53.2567 527.322 53.1633 527.456 53.05C527.596 52.9367 527.696 52.8067 527.756 52.66C527.822 52.5067 527.856 52.35 527.856 52.19C527.856 51.95 527.782 51.7533 527.636 51.6C527.496 51.4467 527.306 51.3133 527.066 51.2C526.832 51.0867 526.562 50.9867 526.256 50.9C525.956 50.8067 525.646 50.7067 525.326 50.6C525.012 50.4933 524.702 50.37 524.396 50.23C524.096 50.0833 523.826 49.9 523.586 49.68C523.352 49.46 523.162 49.19 523.016 48.87C522.876 48.55 522.806 48.1633 522.806 47.71C522.806 47.29 522.889 46.89 523.056 46.51C523.222 46.13 523.466 45.8 523.786 45.52C524.112 45.2333 524.516 45.0067 524.996 44.84C525.482 44.6667 526.042 44.58 526.676 44.58C527.382 44.58 528.026 44.6967 528.606 44.93C529.186 45.1633 529.669 45.47 530.056 45.85L529.496 46.74ZM534.585 44.74V55H532.105V44.74H534.585ZM534.925 41.75C534.925 41.9633 534.881 42.1633 534.795 42.35C534.708 42.5367 534.591 42.7 534.445 42.84C534.305 42.98 534.138 43.0933 533.945 43.18C533.751 43.26 533.545 43.3 533.325 43.3C533.111 43.3 532.908 43.26 532.715 43.18C532.528 43.0933 532.365 42.98 532.225 42.84C532.085 42.7 531.971 42.5367 531.885 42.35C531.805 42.1633 531.765 41.9633 531.765 41.75C531.765 41.53 531.805 41.3233 531.885 41.13C531.971 40.9367 532.085 40.77 532.225 40.63C532.365 40.49 532.528 40.38 532.715 40.3C532.908 40.2133 533.111 40.17 533.325 40.17C533.545 40.17 533.751 40.2133 533.945 40.3C534.138 40.38 534.305 40.49 534.445 40.63C534.591 40.77 534.708 40.9367 534.795 41.13C534.881 41.3233 534.925 41.53 534.925 41.75ZM541.643 44.58C542.403 44.58 543.093 44.7033 543.713 44.95C544.339 45.1967 544.873 45.5467 545.313 46C545.759 46.4533 546.103 47.0067 546.343 47.66C546.583 48.3133 546.703 49.0433 546.703 49.85C546.703 50.6633 546.583 51.3967 546.343 52.05C546.103 52.7033 545.759 53.26 545.313 53.72C544.873 54.18 544.339 54.5333 543.713 54.78C543.093 55.0267 542.403 55.15 541.643 55.15C540.876 55.15 540.179 55.0267 539.553 54.78C538.926 54.5333 538.389 54.18 537.943 53.72C537.503 53.26 537.159 52.7033 536.913 52.05C536.673 51.3967 536.553 50.6633 536.553 49.85C536.553 49.0433 536.673 48.3133 536.913 47.66C537.159 47.0067 537.503 46.4533 537.943 46C538.389 45.5467 538.926 45.1967 539.553 44.95C540.179 44.7033 540.876 44.58 541.643 44.58ZM541.643 53.25C542.496 53.25 543.126 52.9633 543.533 52.39C543.946 51.8167 544.153 50.9767 544.153 49.87C544.153 48.7633 543.946 47.92 543.533 47.34C543.126 46.76 542.496 46.47 541.643 46.47C540.776 46.47 540.133 46.7633 539.713 47.35C539.299 47.93 539.093 48.77 539.093 49.87C539.093 50.97 539.299 51.81 539.713 52.39C540.133 52.9633 540.776 53.25 541.643 53.25ZM550.897 46C551.104 45.7933 551.321 45.6033 551.547 45.43C551.781 45.25 552.024 45.1 552.277 44.98C552.537 44.8533 552.814 44.7567 553.107 44.69C553.401 44.6167 553.721 44.58 554.067 44.58C554.627 44.58 555.124 44.6767 555.557 44.87C555.991 45.0567 556.351 45.3233 556.637 45.67C556.931 46.01 557.151 46.42 557.297 46.9C557.451 47.3733 557.527 47.8967 557.527 48.47V55H555.057V48.47C555.057 47.8433 554.914 47.36 554.627 47.02C554.341 46.6733 553.904 46.5 553.317 46.5C552.891 46.5 552.491 46.5967 552.117 46.79C551.744 46.9833 551.391 47.2467 551.057 47.58V55H548.587V44.74H550.097C550.417 44.74 550.627 44.89 550.727 45.19L550.897 46ZM565.46 55V46.6L564.57 46.46C564.376 46.42 564.22 46.3533 564.1 46.26C563.986 46.16 563.93 46.02 563.93 45.84V44.83H565.46V44.07C565.46 43.4833 565.546 42.9567 565.72 42.49C565.9 42.0233 566.153 41.6267 566.48 41.3C566.813 40.9733 567.216 40.7233 567.69 40.55C568.163 40.3767 568.696 40.29 569.29 40.29C569.763 40.29 570.203 40.3533 570.61 40.48L570.56 41.72C570.553 41.8133 570.526 41.89 570.48 41.95C570.433 42.0033 570.37 42.0467 570.29 42.08C570.216 42.1067 570.13 42.1267 570.03 42.14C569.93 42.1467 569.823 42.15 569.71 42.15C569.416 42.15 569.153 42.1833 568.92 42.25C568.693 42.31 568.5 42.42 568.34 42.58C568.18 42.7333 568.056 42.94 567.97 43.2C567.89 43.4533 567.85 43.77 567.85 44.15V44.83H570.52V46.59H567.93V55H565.46ZM576.174 44.58C576.934 44.58 577.624 44.7033 578.244 44.95C578.871 45.1967 579.404 45.5467 579.844 46C580.291 46.4533 580.634 47.0067 580.874 47.66C581.114 48.3133 581.234 49.0433 581.234 49.85C581.234 50.6633 581.114 51.3967 580.874 52.05C580.634 52.7033 580.291 53.26 579.844 53.72C579.404 54.18 578.871 54.5333 578.244 54.78C577.624 55.0267 576.934 55.15 576.174 55.15C575.407 55.15 574.711 55.0267 574.084 54.78C573.457 54.5333 572.921 54.18 572.474 53.72C572.034 53.26 571.691 52.7033 571.444 52.05C571.204 51.3967 571.084 50.6633 571.084 49.85C571.084 49.0433 571.204 48.3133 571.444 47.66C571.691 47.0067 572.034 46.4533 572.474 46C572.921 45.5467 573.457 45.1967 574.084 44.95C574.711 44.7033 575.407 44.58 576.174 44.58ZM576.174 53.25C577.027 53.25 577.657 52.9633 578.064 52.39C578.477 51.8167 578.684 50.9767 578.684 49.87C578.684 48.7633 578.477 47.92 578.064 47.34C577.657 46.76 577.027 46.47 576.174 46.47C575.307 46.47 574.664 46.7633 574.244 47.35C573.831 47.93 573.624 48.77 573.624 49.87C573.624 50.97 573.831 51.81 574.244 52.39C574.664 52.9633 575.307 53.25 576.174 53.25ZM585.448 46.52C585.768 45.9067 586.148 45.4267 586.588 45.08C587.028 44.7267 587.548 44.55 588.148 44.55C588.622 44.55 589.002 44.6533 589.288 44.86L589.128 46.71C589.095 46.83 589.045 46.9167 588.978 46.97C588.918 47.0167 588.835 47.04 588.728 47.04C588.628 47.04 588.478 47.0233 588.278 46.99C588.085 46.9567 587.895 46.94 587.708 46.94C587.435 46.94 587.192 46.98 586.978 47.06C586.765 47.14 586.572 47.2567 586.398 47.41C586.232 47.5567 586.082 47.7367 585.948 47.95C585.822 48.1633 585.702 48.4067 585.588 48.68V55H583.118V44.74H584.568C584.822 44.74 584.998 44.7867 585.098 44.88C585.198 44.9667 585.265 45.1267 585.298 45.36L585.448 46.52ZM604.898 42.75H600.538V55H597.848V42.75H593.488V40.54H604.898V42.75ZM610.607 48.69C610.607 48.37 610.561 48.07 610.467 47.79C610.381 47.5033 610.247 47.2533 610.067 47.04C609.887 46.8267 609.657 46.66 609.377 46.54C609.104 46.4133 608.784 46.35 608.417 46.35C607.704 46.35 607.141 46.5533 606.727 46.96C606.321 47.3667 606.061 47.9433 605.947 48.69H610.607ZM605.897 50.18C605.937 50.7067 606.031 51.1633 606.177 51.55C606.324 51.93 606.517 52.2467 606.757 52.5C606.997 52.7467 607.281 52.9333 607.607 53.06C607.941 53.18 608.307 53.24 608.707 53.24C609.107 53.24 609.451 53.1933 609.737 53.1C610.031 53.0067 610.284 52.9033 610.497 52.79C610.717 52.6767 610.907 52.5733 611.067 52.48C611.234 52.3867 611.394 52.34 611.547 52.34C611.754 52.34 611.907 52.4167 612.007 52.57L612.717 53.47C612.444 53.79 612.137 54.06 611.797 54.28C611.457 54.4933 611.101 54.6667 610.727 54.8C610.361 54.9267 609.984 55.0167 609.597 55.07C609.217 55.1233 608.847 55.15 608.487 55.15C607.774 55.15 607.111 55.0333 606.497 54.8C605.884 54.56 605.351 54.21 604.897 53.75C604.444 53.2833 604.087 52.71 603.827 52.03C603.567 51.3433 603.437 50.55 603.437 49.65C603.437 48.95 603.551 48.2933 603.777 47.68C604.004 47.06 604.327 46.5233 604.747 46.07C605.174 45.61 605.691 45.2467 606.297 44.98C606.911 44.7133 607.601 44.58 608.367 44.58C609.014 44.58 609.611 44.6833 610.157 44.89C610.704 45.0967 611.174 45.4 611.567 45.8C611.961 46.1933 612.267 46.68 612.487 47.26C612.714 47.8333 612.827 48.49 612.827 49.23C612.827 49.6033 612.787 49.8567 612.707 49.99C612.627 50.1167 612.474 50.18 612.247 50.18H605.897ZM622.031 46.91C621.958 47.0033 621.884 47.0767 621.811 47.13C621.744 47.1833 621.644 47.21 621.511 47.21C621.384 47.21 621.261 47.1733 621.141 47.1C621.021 47.02 620.878 46.9333 620.711 46.84C620.544 46.74 620.344 46.6533 620.111 46.58C619.884 46.5 619.601 46.46 619.261 46.46C618.828 46.46 618.448 46.54 618.121 46.7C617.794 46.8533 617.521 47.0767 617.301 47.37C617.088 47.6633 616.928 48.02 616.821 48.44C616.714 48.8533 616.661 49.3233 616.661 49.85C616.661 50.3967 616.718 50.8833 616.831 51.31C616.951 51.7367 617.121 52.0967 617.341 52.39C617.561 52.6767 617.828 52.8967 618.141 53.05C618.454 53.1967 618.808 53.27 619.201 53.27C619.594 53.27 619.911 53.2233 620.151 53.13C620.398 53.03 620.604 52.9233 620.771 52.81C620.938 52.69 621.081 52.5833 621.201 52.49C621.328 52.39 621.468 52.34 621.621 52.34C621.821 52.34 621.971 52.4167 622.071 52.57L622.781 53.47C622.508 53.79 622.211 54.06 621.891 54.28C621.571 54.4933 621.238 54.6667 620.891 54.8C620.551 54.9267 620.198 55.0167 619.831 55.07C619.471 55.1233 619.111 55.15 618.751 55.15C618.118 55.15 617.521 55.0333 616.961 54.8C616.401 54.56 615.911 54.2133 615.491 53.76C615.071 53.3067 614.738 52.7533 614.491 52.1C614.251 51.44 614.131 50.69 614.131 49.85C614.131 49.0967 614.238 48.4 614.451 47.76C614.671 47.1133 614.991 46.5567 615.411 46.09C615.831 45.6167 616.351 45.2467 616.971 44.98C617.591 44.7133 618.304 44.58 619.111 44.58C619.878 44.58 620.548 44.7033 621.121 44.95C621.701 45.1967 622.221 45.55 622.681 46.01L622.031 46.91ZM626.799 45.84C627.199 45.4667 627.639 45.1633 628.119 44.93C628.599 44.6967 629.163 44.58 629.809 44.58C630.369 44.58 630.866 44.6767 631.299 44.87C631.733 45.0567 632.093 45.3233 632.379 45.67C632.673 46.01 632.893 46.42 633.039 46.9C633.193 47.3733 633.269 47.8967 633.269 48.47V55H630.799V48.47C630.799 47.8433 630.656 47.36 630.369 47.02C630.083 46.6733 629.646 46.5 629.059 46.5C628.633 46.5 628.233 46.5967 627.859 46.79C627.486 46.9833 627.133 47.2467 626.799 47.58V55H624.329V40.14H626.799V45.84Z" fill="#6C7380"/>
<path d="M454.748 67.8033L452.602 60.291H443.96L441.814 67.8033H454.748Z" fill="url(#paint3_linear)"/>
<path d="M431.367 26H465.102C468.067 26 470.469 28.4029 470.469 31.367V55.9019C470.469 58.866 468.067 61.2689 465.102 61.2689H431.367C428.403 61.2689 426 58.866 426 55.9019V31.367C426 28.4029 428.403 26 431.367 26Z" fill="url(#paint4_linear)"/>
<path d="M430.788 28.7793H465.586C466.96 28.7793 468.074 29.8325 468.074 31.1317V52.3035C468.074 53.6027 466.96 54.6559 465.586 54.6559H430.788C429.414 54.6559 428.3 53.6027 428.3 52.3035V31.1317C428.3 29.8325 429.414 28.7793 430.788 28.7793Z" fill="white"/>
<path d="M447.468 58.2023C447.468 58.6257 447.811 58.969 448.235 58.969C448.658 58.969 449.001 58.6257 449.001 58.2023C449.001 57.7788 448.658 57.4355 448.235 57.4355C447.811 57.4355 447.468 57.7788 447.468 58.2023Z" fill="#CFD6E0"/>
<path d="M460.502 47.4678H458.202C457.778 47.4678 457.435 47.811 457.435 48.2345C457.435 48.6579 457.778 49.0012 458.202 49.0012H460.502C460.925 49.0012 461.269 48.6579 461.269 48.2345C461.269 47.811 460.925 47.4678 460.502 47.4678Z" fill="#60A6FA"/>
<path d="M462.802 50.5352H458.202C457.778 50.5352 457.435 50.8784 457.435 51.3019C457.435 51.7253 457.778 52.0686 458.202 52.0686H462.802C463.226 52.0686 463.569 51.7253 463.569 51.3019C463.569 50.8784 463.226 50.5352 462.802 50.5352Z" fill="#60A6FA"/>
<path d="M435.967 47.4678H433.667C433.244 47.4678 432.901 47.811 432.901 48.2345C432.901 48.6579 433.244 49.0012 433.667 49.0012H435.967C436.391 49.0012 436.734 48.6579 436.734 48.2345C436.734 47.811 436.391 47.4678 435.967 47.4678Z" fill="#60A6FA"/>
<path d="M438.268 50.5352H433.667C433.244 50.5352 432.901 50.8784 432.901 51.3019C432.901 51.7253 433.244 52.0686 433.667 52.0686H438.268C438.691 52.0686 439.034 51.7253 439.034 51.3019C439.034 50.8784 438.691 50.5352 438.268 50.5352Z" fill="#60A6FA"/>
<path d="M432.901 33.6671C432.901 34.0906 433.244 34.4338 433.667 34.4338C434.091 34.4338 434.434 34.0906 434.434 33.6671C434.434 33.2437 434.091 32.9004 433.667 32.9004C433.244 32.9004 432.901 33.2437 432.901 33.6671Z" fill="#60A6FA"/>
<path d="M437.501 32.9004H435.967V34.4338H437.501V32.9004Z" fill="#146CDE"/>
<path d="M458.969 33.6671C458.969 34.0906 459.312 34.4338 459.735 34.4338C460.159 34.4338 460.502 34.0906 460.502 33.6671C460.502 33.2437 460.159 32.9004 459.735 32.9004C459.312 32.9004 458.969 33.2437 458.969 33.6671Z" fill="#60A6FA"/>
<path d="M463.569 32.9004H462.036V34.4338H463.569V32.9004Z" fill="#146CDE"/>
<path d="M456.669 43.6343V40.5674H454.958C454.786 39.8106 454.486 39.0886 454.072 38.4321L455.283 37.2215L453.114 35.0532L451.904 36.2639C451.247 35.8496 450.525 35.5499 449.768 35.3775V33.667H446.702V35.3775C445.945 35.5499 445.223 35.8496 444.566 36.2639L443.356 35.0532L441.187 37.2215L442.398 38.4321C441.984 39.0886 441.684 39.8106 441.512 40.5674H439.801V43.6343H441.512C441.684 44.3911 441.984 45.1131 442.398 45.7696L441.187 46.9802L443.356 49.1485L444.566 47.9379C445.223 48.3521 445.945 48.6518 446.702 48.8242V50.5347H449.768V48.8242C450.525 48.6518 451.247 48.3521 451.904 47.9379L453.114 49.1485L455.283 46.9802L454.072 45.7696C454.486 45.1131 454.786 44.3911 454.958 43.6343H456.669ZM448.235 45.1677C446.541 45.1677 445.168 43.7946 445.168 42.1009C445.168 40.4071 446.541 39.034 448.235 39.034C449.929 39.034 451.302 40.4071 451.302 42.1009C451.302 43.7946 449.929 45.1677 448.235 45.1677Z" fill="#FF6BC1"/>
<g filter="url(#filter2_d)">
<rect x="750" y="7" width="300" height="80" rx="5" fill="white"/>
</g>
<path d="M871.817 47.42C872.324 47.42 872.764 47.3567 873.137 47.23C873.517 47.1033 873.827 46.93 874.067 46.71C874.314 46.4833 874.497 46.2167 874.617 45.91C874.737 45.6033 874.797 45.2667 874.797 44.9C874.797 44.1667 874.554 43.6033 874.067 43.21C873.587 42.8167 872.85 42.62 871.857 42.62H870.137V47.42H871.817ZM878.737 55H876.307C875.847 55 875.514 54.82 875.307 54.46L872.267 49.83C872.154 49.6567 872.027 49.5333 871.887 49.46C871.754 49.3867 871.554 49.35 871.287 49.35H870.137V55H867.447V40.54H871.857C872.837 40.54 873.677 40.6433 874.377 40.85C875.084 41.05 875.66 41.3333 876.107 41.7C876.56 42.0667 876.894 42.5067 877.107 43.02C877.32 43.5267 877.427 44.0867 877.427 44.7C877.427 45.1867 877.354 45.6467 877.207 46.08C877.067 46.5133 876.86 46.9067 876.587 47.26C876.32 47.6133 875.987 47.9233 875.587 48.19C875.194 48.4567 874.744 48.6667 874.237 48.82C874.41 48.92 874.57 49.04 874.717 49.18C874.864 49.3133 874.997 49.4733 875.117 49.66L878.737 55ZM885.854 48.69C885.854 48.37 885.808 48.07 885.714 47.79C885.628 47.5033 885.494 47.2533 885.314 47.04C885.134 46.8267 884.904 46.66 884.624 46.54C884.351 46.4133 884.031 46.35 883.664 46.35C882.951 46.35 882.388 46.5533 881.974 46.96C881.568 47.3667 881.308 47.9433 881.194 48.69H885.854ZM881.144 50.18C881.184 50.7067 881.278 51.1633 881.424 51.55C881.571 51.93 881.764 52.2467 882.004 52.5C882.244 52.7467 882.528 52.9333 882.854 53.06C883.188 53.18 883.554 53.24 883.954 53.24C884.354 53.24 884.698 53.1933 884.984 53.1C885.278 53.0067 885.531 52.9033 885.744 52.79C885.964 52.6767 886.154 52.5733 886.314 52.48C886.481 52.3867 886.641 52.34 886.794 52.34C887.001 52.34 887.154 52.4167 887.254 52.57L887.964 53.47C887.691 53.79 887.384 54.06 887.044 54.28C886.704 54.4933 886.348 54.6667 885.974 54.8C885.608 54.9267 885.231 55.0167 884.844 55.07C884.464 55.1233 884.094 55.15 883.734 55.15C883.021 55.15 882.358 55.0333 881.744 54.8C881.131 54.56 880.598 54.21 880.144 53.75C879.691 53.2833 879.334 52.71 879.074 52.03C878.814 51.3433 878.684 50.55 878.684 49.65C878.684 48.95 878.798 48.2933 879.024 47.68C879.251 47.06 879.574 46.5233 879.994 46.07C880.421 45.61 880.938 45.2467 881.544 44.98C882.158 44.7133 882.848 44.58 883.614 44.58C884.261 44.58 884.858 44.6833 885.404 44.89C885.951 45.0967 886.421 45.4 886.814 45.8C887.208 46.1933 887.514 46.68 887.734 47.26C887.961 47.8333 888.074 48.49 888.074 49.23C888.074 49.6033 888.034 49.8567 887.954 49.99C887.874 50.1167 887.721 50.18 887.494 50.18H881.144ZM889.928 55V44.74H891.438C891.758 44.74 891.968 44.89 892.068 45.19L892.228 45.95C892.408 45.75 892.595 45.5667 892.788 45.4C892.988 45.2333 893.198 45.09 893.418 44.97C893.645 44.85 893.885 44.7567 894.138 44.69C894.398 44.6167 894.681 44.58 894.988 44.58C895.635 44.58 896.165 44.7567 896.578 45.11C896.998 45.4567 897.311 45.92 897.518 46.5C897.678 46.16 897.878 45.87 898.118 45.63C898.358 45.3833 898.621 45.1833 898.908 45.03C899.195 44.8767 899.498 44.7633 899.818 44.69C900.145 44.6167 900.471 44.58 900.798 44.58C901.365 44.58 901.868 44.6667 902.308 44.84C902.748 45.0133 903.118 45.2667 903.418 45.6C903.718 45.9333 903.945 46.34 904.098 46.82C904.258 47.3 904.338 47.85 904.338 48.47V55H901.868V48.47C901.868 47.8167 901.725 47.3267 901.438 47C901.151 46.6667 900.731 46.5 900.178 46.5C899.925 46.5 899.688 46.5433 899.468 46.63C899.255 46.7167 899.065 46.8433 898.898 47.01C898.738 47.17 898.611 47.3733 898.518 47.62C898.425 47.8667 898.378 48.15 898.378 48.47V55H895.898V48.47C895.898 47.7833 895.758 47.2833 895.478 46.97C895.205 46.6567 894.801 46.5 894.268 46.5C893.908 46.5 893.571 46.59 893.258 46.77C892.951 46.9433 892.665 47.1833 892.398 47.49V55H889.928ZM911.226 44.58C911.986 44.58 912.676 44.7033 913.296 44.95C913.922 45.1967 914.456 45.5467 914.896 46C915.342 46.4533 915.686 47.0067 915.926 47.66C916.166 48.3133 916.286 49.0433 916.286 49.85C916.286 50.6633 916.166 51.3967 915.926 52.05C915.686 52.7033 915.342 53.26 914.896 53.72C914.456 54.18 913.922 54.5333 913.296 54.78C912.676 55.0267 911.986 55.15 911.226 55.15C910.459 55.15 909.762 55.0267 909.136 54.78C908.509 54.5333 907.972 54.18 907.526 53.72C907.086 53.26 906.742 52.7033 906.496 52.05C906.256 51.3967 906.136 50.6633 906.136 49.85C906.136 49.0433 906.256 48.3133 906.496 47.66C906.742 47.0067 907.086 46.4533 907.526 46C907.972 45.5467 908.509 45.1967 909.136 44.95C909.762 44.7033 910.459 44.58 911.226 44.58ZM911.226 53.25C912.079 53.25 912.709 52.9633 913.116 52.39C913.529 51.8167 913.736 50.9767 913.736 49.87C913.736 48.7633 913.529 47.92 913.116 47.34C912.709 46.76 912.079 46.47 911.226 46.47C910.359 46.47 909.716 46.7633 909.296 47.35C908.882 47.93 908.676 48.77 908.676 49.87C908.676 50.97 908.882 51.81 909.296 52.39C909.716 52.9633 910.359 53.25 911.226 53.25ZM921.395 55.16C920.502 55.16 919.815 54.91 919.335 54.41C918.862 53.9033 918.625 53.2067 918.625 52.32V46.59H917.575C917.442 46.59 917.328 46.5467 917.235 46.46C917.142 46.3733 917.095 46.2433 917.095 46.07V45.09L918.745 44.82L919.265 42.02C919.298 41.8867 919.362 41.7833 919.455 41.71C919.548 41.6367 919.668 41.6 919.815 41.6H921.095V44.83H923.835V46.59H921.095V52.15C921.095 52.47 921.172 52.72 921.325 52.9C921.485 53.08 921.702 53.17 921.975 53.17C922.128 53.17 922.255 53.1533 922.355 53.12C922.462 53.08 922.552 53.04 922.625 53C922.705 52.96 922.775 52.9233 922.835 52.89C922.895 52.85 922.955 52.83 923.015 52.83C923.088 52.83 923.148 52.85 923.195 52.89C923.242 52.9233 923.292 52.9767 923.345 53.05L924.085 54.25C923.725 54.55 923.312 54.7767 922.845 54.93C922.378 55.0833 921.895 55.16 921.395 55.16ZM931.948 48.69C931.948 48.37 931.901 48.07 931.808 47.79C931.721 47.5033 931.588 47.2533 931.408 47.04C931.228 46.8267 930.998 46.66 930.718 46.54C930.445 46.4133 930.125 46.35 929.758 46.35C929.045 46.35 928.481 46.5533 928.068 46.96C927.661 47.3667 927.401 47.9433 927.288 48.69H931.948ZM927.238 50.18C927.278 50.7067 927.371 51.1633 927.518 51.55C927.665 51.93 927.858 52.2467 928.098 52.5C928.338 52.7467 928.621 52.9333 928.948 53.06C929.281 53.18 929.648 53.24 930.048 53.24C930.448 53.24 930.791 53.1933 931.078 53.1C931.371 53.0067 931.625 52.9033 931.838 52.79C932.058 52.6767 932.248 52.5733 932.408 52.48C932.575 52.3867 932.735 52.34 932.888 52.34C933.095 52.34 933.248 52.4167 933.348 52.57L934.058 53.47C933.785 53.79 933.478 54.06 933.138 54.28C932.798 54.4933 932.441 54.6667 932.068 54.8C931.701 54.9267 931.325 55.0167 930.938 55.07C930.558 55.1233 930.188 55.15 929.828 55.15C929.115 55.15 928.451 55.0333 927.838 54.8C927.225 54.56 926.691 54.21 926.238 53.75C925.785 53.2833 925.428 52.71 925.168 52.03C924.908 51.3433 924.778 50.55 924.778 49.65C924.778 48.95 924.891 48.2933 925.118 47.68C925.345 47.06 925.668 46.5233 926.088 46.07C926.515 45.61 927.031 45.2467 927.638 44.98C928.251 44.7133 928.941 44.58 929.708 44.58C930.355 44.58 930.951 44.6833 931.498 44.89C932.045 45.0967 932.515 45.4 932.908 45.8C933.301 46.1933 933.608 46.68 933.828 47.26C934.055 47.8333 934.168 48.49 934.168 49.23C934.168 49.6033 934.128 49.8567 934.048 49.99C933.968 50.1167 933.815 50.18 933.588 50.18H927.238ZM951.205 51.59C951.352 51.59 951.482 51.6467 951.595 51.76L952.655 52.91C952.068 53.6367 951.345 54.1933 950.485 54.58C949.632 54.9667 948.605 55.16 947.405 55.16C946.332 55.16 945.365 54.9767 944.505 54.61C943.652 54.2433 942.922 53.7333 942.315 53.08C941.708 52.4267 941.242 51.6467 940.915 50.74C940.595 49.8333 940.435 48.8433 940.435 47.77C940.435 46.6833 940.608 45.69 940.955 44.79C941.302 43.8833 941.788 43.1033 942.415 42.45C943.048 41.7967 943.802 41.29 944.675 40.93C945.548 40.5633 946.515 40.38 947.575 40.38C948.628 40.38 949.562 40.5533 950.375 40.9C951.195 41.2467 951.892 41.7 952.465 42.26L951.565 43.51C951.512 43.59 951.442 43.66 951.355 43.72C951.275 43.78 951.162 43.81 951.015 43.81C950.915 43.81 950.812 43.7833 950.705 43.73C950.598 43.67 950.482 43.6 950.355 43.52C950.228 43.4333 950.082 43.34 949.915 43.24C949.748 43.14 949.555 43.05 949.335 42.97C949.115 42.8833 948.858 42.8133 948.565 42.76C948.278 42.7 947.945 42.67 947.565 42.67C946.918 42.67 946.325 42.7867 945.785 43.02C945.252 43.2467 944.792 43.58 944.405 44.02C944.018 44.4533 943.718 44.9867 943.505 45.62C943.292 46.2467 943.185 46.9633 943.185 47.77C943.185 48.5833 943.298 49.3067 943.525 49.94C943.758 50.5733 944.072 51.1067 944.465 51.54C944.858 51.9733 945.322 52.3067 945.855 52.54C946.388 52.7667 946.962 52.88 947.575 52.88C947.942 52.88 948.272 52.86 948.565 52.82C948.865 52.78 949.138 52.7167 949.385 52.63C949.638 52.5433 949.875 52.4333 950.095 52.3C950.322 52.16 950.545 51.99 950.765 51.79C950.832 51.73 950.902 51.6833 950.975 51.65C951.048 51.61 951.125 51.59 951.205 51.59ZM962.811 44.74V55H961.301C960.974 55 960.768 54.85 960.681 54.55L960.511 53.73C960.091 54.1567 959.628 54.5033 959.121 54.77C958.614 55.03 958.018 55.16 957.331 55.16C956.771 55.16 956.274 55.0667 955.841 54.88C955.414 54.6867 955.054 54.4167 954.761 54.07C954.468 53.7233 954.244 53.3133 954.091 52.84C953.944 52.36 953.871 51.8333 953.871 51.26V44.74H956.341V51.26C956.341 51.8867 956.484 52.3733 956.771 52.72C957.064 53.06 957.501 53.23 958.081 53.23C958.508 53.23 958.908 53.1367 959.281 52.95C959.654 52.7567 960.008 52.4933 960.341 52.16V44.74H962.811ZM967.76 40.14V55H965.29V40.14H967.76ZM973.641 55.16C972.748 55.16 972.061 54.91 971.581 54.41C971.108 53.9033 970.871 53.2067 970.871 52.32V46.59H969.821C969.688 46.59 969.574 46.5467 969.481 46.46C969.388 46.3733 969.341 46.2433 969.341 46.07V45.09L970.991 44.82L971.511 42.02C971.544 41.8867 971.608 41.7833 971.701 41.71C971.794 41.6367 971.914 41.6 972.061 41.6H973.341V44.83H976.081V46.59H973.341V52.15C973.341 52.47 973.418 52.72 973.571 52.9C973.731 53.08 973.948 53.17 974.221 53.17C974.374 53.17 974.501 53.1533 974.601 53.12C974.708 53.08 974.798 53.04 974.871 53C974.951 52.96 975.021 52.9233 975.081 52.89C975.141 52.85 975.201 52.83 975.261 52.83C975.334 52.83 975.394 52.85 975.441 52.89C975.488 52.9233 975.538 52.9767 975.591 53.05L976.331 54.25C975.971 54.55 975.558 54.7767 975.091 54.93C974.624 55.0833 974.141 55.16 973.641 55.16ZM986.502 44.74V55H984.992C984.666 55 984.459 54.85 984.372 54.55L984.202 53.73C983.782 54.1567 983.319 54.5033 982.812 54.77C982.306 55.03 981.709 55.16 981.022 55.16C980.462 55.16 979.966 55.0667 979.532 54.88C979.106 54.6867 978.746 54.4167 978.452 54.07C978.159 53.7233 977.936 53.3133 977.782 52.84C977.636 52.36 977.562 51.8333 977.562 51.26V44.74H980.032V51.26C980.032 51.8867 980.176 52.3733 980.462 52.72C980.756 53.06 981.192 53.23 981.772 53.23C982.199 53.23 982.599 53.1367 982.972 52.95C983.346 52.7567 983.699 52.4933 984.032 52.16V44.74H986.502ZM991.281 46.52C991.601 45.9067 991.981 45.4267 992.421 45.08C992.861 44.7267 993.381 44.55 993.981 44.55C994.455 44.55 994.835 44.6533 995.121 44.86L994.961 46.71C994.928 46.83 994.878 46.9167 994.811 46.97C994.751 47.0167 994.668 47.04 994.561 47.04C994.461 47.04 994.311 47.0233 994.111 46.99C993.918 46.9567 993.728 46.94 993.541 46.94C993.268 46.94 993.025 46.98 992.811 47.06C992.598 47.14 992.405 47.2567 992.231 47.41C992.065 47.5567 991.915 47.7367 991.781 47.95C991.655 48.1633 991.535 48.4067 991.421 48.68V55H988.951V44.74H990.401C990.655 44.74 990.831 44.7867 990.931 44.88C991.031 44.9667 991.098 45.1267 991.131 45.36L991.281 46.52ZM1002.73 48.69C1002.73 48.37 1002.68 48.07 1002.59 47.79C1002.5 47.5033 1002.37 47.2533 1002.19 47.04C1002.01 46.8267 1001.78 46.66 1001.5 46.54C1001.23 46.4133 1000.91 46.35 1000.54 46.35C999.826 46.35 999.263 46.5533 998.849 46.96C998.443 47.3667 998.183 47.9433 998.069 48.69H1002.73ZM998.019 50.18C998.059 50.7067 998.153 51.1633 998.299 51.55C998.446 51.93 998.639 52.2467 998.879 52.5C999.119 52.7467 999.403 52.9333 999.729 53.06C1000.06 53.18 1000.43 53.24 1000.83 53.24C1001.23 53.24 1001.57 53.1933 1001.86 53.1C1002.15 53.0067 1002.41 52.9033 1002.62 52.79C1002.84 52.6767 1003.03 52.5733 1003.19 52.48C1003.36 52.3867 1003.52 52.34 1003.67 52.34C1003.88 52.34 1004.03 52.4167 1004.13 52.57L1004.84 53.47C1004.57 53.79 1004.26 54.06 1003.92 54.28C1003.58 54.4933 1003.22 54.6667 1002.85 54.8C1002.48 54.9267 1002.11 55.0167 1001.72 55.07C1001.34 55.1233 1000.97 55.15 1000.61 55.15C999.896 55.15 999.233 55.0333 998.619 54.8C998.006 54.56 997.473 54.21 997.019 53.75C996.566 53.2833 996.209 52.71 995.949 52.03C995.689 51.3433 995.559 50.55 995.559 49.65C995.559 48.95 995.673 48.2933 995.899 47.68C996.126 47.06 996.449 46.5233 996.869 46.07C997.296 45.61 997.813 45.2467 998.419 44.98C999.033 44.7133 999.723 44.58 1000.49 44.58C1001.14 44.58 1001.73 44.6833 1002.28 44.89C1002.83 45.0967 1003.3 45.4 1003.69 45.8C1004.08 46.1933 1004.39 46.68 1004.61 47.26C1004.84 47.8333 1004.95 48.49 1004.95 49.23C1004.95 49.6033 1004.91 49.8567 1004.83 49.99C1004.75 50.1167 1004.6 50.18 1004.37 50.18H998.019Z" fill="#6C7380"/>
<path d="M844.071 45.3701C842.894 46.5471 840.912 46.5471 839.734 45.3701C834.284 39.9195 827.161 37.1942 819.976 37.1942C812.854 37.1942 805.731 39.9195 800.281 45.3695C799.104 46.5466 797.121 46.5466 795.883 45.3695C794.706 44.1309 794.706 42.1487 795.883 40.9717C802.51 34.283 811.305 31 819.976 31C828.71 31 837.443 34.283 844.071 40.9722C845.309 42.1487 845.309 44.1309 844.071 45.3701Z" fill="url(#paint5_linear)"/>
<path d="M835.337 54.1025C834.098 55.2795 832.178 55.2801 830.94 54.1031C827.904 51.0675 823.94 49.5193 819.977 49.5193C816.012 49.5193 812.049 51.0675 809.076 54.1031C807.837 55.2795 805.854 55.2795 804.678 54.1031C803.439 52.8644 803.44 50.9444 804.678 49.7052C808.89 45.4932 814.402 43.3878 819.976 43.3872C825.551 43.3878 831.125 45.4938 835.336 49.7052C836.514 50.9444 836.513 52.8645 835.337 54.1025Z" fill="url(#paint6_linear)"/>
<path d="M826.542 62.836C825.366 64.0752 823.383 64.0752 822.207 62.836C821.587 62.2783 820.782 61.9687 819.976 61.9687C819.171 61.9687 818.367 62.2783 817.809 62.836C816.57 64.0746 814.651 64.0746 813.412 62.8355C812.235 61.659 812.235 59.6773 813.412 58.5003C815.27 56.704 817.623 55.775 819.977 55.775C822.392 55.7744 824.746 56.704 826.542 58.4997C827.781 59.6773 827.781 61.6596 826.542 62.836Z" fill="url(#paint7_linear)"/>
<path d="M822.208 62.8362C821.588 62.2785 820.783 61.9688 819.977 61.9688L819.978 55.7752C822.394 55.7752 824.747 56.7041 826.543 58.5004C827.782 59.6775 827.782 61.6597 826.543 62.8362C825.366 64.0754 823.384 64.0754 822.208 62.8362Z" fill="#FF6BC1"/>
<path d="M835.338 49.7057C836.515 50.9444 836.515 52.8639 835.338 54.1025C834.099 55.2795 832.179 55.2801 830.94 54.1031C827.905 51.0675 823.941 49.5193 819.977 49.5193L819.977 43.3878C825.551 43.3878 831.126 45.4938 835.338 49.7057Z" fill="#FF6BC1"/>
<path d="M844.072 45.3701C842.895 46.5471 840.912 46.5471 839.735 45.3701C834.285 39.9195 827.162 37.1942 819.977 37.1942V31C828.711 31 837.444 34.283 844.072 40.9722C845.31 42.1487 845.31 44.1309 844.072 45.3701Z" fill="#FF6BC1"/>
<g filter="url(#filter3_d)">
<rect x="195" y="137" width="300" height="80" rx="5" fill="white"/>
</g>
<g filter="url(#filter4_d)">
<rect x="565" y="137" width="300" height="80" rx="5" fill="white"/>
</g>
<path d="M692.8 170.54V185H690.1V178.68H683.31V185H680.61V170.54H683.31V176.76H690.1V170.54H692.8ZM700.796 180.62C700.083 180.653 699.483 180.717 698.996 180.81C698.51 180.897 698.12 181.01 697.826 181.15C697.533 181.29 697.323 181.453 697.196 181.64C697.07 181.827 697.006 182.03 697.006 182.25C697.006 182.683 697.133 182.993 697.386 183.18C697.646 183.367 697.983 183.46 698.396 183.46C698.903 183.46 699.34 183.37 699.706 183.19C700.08 183.003 700.443 182.723 700.796 182.35V180.62ZM695.136 176.17C696.316 175.09 697.736 174.55 699.396 174.55C699.996 174.55 700.533 174.65 701.006 174.85C701.48 175.043 701.88 175.317 702.206 175.67C702.533 176.017 702.78 176.433 702.946 176.92C703.12 177.407 703.206 177.94 703.206 178.52V185H702.086C701.853 185 701.673 184.967 701.546 184.9C701.42 184.827 701.32 184.683 701.246 184.47L701.026 183.73C700.766 183.963 700.513 184.17 700.266 184.35C700.02 184.523 699.763 184.67 699.496 184.79C699.23 184.91 698.943 185 698.636 185.06C698.336 185.127 698.003 185.16 697.636 185.16C697.203 185.16 696.803 185.103 696.436 184.99C696.07 184.87 695.753 184.693 695.486 184.46C695.22 184.227 695.013 183.937 694.866 183.59C694.72 183.243 694.646 182.84 694.646 182.38C694.646 182.12 694.69 181.863 694.776 181.61C694.863 181.35 695.003 181.103 695.196 180.87C695.396 180.637 695.653 180.417 695.966 180.21C696.28 180.003 696.663 179.823 697.116 179.67C697.576 179.517 698.11 179.393 698.716 179.3C699.323 179.2 700.016 179.14 700.796 179.12V178.52C700.796 177.833 700.65 177.327 700.356 177C700.063 176.667 699.64 176.5 699.086 176.5C698.686 176.5 698.353 176.547 698.086 176.64C697.826 176.733 697.596 176.84 697.396 176.96C697.196 177.073 697.013 177.177 696.846 177.27C696.686 177.363 696.506 177.41 696.306 177.41C696.133 177.41 695.986 177.367 695.866 177.28C695.746 177.187 695.65 177.08 695.576 176.96L695.136 176.17ZM707.863 176.52C708.183 175.907 708.563 175.427 709.003 175.08C709.443 174.727 709.963 174.55 710.562 174.55C711.036 174.55 711.416 174.653 711.703 174.86L711.543 176.71C711.509 176.83 711.459 176.917 711.393 176.97C711.333 177.017 711.249 177.04 711.143 177.04C711.043 177.04 710.893 177.023 710.693 176.99C710.499 176.957 710.309 176.94 710.123 176.94C709.849 176.94 709.606 176.98 709.393 177.06C709.179 177.14 708.986 177.257 708.813 177.41C708.646 177.557 708.496 177.737 708.363 177.95C708.236 178.163 708.116 178.407 708.003 178.68V185H705.533V174.74H706.983C707.236 174.74 707.413 174.787 707.513 174.88C707.613 174.967 707.679 175.127 707.713 175.36L707.863 176.52ZM719.16 177.36C718.88 177.02 718.573 176.78 718.24 176.64C717.913 176.5 717.56 176.43 717.18 176.43C716.807 176.43 716.47 176.5 716.17 176.64C715.87 176.78 715.613 176.993 715.4 177.28C715.187 177.56 715.023 177.92 714.91 178.36C714.797 178.793 714.74 179.307 714.74 179.9C714.74 180.5 714.787 181.01 714.88 181.43C714.98 181.843 715.12 182.183 715.3 182.45C715.48 182.71 715.7 182.9 715.96 183.02C716.22 183.133 716.51 183.19 716.83 183.19C717.343 183.19 717.78 183.083 718.14 182.87C718.5 182.657 718.84 182.353 719.16 181.96V177.36ZM721.63 170.14V185H720.12C719.793 185 719.587 184.85 719.5 184.55L719.29 183.56C718.877 184.033 718.4 184.417 717.86 184.71C717.327 185.003 716.703 185.15 715.99 185.15C715.43 185.15 714.917 185.033 714.45 184.8C713.983 184.567 713.58 184.23 713.24 183.79C712.907 183.343 712.647 182.793 712.46 182.14C712.28 181.487 712.19 180.74 712.19 179.9C712.19 179.14 712.293 178.433 712.5 177.78C712.707 177.127 713.003 176.56 713.39 176.08C713.777 175.6 714.24 175.227 714.78 174.96C715.32 174.687 715.927 174.55 716.6 174.55C717.173 174.55 717.663 174.64 718.07 174.82C718.477 175 718.84 175.243 719.16 175.55V170.14H721.63ZM748.424 170.54L743.934 185H741.504L738.344 175.12C738.258 174.88 738.178 174.587 738.104 174.24C738.064 174.407 738.024 174.563 737.984 174.71C737.944 174.857 737.901 174.993 737.854 175.12L734.664 185H732.224L727.744 170.54H729.994C730.228 170.54 730.421 170.597 730.574 170.71C730.734 170.817 730.841 170.963 730.894 171.15L733.354 179.8C733.408 180.013 733.458 180.247 733.504 180.5C733.558 180.747 733.611 181.007 733.664 181.28C733.718 181 733.774 180.737 733.834 180.49C733.901 180.243 733.971 180.013 734.044 179.8L736.884 171.15C736.938 170.997 737.041 170.857 737.194 170.73C737.354 170.603 737.548 170.54 737.774 170.54H738.564C738.798 170.54 738.988 170.597 739.134 170.71C739.281 170.823 739.391 170.97 739.464 171.15L742.294 179.8C742.434 180.213 742.561 180.69 742.674 181.23C742.761 180.703 742.858 180.227 742.964 179.8L745.424 171.15C745.464 170.983 745.564 170.84 745.724 170.72C745.891 170.6 746.088 170.54 746.314 170.54H748.424ZM753.139 174.58C753.899 174.58 754.589 174.703 755.209 174.95C755.836 175.197 756.369 175.547 756.809 176C757.256 176.453 757.599 177.007 757.839 177.66C758.079 178.313 758.199 179.043 758.199 179.85C758.199 180.663 758.079 181.397 757.839 182.05C757.599 182.703 757.256 183.26 756.809 183.72C756.369 184.18 755.836 184.533 755.209 184.78C754.589 185.027 753.899 185.15 753.139 185.15C752.372 185.15 751.676 185.027 751.049 184.78C750.422 184.533 749.886 184.18 749.439 183.72C748.999 183.26 748.656 182.703 748.409 182.05C748.169 181.397 748.049 180.663 748.049 179.85C748.049 179.043 748.169 178.313 748.409 177.66C748.656 177.007 748.999 176.453 749.439 176C749.886 175.547 750.422 175.197 751.049 174.95C751.676 174.703 752.372 174.58 753.139 174.58ZM753.139 183.25C753.992 183.25 754.622 182.963 755.029 182.39C755.442 181.817 755.649 180.977 755.649 179.87C755.649 178.763 755.442 177.92 755.029 177.34C754.622 176.76 753.992 176.47 753.139 176.47C752.272 176.47 751.629 176.763 751.209 177.35C750.796 177.93 750.589 178.77 750.589 179.87C750.589 180.97 750.796 181.81 751.209 182.39C751.629 182.963 752.272 183.25 753.139 183.25ZM762.413 176.52C762.733 175.907 763.113 175.427 763.553 175.08C763.993 174.727 764.513 174.55 765.113 174.55C765.587 174.55 765.967 174.653 766.253 174.86L766.093 176.71C766.06 176.83 766.01 176.917 765.943 176.97C765.883 177.017 765.8 177.04 765.693 177.04C765.593 177.04 765.443 177.023 765.243 176.99C765.05 176.957 764.86 176.94 764.673 176.94C764.4 176.94 764.157 176.98 763.943 177.06C763.73 177.14 763.537 177.257 763.363 177.41C763.197 177.557 763.047 177.737 762.913 177.95C762.787 178.163 762.667 178.407 762.553 178.68V185H760.083V174.74H761.533C761.787 174.74 761.963 174.787 762.063 174.88C762.163 174.967 762.23 175.127 762.263 175.36L762.413 176.52ZM770.014 170.14V178.65H770.474C770.641 178.65 770.771 178.63 770.864 178.59C770.964 178.543 771.064 178.453 771.164 178.32L773.714 175.17C773.821 175.03 773.938 174.923 774.064 174.85C774.198 174.777 774.368 174.74 774.574 174.74H776.834L773.644 178.55C773.418 178.85 773.171 179.08 772.904 179.24C773.044 179.34 773.168 179.457 773.274 179.59C773.388 179.723 773.494 179.867 773.594 180.02L777.014 185H774.784C774.591 185 774.424 184.97 774.284 184.91C774.144 184.843 774.028 184.727 773.934 184.56L771.314 180.67C771.221 180.517 771.124 180.417 771.024 180.37C770.924 180.323 770.774 180.3 770.574 180.3H770.014V185H767.544V170.14H770.014ZM780.788 174.74V185H778.308V174.74H780.788ZM781.128 171.75C781.128 171.963 781.084 172.163 780.998 172.35C780.911 172.537 780.794 172.7 780.648 172.84C780.508 172.98 780.341 173.093 780.148 173.18C779.954 173.26 779.748 173.3 779.528 173.3C779.314 173.3 779.111 173.26 778.918 173.18C778.731 173.093 778.568 172.98 778.428 172.84C778.288 172.7 778.174 172.537 778.088 172.35C778.008 172.163 777.968 171.963 777.968 171.75C777.968 171.53 778.008 171.323 778.088 171.13C778.174 170.937 778.288 170.77 778.428 170.63C778.568 170.49 778.731 170.38 778.918 170.3C779.111 170.213 779.314 170.17 779.528 170.17C779.748 170.17 779.954 170.213 780.148 170.3C780.341 170.38 780.508 170.49 780.648 170.63C780.794 170.77 780.911 170.937 780.998 171.13C781.084 171.323 781.128 171.53 781.128 171.75ZM785.616 176C785.823 175.793 786.039 175.603 786.266 175.43C786.499 175.25 786.743 175.1 786.996 174.98C787.256 174.853 787.533 174.757 787.826 174.69C788.119 174.617 788.439 174.58 788.786 174.58C789.346 174.58 789.843 174.677 790.276 174.87C790.709 175.057 791.069 175.323 791.356 175.67C791.649 176.01 791.869 176.42 792.016 176.9C792.169 177.373 792.246 177.897 792.246 178.47V185H789.776V178.47C789.776 177.843 789.633 177.36 789.346 177.02C789.059 176.673 788.623 176.5 788.036 176.5C787.609 176.5 787.209 176.597 786.836 176.79C786.463 176.983 786.109 177.247 785.776 177.58V185H783.306V174.74H784.816C785.136 174.74 785.346 174.89 785.446 175.19L785.616 176ZM798.345 179.62C798.652 179.62 798.918 179.58 799.145 179.5C799.372 179.413 799.558 179.297 799.705 179.15C799.858 179.003 799.972 178.827 800.045 178.62C800.125 178.413 800.165 178.187 800.165 177.94C800.165 177.433 800.012 177.033 799.705 176.74C799.405 176.44 798.952 176.29 798.345 176.29C797.738 176.29 797.282 176.44 796.975 176.74C796.675 177.033 796.525 177.433 796.525 177.94C796.525 178.18 796.562 178.403 796.635 178.61C796.715 178.817 796.828 178.997 796.975 179.15C797.128 179.297 797.318 179.413 797.545 179.5C797.778 179.58 798.045 179.62 798.345 179.62ZM801.135 185.46C801.135 185.26 801.075 185.097 800.955 184.97C800.835 184.843 800.672 184.747 800.465 184.68C800.258 184.607 800.015 184.553 799.735 184.52C799.462 184.487 799.168 184.463 798.855 184.45C798.548 184.43 798.228 184.413 797.895 184.4C797.568 184.387 797.248 184.36 796.935 184.32C796.662 184.473 796.438 184.653 796.265 184.86C796.098 185.067 796.015 185.307 796.015 185.58C796.015 185.76 796.058 185.927 796.145 186.08C796.238 186.24 796.382 186.377 796.575 186.49C796.775 186.603 797.032 186.69 797.345 186.75C797.658 186.817 798.042 186.85 798.495 186.85C798.955 186.85 799.352 186.813 799.685 186.74C800.018 186.673 800.292 186.577 800.505 186.45C800.725 186.33 800.885 186.183 800.985 186.01C801.085 185.843 801.135 185.66 801.135 185.46ZM803.595 175.09V176.01C803.595 176.303 803.418 176.483 803.065 176.55L802.145 176.72C802.285 177.073 802.355 177.46 802.355 177.88C802.355 178.387 802.252 178.847 802.045 179.26C801.845 179.667 801.565 180.013 801.205 180.3C800.845 180.587 800.418 180.81 799.925 180.97C799.438 181.123 798.912 181.2 798.345 181.2C798.145 181.2 797.952 181.19 797.765 181.17C797.578 181.15 797.395 181.123 797.215 181.09C796.895 181.283 796.735 181.5 796.735 181.74C796.735 181.947 796.828 182.1 797.015 182.2C797.208 182.293 797.462 182.36 797.775 182.4C798.088 182.44 798.445 182.467 798.845 182.48C799.245 182.487 799.655 182.507 800.075 182.54C800.495 182.573 800.905 182.633 801.305 182.72C801.705 182.8 802.062 182.93 802.375 183.11C802.688 183.29 802.938 183.537 803.125 183.85C803.318 184.157 803.415 184.553 803.415 185.04C803.415 185.493 803.302 185.933 803.075 186.36C802.855 186.787 802.532 187.167 802.105 187.5C801.685 187.833 801.165 188.1 800.545 188.3C799.932 188.507 799.232 188.61 798.445 188.61C797.672 188.61 796.998 188.533 796.425 188.38C795.852 188.233 795.375 188.033 794.995 187.78C794.615 187.533 794.332 187.247 794.145 186.92C793.958 186.593 793.865 186.253 793.865 185.9C793.865 185.42 794.008 185.02 794.295 184.7C794.588 184.373 794.988 184.113 795.495 183.92C795.222 183.78 795.005 183.593 794.845 183.36C794.685 183.127 794.605 182.82 794.605 182.44C794.605 182.287 794.632 182.13 794.685 181.97C794.745 181.803 794.828 181.64 794.935 181.48C795.048 181.32 795.188 181.17 795.355 181.03C795.522 180.883 795.718 180.753 795.945 180.64C795.425 180.36 795.015 179.987 794.715 179.52C794.422 179.053 794.275 178.507 794.275 177.88C794.275 177.373 794.375 176.917 794.575 176.51C794.782 176.097 795.065 175.747 795.425 175.46C795.792 175.167 796.222 174.943 796.715 174.79C797.215 174.637 797.758 174.56 798.345 174.56C798.785 174.56 799.198 174.607 799.585 174.7C799.972 174.787 800.325 174.917 800.645 175.09H803.595Z" fill="#6C7380"/>
<path d="M646.859 160.049C645.941 157.328 644.692 155.381 644.639 155.299C644.502 155.086 644.254 154.972 644.003 155.006C643.906 155.019 641.615 155.336 638.95 156.407C635.364 157.848 632.837 159.981 631.642 162.576C629.649 166.904 627.568 175.624 627.003 182.014C626.978 182.289 627.13 182.55 627.381 182.666L634.426 185.911C634.514 185.951 634.607 185.97 634.699 185.97C634.872 185.97 635.041 185.902 635.167 185.774C639.656 181.19 644.929 173.941 646.922 169.613C648.117 167.018 648.095 163.711 646.859 160.049Z" fill="#FF6BC1"/>
<path d="M644.003 155.006C643.906 155.019 641.615 155.336 638.95 156.407C636.755 157.289 634.958 158.431 633.619 159.778L647.778 166.083C647.894 164.244 647.588 162.208 646.859 160.049C645.941 157.328 644.692 155.381 644.639 155.299C644.502 155.086 644.254 154.972 644.003 155.006Z" fill="url(#paint8_linear)"/>
<path d="M638.542 170.226C639.938 170.226 641.069 169.094 641.069 167.699C641.069 166.303 639.938 165.172 638.542 165.172C637.147 165.172 636.015 166.303 636.015 167.699C636.015 169.094 637.147 170.226 638.542 170.226Z" fill="white"/>
<path d="M634.594 179.702C634.406 179.194 634.032 178.79 633.54 178.563C633.048 178.336 632.497 178.315 631.989 178.503C631.481 178.69 631.076 179.065 630.85 179.557C630.837 179.585 630.826 179.614 630.817 179.644L628.828 186.338C628.679 186.838 628.915 187.359 629.389 187.577C629.531 187.642 629.68 187.674 629.827 187.674C630.168 187.674 630.497 187.504 630.695 187.198L634.488 181.335C634.505 181.309 634.52 181.281 634.533 181.253C634.76 180.761 634.781 180.21 634.594 179.702Z" fill="url(#paint9_linear)"/>
<path d="M652.27 165.232C651.253 164.9 650.168 164.984 649.214 165.468C648.26 165.952 647.552 166.778 647.219 167.795L646.655 169.522C645.969 171.621 647.118 173.887 649.217 174.573C649.629 174.708 650.047 174.772 650.459 174.772C652.144 174.772 653.717 173.698 654.268 172.011L654.833 170.283C655.519 168.184 654.369 165.918 652.27 165.232Z" fill="#F9C295"/>
<path d="M657.931 163.802C657.776 163.629 657.541 163.55 657.313 163.596L654.777 164.106C654.744 164.113 654.71 164.11 654.679 164.1L652.2 163.29C650.452 162.719 648.566 163.676 647.995 165.424L647.025 168.391C646.913 168.734 647.1 169.103 647.444 169.216L649.421 169.862C649.487 169.883 649.556 169.894 649.624 169.894C649.726 169.894 649.827 169.87 649.92 169.823C650.075 169.745 650.192 169.608 650.246 169.443L650.28 169.338C650.418 168.916 650.873 168.685 651.295 168.823L652.494 169.215C654.491 169.868 656.647 168.774 657.3 166.777L658.063 164.44C658.136 164.219 658.085 163.976 657.931 163.802Z" fill="#4E587F"/>
<path d="M648.218 174.429C646.696 173.302 644.54 173.623 643.413 175.146L638.668 181.555C638.558 181.702 638.516 181.89 638.552 182.07C638.587 182.251 638.698 182.408 638.855 182.503L643.637 185.394C643.742 185.458 643.859 185.488 643.975 185.488C644.176 185.488 644.373 185.396 644.501 185.223L648.936 179.234C649.377 178.637 649.61 177.931 649.61 177.192C649.61 176.107 649.09 175.074 648.218 174.429Z" fill="#F0F1F4"/>
<path d="M647.306 175.934C646.965 175.52 646.484 175.263 645.951 175.209L635.47 174.039C635.467 174.039 635.464 174.038 635.461 174.038C634.355 173.93 633.37 174.742 633.262 175.847C633.155 176.95 633.964 177.935 635.066 178.045L645.547 179.215C645.55 179.216 645.553 179.216 645.556 179.216C645.623 179.223 645.689 179.226 645.755 179.226C646.22 179.226 646.666 179.067 647.03 178.767C647.445 178.426 647.703 177.943 647.755 177.408C647.807 176.872 647.647 176.349 647.306 175.934Z" fill="#E2E2E2"/>
<path d="M637.203 174.432C637.095 174.293 636.935 174.203 636.76 174.184L635.47 174.04C635.467 174.039 635.464 174.039 635.461 174.039C634.357 173.932 633.37 174.743 633.262 175.848C633.21 176.383 633.37 176.906 633.711 177.321C634.052 177.735 634.533 177.992 635.066 178.046L636.248 178.178C636.272 178.18 636.297 178.182 636.321 178.182C636.644 178.182 636.924 177.943 636.968 177.616L637.335 174.922C637.359 174.748 637.311 174.571 637.203 174.432Z" fill="#F9C295"/>
<path d="M643.261 186.58C643.237 186.406 643.144 186.25 643.003 186.146L638.532 182.836C638.334 182.689 638.07 182.667 637.849 182.778C637.726 182.84 637.629 182.937 637.567 183.054L630.571 195.598C630.4 195.904 630.502 196.292 630.802 196.475L633.8 198.304C633.906 198.369 634.024 198.4 634.141 198.4C634.338 198.4 634.533 198.31 634.66 198.143L643.133 187.069C643.24 186.929 643.286 186.753 643.261 186.58Z" fill="#393762"/>
<path d="M648.894 187.043L639.532 181.383C639.244 181.209 638.869 181.283 638.668 181.554L637.618 182.972C637.597 183.001 637.578 183.031 637.562 183.062L637.359 183.426C636.532 184.91 637.016 186.772 638.461 187.664L644.489 191.387L642.689 197.835C642.593 198.18 642.792 198.538 643.136 198.638L646.507 199.626C646.567 199.643 646.629 199.652 646.691 199.652C646.801 199.652 646.91 199.624 647.008 199.57C647.161 199.485 647.273 199.343 647.321 199.175L649.961 189.783C650.268 188.735 649.829 187.608 648.894 187.043Z" fill="#4E587F"/>
<path d="M315.31 172.68V176.96H320.73V179.11H315.31V185H312.61V170.54H321.73V172.68H315.31ZM325.077 176.52C325.397 175.907 325.777 175.427 326.217 175.08C326.657 174.727 327.177 174.55 327.777 174.55C328.251 174.55 328.631 174.653 328.917 174.86L328.757 176.71C328.724 176.83 328.674 176.917 328.607 176.97C328.547 177.017 328.464 177.04 328.357 177.04C328.257 177.04 328.107 177.023 327.907 176.99C327.714 176.957 327.524 176.94 327.337 176.94C327.064 176.94 326.821 176.98 326.607 177.06C326.394 177.14 326.201 177.257 326.027 177.41C325.861 177.557 325.711 177.737 325.577 177.95C325.451 178.163 325.331 178.407 325.217 178.68V185H322.747V174.74H324.197C324.451 174.74 324.627 174.787 324.727 174.88C324.827 174.967 324.894 175.127 324.927 175.36L325.077 176.52ZM332.768 174.74V185H330.288V174.74H332.768ZM333.108 171.75C333.108 171.963 333.065 172.163 332.978 172.35C332.892 172.537 332.775 172.7 332.628 172.84C332.488 172.98 332.322 173.093 332.128 173.18C331.935 173.26 331.728 173.3 331.508 173.3C331.295 173.3 331.092 173.26 330.898 173.18C330.712 173.093 330.548 172.98 330.408 172.84C330.268 172.7 330.155 172.537 330.068 172.35C329.988 172.163 329.948 171.963 329.948 171.75C329.948 171.53 329.988 171.323 330.068 171.13C330.155 170.937 330.268 170.77 330.408 170.63C330.548 170.49 330.712 170.38 330.898 170.3C331.092 170.213 331.295 170.17 331.508 170.17C331.728 170.17 331.935 170.213 332.128 170.3C332.322 170.38 332.488 170.49 332.628 170.63C332.775 170.77 332.892 170.937 332.978 171.13C333.065 171.323 333.108 171.53 333.108 171.75ZM341.896 178.69C341.896 178.37 341.85 178.07 341.756 177.79C341.67 177.503 341.536 177.253 341.356 177.04C341.176 176.827 340.946 176.66 340.666 176.54C340.393 176.413 340.073 176.35 339.706 176.35C338.993 176.35 338.43 176.553 338.016 176.96C337.61 177.367 337.35 177.943 337.236 178.69H341.896ZM337.186 180.18C337.226 180.707 337.32 181.163 337.466 181.55C337.613 181.93 337.806 182.247 338.046 182.5C338.286 182.747 338.57 182.933 338.896 183.06C339.23 183.18 339.596 183.24 339.996 183.24C340.396 183.24 340.74 183.193 341.026 183.1C341.32 183.007 341.573 182.903 341.786 182.79C342.006 182.677 342.196 182.573 342.356 182.48C342.523 182.387 342.683 182.34 342.836 182.34C343.043 182.34 343.196 182.417 343.296 182.57L344.006 183.47C343.733 183.79 343.426 184.06 343.086 184.28C342.746 184.493 342.39 184.667 342.016 184.8C341.65 184.927 341.273 185.017 340.886 185.07C340.506 185.123 340.136 185.15 339.776 185.15C339.063 185.15 338.4 185.033 337.786 184.8C337.173 184.56 336.64 184.21 336.186 183.75C335.733 183.283 335.376 182.71 335.116 182.03C334.856 181.343 334.726 180.55 334.726 179.65C334.726 178.95 334.84 178.293 335.066 177.68C335.293 177.06 335.616 176.523 336.036 176.07C336.463 175.61 336.98 175.247 337.586 174.98C338.2 174.713 338.89 174.58 339.656 174.58C340.303 174.58 340.9 174.683 341.446 174.89C341.993 175.097 342.463 175.4 342.856 175.8C343.25 176.193 343.556 176.68 343.776 177.26C344.003 177.833 344.116 178.49 344.116 179.23C344.116 179.603 344.076 179.857 343.996 179.99C343.916 180.117 343.763 180.18 343.536 180.18H337.186ZM348.28 176C348.487 175.793 348.703 175.603 348.93 175.43C349.163 175.25 349.407 175.1 349.66 174.98C349.92 174.853 350.197 174.757 350.49 174.69C350.783 174.617 351.103 174.58 351.45 174.58C352.01 174.58 352.507 174.677 352.94 174.87C353.373 175.057 353.733 175.323 354.02 175.67C354.313 176.01 354.533 176.42 354.68 176.9C354.833 177.373 354.91 177.897 354.91 178.47V185H352.44V178.47C352.44 177.843 352.297 177.36 352.01 177.02C351.723 176.673 351.287 176.5 350.7 176.5C350.273 176.5 349.873 176.597 349.5 176.79C349.127 176.983 348.773 177.247 348.44 177.58V185H345.97V174.74H347.48C347.8 174.74 348.01 174.89 348.11 175.19L348.28 176ZM363.699 177.36C363.419 177.02 363.112 176.78 362.779 176.64C362.452 176.5 362.099 176.43 361.719 176.43C361.346 176.43 361.009 176.5 360.709 176.64C360.409 176.78 360.152 176.993 359.939 177.28C359.726 177.56 359.562 177.92 359.449 178.36C359.336 178.793 359.279 179.307 359.279 179.9C359.279 180.5 359.326 181.01 359.419 181.43C359.519 181.843 359.659 182.183 359.839 182.45C360.019 182.71 360.239 182.9 360.499 183.02C360.759 183.133 361.049 183.19 361.369 183.19C361.882 183.19 362.319 183.083 362.679 182.87C363.039 182.657 363.379 182.353 363.699 181.96V177.36ZM366.169 170.14V185H364.659C364.332 185 364.126 184.85 364.039 184.55L363.829 183.56C363.416 184.033 362.939 184.417 362.399 184.71C361.866 185.003 361.242 185.15 360.529 185.15C359.969 185.15 359.456 185.033 358.989 184.8C358.522 184.567 358.119 184.23 357.779 183.79C357.446 183.343 357.186 182.793 356.999 182.14C356.819 181.487 356.729 180.74 356.729 179.9C356.729 179.14 356.832 178.433 357.039 177.78C357.246 177.127 357.542 176.56 357.929 176.08C358.316 175.6 358.779 175.227 359.319 174.96C359.859 174.687 360.466 174.55 361.139 174.55C361.712 174.55 362.202 174.64 362.609 174.82C363.016 175 363.379 175.243 363.699 175.55V170.14H366.169ZM371.107 170.14V185H368.637V170.14H371.107ZM382.888 174.74L377.298 187.82C377.224 187.993 377.128 188.123 377.008 188.21C376.894 188.303 376.718 188.35 376.478 188.35H374.638L376.558 184.23L372.408 174.74H374.578C374.771 174.74 374.921 174.787 375.028 174.88C375.141 174.973 375.224 175.08 375.278 175.2L377.458 180.52C377.531 180.7 377.591 180.88 377.638 181.06C377.691 181.24 377.741 181.423 377.788 181.61C377.848 181.423 377.908 181.24 377.968 181.06C378.028 180.873 378.094 180.69 378.168 180.51L380.228 175.2C380.281 175.067 380.368 174.957 380.488 174.87C380.614 174.783 380.754 174.74 380.908 174.74H382.888ZM392.03 178.24C391.497 178.587 391.107 178.98 390.86 179.42C390.62 179.853 390.5 180.32 390.5 180.82C390.5 181.187 390.563 181.517 390.69 181.81C390.817 182.103 390.987 182.353 391.2 182.56C391.42 182.76 391.673 182.917 391.96 183.03C392.253 183.137 392.563 183.19 392.89 183.19C393.477 183.19 394.013 183.1 394.5 182.92C394.987 182.733 395.427 182.477 395.82 182.15L392.03 178.24ZM401.66 185H399.24C398.987 185 398.78 184.97 398.62 184.91C398.467 184.85 398.303 184.723 398.13 184.53L397.13 183.5C396.497 184.02 395.787 184.427 395 184.72C394.213 185.013 393.363 185.16 392.45 185.16C391.897 185.16 391.35 185.067 390.81 184.88C390.277 184.687 389.8 184.41 389.38 184.05C388.96 183.69 388.62 183.257 388.36 182.75C388.107 182.237 387.98 181.66 387.98 181.02C387.98 180.567 388.053 180.14 388.2 179.74C388.347 179.333 388.55 178.957 388.81 178.61C389.07 178.263 389.38 177.953 389.74 177.68C390.1 177.4 390.493 177.16 390.92 176.96C390.56 176.46 390.3 175.973 390.14 175.5C389.98 175.02 389.9 174.543 389.9 174.07C389.9 173.57 389.99 173.097 390.17 172.65C390.357 172.197 390.623 171.803 390.97 171.47C391.317 171.137 391.743 170.873 392.25 170.68C392.757 170.48 393.33 170.38 393.97 170.38C394.557 170.38 395.08 170.47 395.54 170.65C396.007 170.83 396.403 171.07 396.73 171.37C397.063 171.67 397.323 172.013 397.51 172.4C397.703 172.787 397.817 173.187 397.85 173.6L396.28 173.93C395.987 173.99 395.773 173.863 395.64 173.55C395.58 173.377 395.5 173.213 395.4 173.06C395.307 172.9 395.193 172.763 395.06 172.65C394.927 172.53 394.77 172.437 394.59 172.37C394.41 172.297 394.203 172.26 393.97 172.26C393.69 172.26 393.44 172.31 393.22 172.41C393 172.503 392.813 172.633 392.66 172.8C392.513 172.96 392.4 173.15 392.32 173.37C392.24 173.583 392.2 173.81 392.2 174.05C392.2 174.25 392.22 174.443 392.26 174.63C392.3 174.817 392.367 175.003 392.46 175.19C392.553 175.377 392.673 175.57 392.82 175.77C392.973 175.963 393.16 176.173 393.38 176.4L397.22 180.39C397.44 179.97 397.617 179.527 397.75 179.06C397.883 178.593 397.97 178.12 398.01 177.64C398.03 177.487 398.083 177.363 398.17 177.27C398.257 177.177 398.377 177.13 398.53 177.13H400.07C400.063 178.01 399.937 178.85 399.69 179.65C399.443 180.45 399.09 181.187 398.63 181.86L401.66 185ZM410.896 172.68V176.96H416.316V179.11H410.896V185H408.196V170.54H417.316V172.68H410.896ZM427.271 174.74V185H425.761C425.434 185 425.228 184.85 425.141 184.55L424.971 183.73C424.551 184.157 424.088 184.503 423.581 184.77C423.074 185.03 422.478 185.16 421.791 185.16C421.231 185.16 420.734 185.067 420.301 184.88C419.874 184.687 419.514 184.417 419.221 184.07C418.928 183.723 418.704 183.313 418.551 182.84C418.404 182.36 418.331 181.833 418.331 181.26V174.74H420.801V181.26C420.801 181.887 420.944 182.373 421.231 182.72C421.524 183.06 421.961 183.23 422.541 183.23C422.968 183.23 423.368 183.137 423.741 182.95C424.114 182.757 424.468 182.493 424.801 182.16V174.74H427.271ZM432.03 176C432.237 175.793 432.453 175.603 432.68 175.43C432.913 175.25 433.157 175.1 433.41 174.98C433.67 174.853 433.947 174.757 434.24 174.69C434.533 174.617 434.853 174.58 435.2 174.58C435.76 174.58 436.257 174.677 436.69 174.87C437.123 175.057 437.483 175.323 437.77 175.67C438.063 176.01 438.283 176.42 438.43 176.9C438.583 177.373 438.66 177.897 438.66 178.47V185H436.19V178.47C436.19 177.843 436.047 177.36 435.76 177.02C435.473 176.673 435.037 176.5 434.45 176.5C434.023 176.5 433.623 176.597 433.25 176.79C432.877 176.983 432.523 177.247 432.19 177.58V185H429.72V174.74H431.23C431.55 174.74 431.76 174.89 431.86 175.19L432.03 176Z" fill="#6C7380"/>
<path d="M270.314 169.049C269.398 168.13 267.914 168.13 266.999 169.049L260.934 175.14H256.078C253.278 175.14 251 177.428 251 180.241V193.468C251 194.118 251.525 194.645 252.172 194.645H261.625C262.272 194.645 262.797 194.118 262.797 193.468V179.927L270.314 172.378C271.229 171.458 271.229 169.968 270.314 169.049Z" fill="url(#paint10_linear)"/>
<path d="M271 163.469C270.353 163.469 269.828 162.944 269.828 162.297V159.172C269.828 158.525 270.353 158 271 158C271.647 158 272.172 158.525 272.172 159.172V162.297C272.172 162.944 271.647 163.469 271 163.469Z" fill="#FF6BC1"/>
<path d="M266.704 165.032C266.299 165.032 265.905 164.822 265.688 164.446L264.126 161.74C263.802 161.179 263.994 160.462 264.555 160.139C265.115 159.815 265.832 160.007 266.155 160.568L267.718 163.274C268.041 163.834 267.849 164.551 267.289 164.875C267.104 164.981 266.903 165.032 266.704 165.032Z" fill="#FF6BC1"/>
<path d="M275.296 165.032C275.097 165.032 274.895 164.981 274.711 164.875C274.15 164.551 273.958 163.834 274.282 163.274L275.844 160.568C276.168 160.007 276.885 159.815 277.445 160.139C278.006 160.462 278.198 161.179 277.874 161.74L276.312 164.446C276.095 164.822 275.701 165.032 275.296 165.032Z" fill="#FF6BC1"/>
<path d="M285.922 175.3H281.066L275.001 169.234C274.086 168.319 272.602 168.319 271.686 169.234C270.771 170.15 270.771 171.634 271.686 172.549L279.203 180.066V193.548C279.203 194.195 279.728 194.72 280.375 194.72H289.828C290.475 194.72 291 194.195 291 193.548V180.378C291 177.578 288.722 175.3 285.922 175.3Z" fill="url(#paint11_linear)"/>
<path d="M285.102 177.643C282.301 177.643 280.023 175.365 280.023 172.564C280.023 169.764 282.301 167.486 285.102 167.486C287.902 167.486 290.18 169.764 290.18 172.564C290.18 175.365 287.902 177.643 285.102 177.643Z" fill="#F9C295"/>
<path d="M256.898 177.643C254.098 177.643 251.82 175.365 251.82 172.564C251.82 169.764 254.098 167.486 256.898 167.486C259.699 167.486 261.977 169.764 261.977 172.564C261.977 175.365 259.699 177.643 256.898 177.643Z" fill="#F9C295"/>
<defs>
<filter id="filter0_d" x="0" y="0" width="320" height="100" filterUnits="userSpaceOnUse" color-interpolation-filters="sRGB">
<feFlood flood-opacity="0" result="BackgroundImageFix"/>
<feColorMatrix in="SourceAlpha" type="matrix" values="0 0 0 0 0 0 0 0 0 0 0 0 0 0 0 0 0 0 127 0"/>
<feOffset dy="3"/>
<feGaussianBlur stdDeviation="5"/>
<feColorMatrix type="matrix" values="0 0 0 0 0 0 0 0 0 0 0 0 0 0 0 0 0 0 0.1 0"/>
<feBlend mode="normal" in2="BackgroundImageFix" result="effect1_dropShadow"/>
<feBlend mode="normal" in="SourceGraphic" in2="effect1_dropShadow" result="shape"/>
</filter>
<filter id="filter1_d" x="370" y="0" width="320" height="100" filterUnits="userSpaceOnUse" color-interpolation-filters="sRGB">
<feFlood flood-opacity="0" result="BackgroundImageFix"/>
<feColorMatrix in="SourceAlpha" type="matrix" values="0 0 0 0 0 0 0 0 0 0 0 0 0 0 0 0 0 0 127 0"/>
<feOffset dy="3"/>
<feGaussianBlur stdDeviation="5"/>
<feColorMatrix type="matrix" values="0 0 0 0 0 0 0 0 0 0 0 0 0 0 0 0 0 0 0.1 0"/>
<feBlend mode="normal" in2="BackgroundImageFix" result="effect1_dropShadow"/>
<feBlend mode="normal" in="SourceGraphic" in2="effect1_dropShadow" result="shape"/>
</filter>
<filter id="filter2_d" x="740" y="0" width="320" height="100" filterUnits="userSpaceOnUse" color-interpolation-filters="sRGB">
<feFlood flood-opacity="0" result="BackgroundImageFix"/>
<feColorMatrix in="SourceAlpha" type="matrix" values="0 0 0 0 0 0 0 0 0 0 0 0 0 0 0 0 0 0 127 0"/>
<feOffset dy="3"/>
<feGaussianBlur stdDeviation="5"/>
<feColorMatrix type="matrix" values="0 0 0 0 0 0 0 0 0 0 0 0 0 0 0 0 0 0 0.1 0"/>
<feBlend mode="normal" in2="BackgroundImageFix" result="effect1_dropShadow"/>
<feBlend mode="normal" in="SourceGraphic" in2="effect1_dropShadow" result="shape"/>
</filter>
<filter id="filter3_d" x="185" y="130" width="320" height="100" filterUnits="userSpaceOnUse" color-interpolation-filters="sRGB">
<feFlood flood-opacity="0" result="BackgroundImageFix"/>
<feColorMatrix in="SourceAlpha" type="matrix" values="0 0 0 0 0 0 0 0 0 0 0 0 0 0 0 0 0 0 127 0"/>
<feOffset dy="3"/>
<feGaussianBlur stdDeviation="5"/>
<feColorMatrix type="matrix" values="0 0 0 0 0 0 0 0 0 0 0 0 0 0 0 0 0 0 0.1 0"/>
<feBlend mode="normal" in2="BackgroundImageFix" result="effect1_dropShadow"/>
<feBlend mode="normal" in="SourceGraphic" in2="effect1_dropShadow" result="shape"/>
</filter>
<filter id="filter4_d" x="555" y="130" width="320" height="100" filterUnits="userSpaceOnUse" color-interpolation-filters="sRGB">
<feFlood flood-opacity="0" result="BackgroundImageFix"/>
<feColorMatrix in="SourceAlpha" type="matrix" values="0 0 0 0 0 0 0 0 0 0 0 0 0 0 0 0 0 0 127 0"/>
<feOffset dy="3"/>
<feGaussianBlur stdDeviation="5"/>
<feColorMatrix type="matrix" values="0 0 0 0 0 0 0 0 0 0 0 0 0 0 0 0 0 0 0.1 0"/>
<feBlend mode="normal" in2="BackgroundImageFix" result="effect1_dropShadow"/>
<feBlend mode="normal" in="SourceGraphic" in2="effect1_dropShadow" result="shape"/>
</filter>
<linearGradient id="paint0_linear" x1="68.5676" y1="46.8758" x2="74.5483" y2="50.2732" gradientUnits="userSpaceOnUse">
<stop stop-color="#136BDE"/>
<stop offset="1" stop-color="#68ADFD"/>
</linearGradient>
<linearGradient id="paint1_linear" x1="76.9006" y1="46.8758" x2="82.8812" y2="50.2732" gradientUnits="userSpaceOnUse">
<stop stop-color="#136BDE"/>
<stop offset="1" stop-color="#68ADFD"/>
</linearGradient>
<linearGradient id="paint2_linear" x1="70.4686" y1="40.8605" x2="75.2706" y2="48.1346" gradientUnits="userSpaceOnUse">
<stop stop-color="#136BDE"/>
<stop offset="1" stop-color="#68ADFD"/>
</linearGradient>
<linearGradient id="paint3_linear" x1="444.764" y1="62.5793" x2="448.324" y2="68.1503" gradientUnits="userSpaceOnUse">
<stop stop-color="#136BDE"/>
<stop offset="1" stop-color="#68ADFD"/>
</linearGradient>
<linearGradient id="paint4_linear" x1="436.144" y1="36.743" x2="454.392" y2="57.6552" gradientUnits="userSpaceOnUse">
<stop stop-color="#136BDE"/>
<stop offset="1" stop-color="#68ADFD"/>
</linearGradient>
<linearGradient id="paint5_linear" x1="812.388" y1="61.1847" x2="820.626" y2="61.4744" gradientUnits="userSpaceOnUse">
<stop stop-color="#136BDE"/>
<stop offset="1" stop-color="#68ADFD"/>
</linearGradient>
<linearGradient id="paint6_linear" x1="812.388" y1="61.1847" x2="820.626" y2="61.4744" gradientUnits="userSpaceOnUse">
<stop stop-color="#136BDE"/>
<stop offset="1" stop-color="#68ADFD"/>
</linearGradient>
<linearGradient id="paint7_linear" x1="812.388" y1="61.1847" x2="820.626" y2="61.4744" gradientUnits="userSpaceOnUse">
<stop stop-color="#136BDE"/>
<stop offset="1" stop-color="#68ADFD"/>
</linearGradient>
<linearGradient id="paint8_linear" x1="636.854" y1="158.376" x2="642.576" y2="165.032" gradientUnits="userSpaceOnUse">
<stop stop-color="#136BDE"/>
<stop offset="1" stop-color="#68ADFD"/>
</linearGradient>
<linearGradient id="paint9_linear" x1="630.138" y1="181.208" x2="634.354" y2="183.655" gradientUnits="userSpaceOnUse">
<stop stop-color="#136BDE"/>
<stop offset="1" stop-color="#68ADFD"/>
</linearGradient>
<linearGradient id="paint10_linear" x1="255.562" y1="176.366" x2="268.406" y2="185.248" gradientUnits="userSpaceOnUse">
<stop stop-color="#136BDE"/>
<stop offset="1" stop-color="#68ADFD"/>
</linearGradient>
<linearGradient id="paint11_linear" x1="275.562" y1="176.52" x2="288.369" y2="185.415" gradientUnits="userSpaceOnUse">
<stop stop-color="#136BDE"/>
<stop offset="1" stop-color="#68ADFD"/>
</linearGradient>
</defs>
</svg>
