<svg width="351" height="541" viewBox="0 0 351 541" fill="none" xmlns="http://www.w3.org/2000/svg">
<g clip-path="url(#clip0)">
<rect x="-11" y="-832" width="375" height="5172" fill="white"/>
<g filter="url(#filter0_d)">
<rect x="14" y="6" width="325" height="80" rx="5" fill="white"/>
</g>
<g filter="url(#filter1_d)">
<rect x="14" y="116" width="325" height="80" rx="5" fill="white"/>
</g>
<g filter="url(#filter2_d)">
<rect x="14" y="446" width="325" height="80" rx="5" fill="white"/>
</g>
<g filter="url(#filter3_d)">
<rect x="14" y="336" width="325" height="80" rx="5" fill="white"/>
</g>
<g filter="url(#filter4_d)">
<rect x="14" y="226" width="325" height="80" rx="5" fill="white"/>
</g>
<path d="M145.31 46.81C145.803 46.81 146.233 46.75 146.6 46.63C146.967 46.5033 147.27 46.3267 147.51 46.1C147.757 45.8667 147.94 45.5867 148.06 45.26C148.18 44.9267 148.24 44.5567 148.24 44.15C148.24 43.7633 148.18 43.4133 148.06 43.1C147.94 42.7867 147.76 42.52 147.52 42.3C147.28 42.08 146.977 41.9133 146.61 41.8C146.243 41.68 145.81 41.62 145.31 41.62H143.3V46.81H145.31ZM145.31 39.54C146.277 39.54 147.113 39.6533 147.82 39.88C148.527 40.1067 149.11 40.4233 149.57 40.83C150.03 41.2367 150.37 41.7233 150.59 42.29C150.817 42.8567 150.93 43.4767 150.93 44.15C150.93 44.85 150.813 45.4933 150.58 46.08C150.347 46.66 149.997 47.16 149.53 47.58C149.063 48 148.477 48.3267 147.77 48.56C147.07 48.7933 146.25 48.91 145.31 48.91H143.3V54H140.61V39.54H145.31ZM154.777 45.52C155.097 44.9067 155.477 44.4267 155.917 44.08C156.357 43.7267 156.877 43.55 157.477 43.55C157.95 43.55 158.33 43.6533 158.617 43.86L158.457 45.71C158.423 45.83 158.373 45.9167 158.307 45.97C158.247 46.0167 158.163 46.04 158.057 46.04C157.957 46.04 157.807 46.0233 157.607 45.99C157.413 45.9567 157.223 45.94 157.037 45.94C156.763 45.94 156.52 45.98 156.307 46.06C156.093 46.14 155.9 46.2567 155.727 46.41C155.56 46.5567 155.41 46.7367 155.277 46.95C155.15 47.1633 155.03 47.4067 154.917 47.68V54H152.447V43.74H153.897C154.15 43.74 154.327 43.7867 154.427 43.88C154.527 43.9667 154.593 44.1267 154.627 44.36L154.777 45.52ZM164.155 43.58C164.915 43.58 165.605 43.7033 166.225 43.95C166.851 44.1967 167.385 44.5467 167.825 45C168.271 45.4533 168.615 46.0067 168.855 46.66C169.095 47.3133 169.215 48.0433 169.215 48.85C169.215 49.6633 169.095 50.3967 168.855 51.05C168.615 51.7033 168.271 52.26 167.825 52.72C167.385 53.18 166.851 53.5333 166.225 53.78C165.605 54.0267 164.915 54.15 164.155 54.15C163.388 54.15 162.691 54.0267 162.065 53.78C161.438 53.5333 160.901 53.18 160.455 52.72C160.015 52.26 159.671 51.7033 159.425 51.05C159.185 50.3967 159.065 49.6633 159.065 48.85C159.065 48.0433 159.185 47.3133 159.425 46.66C159.671 46.0067 160.015 45.4533 160.455 45C160.901 44.5467 161.438 44.1967 162.065 43.95C162.691 43.7033 163.388 43.58 164.155 43.58ZM164.155 52.25C165.008 52.25 165.638 51.9633 166.045 51.39C166.458 50.8167 166.665 49.9767 166.665 48.87C166.665 47.7633 166.458 46.92 166.045 46.34C165.638 45.76 165.008 45.47 164.155 45.47C163.288 45.47 162.645 45.7633 162.225 46.35C161.811 46.93 161.605 47.77 161.605 48.87C161.605 49.97 161.811 50.81 162.225 51.39C162.645 51.9633 163.288 52.25 164.155 52.25ZM177.539 46.36C177.259 46.02 176.952 45.78 176.619 45.64C176.292 45.5 175.939 45.43 175.559 45.43C175.186 45.43 174.849 45.5 174.549 45.64C174.249 45.78 173.992 45.9933 173.779 46.28C173.566 46.56 173.402 46.92 173.289 47.36C173.176 47.7933 173.119 48.3067 173.119 48.9C173.119 49.5 173.166 50.01 173.259 50.43C173.359 50.8433 173.499 51.1833 173.679 51.45C173.859 51.71 174.079 51.9 174.339 52.02C174.599 52.1333 174.889 52.19 175.209 52.19C175.722 52.19 176.159 52.0833 176.519 51.87C176.879 51.6567 177.219 51.3533 177.539 50.96V46.36ZM180.009 39.14V54H178.499C178.172 54 177.966 53.85 177.879 53.55L177.669 52.56C177.256 53.0333 176.779 53.4167 176.239 53.71C175.706 54.0033 175.082 54.15 174.369 54.15C173.809 54.15 173.296 54.0333 172.829 53.8C172.362 53.5667 171.959 53.23 171.619 52.79C171.286 52.3433 171.026 51.7933 170.839 51.14C170.659 50.4867 170.569 49.74 170.569 48.9C170.569 48.14 170.672 47.4333 170.879 46.78C171.086 46.1267 171.382 45.56 171.769 45.08C172.156 44.6 172.619 44.2267 173.159 43.96C173.699 43.6867 174.306 43.55 174.979 43.55C175.552 43.55 176.042 43.64 176.449 43.82C176.856 44 177.219 44.2433 177.539 44.55V39.14H180.009ZM191.287 43.74V54H189.777C189.45 54 189.243 53.85 189.157 53.55L188.987 52.73C188.567 53.1567 188.103 53.5033 187.597 53.77C187.09 54.03 186.493 54.16 185.807 54.16C185.247 54.16 184.75 54.0667 184.317 53.88C183.89 53.6867 183.53 53.4167 183.237 53.07C182.943 52.7233 182.72 52.3133 182.567 51.84C182.42 51.36 182.347 50.8333 182.347 50.26V43.74H184.817V50.26C184.817 50.8867 184.96 51.3733 185.247 51.72C185.54 52.06 185.977 52.23 186.557 52.23C186.983 52.23 187.383 52.1367 187.757 51.95C188.13 51.7567 188.483 51.4933 188.817 51.16V43.74H191.287ZM201.086 45.91C201.012 46.0033 200.939 46.0767 200.866 46.13C200.799 46.1833 200.699 46.21 200.566 46.21C200.439 46.21 200.316 46.1733 200.196 46.1C200.076 46.02 199.932 45.9333 199.766 45.84C199.599 45.74 199.399 45.6533 199.166 45.58C198.939 45.5 198.656 45.46 198.316 45.46C197.882 45.46 197.502 45.54 197.176 45.7C196.849 45.8533 196.576 46.0767 196.356 46.37C196.142 46.6633 195.982 47.02 195.876 47.44C195.769 47.8533 195.716 48.3233 195.716 48.85C195.716 49.3967 195.772 49.8833 195.886 50.31C196.006 50.7367 196.176 51.0967 196.396 51.39C196.616 51.6767 196.882 51.8967 197.196 52.05C197.509 52.1967 197.862 52.27 198.256 52.27C198.649 52.27 198.966 52.2233 199.206 52.13C199.452 52.03 199.659 51.9233 199.826 51.81C199.992 51.69 200.136 51.5833 200.256 51.49C200.382 51.39 200.522 51.34 200.676 51.34C200.876 51.34 201.026 51.4167 201.126 51.57L201.836 52.47C201.562 52.79 201.266 53.06 200.946 53.28C200.626 53.4933 200.292 53.6667 199.946 53.8C199.606 53.9267 199.252 54.0167 198.886 54.07C198.526 54.1233 198.166 54.15 197.806 54.15C197.172 54.15 196.576 54.0333 196.016 53.8C195.456 53.56 194.966 53.2133 194.546 52.76C194.126 52.3067 193.792 51.7533 193.546 51.1C193.306 50.44 193.186 49.69 193.186 48.85C193.186 48.0967 193.292 47.4 193.506 46.76C193.726 46.1133 194.046 45.5567 194.466 45.09C194.886 44.6167 195.406 44.2467 196.026 43.98C196.646 43.7133 197.359 43.58 198.166 43.58C198.932 43.58 199.602 43.7033 200.176 43.95C200.756 44.1967 201.276 44.55 201.736 45.01L201.086 45.91ZM206.804 54.16C205.911 54.16 205.224 53.91 204.744 53.41C204.271 52.9033 204.034 52.2067 204.034 51.32V45.59H202.984C202.851 45.59 202.737 45.5467 202.644 45.46C202.551 45.3733 202.504 45.2433 202.504 45.07V44.09L204.154 43.82L204.674 41.02C204.707 40.8867 204.771 40.7833 204.864 40.71C204.957 40.6367 205.077 40.6 205.224 40.6H206.504V43.83H209.244V45.59H206.504V51.15C206.504 51.47 206.581 51.72 206.734 51.9C206.894 52.08 207.111 52.17 207.384 52.17C207.537 52.17 207.664 52.1533 207.764 52.12C207.871 52.08 207.961 52.04 208.034 52C208.114 51.96 208.184 51.9233 208.244 51.89C208.304 51.85 208.364 51.83 208.424 51.83C208.497 51.83 208.557 51.85 208.604 51.89C208.651 51.9233 208.701 51.9767 208.754 52.05L209.494 53.25C209.134 53.55 208.721 53.7767 208.254 53.93C207.787 54.0833 207.304 54.16 206.804 54.16ZM218.779 41.68V45.96H224.199V48.11H218.779V54H216.079V39.54H225.199V41.68H218.779ZM230.658 43.58C231.418 43.58 232.108 43.7033 232.728 43.95C233.355 44.1967 233.888 44.5467 234.328 45C234.775 45.4533 235.118 46.0067 235.358 46.66C235.598 47.3133 235.718 48.0433 235.718 48.85C235.718 49.6633 235.598 50.3967 235.358 51.05C235.118 51.7033 234.775 52.26 234.328 52.72C233.888 53.18 233.355 53.5333 232.728 53.78C232.108 54.0267 231.418 54.15 230.658 54.15C229.892 54.15 229.195 54.0267 228.568 53.78C227.942 53.5333 227.405 53.18 226.958 52.72C226.518 52.26 226.175 51.7033 225.928 51.05C225.688 50.3967 225.568 49.6633 225.568 48.85C225.568 48.0433 225.688 47.3133 225.928 46.66C226.175 46.0067 226.518 45.4533 226.958 45C227.405 44.5467 227.942 44.1967 228.568 43.95C229.195 43.7033 229.892 43.58 230.658 43.58ZM230.658 52.25C231.512 52.25 232.142 51.9633 232.548 51.39C232.962 50.8167 233.168 49.9767 233.168 48.87C233.168 47.7633 232.962 46.92 232.548 46.34C232.142 45.76 231.512 45.47 230.658 45.47C229.792 45.47 229.148 45.7633 228.728 46.35C228.315 46.93 228.108 47.77 228.108 48.87C228.108 49.97 228.315 50.81 228.728 51.39C229.148 51.9633 229.792 52.25 230.658 52.25ZM244.953 45.91C244.879 46.0033 244.806 46.0767 244.733 46.13C244.666 46.1833 244.566 46.21 244.433 46.21C244.306 46.21 244.183 46.1733 244.063 46.1C243.943 46.02 243.799 45.9333 243.633 45.84C243.466 45.74 243.266 45.6533 243.033 45.58C242.806 45.5 242.523 45.46 242.183 45.46C241.749 45.46 241.369 45.54 241.043 45.7C240.716 45.8533 240.443 46.0767 240.223 46.37C240.009 46.6633 239.849 47.02 239.743 47.44C239.636 47.8533 239.583 48.3233 239.583 48.85C239.583 49.3967 239.639 49.8833 239.753 50.31C239.873 50.7367 240.043 51.0967 240.263 51.39C240.483 51.6767 240.749 51.8967 241.063 52.05C241.376 52.1967 241.729 52.27 242.123 52.27C242.516 52.27 242.833 52.2233 243.073 52.13C243.319 52.03 243.526 51.9233 243.693 51.81C243.859 51.69 244.003 51.5833 244.123 51.49C244.249 51.39 244.389 51.34 244.543 51.34C244.743 51.34 244.893 51.4167 244.993 51.57L245.703 52.47C245.429 52.79 245.133 53.06 244.813 53.28C244.493 53.4933 244.159 53.6667 243.813 53.8C243.473 53.9267 243.119 54.0167 242.753 54.07C242.393 54.1233 242.033 54.15 241.673 54.15C241.039 54.15 240.443 54.0333 239.883 53.8C239.323 53.56 238.833 53.2133 238.413 52.76C237.993 52.3067 237.659 51.7533 237.413 51.1C237.173 50.44 237.053 49.69 237.053 48.85C237.053 48.0967 237.159 47.4 237.373 46.76C237.593 46.1133 237.913 45.5567 238.333 45.09C238.753 44.6167 239.273 44.2467 239.893 43.98C240.513 43.7133 241.226 43.58 242.033 43.58C242.799 43.58 243.469 43.7033 244.043 43.95C244.623 44.1967 245.143 44.55 245.603 45.01L244.953 45.91ZM256.091 43.74V54H254.581C254.255 54 254.048 53.85 253.961 53.55L253.791 52.73C253.371 53.1567 252.908 53.5033 252.401 53.77C251.895 54.03 251.298 54.16 250.611 54.16C250.051 54.16 249.555 54.0667 249.121 53.88C248.695 53.6867 248.335 53.4167 248.041 53.07C247.748 52.7233 247.525 52.3133 247.371 51.84C247.225 51.36 247.151 50.8333 247.151 50.26V43.74H249.621V50.26C249.621 50.8867 249.765 51.3733 250.051 51.72C250.345 52.06 250.781 52.23 251.361 52.23C251.788 52.23 252.188 52.1367 252.561 51.95C252.935 51.7567 253.288 51.4933 253.621 51.16V43.74H256.091ZM264.8 45.74C264.734 45.8467 264.664 45.9233 264.59 45.97C264.517 46.01 264.424 46.03 264.31 46.03C264.19 46.03 264.06 45.9967 263.92 45.93C263.787 45.8633 263.63 45.79 263.45 45.71C263.27 45.6233 263.064 45.5467 262.83 45.48C262.604 45.4133 262.334 45.38 262.02 45.38C261.534 45.38 261.15 45.4833 260.87 45.69C260.597 45.8967 260.46 46.1667 260.46 46.5C260.46 46.72 260.53 46.9067 260.67 47.06C260.817 47.2067 261.007 47.3367 261.24 47.45C261.48 47.5633 261.75 47.6667 262.05 47.76C262.35 47.8467 262.654 47.9433 262.96 48.05C263.274 48.1567 263.58 48.28 263.88 48.42C264.18 48.5533 264.447 48.7267 264.68 48.94C264.92 49.1467 265.11 49.3967 265.25 49.69C265.397 49.9833 265.47 50.3367 265.47 50.75C265.47 51.2433 265.38 51.7 265.2 52.12C265.027 52.5333 264.767 52.8933 264.42 53.2C264.074 53.5 263.644 53.7367 263.13 53.91C262.624 54.0767 262.037 54.16 261.37 54.16C261.017 54.16 260.67 54.1267 260.33 54.06C259.997 54 259.674 53.9133 259.36 53.8C259.054 53.6867 258.767 53.5533 258.5 53.4C258.24 53.2467 258.01 53.08 257.81 52.9L258.38 51.96C258.454 51.8467 258.54 51.76 258.64 51.7C258.74 51.64 258.867 51.61 259.02 51.61C259.174 51.61 259.317 51.6533 259.45 51.74C259.59 51.8267 259.75 51.92 259.93 52.02C260.11 52.12 260.32 52.2133 260.56 52.3C260.807 52.3867 261.117 52.43 261.49 52.43C261.784 52.43 262.034 52.3967 262.24 52.33C262.454 52.2567 262.627 52.1633 262.76 52.05C262.9 51.9367 263 51.8067 263.06 51.66C263.127 51.5067 263.16 51.35 263.16 51.19C263.16 50.95 263.087 50.7533 262.94 50.6C262.8 50.4467 262.61 50.3133 262.37 50.2C262.137 50.0867 261.867 49.9867 261.56 49.9C261.26 49.8067 260.95 49.7067 260.63 49.6C260.317 49.4933 260.007 49.37 259.7 49.23C259.4 49.0833 259.13 48.9 258.89 48.68C258.657 48.46 258.467 48.19 258.32 47.87C258.18 47.55 258.11 47.1633 258.11 46.71C258.11 46.29 258.194 45.89 258.36 45.51C258.527 45.13 258.77 44.8 259.09 44.52C259.417 44.2333 259.82 44.0067 260.3 43.84C260.787 43.6667 261.347 43.58 261.98 43.58C262.687 43.58 263.33 43.6967 263.91 43.93C264.49 44.1633 264.974 44.47 265.36 44.85L264.8 45.74ZM273.939 47.69C273.939 47.37 273.893 47.07 273.799 46.79C273.713 46.5033 273.579 46.2533 273.399 46.04C273.219 45.8267 272.989 45.66 272.709 45.54C272.436 45.4133 272.116 45.35 271.749 45.35C271.036 45.35 270.473 45.5533 270.059 45.96C269.653 46.3667 269.393 46.9433 269.279 47.69H273.939ZM269.229 49.18C269.269 49.7067 269.363 50.1633 269.509 50.55C269.656 50.93 269.849 51.2467 270.089 51.5C270.329 51.7467 270.613 51.9333 270.939 52.06C271.273 52.18 271.639 52.24 272.039 52.24C272.439 52.24 272.783 52.1933 273.069 52.1C273.363 52.0067 273.616 51.9033 273.829 51.79C274.049 51.6767 274.239 51.5733 274.399 51.48C274.566 51.3867 274.726 51.34 274.879 51.34C275.086 51.34 275.239 51.4167 275.339 51.57L276.049 52.47C275.776 52.79 275.469 53.06 275.129 53.28C274.789 53.4933 274.433 53.6667 274.059 53.8C273.693 53.9267 273.316 54.0167 272.929 54.07C272.549 54.1233 272.179 54.15 271.819 54.15C271.106 54.15 270.443 54.0333 269.829 53.8C269.216 53.56 268.683 53.21 268.229 52.75C267.776 52.2833 267.419 51.71 267.159 51.03C266.899 50.3433 266.769 49.55 266.769 48.65C266.769 47.95 266.883 47.2933 267.109 46.68C267.336 46.06 267.659 45.5233 268.079 45.07C268.506 44.61 269.023 44.2467 269.629 43.98C270.243 43.7133 270.933 43.58 271.699 43.58C272.346 43.58 272.943 43.6833 273.489 43.89C274.036 44.0967 274.506 44.4 274.899 44.8C275.293 45.1933 275.599 45.68 275.819 46.26C276.046 46.8333 276.159 47.49 276.159 48.23C276.159 48.6033 276.119 48.8567 276.039 48.99C275.959 49.1167 275.806 49.18 275.579 49.18H269.229ZM284.453 46.36C284.173 46.02 283.866 45.78 283.533 45.64C283.206 45.5 282.853 45.43 282.473 45.43C282.1 45.43 281.763 45.5 281.463 45.64C281.163 45.78 280.906 45.9933 280.693 46.28C280.48 46.56 280.316 46.92 280.203 47.36C280.09 47.7933 280.033 48.3067 280.033 48.9C280.033 49.5 280.08 50.01 280.173 50.43C280.273 50.8433 280.413 51.1833 280.593 51.45C280.773 51.71 280.993 51.9 281.253 52.02C281.513 52.1333 281.803 52.19 282.123 52.19C282.636 52.19 283.073 52.0833 283.433 51.87C283.793 51.6567 284.133 51.3533 284.453 50.96V46.36ZM286.923 39.14V54H285.413C285.086 54 284.88 53.85 284.793 53.55L284.583 52.56C284.17 53.0333 283.693 53.4167 283.153 53.71C282.62 54.0033 281.996 54.15 281.283 54.15C280.723 54.15 280.21 54.0333 279.743 53.8C279.276 53.5667 278.873 53.23 278.533 52.79C278.2 52.3433 277.94 51.7933 277.753 51.14C277.573 50.4867 277.483 49.74 277.483 48.9C277.483 48.14 277.586 47.4333 277.793 46.78C278 46.1267 278.296 45.56 278.683 45.08C279.07 44.6 279.533 44.2267 280.073 43.96C280.613 43.6867 281.22 43.55 281.893 43.55C282.466 43.55 282.956 43.64 283.363 43.82C283.77 44 284.133 44.2433 284.453 44.55V39.14H286.923Z" fill="#6C7380"/>
<path d="M89 55.1478L80.6666 50.1478V41.8145L89 46.8144V55.1478Z" fill="url(#paint0_linear)"/>
<path d="M88.9996 55.1478L97.3329 50.1478V41.8145L88.9996 46.8144V55.1478Z" fill="url(#paint1_linear)"/>
<path d="M80.6666 41.8144L89 36.8145L97.3333 41.8144L89 46.8144L80.6666 41.8144Z" fill="url(#paint2_linear)"/>
<path d="M88.3331 33.9997L85.8331 30.6664L87.1664 29.6664L88.1664 30.9997V24.333H89.8331V30.9997L90.8331 29.6664L92.1664 30.6664L89.6664 33.9997C89.363 34.368 88.8197 34.4205 88.4513 34.118C88.4081 34.0822 88.3689 34.043 88.3331 33.9997Z" fill="#FF6BC1"/>
<path d="M89.8331 22.666H88.1664V20.9993H89.8331V22.666Z" fill="#FF6BC1"/>
<path d="M89.8331 60.9818V67.6484H88.1664V60.9818L87.1664 62.3151L85.8331 61.3151L88.3331 57.9818C88.609 57.6134 89.1315 57.5393 89.4998 57.8151C89.5632 57.8625 89.619 57.9184 89.6665 57.9818L92.1665 61.3151L90.8332 62.3151L89.8331 60.9818Z" fill="#FF6BC1"/>
<path d="M89.8331 70.9814H88.1664V69.3148H89.8331V70.9814Z" fill="#FF6BC1"/>
<path d="M67.3335 46.8144V45.1477H74.0001L72.6668 44.1478L73.6668 42.8145L77.0001 45.3144C77.3685 45.5903 77.4426 46.1128 77.1668 46.4811C77.1194 46.5445 77.0635 46.6003 77.0001 46.6478L73.6668 49.1478L72.6668 47.8145L74.0001 46.8145H67.3335V46.8144Z" fill="#FF6BC1"/>
<path d="M65.6667 45.1484H64V46.8151H65.6667V45.1484Z" fill="#FF6BC1"/>
<path d="M101 45.3144L104.334 42.8145L105.334 44.1478L104 45.1477H110.667V46.8144H104L105.334 47.8144L104.334 49.1477L101 46.6477C100.632 46.3719 100.558 45.8494 100.834 45.481C100.881 45.4178 100.937 45.362 101 45.3144Z" fill="#FF6BC1"/>
<path d="M112.334 45.1484H114V46.8151H112.334V45.1484Z" fill="#FF6BC1"/>
<path d="M79.0853 33.4789L79.3203 35.128L74.6069 30.4146L73.4286 31.5929L78.1419 36.3063L76.4928 36.0714L76.257 37.7213L80.3811 38.3122C80.8361 38.3796 81.2603 38.0655 81.3278 37.6105C81.3394 37.5296 81.3394 37.4471 81.3278 37.3655L80.7386 33.2414L79.0853 33.4789Z" fill="#FF6BC1"/>
<path d="M72.2531 28.0559L71.0746 29.2344L72.2531 30.4129L73.4316 29.2344L72.2531 28.0559Z" fill="#FF6BC1"/>
<path d="M98.9099 58.4797L98.6749 56.8306L103.388 61.5439L104.567 60.3656L99.8532 55.6523L101.501 55.8889L101.737 54.2389L97.6124 53.6497C97.5732 53.6439 97.5341 53.6414 97.494 53.6414C97.0341 53.6414 96.6607 54.0148 96.6607 54.4747C96.6607 54.5148 96.6633 54.5539 96.669 54.5931L97.2582 58.7172L98.9099 58.4797Z" fill="#FF6BC1"/>
<path d="M105.744 61.5461L104.566 62.7246L105.744 63.9031L106.923 62.7246L105.744 61.5461Z" fill="#FF6BC1"/>
<path d="M74.6157 61.5459L79.329 56.8325L79.094 58.4816L80.744 58.7176L81.3365 54.5935C81.4015 54.1376 81.0856 53.7159 80.6298 53.6501C80.5907 53.6443 80.5506 53.6418 80.5115 53.6418C80.4714 53.6418 80.4323 53.6444 80.3931 53.6501L76.269 54.2393L76.5049 55.8893L78.154 55.6543L73.4406 60.3677L74.6157 61.5459Z" fill="#FF6BC1"/>
<path d="M72.253 61.5461L71.0745 62.7246L72.253 63.9031L73.4315 62.7246L72.253 61.5461Z" fill="#FF6BC1"/>
<path d="M103.387 30.4149L98.6733 35.1283L98.9083 33.4808L97.2583 33.245L96.6691 37.3691C96.6316 37.6291 96.7191 37.8908 96.905 38.0766C97.0899 38.2632 97.3524 38.3507 97.6125 38.3125L101.737 37.7233L101.501 36.0733L99.8516 36.3083L104.565 31.5949L103.387 30.4149Z" fill="#FF6BC1"/>
<path d="M105.743 28.0578L104.564 29.2363L105.743 30.4148L106.921 29.2363L105.743 28.0578Z" fill="#FF6BC1"/>
<path d="M145.31 156.81C145.803 156.81 146.233 156.75 146.6 156.63C146.967 156.503 147.27 156.327 147.51 156.1C147.757 155.867 147.94 155.587 148.06 155.26C148.18 154.927 148.24 154.557 148.24 154.15C148.24 153.763 148.18 153.413 148.06 153.1C147.94 152.787 147.76 152.52 147.52 152.3C147.28 152.08 146.977 151.913 146.61 151.8C146.243 151.68 145.81 151.62 145.31 151.62H143.3V156.81H145.31ZM145.31 149.54C146.277 149.54 147.113 149.653 147.82 149.88C148.527 150.107 149.11 150.423 149.57 150.83C150.03 151.237 150.37 151.723 150.59 152.29C150.817 152.857 150.93 153.477 150.93 154.15C150.93 154.85 150.813 155.493 150.58 156.08C150.347 156.66 149.997 157.16 149.53 157.58C149.063 158 148.477 158.327 147.77 158.56C147.07 158.793 146.25 158.91 145.31 158.91H143.3V164H140.61V149.54H145.31ZM157.71 159.62C156.997 159.653 156.397 159.717 155.91 159.81C155.424 159.897 155.034 160.01 154.74 160.15C154.447 160.29 154.237 160.453 154.11 160.64C153.984 160.827 153.92 161.03 153.92 161.25C153.92 161.683 154.047 161.993 154.3 162.18C154.56 162.367 154.897 162.46 155.31 162.46C155.817 162.46 156.254 162.37 156.62 162.19C156.994 162.003 157.357 161.723 157.71 161.35V159.62ZM152.05 155.17C153.23 154.09 154.65 153.55 156.31 153.55C156.91 153.55 157.447 153.65 157.92 153.85C158.394 154.043 158.794 154.317 159.12 154.67C159.447 155.017 159.694 155.433 159.86 155.92C160.034 156.407 160.12 156.94 160.12 157.52V164H159C158.767 164 158.587 163.967 158.46 163.9C158.334 163.827 158.234 163.683 158.16 163.47L157.94 162.73C157.68 162.963 157.427 163.17 157.18 163.35C156.934 163.523 156.677 163.67 156.41 163.79C156.144 163.91 155.857 164 155.55 164.06C155.25 164.127 154.917 164.16 154.55 164.16C154.117 164.16 153.717 164.103 153.35 163.99C152.984 163.87 152.667 163.693 152.4 163.46C152.134 163.227 151.927 162.937 151.78 162.59C151.634 162.243 151.56 161.84 151.56 161.38C151.56 161.12 151.604 160.863 151.69 160.61C151.777 160.35 151.917 160.103 152.11 159.87C152.31 159.637 152.567 159.417 152.88 159.21C153.194 159.003 153.577 158.823 154.03 158.67C154.49 158.517 155.024 158.393 155.63 158.3C156.237 158.2 156.93 158.14 157.71 158.12V157.52C157.71 156.833 157.564 156.327 157.27 156C156.977 155.667 156.554 155.5 156 155.5C155.6 155.5 155.267 155.547 155 155.64C154.74 155.733 154.51 155.84 154.31 155.96C154.11 156.073 153.927 156.177 153.76 156.27C153.6 156.363 153.42 156.41 153.22 156.41C153.047 156.41 152.9 156.367 152.78 156.28C152.66 156.187 152.564 156.08 152.49 155.96L152.05 155.17ZM168.707 155.74C168.64 155.847 168.57 155.923 168.497 155.97C168.423 156.01 168.33 156.03 168.217 156.03C168.097 156.03 167.967 155.997 167.827 155.93C167.693 155.863 167.537 155.79 167.357 155.71C167.177 155.623 166.97 155.547 166.737 155.48C166.51 155.413 166.24 155.38 165.927 155.38C165.44 155.38 165.057 155.483 164.777 155.69C164.503 155.897 164.367 156.167 164.367 156.5C164.367 156.72 164.437 156.907 164.577 157.06C164.723 157.207 164.913 157.337 165.147 157.45C165.387 157.563 165.657 157.667 165.957 157.76C166.257 157.847 166.56 157.943 166.867 158.05C167.18 158.157 167.487 158.28 167.787 158.42C168.087 158.553 168.353 158.727 168.587 158.94C168.827 159.147 169.017 159.397 169.157 159.69C169.303 159.983 169.377 160.337 169.377 160.75C169.377 161.243 169.287 161.7 169.107 162.12C168.933 162.533 168.673 162.893 168.327 163.2C167.98 163.5 167.55 163.737 167.037 163.91C166.53 164.077 165.943 164.16 165.277 164.16C164.923 164.16 164.577 164.127 164.237 164.06C163.903 164 163.58 163.913 163.267 163.8C162.96 163.687 162.673 163.553 162.407 163.4C162.147 163.247 161.917 163.08 161.717 162.9L162.287 161.96C162.36 161.847 162.447 161.76 162.547 161.7C162.647 161.64 162.773 161.61 162.927 161.61C163.08 161.61 163.223 161.653 163.357 161.74C163.497 161.827 163.657 161.92 163.837 162.02C164.017 162.12 164.227 162.213 164.467 162.3C164.713 162.387 165.023 162.43 165.397 162.43C165.69 162.43 165.94 162.397 166.147 162.33C166.36 162.257 166.533 162.163 166.667 162.05C166.807 161.937 166.907 161.807 166.967 161.66C167.033 161.507 167.067 161.35 167.067 161.19C167.067 160.95 166.993 160.753 166.847 160.6C166.707 160.447 166.517 160.313 166.277 160.2C166.043 160.087 165.773 159.987 165.467 159.9C165.167 159.807 164.857 159.707 164.537 159.6C164.223 159.493 163.913 159.37 163.607 159.23C163.307 159.083 163.037 158.9 162.797 158.68C162.563 158.46 162.373 158.19 162.227 157.87C162.087 157.55 162.017 157.163 162.017 156.71C162.017 156.29 162.1 155.89 162.267 155.51C162.433 155.13 162.677 154.8 162.997 154.52C163.323 154.233 163.727 154.007 164.207 153.84C164.693 153.667 165.253 153.58 165.887 153.58C166.593 153.58 167.237 153.697 167.817 153.93C168.397 154.163 168.88 154.47 169.267 154.85L168.707 155.74ZM177.496 155.74C177.429 155.847 177.359 155.923 177.286 155.97C177.212 156.01 177.119 156.03 177.006 156.03C176.886 156.03 176.756 155.997 176.616 155.93C176.482 155.863 176.326 155.79 176.146 155.71C175.966 155.623 175.759 155.547 175.526 155.48C175.299 155.413 175.029 155.38 174.716 155.38C174.229 155.38 173.846 155.483 173.566 155.69C173.292 155.897 173.156 156.167 173.156 156.5C173.156 156.72 173.226 156.907 173.366 157.06C173.512 157.207 173.702 157.337 173.936 157.45C174.176 157.563 174.446 157.667 174.746 157.76C175.046 157.847 175.349 157.943 175.656 158.05C175.969 158.157 176.276 158.28 176.576 158.42C176.876 158.553 177.142 158.727 177.376 158.94C177.616 159.147 177.806 159.397 177.946 159.69C178.092 159.983 178.166 160.337 178.166 160.75C178.166 161.243 178.076 161.7 177.896 162.12C177.722 162.533 177.462 162.893 177.116 163.2C176.769 163.5 176.339 163.737 175.826 163.91C175.319 164.077 174.732 164.16 174.066 164.16C173.712 164.16 173.366 164.127 173.026 164.06C172.692 164 172.369 163.913 172.056 163.8C171.749 163.687 171.462 163.553 171.196 163.4C170.936 163.247 170.706 163.08 170.506 162.9L171.076 161.96C171.149 161.847 171.236 161.76 171.336 161.7C171.436 161.64 171.562 161.61 171.716 161.61C171.869 161.61 172.012 161.653 172.146 161.74C172.286 161.827 172.446 161.92 172.626 162.02C172.806 162.12 173.016 162.213 173.256 162.3C173.502 162.387 173.812 162.43 174.186 162.43C174.479 162.43 174.729 162.397 174.936 162.33C175.149 162.257 175.322 162.163 175.456 162.05C175.596 161.937 175.696 161.807 175.756 161.66C175.822 161.507 175.856 161.35 175.856 161.19C175.856 160.95 175.782 160.753 175.636 160.6C175.496 160.447 175.306 160.313 175.066 160.2C174.832 160.087 174.562 159.987 174.256 159.9C173.956 159.807 173.646 159.707 173.326 159.6C173.012 159.493 172.702 159.37 172.396 159.23C172.096 159.083 171.826 158.9 171.586 158.68C171.352 158.46 171.162 158.19 171.016 157.87C170.876 157.55 170.806 157.163 170.806 156.71C170.806 156.29 170.889 155.89 171.056 155.51C171.222 155.13 171.466 154.8 171.786 154.52C172.112 154.233 172.516 154.007 172.996 153.84C173.482 153.667 174.042 153.58 174.676 153.58C175.382 153.58 176.026 153.697 176.606 153.93C177.186 154.163 177.669 154.47 178.056 154.85L177.496 155.74ZM182.585 153.74V164H180.105V153.74H182.585ZM182.925 150.75C182.925 150.963 182.881 151.163 182.795 151.35C182.708 151.537 182.591 151.7 182.445 151.84C182.305 151.98 182.138 152.093 181.945 152.18C181.751 152.26 181.545 152.3 181.325 152.3C181.111 152.3 180.908 152.26 180.715 152.18C180.528 152.093 180.365 151.98 180.225 151.84C180.085 151.7 179.971 151.537 179.885 151.35C179.805 151.163 179.765 150.963 179.765 150.75C179.765 150.53 179.805 150.323 179.885 150.13C179.971 149.937 180.085 149.77 180.225 149.63C180.365 149.49 180.528 149.38 180.715 149.3C180.908 149.213 181.111 149.17 181.325 149.17C181.545 149.17 181.751 149.213 181.945 149.3C182.138 149.38 182.305 149.49 182.445 149.63C182.591 149.77 182.708 149.937 182.795 150.13C182.881 150.323 182.925 150.53 182.925 150.75ZM189.643 153.58C190.403 153.58 191.093 153.703 191.713 153.95C192.339 154.197 192.873 154.547 193.313 155C193.759 155.453 194.103 156.007 194.343 156.66C194.583 157.313 194.703 158.043 194.703 158.85C194.703 159.663 194.583 160.397 194.343 161.05C194.103 161.703 193.759 162.26 193.313 162.72C192.873 163.18 192.339 163.533 191.713 163.78C191.093 164.027 190.403 164.15 189.643 164.15C188.876 164.15 188.179 164.027 187.553 163.78C186.926 163.533 186.389 163.18 185.943 162.72C185.503 162.26 185.159 161.703 184.913 161.05C184.673 160.397 184.553 159.663 184.553 158.85C184.553 158.043 184.673 157.313 184.913 156.66C185.159 156.007 185.503 155.453 185.943 155C186.389 154.547 186.926 154.197 187.553 153.95C188.179 153.703 188.876 153.58 189.643 153.58ZM189.643 162.25C190.496 162.25 191.126 161.963 191.533 161.39C191.946 160.817 192.153 159.977 192.153 158.87C192.153 157.763 191.946 156.92 191.533 156.34C191.126 155.76 190.496 155.47 189.643 155.47C188.776 155.47 188.133 155.763 187.713 156.35C187.299 156.93 187.093 157.77 187.093 158.87C187.093 159.97 187.299 160.81 187.713 161.39C188.133 161.963 188.776 162.25 189.643 162.25ZM198.897 155C199.104 154.793 199.321 154.603 199.547 154.43C199.781 154.25 200.024 154.1 200.277 153.98C200.537 153.853 200.814 153.757 201.107 153.69C201.401 153.617 201.721 153.58 202.067 153.58C202.627 153.58 203.124 153.677 203.557 153.87C203.991 154.057 204.351 154.323 204.637 154.67C204.931 155.01 205.151 155.42 205.297 155.9C205.451 156.373 205.527 156.897 205.527 157.47V164H203.057V157.47C203.057 156.843 202.914 156.36 202.627 156.02C202.341 155.673 201.904 155.5 201.317 155.5C200.891 155.5 200.491 155.597 200.117 155.79C199.744 155.983 199.391 156.247 199.057 156.58V164H196.587V153.74H198.097C198.417 153.74 198.627 153.89 198.727 154.19L198.897 155ZM213.46 164V155.6L212.57 155.46C212.376 155.42 212.22 155.353 212.1 155.26C211.986 155.16 211.93 155.02 211.93 154.84V153.83H213.46V153.07C213.46 152.483 213.546 151.957 213.72 151.49C213.9 151.023 214.153 150.627 214.48 150.3C214.813 149.973 215.216 149.723 215.69 149.55C216.163 149.377 216.696 149.29 217.29 149.29C217.763 149.29 218.203 149.353 218.61 149.48L218.56 150.72C218.553 150.813 218.526 150.89 218.48 150.95C218.433 151.003 218.37 151.047 218.29 151.08C218.216 151.107 218.13 151.127 218.03 151.14C217.93 151.147 217.823 151.15 217.71 151.15C217.416 151.15 217.153 151.183 216.92 151.25C216.693 151.31 216.5 151.42 216.34 151.58C216.18 151.733 216.056 151.94 215.97 152.2C215.89 152.453 215.85 152.77 215.85 153.15V153.83H218.52V155.59H215.93V164H213.46ZM224.174 153.58C224.934 153.58 225.624 153.703 226.244 153.95C226.871 154.197 227.404 154.547 227.844 155C228.291 155.453 228.634 156.007 228.874 156.66C229.114 157.313 229.234 158.043 229.234 158.85C229.234 159.663 229.114 160.397 228.874 161.05C228.634 161.703 228.291 162.26 227.844 162.72C227.404 163.18 226.871 163.533 226.244 163.78C225.624 164.027 224.934 164.15 224.174 164.15C223.407 164.15 222.711 164.027 222.084 163.78C221.457 163.533 220.921 163.18 220.474 162.72C220.034 162.26 219.691 161.703 219.444 161.05C219.204 160.397 219.084 159.663 219.084 158.85C219.084 158.043 219.204 157.313 219.444 156.66C219.691 156.007 220.034 155.453 220.474 155C220.921 154.547 221.457 154.197 222.084 153.95C222.711 153.703 223.407 153.58 224.174 153.58ZM224.174 162.25C225.027 162.25 225.657 161.963 226.064 161.39C226.477 160.817 226.684 159.977 226.684 158.87C226.684 157.763 226.477 156.92 226.064 156.34C225.657 155.76 225.027 155.47 224.174 155.47C223.307 155.47 222.664 155.763 222.244 156.35C221.831 156.93 221.624 157.77 221.624 158.87C221.624 159.97 221.831 160.81 222.244 161.39C222.664 161.963 223.307 162.25 224.174 162.25ZM233.448 155.52C233.768 154.907 234.148 154.427 234.588 154.08C235.028 153.727 235.548 153.55 236.148 153.55C236.622 153.55 237.002 153.653 237.288 153.86L237.128 155.71C237.095 155.83 237.045 155.917 236.978 155.97C236.918 156.017 236.835 156.04 236.728 156.04C236.628 156.04 236.478 156.023 236.278 155.99C236.085 155.957 235.895 155.94 235.708 155.94C235.435 155.94 235.192 155.98 234.978 156.06C234.765 156.14 234.572 156.257 234.398 156.41C234.232 156.557 234.082 156.737 233.948 156.95C233.822 157.163 233.702 157.407 233.588 157.68V164H231.118V153.74H232.568C232.822 153.74 232.998 153.787 233.098 153.88C233.198 153.967 233.265 154.127 233.298 154.36L233.448 155.52ZM252.898 151.75H248.538V164H245.848V151.75H241.488V149.54H252.898V151.75ZM258.607 157.69C258.607 157.37 258.561 157.07 258.467 156.79C258.381 156.503 258.247 156.253 258.067 156.04C257.887 155.827 257.657 155.66 257.377 155.54C257.104 155.413 256.784 155.35 256.417 155.35C255.704 155.35 255.141 155.553 254.727 155.96C254.321 156.367 254.061 156.943 253.947 157.69H258.607ZM253.897 159.18C253.937 159.707 254.031 160.163 254.177 160.55C254.324 160.93 254.517 161.247 254.757 161.5C254.997 161.747 255.281 161.933 255.607 162.06C255.941 162.18 256.307 162.24 256.707 162.24C257.107 162.24 257.451 162.193 257.737 162.1C258.031 162.007 258.284 161.903 258.497 161.79C258.717 161.677 258.907 161.573 259.067 161.48C259.234 161.387 259.394 161.34 259.547 161.34C259.754 161.34 259.907 161.417 260.007 161.57L260.717 162.47C260.444 162.79 260.137 163.06 259.797 163.28C259.457 163.493 259.101 163.667 258.727 163.8C258.361 163.927 257.984 164.017 257.597 164.07C257.217 164.123 256.847 164.15 256.487 164.15C255.774 164.15 255.111 164.033 254.497 163.8C253.884 163.56 253.351 163.21 252.897 162.75C252.444 162.283 252.087 161.71 251.827 161.03C251.567 160.343 251.437 159.55 251.437 158.65C251.437 157.95 251.551 157.293 251.777 156.68C252.004 156.06 252.327 155.523 252.747 155.07C253.174 154.61 253.691 154.247 254.297 153.98C254.911 153.713 255.601 153.58 256.367 153.58C257.014 153.58 257.611 153.683 258.157 153.89C258.704 154.097 259.174 154.4 259.567 154.8C259.961 155.193 260.267 155.68 260.487 156.26C260.714 156.833 260.827 157.49 260.827 158.23C260.827 158.603 260.787 158.857 260.707 158.99C260.627 159.117 260.474 159.18 260.247 159.18H253.897ZM270.031 155.91C269.958 156.003 269.884 156.077 269.811 156.13C269.744 156.183 269.644 156.21 269.511 156.21C269.384 156.21 269.261 156.173 269.141 156.1C269.021 156.02 268.878 155.933 268.711 155.84C268.544 155.74 268.344 155.653 268.111 155.58C267.884 155.5 267.601 155.46 267.261 155.46C266.828 155.46 266.448 155.54 266.121 155.7C265.794 155.853 265.521 156.077 265.301 156.37C265.088 156.663 264.928 157.02 264.821 157.44C264.714 157.853 264.661 158.323 264.661 158.85C264.661 159.397 264.718 159.883 264.831 160.31C264.951 160.737 265.121 161.097 265.341 161.39C265.561 161.677 265.828 161.897 266.141 162.05C266.454 162.197 266.808 162.27 267.201 162.27C267.594 162.27 267.911 162.223 268.151 162.13C268.398 162.03 268.604 161.923 268.771 161.81C268.938 161.69 269.081 161.583 269.201 161.49C269.328 161.39 269.468 161.34 269.621 161.34C269.821 161.34 269.971 161.417 270.071 161.57L270.781 162.47C270.508 162.79 270.211 163.06 269.891 163.28C269.571 163.493 269.238 163.667 268.891 163.8C268.551 163.927 268.198 164.017 267.831 164.07C267.471 164.123 267.111 164.15 266.751 164.15C266.118 164.15 265.521 164.033 264.961 163.8C264.401 163.56 263.911 163.213 263.491 162.76C263.071 162.307 262.738 161.753 262.491 161.1C262.251 160.44 262.131 159.69 262.131 158.85C262.131 158.097 262.238 157.4 262.451 156.76C262.671 156.113 262.991 155.557 263.411 155.09C263.831 154.617 264.351 154.247 264.971 153.98C265.591 153.713 266.304 153.58 267.111 153.58C267.878 153.58 268.548 153.703 269.121 153.95C269.701 154.197 270.221 154.55 270.681 155.01L270.031 155.91ZM274.799 154.84C275.199 154.467 275.639 154.163 276.119 153.93C276.599 153.697 277.163 153.58 277.809 153.58C278.369 153.58 278.866 153.677 279.299 153.87C279.733 154.057 280.093 154.323 280.379 154.67C280.673 155.01 280.893 155.42 281.039 155.9C281.193 156.373 281.269 156.897 281.269 157.47V164H278.799V157.47C278.799 156.843 278.656 156.36 278.369 156.02C278.083 155.673 277.646 155.5 277.059 155.5C276.633 155.5 276.233 155.597 275.859 155.79C275.486 155.983 275.133 156.247 274.799 156.58V164H272.329V149.14H274.799V154.84Z" fill="#6C7380"/>
<path d="M94.7482 176.803L92.6022 169.291H83.9598L81.8137 176.803H94.7482Z" fill="url(#paint3_linear)"/>
<path d="M71.367 135H105.102C108.067 135 110.469 137.403 110.469 140.367V164.902C110.469 167.866 108.067 170.269 105.102 170.269H71.367C68.4029 170.269 66 167.866 66 164.902V140.367C66 137.403 68.4029 135 71.367 135Z" fill="url(#paint4_linear)"/>
<path d="M70.7885 137.779H105.586C106.96 137.779 108.074 138.832 108.074 140.132V161.304C108.074 162.603 106.96 163.656 105.586 163.656H70.7885C69.4143 163.656 68.3004 162.603 68.3004 161.304V140.132C68.3004 138.832 69.4143 137.779 70.7885 137.779Z" fill="white"/>
<path d="M87.468 167.202C87.468 167.626 87.8112 167.969 88.2347 167.969C88.6581 167.969 89.0014 167.626 89.0014 167.202C89.0014 166.779 88.6581 166.436 88.2347 166.436C87.8112 166.436 87.468 166.779 87.468 167.202Z" fill="#CFD6E0"/>
<path d="M100.502 156.468H98.2018C97.7784 156.468 97.4351 156.811 97.4351 157.234C97.4351 157.658 97.7784 158.001 98.2018 158.001H100.502C100.925 158.001 101.269 157.658 101.269 157.234C101.269 156.811 100.925 156.468 100.502 156.468Z" fill="#60A6FA"/>
<path d="M102.802 159.535H98.2018C97.7784 159.535 97.4351 159.878 97.4351 160.302C97.4351 160.725 97.7784 161.069 98.2018 161.069H102.802C103.226 161.069 103.569 160.725 103.569 160.302C103.569 159.878 103.226 159.535 102.802 159.535Z" fill="#60A6FA"/>
<path d="M75.9674 156.468H73.6673C73.2438 156.468 72.9006 156.811 72.9006 157.234C72.9006 157.658 73.2438 158.001 73.6673 158.001H75.9674C76.3909 158.001 76.7341 157.658 76.7341 157.234C76.7341 156.811 76.3909 156.468 75.9674 156.468Z" fill="#60A6FA"/>
<path d="M78.2676 159.535H73.6673C73.2438 159.535 72.9006 159.878 72.9006 160.302C72.9006 160.725 73.2438 161.069 73.6673 161.069H78.2676C78.691 161.069 79.0343 160.725 79.0343 160.302C79.0343 159.878 78.691 159.535 78.2676 159.535Z" fill="#60A6FA"/>
<path d="M72.9006 142.667C72.9006 143.091 73.2438 143.434 73.6673 143.434C74.0907 143.434 74.434 143.091 74.434 142.667C74.434 142.244 74.0907 141.9 73.6673 141.9C73.2438 141.9 72.9006 142.244 72.9006 142.667Z" fill="#60A6FA"/>
<path d="M77.5006 141.9H75.9672V143.434H77.5006V141.9Z" fill="#146CDE"/>
<path d="M98.9687 142.667C98.9687 143.091 99.312 143.434 99.7354 143.434C100.159 143.434 100.502 143.091 100.502 142.667C100.502 142.244 100.159 141.9 99.7354 141.9C99.312 141.9 98.9687 142.244 98.9687 142.667Z" fill="#60A6FA"/>
<path d="M103.569 141.9H102.036V143.434H103.569V141.9Z" fill="#146CDE"/>
<path d="M96.6689 152.634V149.567H94.9583C94.7859 148.811 94.4862 148.089 94.072 147.432L95.2827 146.221L93.1144 144.053L91.9037 145.264C91.2472 144.85 90.5253 144.55 89.7684 144.378V142.667H86.7016V144.378C85.9447 144.55 85.2228 144.85 84.5663 145.264L83.3556 144.053L81.1874 146.221L82.398 147.432C81.9838 148.089 81.6841 148.811 81.5117 149.567H79.8011V152.634H81.5117C81.6841 153.391 81.9838 154.113 82.398 154.77L81.1874 155.98L83.3556 158.149L84.5663 156.938C85.2228 157.352 85.9447 157.652 86.7016 157.824V159.535H89.7684V157.824C90.5253 157.652 91.2472 157.352 91.9037 156.938L93.1144 158.149L95.2827 155.98L94.072 154.77C94.4862 154.113 94.7859 153.391 94.9583 152.634H96.6689ZM88.235 154.168C86.5412 154.168 85.1682 152.795 85.1682 151.101C85.1682 149.407 86.5412 148.034 88.235 148.034C89.9288 148.034 91.3019 149.407 91.3019 151.101C91.3019 152.795 89.9288 154.168 88.235 154.168Z" fill="#FF6BC1"/>
<path d="M152.8 479.54V494H150.1V487.68H143.31V494H140.61V479.54H143.31V485.76H150.1V479.54H152.8ZM160.796 489.62C160.083 489.653 159.483 489.717 158.996 489.81C158.51 489.897 158.12 490.01 157.826 490.15C157.533 490.29 157.323 490.453 157.196 490.64C157.07 490.827 157.006 491.03 157.006 491.25C157.006 491.683 157.133 491.993 157.386 492.18C157.646 492.367 157.983 492.46 158.396 492.46C158.903 492.46 159.34 492.37 159.706 492.19C160.08 492.003 160.443 491.723 160.796 491.35V489.62ZM155.136 485.17C156.316 484.09 157.736 483.55 159.396 483.55C159.996 483.55 160.533 483.65 161.006 483.85C161.48 484.043 161.88 484.317 162.206 484.67C162.533 485.017 162.78 485.433 162.946 485.92C163.12 486.407 163.206 486.94 163.206 487.52V494H162.086C161.853 494 161.673 493.967 161.546 493.9C161.42 493.827 161.32 493.683 161.246 493.47L161.026 492.73C160.766 492.963 160.513 493.17 160.266 493.35C160.02 493.523 159.763 493.67 159.496 493.79C159.23 493.91 158.943 494 158.636 494.06C158.336 494.127 158.003 494.16 157.636 494.16C157.203 494.16 156.803 494.103 156.436 493.99C156.07 493.87 155.753 493.693 155.486 493.46C155.22 493.227 155.013 492.937 154.866 492.59C154.72 492.243 154.646 491.84 154.646 491.38C154.646 491.12 154.69 490.863 154.776 490.61C154.863 490.35 155.003 490.103 155.196 489.87C155.396 489.637 155.653 489.417 155.966 489.21C156.28 489.003 156.663 488.823 157.116 488.67C157.576 488.517 158.11 488.393 158.716 488.3C159.323 488.2 160.016 488.14 160.796 488.12V487.52C160.796 486.833 160.65 486.327 160.356 486C160.063 485.667 159.64 485.5 159.086 485.5C158.686 485.5 158.353 485.547 158.086 485.64C157.826 485.733 157.596 485.84 157.396 485.96C157.196 486.073 157.013 486.177 156.846 486.27C156.686 486.363 156.506 486.41 156.306 486.41C156.133 486.41 155.986 486.367 155.866 486.28C155.746 486.187 155.65 486.08 155.576 485.96L155.136 485.17ZM167.863 485.52C168.183 484.907 168.563 484.427 169.003 484.08C169.443 483.727 169.963 483.55 170.562 483.55C171.036 483.55 171.416 483.653 171.703 483.86L171.543 485.71C171.509 485.83 171.459 485.917 171.393 485.97C171.333 486.017 171.249 486.04 171.143 486.04C171.043 486.04 170.893 486.023 170.693 485.99C170.499 485.957 170.309 485.94 170.123 485.94C169.849 485.94 169.606 485.98 169.393 486.06C169.179 486.14 168.986 486.257 168.813 486.41C168.646 486.557 168.496 486.737 168.363 486.95C168.236 487.163 168.116 487.407 168.003 487.68V494H165.533V483.74H166.983C167.236 483.74 167.413 483.787 167.513 483.88C167.613 483.967 167.679 484.127 167.713 484.36L167.863 485.52ZM179.16 486.36C178.88 486.02 178.573 485.78 178.24 485.64C177.913 485.5 177.56 485.43 177.18 485.43C176.807 485.43 176.47 485.5 176.17 485.64C175.87 485.78 175.613 485.993 175.4 486.28C175.187 486.56 175.023 486.92 174.91 487.36C174.797 487.793 174.74 488.307 174.74 488.9C174.74 489.5 174.787 490.01 174.88 490.43C174.98 490.843 175.12 491.183 175.3 491.45C175.48 491.71 175.7 491.9 175.96 492.02C176.22 492.133 176.51 492.19 176.83 492.19C177.343 492.19 177.78 492.083 178.14 491.87C178.5 491.657 178.84 491.353 179.16 490.96V486.36ZM181.63 479.14V494H180.12C179.793 494 179.587 493.85 179.5 493.55L179.29 492.56C178.877 493.033 178.4 493.417 177.86 493.71C177.327 494.003 176.703 494.15 175.99 494.15C175.43 494.15 174.917 494.033 174.45 493.8C173.983 493.567 173.58 493.23 173.24 492.79C172.907 492.343 172.647 491.793 172.46 491.14C172.28 490.487 172.19 489.74 172.19 488.9C172.19 488.14 172.293 487.433 172.5 486.78C172.707 486.127 173.003 485.56 173.39 485.08C173.777 484.6 174.24 484.227 174.78 483.96C175.32 483.687 175.927 483.55 176.6 483.55C177.173 483.55 177.663 483.64 178.07 483.82C178.477 484 178.84 484.243 179.16 484.55V479.14H181.63ZM208.424 479.54L203.934 494H201.504L198.344 484.12C198.258 483.88 198.178 483.587 198.104 483.24C198.064 483.407 198.024 483.563 197.984 483.71C197.944 483.857 197.901 483.993 197.854 484.12L194.664 494H192.224L187.744 479.54H189.994C190.228 479.54 190.421 479.597 190.574 479.71C190.734 479.817 190.841 479.963 190.894 480.15L193.354 488.8C193.408 489.013 193.458 489.247 193.504 489.5C193.558 489.747 193.611 490.007 193.664 490.28C193.718 490 193.774 489.737 193.834 489.49C193.901 489.243 193.971 489.013 194.044 488.8L196.884 480.15C196.938 479.997 197.041 479.857 197.194 479.73C197.354 479.603 197.548 479.54 197.774 479.54H198.564C198.798 479.54 198.988 479.597 199.134 479.71C199.281 479.823 199.391 479.97 199.464 480.15L202.294 488.8C202.434 489.213 202.561 489.69 202.674 490.23C202.761 489.703 202.858 489.227 202.964 488.8L205.424 480.15C205.464 479.983 205.564 479.84 205.724 479.72C205.891 479.6 206.088 479.54 206.314 479.54H208.424ZM213.139 483.58C213.899 483.58 214.589 483.703 215.209 483.95C215.836 484.197 216.369 484.547 216.809 485C217.256 485.453 217.599 486.007 217.839 486.66C218.079 487.313 218.199 488.043 218.199 488.85C218.199 489.663 218.079 490.397 217.839 491.05C217.599 491.703 217.256 492.26 216.809 492.72C216.369 493.18 215.836 493.533 215.209 493.78C214.589 494.027 213.899 494.15 213.139 494.15C212.372 494.15 211.676 494.027 211.049 493.78C210.422 493.533 209.886 493.18 209.439 492.72C208.999 492.26 208.656 491.703 208.409 491.05C208.169 490.397 208.049 489.663 208.049 488.85C208.049 488.043 208.169 487.313 208.409 486.66C208.656 486.007 208.999 485.453 209.439 485C209.886 484.547 210.422 484.197 211.049 483.95C211.676 483.703 212.372 483.58 213.139 483.58ZM213.139 492.25C213.992 492.25 214.622 491.963 215.029 491.39C215.442 490.817 215.649 489.977 215.649 488.87C215.649 487.763 215.442 486.92 215.029 486.34C214.622 485.76 213.992 485.47 213.139 485.47C212.272 485.47 211.629 485.763 211.209 486.35C210.796 486.93 210.589 487.77 210.589 488.87C210.589 489.97 210.796 490.81 211.209 491.39C211.629 491.963 212.272 492.25 213.139 492.25ZM222.413 485.52C222.733 484.907 223.113 484.427 223.553 484.08C223.993 483.727 224.513 483.55 225.113 483.55C225.587 483.55 225.967 483.653 226.253 483.86L226.093 485.71C226.06 485.83 226.01 485.917 225.943 485.97C225.883 486.017 225.8 486.04 225.693 486.04C225.593 486.04 225.443 486.023 225.243 485.99C225.05 485.957 224.86 485.94 224.673 485.94C224.4 485.94 224.157 485.98 223.943 486.06C223.73 486.14 223.537 486.257 223.363 486.41C223.197 486.557 223.047 486.737 222.913 486.95C222.787 487.163 222.667 487.407 222.553 487.68V494H220.083V483.74H221.533C221.787 483.74 221.963 483.787 222.063 483.88C222.163 483.967 222.23 484.127 222.263 484.36L222.413 485.52ZM230.014 479.14V487.65H230.474C230.641 487.65 230.771 487.63 230.864 487.59C230.964 487.543 231.064 487.453 231.164 487.32L233.714 484.17C233.821 484.03 233.938 483.923 234.064 483.85C234.198 483.777 234.368 483.74 234.574 483.74H236.834L233.644 487.55C233.418 487.85 233.171 488.08 232.904 488.24C233.044 488.34 233.168 488.457 233.274 488.59C233.388 488.723 233.494 488.867 233.594 489.02L237.014 494H234.784C234.591 494 234.424 493.97 234.284 493.91C234.144 493.843 234.028 493.727 233.934 493.56L231.314 489.67C231.221 489.517 231.124 489.417 231.024 489.37C230.924 489.323 230.774 489.3 230.574 489.3H230.014V494H227.544V479.14H230.014ZM240.788 483.74V494H238.308V483.74H240.788ZM241.128 480.75C241.128 480.963 241.084 481.163 240.998 481.35C240.911 481.537 240.794 481.7 240.648 481.84C240.508 481.98 240.341 482.093 240.148 482.18C239.954 482.26 239.748 482.3 239.528 482.3C239.314 482.3 239.111 482.26 238.918 482.18C238.731 482.093 238.568 481.98 238.428 481.84C238.288 481.7 238.174 481.537 238.088 481.35C238.008 481.163 237.968 480.963 237.968 480.75C237.968 480.53 238.008 480.323 238.088 480.13C238.174 479.937 238.288 479.77 238.428 479.63C238.568 479.49 238.731 479.38 238.918 479.3C239.111 479.213 239.314 479.17 239.528 479.17C239.748 479.17 239.954 479.213 240.148 479.3C240.341 479.38 240.508 479.49 240.648 479.63C240.794 479.77 240.911 479.937 240.998 480.13C241.084 480.323 241.128 480.53 241.128 480.75ZM245.616 485C245.823 484.793 246.039 484.603 246.266 484.43C246.499 484.25 246.743 484.1 246.996 483.98C247.256 483.853 247.533 483.757 247.826 483.69C248.119 483.617 248.439 483.58 248.786 483.58C249.346 483.58 249.843 483.677 250.276 483.87C250.709 484.057 251.069 484.323 251.356 484.67C251.649 485.01 251.869 485.42 252.016 485.9C252.169 486.373 252.246 486.897 252.246 487.47V494H249.776V487.47C249.776 486.843 249.633 486.36 249.346 486.02C249.059 485.673 248.623 485.5 248.036 485.5C247.609 485.5 247.209 485.597 246.836 485.79C246.463 485.983 246.109 486.247 245.776 486.58V494H243.306V483.74H244.816C245.136 483.74 245.346 483.89 245.446 484.19L245.616 485ZM258.345 488.62C258.652 488.62 258.918 488.58 259.145 488.5C259.372 488.413 259.558 488.297 259.705 488.15C259.858 488.003 259.972 487.827 260.045 487.62C260.125 487.413 260.165 487.187 260.165 486.94C260.165 486.433 260.012 486.033 259.705 485.74C259.405 485.44 258.952 485.29 258.345 485.29C257.738 485.29 257.282 485.44 256.975 485.74C256.675 486.033 256.525 486.433 256.525 486.94C256.525 487.18 256.562 487.403 256.635 487.61C256.715 487.817 256.828 487.997 256.975 488.15C257.128 488.297 257.318 488.413 257.545 488.5C257.778 488.58 258.045 488.62 258.345 488.62ZM261.135 494.46C261.135 494.26 261.075 494.097 260.955 493.97C260.835 493.843 260.672 493.747 260.465 493.68C260.258 493.607 260.015 493.553 259.735 493.52C259.462 493.487 259.168 493.463 258.855 493.45C258.548 493.43 258.228 493.413 257.895 493.4C257.568 493.387 257.248 493.36 256.935 493.32C256.662 493.473 256.438 493.653 256.265 493.86C256.098 494.067 256.015 494.307 256.015 494.58C256.015 494.76 256.058 494.927 256.145 495.08C256.238 495.24 256.382 495.377 256.575 495.49C256.775 495.603 257.032 495.69 257.345 495.75C257.658 495.817 258.042 495.85 258.495 495.85C258.955 495.85 259.352 495.813 259.685 495.74C260.018 495.673 260.292 495.577 260.505 495.45C260.725 495.33 260.885 495.183 260.985 495.01C261.085 494.843 261.135 494.66 261.135 494.46ZM263.595 484.09V485.01C263.595 485.303 263.418 485.483 263.065 485.55L262.145 485.72C262.285 486.073 262.355 486.46 262.355 486.88C262.355 487.387 262.252 487.847 262.045 488.26C261.845 488.667 261.565 489.013 261.205 489.3C260.845 489.587 260.418 489.81 259.925 489.97C259.438 490.123 258.912 490.2 258.345 490.2C258.145 490.2 257.952 490.19 257.765 490.17C257.578 490.15 257.395 490.123 257.215 490.09C256.895 490.283 256.735 490.5 256.735 490.74C256.735 490.947 256.828 491.1 257.015 491.2C257.208 491.293 257.462 491.36 257.775 491.4C258.088 491.44 258.445 491.467 258.845 491.48C259.245 491.487 259.655 491.507 260.075 491.54C260.495 491.573 260.905 491.633 261.305 491.72C261.705 491.8 262.062 491.93 262.375 492.11C262.688 492.29 262.938 492.537 263.125 492.85C263.318 493.157 263.415 493.553 263.415 494.04C263.415 494.493 263.302 494.933 263.075 495.36C262.855 495.787 262.532 496.167 262.105 496.5C261.685 496.833 261.165 497.1 260.545 497.3C259.932 497.507 259.232 497.61 258.445 497.61C257.672 497.61 256.998 497.533 256.425 497.38C255.852 497.233 255.375 497.033 254.995 496.78C254.615 496.533 254.332 496.247 254.145 495.92C253.958 495.593 253.865 495.253 253.865 494.9C253.865 494.42 254.008 494.02 254.295 493.7C254.588 493.373 254.988 493.113 255.495 492.92C255.222 492.78 255.005 492.593 254.845 492.36C254.685 492.127 254.605 491.82 254.605 491.44C254.605 491.287 254.632 491.13 254.685 490.97C254.745 490.803 254.828 490.64 254.935 490.48C255.048 490.32 255.188 490.17 255.355 490.03C255.522 489.883 255.718 489.753 255.945 489.64C255.425 489.36 255.015 488.987 254.715 488.52C254.422 488.053 254.275 487.507 254.275 486.88C254.275 486.373 254.375 485.917 254.575 485.51C254.782 485.097 255.065 484.747 255.425 484.46C255.792 484.167 256.222 483.943 256.715 483.79C257.215 483.637 257.758 483.56 258.345 483.56C258.785 483.56 259.198 483.607 259.585 483.7C259.972 483.787 260.325 483.917 260.645 484.09H263.595Z" fill="#6C7380"/>
<path d="M92.8594 469.049C91.9409 466.328 90.692 464.381 90.6394 464.299C90.5018 464.086 90.2537 463.972 90.0026 464.006C89.9063 464.019 87.6147 464.336 84.9498 465.407C81.3639 466.848 78.8369 468.981 77.6419 471.576C75.6489 475.904 73.5677 484.624 73.0026 491.014C72.9782 491.289 73.1295 491.55 73.3805 491.666L80.426 494.911C80.5138 494.951 80.607 494.97 80.6994 494.97C80.8717 494.97 81.0411 494.902 81.1669 494.774C85.6556 490.19 90.9291 482.941 92.9222 478.613C94.1172 476.018 94.0955 472.711 92.8594 469.049Z" fill="#FF6BC1"/>
<path d="M90.0026 464.006C89.9063 464.019 87.6147 464.336 84.9498 465.407C82.7549 466.289 80.9576 467.431 79.6187 468.778L93.7784 475.083C93.8944 473.244 93.5881 471.208 92.8593 469.049C91.9409 466.328 90.692 464.381 90.6394 464.299C90.5018 464.086 90.2537 463.972 90.0026 464.006Z" fill="url(#paint5_linear)"/>
<path d="M84.5421 479.226C85.9377 479.226 87.069 478.094 87.069 476.699C87.069 475.303 85.9377 474.172 84.5421 474.172C83.1466 474.172 82.0153 475.303 82.0153 476.699C82.0153 478.094 83.1466 479.226 84.5421 479.226Z" fill="white"/>
<path d="M80.5936 488.702C80.406 488.194 80.0317 487.79 79.5398 487.563C79.0477 487.336 78.497 487.315 77.9891 487.503C77.481 487.69 77.0764 488.065 76.8498 488.557C76.8368 488.585 76.8258 488.614 76.8169 488.644L74.8278 495.338C74.6794 495.838 74.9153 496.359 75.3888 496.577C75.5312 496.642 75.6803 496.674 75.8272 496.674C76.1684 496.674 76.4966 496.504 76.6946 496.198L80.4884 490.335C80.5053 490.309 80.5203 490.281 80.5334 490.253C80.7599 489.761 80.7813 489.21 80.5936 488.702Z" fill="url(#paint6_linear)"/>
<path d="M98.2702 474.232C97.2533 473.9 96.1679 473.984 95.2141 474.468C94.2601 474.952 93.5516 475.778 93.2193 476.795L92.6547 478.522C91.9687 480.621 93.1183 482.887 95.2174 483.573C95.6292 483.708 96.0472 483.772 96.4586 483.772C98.1444 483.772 99.7166 482.698 100.268 481.011L100.833 479.283C101.519 477.184 100.369 474.918 98.2702 474.232Z" fill="#F9C295"/>
<path d="M103.931 472.802C103.776 472.629 103.541 472.55 103.313 472.596L100.777 473.106C100.744 473.113 100.71 473.11 100.678 473.1L98.2004 472.29C96.4525 471.719 94.566 472.676 93.9946 474.424L93.0251 477.391C92.9129 477.734 93.1002 478.103 93.4436 478.216L95.4207 478.862C95.487 478.883 95.5556 478.894 95.6239 478.894C95.7258 478.894 95.8273 478.87 95.9199 478.823C96.0746 478.745 96.1919 478.608 96.2457 478.443L96.2802 478.338C96.4179 477.916 96.8728 477.685 97.2946 477.823L98.4936 478.215C100.491 478.868 102.647 477.774 103.3 475.777L104.063 473.44C104.136 473.219 104.085 472.976 103.931 472.802Z" fill="#4E587F"/>
<path d="M94.2182 483.429C92.696 482.302 90.5404 482.623 89.4134 484.146L84.668 490.555C84.5584 490.702 84.5163 490.89 84.5519 491.07C84.5875 491.251 84.6976 491.408 84.8552 491.503L89.6367 494.394C89.7421 494.458 89.859 494.488 89.9746 494.488C90.1758 494.488 90.3732 494.396 90.5007 494.223L94.9356 488.234C95.3768 487.637 95.6099 486.931 95.6099 486.192C95.61 485.107 95.0898 484.074 94.2182 483.429Z" fill="#F0F1F4"/>
<path d="M93.3058 484.934C92.9652 484.52 92.4842 484.263 91.951 484.209L81.4702 483.039C81.467 483.039 81.464 483.038 81.4609 483.038C80.3555 482.93 79.3697 483.742 79.2623 484.847C79.155 485.95 79.9638 486.935 81.0659 487.045L91.5471 488.215C91.5501 488.216 91.5532 488.216 91.5563 488.216C91.6228 488.223 91.689 488.226 91.7548 488.226C92.2196 488.226 92.6664 488.067 93.0301 487.767C93.4454 487.426 93.7028 486.943 93.7548 486.408C93.8069 485.872 93.6474 485.349 93.3058 484.934Z" fill="#E2E2E2"/>
<path d="M83.2032 483.432C83.0949 483.293 82.935 483.203 82.7599 483.184L81.4702 483.04C81.467 483.039 81.464 483.039 81.4609 483.039C80.3568 482.932 79.3699 483.743 79.2624 484.848C79.2103 485.383 79.3698 485.906 79.7115 486.321C80.052 486.735 80.533 486.992 81.0661 487.046L82.2476 487.178C82.2723 487.18 82.2967 487.182 82.3209 487.182C82.6438 487.182 82.9237 486.943 82.9682 486.616L83.3353 483.922C83.3591 483.748 83.3115 483.571 83.2032 483.432Z" fill="#F9C295"/>
<path d="M89.2615 495.58C89.237 495.406 89.1437 495.25 89.003 495.146L84.5325 491.836C84.334 491.689 84.0696 491.667 83.849 491.778C83.7265 491.84 83.6291 491.937 83.5668 492.054L76.5713 504.598C76.4001 504.904 76.502 505.292 76.8018 505.475L79.8004 507.304C79.9063 507.369 80.0241 507.4 80.1406 507.4C80.3383 507.4 80.5326 507.31 80.6605 507.143L89.1334 496.069C89.2398 495.929 89.286 495.753 89.2615 495.58Z" fill="#393762"/>
<path d="M94.894 496.043L85.5323 490.383C85.2435 490.209 84.8691 490.283 84.6683 490.554L83.6179 491.972C83.5968 492.001 83.578 492.031 83.562 492.062L83.3592 492.426C82.5317 493.91 83.0158 495.772 84.4614 496.664L90.4893 500.387L88.6893 506.835C88.5931 507.18 88.792 507.538 89.1355 507.638L92.5073 508.626C92.5675 508.643 92.6294 508.652 92.6911 508.652C92.801 508.652 92.9102 508.624 93.0081 508.57C93.1609 508.485 93.2735 508.343 93.3207 508.175L95.9607 498.783C96.2677 497.735 95.8291 496.608 94.894 496.043Z" fill="#4E587F"/>
<path d="M144.98 266.42C145.487 266.42 145.927 266.357 146.3 266.23C146.68 266.103 146.99 265.93 147.23 265.71C147.477 265.483 147.66 265.217 147.78 264.91C147.9 264.603 147.96 264.267 147.96 263.9C147.96 263.167 147.717 262.603 147.23 262.21C146.75 261.817 146.013 261.62 145.02 261.62H143.3V266.42H144.98ZM151.9 274H149.47C149.01 274 148.677 273.82 148.47 273.46L145.43 268.83C145.317 268.657 145.19 268.533 145.05 268.46C144.917 268.387 144.717 268.35 144.45 268.35H143.3V274H140.61V259.54H145.02C146 259.54 146.84 259.643 147.54 259.85C148.247 260.05 148.823 260.333 149.27 260.7C149.723 261.067 150.057 261.507 150.27 262.02C150.483 262.527 150.59 263.087 150.59 263.7C150.59 264.187 150.517 264.647 150.37 265.08C150.23 265.513 150.023 265.907 149.75 266.26C149.483 266.613 149.15 266.923 148.75 267.19C148.357 267.457 147.907 267.667 147.4 267.82C147.573 267.92 147.733 268.04 147.88 268.18C148.027 268.313 148.16 268.473 148.28 268.66L151.9 274ZM159.018 267.69C159.018 267.37 158.971 267.07 158.878 266.79C158.791 266.503 158.658 266.253 158.478 266.04C158.298 265.827 158.068 265.66 157.788 265.54C157.514 265.413 157.194 265.35 156.828 265.35C156.114 265.35 155.551 265.553 155.138 265.96C154.731 266.367 154.471 266.943 154.358 267.69H159.018ZM154.308 269.18C154.348 269.707 154.441 270.163 154.588 270.55C154.734 270.93 154.928 271.247 155.168 271.5C155.408 271.747 155.691 271.933 156.018 272.06C156.351 272.18 156.718 272.24 157.118 272.24C157.518 272.24 157.861 272.193 158.148 272.1C158.441 272.007 158.694 271.903 158.908 271.79C159.128 271.677 159.318 271.573 159.478 271.48C159.644 271.387 159.804 271.34 159.958 271.34C160.164 271.34 160.318 271.417 160.418 271.57L161.128 272.47C160.854 272.79 160.548 273.06 160.208 273.28C159.868 273.493 159.511 273.667 159.138 273.8C158.771 273.927 158.394 274.017 158.008 274.07C157.628 274.123 157.258 274.15 156.898 274.15C156.184 274.15 155.521 274.033 154.908 273.8C154.294 273.56 153.761 273.21 153.308 272.75C152.854 272.283 152.498 271.71 152.238 271.03C151.978 270.343 151.847 269.55 151.847 268.65C151.847 267.95 151.961 267.293 152.188 266.68C152.414 266.06 152.738 265.523 153.158 265.07C153.584 264.61 154.101 264.247 154.708 263.98C155.321 263.713 156.011 263.58 156.778 263.58C157.424 263.58 158.021 263.683 158.568 263.89C159.114 264.097 159.584 264.4 159.978 264.8C160.371 265.193 160.678 265.68 160.898 266.26C161.124 266.833 161.237 267.49 161.237 268.23C161.237 268.603 161.198 268.857 161.118 268.99C161.038 269.117 160.884 269.18 160.658 269.18H154.308ZM163.091 274V263.74H164.601C164.921 263.74 165.131 263.89 165.231 264.19L165.391 264.95C165.571 264.75 165.758 264.567 165.951 264.4C166.151 264.233 166.361 264.09 166.581 263.97C166.808 263.85 167.048 263.757 167.301 263.69C167.561 263.617 167.844 263.58 168.151 263.58C168.798 263.58 169.328 263.757 169.741 264.11C170.161 264.457 170.474 264.92 170.681 265.5C170.841 265.16 171.041 264.87 171.281 264.63C171.521 264.383 171.784 264.183 172.071 264.03C172.358 263.877 172.661 263.763 172.981 263.69C173.308 263.617 173.634 263.58 173.961 263.58C174.528 263.58 175.031 263.667 175.471 263.84C175.911 264.013 176.281 264.267 176.581 264.6C176.881 264.933 177.108 265.34 177.261 265.82C177.421 266.3 177.501 266.85 177.501 267.47V274H175.031V267.47C175.031 266.817 174.888 266.327 174.601 266C174.314 265.667 173.894 265.5 173.341 265.5C173.088 265.5 172.851 265.543 172.631 265.63C172.418 265.717 172.228 265.843 172.061 266.01C171.901 266.17 171.774 266.373 171.681 266.62C171.588 266.867 171.541 267.15 171.541 267.47V274H169.061V267.47C169.061 266.783 168.921 266.283 168.641 265.97C168.368 265.657 167.964 265.5 167.431 265.5C167.071 265.5 166.734 265.59 166.421 265.77C166.114 265.943 165.828 266.183 165.561 266.49V274H163.091ZM184.389 263.58C185.149 263.58 185.839 263.703 186.459 263.95C187.086 264.197 187.619 264.547 188.059 265C188.506 265.453 188.849 266.007 189.089 266.66C189.329 267.313 189.449 268.043 189.449 268.85C189.449 269.663 189.329 270.397 189.089 271.05C188.849 271.703 188.506 272.26 188.059 272.72C187.619 273.18 187.086 273.533 186.459 273.78C185.839 274.027 185.149 274.15 184.389 274.15C183.622 274.15 182.926 274.027 182.299 273.78C181.672 273.533 181.136 273.18 180.689 272.72C180.249 272.26 179.906 271.703 179.659 271.05C179.419 270.397 179.299 269.663 179.299 268.85C179.299 268.043 179.419 267.313 179.659 266.66C179.906 266.007 180.249 265.453 180.689 265C181.136 264.547 181.672 264.197 182.299 263.95C182.926 263.703 183.622 263.58 184.389 263.58ZM184.389 272.25C185.242 272.25 185.872 271.963 186.279 271.39C186.692 270.817 186.899 269.977 186.899 268.87C186.899 267.763 186.692 266.92 186.279 266.34C185.872 265.76 185.242 265.47 184.389 265.47C183.522 265.47 182.879 265.763 182.459 266.35C182.046 266.93 181.839 267.77 181.839 268.87C181.839 269.97 182.046 270.81 182.459 271.39C182.879 271.963 183.522 272.25 184.389 272.25ZM194.558 274.16C193.665 274.16 192.978 273.91 192.498 273.41C192.025 272.903 191.788 272.207 191.788 271.32V265.59H190.738C190.605 265.59 190.491 265.547 190.398 265.46C190.305 265.373 190.258 265.243 190.258 265.07V264.09L191.908 263.82L192.428 261.02C192.461 260.887 192.525 260.783 192.618 260.71C192.711 260.637 192.831 260.6 192.978 260.6H194.258V263.83H196.998V265.59H194.258V271.15C194.258 271.47 194.335 271.72 194.488 271.9C194.648 272.08 194.865 272.17 195.138 272.17C195.291 272.17 195.418 272.153 195.518 272.12C195.625 272.08 195.715 272.04 195.788 272C195.868 271.96 195.938 271.923 195.998 271.89C196.058 271.85 196.118 271.83 196.178 271.83C196.251 271.83 196.311 271.85 196.358 271.89C196.405 271.923 196.455 271.977 196.508 272.05L197.248 273.25C196.888 273.55 196.475 273.777 196.008 273.93C195.541 274.083 195.058 274.16 194.558 274.16ZM205.111 267.69C205.111 267.37 205.065 267.07 204.971 266.79C204.885 266.503 204.751 266.253 204.571 266.04C204.391 265.827 204.161 265.66 203.881 265.54C203.608 265.413 203.288 265.35 202.921 265.35C202.208 265.35 201.645 265.553 201.231 265.96C200.825 266.367 200.565 266.943 200.451 267.69H205.111ZM200.401 269.18C200.441 269.707 200.535 270.163 200.681 270.55C200.828 270.93 201.021 271.247 201.261 271.5C201.501 271.747 201.785 271.933 202.111 272.06C202.445 272.18 202.811 272.24 203.211 272.24C203.611 272.24 203.955 272.193 204.241 272.1C204.535 272.007 204.788 271.903 205.001 271.79C205.221 271.677 205.411 271.573 205.571 271.48C205.738 271.387 205.898 271.34 206.051 271.34C206.258 271.34 206.411 271.417 206.511 271.57L207.221 272.47C206.948 272.79 206.641 273.06 206.301 273.28C205.961 273.493 205.605 273.667 205.231 273.8C204.865 273.927 204.488 274.017 204.101 274.07C203.721 274.123 203.351 274.15 202.991 274.15C202.278 274.15 201.615 274.033 201.001 273.8C200.388 273.56 199.855 273.21 199.401 272.75C198.948 272.283 198.591 271.71 198.331 271.03C198.071 270.343 197.941 269.55 197.941 268.65C197.941 267.95 198.055 267.293 198.281 266.68C198.508 266.06 198.831 265.523 199.251 265.07C199.678 264.61 200.195 264.247 200.801 263.98C201.415 263.713 202.105 263.58 202.871 263.58C203.518 263.58 204.115 263.683 204.661 263.89C205.208 264.097 205.678 264.4 206.071 264.8C206.465 265.193 206.771 265.68 206.991 266.26C207.218 266.833 207.331 267.49 207.331 268.23C207.331 268.603 207.291 268.857 207.211 268.99C207.131 269.117 206.978 269.18 206.751 269.18H200.401ZM224.368 270.59C224.515 270.59 224.645 270.647 224.758 270.76L225.818 271.91C225.231 272.637 224.508 273.193 223.648 273.58C222.795 273.967 221.768 274.16 220.568 274.16C219.495 274.16 218.528 273.977 217.668 273.61C216.815 273.243 216.085 272.733 215.478 272.08C214.871 271.427 214.405 270.647 214.078 269.74C213.758 268.833 213.598 267.843 213.598 266.77C213.598 265.683 213.771 264.69 214.118 263.79C214.465 262.883 214.951 262.103 215.578 261.45C216.211 260.797 216.965 260.29 217.838 259.93C218.711 259.563 219.678 259.38 220.738 259.38C221.791 259.38 222.725 259.553 223.538 259.9C224.358 260.247 225.055 260.7 225.628 261.26L224.728 262.51C224.675 262.59 224.605 262.66 224.518 262.72C224.438 262.78 224.325 262.81 224.178 262.81C224.078 262.81 223.975 262.783 223.868 262.73C223.761 262.67 223.645 262.6 223.518 262.52C223.391 262.433 223.245 262.34 223.078 262.24C222.911 262.14 222.718 262.05 222.498 261.97C222.278 261.883 222.021 261.813 221.728 261.76C221.441 261.7 221.108 261.67 220.728 261.67C220.081 261.67 219.488 261.787 218.948 262.02C218.415 262.247 217.955 262.58 217.568 263.02C217.181 263.453 216.881 263.987 216.668 264.62C216.455 265.247 216.348 265.963 216.348 266.77C216.348 267.583 216.461 268.307 216.688 268.94C216.921 269.573 217.235 270.107 217.628 270.54C218.021 270.973 218.485 271.307 219.018 271.54C219.551 271.767 220.125 271.88 220.738 271.88C221.105 271.88 221.435 271.86 221.728 271.82C222.028 271.78 222.301 271.717 222.548 271.63C222.801 271.543 223.038 271.433 223.258 271.3C223.485 271.16 223.708 270.99 223.928 270.79C223.995 270.73 224.065 270.683 224.138 270.65C224.211 270.61 224.288 270.59 224.368 270.59ZM235.974 263.74V274H234.464C234.137 274 233.931 273.85 233.844 273.55L233.674 272.73C233.254 273.157 232.791 273.503 232.284 273.77C231.777 274.03 231.181 274.16 230.494 274.16C229.934 274.16 229.437 274.067 229.004 273.88C228.577 273.687 228.217 273.417 227.924 273.07C227.631 272.723 227.407 272.313 227.254 271.84C227.107 271.36 227.034 270.833 227.034 270.26V263.74H229.504V270.26C229.504 270.887 229.647 271.373 229.934 271.72C230.227 272.06 230.664 272.23 231.244 272.23C231.671 272.23 232.071 272.137 232.444 271.95C232.817 271.757 233.171 271.493 233.504 271.16V263.74H235.974ZM240.923 259.14V274H238.453V259.14H240.923ZM246.804 274.16C245.911 274.16 245.224 273.91 244.744 273.41C244.271 272.903 244.034 272.207 244.034 271.32V265.59H242.984C242.851 265.59 242.737 265.547 242.644 265.46C242.551 265.373 242.504 265.243 242.504 265.07V264.09L244.154 263.82L244.674 261.02C244.707 260.887 244.771 260.783 244.864 260.71C244.957 260.637 245.077 260.6 245.224 260.6H246.504V263.83H249.244V265.59H246.504V271.15C246.504 271.47 246.581 271.72 246.734 271.9C246.894 272.08 247.111 272.17 247.384 272.17C247.537 272.17 247.664 272.153 247.764 272.12C247.871 272.08 247.961 272.04 248.034 272C248.114 271.96 248.184 271.923 248.244 271.89C248.304 271.85 248.364 271.83 248.424 271.83C248.497 271.83 248.557 271.85 248.604 271.89C248.651 271.923 248.701 271.977 248.754 272.05L249.494 273.25C249.134 273.55 248.721 273.777 248.254 273.93C247.787 274.083 247.304 274.16 246.804 274.16ZM259.665 263.74V274H258.155C257.829 274 257.622 273.85 257.535 273.55L257.365 272.73C256.945 273.157 256.482 273.503 255.975 273.77C255.469 274.03 254.872 274.16 254.185 274.16C253.625 274.16 253.129 274.067 252.695 273.88C252.269 273.687 251.909 273.417 251.615 273.07C251.322 272.723 251.099 272.313 250.945 271.84C250.799 271.36 250.725 270.833 250.725 270.26V263.74H253.195V270.26C253.195 270.887 253.339 271.373 253.625 271.72C253.919 272.06 254.355 272.23 254.935 272.23C255.362 272.23 255.762 272.137 256.135 271.95C256.509 271.757 256.862 271.493 257.195 271.16V263.74H259.665ZM264.445 265.52C264.765 264.907 265.145 264.427 265.585 264.08C266.025 263.727 266.545 263.55 267.145 263.55C267.618 263.55 267.998 263.653 268.285 263.86L268.125 265.71C268.091 265.83 268.041 265.917 267.975 265.97C267.915 266.017 267.831 266.04 267.725 266.04C267.625 266.04 267.475 266.023 267.275 265.99C267.081 265.957 266.891 265.94 266.705 265.94C266.431 265.94 266.188 265.98 265.975 266.06C265.761 266.14 265.568 266.257 265.395 266.41C265.228 266.557 265.078 266.737 264.945 266.95C264.818 267.163 264.698 267.407 264.585 267.68V274H262.115V263.74H263.565C263.818 263.74 263.995 263.787 264.095 263.88C264.195 263.967 264.261 264.127 264.295 264.36L264.445 265.52ZM275.893 267.69C275.893 267.37 275.846 267.07 275.753 266.79C275.666 266.503 275.533 266.253 275.353 266.04C275.173 265.827 274.943 265.66 274.663 265.54C274.389 265.413 274.069 265.35 273.703 265.35C272.989 265.35 272.426 265.553 272.013 265.96C271.606 266.367 271.346 266.943 271.233 267.69H275.893ZM271.183 269.18C271.223 269.707 271.316 270.163 271.463 270.55C271.609 270.93 271.803 271.247 272.043 271.5C272.283 271.747 272.566 271.933 272.893 272.06C273.226 272.18 273.593 272.24 273.993 272.24C274.393 272.24 274.736 272.193 275.023 272.1C275.316 272.007 275.569 271.903 275.783 271.79C276.003 271.677 276.193 271.573 276.353 271.48C276.519 271.387 276.679 271.34 276.833 271.34C277.039 271.34 277.193 271.417 277.293 271.57L278.003 272.47C277.729 272.79 277.423 273.06 277.083 273.28C276.743 273.493 276.386 273.667 276.013 273.8C275.646 273.927 275.269 274.017 274.883 274.07C274.503 274.123 274.133 274.15 273.773 274.15C273.059 274.15 272.396 274.033 271.783 273.8C271.169 273.56 270.636 273.21 270.183 272.75C269.729 272.283 269.373 271.71 269.113 271.03C268.853 270.343 268.722 269.55 268.722 268.65C268.722 267.95 268.836 267.293 269.063 266.68C269.289 266.06 269.613 265.523 270.033 265.07C270.459 264.61 270.976 264.247 271.583 263.98C272.196 263.713 272.886 263.58 273.653 263.58C274.299 263.58 274.896 263.683 275.443 263.89C275.989 264.097 276.459 264.4 276.853 264.8C277.246 265.193 277.553 265.68 277.773 266.26C277.999 266.833 278.112 267.49 278.112 268.23C278.112 268.603 278.073 268.857 277.993 268.99C277.913 269.117 277.759 269.18 277.533 269.18H271.183Z" fill="#6C7380"/>
<path d="M113.071 264.37C111.894 265.547 109.912 265.547 108.734 264.37C103.284 258.92 96.1607 256.194 88.9765 256.194C81.8539 256.194 74.7307 258.92 69.2807 264.37C68.1036 265.547 66.1214 265.547 64.8828 264.37C63.7057 263.131 63.7057 261.149 64.8828 259.972C71.5098 253.283 80.305 250 88.9765 250C97.7095 250 106.443 253.283 113.071 259.972C114.309 261.149 114.309 263.131 113.071 264.37Z" fill="url(#paint7_linear)"/>
<path d="M104.337 273.102C103.098 274.28 101.178 274.28 99.9397 273.103C96.9042 270.068 92.9403 268.519 88.9769 268.519C85.0124 268.519 81.0485 270.068 78.0757 273.103C76.8365 274.28 74.8543 274.28 73.6778 273.103C72.4392 271.864 72.4398 269.944 73.6778 268.705C77.8898 264.493 83.402 262.388 88.9763 262.387C94.5507 262.388 100.125 264.494 104.336 268.705C105.514 269.944 105.513 271.864 104.337 273.102Z" fill="url(#paint8_linear)"/>
<path d="M95.542 281.836C94.3655 283.075 92.3833 283.075 91.2068 281.836C90.5875 281.278 89.7817 280.969 88.9765 280.969C88.1713 280.969 87.3666 281.278 86.8089 281.836C85.5703 283.075 83.6508 283.075 82.4116 281.835C81.2351 280.659 81.2346 278.677 82.4116 277.5C84.2695 275.704 86.623 274.775 88.9771 274.775C91.3921 274.774 93.7462 275.704 95.542 277.5C96.7812 278.677 96.7812 280.66 95.542 281.836Z" fill="url(#paint9_linear)"/>
<path d="M91.2076 281.836C90.5883 281.278 89.7825 280.969 88.9773 280.969L88.9779 274.775C91.3935 274.775 93.747 275.704 95.5433 277.5C96.7819 278.677 96.7819 280.66 95.5428 281.836C94.3663 283.075 92.3841 283.075 91.2076 281.836Z" fill="#FF6BC1"/>
<path d="M104.338 268.706C105.515 269.944 105.515 271.864 104.338 273.102C103.099 274.28 101.179 274.28 99.9403 273.103C96.9047 270.068 92.9408 268.519 88.9775 268.519L88.9775 262.388C94.5512 262.388 100.126 264.494 104.338 268.706Z" fill="#FF6BC1"/>
<path d="M113.072 264.37C111.895 265.547 109.912 265.547 108.735 264.37C103.285 258.92 96.1617 256.194 88.9775 256.194V250C97.7105 250 106.444 253.283 113.072 259.972C114.31 261.149 114.31 263.131 113.072 264.37Z" fill="#FF6BC1"/>
<path d="M143.31 372.68V376.96H148.73V379.11H143.31V385H140.61V370.54H149.73V372.68H143.31ZM153.077 376.52C153.397 375.907 153.777 375.427 154.217 375.08C154.657 374.727 155.177 374.55 155.777 374.55C156.251 374.55 156.631 374.653 156.917 374.86L156.757 376.71C156.724 376.83 156.674 376.917 156.607 376.97C156.547 377.017 156.464 377.04 156.357 377.04C156.257 377.04 156.107 377.023 155.907 376.99C155.714 376.957 155.524 376.94 155.337 376.94C155.064 376.94 154.821 376.98 154.607 377.06C154.394 377.14 154.201 377.257 154.027 377.41C153.861 377.557 153.711 377.737 153.577 377.95C153.451 378.163 153.331 378.407 153.217 378.68V385H150.747V374.74H152.197C152.451 374.74 152.627 374.787 152.727 374.88C152.827 374.967 152.894 375.127 152.927 375.36L153.077 376.52ZM160.768 374.74V385H158.288V374.74H160.768ZM161.108 371.75C161.108 371.963 161.065 372.163 160.978 372.35C160.892 372.537 160.775 372.7 160.628 372.84C160.488 372.98 160.322 373.093 160.128 373.18C159.935 373.26 159.728 373.3 159.508 373.3C159.295 373.3 159.092 373.26 158.898 373.18C158.712 373.093 158.548 372.98 158.408 372.84C158.268 372.7 158.155 372.537 158.068 372.35C157.988 372.163 157.948 371.963 157.948 371.75C157.948 371.53 157.988 371.323 158.068 371.13C158.155 370.937 158.268 370.77 158.408 370.63C158.548 370.49 158.712 370.38 158.898 370.3C159.092 370.213 159.295 370.17 159.508 370.17C159.728 370.17 159.935 370.213 160.128 370.3C160.322 370.38 160.488 370.49 160.628 370.63C160.775 370.77 160.892 370.937 160.978 371.13C161.065 371.323 161.108 371.53 161.108 371.75ZM169.896 378.69C169.896 378.37 169.85 378.07 169.756 377.79C169.67 377.503 169.536 377.253 169.356 377.04C169.176 376.827 168.946 376.66 168.666 376.54C168.393 376.413 168.073 376.35 167.706 376.35C166.993 376.35 166.43 376.553 166.016 376.96C165.61 377.367 165.35 377.943 165.236 378.69H169.896ZM165.186 380.18C165.226 380.707 165.32 381.163 165.466 381.55C165.613 381.93 165.806 382.247 166.046 382.5C166.286 382.747 166.57 382.933 166.896 383.06C167.23 383.18 167.596 383.24 167.996 383.24C168.396 383.24 168.74 383.193 169.026 383.1C169.32 383.007 169.573 382.903 169.786 382.79C170.006 382.677 170.196 382.573 170.356 382.48C170.523 382.387 170.683 382.34 170.836 382.34C171.043 382.34 171.196 382.417 171.296 382.57L172.006 383.47C171.733 383.79 171.426 384.06 171.086 384.28C170.746 384.493 170.39 384.667 170.016 384.8C169.65 384.927 169.273 385.017 168.886 385.07C168.506 385.123 168.136 385.15 167.776 385.15C167.063 385.15 166.4 385.033 165.786 384.8C165.173 384.56 164.64 384.21 164.186 383.75C163.733 383.283 163.376 382.71 163.116 382.03C162.856 381.343 162.726 380.55 162.726 379.65C162.726 378.95 162.84 378.293 163.066 377.68C163.293 377.06 163.616 376.523 164.036 376.07C164.463 375.61 164.98 375.247 165.586 374.98C166.2 374.713 166.89 374.58 167.656 374.58C168.303 374.58 168.9 374.683 169.446 374.89C169.993 375.097 170.463 375.4 170.856 375.8C171.25 376.193 171.556 376.68 171.776 377.26C172.003 377.833 172.116 378.49 172.116 379.23C172.116 379.603 172.076 379.857 171.996 379.99C171.916 380.117 171.763 380.18 171.536 380.18H165.186ZM176.28 376C176.487 375.793 176.703 375.603 176.93 375.43C177.163 375.25 177.407 375.1 177.66 374.98C177.92 374.853 178.197 374.757 178.49 374.69C178.783 374.617 179.103 374.58 179.45 374.58C180.01 374.58 180.507 374.677 180.94 374.87C181.373 375.057 181.733 375.323 182.02 375.67C182.313 376.01 182.533 376.42 182.68 376.9C182.833 377.373 182.91 377.897 182.91 378.47V385H180.44V378.47C180.44 377.843 180.297 377.36 180.01 377.02C179.723 376.673 179.287 376.5 178.7 376.5C178.273 376.5 177.873 376.597 177.5 376.79C177.127 376.983 176.773 377.247 176.44 377.58V385H173.97V374.74H175.48C175.8 374.74 176.01 374.89 176.11 375.19L176.28 376ZM191.699 377.36C191.419 377.02 191.112 376.78 190.779 376.64C190.452 376.5 190.099 376.43 189.719 376.43C189.346 376.43 189.009 376.5 188.709 376.64C188.409 376.78 188.152 376.993 187.939 377.28C187.726 377.56 187.562 377.92 187.449 378.36C187.336 378.793 187.279 379.307 187.279 379.9C187.279 380.5 187.326 381.01 187.419 381.43C187.519 381.843 187.659 382.183 187.839 382.45C188.019 382.71 188.239 382.9 188.499 383.02C188.759 383.133 189.049 383.19 189.369 383.19C189.882 383.19 190.319 383.083 190.679 382.87C191.039 382.657 191.379 382.353 191.699 381.96V377.36ZM194.169 370.14V385H192.659C192.332 385 192.126 384.85 192.039 384.55L191.829 383.56C191.416 384.033 190.939 384.417 190.399 384.71C189.866 385.003 189.242 385.15 188.529 385.15C187.969 385.15 187.456 385.033 186.989 384.8C186.522 384.567 186.119 384.23 185.779 383.79C185.446 383.343 185.186 382.793 184.999 382.14C184.819 381.487 184.729 380.74 184.729 379.9C184.729 379.14 184.832 378.433 185.039 377.78C185.246 377.127 185.542 376.56 185.929 376.08C186.316 375.6 186.779 375.227 187.319 374.96C187.859 374.687 188.466 374.55 189.139 374.55C189.712 374.55 190.202 374.64 190.609 374.82C191.016 375 191.379 375.243 191.699 375.55V370.14H194.169ZM199.107 370.14V385H196.637V370.14H199.107ZM210.888 374.74L205.298 387.82C205.224 387.993 205.128 388.123 205.008 388.21C204.894 388.303 204.718 388.35 204.478 388.35H202.638L204.558 384.23L200.408 374.74H202.578C202.771 374.74 202.921 374.787 203.028 374.88C203.141 374.973 203.224 375.08 203.278 375.2L205.458 380.52C205.531 380.7 205.591 380.88 205.638 381.06C205.691 381.24 205.741 381.423 205.788 381.61C205.848 381.423 205.908 381.24 205.968 381.06C206.028 380.873 206.094 380.69 206.168 380.51L208.228 375.2C208.281 375.067 208.368 374.957 208.488 374.87C208.614 374.783 208.754 374.74 208.908 374.74H210.888ZM220.03 378.24C219.497 378.587 219.107 378.98 218.86 379.42C218.62 379.853 218.5 380.32 218.5 380.82C218.5 381.187 218.563 381.517 218.69 381.81C218.817 382.103 218.987 382.353 219.2 382.56C219.42 382.76 219.673 382.917 219.96 383.03C220.253 383.137 220.563 383.19 220.89 383.19C221.477 383.19 222.013 383.1 222.5 382.92C222.987 382.733 223.427 382.477 223.82 382.15L220.03 378.24ZM229.66 385H227.24C226.987 385 226.78 384.97 226.62 384.91C226.467 384.85 226.303 384.723 226.13 384.53L225.13 383.5C224.497 384.02 223.787 384.427 223 384.72C222.213 385.013 221.363 385.16 220.45 385.16C219.897 385.16 219.35 385.067 218.81 384.88C218.277 384.687 217.8 384.41 217.38 384.05C216.96 383.69 216.62 383.257 216.36 382.75C216.107 382.237 215.98 381.66 215.98 381.02C215.98 380.567 216.053 380.14 216.2 379.74C216.347 379.333 216.55 378.957 216.81 378.61C217.07 378.263 217.38 377.953 217.74 377.68C218.1 377.4 218.493 377.16 218.92 376.96C218.56 376.46 218.3 375.973 218.14 375.5C217.98 375.02 217.9 374.543 217.9 374.07C217.9 373.57 217.99 373.097 218.17 372.65C218.357 372.197 218.623 371.803 218.97 371.47C219.317 371.137 219.743 370.873 220.25 370.68C220.757 370.48 221.33 370.38 221.97 370.38C222.557 370.38 223.08 370.47 223.54 370.65C224.007 370.83 224.403 371.07 224.73 371.37C225.063 371.67 225.323 372.013 225.51 372.4C225.703 372.787 225.817 373.187 225.85 373.6L224.28 373.93C223.987 373.99 223.773 373.863 223.64 373.55C223.58 373.377 223.5 373.213 223.4 373.06C223.307 372.9 223.193 372.763 223.06 372.65C222.927 372.53 222.77 372.437 222.59 372.37C222.41 372.297 222.203 372.26 221.97 372.26C221.69 372.26 221.44 372.31 221.22 372.41C221 372.503 220.813 372.633 220.66 372.8C220.513 372.96 220.4 373.15 220.32 373.37C220.24 373.583 220.2 373.81 220.2 374.05C220.2 374.25 220.22 374.443 220.26 374.63C220.3 374.817 220.367 375.003 220.46 375.19C220.553 375.377 220.673 375.57 220.82 375.77C220.973 375.963 221.16 376.173 221.38 376.4L225.22 380.39C225.44 379.97 225.617 379.527 225.75 379.06C225.883 378.593 225.97 378.12 226.01 377.64C226.03 377.487 226.083 377.363 226.17 377.27C226.257 377.177 226.377 377.13 226.53 377.13H228.07C228.063 378.01 227.937 378.85 227.69 379.65C227.443 380.45 227.09 381.187 226.63 381.86L229.66 385ZM238.896 372.68V376.96H244.316V379.11H238.896V385H236.196V370.54H245.316V372.68H238.896ZM255.271 374.74V385H253.761C253.434 385 253.228 384.85 253.141 384.55L252.971 383.73C252.551 384.157 252.088 384.503 251.581 384.77C251.074 385.03 250.478 385.16 249.791 385.16C249.231 385.16 248.734 385.067 248.301 384.88C247.874 384.687 247.514 384.417 247.221 384.07C246.928 383.723 246.704 383.313 246.551 382.84C246.404 382.36 246.331 381.833 246.331 381.26V374.74H248.801V381.26C248.801 381.887 248.944 382.373 249.231 382.72C249.524 383.06 249.961 383.23 250.541 383.23C250.968 383.23 251.368 383.137 251.741 382.95C252.114 382.757 252.468 382.493 252.801 382.16V374.74H255.271ZM260.03 376C260.237 375.793 260.453 375.603 260.68 375.43C260.913 375.25 261.157 375.1 261.41 374.98C261.67 374.853 261.947 374.757 262.24 374.69C262.533 374.617 262.853 374.58 263.2 374.58C263.76 374.58 264.257 374.677 264.69 374.87C265.123 375.057 265.483 375.323 265.77 375.67C266.063 376.01 266.283 376.42 266.43 376.9C266.583 377.373 266.66 377.897 266.66 378.47V385H264.19V378.47C264.19 377.843 264.047 377.36 263.76 377.02C263.473 376.673 263.037 376.5 262.45 376.5C262.023 376.5 261.623 376.597 261.25 376.79C260.877 376.983 260.523 377.247 260.19 377.58V385H257.72V374.74H259.23C259.55 374.74 259.76 374.89 259.86 375.19L260.03 376Z" fill="#6C7380"/>
<path d="M88.2105 364.706C87.1579 363.649 85.4514 363.649 84.3988 364.706L77.4238 371.711H71.8398C68.6198 371.711 66 374.342 66 377.577V392.788C66 393.536 66.6034 394.142 67.3477 394.142H78.2188C78.963 394.142 79.5664 393.536 79.5664 392.788V377.216L88.2105 368.534C89.2632 367.477 89.2632 365.763 88.2105 364.706Z" fill="url(#paint10_linear)"/>
<path d="M89 358.289C88.2557 358.289 87.6523 357.686 87.6523 356.941V353.348C87.6523 352.603 88.2557 352 89 352C89.7443 352 90.3477 352.603 90.3477 353.348V356.941C90.3477 357.686 89.7443 358.289 89 358.289Z" fill="#FF6BC1"/>
<path d="M84.0596 360.087C83.5937 360.087 83.1408 359.846 82.8912 359.413L81.0943 356.301C80.7222 355.657 80.9431 354.832 81.5876 354.46C82.2321 354.088 83.0564 354.309 83.4285 354.953L85.2254 358.066C85.5975 358.71 85.3767 359.535 84.7321 359.907C84.5199 360.029 84.2882 360.087 84.0596 360.087Z" fill="#FF6BC1"/>
<path d="M93.9398 360.087C93.7112 360.087 93.4795 360.029 93.2673 359.907C92.6227 359.534 92.4019 358.71 92.774 358.066L94.5709 354.953C94.943 354.309 95.7672 354.088 96.4118 354.46C97.0563 354.832 97.2772 355.657 96.905 356.301L95.1082 359.413C94.8586 359.846 94.4056 360.087 93.9398 360.087Z" fill="#FF6BC1"/>
<path d="M106.16 371.894H100.576L93.6012 364.919C92.5486 363.867 90.8421 363.867 89.7895 364.919C88.7368 365.972 88.7368 367.678 89.7895 368.731L98.4336 377.375V392.88C98.4336 393.624 99.037 394.228 99.7813 394.228H110.652C111.397 394.228 112 393.624 112 392.88V377.734C112 374.514 109.38 371.894 106.16 371.894Z" fill="url(#paint11_linear)"/>
<path d="M105.217 374.589C101.997 374.589 99.377 371.969 99.377 368.749C99.377 365.529 101.997 362.909 105.217 362.909C108.437 362.909 111.057 365.529 111.057 368.749C111.057 371.969 108.437 374.589 105.217 374.589Z" fill="#F9C295"/>
<path d="M72.7832 374.589C69.5631 374.589 66.9434 371.969 66.9434 368.749C66.9434 365.529 69.5631 362.909 72.7832 362.909C76.0033 362.909 78.623 365.529 78.623 368.749C78.623 371.969 76.0033 374.589 72.7832 374.589Z" fill="#F9C295"/>
</g>
<defs>
<filter id="filter0_d" x="4" y="-1" width="345" height="100" filterUnits="userSpaceOnUse" color-interpolation-filters="sRGB">
<feFlood flood-opacity="0" result="BackgroundImageFix"/>
<feColorMatrix in="SourceAlpha" type="matrix" values="0 0 0 0 0 0 0 0 0 0 0 0 0 0 0 0 0 0 127 0"/>
<feOffset dy="3"/>
<feGaussianBlur stdDeviation="5"/>
<feColorMatrix type="matrix" values="0 0 0 0 0 0 0 0 0 0 0 0 0 0 0 0 0 0 0.1 0"/>
<feBlend mode="normal" in2="BackgroundImageFix" result="effect1_dropShadow"/>
<feBlend mode="normal" in="SourceGraphic" in2="effect1_dropShadow" result="shape"/>
</filter>
<filter id="filter1_d" x="4" y="109" width="345" height="100" filterUnits="userSpaceOnUse" color-interpolation-filters="sRGB">
<feFlood flood-opacity="0" result="BackgroundImageFix"/>
<feColorMatrix in="SourceAlpha" type="matrix" values="0 0 0 0 0 0 0 0 0 0 0 0 0 0 0 0 0 0 127 0"/>
<feOffset dy="3"/>
<feGaussianBlur stdDeviation="5"/>
<feColorMatrix type="matrix" values="0 0 0 0 0 0 0 0 0 0 0 0 0 0 0 0 0 0 0.1 0"/>
<feBlend mode="normal" in2="BackgroundImageFix" result="effect1_dropShadow"/>
<feBlend mode="normal" in="SourceGraphic" in2="effect1_dropShadow" result="shape"/>
</filter>
<filter id="filter2_d" x="4" y="439" width="345" height="100" filterUnits="userSpaceOnUse" color-interpolation-filters="sRGB">
<feFlood flood-opacity="0" result="BackgroundImageFix"/>
<feColorMatrix in="SourceAlpha" type="matrix" values="0 0 0 0 0 0 0 0 0 0 0 0 0 0 0 0 0 0 127 0"/>
<feOffset dy="3"/>
<feGaussianBlur stdDeviation="5"/>
<feColorMatrix type="matrix" values="0 0 0 0 0 0 0 0 0 0 0 0 0 0 0 0 0 0 0.1 0"/>
<feBlend mode="normal" in2="BackgroundImageFix" result="effect1_dropShadow"/>
<feBlend mode="normal" in="SourceGraphic" in2="effect1_dropShadow" result="shape"/>
</filter>
<filter id="filter3_d" x="4" y="329" width="345" height="100" filterUnits="userSpaceOnUse" color-interpolation-filters="sRGB">
<feFlood flood-opacity="0" result="BackgroundImageFix"/>
<feColorMatrix in="SourceAlpha" type="matrix" values="0 0 0 0 0 0 0 0 0 0 0 0 0 0 0 0 0 0 127 0"/>
<feOffset dy="3"/>
<feGaussianBlur stdDeviation="5"/>
<feColorMatrix type="matrix" values="0 0 0 0 0 0 0 0 0 0 0 0 0 0 0 0 0 0 0.1 0"/>
<feBlend mode="normal" in2="BackgroundImageFix" result="effect1_dropShadow"/>
<feBlend mode="normal" in="SourceGraphic" in2="effect1_dropShadow" result="shape"/>
</filter>
<filter id="filter4_d" x="4" y="219" width="345" height="100" filterUnits="userSpaceOnUse" color-interpolation-filters="sRGB">
<feFlood flood-opacity="0" result="BackgroundImageFix"/>
<feColorMatrix in="SourceAlpha" type="matrix" values="0 0 0 0 0 0 0 0 0 0 0 0 0 0 0 0 0 0 127 0"/>
<feOffset dy="3"/>
<feGaussianBlur stdDeviation="5"/>
<feColorMatrix type="matrix" values="0 0 0 0 0 0 0 0 0 0 0 0 0 0 0 0 0 0 0.1 0"/>
<feBlend mode="normal" in2="BackgroundImageFix" result="effect1_dropShadow"/>
<feBlend mode="normal" in="SourceGraphic" in2="effect1_dropShadow" result="shape"/>
</filter>
<linearGradient id="paint0_linear" x1="82.5676" y1="45.8758" x2="88.5483" y2="49.2732" gradientUnits="userSpaceOnUse">
<stop stop-color="#136BDE"/>
<stop offset="1" stop-color="#68ADFD"/>
</linearGradient>
<linearGradient id="paint1_linear" x1="90.9006" y1="45.8758" x2="96.8812" y2="49.2732" gradientUnits="userSpaceOnUse">
<stop stop-color="#136BDE"/>
<stop offset="1" stop-color="#68ADFD"/>
</linearGradient>
<linearGradient id="paint2_linear" x1="84.4686" y1="39.8605" x2="89.2706" y2="47.1346" gradientUnits="userSpaceOnUse">
<stop stop-color="#136BDE"/>
<stop offset="1" stop-color="#68ADFD"/>
</linearGradient>
<linearGradient id="paint3_linear" x1="84.7643" y1="171.579" x2="88.3243" y2="177.15" gradientUnits="userSpaceOnUse">
<stop stop-color="#136BDE"/>
<stop offset="1" stop-color="#68ADFD"/>
</linearGradient>
<linearGradient id="paint4_linear" x1="76.1444" y1="145.743" x2="94.3923" y2="166.655" gradientUnits="userSpaceOnUse">
<stop stop-color="#136BDE"/>
<stop offset="1" stop-color="#68ADFD"/>
</linearGradient>
<linearGradient id="paint5_linear" x1="82.8543" y1="467.376" x2="88.5762" y2="474.032" gradientUnits="userSpaceOnUse">
<stop stop-color="#136BDE"/>
<stop offset="1" stop-color="#68ADFD"/>
</linearGradient>
<linearGradient id="paint6_linear" x1="76.138" y1="490.208" x2="80.3536" y2="492.655" gradientUnits="userSpaceOnUse">
<stop stop-color="#136BDE"/>
<stop offset="1" stop-color="#68ADFD"/>
</linearGradient>
<linearGradient id="paint7_linear" x1="81.3885" y1="280.185" x2="89.6263" y2="280.474" gradientUnits="userSpaceOnUse">
<stop stop-color="#136BDE"/>
<stop offset="1" stop-color="#68ADFD"/>
</linearGradient>
<linearGradient id="paint8_linear" x1="81.3885" y1="280.185" x2="89.6263" y2="280.474" gradientUnits="userSpaceOnUse">
<stop stop-color="#136BDE"/>
<stop offset="1" stop-color="#68ADFD"/>
</linearGradient>
<linearGradient id="paint9_linear" x1="81.3885" y1="280.185" x2="89.6263" y2="280.474" gradientUnits="userSpaceOnUse">
<stop stop-color="#136BDE"/>
<stop offset="1" stop-color="#68ADFD"/>
</linearGradient>
<linearGradient id="paint10_linear" x1="71.2467" y1="373.121" x2="86.0163" y2="383.335" gradientUnits="userSpaceOnUse">
<stop stop-color="#136BDE"/>
<stop offset="1" stop-color="#68ADFD"/>
</linearGradient>
<linearGradient id="paint11_linear" x1="94.2467" y1="373.298" x2="108.975" y2="383.527" gradientUnits="userSpaceOnUse">
<stop stop-color="#136BDE"/>
<stop offset="1" stop-color="#68ADFD"/>
</linearGradient>
<clipPath id="clip0">
<rect x="-11" y="-832" width="375" height="5172" fill="white"/>
</clipPath>
</defs>
</svg>
