<svg width="25" height="25" viewBox="0 0 25 25" fill="none" xmlns="http://www.w3.org/2000/svg">
<path fill-rule="evenodd" clip-rule="evenodd" d="M12.5 25C19.4031 25 25 19.4031 25 12.5C25 5.59694 19.4031 0 12.5 0C5.59694 0 0 5.59694 0 12.5C0 19.4031 5.59694 25 12.5 25ZM19.0189 9.421C19.3614 9.07855 19.3614 8.52332 19.0189 8.18086C18.6765 7.83841 18.1212 7.83841 17.7788 8.18086L10.1047 15.8549L6.32174 12.0653C5.97958 11.7226 5.42435 11.7221 5.0816 12.0643C4.73885 12.4064 4.73836 12.9616 5.08052 13.3044L9.48359 17.7151C9.64799 17.8798 9.87111 17.9724 10.1038 17.9725C10.3365 17.9726 10.5597 17.8802 10.7243 17.7156L19.0189 9.421Z" fill="#2BC569"/>
</svg>
