<svg width="42" height="42" viewBox="0 0 42 42" fill="none" xmlns="http://www.w3.org/2000/svg">
<path d="M37.926 24.6658L15.0852 14.3071C14.6411 14.1066 14.1184 14.304 13.9179 14.7481C13.8344 14.933 13.8172 15.1411 13.8691 15.3372L20.6727 40.9172C20.7723 41.2933 21.1066 41.5597 21.4954 41.5731C21.582 41.5759 21.6686 41.5658 21.7521 41.5431C22.0373 41.4671 22.2656 41.2536 22.3604 40.9742L26.3092 29.3753L37.7895 26.3218C38.2602 26.196 38.5399 25.7124 38.4141 25.2416C38.3458 24.9863 38.1667 24.775 37.926 24.6658Z" fill="#4285F4"/>
<path d="M13.1342 9.14194C12.6633 9.26719 12.18 8.98696 12.0547 8.51604L10.2405 1.69473C10.1153 1.2238 10.3955 0.740498 10.8664 0.615248C11.3373 0.489998 11.8206 0.770236 11.9459 1.24115L13.7601 8.06246C13.8854 8.53337 13.6051 9.01669 13.1342 9.14194Z" fill="url(#paint0_linear)"/>
<path d="M8.12759 17.7776L1.30628 19.5919C0.835368 19.7171 0.352043 19.4369 0.226793 18.966C0.101543 18.4951 0.381782 18.0117 0.852694 17.8865L7.674 16.0722C8.14491 15.947 8.62824 16.2272 8.75349 16.6981C8.87874 17.169 8.5985 17.6523 8.12759 17.7776Z" fill="url(#paint1_linear)"/>
<path d="M28.5915 12.3347L21.7701 14.149C21.2992 14.2743 20.8159 13.994 20.6907 13.5231C20.5654 13.0522 20.8456 12.5689 21.3166 12.4436L28.1379 10.6293C28.6088 10.5041 29.0921 10.7843 29.2174 11.2552C29.3426 11.7261 29.0624 12.2095 28.5915 12.3347Z" fill="url(#paint2_linear)"/>
<path d="M8.84328 12.4233C8.84327 12.4233 8.84325 12.4233 8.84323 12.4233C8.61704 12.4839 8.37606 12.4521 8.17335 12.3349L2.06719 8.79882C1.64327 8.55302 1.4989 8.01025 1.7447 7.58632C1.99049 7.1624 2.53327 7.01804 2.95719 7.26383L9.05794 10.8069C9.47981 11.0507 9.62405 11.5905 9.38019 12.0123C9.26259 12.2157 9.06874 12.3638 8.84161 12.4238L8.84325 12.4234C8.84327 12.4234 8.84329 12.4234 8.84328 12.4233Z" fill="url(#paint3_linear)"/>
<path d="M7.86768 28.1763C7.397 28.3025 6.91321 28.023 6.78708 27.5524C6.7263 27.3254 6.75853 27.0836 6.87663 26.8805L10.4179 20.773C10.6696 20.3558 11.2119 20.2216 11.6291 20.4732C12.0361 20.7188 12.1755 21.2426 11.9442 21.6579L8.41024 27.7653C8.29162 27.9694 8.09621 28.1174 7.86768 28.1763Z" fill="url(#paint4_linear)"/>
<path d="M18.4888 9.85776C18.0181 9.98389 17.5343 9.70446 17.4082 9.23378C17.3474 9.00686 17.3796 8.76505 17.4977 8.56194L21.0339 2.45575C21.2855 2.03849 21.8279 1.90434 22.2451 2.15601C22.6521 2.4016 22.7915 2.92543 22.5602 3.34069L19.0258 9.44643C18.9085 9.64949 18.7153 9.7975 18.4888 9.85776Z" fill="url(#paint5_linear)"/>
<defs>
<linearGradient id="paint0_linear" x1="10.5812" y1="1.68707" x2="12.7968" y2="1.46492" gradientUnits="userSpaceOnUse">
<stop stop-color="#A3EDD0"/>
<stop offset="1" stop-color="#42DB9B"/>
</linearGradient>
<linearGradient id="paint1_linear" x1="1.65022" y1="17.8736" x2="2.9578" y2="20.2506" gradientUnits="userSpaceOnUse">
<stop stop-color="#A3EDD0"/>
<stop offset="1" stop-color="#42DB9B"/>
</linearGradient>
<linearGradient id="paint2_linear" x1="22.1141" y1="12.4307" x2="23.4217" y2="14.8077" gradientUnits="userSpaceOnUse">
<stop stop-color="#A3EDD0"/>
<stop offset="1" stop-color="#42DB9B"/>
</linearGradient>
<linearGradient id="paint3_linear" x1="2.8425" y1="7.78841" x2="8.98377" y2="10.5236" gradientUnits="userSpaceOnUse">
<stop stop-color="#A3EDD0"/>
<stop offset="1" stop-color="#42DB9B"/>
</linearGradient>
<linearGradient id="paint4_linear" x1="6.69248" y1="22.2692" x2="12.8227" y2="24.9994" gradientUnits="userSpaceOnUse">
<stop stop-color="#A3EDD0"/>
<stop offset="1" stop-color="#42DB9B"/>
</linearGradient>
<linearGradient id="paint5_linear" x1="17.3126" y1="3.95081" x2="23.4409" y2="6.67741" gradientUnits="userSpaceOnUse">
<stop stop-color="#A3EDD0"/>
<stop offset="1" stop-color="#42DB9B"/>
</linearGradient>
</defs>
</svg>
