<svg width="62" height="51" viewBox="0 0 62 51" fill="none" xmlns="http://www.w3.org/2000/svg">
<g clip-path="url(#clip0)">
<rect x="-551" y="-1616" width="1400" height="5623" fill="white"/>
<g filter="url(#filter0_d)">
<rect x="-111" y="-24" width="280" height="190" rx="5" fill="white"/>
</g>
<path d="M45.926 29.6658L23.0852 19.3071C22.6411 19.1066 22.1184 19.304 21.9179 19.7481C21.8344 19.933 21.8172 20.1411 21.8691 20.3372L28.6727 45.9172C28.7723 46.2933 29.1066 46.5597 29.4954 46.5731C29.582 46.5759 29.6686 46.5658 29.7521 46.5431C30.0373 46.4671 30.2656 46.2536 30.3604 45.9742L34.3092 34.3753L45.7895 31.3218C46.2602 31.196 46.5399 30.7124 46.4141 30.2416C46.3458 29.9863 46.1667 29.775 45.926 29.6658Z" fill="#4285F4"/>
<path d="M21.1347 14.1419C20.6638 14.2672 20.1805 13.987 20.0552 13.516L18.241 6.69473C18.1158 6.2238 18.3959 5.7405 18.8669 5.61525C19.3378 5.49 19.8211 5.77024 19.9463 6.24115L21.7606 13.0625C21.8859 13.5334 21.6056 14.0167 21.1347 14.1419Z" fill="#12b7e0"/>
<path d="M16.1276 22.7776L9.30628 24.5919C8.83537 24.7171 8.35204 24.4369 8.22679 23.966C8.10154 23.4951 8.38178 23.0117 8.85269 22.8865L15.674 21.0722C16.1449 20.947 16.6282 21.2272 16.7535 21.6981C16.8787 22.169 16.5985 22.6523 16.1276 22.7776Z" fill="#12b7e0"/>
<path d="M36.591 17.3347L29.7697 19.149C29.2987 19.2743 28.8154 18.994 28.6902 18.5231C28.5649 18.0522 28.8452 17.5689 29.3161 17.4436L36.1374 15.6293C36.6083 15.5041 37.0916 15.7843 37.2169 16.2552C37.3421 16.7261 37.0619 17.2095 36.591 17.3347Z" fill="#12b7e0"/>
<path d="M16.8438 17.4233C16.6176 17.4839 16.3766 17.4521 16.1738 17.3349L10.0677 13.7988C9.64376 13.553 9.49939 13.0102 9.74519 12.5863C9.99098 12.1624 10.5338 12.018 10.9577 12.2638L17.0584 15.8069C17.4803 16.0507 17.6245 16.5905 17.3807 17.0123C17.2631 17.2157 17.0692 17.3638 16.8421 17.4238L16.8438 17.4234L16.8438 17.4233Z" fill="#12b7e0"/>
<path d="M15.8677 33.1763C15.397 33.3025 14.9132 33.023 14.7871 32.5524C14.7263 32.3254 14.7585 32.0836 14.8766 31.8805L18.4179 25.773C18.6696 25.3558 19.2119 25.2216 19.6291 25.4732C20.0361 25.7188 20.1755 26.2426 19.9442 26.6579L16.4102 32.7653C16.2916 32.9694 16.0962 33.1174 15.8677 33.1763Z" fill="#12b7e0"/>
<path d="M26.4888 14.8578C26.0181 14.9839 25.5343 14.7045 25.4082 14.2338C25.3474 14.0069 25.3796 13.765 25.4977 13.5619L29.0339 7.45575C29.2855 7.03849 29.8279 6.90434 30.2451 7.15601C30.6521 7.4016 30.7915 7.92543 30.5602 8.34069L27.0258 14.4464C26.9085 14.6495 26.7153 14.7975 26.4888 14.8578Z" fill="#12b7e0"/>
</g>
<defs>
<filter id="filter0_d" x="-121" y="-30" width="300" height="210" filterUnits="userSpaceOnUse" color-interpolation-filters="sRGB">
<feFlood flood-opacity="0" result="BackgroundImageFix"/>
<feColorMatrix in="SourceAlpha" type="matrix" values="0 0 0 0 0 0 0 0 0 0 0 0 0 0 0 0 0 0 127 0"/>
<feOffset dy="4"/>
<feGaussianBlur stdDeviation="5"/>
<feColorMatrix type="matrix" values="0 0 0 0 0 0 0 0 0 0 0 0 0 0 0 0 0 0 0.1 0"/>
<feBlend mode="normal" in2="BackgroundImageFix" result="effect1_dropShadow"/>
<feBlend mode="normal" in="SourceGraphic" in2="effect1_dropShadow" result="shape"/>
</filter>
<clipPath id="clip0">
<rect x="-551" y="-1616" width="1400" height="5623" fill="white"/>
</clipPath>
</defs>
</svg>
