<svg width="42" height="42" viewBox="0 0 42 42" fill="none" xmlns="http://www.w3.org/2000/svg">
<path d="M13.1347 9.14194C12.6638 9.26719 12.1805 8.98696 12.0552 8.51604L10.241 1.69473C10.1158 1.2238 10.3959 0.740498 10.8669 0.615248C11.3378 0.489998 11.8211 0.770236 11.9463 1.24115L13.7606 8.06246C13.8859 8.53337 13.6056 9.01669 13.1347 9.14194Z" fill="url(#paint0_linear)"/>
<path d="M8.12759 17.7776L1.30628 19.5919C0.835368 19.7171 0.352043 19.4369 0.226793 18.966C0.101543 18.4951 0.381782 18.0117 0.852694 17.8865L7.674 16.0722C8.14491 15.947 8.62824 16.2272 8.75349 16.6981C8.87874 17.169 8.5985 17.6523 8.12759 17.7776Z" fill="url(#paint1_linear)"/>
<path d="M28.591 12.3347L21.7697 14.149C21.2987 14.2743 20.8154 13.994 20.6902 13.5231C20.5649 13.0522 20.8452 12.5689 21.3161 12.4436L28.1374 10.6293C28.6083 10.5041 29.0916 10.7843 29.2169 11.2552C29.3421 11.7261 29.0619 12.2095 28.591 12.3347Z" fill="url(#paint2_linear)"/>
<path d="M8.84377 12.4233C8.84376 12.4233 8.84374 12.4233 8.84372 12.4233C8.61753 12.4839 8.37655 12.4521 8.17384 12.3349L2.06768 8.79882C1.64376 8.55302 1.49939 8.01025 1.74519 7.58632C1.99098 7.1624 2.53376 7.01804 2.95768 7.26383L9.05843 10.8069C9.4803 11.0507 9.62453 11.5905 9.38067 12.0123C9.26308 12.2157 9.06923 12.3638 8.8421 12.4238L8.84374 12.4234C8.84376 12.4234 8.84377 12.4234 8.84377 12.4233Z" fill="url(#paint3_linear)"/>
<path d="M7.86768 28.1763C7.397 28.3025 6.91321 28.023 6.78708 27.5524C6.7263 27.3254 6.75853 27.0836 6.87663 26.8805L10.4179 20.773C10.6696 20.3558 11.2119 20.2216 11.6291 20.4732C12.0361 20.7188 12.1755 21.2426 11.9442 21.6579L8.41024 27.7653C8.29162 27.9694 8.09621 28.1174 7.86768 28.1763Z" fill="url(#paint4_linear)"/>
<path d="M18.4888 9.85776C18.0181 9.98389 17.5343 9.70446 17.4082 9.23378C17.3474 9.00686 17.3796 8.76505 17.4977 8.56194L21.0339 2.45575C21.2855 2.03849 21.8279 1.90434 22.2451 2.15601C22.6521 2.4016 22.7915 2.92543 22.5602 3.34069L19.0258 9.44643C18.9085 9.64949 18.7153 9.7975 18.4888 9.85776Z" fill="url(#paint5_linear)"/>
<path d="M37.926 24.6658L15.0852 14.3071C14.6411 14.1066 14.1184 14.304 13.9179 14.7481C13.8344 14.933 13.8172 15.1411 13.8691 15.3372L20.6727 40.9172C20.7723 41.2933 21.1066 41.5597 21.4954 41.5731C21.582 41.5759 21.6686 41.5658 21.7521 41.5431C22.0373 41.4671 22.2656 41.2536 22.3604 40.9742L26.3092 29.3753L37.7895 26.3218C38.2602 26.196 38.5399 25.7124 38.4141 25.2416C38.3458 24.9863 38.1667 24.775 37.926 24.6658Z" fill="#4285F4"/>
<defs>
<linearGradient id="paint0_linear" x1="13.5279" y1="7.89198" x2="11.2707" y2="8.14409" gradientUnits="userSpaceOnUse">
<stop stop-color="#FF6B4D"/>
<stop offset="1" stop-color="#F69866"/>
</linearGradient>
<linearGradient id="paint1_linear" x1="8.04844" y1="17.5696" x2="6.57454" y2="15.0004" gradientUnits="userSpaceOnUse">
<stop stop-color="#FF6B4D"/>
<stop offset="1" stop-color="#F69866"/>
</linearGradient>
<linearGradient id="paint2_linear" x1="28.5118" y1="12.1267" x2="27.0379" y2="9.55754" gradientUnits="userSpaceOnUse">
<stop stop-color="#FF6B4D"/>
<stop offset="1" stop-color="#F69866"/>
</linearGradient>
<linearGradient id="paint3_linear" x1="8.8081" y1="11.5554" x2="2.27822" y2="8.9247" gradientUnits="userSpaceOnUse">
<stop stop-color="#FF6B4D"/>
<stop offset="1" stop-color="#F69866"/>
</linearGradient>
<linearGradient id="paint4_linear" x1="12.6468" y1="26.0294" x2="6.12874" y2="23.4034" gradientUnits="userSpaceOnUse">
<stop stop-color="#FF6B4D"/>
<stop offset="1" stop-color="#F69866"/>
</linearGradient>
<linearGradient id="paint5_linear" x1="23.2633" y1="7.71201" x2="16.7475" y2="5.08978" gradientUnits="userSpaceOnUse">
<stop stop-color="#FF6B4D"/>
<stop offset="1" stop-color="#F69866"/>
</linearGradient>
</defs>
</svg>
