<svg width="43" height="42" viewBox="0 0 43 42" fill="none" xmlns="http://www.w3.org/2000/svg">
<path d="M38.5808 24.4585L15.74 14.251C15.2959 14.0533 14.7732 14.2479 14.5727 14.6855C14.4892 14.8677 14.4719 15.0727 14.5239 15.266L21.3275 40.4726C21.4271 40.8432 21.7614 41.1058 22.1502 41.1189C22.2368 41.1217 22.3233 41.1117 22.4069 41.0894C22.6921 41.0145 22.9203 40.8041 23.0152 40.5288L26.964 29.0991L38.4443 26.0903C38.915 25.9663 39.1947 25.4898 39.0689 25.0259C39.0006 24.7743 38.8215 24.566 38.5808 24.4585Z" fill="#4285F4"/>
<path d="M13.789 9.1613C13.3181 9.28474 12.8348 9.00861 12.7096 8.54456L10.8956 1.82274C10.7704 1.35868 11.0506 0.882406 11.5215 0.758964C11.9924 0.635523 12.4757 0.911658 12.6009 1.3757L14.4149 8.09753C14.5402 8.56157 14.2599 9.03786 13.789 9.1613Z" fill="#FFC107"/>
<path d="M8.78237 17.6708L1.96107 19.4586C1.49015 19.582 1.00683 19.3059 0.881578 18.8418C0.756329 18.3778 1.03657 17.9015 1.50748 17.7781L8.32879 15.9903C8.7997 15.8669 9.28302 16.143 9.40827 16.6071C9.53352 17.0711 9.25329 17.5474 8.78237 17.6708Z" fill="#FFC107"/>
<path d="M29.2459 12.3073L22.4246 14.0951C21.9537 14.2186 21.4703 13.9424 21.3451 13.4784C21.2198 13.0143 21.5001 12.5381 21.971 12.4146L28.7923 10.6268C29.2632 10.5034 29.7465 10.7796 29.8718 11.2436C29.997 11.7076 29.7168 12.1839 29.2459 12.3073Z" fill="#FFC107"/>
<path d="M9.49842 12.3946C9.27222 12.4543 9.03122 12.423 8.8285 12.3074L2.72234 8.82298C2.29842 8.58078 2.15406 8.04592 2.39985 7.62819C2.64565 7.21045 3.18842 7.0682 3.61234 7.31041L9.71309 10.8017C10.135 11.042 10.2792 11.5739 10.0353 11.9896C9.91774 12.19 9.72389 12.336 9.49676 12.3951L9.49844 12.3946L9.49842 12.3946Z" fill="#FFC107"/>
<path d="M8.52259 27.9177C8.05191 28.042 7.56812 27.7667 7.44199 27.3029C7.38121 27.0793 7.41344 26.841 7.53154 26.6408L11.0728 20.6224C11.3245 20.2113 11.8668 20.0791 12.284 20.3271C12.691 20.5691 12.8304 21.0852 12.5991 21.4944L9.06514 27.5127C8.94653 27.7138 8.75112 27.8597 8.52259 27.9177Z" fill="#FFC107"/>
<path d="M19.1432 9.86714C18.6725 9.99145 18.1887 9.71611 18.0626 9.2523C18.0018 9.02869 18.0341 8.7904 18.1522 8.59024L21.6885 2.57293C21.9401 2.16173 22.4825 2.02952 22.8997 2.27751C23.3067 2.5195 23.446 3.0357 23.2147 3.44491L19.6802 9.46179C19.5629 9.66189 19.3697 9.80776 19.1432 9.86714Z" fill="#FFC107"/>
</svg>
