<svg width="25" height="25" viewBox="0 0 25 25" fill="none" xmlns="http://www.w3.org/2000/svg">
<path fill-rule="evenodd" clip-rule="evenodd" d="M12.5 25C19.4031 25 25 19.4031 25 12.5C25 5.59694 19.4031 0 12.5 0C5.59694 0 0 5.59694 0 12.5C0 19.4031 5.59694 25 12.5 25ZM18.1115 8.94213L13.843 13.211L18.1115 17.4799C18.4264 17.7947 18.4264 18.3052 18.1115 18.6207C17.9534 18.7781 17.7473 18.8568 17.5411 18.8568C17.3349 18.8568 17.1281 18.7781 16.9707 18.6207L12.7022 14.3523L8.43364 18.6207C8.27619 18.7781 8.07003 18.8568 7.86323 18.8568C7.65704 18.8568 7.45088 18.7781 7.29281 18.6207C6.97792 18.3052 6.97792 17.7948 7.29281 17.4799L11.5613 13.211L7.29281 8.94213C6.97792 8.62726 6.97792 8.11684 7.29281 7.80196C7.60831 7.48707 8.11812 7.48707 8.43364 7.80196L12.7022 12.0703L16.9707 7.80196C17.2856 7.48707 17.796 7.48707 18.1115 7.80196C18.4264 8.11683 18.4264 8.62725 18.1115 8.94213Z" fill="#FF6B4D"/>
</svg>
