<svg width="15" height="15" viewBox="0 0 15 15" fill="none" xmlns="http://www.w3.org/2000/svg">
<path fill-rule="evenodd" clip-rule="evenodd" d="M7.49969 9.13681L1.97853 14.658C1.52599 15.1105 0.790958 15.1125 0.339417 14.661C-0.116122 14.2054 -0.111132 13.4744 0.3424 13.0209L5.86356 7.49969L0.3424 1.97853C-0.111128 1.52599 -0.113139 0.790958 0.339417 0.339417C0.793963 -0.116122 1.52497 -0.111132 1.97853 0.3424L7.49969 5.86356L13.0209 0.3424C13.4744 -0.111128 14.2084 -0.113139 14.661 0.339417C15.1155 0.793963 15.1115 1.52497 14.658 1.97853L9.13681 7.49969L14.658 13.0209C15.1105 13.4744 15.1125 14.2084 14.661 14.661C14.2054 15.1155 13.4744 15.1115 13.0209 14.658L7.49969 9.13681Z" fill="#12b7e0"/>
</svg>
