<svg width="474" height="447" viewBox="0 0 474 447" fill="none" xmlns="http://www.w3.org/2000/svg">
<path opacity="0.3" fill-rule="evenodd" clip-rule="evenodd" d="M155.274 60.2276C173.876 36.6148 205.205 26.8614 233.576 36.5629C240.424 38.8556 246.82 42.336 252.473 46.8461C273.721 63.9501 268.005 83.888 286.758 94.3044C313.48 109.147 341.002 77.508 392.848 76.1011C415.128 75.4965 448.872 73.0239 464.652 93.6541C481.031 115.067 469.208 149.171 466.593 156.715C448.827 207.962 402.484 213.634 398.023 249.682C394.908 274.846 398.074 283.287 412.463 295.482C421.399 303.056 431.23 306.078 441.736 310.491C452.686 315.092 460.715 324.412 465.066 335.395C474.448 359.08 472.19 395.808 445.346 406.975C438.364 409.881 430.695 410.764 423.137 410.742C396.626 410.669 368.801 400.59 345.017 389.399C311.175 373.475 302.317 365.902 275.179 340.816C260.721 327.451 244.863 316.133 225.95 310.141C190.949 299.051 185.048 327.195 71.3435 346.547C52.7791 349.707 26.1308 356.793 10.1682 342.702C3.39233 336.722 0.292064 327.377 0.0286224 318.318C-0.476308 300.968 5.68433 279.729 19.7091 268.647C46.8565 247.196 94.1253 271.634 115.979 241.878C130.943 221.505 113.24 199.13 114.685 158.664C115.553 134.383 123.42 100.663 155.274 60.2276Z" fill="#DDE1E7"/>
<path fill-rule="evenodd" clip-rule="evenodd" d="M356.45 104.466L343.071 122.415L341.733 99.0027C341.733 99.0027 357.119 97.219 356.45 104.466Z" fill="url(#paint0_linear)"/>
<rect x="434.715" y="105.023" width="104.354" height="51.1734" transform="rotate(-180 434.715 105.023)" fill="url(#paint1_linear)"/>
<rect x="426.203" y="68.3672" width="85.6719" height="4.24106" rx="2.12053" transform="rotate(-180 426.203 68.3672)" fill="white"/>
<rect x="426.061" y="80.666" width="85.6719" height="4.24106" rx="2.12053" transform="rotate(-180 426.061 80.666)" fill="white"/>
<rect x="425.92" y="92.9658" width="85.6719" height="4.24106" rx="2.12053" transform="rotate(-180 425.92 92.9658)" fill="white"/>
<path fill-rule="evenodd" clip-rule="evenodd" d="M222.694 150.175C222.694 150.175 238.636 144.854 253.489 177.157C268.342 209.461 280.675 256.393 260.246 302.509L195.117 290.497C195.117 290.497 220.417 265.913 222.987 245.441C225.557 224.969 206.835 177.082 212.228 164.546C217.622 152.009 222.694 150.175 222.694 150.175Z" fill="#3D476C"/>
<path fill-rule="evenodd" clip-rule="evenodd" d="M257.013 159.386C257.632 158.318 259.664 158.032 259.614 156.78C259.233 147.407 260.951 139.897 257.194 135.299C253.374 130.623 245.792 130.882 243.273 135.871C242.412 137.579 241.99 139.696 242.404 142.304C243.224 147.465 243.662 151.479 243.896 154.207C244.21 157.57 246.685 160.432 250.174 161.467C252.711 162.194 255.438 162.099 257.013 159.386Z" fill="#FFD5C0"/>
<rect x="238.593" y="103.43" width="37.6482" height="19.022" transform="rotate(56.344 238.593 103.43)" fill="#68ADFD"/>
<path fill-rule="evenodd" clip-rule="evenodd" d="M241.09 109.036C241.09 109.036 252.462 101.678 246.107 93.316C246.107 93.316 219.35 72.9122 208.312 94.9885C197.275 117.065 213.329 128.1 221.356 124.756C229.384 121.413 241.09 109.036 241.09 109.036Z" fill="#3D476C"/>
<path fill-rule="evenodd" clip-rule="evenodd" d="M188.264 364.647C188.264 364.647 209.029 322.397 181.874 296.418C154.719 270.439 158.234 269.058 153.783 249.966C149.332 230.873 141.435 211.773 124.287 208.612C107.138 205.45 113.674 189.702 90.811 192.486C90.811 192.486 109.414 220.494 107.116 236.785C104.818 253.075 111.365 281.049 123.724 291.352C136.083 301.655 153.796 316.411 155.591 337.747C157.387 359.084 179.15 366.443 188.264 364.647Z" fill="url(#paint2_linear)"/>
<path fill-rule="evenodd" clip-rule="evenodd" d="M186.772 374.887C187.281 365.901 186.529 356.822 184.161 348.156C182.995 343.824 181.418 339.612 179.452 335.578L178.715 334.069C178.471 333.565 178.174 333.089 177.906 332.598L177.081 331.134L176.669 330.402C176.53 330.16 176.368 329.93 176.219 329.694L174.394 326.875C173.772 325.953 173.099 325.068 172.377 324.222C171.652 323.384 170.867 322.579 170.094 321.759C169.321 320.938 168.547 320.116 167.786 319.283C166.261 317.62 164.778 315.918 163.299 314.22C160.341 310.823 157.392 307.417 154.452 304.004C151.524 300.578 148.618 297.13 145.804 293.6C142.959 290.084 140.302 286.42 137.844 282.624L136.943 281.182C136.644 280.7 136.376 280.2 136.091 279.71C135.813 279.215 135.518 278.73 135.257 278.226L134.477 276.712L134.087 275.955L133.733 275.18L133.025 273.631C132.798 273.11 132.599 272.577 132.385 272.051C132.179 271.521 131.95 271 131.779 270.457C130.204 266.179 129.249 261.697 128.943 257.148C128.831 254.874 128.892 252.594 129.125 250.329C129.335 248.071 129.681 245.842 129.858 243.622C129.948 242.516 129.981 241.405 129.955 240.296C129.915 239.194 129.797 238.095 129.602 237.01C129.397 235.925 129.117 234.855 128.764 233.809C128.397 232.762 127.97 231.737 127.485 230.739C125.59 226.7 122.721 223.209 119.73 219.87C116.724 216.532 113.55 213.336 110.386 210.135C107.216 206.937 104.057 203.726 100.849 200.568C97.6373 197.412 94.386 194.297 91.0957 191.222C94.4653 194.21 97.7827 197.257 101.048 200.362C104.314 203.466 107.53 206.618 110.758 209.761C112.365 211.339 113.962 212.928 115.549 214.528C117.135 216.129 118.706 217.748 120.233 219.412C121.76 221.075 123.248 222.781 124.622 224.588C126.011 226.395 127.219 228.333 128.229 230.375C128.74 231.397 129.191 232.448 129.581 233.523C129.96 234.607 130.264 235.716 130.489 236.841C130.701 237.971 130.83 239.115 130.873 240.264C130.903 241.406 130.874 242.55 130.784 243.69C130.611 245.96 130.273 248.188 130.074 250.414C129.854 252.632 129.802 254.863 129.919 257.089C130.187 261.53 131.233 265.911 132.746 270.104C134.242 274.309 136.362 278.268 138.75 282.046C141.176 285.82 143.798 289.463 146.608 292.96C149.396 296.484 152.283 299.934 155.194 303.366C158.114 306.792 161.049 310.205 164 313.608C165.471 315.313 166.946 317.006 168.45 318.677C169.199 319.514 169.956 320.344 170.721 321.167C171.483 321.994 172.262 322.81 173.002 323.684C173.733 324.559 174.414 325.475 175.042 326.427L176.858 329.3C177.006 329.541 177.168 329.774 177.305 330.021L177.714 330.766L178.532 332.254C178.797 332.754 179.092 333.238 179.333 333.75L180.061 335.284C182.002 339.372 183.544 343.638 184.668 348.022C185.773 352.402 186.495 356.871 186.827 361.377L186.944 363.064C186.984 363.627 186.99 364.191 187.015 364.754C187.07 365.88 187.07 367.008 187.073 368.134C187.052 370.389 186.961 372.643 186.772 374.887Z" fill="white"/>
<path fill-rule="evenodd" clip-rule="evenodd" d="M233.112 405.445C233.112 405.445 231.526 372.576 196.585 359.558C161.643 346.541 138.465 340.842 127.576 314.939C116.687 289.035 104.706 274.831 86.9992 270.285C69.2919 265.738 68.8223 259.258 55.195 255.843C41.5677 252.428 19.4165 254.119 19.4165 254.119C19.4165 254.119 60.4958 272.643 68.6004 298.502C76.7049 324.361 88.6616 339.958 107.925 349.691C127.189 359.423 141.967 393.092 177.515 393.829C213.064 394.566 233.112 405.445 233.112 405.445Z" fill="url(#paint3_linear)"/>
<path fill-rule="evenodd" clip-rule="evenodd" d="M234.963 409.813C232.429 404.558 229.302 399.611 225.642 395.067C221.976 390.536 217.694 386.54 212.921 383.195C211.706 382.397 210.511 381.568 209.256 380.836C208.006 380.095 206.727 379.407 205.419 378.773C202.787 377.534 200.09 376.438 197.339 375.492L180.854 369.638C175.36 367.681 169.868 365.718 164.402 363.679C161.667 362.665 158.941 361.624 156.224 360.554C153.509 359.478 150.806 358.37 148.158 357.119C142.901 354.532 137.912 351.431 133.265 347.863C132.67 347.436 132.118 346.954 131.545 346.499L129.843 345.114L128.193 343.667C127.642 343.186 127.087 342.708 126.563 342.198C125.497 341.196 124.423 340.202 123.406 339.152C122.893 338.63 122.367 338.121 121.865 337.59L120.365 335.99C116.38 331.707 112.748 327.119 109.2 322.488C105.687 317.836 102.115 313.2 99.0427 308.214C97.4916 305.733 96.0916 303.157 94.7885 300.541C93.4853 297.924 92.3062 295.253 90.9647 292.681C88.3166 287.517 84.7225 282.878 80.6045 278.79C76.4661 274.701 71.8263 271.152 66.7961 268.229C61.7554 265.314 56.4485 262.886 50.9473 260.977L48.8945 260.233L46.8088 259.585L44.7224 258.942C44.0251 258.732 43.335 258.497 42.626 258.33L38.3946 257.239L37.3361 256.969L36.2672 256.743L34.1286 256.291L31.9902 255.84C31.6334 255.766 31.2789 255.684 30.9199 255.618L29.8423 255.437L25.53 254.714C24.0965 254.446 22.6436 254.302 21.2002 254.108L16.8613 253.556L21.2058 254.064C22.6525 254.242 24.1067 254.374 25.5435 254.627L29.8652 255.308L30.9472 255.477C31.306 255.54 31.6624 255.618 32.0204 255.688L34.1658 256.119L36.3112 256.549L37.3842 256.765L38.4468 257.025L42.6965 258.075C43.4093 258.237 44.1031 258.464 44.8038 258.667L46.9026 259.291L49 259.92L51.0668 260.645C56.6039 262.528 61.9481 264.936 67.0266 267.837C72.1099 270.754 76.8033 274.302 80.9949 278.398C85.1725 282.49 88.8344 287.17 91.5171 292.393C92.8779 294.989 94.0582 297.658 95.362 300.256C96.6658 302.854 98.0557 305.407 99.6013 307.869C102.659 312.813 106.227 317.426 109.748 322.071C113.298 326.689 116.927 331.25 120.894 335.503L122.383 337.097C122.881 337.626 123.403 338.133 123.911 338.652C124.92 339.698 125.986 340.686 127.042 341.684C127.563 342.191 128.112 342.666 128.658 343.146L130.294 344.585L131.981 345.963C132.549 346.416 133.096 346.896 133.686 347.32C138.288 350.868 143.23 353.953 148.439 356.53C151.062 357.775 153.756 358.885 156.46 359.963C159.165 361.042 161.888 362.08 164.619 363.099C170.081 365.138 175.56 367.131 181.041 369.122L197.494 375.067C200.254 376.034 202.959 377.15 205.597 378.411C206.911 379.056 208.195 379.755 209.451 380.51C210.71 381.256 211.911 382.092 213.124 382.909C217.883 386.316 222.143 390.371 225.78 394.957C229.398 399.543 232.479 404.527 234.963 409.813Z" fill="white"/>
<path fill-rule="evenodd" clip-rule="evenodd" d="M165.794 402.297C157.658 392.043 141.597 383.65 120.054 387.894C98.5116 392.139 84.0387 379.844 75.5896 368.428C67.1453 357.008 47.1724 344.764 47.1724 344.764C47.1724 344.764 47.3918 344.772 47.8329 344.77C47.9183 344.772 48.0126 344.771 48.1158 344.77C50.2301 344.757 55.9217 344.578 65.4606 343.228C77.8523 341.473 88.0858 353.229 99.2213 352.068C110.353 350.903 119.954 352.453 130.475 356.922C140.995 361.392 148.541 363.004 167.3 358.615C186.06 354.227 212.502 382.703 212.502 382.703C212.693 383.817 212.828 384.891 212.91 385.925C212.914 385.956 212.917 385.987 212.918 386.018C215.201 415.73 173.901 412.519 165.794 402.297Z" fill="url(#paint4_linear)"/>
<path fill-rule="evenodd" clip-rule="evenodd" d="M212.919 386.016C207.409 385.975 201.909 385.678 196.42 385.124C188.837 384.338 181.322 383.003 173.932 381.131C170.237 380.201 166.583 379.103 162.963 377.928C159.345 376.762 155.729 375.59 152.055 374.657C148.381 373.709 144.66 372.963 140.908 372.375C137.167 371.763 133.397 371.344 129.613 371.122C127.72 371.038 125.828 371.023 123.933 371.062C122.038 371.101 120.118 371.16 118.199 371.041C116.286 370.924 114.383 370.676 112.503 370.299C111.562 370.124 110.631 369.903 109.699 369.698L106.926 368.987C103.239 367.967 99.6499 366.62 96.2019 364.963C92.7525 363.323 89.4437 361.437 86.0826 359.664C79.3715 356.096 72.4284 352.984 65.3001 350.347C59.5758 348.201 53.7533 346.341 47.8325 344.768C47.9179 344.77 48.0121 344.769 48.1154 344.768C53.9602 346.23 59.7275 347.979 65.4174 350.015C72.589 352.594 79.5783 355.655 86.3374 359.176L91.3903 361.829L93.9165 363.146C94.7655 363.57 95.6112 364.001 96.4671 364.403C99.8867 366.032 103.444 367.355 107.097 368.357L109.851 369.053C110.777 369.253 111.699 369.47 112.627 369.638C114.48 370.005 116.355 370.244 118.24 370.356C120.119 370.465 122.011 370.402 123.916 370.36C125.82 370.318 127.735 370.322 129.646 370.404C133.456 370.638 137.252 371.069 141.017 371.696C144.78 372.298 148.523 373.058 152.215 374.023C155.914 374.974 159.54 376.159 163.152 377.337C166.768 378.512 170.398 379.636 174.071 380.598C181.423 382.524 188.903 383.92 196.454 384.776C201.915 385.42 207.401 385.802 212.91 385.919C212.915 385.952 212.918 385.984 212.919 386.016Z" fill="white"/>
<path fill-rule="evenodd" clip-rule="evenodd" d="M268.67 202.277C268.67 202.277 258.228 212.465 261.494 227.608L211.831 191.39C211.831 191.39 196.457 160.441 213.936 155.131C225.631 151.579 268.67 202.277 268.67 202.277Z" fill="#FFBEE0"/>
<path fill-rule="evenodd" clip-rule="evenodd" d="M240.609 98.4941C240.609 98.4941 254.532 130.773 234.913 130.14C234.913 130.14 225.796 147.116 232.381 161.152C246.35 190.928 197.888 184.886 194.723 171.595C191.559 158.304 205.482 148.81 213.078 139.317C220.674 129.823 218.141 123.494 218.141 123.494C218.141 123.494 210.655 106.36 220.673 115.266C220.671 115.266 235.545 116.849 240.609 98.4941Z" fill="#FFD5C0"/>
<path fill-rule="evenodd" clip-rule="evenodd" d="M202.961 150.176C212.995 150.845 218.899 164.008 221.595 165.72C221.809 165.856 234.197 164.52 234.197 164.52C234.197 164.52 241.76 173.254 246.106 184.627C250.683 196.597 238.392 212.168 241.557 221.662C244.722 231.156 264.342 304.572 277 410.268C277 410.268 223.394 413.574 175.102 411.534C175.102 411.534 164.342 283.054 197.886 235.586C197.886 235.586 185.938 187.386 188.587 167.522C189.43 161.205 202.915 150.205 202.961 150.176Z" fill="#1257e0"/>
<path fill-rule="evenodd" clip-rule="evenodd" d="M235.571 225.822L212.911 232.902L221.943 257.082C221.943 257.082 223.306 270.499 248.47 256.884L235.571 225.822Z" fill="#FFD5C0"/>
<path fill-rule="evenodd" clip-rule="evenodd" d="M347.784 207.37C347.426 209.557 325.19 223.488 321.555 225.301C321.168 225.5 320.772 225.68 320.368 225.839C319.01 226.324 314.388 214.848 311.661 207.706C311.036 206.08 310.514 204.675 310.149 203.691H342.235C342.439 204.976 348.008 206.019 347.784 207.37Z" fill="#FFD5C0"/>
<path fill-rule="evenodd" clip-rule="evenodd" d="M321.556 225.301C321.154 225.671 320.644 225.902 320.101 225.96L302.063 227.94L295.498 231.475C290.127 225.876 283.708 221.924 276.949 220.418L296.782 214.103L303.609 207.705L307.894 203.69H313.308C314.367 204.968 315.347 206.308 316.243 207.705C316.988 208.851 317.661 210.043 318.257 211.274C320.668 216.285 322.153 222.258 322.153 222.258C322.653 223.292 322.41 224.532 321.556 225.301Z" fill="#FFD5C0"/>
<path fill-rule="evenodd" clip-rule="evenodd" d="M238.991 232.607L259.757 225.996L267.208 223.624L278.033 220.178C279.242 220.061 280.458 220.037 281.67 220.105C287.75 220.47 294.373 223.704 299.973 229.203L260.099 250.658L257.418 252.101L245.493 258.517C245.493 258.517 223.499 249.259 238.991 232.607Z" fill="#FFD5C0"/>
<path fill-rule="evenodd" clip-rule="evenodd" d="M216.738 243.625C216.738 243.625 215.399 237.05 239.971 232.506L228.026 183.525C225.505 173.188 218.984 164.183 209.743 158.91C203.27 155.217 196.698 155.067 191.588 161.213C183.774 170.612 216.738 243.625 216.738 243.625Z" fill="#FFBEE0"/>
<path fill-rule="evenodd" clip-rule="evenodd" d="M260.476 226.219L249.209 179.246L249.62 179.069C249.528 178.957 249.433 178.85 249.343 178.725L246.108 157.868L258.483 153.186L264.067 174.391L264.061 174.397L281.981 221.377C281.981 221.377 282.868 237.555 260.476 226.219Z" fill="#FFD5C0"/>
<path fill-rule="evenodd" clip-rule="evenodd" d="M216.339 90.3064C216.339 90.3064 225.704 76.2588 209.316 74.9211C192.927 73.5833 185.569 83.2819 187.91 92.9822C190.251 102.682 210.654 101.343 210.654 101.343L216.339 90.3064Z" fill="#3D476C"/>
<path fill-rule="evenodd" clip-rule="evenodd" d="M224.809 184.803C224.296 163.838 214.911 155.716 209.476 152.397C209.014 152.117 208.589 151.783 208.208 151.4L208.158 151.349C205.805 148.881 202.006 148.493 199.203 150.434C194.93 153.449 190.313 157.41 188.244 161.547L188.387 161.577C180.255 173.278 184.283 223.032 176.144 241.589C170.985 253.351 156.928 264.136 147.051 270.603C144.998 271.952 143.818 274.292 143.954 276.745C144.091 279.198 145.522 281.393 147.712 282.507L189.636 303.846C192.994 305.562 197.108 304.257 198.862 300.919C220.228 259.968 225.663 219.719 224.809 184.803Z" fill="#3D476C"/>
<path fill-rule="evenodd" clip-rule="evenodd" d="M315.853 135.459H388.633L372.37 207.629H299.589L315.853 135.459Z" fill="#68ADFD"/>
<path fill-rule="evenodd" clip-rule="evenodd" d="M350.67 173.116C351.639 169.362 350.789 165.898 348.772 165.377C346.755 164.857 344.335 167.478 343.367 171.232C342.399 174.985 343.249 178.45 345.265 178.97C347.282 179.49 349.702 176.869 350.67 173.116Z" fill="white"/>
<rect x="263.165" y="204.481" width="72.5135" height="3.2228" fill="#68ADFD"/>
<path fill-rule="evenodd" clip-rule="evenodd" d="M133.796 125.86L130.265 144.664L119.239 130.56C119.239 130.56 131.284 120.894 133.796 125.86Z" fill="#1257e0"/>
<rect x="147.027" y="127.303" width="40.1645" height="29.4036" transform="rotate(166.323 147.027 127.303)" fill="#1257e0"/>
<path fill-rule="evenodd" clip-rule="evenodd" d="M116.558 124.962C117.865 124.719 119.089 124.151 120.122 123.309C120.595 122.927 121.017 122.484 121.376 121.991C120.833 122.124 120.267 122.131 119.719 122.013C118.82 121.819 118.024 121.289 117.489 120.53C117.361 120.357 117.361 120.357 117.575 120.313C118.162 120.218 118.578 120.092 118.868 119.877C118.527 119.85 118.219 119.871 117.934 119.774C116.559 119.423 115.646 118.555 115.164 117.19C115.107 117.033 115.148 117.001 115.312 117.033C115.81 117.145 116.324 117.148 116.821 117.043C116.537 116.898 116.295 116.783 116.069 116.65C114.768 115.788 114.107 114.218 114.398 112.68C114.439 112.475 114.471 112.467 114.63 112.576C116.734 114.061 119.295 114.724 121.834 114.442C122.102 114.425 122.381 114.35 122.658 114.338C122.842 114.317 122.839 114.228 122.777 114.099C122.096 112.624 122.422 110.88 123.585 109.771C124.748 108.662 126.487 108.438 127.9 109.214C128.032 109.289 128.193 109.285 128.321 109.205C128.946 108.875 129.517 108.449 130.013 107.943C130.066 107.909 130.11 107.862 130.14 107.805C130.117 108.707 129.771 109.566 129.166 110.224C129.808 109.965 130.412 109.619 130.962 109.197C130.997 109.277 130.947 109.346 130.928 109.427C130.665 110.124 130.303 110.777 129.853 111.367C129.776 111.456 129.754 111.582 129.798 111.693C130.558 114.352 130.355 116.95 129.23 119.464C128.205 121.713 126.399 123.496 124.154 124.476C121.718 125.557 119.213 125.772 116.645 124.981C116.619 124.964 116.588 124.957 116.558 124.962Z" fill="white"/>
<path fill-rule="evenodd" clip-rule="evenodd" d="M257.824 68.2922C270.405 68.2922 280.604 58.0935 280.604 45.5128C280.604 32.9321 270.405 22.7334 257.824 22.7334C245.244 22.7334 235.045 32.9321 235.045 45.5128C235.045 58.0935 245.244 68.2922 257.824 68.2922Z" fill="#1257e0"/>
<path fill-rule="evenodd" clip-rule="evenodd" d="M260.369 36.9098C260.648 36.5795 261.208 36.3409 262.005 36.3409C262.839 36.3466 263.67 36.4638 264.474 36.6896L265.177 32.876C263.732 32.3677 262.24 32.2236 260.698 32.2236C259.156 32.2236 257.942 32.4622 256.964 33.0289C255.983 33.5712 255.33 34.1899 254.959 35.088C254.584 35.8931 254.398 37.2398 254.398 38.9351V40.4345H251.407V44.7903H254.399V58.4916C255.685 58.7794 257 58.921 258.318 58.9137C258.832 58.9291 259.347 58.898 259.855 58.8208V44.7894H263.82V40.4334H259.855V39.0269C259.855 37.9511 259.999 37.29 260.369 36.9098Z" fill="white"/>
<path fill-rule="evenodd" clip-rule="evenodd" d="M335.41 336.005C351.85 336.005 365.178 322.678 365.178 306.237C365.178 289.797 351.85 276.47 335.41 276.47C318.97 276.47 305.643 289.797 305.643 306.237C305.643 322.678 318.97 336.005 335.41 336.005Z" fill="#1257e0"/>
<path fill-rule="evenodd" clip-rule="evenodd" d="M346.923 303.893C347.087 304.67 347.173 305.476 347.173 306.303C347.173 306.711 347.152 307.114 347.111 307.511C346.808 310.445 345.414 313.056 343.341 314.93L339.533 311.856C340.626 311.069 341.477 309.968 341.955 308.685H335.616V303.893H346.923Z" fill="white"/>
<mask id="mask0" mask-type="alpha" maskUnits="userSpaceOnUse" x="325" y="308" width="19" height="10">
<path d="M335.546 313.138C337.032 313.138 338.408 312.664 339.529 311.858L343.341 314.93C341.279 316.795 338.545 317.93 335.546 317.93C331.028 317.93 327.111 315.353 325.187 311.589L329.091 308.558C330.023 311.225 332.561 313.138 335.546 313.138Z" fill="white"/>
</mask>
<g mask="url(#mask0)">
<path d="M335.546 313.138C337.032 313.138 338.408 312.664 339.529 311.858L343.341 314.93C341.279 316.795 338.545 317.93 335.546 317.93C331.028 317.93 327.111 315.353 325.187 311.589L329.091 308.558C330.023 311.225 332.561 313.138 335.546 313.138Z" fill="white"/>
</g>
<mask id="mask1" mask-type="alpha" maskUnits="userSpaceOnUse" x="323" y="300" width="7" height="12">
<path d="M325.236 300.919L329.138 303.917C328.861 304.66 328.71 305.463 328.71 306.302C328.71 307.123 328.855 307.911 329.12 308.64L325.195 311.604C324.378 310.014 323.918 308.212 323.918 306.302C323.918 304.36 324.394 302.528 325.236 300.919Z" fill="white"/>
</mask>
<g mask="url(#mask1)">
<path d="M325.236 300.919L329.138 303.917C328.861 304.66 328.71 305.463 328.71 306.302C328.71 307.123 328.855 307.911 329.12 308.64L325.195 311.604C324.378 310.014 323.918 308.212 323.918 306.302C323.918 304.36 324.394 302.528 325.236 300.919Z" fill="white"/>
</g>
<mask id="mask2" mask-type="alpha" maskUnits="userSpaceOnUse" x="325" y="294" width="19" height="10">
<path d="M335.546 294.675C338.767 294.675 341.682 295.984 343.788 298.1L340.411 301.501C339.172 300.245 337.45 299.467 335.546 299.467C332.61 299.467 330.106 301.318 329.138 303.918L325.237 300.919C327.179 297.208 331.067 294.675 335.546 294.675Z" fill="white"/>
</mask>
<g mask="url(#mask2)">
<path d="M335.546 294.675C338.767 294.675 341.682 295.984 343.788 298.1L340.411 301.501C339.172 300.245 337.45 299.467 335.546 299.467C332.61 299.467 330.106 301.318 329.138 303.918L325.237 300.919C327.179 297.208 331.067 294.675 335.546 294.675Z" fill="white"/>
</g>
<path fill-rule="evenodd" clip-rule="evenodd" d="M428.563 228.852C438.96 228.852 447.389 220.423 447.389 210.026C447.389 199.629 438.96 191.2 428.563 191.2C418.166 191.2 409.737 199.629 409.737 210.026C409.737 220.423 418.166 228.852 428.563 228.852Z" fill="#1257e0"/>
<path d="M423.302 216.489V201.167L426.858 202.194V214.82L431.944 211.952L429.752 210.839L428.347 207.373L436.037 209.812V213.664L426.445 218.885L423.302 216.489Z" fill="white"/>
<defs>
<linearGradient id="paint0_linear" x1="345.095" y1="105.999" x2="355.678" y2="112.004" gradientUnits="userSpaceOnUse">
<stop stop-color="#136BDE"/>
<stop offset="1" stop-color="#68ADFD"/>
</linearGradient>
<linearGradient id="paint1_linear" x1="458.52" y1="120.611" x2="480.855" y2="162.007" gradientUnits="userSpaceOnUse">
<stop stop-color="#136BDE"/>
<stop offset="1" stop-color="#68ADFD"/>
</linearGradient>
<linearGradient id="paint2_linear" x1="119.461" y1="245.144" x2="186.208" y2="254.772" gradientUnits="userSpaceOnUse">
<stop stop-color="#136BDE"/>
<stop offset="1" stop-color="#68ADFD"/>
</linearGradient>
<linearGradient id="paint3_linear" x1="169.668" y1="230.112" x2="137.635" y2="427.127" gradientUnits="userSpaceOnUse">
<stop stop-color="#A3EDD0"/>
<stop offset="1" stop-color="#4DE1A3"/>
</linearGradient>
<linearGradient id="paint4_linear" x1="87.3731" y1="365.29" x2="145.004" y2="422.081" gradientUnits="userSpaceOnUse">
<stop stop-color="#136BDE"/>
<stop offset="1" stop-color="#68ADFD"/>
</linearGradient>
</defs>
</svg>
