<svg width="512" height="414" viewBox="0 0 512 414" fill="none" xmlns="http://www.w3.org/2000/svg">
<path opacity="0.3" fill-rule="evenodd" clip-rule="evenodd" d="M510.546 402.744H305.366C287.481 391.558 281.114 368.557 290.701 349.766C300.288 330.976 322.647 322.63 342.201 330.545C348.18 322.314 357.36 316.994 367.474 315.901C377.589 314.807 387.694 318.04 395.295 324.802C404.693 304.568 428.323 295.277 448.986 303.693C469.648 312.109 480.062 335.266 472.648 356.309C484.204 356.484 495.094 361.754 502.402 370.708C509.71 379.662 512.69 391.386 510.546 402.743V402.744Z" fill="#DDE1E7"/>
<path fill-rule="evenodd" clip-rule="evenodd" d="M235.79 132.721L211.473 371.976L286.836 364.071L258.159 130.215L235.79 132.721Z" fill="#BAD8FF"/>
<path opacity="0.3" fill-rule="evenodd" clip-rule="evenodd" d="M325.345 386.654C328.673 377.501 326.879 367.269 320.638 359.793C325.258 355.682 327.556 349.557 326.782 343.421C326.007 337.284 322.258 331.924 316.76 329.09C324.116 320.822 325.794 308.947 321.016 298.965C316.239 288.982 305.939 282.84 294.885 283.383C283.832 283.925 274.182 291.046 270.405 301.448C269.84 303.011 269.416 304.622 269.138 306.26C255.343 298.912 238.208 303.683 230.195 317.104C222.183 330.525 226.113 347.872 239.128 356.529C233.638 361.08 230.329 367.741 230.017 374.865C229.706 381.989 232.421 388.913 237.492 393.926C235.872 396.655 234.718 399.636 234.08 402.745H309.696C316.979 399.874 322.679 394.014 325.345 386.654Z" fill="#DDE1E7"/>
<path opacity="0.3" fill-rule="evenodd" clip-rule="evenodd" d="M216.444 320.199C217.874 318.085 218.977 315.767 219.714 313.324C223.376 301.266 217.676 288.86 206.982 285.617C197.305 282.678 186.857 288.256 182.249 298.279C173.249 297.999 164.503 304.536 161.445 314.605C158.96 322.797 160.904 331.147 165.823 336.545C161.445 338.211 157.72 342.101 156.138 347.317C153.586 355.719 157.56 364.365 165.009 366.624C165.658 366.818 166.321 366.957 166.993 367.042C166.975 367.098 166.951 367.152 166.935 367.211C164.187 376.253 168.464 385.557 176.483 387.99C184.501 390.424 193.229 385.065 195.973 376.025C196.455 374.436 196.729 372.792 196.786 371.132C196.992 371.2 197.191 371.273 197.395 371.336C210.219 375.229 224.174 366.66 228.566 352.196C232.58 338.968 227.2 325.398 216.444 320.199Z" fill="#DDE1E7"/>
<path opacity="0.3" fill-rule="evenodd" clip-rule="evenodd" d="M227.373 361.938C226.976 347.253 218.696 333.922 205.708 327.058C192.72 320.193 177.041 320.861 164.684 328.805C164.682 328.648 164.686 328.493 164.682 328.336C164.211 310.706 151.972 295.584 134.828 291.447C117.684 287.311 99.8962 295.188 91.4369 310.663C83.5629 306.679 74.2317 306.831 66.4911 311.068C58.7505 315.305 53.5944 323.083 52.7069 331.863C33.5604 324.841 12.2276 333.671 3.646 352.171C-4.93564 370.672 2.1006 392.662 19.8279 402.744H195.515C214.534 398.523 227.892 381.413 227.373 361.938Z" fill="#DDE1E7"/>
<path fill-rule="evenodd" clip-rule="evenodd" d="M240.255 134.57L220.646 349.864L274.247 341.898L255.15 132.324L240.255 134.57Z" fill="white"/>
<path fill-rule="evenodd" clip-rule="evenodd" d="M476.629 402.743H16.7045C16.6012 390.459 22.2632 378.838 32 371.348C41.7368 363.858 54.422 361.367 66.2683 364.617C67.3269 364.907 68.3673 365.24 69.3896 365.616C70.2763 356.836 75.4322 349.057 83.1731 344.819C90.914 340.582 100.246 340.431 108.12 344.416C114.202 333.287 125.314 325.809 137.915 324.364C150.515 322.92 163.031 327.69 171.474 337.154C173.827 332.135 177.868 328.253 182.833 326.515C183.524 315.502 191.264 306.538 201.351 305.796C212.496 304.972 222.28 314.495 223.203 327.062C223.396 329.607 223.203 332.168 222.629 334.655C225.434 334.895 228.168 335.664 230.686 336.921C238.922 324.056 255.665 319.686 269.137 326.886C269.414 325.246 269.838 323.636 270.404 322.072C275.647 307.898 291.353 300.619 305.557 305.78C319.761 310.941 327.131 326.605 322.052 340.839C321.998 340.985 321.936 341.128 321.882 341.275C330.723 339.661 339.85 341.033 347.825 345.176C350.076 346.345 352.214 347.72 354.211 349.283C362.235 343.028 372.528 340.458 382.55 342.206C392.571 343.955 401.387 349.859 406.818 358.46C412.079 352.414 418.967 348.009 426.662 345.769C427.166 345.622 427.669 345.485 428.178 345.36C443.661 341.469 460.008 346.736 470.307 358.934C480.607 371.131 483.06 388.13 476.629 402.742V402.743Z" fill="white"/>
<path fill-rule="evenodd" clip-rule="evenodd" d="M108.707 404.477H134.209C134.209 404.477 138.307 392.64 136.029 388.313L127.409 387.63C127.047 389.576 125.261 396.445 118.041 397.422C109.619 398.558 108.707 404.477 108.707 404.477Z" fill="#353B6E"/>
<path fill-rule="evenodd" clip-rule="evenodd" d="M201.094 404.476H175.593C175.593 404.476 171.494 392.639 173.772 388.312L182.392 387.629C182.755 389.575 184.541 396.444 191.761 397.42C200.183 398.558 201.094 404.476 201.094 404.476Z" fill="#353B6E"/>
<path fill-rule="evenodd" clip-rule="evenodd" d="M124.275 235.538C124.275 235.538 119.482 307.693 119.748 325.534C120.014 343.374 120.546 393.163 120.546 393.163H142.379C142.379 393.163 137.587 340.977 137.853 327.398C138.119 313.818 147.172 259.502 147.172 259.502C147.172 259.502 159.42 313.818 161.284 322.605C163.147 331.392 169.271 391.832 169.271 391.832H187.111C187.111 391.832 183.028 325.356 180.632 311.245C178.235 297.133 168.207 233.941 168.207 233.941L124.275 235.538Z" fill="#FF6BC1"/>
<path fill-rule="evenodd" clip-rule="evenodd" d="M144.004 214.529L140.668 228.606C140.668 228.606 102.482 224.99 97.4148 218.198C96.2045 216.574 96.9487 213.112 98.7887 208.78C103.722 197.15 115.334 178.275 119.216 172.969C119.969 171.941 122.347 172.306 123.622 172.237C147.402 170.983 116.042 207.526 114.961 208.78C114.942 208.802 114.932 208.812 114.932 208.812L144.004 214.529Z" fill="#4E587F"/>
<path fill-rule="evenodd" clip-rule="evenodd" d="M193.009 224.253C192.883 224.497 192.743 224.734 192.588 224.961C190.985 227.32 187.521 229.083 180.063 226.394C165.502 221.138 156.138 210.067 156.138 210.067L162.437 201.992L177.081 211.133L177.007 211.022L167.32 196.58C167.32 196.58 162.107 178.336 172.733 172.971C175.169 171.743 179.797 182.758 193.285 218.149C194.063 220.131 193.962 222.35 193.009 224.253Z" fill="#4E587F"/>
<path fill-rule="evenodd" clip-rule="evenodd" d="M119.216 172.969C119.615 171.771 131.491 167.57 143.978 168.443C156.67 169.33 174.242 171.993 174.065 173.235C173.109 179.922 168.74 222.759 168.207 233.942C168.207 233.942 146.108 246.457 124.275 235.538L119.216 172.969Z" fill="#404884"/>
<path fill-rule="evenodd" clip-rule="evenodd" d="M154.92 147.628C154.92 147.628 155.955 143.014 155.255 141.673C154.555 140.332 154.056 138.428 151.069 138.054C148.082 137.68 144.812 139.154 142.234 141.59C139.656 144.026 132.875 145.753 135.893 153.456C138.911 161.159 145.344 159.773 145.559 162.455L149.137 156.601L154.92 147.628Z" fill="#404884"/>
<path fill-rule="evenodd" clip-rule="evenodd" d="M154.672 146.142C154.672 146.142 164.411 159.635 155.035 161.732C149.224 163.032 145.809 159.432 145.809 159.432C145.809 159.432 144.036 160.692 142.5 156.754C141.586 154.414 144.155 152.17 145.499 155.864C145.499 155.864 147.858 155.83 147.246 152.51C146.635 149.191 148.341 148.794 150.32 148.768C152.299 148.742 154.707 147.2 154.672 146.142Z" fill="#FFD5C0"/>
<path fill-rule="evenodd" clip-rule="evenodd" d="M140.116 165.115L151.61 166.491C151.61 166.491 149.746 174.057 145.308 173.057C140.87 172.058 140.116 165.115 140.116 165.115Z" fill="#353B6E"/>
<path fill-rule="evenodd" clip-rule="evenodd" d="M144.734 156.093C144.734 156.093 143.715 162.969 141.642 166.059C141.642 166.059 137.914 172.492 144.776 173.234C151.342 173.944 149.499 169.66 149.645 169.078C149.79 168.496 152.554 160.711 152.554 160.711C152.554 160.711 152.627 153.148 144.734 156.093Z" fill="#FFD5C0"/>
<path fill-rule="evenodd" clip-rule="evenodd" d="M140.118 165.115L145.71 173.28L142.115 178.384L136.479 168.222L140.118 165.115Z" fill="#4E587F"/>
<path fill-rule="evenodd" clip-rule="evenodd" d="M145.709 173.28L151.611 166.49L153.563 169.242L150.324 179.671L145.709 173.28Z" fill="#4E587F"/>
<path fill-rule="evenodd" clip-rule="evenodd" d="M146.551 218.279V209.759H150.367V218.457L146.551 218.279Z" fill="#CDE2FF"/>
<path fill-rule="evenodd" clip-rule="evenodd" d="M148.591 210.912C150.503 210.912 152.052 209.362 152.052 207.45C152.052 205.539 150.503 203.989 148.591 203.989C146.68 203.989 145.13 205.539 145.13 207.45C145.13 209.362 146.68 210.912 148.591 210.912Z" fill="#FF6BC1"/>
<rect x="138.74" y="216.771" width="20.3242" height="5.32511" fill="#2C84F8"/>
<path fill-rule="evenodd" clip-rule="evenodd" d="M132.572 215.57L138.784 216.435C138.784 216.435 142.512 213.772 143.311 214.238C144.11 214.704 147.837 215.37 148.103 215.17C148.103 215.17 148.303 216.835 145.973 216.835C143.643 216.835 138.74 216.768 138.74 216.768V222.093H151.564C151.564 222.093 149.034 225.088 146.638 225.421C144.242 225.754 137.186 223.557 137.186 223.557L129.065 222.559C129.065 222.559 123.918 214.571 132.572 215.57Z" fill="#FFD5C0"/>
<path fill-rule="evenodd" clip-rule="evenodd" d="M137.943 213.707L134.481 226.309C134.481 226.309 102.481 224.991 97.4148 218.198C96.2045 216.574 96.9487 213.112 98.7887 208.78H114.96C114.942 208.802 114.931 208.812 114.931 208.812L137.943 213.707Z" fill="#4E587F"/>
<path fill-rule="evenodd" clip-rule="evenodd" d="M165.345 204.454L156.104 198.101C155.236 197.504 154.11 197.432 153.172 197.912L146.64 201.26L143.046 208.249L146.441 212.309C146.441 212.309 147.439 211.511 146.241 210.179C145.043 208.847 145.043 208.248 145.043 208.248L147.306 203.589L151.632 204.587L150.434 208.314C150.434 208.314 146.906 209.978 147.439 211.177L152.831 209.845L155.36 205.385L161.95 209.912C161.95 209.912 170.337 211.177 165.345 204.454Z" fill="#FFD5C0"/>
<path fill-rule="evenodd" clip-rule="evenodd" d="M192.589 224.96C190.986 227.319 187.276 229.685 180.064 226.393C165.59 219.785 158.978 213.972 158.978 213.972L162.438 201.99L177.082 211.132L177.007 211.02L192.589 224.96Z" fill="#4E587F"/>
<path fill-rule="evenodd" clip-rule="evenodd" d="M348.521 184.207C348.521 184.207 324.646 195.918 337.9 208.355C342.167 211.895 354.967 211.169 354.967 211.169L353.605 188.02L348.521 184.207Z" fill="#404884"/>
<path fill-rule="evenodd" clip-rule="evenodd" d="M357.424 186.295C357.424 186.295 383.024 196.281 369.77 208.718C365.503 212.258 352.703 211.532 352.703 211.532L354.065 188.383L357.424 186.295Z" fill="#404884"/>
<path fill-rule="evenodd" clip-rule="evenodd" d="M347.057 189.654C347.057 189.654 344.696 206.903 354.773 206.903C364.85 206.903 363.125 189.382 363.125 189.382L347.057 189.654Z" fill="#FFD5C0"/>
<rect x="350.714" y="202.454" width="8.62411" height="19.427" rx="4.31206" fill="#FFD5C0"/>
<path fill-rule="evenodd" clip-rule="evenodd" d="M341.714 342.438L342.259 360.594C342.259 360.594 340.262 372.396 343.711 375.663C347.16 378.931 350.429 361.14 350.429 361.14L350.973 340.805L341.714 342.438Z" fill="#FFD5C0"/>
<path fill-rule="evenodd" clip-rule="evenodd" d="M353.968 342.438L354.512 360.594C354.512 360.594 352.515 372.396 355.965 375.663C359.414 378.931 362.683 361.14 362.683 361.14L363.228 340.805L353.968 342.438Z" fill="#FFD5C0"/>
<path fill-rule="evenodd" clip-rule="evenodd" d="M357.69 266.463C393.742 267.404 383.364 348.759 383.364 348.759C383.364 348.759 363.152 351.429 350.862 351.9C338.571 352.371 326.827 349.701 326.827 349.701C326.827 349.701 324.1 265.586 357.69 266.463Z" fill="#FF6BC1"/>
<path fill-rule="evenodd" clip-rule="evenodd" d="M440.482 282.867V277.348H426.901C412.515 274.39 388.227 272.446 360.686 272.446C333.145 272.446 308.856 274.39 294.471 277.348H280.708V283.794H280.724C281.42 289.877 316.95 294.778 360.686 294.778C404.856 294.778 440.663 289.779 440.663 283.612C440.659 283.353 440.597 283.099 440.482 282.867Z" fill="#404884"/>
<path fill-rule="evenodd" clip-rule="evenodd" d="M360.687 288.515C404.857 288.515 440.664 283.515 440.664 277.349C440.664 271.182 404.857 266.183 360.687 266.183C316.516 266.183 280.709 271.182 280.709 277.349C280.709 283.515 316.516 288.515 360.687 288.515Z" fill="url(#paint0_linear)"/>
<path fill-rule="evenodd" clip-rule="evenodd" d="M331.636 218.795C331.636 218.795 315.387 257.921 314.115 263.186C312.923 268.128 311.755 271.901 326.915 271.901H342.984V262.914L326.19 260.735L334.269 238.494C334.269 238.494 345.889 217.524 331.636 218.795Z" fill="#FFD5C0"/>
<path fill-rule="evenodd" clip-rule="evenodd" d="M381.47 218.795C381.47 218.795 397.719 257.921 398.991 263.186C400.184 268.128 401.351 271.901 386.191 271.901H370.122V262.914L386.917 260.735L378.837 238.494C378.837 238.494 367.218 217.524 381.47 218.795Z" fill="#FFD5C0"/>
<path fill-rule="evenodd" clip-rule="evenodd" d="M331.636 218.794L312.209 248.207L328.549 254.743L333.088 242.578C333.088 242.578 340.261 217.886 331.636 218.794Z" fill="#FF6BC1"/>
<path fill-rule="evenodd" clip-rule="evenodd" d="M381.371 218.59L400.798 248.003L384.458 254.539L379.919 242.374C379.919 242.374 372.748 217.682 381.371 218.59Z" fill="#FF6BC1"/>
<path fill-rule="evenodd" clip-rule="evenodd" d="M381.346 218.612C381.346 220.066 375.377 271.266 375.377 271.266H336.405C336.405 271.266 329.909 221.7 331.666 218.794C332.613 217.225 338.196 216.054 343.131 215.308C347.33 214.671 351.064 214.347 351.064 214.347L358.701 214.437C358.701 214.437 363.303 214.989 368.359 215.733C374.518 216.634 381.346 217.814 381.346 218.612Z" fill="#FF6BC1"/>
<rect x="333.817" y="238.947" width="43.9832" height="35.4044" fill="#DDDDDD"/>
<rect x="333.814" y="274.352" width="43.9832" height="1.56594" fill="#AFAFAF"/>
<path fill-rule="evenodd" clip-rule="evenodd" d="M369.151 215.844C369.151 215.844 365.134 228.462 355.466 228.462C345.799 228.462 342.258 215.481 342.258 215.481C342.35 215.315 350.905 214.187 350.905 214.187L359.143 214.142L369.151 215.844Z" fill="#FFD5C0"/>
<path fill-rule="evenodd" clip-rule="evenodd" d="M346.713 192.565C346.713 192.565 358.986 196.328 365.112 191.425C370.61 187.025 362.965 180.431 350.118 183.751C346.295 184.74 343.062 187.384 341.532 191.023C340.077 194.48 340.177 198.686 346.932 201.182C346.933 201.183 345.934 199.095 346.713 192.565Z" fill="#404884"/>
<path fill-rule="evenodd" clip-rule="evenodd" d="M341.961 370.532C341.961 370.532 328.923 375.15 328.38 378.41C327.836 381.669 348.752 378.138 348.752 378.138C348.752 378.138 350.11 365.1 341.961 370.532Z" fill="#485194"/>
<path fill-rule="evenodd" clip-rule="evenodd" d="M359.855 370.532C359.855 370.532 372.894 375.15 373.437 378.41C373.98 381.669 353.064 378.138 353.064 378.138C353.064 378.138 351.706 365.1 359.855 370.532Z" fill="#485194"/>
<path fill-rule="evenodd" clip-rule="evenodd" d="M228.368 410.983C228.3 411.232 228.227 411.481 228.151 411.73C224.093 412.204 220.132 412.657 216.266 413.089C216.266 412.399 216.231 411.695 216.166 410.983H57.6095C54.3636 401.421 58.0265 396.865 58.0265 396.865C60.7744 393.445 65.7827 393.118 68.3491 393.148C66.7039 386.516 66.0039 379.685 66.27 372.857C67.2501 349.856 79.9197 333.659 91.8858 332.035C99.2116 331.038 107.818 335.294 115.333 343.234C120.566 348.765 125.269 356.083 128.636 364.657C138.036 351.31 154.552 345.078 169.93 348.963C183.785 352.465 194.63 363.658 198.009 377.868C199.683 377.484 210.416 375.193 219.48 381.999C227.867 388.294 231.468 399.846 228.368 410.983Z" fill="#DDE1E7"/>
<path fill-rule="evenodd" clip-rule="evenodd" d="M490.458 394.929C490.124 400.271 489.906 403.725 489.373 406.197C488.343 400.046 485.488 394.166 480.593 390.86C479.972 390.442 479.322 390.066 478.649 389.737C479.43 396.986 478.289 404.314 475.341 410.983H336.647C328.496 406.803 323.16 401.822 322.088 396.115C320.575 388.05 327.212 376.618 335.922 370.821C345.676 364.332 356.851 365.691 361.218 366.474C362.224 360.69 364.617 355.236 368.192 350.58C372.945 344.337 379.687 339.904 387.302 338.015C401.734 334.51 417.195 340.974 425.374 354.009C425.739 354.594 426.095 355.19 426.43 355.801C426.576 355.049 426.729 354.315 426.89 353.6C431.273 334.052 440.759 328.927 448.919 329.138C458.099 329.374 469.761 338.21 469.906 366.078C479.064 359.012 483.396 360.228 484.926 360.94C492.378 364.408 491.217 382.877 490.458 394.929Z" fill="#DDE1E7"/>
<path fill-rule="evenodd" clip-rule="evenodd" d="M270.368 138.21L268.159 138.249L265.86 129.684L264.989 126.438L234.839 126.966L233.994 130.241L249.22 129.975L233.994 130.241L231.763 138.885L229.554 138.923C229.07 138.932 228.628 139.198 228.394 139.621C228.16 140.044 228.169 140.56 228.418 140.975C228.667 141.39 229.118 141.64 229.601 141.632L270.415 140.918C270.898 140.91 271.34 140.644 271.575 140.221C271.809 139.797 271.8 139.281 271.551 138.867C271.302 138.452 270.851 138.202 270.368 138.21L270.368 138.21Z" fill="url(#paint1_linear)"/>
<path fill-rule="evenodd" clip-rule="evenodd" d="M249.708 126.825L227.702 127.21C226.026 127.24 224.407 126.601 223.202 125.436C221.996 124.27 221.302 122.673 221.274 120.996L219.992 76.1656C219.787 64.4114 223.322 36.753 229.735 26.903L247.96 26.5847L266.186 26.2661L266.188 26.2671C272.937 35.8861 277.256 61.0334 277.461 72.7854L277.923 120.006C277.952 121.683 277.315 123.303 276.15 124.51C274.986 125.717 273.39 126.411 271.715 126.44L249.708 126.825Z" fill="#FAFBFC" stroke="#DDE1E7" stroke-width="3"/>
<path fill-rule="evenodd" clip-rule="evenodd" d="M247.794 27.4688L228.757 27.5359C228.757 27.5359 246.006 0.478441 248.446 0.00531296C250.739 -0.43914 267.336 27.1498 267.336 27.1498L247.794 27.4688Z" fill="#FF6BC1"/>
<path fill-rule="evenodd" clip-rule="evenodd" d="M304.374 107.108C304.319 103.984 302.527 101.148 299.721 99.7447L283.161 91.4619V91.4606L277.409 88.584L277.897 116.395L283.597 116.297L299.837 116.014C302.428 115.969 304.492 113.843 304.447 111.266L304.374 107.108Z" fill="url(#paint2_linear)"/>
<path fill-rule="evenodd" clip-rule="evenodd" d="M221.014 117.299L220.526 89.3564L214.879 92.4457L198.624 101.341C195.87 102.848 194.179 105.759 194.234 108.897L194.306 113.075C194.352 115.665 196.489 117.727 199.079 117.682L215.315 117.399L221.014 117.299Z" fill="url(#paint3_linear)"/>
<path fill-rule="evenodd" clip-rule="evenodd" d="M252.53 106.312C252.5 104.598 251.069 103.233 249.335 103.263C247.601 103.293 246.219 104.707 246.25 106.42L246.663 129.844C246.703 131.551 248.13 132.906 249.858 132.876C251.586 132.846 252.965 131.443 252.944 129.735L252.53 106.312Z" fill="#FF6BC1"/>
<path fill-rule="evenodd" clip-rule="evenodd" d="M216.166 410.983H71.5599C71.0075 409.223 70.8886 407.466 71.4165 405.799C72.3721 402.775 75.1687 400.923 77.3722 399.843C70.5419 391.881 71.9333 379.701 80.0795 373.583C88.0881 367.567 99.9337 369.433 105.798 377.914C111.754 365.597 120.959 367.695 126.305 369.996C131.076 372.048 133.954 375.207 139.368 391.451C141.414 378.865 151.864 369.882 162.921 369.794C176.173 369.685 188.366 382.374 187.015 397.949C188.677 397.037 199.636 391.208 207.861 396.054C212.88 399.009 215.625 405.198 216.166 410.983Z" fill="white"/>
<path fill-rule="evenodd" clip-rule="evenodd" d="M480.595 390.861C479.974 390.443 479.325 390.067 478.652 389.738C469.807 385.417 458.683 389.832 456.23 390.861C457.644 380.715 451.358 371.32 442.424 368.933C432.231 366.209 420.725 373.177 418.467 384.77C414.534 370.987 400.768 362.857 388.011 365.684C377.017 368.123 368.617 378.294 368.116 390.455C366.638 389.886 352.341 384.605 344.563 391.673C339.468 396.3 339.108 404.47 340.313 410.984H487.236C487.929 410.067 488.483 409.053 488.88 407.974C489.084 407.393 489.25 406.8 489.375 406.197C488.346 400.046 485.49 394.166 480.595 390.861Z" fill="white"/>
<path fill-rule="evenodd" clip-rule="evenodd" d="M388.124 96.391C399.846 96.391 409.349 86.4743 409.349 74.2414C409.349 62.0085 399.846 52.0918 388.124 52.0918C376.402 52.0918 366.899 62.0085 366.899 74.2414C366.899 86.4743 376.402 96.391 388.124 96.391Z" fill="url(#paint4_linear)"/>
<path fill-rule="evenodd" clip-rule="evenodd" d="M388.125 91.9603C383.579 91.956 379.236 90.0787 376.118 86.7706C369.487 79.7338 369.487 68.7483 376.118 61.7115C379.233 58.3996 383.578 56.5215 388.124 56.5215C392.671 56.5215 397.016 58.3996 400.13 61.7115C406.762 68.7485 406.762 79.7337 400.13 86.7706C397.013 90.0786 392.67 91.9558 388.125 91.9603Z" fill="#FAFCFB"/>
<path fill-rule="evenodd" clip-rule="evenodd" d="M388.124 87.5304C384.715 87.5272 381.457 86.1193 379.119 83.6382C374.146 78.3604 374.146 70.1222 379.119 64.8444C381.455 62.3606 384.714 60.9521 388.124 60.9521C391.534 60.9521 394.792 62.3606 397.128 64.8444C402.101 70.1222 402.101 78.3604 397.128 83.6382C394.79 86.1193 391.533 87.5272 388.124 87.5304Z" fill="url(#paint5_linear)"/>
<path fill-rule="evenodd" clip-rule="evenodd" d="M388.124 83.1003C385.851 83.0981 383.68 82.1594 382.121 80.5053C378.806 76.9872 378.806 71.4954 382.121 67.9773C383.678 66.3217 385.85 65.3828 388.123 65.3828C390.396 65.3828 392.568 66.3217 394.125 67.9773C397.441 71.495 397.441 76.9876 394.125 80.5053C392.567 82.1591 390.396 83.0978 388.124 83.1003Z" fill="#FAFCFB"/>
<path fill-rule="evenodd" clip-rule="evenodd" d="M388.124 77.8185C387.207 77.8176 386.33 77.4386 385.7 76.7707C384.362 75.3503 384.362 73.1327 385.7 71.7123C386.329 71.0434 387.206 70.6641 388.124 70.6641C389.042 70.6641 389.919 71.0434 390.548 71.7123C391.886 73.133 391.886 75.35 390.548 76.7707C389.918 77.4385 389.042 77.8175 388.124 77.8185Z" fill="#FF6BC1"/>
<path fill-rule="evenodd" clip-rule="evenodd" d="M408.409 53.0711C408.299 52.9541 408.145 52.8877 407.984 52.8877C407.823 52.8877 407.67 52.9541 407.56 53.0711L405.66 55.0544L405.202 53.2643L400.711 57.9512L400.947 59.9719L387.698 73.7978C387.464 74.0465 387.464 74.435 387.698 74.6837C387.809 74.8007 387.962 74.867 388.123 74.867C388.283 74.867 388.437 74.8007 388.547 74.6837L401.834 60.8174L403.784 61.0659L408.275 56.3791L406.548 55.8983L408.408 53.9574C408.643 53.7085 408.643 53.3202 408.409 53.0711Z" fill="#FF6BC1"/>
<rect x="447.805" y="192.289" width="10.4062" height="8.0228" fill="#404884"/>
<path fill-rule="evenodd" clip-rule="evenodd" d="M463.952 178.069C463.952 171.326 458.349 165.948 451.736 166.726C446.951 167.289 442.985 171.198 442.214 176.156C441.61 179.797 442.755 183.511 445.306 186.179C446.882 187.763 447.778 189.899 447.805 192.134V192.288H458.211V192.187C458.22 189.952 459.103 187.81 460.671 186.218C462.788 184.035 463.966 181.11 463.952 178.069Z" fill="url(#paint6_linear)"/>
<path fill-rule="evenodd" clip-rule="evenodd" d="M449.337 177.003C449.918 177.003 450.192 177.493 450.435 177.923C450.684 178.367 450.859 178.636 451.176 178.636C451.494 178.636 451.667 178.367 451.917 177.924C452.159 177.492 452.434 177.003 453.012 177.003C453.591 177.003 453.867 177.493 454.109 177.924C454.358 178.367 454.532 178.636 454.849 178.636C455.165 178.636 455.339 178.367 455.588 177.924C455.831 177.492 456.106 177.003 456.684 177.003C457.263 177.003 457.536 177.493 457.779 177.923C458.027 178.367 458.201 178.636 458.518 178.636C458.63 178.636 458.722 178.727 458.722 178.84C458.722 178.952 458.63 179.044 458.518 179.044C457.94 179.044 457.666 178.555 457.423 178.123C457.175 177.68 457.001 177.411 456.684 177.411C456.368 177.411 456.193 177.68 455.944 178.124C455.702 178.555 455.426 179.044 454.849 179.044C454.271 179.044 453.996 178.555 453.753 178.124C453.504 177.68 453.33 177.411 453.012 177.411C452.695 177.411 452.521 177.68 452.272 178.124C452.03 178.555 451.755 179.044 451.176 179.044C450.598 179.044 450.322 178.555 450.079 178.123C449.829 177.68 449.655 177.411 449.337 177.411C449.019 177.411 448.845 177.68 448.596 178.123C448.352 178.555 448.078 179.044 447.498 179.044C447.385 179.044 447.294 178.952 447.294 178.84C447.294 178.727 447.385 178.636 447.498 178.636C447.816 178.636 447.991 178.367 448.24 177.923C448.483 177.49 448.759 177.003 449.337 177.003Z" fill="white"/>
<path fill-rule="evenodd" clip-rule="evenodd" d="M453.391 185.312H452.627C451.934 185.312 451.372 185.764 451.372 186.322V192.289H454.646V186.322C454.646 185.764 454.084 185.312 453.391 185.312Z" fill="white"/>
<path fill-rule="evenodd" clip-rule="evenodd" d="M451.989 186.317C451.898 186.317 451.813 186.271 451.763 186.195L447.065 178.985C447.011 178.904 447.005 178.801 447.048 178.714C447.091 178.627 447.178 178.571 447.275 178.566C447.372 178.561 447.464 178.608 447.516 178.69L452.214 185.901C452.269 185.983 452.273 186.089 452.226 186.176C452.179 186.263 452.088 186.318 451.989 186.317Z" fill="white"/>
<path fill-rule="evenodd" clip-rule="evenodd" d="M454.024 186.317C453.925 186.318 453.833 186.263 453.786 186.176C453.739 186.089 453.744 185.983 453.798 185.901L458.496 178.69C458.548 178.608 458.64 178.561 458.737 178.566C458.834 178.571 458.921 178.627 458.964 178.714C459.008 178.801 459.001 178.904 458.947 178.985L454.249 186.194C454.199 186.271 454.115 186.317 454.024 186.317Z" fill="white"/>
<path fill-rule="evenodd" clip-rule="evenodd" d="M464.573 159.428C464.756 159.136 464.764 158.767 464.595 158.467C464.426 158.166 464.107 157.982 463.762 157.985C463.418 157.989 463.102 158.18 462.94 158.484L460.375 162.926C460.251 163.141 460.218 163.398 460.284 163.637C460.35 163.877 460.509 164.081 460.725 164.203L460.742 164.212C461.187 164.468 461.756 164.314 462.012 163.869L464.573 159.428Z" fill="#FF6BC1"/>
<path fill-rule="evenodd" clip-rule="evenodd" d="M472.094 167.64C472.526 167.371 472.667 166.808 472.412 166.367C472.157 165.927 471.599 165.767 471.15 166.007L466.709 168.572C466.265 168.828 466.112 169.395 466.366 169.84L466.375 169.856C466.498 170.073 466.701 170.232 466.941 170.298C467.181 170.363 467.437 170.331 467.652 170.206L472.094 167.64Z" fill="#FF6BC1"/>
<path fill-rule="evenodd" clip-rule="evenodd" d="M474.501 176.625H469.347C468.833 176.626 468.418 177.043 468.418 177.557V177.581C468.418 177.828 468.516 178.065 468.69 178.239C468.865 178.414 469.101 178.512 469.348 178.513H474.503C475.024 178.513 475.447 178.09 475.447 177.569C475.447 177.048 475.024 176.625 474.503 176.625L474.501 176.625Z" fill="#FF6BC1"/>
<path fill-rule="evenodd" clip-rule="evenodd" d="M471.15 189.133C471.599 189.373 472.157 189.213 472.412 188.773C472.667 188.332 472.526 187.769 472.094 187.5L467.652 184.935C467.437 184.811 467.181 184.778 466.941 184.844C466.701 184.909 466.497 185.068 466.375 185.285L466.366 185.302C466.112 185.747 466.265 186.314 466.709 186.57L471.15 189.133Z" fill="#FF6BC1"/>
<path fill-rule="evenodd" clip-rule="evenodd" d="M433.924 187.498C433.62 187.661 433.429 187.976 433.425 188.32C433.421 188.665 433.606 188.984 433.906 189.153C434.207 189.322 434.575 189.314 434.868 189.132L439.309 186.567C439.753 186.311 439.906 185.744 439.652 185.299L439.643 185.282C439.521 185.065 439.317 184.906 439.077 184.841C438.837 184.775 438.581 184.808 438.365 184.933L433.924 187.498Z" fill="#FF6BC1"/>
<path fill-rule="evenodd" clip-rule="evenodd" d="M437.6 177.557C437.601 177.31 437.503 177.073 437.328 176.898C437.154 176.723 436.917 176.625 436.67 176.625H431.516C430.995 176.625 430.572 177.048 430.572 177.569C430.572 178.09 430.995 178.513 431.516 178.513H436.67C436.917 178.512 437.154 178.414 437.328 178.239C437.503 178.065 437.601 177.828 437.6 177.581V177.557Z" fill="#FF6BC1"/>
<path fill-rule="evenodd" clip-rule="evenodd" d="M434.868 166.005C434.575 165.823 434.207 165.814 433.906 165.983C433.606 166.152 433.421 166.472 433.425 166.816C433.429 167.161 433.62 167.476 433.924 167.639L438.365 170.206C438.581 170.33 438.837 170.363 439.077 170.297C439.317 170.232 439.521 170.073 439.643 169.856L439.652 169.839C439.906 169.394 439.753 168.827 439.309 168.571L434.868 166.005Z" fill="#FF6BC1"/>
<path fill-rule="evenodd" clip-rule="evenodd" d="M443.08 158.484C442.918 158.18 442.602 157.989 442.258 157.985C441.913 157.982 441.594 158.166 441.425 158.467C441.256 158.767 441.264 159.136 441.446 159.428L444.011 163.87C444.267 164.315 444.836 164.468 445.281 164.212L445.298 164.203C445.514 164.081 445.673 163.878 445.739 163.638C445.804 163.398 445.771 163.142 445.647 162.926L443.08 158.484Z" fill="#FF6BC1"/>
<path fill-rule="evenodd" clip-rule="evenodd" d="M453.02 162.161C453.267 162.161 453.505 162.064 453.679 161.889C453.854 161.715 453.953 161.478 453.953 161.231V156.077C453.953 155.739 453.773 155.428 453.481 155.259C453.189 155.091 452.829 155.091 452.537 155.259C452.245 155.428 452.065 155.739 452.065 156.077V161.231C452.066 161.478 452.164 161.715 452.339 161.889C452.513 162.064 452.75 162.161 452.997 162.161H453.02Z" fill="#FF6BC1"/>
<rect x="120.533" y="68.7891" width="5.72298" height="28.3422" fill="url(#paint7_linear)"/>
<rect x="113.162" y="78.1152" width="5.72298" height="19.0161" fill="url(#paint8_linear)"/>
<rect x="105.79" y="83.6836" width="5.72298" height="13.4484" fill="url(#paint9_linear)"/>
<rect x="98.4199" y="88.3359" width="5.72298" height="8.79546" fill="url(#paint10_linear)"/>
<rect x="91.0479" y="91.9336" width="5.72298" height="5.19826" fill="url(#paint11_linear)"/>
<path fill-rule="evenodd" clip-rule="evenodd" d="M108.595 70.3227L106.905 71.4214L106.668 72.9207L107.933 74.49L106.924 76.1326L104.953 75.7145L103.724 76.6069L103.509 78.6111L101.634 79.059L100.535 77.369L99.0346 77.1301L97.4655 78.3958L95.8229 77.3869L96.241 75.4158L95.3487 74.1863L93.3445 73.9716L92.8965 72.0964L94.5865 70.9977L94.8254 69.4976L93.5601 67.9288L94.5686 66.2862L96.5397 66.7043L97.7686 65.8119L97.9833 63.8083L99.8589 63.3604L100.958 65.0504L102.458 65.2893L104.027 64.0236L105.669 65.0322L105.251 67.0033L106.143 68.2328L108.147 68.4475L108.595 70.3227ZM98.565 74.7607C100.001 75.6422 101.827 75.5717 103.191 74.5823H103.19C105.053 73.2312 105.468 70.6262 104.117 68.7637C103.127 67.3998 101.413 66.7662 99.7747 67.1584C98.1359 67.5506 96.8948 68.8913 96.63 70.5554C96.3652 72.2195 97.1289 73.8793 98.565 74.7607Z" fill="#AACEF2"/>
<path fill-rule="evenodd" clip-rule="evenodd" d="M103.88 71.4195C103.996 69.6869 102.685 68.1885 100.953 68.0728C99.22 67.9571 97.7216 69.2679 97.606 71.0005C97.4903 72.7331 98.801 74.2315 100.534 74.3472C102.266 74.4629 103.765 73.1521 103.88 71.4195Z" fill="url(#paint12_linear)"/>
<path fill-rule="evenodd" clip-rule="evenodd" d="M122.486 59.5391C115.776 73.1601 104.887 82.6953 90.9785 87.1822V89.319C105.722 84.7497 117.246 74.7656 124.305 60.4356L122.486 59.5391Z" fill="#FF6BC1"/>
<path fill-rule="evenodd" clip-rule="evenodd" d="M125.149 63.0907L127.363 51.9297L119.864 60.4874L125.149 63.0907Z" fill="#FF6BC1"/>
<path fill-rule="evenodd" clip-rule="evenodd" d="M67.7217 238.226L65.4471 238.096L64.5219 240.29L62.8267 240.881L60.7377 239.737L59.0381 241.253L59.9358 243.459L59.155 245.075L56.8688 245.744L56.7383 248.018L58.9331 248.943L59.5238 250.638L58.3799 252.727L59.8962 254.427L62.1023 253.529L63.7184 254.31L64.3867 256.596L66.6613 256.727L67.5865 254.532L69.2815 253.941L71.3704 255.085L73.07 253.569L72.1723 251.363L72.9531 249.747L75.2391 249.079L75.3696 246.804L73.1748 245.879L72.5843 244.184L73.7285 242.095L72.2122 240.395L70.0061 241.293L68.39 240.512L67.7217 238.226Z" fill="#FF6BC1"/>
<path fill-rule="evenodd" clip-rule="evenodd" d="M58.0567 244.072L57.1917 241.59L54.4445 241.573L53.0668 240.028L53.3638 237.297L50.9975 236.154L49.0427 238.085L46.9756 237.966L45.2547 235.825L42.773 236.69L42.7558 239.437L41.2107 240.815L38.4795 240.518L37.3364 242.884L39.2677 244.839L39.149 246.906L37.0078 248.627L37.8728 251.109L40.6199 251.126L41.9976 252.671L41.7007 255.402L44.067 256.545L46.0218 254.614L48.0886 254.733L49.8098 256.874L52.2915 256.009L52.3087 253.262L53.8538 251.884L56.5847 252.181L57.7278 249.815L55.7965 247.86L55.9152 245.793L58.0567 244.072Z" fill="url(#paint13_linear)"/>
<path fill-rule="evenodd" clip-rule="evenodd" d="M41.8619 246.023C41.7303 248.316 42.9929 250.462 45.061 251.462C47.129 252.461 49.5953 252.115 51.3097 250.587C53.0241 249.059 53.649 246.648 52.893 244.479C52.137 242.311 50.149 240.811 47.8561 240.679C44.7253 240.5 42.0418 242.892 41.8619 246.023Z" fill="white"/>
<path fill-rule="evenodd" clip-rule="evenodd" d="M60.8416 247.112C60.7207 249.221 61.8817 251.194 63.7831 252.113C65.6846 253.031 67.9521 252.714 69.5283 251.308C71.1044 249.903 71.6789 247.687 70.9837 245.693C70.2885 243.699 68.4606 242.32 66.3524 242.199C63.4739 242.034 61.0068 244.234 60.8416 247.112Z" fill="white"/>
<path fill-rule="evenodd" clip-rule="evenodd" d="M61.5226 232.601C61.5355 230.593 60.0365 229.506 58.587 228.455L58.4896 228.384L58.4894 228.383C58.4275 228.338 58.3661 228.293 58.3037 228.249L58.3343 223.487C59.2995 223.7 59.521 224.475 59.5168 225.143L59.5153 225.405L61.5409 225.418V225.297C61.5561 222.948 59.9291 222.232 58.3426 222.091L58.3516 220.685L57.0712 220.677L57.062 222.085C55.4911 222.218 53.8879 222.924 53.8732 225.248C53.8601 227.254 55.359 228.342 56.8088 229.394C56.8541 229.427 56.8986 229.46 56.9431 229.492L56.9432 229.492L57.0149 229.545L56.984 234.339C55.9995 234.124 55.7718 233.362 55.7765 232.705L55.7806 232.022L53.7534 232.009L53.7501 232.552C53.7352 234.891 55.3724 235.611 56.9747 235.757L56.9677 236.843L58.2483 236.851L58.2553 235.765C59.8611 235.639 61.5077 234.942 61.5226 232.601ZM56.0568 225.121C56.0606 224.505 56.2628 223.804 57.0549 223.54L57.0315 227.197C56.4515 226.616 56.0514 225.965 56.0568 225.121ZM58.2901 230.574L58.2662 234.302H58.2675C59.1204 234.054 59.3382 233.347 59.3418 232.727C59.3475 231.845 58.9125 231.173 58.2901 230.574Z" fill="#FF6BC1"/>
<path fill-rule="evenodd" clip-rule="evenodd" d="M43.2532 246.103C43.1537 247.833 44.1064 249.453 45.667 250.207C47.2277 250.961 49.089 250.701 50.3828 249.548C51.6767 248.394 52.1484 246.575 51.5779 244.938C51.0074 243.302 49.5071 242.17 47.7767 242.071C46.6421 242.005 45.5282 242.394 44.6798 243.15C43.8315 243.906 43.3183 244.968 43.2532 246.103Z" fill="#FF6BC1"/>
<path fill-rule="evenodd" clip-rule="evenodd" d="M62.1656 247.188C62.0753 248.761 62.9413 250.233 64.3598 250.919C65.7783 251.604 67.4699 251.367 68.6459 250.319C69.8218 249.271 70.2505 247.617 69.732 246.13C69.2134 244.642 67.8499 243.613 66.2771 243.523C64.1296 243.4 62.2889 245.041 62.1656 247.188Z" fill="#AACEF2"/>
<path fill-rule="evenodd" clip-rule="evenodd" d="M261.872 67.702C261.96 67.0305 261.996 66.359 261.987 65.6875C261.952 63.7526 260.45 62.118 258.497 61.9767C256.412 61.8265 254.601 63.3815 254.441 65.4667L254.424 65.6875C254.397 65.988 254.371 66.2884 254.327 66.5888C254.322 66.6241 254.313 66.6617 254.305 66.6992C254.296 66.7368 254.287 66.7743 254.282 66.8096L254.265 66.9245L254.238 67.0305C254.229 67.0659 254.221 67.1035 254.212 67.141C254.203 67.1786 254.194 67.2161 254.185 67.2514L254.123 67.4635C254.035 67.7462 253.938 68.0289 253.814 68.3028C253.69 68.5767 253.558 68.8506 253.399 69.1069C252.772 70.1494 251.835 71.033 250.713 71.5985C250.43 71.7487 250.139 71.8635 249.838 71.9695C249.538 72.0756 249.229 72.1462 248.91 72.2081C248.592 72.2699 248.265 72.3053 247.939 72.323C247.612 72.3318 247.276 72.323 246.949 72.2876C246.622 72.2523 246.295 72.1993 245.968 72.1109C245.65 72.0226 245.323 71.9165 245.014 71.784C244.705 71.6426 244.396 71.4924 244.104 71.3069C243.812 71.1213 243.53 70.9093 243.265 70.6884C242.204 69.7784 241.418 68.5149 241.073 67.1189C240.985 66.7743 240.932 66.4121 240.897 66.0498C240.87 65.6875 240.87 65.3165 240.888 64.9542C240.914 64.592 240.959 64.2297 241.038 63.8763C241.118 63.5229 241.215 63.1606 241.356 62.8249C241.886 61.4554 242.867 60.2538 244.104 59.4497C245.341 58.6457 246.816 58.2481 248.265 58.3541C248.301 58.3541 248.337 58.3551 248.373 58.3561C248.446 58.3581 248.521 58.3601 248.592 58.3541C250.033 58.2746 251.137 57.0465 251.057 55.6063C250.978 54.1662 249.75 53.0617 248.292 53.1236H248.248C247.638 53.1589 247.02 53.2208 246.419 53.3268C246.344 53.34 246.269 53.3555 246.194 53.371C246.118 53.3864 246.043 53.4019 245.968 53.4151L245.747 53.4593L245.527 53.5123C245.499 53.5193 245.47 53.5263 245.442 53.5334C245.326 53.562 245.205 53.5918 245.085 53.6272L244.643 53.7597C244.06 53.9541 243.494 54.1838 242.947 54.4489C242.408 54.7228 241.877 55.0232 241.374 55.3678C239.359 56.7373 237.76 58.6722 236.797 60.9164C236.55 61.4819 236.355 62.0562 236.196 62.6482C236.037 63.2401 235.931 63.8409 235.852 64.4506C235.781 65.0602 235.755 65.6699 235.763 66.2795C235.781 66.898 235.834 67.5076 235.94 68.1173C236.046 68.7269 236.187 69.3277 236.382 69.9197C236.576 70.5029 236.806 71.086 237.08 71.6426C237.363 72.1993 237.672 72.7471 238.025 73.2595C238.379 73.7808 238.767 74.2668 239.192 74.735C239.616 75.1945 240.084 75.6186 240.57 76.025C241.065 76.4314 241.586 76.7937 242.134 77.1206C242.682 77.4475 243.256 77.7302 243.848 77.9776C244.44 78.225 245.058 78.4194 245.686 78.5784C246.313 78.7375 246.958 78.8435 247.603 78.9054C248.248 78.9584 248.902 78.976 249.555 78.9407C250.209 78.9054 250.863 78.817 251.508 78.6845C252.153 78.5431 252.798 78.3664 253.417 78.1367C254.044 77.9069 254.645 77.6331 255.228 77.3061C255.811 76.9881 256.368 76.617 256.898 76.2105C257.419 75.8041 257.914 75.3535 258.382 74.8676C258.842 74.3816 259.266 73.8692 259.654 73.3125C260.034 72.7647 260.379 72.1816 260.679 71.5719L260.891 71.1125C260.962 70.9623 261.024 70.8033 261.086 70.6442L261.183 70.4057L261.271 70.1671C261.293 70.0996 261.315 70.0336 261.338 69.9684C261.371 69.8714 261.404 69.7763 261.43 69.6812C261.634 69.0362 261.775 68.3735 261.872 67.702ZM259.54 57.2934C259.54 59.2258 257.974 60.7923 256.041 60.7923C254.109 60.7923 252.543 59.2258 252.543 57.2934C252.543 55.3611 254.109 53.7946 256.041 53.7946C257.974 53.7946 259.54 55.3611 259.54 57.2934Z" fill="#2C84F8"/>
<defs>
<linearGradient id="paint0_linear" x1="317.198" y1="272.985" x2="320.698" y2="295.771" gradientUnits="userSpaceOnUse">
<stop stop-color="#136BDE"/>
<stop offset="1" stop-color="#68ADFD"/>
</linearGradient>
<linearGradient id="paint1_linear" x1="238.152" y1="131.066" x2="243.464" y2="144.894" gradientUnits="userSpaceOnUse">
<stop stop-color="#136BDE"/>
<stop offset="1" stop-color="#68ADFD"/>
</linearGradient>
<linearGradient id="paint2_linear" x1="283.577" y1="97.0554" x2="297.99" y2="109.791" gradientUnits="userSpaceOnUse">
<stop stop-color="#136BDE"/>
<stop offset="1" stop-color="#68ADFD"/>
</linearGradient>
<linearGradient id="paint3_linear" x1="200.342" y1="97.9848" x2="214.966" y2="110.551" gradientUnits="userSpaceOnUse">
<stop stop-color="#136BDE"/>
<stop offset="1" stop-color="#68ADFD"/>
</linearGradient>
<linearGradient id="paint4_linear" x1="376.583" y1="65.5855" x2="399.497" y2="85.5425" gradientUnits="userSpaceOnUse">
<stop stop-color="#136BDE"/>
<stop offset="1" stop-color="#68ADFD"/>
</linearGradient>
<linearGradient id="paint5_linear" x1="381.199" y1="69.048" x2="394.947" y2="81.0215" gradientUnits="userSpaceOnUse">
<stop stop-color="#136BDE"/>
<stop offset="1" stop-color="#68ADFD"/>
</linearGradient>
<linearGradient id="paint6_linear" x1="447.051" y1="174.46" x2="460.02" y2="184.528" gradientUnits="userSpaceOnUse">
<stop stop-color="#136BDE"/>
<stop offset="1" stop-color="#68ADFD"/>
</linearGradient>
<linearGradient id="paint7_linear" x1="121.839" y1="77.4222" x2="127.094" y2="78.3867" gradientUnits="userSpaceOnUse">
<stop stop-color="#136BDE"/>
<stop offset="1" stop-color="#68ADFD"/>
</linearGradient>
<linearGradient id="paint8_linear" x1="114.468" y1="83.9076" x2="119.522" y2="85.2902" gradientUnits="userSpaceOnUse">
<stop stop-color="#136BDE"/>
<stop offset="1" stop-color="#68ADFD"/>
</linearGradient>
<linearGradient id="paint9_linear" x1="107.096" y1="87.78" x2="111.821" y2="89.6078" gradientUnits="userSpaceOnUse">
<stop stop-color="#136BDE"/>
<stop offset="1" stop-color="#68ADFD"/>
</linearGradient>
<linearGradient id="paint10_linear" x1="99.7254" y1="91.0151" x2="103.75" y2="93.3954" gradientUnits="userSpaceOnUse">
<stop stop-color="#136BDE"/>
<stop offset="1" stop-color="#68ADFD"/>
</linearGradient>
<linearGradient id="paint11_linear" x1="92.3534" y1="93.517" x2="95.0679" y2="96.2333" gradientUnits="userSpaceOnUse">
<stop stop-color="#136BDE"/>
<stop offset="1" stop-color="#68ADFD"/>
</linearGradient>
<linearGradient id="paint12_linear" x1="99.4032" y1="72.834" x2="102.585" y2="69.7703" gradientUnits="userSpaceOnUse">
<stop stop-color="#136BDE"/>
<stop offset="1" stop-color="#68ADFD"/>
</linearGradient>
<linearGradient id="paint13_linear" x1="41.8095" y1="242.237" x2="52.7512" y2="252.182" gradientUnits="userSpaceOnUse">
<stop stop-color="#136BDE"/>
<stop offset="1" stop-color="#68ADFD"/>
</linearGradient>
</defs>
</svg>
