<svg width="527" height="366" viewBox="0 0 527 366" fill="none" xmlns="http://www.w3.org/2000/svg">
<path fill-rule="evenodd" clip-rule="evenodd" d="M101.79 260.362C101.79 260.362 124.699 234.013 110.164 210.233C95.6285 186.452 98.4103 186.129 98.8438 171.597C99.2774 157.065 97.244 141.871 85.549 136.349C73.8541 130.826 81.5312 120.776 64.6113 118.432C64.6113 118.432 72.6305 142.044 67.89 153.287C63.1495 164.529 62.5313 185.828 69.4359 195.561C76.3405 205.294 86.2374 219.236 83.4734 234.874C80.7095 250.512 94.9152 259.919 101.79 260.362Z" fill="url(#paint0_linear)"/>
<path fill-rule="evenodd" clip-rule="evenodd" d="M98.7753 267.419C100.846 261.074 102.031 254.423 101.978 247.76C101.965 244.432 101.634 241.113 100.99 237.848L100.749 236.626C100.671 236.218 100.547 235.82 100.448 235.417L100.135 234.211L99.9785 233.607C99.9254 233.407 99.8525 233.212 99.7907 233.014L99.0169 230.646C98.7462 229.867 98.4316 229.104 98.0745 228.361C97.7144 227.623 97.3043 226.897 96.9055 226.162C96.5066 225.427 96.1086 224.69 95.7214 223.949C94.9433 222.467 94.2034 220.965 93.4658 219.467C91.99 216.47 90.522 213.469 89.0619 210.463C87.6137 207.451 86.1849 204.428 84.838 201.362C83.466 198.301 82.2566 195.17 81.2149 191.981L80.8434 190.777C80.7197 190.375 80.623 189.964 80.5115 189.559C80.407 189.152 80.288 188.748 80.1948 188.338L79.788 186.487L79.4677 184.618C79.4045 184.201 79.3625 183.781 79.3094 183.363C79.2622 182.944 79.1965 182.528 79.1774 182.106C78.8602 178.74 79.0264 175.345 79.6709 172.026C80.0224 170.374 80.4987 168.751 81.0958 167.172C81.6754 165.592 82.347 164.061 82.8945 162.502C83.1699 161.727 83.4041 160.938 83.5961 160.138C83.7772 159.341 83.9013 158.531 83.9673 157.716C84.0264 156.899 84.029 156.079 83.975 155.262C83.9101 154.442 83.7983 153.626 83.6403 152.818C83.0485 149.562 81.6545 146.515 80.1441 143.553C78.623 140.59 76.9542 137.696 75.2939 134.8C73.6292 131.906 71.9733 129.004 70.2733 126.13C68.5732 123.257 66.8314 120.407 65.0557 117.578C66.9038 120.36 68.7033 123.174 70.4544 126.021C72.2079 128.867 73.9139 131.737 75.6321 134.603C76.4846 136.039 77.3277 137.482 78.1614 138.93C78.9941 140.38 79.813 141.838 80.5925 143.322C81.372 144.805 82.1141 146.309 82.7562 147.866C83.4086 149.424 83.9067 151.043 84.2434 152.699C84.4154 153.529 84.5396 154.368 84.6153 155.213C84.6809 156.062 84.6874 156.914 84.6348 157.764C84.5723 158.615 84.4473 159.459 84.2607 160.291C84.0654 161.116 83.8269 161.93 83.546 162.73C82.9914 164.325 82.326 165.858 81.7607 167.416C81.182 168.965 80.7212 170.554 80.3821 172.172C79.7645 175.423 79.6145 178.746 79.9367 182.04C80.2115 185.338 80.9798 188.579 81.9748 191.742C82.9969 194.908 84.1852 198.017 85.5347 201.058C86.8641 204.114 88.2798 207.136 89.7142 210.15C91.1578 213.16 92.614 216.165 94.0828 219.164C94.814 220.666 95.5502 222.16 96.3114 223.643C96.6896 224.386 97.0761 225.123 97.4668 225.86C97.8574 226.597 98.2596 227.33 98.6237 228.098C98.9818 228.864 99.2961 229.65 99.5651 230.452L100.322 232.855C100.382 233.057 100.454 233.255 100.505 233.458L100.961 235.291C101.056 235.699 101.177 236.103 101.252 236.515L101.482 237.753C102.098 241.053 102.394 244.404 102.366 247.76C102.327 251.11 101.997 254.451 101.379 257.745L101.143 258.977C101.063 259.388 100.962 259.794 100.873 260.202C100.698 261.02 100.484 261.828 100.272 262.636C99.8297 264.249 99.337 265.846 98.7753 267.419Z" fill="white"/>
<path fill-rule="evenodd" clip-rule="evenodd" d="M126.195 298.127C126.195 298.127 131.298 274.261 108.72 258.294C86.143 242.328 70.6068 233.84 67.7175 213.201C64.8283 192.562 58.9376 180.105 47.1056 173.483C35.2736 166.862 36.1686 162.127 27.0466 157.09C17.9245 152.054 1.72266 149.062 1.72266 149.062C1.72266 149.062 27.6554 170.143 28.5571 190.221C29.4588 210.298 35.0689 223.75 47.03 234.386C58.9911 245.022 63.1949 271.966 88.5411 279.243C113.887 286.521 126.195 298.127 126.195 298.127Z" fill="url(#paint1_linear)"/>
<path fill-rule="evenodd" clip-rule="evenodd" d="M126.695 301.61C125.876 297.361 124.573 293.22 122.812 289.268C121.044 285.324 118.733 281.646 115.947 278.341C115.227 277.539 114.528 276.717 113.766 275.954C113.011 275.186 112.225 274.45 111.407 273.747C109.756 272.358 108.03 271.061 106.238 269.86L95.5301 262.533C91.9629 260.087 88.3984 257.636 84.8671 255.137C83.0983 253.891 81.3419 252.627 79.5978 251.344C77.8576 250.058 76.1294 248.75 74.4677 247.35C71.1899 244.497 68.2023 241.327 65.5483 237.886C65.2026 237.467 64.8986 237.017 64.5747 236.581L63.6171 235.265L62.7088 233.915C62.4051 233.465 62.0991 233.017 61.8191 232.552C61.2454 231.631 60.6643 230.715 60.1345 229.768C59.8645 229.297 59.5856 228.832 59.3264 228.356L58.5548 226.924C56.5116 223.097 54.7788 219.119 53.1135 215.124C51.4787 211.122 49.798 207.121 48.542 202.962C47.9015 200.889 47.3866 198.776 46.9493 196.653C46.512 194.53 46.1737 192.391 45.6992 190.291C44.7393 186.089 43.1226 182.065 40.9088 178.366C38.7184 174.649 36.066 171.224 33.0148 168.173C29.9542 165.126 26.6105 162.377 23.0289 159.964L21.6988 159.041L20.3265 158.181L18.9522 157.323C18.4922 157.04 18.0419 156.741 17.5647 156.486L14.7386 154.901L14.031 154.506L10.4135 152.682C10.1711 152.561 9.93191 152.435 9.68767 152.32L5.99533 150.648C5.01829 150.184 4.00463 149.805 3.00618 149.392L0 148.172L3.01775 149.361C4.02146 149.764 5.03893 150.134 6.02022 150.588L9.73244 152.224C9.9777 152.337 10.2179 152.46 10.4613 152.579L14.102 154.368L14.8146 154.757L17.6617 156.317C18.1426 156.566 18.5965 156.863 19.0604 157.141L20.4463 157.987L21.831 158.836L23.1742 159.748C26.7866 162.15 30.161 164.891 33.2513 167.935C36.3421 170.991 39.0332 174.426 41.2605 178.159C43.4785 181.886 45.2154 185.936 46.1467 190.19C46.6293 192.309 46.969 194.447 47.4104 196.558C47.8518 198.668 48.364 200.762 49.0043 202.821C50.2582 206.946 51.9398 210.931 53.5825 214.929C55.2498 218.913 56.9864 222.873 59.0229 226.675L59.7879 228.1C60.0443 228.574 60.3219 229.037 60.5884 229.504C61.1132 230.447 61.6896 231.357 62.2567 232.273C62.5344 232.736 62.8386 233.18 63.1383 233.628L64.0376 234.97L64.9857 236.279C65.3065 236.712 65.6078 237.159 65.9496 237.576C68.5758 240.993 71.5332 244.143 74.7787 246.98C76.4225 248.37 78.1429 249.677 79.8772 250.964C81.6116 252.251 83.3661 253.513 85.1308 254.761C88.6585 257.26 92.2089 259.729 95.7603 262.197L106.427 269.585C108.222 270.801 109.949 272.115 111.601 273.52C112.42 274.232 113.209 274.978 113.965 275.757C114.726 276.531 115.429 277.358 116.143 278.174C118.909 281.52 121.193 285.236 122.929 289.215C124.653 293.189 125.917 297.348 126.695 301.61Z" fill="white"/>
<path fill-rule="evenodd" clip-rule="evenodd" d="M78.5305 283.088C74.6448 274.192 64.7235 265.126 48.4734 264.078C32.2232 263.03 24.1806 251.469 20.2908 241.68C16.4011 231.891 4.41113 219.317 4.41113 219.317C4.41113 219.317 4.56698 219.365 4.88329 219.447C4.94478 219.465 5.01166 219.482 5.0866 219.501C6.60433 219.894 10.7196 220.845 17.8148 221.689C27.0307 222.782 32.1362 233.155 40.3399 234.437C48.5435 235.72 55.1309 238.651 61.8252 243.852C68.5194 249.053 73.6233 251.642 87.9053 252.057C102.191 252.477 115.739 277.909 115.739 277.909C115.663 278.744 115.556 279.54 115.419 280.297C115.416 280.32 115.413 280.343 115.407 280.366C111.401 302.1 82.4021 291.955 78.5305 283.088Z" fill="url(#paint2_linear)"/>
<path fill-rule="evenodd" clip-rule="evenodd" d="M115.408 280.363C111.464 279.286 107.571 278.036 103.748 276.59C98.4615 274.586 93.3266 272.203 88.3841 269.457C85.9112 268.089 83.4997 266.609 81.128 265.079C78.7544 263.554 76.3857 262.029 73.9292 260.662C71.4749 259.285 68.9493 258.044 66.3709 256.91C63.8052 255.761 61.1817 254.745 58.5108 253.868C57.169 253.448 55.8155 253.077 54.4495 252.745C53.0835 252.413 51.6958 252.092 50.343 251.642C48.9935 251.194 47.6762 250.655 46.4001 250.028C45.7578 249.724 45.1335 249.389 44.504 249.066L42.6505 248.029C40.2008 246.598 37.8835 244.951 35.7263 243.108C33.5645 241.278 31.5501 239.298 29.4776 237.388C25.3434 233.556 20.9565 230.006 16.3466 226.762C12.6498 224.137 8.82851 221.698 4.88281 219.445C4.9443 219.463 5.01106 219.48 5.08621 219.499C8.99891 221.657 12.8016 224.006 16.4943 226.546C21.1461 229.757 25.5758 233.278 29.7532 237.086L32.8718 239.948L34.4325 241.372C34.9607 241.837 35.485 242.306 36.0223 242.757C38.1649 244.574 40.4643 246.198 42.8934 247.609L44.7362 248.632C45.3612 248.951 45.9806 249.282 46.6141 249.579C47.8729 250.193 49.172 250.721 50.5024 251.16C51.828 251.595 53.1964 251.908 54.5706 252.24C55.9448 252.572 57.3157 252.938 58.6698 253.36C61.357 254.251 63.9963 255.281 66.5771 256.445C69.1601 257.591 71.6986 258.846 74.1635 260.239C76.6348 261.624 79.01 263.162 81.3756 264.693C83.7447 266.221 86.133 267.716 88.5844 269.103C93.4894 271.88 98.5871 274.301 103.838 276.349C107.631 277.848 111.5 279.158 115.419 280.294C115.417 280.317 115.413 280.34 115.408 280.363Z" fill="white"/>
<path fill-rule="evenodd" clip-rule="evenodd" d="M69.8311 353.163C90.3392 271.654 116.117 206.64 137.425 160.035C158.349 114.267 179.105 66.7434 228.648 33.376C247.735 20.5215 280.032 -7.67449 301.188 1.97285C319.333 10.2466 307.231 46.7754 311.63 115.547C315.026 168.663 310.065 187.134 323.17 196.671C339.416 208.494 371.703 198.549 388.565 190.391C410.377 179.837 419.073 165.314 435.276 167.886C442.47 169.028 451.034 173.521 455.06 180.971C462.038 193.882 453.382 211.961 436.376 246.393C429.2 260.923 424.425 268.672 428.133 274.133C432.46 280.507 445.827 279.19 455.06 278.32C480.739 275.9 487.799 265.398 496.276 269.422C508.099 275.035 508.018 301.953 501.222 320.714C495.156 337.458 483.633 348.007 477.042 353.163L69.8311 353.163Z" fill="#F1F3F5"/>
<path fill-rule="evenodd" clip-rule="evenodd" d="M225 54.9746H373.554C379.832 54.9746 384.922 60.0641 384.922 66.3423V203.917C384.922 210.195 379.832 215.284 373.554 215.284H225C218.721 215.284 213.632 210.195 213.632 203.917V66.3423C213.632 60.0641 218.721 54.9746 225 54.9746Z" fill="white"/>
<path fill-rule="evenodd" clip-rule="evenodd" d="M226.257 216.636H372.299C380.064 216.627 386.357 210.334 386.366 202.569V67.5067C386.357 59.7413 380.064 53.4483 372.299 53.4395H226.257C218.491 53.4483 212.198 59.7412 212.189 67.5067V202.569C212.198 210.334 218.491 216.627 226.257 216.636ZM215.076 67.5069C215.083 61.3351 220.084 56.3336 226.256 56.3264H372.298C378.47 56.3335 383.472 61.3351 383.479 67.5069V202.569C383.472 208.741 378.47 213.742 372.298 213.75H226.256C220.084 213.742 215.083 208.741 215.076 202.569V67.5069Z" fill="#D1DBEE"/>
<path fill-rule="evenodd" clip-rule="evenodd" d="M251.515 163.719L248.832 162.216L262.795 137.278L280.075 132.971L288.814 116.291L307.869 114.427L317.691 120.906L326.637 110.673L349.071 96.4434L350.717 99.0423L328.476 113.15L318.25 124.962L307.085 117.595L290.767 119.192L282.161 135.623L264.829 139.943L251.515 163.719Z" fill="#FF6BC1"/>
<path fill-rule="evenodd" clip-rule="evenodd" d="M251.105 164.193L249.242 161.745L266.479 148.637L284.684 146.361L296.418 130.1L310.917 131.437L317.56 140.224L334.793 126.349L349.407 121.478L350.38 124.394L336.032 129.178L317.028 144.62L309.282 134.376L297.884 133.324L286.397 149.248L267.681 151.587L251.105 164.193Z" fill="#468EF1"/>
<path fill-rule="evenodd" clip-rule="evenodd" d="M342.341 164.256H248.884V99.166H250.172V162.969H342.341L342.341 164.256Z" fill="#353F66"/>
<path fill-rule="evenodd" clip-rule="evenodd" d="M246.831 99.7699L249.531 92.3145L252.229 99.7699H246.831Z" fill="#353F66"/>
<path fill-rule="evenodd" clip-rule="evenodd" d="M341.967 166.187L349.403 163.612L341.967 161.035V166.187Z" fill="#353F66"/>
<path fill-rule="evenodd" clip-rule="evenodd" d="M190.969 269.456C190.969 269.456 196.054 326.027 199.55 332.066C203.046 338.104 192.557 341.918 190.015 334.608C187.474 327.299 172.853 287.254 178.256 271.999C183.659 256.744 190.969 269.456 190.969 269.456Z" fill="#FFD5C0"/>
<path fill-rule="evenodd" clip-rule="evenodd" d="M156.326 275.496C156.326 275.496 129.185 325.391 128.745 332.354C128.306 339.318 116.568 339.56 118.506 332.066C120.444 324.572 131.381 280.259 144.337 270.561C157.293 260.862 156.326 275.496 156.326 275.496Z" fill="#FFD5C0"/>
<path fill-rule="evenodd" clip-rule="evenodd" d="M187.597 342.395V351.93H192.682L192.761 342.594C192.761 342.594 202.056 351.877 209.923 351.877H215.008C215.008 351.877 203.407 347.692 200.318 332.967H189.894C189.51 333.665 187.38 337.767 187.597 342.395Z" fill="#FF6BC1"/>
<path fill-rule="evenodd" clip-rule="evenodd" d="M115.998 342.395V351.93H121.083L121.162 342.594C121.162 342.594 130.458 351.877 138.324 351.877H143.409C143.409 351.877 130.521 344.938 128.72 332.967H118.296C117.911 333.665 115.781 337.767 115.998 342.395Z" fill="#FF6BC1"/>
<path fill-rule="evenodd" clip-rule="evenodd" d="M168.181 105.158C167.427 104.951 159.212 102.84 152.65 108.363C145.859 114.081 146.853 122.917 146.98 123.894C147.721 129.596 150.844 129.666 151.418 134.248C152.596 143.661 139.884 147.089 139.585 157.669C139.375 165.101 145.594 165.38 145.995 174.679C146.367 183.317 141.183 187.323 144.023 193.415C144.231 193.863 146.369 198.277 150.679 199.085C154.023 199.713 156.622 197.007 162.266 191.937C175.085 180.417 174.517 182.159 175.825 180.105C181.612 171.011 157.08 170.291 161.033 153.973C162.783 146.749 167.502 143.65 165.224 132.032C162.76 119.46 184.551 120.276 183.714 117.734C180.967 109.395 171.174 106.062 168.181 105.158Z" fill="#FF6BC1"/>
<path fill-rule="evenodd" clip-rule="evenodd" d="M195.545 114.532C193.803 110.284 187.842 108.524 185.437 108.609C183.101 108.706 180.815 109.326 178.749 110.422C177.067 111.3 174.524 112.626 173.111 115.315C170.808 119.696 172.691 125.511 176.069 128.887C178.106 130.923 181.918 133.148 183.958 131.759C186.426 130.078 184.192 124.539 186.916 122.623C188.971 121.178 191.235 123.632 193.572 122.101C195.648 120.742 196.571 117.033 195.545 114.532Z" fill="#FF6BC1"/>
<path fill-rule="evenodd" clip-rule="evenodd" d="M192.812 113.251C192.812 113.251 199.805 129.459 189.952 129.142C189.952 129.142 185.185 133.591 188.681 144.715C199.49 199.578 164.594 167.054 163.004 160.38C161.414 153.706 175.174 138.517 178.988 133.75C182.802 128.983 181.53 125.805 181.53 125.805C181.53 125.805 178.034 120.402 182.802 121.673C182.801 121.673 190.27 122.467 192.812 113.251Z" fill="#FFD5C0"/>
<path fill-rule="evenodd" clip-rule="evenodd" d="M168.858 147.974C168.858 147.974 160.291 153.723 163.249 168.268C166.208 182.813 166.947 184.785 158.072 200.809C149.197 216.834 133.42 277.971 133.42 277.971C133.42 277.971 167.687 290.791 192.339 279.204C192.339 279.204 186.176 207.712 192.093 172.705C192.093 172.705 198.995 166.049 192.093 155.695C185.19 145.341 175.453 146.168 168.858 147.974Z" fill="#404884"/>
<path fill-rule="evenodd" clip-rule="evenodd" d="M168.858 147.974C168.858 147.974 160.291 153.723 163.249 168.268C166.208 182.813 166.947 184.785 158.072 200.809C149.197 216.834 133.42 277.971 133.42 277.971C133.42 277.971 167.687 290.791 192.339 279.204C192.339 279.204 186.176 207.712 192.093 172.705C192.093 172.705 198.995 166.049 192.093 155.695C185.19 145.341 175.453 146.168 168.858 147.974Z" fill="#353F66"/>
<path fill-rule="evenodd" clip-rule="evenodd" d="M187.7 149.515C188.778 150.808 189.688 152.232 190.41 153.753C190.822 154.651 190.828 155.681 190.428 156.584C190.029 157.486 189.261 158.174 188.32 158.472L188.084 158.548C186.46 159.067 185.267 160.456 184.997 162.14L184.895 162.779C184.628 164.445 183.342 165.763 181.683 166.07L180.973 166.202C179.206 166.529 178.023 168.208 178.309 169.982L178.542 171.425C178.629 171.961 178.386 172.496 177.927 172.784C177.467 173.072 176.88 173.057 176.436 172.746C172.722 170.145 166.196 164.832 164.975 158.903C164.476 156.476 165.195 153.926 166.469 151.527C170.753 143.458 181.905 142.454 187.7 149.515Z" fill="#FF6BC1"/>
<path fill-rule="evenodd" clip-rule="evenodd" d="M214.856 145.824C215.314 144.899 215.457 143.851 215.266 142.837C214.915 141.256 216.203 136.864 215.266 135.868C215.266 135.868 217.258 135.224 217.082 138.386C216.906 141.548 216.964 140.143 216.964 140.143C216.964 140.143 221.181 130.364 222.059 130.305C222.938 130.246 222.118 132.296 219.834 138.035C219.834 138.035 226.217 140.026 224.87 142.193C223.523 144.359 222.117 145.706 220.244 148.4C218.37 151.093 214.856 145.824 214.856 145.824Z" fill="#FFD5C0"/>
<path fill-rule="evenodd" clip-rule="evenodd" d="M196.59 166.591L215.316 144.866C215.316 144.866 220.482 142.757 220.198 148.054L200.229 182.075C183.219 184.047 196.59 166.591 196.59 166.591Z" fill="#FFD5C0"/>
<path fill-rule="evenodd" clip-rule="evenodd" d="M196.53 166.543L184.452 151.998L175.33 165.557L193.902 181.663C193.902 181.663 205.16 173.939 196.53 166.543Z" fill="#FFD5C0"/>
<rect x="265.512" y="257.559" width="170.466" height="96.076" fill="url(#paint3_linear)"/>
<rect x="353.601" y="189.345" width="27.7318" height="1.84622" transform="rotate(10.0179 353.601 189.345)" fill="#353F66"/>
<path fill-rule="evenodd" clip-rule="evenodd" d="M390.689 218.67L386.845 228.461C386.845 228.461 375.865 243.284 382.179 248.225C382.179 248.225 398.1 252.068 400.022 237.519C401.943 222.97 390.689 218.67 390.689 218.67Z" fill="#FFD5C0"/>
<path fill-rule="evenodd" clip-rule="evenodd" d="M394.254 168.345C394.254 168.345 389.588 162.306 396.725 160.109C403.862 157.913 417.588 159.835 417.588 166.698C417.588 166.698 424.725 175.207 408.255 181.521L394.254 168.345Z" fill="#FF6BC1"/>
<path fill-rule="evenodd" clip-rule="evenodd" d="M411.939 188.947C415.222 189.6 418.078 191.609 419.802 194.479C421.526 197.349 421.959 200.813 420.994 204.019C419.787 208.03 417.79 213.163 414.564 219.676C403.248 242.527 401.964 245.816 401.964 245.816L387.116 227.221L398.334 196.895C400.205 191.186 406.046 187.774 411.939 188.947Z" fill="#4E587F"/>
<path fill-rule="evenodd" clip-rule="evenodd" d="M395.08 164.776C395.08 164.776 387.394 182.894 400.57 180.148C400.57 180.148 404.139 183.168 404.688 192.501L400.296 197.717C400.296 197.717 422.805 199.364 420.06 191.129C417.315 182.894 410.178 188.933 408.805 178.227L407.982 175.207C407.982 175.207 410.452 173.56 409.629 170.541C408.175 165.211 406.335 169.992 406.335 169.992L395.08 164.776Z" fill="#FFD5C0"/>
<path fill-rule="evenodd" clip-rule="evenodd" d="M400.296 197.315L387.679 257.864H424.161C424.161 257.864 430.195 228.248 430.195 200.502C430.195 193.863 423.338 188.817 415.932 186.427C415.931 186.427 411.817 197.581 400.296 197.315Z" fill="#353F66"/>
<path fill-rule="evenodd" clip-rule="evenodd" d="M421.156 252.343C421.156 252.343 421.431 257.833 416.49 257.833H357.472C357.472 257.833 363.511 248.226 369.55 250.422C375.589 252.618 374.491 252.618 374.491 252.618L404.961 242.461C404.961 242.461 419.509 241.088 421.156 252.343Z" fill="#FFD5C0"/>
<path fill-rule="evenodd" clip-rule="evenodd" d="M418.481 191.694C424.363 191.509 429.126 197.399 428.75 204.392C428.525 208.569 427.867 214.017 426.468 221.082C421.556 245.868 421.159 254.264 421.159 254.264L404.963 242.46L408.867 202.452C409.313 196.47 413.44 191.851 418.481 191.694Z" fill="#4E587F"/>
<path fill-rule="evenodd" clip-rule="evenodd" d="M375.865 200.187L387.119 227.088C387.119 227.088 395.903 246.303 382.178 248.225C382.178 248.225 377.237 243.833 373.12 223.519C369.002 203.206 369.276 202.658 369.276 202.658L375.865 200.187Z" fill="#FFD5C0"/>
<path fill-rule="evenodd" clip-rule="evenodd" d="M375.865 201.01C375.865 201.01 378.884 192.775 375.59 190.304C372.296 187.834 373.394 185.638 361.865 190.304C361.865 190.304 363.512 194.147 370.65 190.03L372.846 191.951L370.924 193.873C370.924 193.873 365.983 191.677 364.336 193.598L369.003 196.618C369.003 196.618 367.63 200.461 369.277 202.657C370.924 204.853 375.865 201.01 375.865 201.01Z" fill="#FFD5C0"/>
<path fill-rule="evenodd" clip-rule="evenodd" d="M473 339.735C471.976 334.009 462.795 281.577 466.412 249.149C466.898 244.792 468.53 232.591 476.843 221.15C477.824 219.799 485.647 209.033 490.018 210.719C493.704 212.14 493.283 221.775 492.761 228.287C490.521 256.368 479.935 307.798 473 339.735Z" fill="url(#paint4_linear)"/>
<path fill-rule="evenodd" clip-rule="evenodd" d="M473 339.461C469.46 338.31 474.067 308.372 487.823 280.717C493.018 270.273 504.037 248.122 516.92 248.875C520.116 249.062 524.12 250.698 525.704 253.816C528.22 258.766 523.724 265.648 518.567 273.031C507.385 289.043 498.792 299.258 494.411 304.874C478.146 325.732 475.478 340.266 473 339.461Z" fill="url(#paint5_linear)"/>
<path fill-rule="evenodd" clip-rule="evenodd" d="M472.726 339.736C467.431 311.846 454.317 295.93 447.197 288.678C443.542 284.955 421.594 262.6 407.944 269.189C403.053 271.549 399.298 277.592 399.985 282.914C401.158 292.016 414.926 295.934 427.16 301.855C439.377 307.767 455.943 318.52 472.726 339.736Z" fill="url(#paint6_linear)"/>
<path fill-rule="evenodd" clip-rule="evenodd" d="M472.726 339.461C464.929 330.663 451.792 319.186 433.473 316.128C421.89 314.194 404.817 315.055 403.003 321.069C401.86 324.859 406.931 330.192 411.513 332.872C420.273 337.998 428.569 334.206 441.159 333.696C448.849 333.384 459.584 334.239 472.726 339.461Z" fill="url(#paint7_linear)"/>
<path fill-rule="evenodd" clip-rule="evenodd" d="M498.804 339.46H451.315L456.805 354.558H493.315L498.804 339.46Z" fill="#FF90C6"/>
<path fill-rule="evenodd" clip-rule="evenodd" d="M329.195 280.083C329.195 280.083 315.714 339.156 317.412 346.737C319.11 354.319 306.696 354.87 306.435 346.255C306.174 337.641 304.011 292.942 314.842 278.541C325.674 264.139 329.195 280.083 329.195 280.083Z" fill="#FFD5C0"/>
<path fill-rule="evenodd" clip-rule="evenodd" d="M311.832 270.998C311.832 270.998 286.683 326.361 286.749 333.831C286.814 341.3 275.034 339.311 276.527 331.161C278.021 323.011 285.562 278.001 298.651 266.65C311.74 255.299 311.832 270.998 311.832 270.998Z" fill="#FFD5C0"/>
<path fill-rule="evenodd" clip-rule="evenodd" d="M303.875 352.077V362.693H309.537L309.625 352.298C309.625 352.298 319.975 362.634 328.735 362.634H334.397C334.397 362.634 321.48 357.975 318.041 341.578H306.433C306.005 342.356 303.633 346.923 303.875 352.077Z" fill="#FF6BC1"/>
<path fill-rule="evenodd" clip-rule="evenodd" d="M273.678 341.645V352.261H279.34L279.429 341.866C279.429 341.866 289.779 352.202 298.539 352.202H304.201C304.201 352.202 291.284 347.543 287.844 331.146H276.237C275.809 331.924 273.437 336.491 273.678 341.645Z" fill="#FF6BC1"/>
<path fill-rule="evenodd" clip-rule="evenodd" d="M283.628 165.599C283.628 165.599 293.51 187.011 282.53 188.109C282.53 188.109 279.782 201.324 286.922 201.834C294.608 202.383 300.372 198.814 307.235 210.069C312.348 218.454 327.381 240.385 324.803 244.107C322.333 247.675 294.608 246.303 294.608 246.303L291.588 238.343L308.333 235.873L292.961 217.756L267.706 218.305C267.706 218.305 254.53 163.952 283.628 165.599Z" fill="#FFD5C0"/>
<path fill-rule="evenodd" clip-rule="evenodd" d="M249.59 208.972C249.59 208.972 272.923 211.168 290.216 209.795C307.51 208.423 304.216 205.952 304.216 205.952C304.216 205.952 314.373 218.03 313 219.952C311.627 221.874 297.628 224.618 297.628 224.618L294.334 225.167C294.334 225.167 300.099 257.559 311.079 258.931C322.059 260.304 330.568 263.872 329.745 272.106C328.921 280.34 325.353 299.831 325.353 299.831C325.353 299.831 294.608 298.459 284.452 287.753L290.491 275.675C290.491 275.675 259.747 282.263 263.59 264.42C267.433 246.578 270.727 247.95 263.315 238.342C255.903 228.734 249.59 208.972 249.59 208.972Z" fill="#FF6BC1"/>
<path fill-rule="evenodd" clip-rule="evenodd" d="M282.256 163.404C288.021 166.148 288.57 178.502 280.609 181.795C272.163 185.29 286.099 232.852 278.688 235.872C271.276 238.892 240.257 258.107 239.708 238.068C239.159 218.029 245.499 145.901 282.256 163.404Z" fill="#353F66"/>
<path fill-rule="evenodd" clip-rule="evenodd" d="M254.258 275.403C254.258 275.403 272.649 281.167 272.924 295.167C273.199 309.167 272.924 358.027 272.924 358.027L248.451 365.987H303.668L279.512 358.028V293.793C279.512 293.793 278.414 279.245 308.609 272.931L254.258 275.403Z" fill="#4E587F"/>
<path fill-rule="evenodd" clip-rule="evenodd" d="M307.376 264.146H288.844V260.99C288.826 254.706 283.736 249.616 277.453 249.598H255.767C249.483 249.616 244.393 254.706 244.375 260.99V265.656C244.375 266.758 244.65 269.809 244.65 270.32V270.874C244.66 274.279 247.418 277.038 250.824 277.048H307.376C310.781 277.038 313.54 274.279 313.55 270.874V270.32C313.54 266.915 310.781 264.156 307.376 264.146Z" fill="#353F66"/>
<g opacity="0.4">
<path fill-rule="evenodd" clip-rule="evenodd" d="M495.442 117.777H437.937C437.937 117.777 442.518 85.0146 454.89 106.092C454.89 106.092 465.429 77.225 476.426 107.696C476.426 107.696 495.442 101.281 495.442 117.777Z" fill="#DDE1E7"/>
</g>
<g opacity="0.4">
<path fill-rule="evenodd" clip-rule="evenodd" d="M418.017 24.052H360.512C360.512 24.052 365.094 -8.71002 377.466 12.3677C377.466 12.3677 388.004 -16.4997 399.001 13.9712C399.001 13.971 418.017 7.55643 418.017 24.052Z" fill="#DDE1E7"/>
</g>
<g opacity="0.4">
<path fill-rule="evenodd" clip-rule="evenodd" d="M144.994 78.3848H87.4893C87.4893 78.3848 92.0714 45.623 104.443 66.7007C104.443 66.7007 114.982 37.8333 125.979 68.3042C125.979 68.304 144.994 61.8894 144.994 78.3848Z" fill="#DDE1E7"/>
</g>
<defs>
<linearGradient id="paint0_linear" x1="69.6965" y1="157.069" x2="93.4586" y2="227.311" gradientUnits="userSpaceOnUse">
<stop stop-color="#136BDE"/>
<stop offset="1" stop-color="#68ADFD"/>
</linearGradient>
<linearGradient id="paint1_linear" x1="137.603" y1="224.26" x2="85.2773" y2="290.005" gradientUnits="userSpaceOnUse">
<stop stop-color="#A3EDD0"/>
<stop offset="1" stop-color="#4DE1A3"/>
</linearGradient>
<linearGradient id="paint2_linear" x1="31.8346" y1="230.13" x2="23.8474" y2="264.585" gradientUnits="userSpaceOnUse">
<stop stop-color="#136BDE"/>
<stop offset="1" stop-color="#68ADFD"/>
</linearGradient>
<linearGradient id="paint3_linear" x1="410.683" y1="261.211" x2="389.917" y2="364.1" gradientUnits="userSpaceOnUse">
<stop stop-color="#A3EDD0"/>
<stop offset="1" stop-color="#4DE1A3"/>
</linearGradient>
<linearGradient id="paint4_linear" x1="471.852" y1="249.893" x2="497.039" y2="254.771" gradientUnits="userSpaceOnUse">
<stop stop-color="#136BDE"/>
<stop offset="1" stop-color="#68ADFD"/>
</linearGradient>
<linearGradient id="paint5_linear" x1="484.304" y1="276.465" x2="524.167" y2="298.277" gradientUnits="userSpaceOnUse">
<stop stop-color="#136BDE"/>
<stop offset="1" stop-color="#68ADFD"/>
</linearGradient>
<linearGradient id="paint6_linear" x1="416.516" y1="289.838" x2="453.864" y2="324.29" gradientUnits="userSpaceOnUse">
<stop stop-color="#136BDE"/>
<stop offset="1" stop-color="#68ADFD"/>
</linearGradient>
<linearGradient id="paint7_linear" x1="418.782" y1="322.593" x2="427.225" y2="344.702" gradientUnits="userSpaceOnUse">
<stop stop-color="#136BDE"/>
<stop offset="1" stop-color="#68ADFD"/>
</linearGradient>
</defs>
</svg>
