<svg width="1140" height="508" viewBox="0 0 1140 508" fill="none" xmlns="http://www.w3.org/2000/svg">
<rect x="-130" y="-2342" width="1400" height="5018" fill="white"/>
<path fill-rule="evenodd" clip-rule="evenodd" d="M418.887 44.049C418.826 43.7669 418.436 43.7268 418.514 43.4079C418.608 43.0195 418.311 42.7663 418.222 42.4426C418.125 42.0895 417.978 41.7507 417.859 41.4032C417.476 40.284 417.58 39.0442 417.01 37.9686C416.965 37.8841 416.999 37.7583 416.993 37.652C416.938 36.6887 416.482 35.7862 416.561 34.8026C416.098 33.7509 416.275 32.5781 415.931 31.4962C415.801 31.0856 415.879 30.6242 415.722 30.1767C415.569 29.7387 415.717 29.2388 415.507 28.7496C415.295 28.2589 415.545 27.68 415.305 27.1028C415.094 26.5969 415.201 25.955 415.077 25.3651C414.93 24.6597 415.056 23.9162 414.856 23.1826C414.695 22.5943 414.859 21.9515 414.643 21.3223C414.488 20.8708 414.556 20.3146 414.629 19.8207C414.705 19.3021 414.314 18.8979 414.389 18.3928C414.431 18.1107 414.397 17.8171 414.397 17.5287C414.397 17.2042 414.366 16.8757 414.406 16.5563C414.441 16.2786 414.189 15.9196 414.279 15.8346C414.671 15.4613 414.121 15.2899 414.158 14.9829C414.232 14.3786 414.066 13.7311 414.211 13.1543C414.366 12.5334 413.694 12.0371 414.078 11.4448C413.916 10.8842 413.97 10.3093 413.964 9.73839C413.96 9.34165 413.967 8.94491 413.962 8.54857C413.958 8.14946 413.937 7.74954 414.104 7.37145C413.761 7.0624 414.134 6.60337 413.881 6.27448C413.705 6.33795 413.61 6.64622 413.35 6.40699C413.06 6.14117 412.784 6.20148 412.536 6.49109C412.447 6.59504 412.359 6.72279 412.193 6.68986C411.917 6.72438 412.089 5.92138 411.588 6.37207C411.82 6.54981 411.839 6.83507 411.981 7.05287C411.914 7.07708 411.849 7.09533 411.789 7.12349C411.032 7.47857 410.405 7.60037 409.552 7.55554C409.047 8.05384 409.047 8.05384 408.933 8.58349C408.7 8.70409 408.376 8.53905 408.194 8.81915C408.17 8.79296 408.145 8.76718 408.119 8.7394V8.25221C407.892 8.80288 407.554 8.54183 407.29 8.70092C407.27 8.86715 407.25 9.03735 407.23 9.20835C407.054 9.3107 406.865 9.37498 406.691 9.48844C406.388 9.68562 406.03 9.80028 405.688 9.9316C405.552 9.98397 405.501 9.59913 405.286 9.84114C405.152 9.9919 404.927 9.99746 404.757 10.1379C404.37 10.4581 403.86 10.5906 403.433 10.8322C403.041 11.054 402.613 10.8957 402.257 11.1412C401.367 11.7554 400.31 11.945 399.332 12.3418C399.261 12.1394 399.217 12.0137 399.173 11.8911C398.799 12.0498 398.844 12.5072 398.541 12.7C397.935 12.7607 397.623 12.8682 397.096 13.1765C397.059 13.1979 396.974 13.138 396.91 13.1162C396.736 12.8889 397.043 12.7798 397.038 12.5755C396.907 12.5163 396.781 12.4921 396.668 12.6231C396.655 12.8675 396.643 13.1099 396.628 13.3884H395.495C395.236 13.5586 395.16 13.87 394.81 13.828C394.713 13.8359 394.711 13.5697 394.531 13.6728C394.503 13.7796 394.51 13.9152 394.446 13.9668C394.308 14.0807 391.716 14.8904 391.588 14.8904C391.563 14.89 391.537 14.8694 391.511 14.8579C391.468 14.7325 391.423 14.6071 391.377 14.4754C391.092 14.6325 391.39 14.9793 391.129 15.1253C390.959 14.9333 390.992 14.5897 390.668 14.5103C390.58 14.6563 390.355 14.7067 390.378 14.971C390.428 15.0487 390.498 15.1558 390.57 15.2657C390.213 15.4827 389.864 15.184 389.54 15.236C389.159 15.2971 388.759 15.4236 388.478 15.6343C388.362 15.8343 388.523 16.0322 388.355 16.1814C388.19 16.1568 388.122 15.9096 387.778 16.0521C387.775 16.056 387.672 16.1608 387.605 16.2849C387.534 16.4155 387.843 16.5377 387.722 16.5686C387.368 16.6591 387.431 16.932 387.311 17.1498C387.16 17.426 387.086 17.6827 387.146 17.9413C387.211 18.2218 386.872 18.4115 387.098 18.7602C387.263 19.0133 387.171 19.4656 387.123 19.8199C386.986 20.8546 387.297 21.8531 387.393 22.8632C387.444 23.4036 387.567 23.9551 387.557 24.5085C387.547 25.1318 387.586 25.1135 387.751 25.6547C387.816 25.8697 388.143 26.0054 387.972 26.3033C387.734 26.7152 388.135 27.1238 387.997 27.54C388.616 28.6374 388.508 29.9188 388.892 31.065C389.066 31.5847 388.919 32.1306 389.137 32.5821C389.503 33.3363 389.451 34.181 389.748 34.9264C389.954 35.4426 389.785 36.0012 389.984 36.4503C390.428 37.4556 390.312 38.5923 390.81 39.5698C390.695 40.1761 391.04 40.7156 391.054 41.3183C391.068 41.9106 391.377 42.4918 391.432 43.0893C391.459 43.3888 391.75 43.5424 391.688 43.8649C391.637 44.1351 391.6 44.5045 391.741 44.6921C391.951 44.9722 391.895 45.238 391.88 45.5026C391.862 45.8034 392.179 45.9621 392.116 46.2802C391.983 46.9499 392.489 47.5629 392.324 48.2441C392.666 48.6777 392.408 49.2248 392.567 49.6593C392.757 50.1786 392.702 50.6876 392.767 51.2002C392.843 51.7953 392.94 52.4094 393.543 52.7633C393.683 52.5007 393.924 52.5412 394.124 52.5737C395.052 52.7241 395.936 52.3844 396.844 52.3122C397.231 52.2813 397.649 52.0726 398.052 52.1488C398.539 52.2404 398.908 51.898 399.372 51.9052C400.02 51.9159 400.644 51.7187 401.266 51.5319C401.756 51.3843 402.313 51.6084 402.786 51.2775C402.874 51.2161 402.922 51.5144 403.094 51.4323C403.141 51.2978 403.184 51.172 403.229 51.0415C403.325 51.124 403.453 51.2613 403.472 51.2474C403.937 50.9129 404.491 50.9054 405.015 50.7765C405.206 50.7293 405.325 50.5384 405.548 50.7396C405.739 50.9122 405.914 50.6491 406.054 50.5928C407.028 50.2024 408.021 49.8854 409.061 49.7707C409.411 49.7323 409.525 49.4803 409.745 49.3224C409.77 49.347 409.792 49.378 409.821 49.397C409.891 49.4422 409.919 49.5831 410.054 49.4518C410.3 49.2125 410.721 49.3442 410.955 48.9975C411.16 48.6936 411.675 49.0848 411.897 48.6829C413.104 48.4762 414.158 47.8696 415.242 47.3622C416.517 46.7651 417.824 46.21 418.703 45.5261C419.227 44.8905 418.494 44.5037 418.887 44.049ZM421.524 41.5448C421.777 42.0879 422.264 42.5065 421.808 43.106C421.72 43.2226 421.897 43.2524 421.933 43.3329C422.256 44.0641 422.16 44.8409 422.196 45.6062C422.213 45.9914 421.964 46.2362 421.824 46.5373C421.719 46.7627 421.569 46.6964 421.447 46.5262C421.317 46.7333 420.986 46.631 420.895 46.8646C420.855 47.059 420.983 47.1416 421.081 47.2411C421.036 47.4709 420.786 47.3153 420.677 47.4661C420.497 47.7152 420.2 47.5145 419.978 47.5954C419.467 47.7815 418.791 47.7089 418.609 48.448C418.584 48.5496 418.456 48.6952 418.261 48.6734C417.971 48.698 418.151 48.3909 418.019 48.2905C417.971 48.235 417.894 48.2433 417.873 48.3377C417.717 49.0645 417.721 49.0653 416.838 49.1518C416.794 49.2768 416.748 49.4022 416.712 49.5049C416.419 49.6811 416.349 49.299 416.133 49.3212C414.937 50.108 414.635 50.4857 412.885 50.4896C412.957 50.5733 413.021 50.6479 413.086 50.7225C412.929 50.8142 412.855 51.2434 412.571 50.8503C412.345 50.9899 412.129 51.1538 411.889 51.2641C411.343 51.5144 410.786 51.6798 410.267 51.2311C409.995 51.4454 410.048 51.8798 409.655 51.9175C409.473 51.954 409.429 51.7695 409.243 51.6854C409.015 51.8076 408.677 51.8366 408.548 52.2131C408.471 52.4412 408.248 52.34 408.085 52.3468C407.906 52.3539 407.85 52.0702 407.622 52.1424C407.125 52.5233 406.644 53.0129 405.969 52.6999C405.771 52.8978 405.561 53.1081 405.35 53.3188C404.868 53.3144 404.484 53.1037 404.111 53.3977C403.843 53.6092 403.332 53.2521 403.034 53.6492C402.425 53.504 401.89 53.9285 401.285 53.871C400.481 53.7941 399.703 53.9297 398.961 54.2586C398.9 54.2856 398.826 54.3035 398.762 54.2959C397.732 54.1733 396.75 54.6062 395.714 54.5336C394.991 54.4828 394.25 54.4149 393.525 54.7101C393.216 54.8359 392.671 54.8787 392.483 54.6986C392.151 54.3792 391.728 55.0588 391.532 54.5149C391.174 54.5066 390.778 54.5895 390.475 54.4574C390.283 54.3737 389.945 54.3765 389.869 54.1063C389.755 53.698 389.335 53.6334 389.108 53.3529C389.191 53.1815 389.318 53.0422 389.305 52.8101C389.273 52.2353 389.474 51.5684 389.245 51.105C389.002 50.6114 389.319 50.033 388.872 49.6267C388.8 49.5613 388.843 49.3462 388.865 49.2058C389.006 48.3151 388.526 47.4784 388.645 46.5913C388.215 45.2261 388.289 43.7566 387.78 42.4077C387.875 41.3175 387.368 40.3157 387.305 39.237C387.28 38.8176 387.269 38.3086 387.098 37.9337C386.893 37.4878 387.097 36.9613 386.845 36.6411C386.522 36.2313 386.973 35.679 386.49 35.372C386.57 34.7701 386.414 34.1901 386.252 33.6307C385.987 32.7162 386.183 31.7144 385.668 30.8432C385.54 30.6282 385.584 30.2794 385.627 30.0045C385.676 29.6911 385.39 29.5352 385.38 29.2281C385.346 28.1962 384.94 27.2079 384.967 26.1625C384.526 25.6527 384.932 24.9894 384.658 24.4518C384.379 23.9079 384.557 23.3298 384.553 22.7728C384.551 22.405 384.259 22.1503 384.309 21.7798C384.351 21.4612 384.347 21.1287 384.308 20.8089C384.276 20.5538 384.545 20.3055 384.457 20.1793C384.313 19.973 384.331 19.7865 384.317 19.5814C383.444 19.1823 383.08 18.471 383.012 17.5426C382.952 16.711 383.1 15.8898 383.69 15.3471C384.513 14.5893 385.271 13.7256 386.32 13.2313C387.769 12.5485 389.245 11.9466 390.764 11.4241C391.99 11.0024 393.204 10.5271 394.432 10.103C396.703 9.31943 398.98 8.55175 401.252 7.77097C402.829 7.22863 404.401 6.67042 405.979 6.13086C406.486 5.95788 407.01 5.83688 407.518 5.66588C408.403 5.36873 409.274 5.02872 410.164 4.74783C411.377 4.36498 412.599 4.00435 413.826 3.67109C414.168 3.57865 414.455 3.45328 414.73 3.23111C415.142 2.89864 415.158 2.91848 415.691 3.33227C415.622 3.40805 415.554 3.48343 415.475 3.56992C415.798 3.76511 415.932 3.65601 415.915 3.33029C416.079 3.14144 416.273 3.2684 416.433 3.22674C416.597 3.30212 416.539 3.47034 416.586 3.58182C416.824 3.74845 417.085 3.59452 417.326 3.68934C417.374 3.95991 417.545 4.13686 417.852 4.18764V6.79341C417.72 6.93266 417.576 7.08501 417.432 7.23736C417.96 7.73685 418.288 8.28593 417.92 9.02386C418.19 9.1774 417.794 9.44996 418.054 9.67094C418.178 9.77687 418.125 10.1633 418.063 10.3997C417.982 10.7112 418.406 10.8596 418.267 11.1623C418.078 11.3007 418.077 11.0151 417.944 11.0433C417.607 11.5086 418.196 11.3722 418.289 11.5554C418.22 11.632 418.151 11.7074 418.086 11.778C418.154 11.8578 418.217 11.9319 418.278 12.0045C418.139 12.1446 418.011 12.272 417.883 12.4005C418.098 12.8924 418.386 13.3828 418.28 13.9378C418.182 14.4564 418.548 14.8587 418.529 15.3649C418.51 15.835 418.326 16.3552 418.714 16.7975C418.785 16.8789 418.716 17.0776 418.726 17.2208C418.75 17.5585 418.558 17.8648 418.7 18.2409C418.819 18.5563 418.771 18.9601 418.712 19.3109C418.637 19.7568 418.992 20.0774 418.964 20.5225C418.939 20.9157 418.74 21.3874 419.154 21.7321C419.172 21.7468 419.162 21.802 419.156 21.8369C419.002 22.8688 419.432 23.8563 419.386 24.8842C419.367 25.2865 419.303 25.692 419.562 26.1089C419.736 26.3902 419.412 26.812 419.561 27.2206C419.639 27.4344 419.765 27.653 419.794 27.8792C419.82 28.078 419.91 28.3426 419.737 28.4921C419.426 28.7599 420.017 28.879 419.806 29.1039C420.109 29.4788 419.801 29.9466 420.011 30.3548C420.217 30.7535 420.164 31.2396 420.268 31.6581C420.532 32.7226 420.453 33.8421 420.837 34.8792C420.565 35.3985 420.963 35.883 420.918 36.4114C420.874 36.9379 420.955 37.5524 421.208 38.0007C421.391 38.3265 421.052 38.5355 421.207 38.6843C421.425 38.8934 421.203 39.1743 421.418 39.3659C421.666 39.5877 421.49 39.9067 421.536 40.1784C421.564 40.3459 421.495 40.518 421.647 40.6759C421.943 40.9838 421.642 41.2413 421.524 41.5448Z" fill="#DDE1E7"/>
<path fill-rule="evenodd" clip-rule="evenodd" d="M197.226 320.493C197.224 320.819 196.588 321.062 197.101 321.46C197.137 321.489 197.143 321.631 197.11 321.662C196.695 322.051 196.928 322.543 196.909 322.983C196.872 323.846 196.921 324.712 196.892 325.575C196.863 326.448 196.964 327.314 196.717 328.197C196.539 328.831 196.621 329.563 196.698 330.238C196.782 330.961 196.401 331.614 196.474 332.31C196.576 333.273 196.113 334.18 196.248 335.139C196.254 335.174 196.26 335.215 196.247 335.246C195.833 336.232 195.875 337.312 195.604 338.329C195.503 338.71 195.209 339.075 195.46 339.502C195.761 339.633 195.971 339.376 196.224 339.33C196.993 339.189 197.732 338.89 198.526 338.88C198.753 338.44 199.229 338.76 199.581 338.538C199.877 338.351 200.349 338.262 200.744 338.256C201.14 338.25 201.436 337.886 201.843 338.019C202.237 337.587 202.811 337.841 203.302 337.629C204.181 337.249 205.149 337.064 206.069 336.751C206.602 336.569 206.958 336.281 207.242 336.001C207.379 335.372 207.143 334.921 206.908 334.529C206.266 333.454 205.615 332.373 204.847 331.388C203.645 329.847 202.543 328.239 201.43 326.638C200.518 325.329 199.64 323.996 198.755 322.669C198.262 321.931 197.889 321.111 197.226 320.493ZM206.748 340.396C206.507 340.638 206.302 340.841 206.098 341.045C206.073 341.022 206.048 340.999 206.022 340.976C205.971 340.931 205.882 340.842 205.875 340.849C205.127 341.477 204.022 340.997 203.286 341.681C203.161 341.589 203.016 341.369 202.861 341.493C202.573 341.723 202.327 341.817 202.036 341.534C201.983 341.482 201.907 341.491 201.888 341.583C201.78 342.086 201.433 341.986 201.056 342.001C200.706 342.015 200.369 342.243 200.017 342.344C199.074 342.614 198.062 342.603 197.155 343.006C196.862 343.136 196.68 342.65 196.329 342.967C196.167 343.114 195.832 343.31 195.468 343.229C195.178 343.165 194.913 343.417 194.592 343.46C194.007 343.537 193.531 343.897 193.325 344.509C193.274 344.458 193.223 344.407 193.173 344.357C192.749 344.499 192.639 344.722 192.994 345.062C192.891 345.164 192.789 345.266 192.687 345.369C192.61 345.301 192.534 345.233 192.461 345.167C192.088 345.341 192.179 345.967 191.75 346.002C191.394 346.032 191.081 346.127 190.805 346.263C190.457 346.111 190.77 345.752 190.522 345.601C190.383 345.689 190.306 345.913 190.008 345.74C189.977 345.471 189.85 345.137 190.177 344.848C189.807 344.577 189.396 344.503 188.937 344.498C188.454 344.493 187.996 344.369 187.803 343.809C187.658 343.387 187.015 343.399 187 342.814C187.026 342.778 187.104 342.668 187.176 342.553C187.451 342.113 187.768 341.779 188.365 341.644C189.301 341.433 190.167 340.889 191.104 340.721C191.894 340.579 191.961 340.025 192.113 339.52C192.219 339.174 192.288 338.78 192.324 338.425C192.437 337.324 192.837 336.265 192.787 335.146C193.231 334.413 192.861 333.57 193.119 332.796C193.369 332.045 193.062 331.211 193.244 330.463C193.58 329.084 193.384 327.705 193.427 326.328C193.469 324.959 193.436 323.588 193.436 322.218C193.436 320.812 193.587 319.384 193.394 318.005C193.199 316.619 193.29 315.251 193.211 313.899C193.54 313.57 193.845 313.264 194.11 313C194.324 313.214 194.54 313.43 194.771 313.661C195.072 313.234 195.46 313.265 195.71 313.378C196.739 313.845 197.636 314.446 198.217 315.511C199.103 317.139 200.109 318.702 201.083 320.281C201.83 321.493 202.631 322.676 203.443 323.83C204.49 325.316 205.477 326.858 206.683 328.237C207.156 328.777 207.427 329.507 208.009 329.939C208.3 330.154 207.862 330.643 208.422 330.677C208.781 330.7 208.731 331.183 208.973 331.375C209.252 331.597 209.376 331.947 209.605 332.185C209.832 332.423 209.845 332.765 210.116 332.961C210.371 333.145 210.488 333.451 210.67 333.697C211.094 334.273 211.459 334.883 211.796 335.508C212.2 336.256 212.157 337.024 211.751 337.768C211.702 337.857 211.651 337.978 211.602 338.024C211.348 338.265 211.53 338.716 211.285 338.861C210.675 339.22 210.164 339.777 209.469 339.942C209.121 340.024 208.834 340.172 208.548 340.339C208.267 340.503 207.945 340.297 207.647 340.537C207.439 340.704 207.044 340.747 206.748 340.396Z" fill="#DDE1E7"/>
<path fill-rule="evenodd" clip-rule="evenodd" d="M922.226 431.77C922.224 431.445 921.588 431.201 922.101 430.803C922.137 430.775 922.143 430.633 922.11 430.601C921.695 430.212 921.928 429.72 921.909 429.28C921.872 428.418 921.921 427.551 921.892 426.688C921.863 425.815 921.964 424.95 921.717 424.067C921.539 423.432 921.621 422.701 921.698 422.025C921.782 421.302 921.401 420.649 921.474 419.953C921.576 418.991 921.113 418.083 921.248 417.124C921.254 417.089 921.26 417.048 921.247 417.017C920.833 416.031 920.875 414.951 920.604 413.935C920.503 413.553 920.209 413.188 920.46 412.761C920.761 412.63 920.971 412.887 921.224 412.933C921.993 413.075 922.732 413.373 923.526 413.383C923.753 413.824 924.229 413.503 924.581 413.726C924.877 413.912 925.349 414.001 925.744 414.008C926.14 414.014 926.436 414.377 926.843 414.244C927.237 414.676 927.811 414.422 928.302 414.634C929.181 415.014 930.149 415.199 931.069 415.512C931.602 415.694 931.958 415.982 932.242 416.262C932.379 416.892 932.143 417.342 931.908 417.734C931.266 418.809 930.615 419.89 929.847 420.875C928.645 422.416 927.543 424.024 926.43 425.625C925.518 426.935 924.64 428.267 923.755 429.594C923.262 430.332 922.889 431.153 922.226 431.77ZM931.748 411.868C931.507 411.626 931.302 411.422 931.098 411.218C931.073 411.241 931.048 411.265 931.022 411.288C930.971 411.332 930.882 411.421 930.875 411.415C930.127 410.787 929.022 411.266 928.286 410.582C928.161 410.674 928.016 410.894 927.861 410.77C927.573 410.54 927.327 410.447 927.036 410.729C926.983 410.781 926.907 410.773 926.888 410.68C926.78 410.178 926.433 410.277 926.056 410.262C925.706 410.249 925.369 410.02 925.017 409.92C924.074 409.649 923.062 409.66 922.155 409.257C921.862 409.127 921.68 409.613 921.329 409.296C921.167 409.149 920.832 408.954 920.468 409.034C920.178 409.098 919.913 408.846 919.592 408.804C919.007 408.726 918.531 408.366 918.325 407.755C918.274 407.805 918.223 407.856 918.173 407.907C917.749 407.764 917.639 407.542 917.994 407.201C917.891 407.099 917.789 406.997 917.687 406.894C917.61 406.962 917.534 407.031 917.461 407.096C917.088 406.922 917.179 406.296 916.75 406.261C916.394 406.232 916.081 406.136 915.805 406C915.457 406.152 915.77 406.511 915.522 406.662C915.383 406.574 915.306 406.35 915.008 406.523C914.977 406.792 914.85 407.127 915.177 407.415C914.807 407.686 914.396 407.761 913.937 407.765C913.454 407.77 912.996 407.894 912.803 408.454C912.658 408.876 912.015 408.864 912 409.45C912.026 409.486 912.104 409.596 912.176 409.71C912.451 410.151 912.768 410.484 913.365 410.619C914.301 410.83 915.167 411.375 916.104 411.542C916.894 411.684 916.961 412.239 917.113 412.743C917.219 413.09 917.288 413.483 917.324 413.839C917.437 414.939 917.837 415.998 917.787 417.118C918.231 417.85 917.861 418.693 918.119 419.467C918.369 420.218 918.062 421.053 918.244 421.8C918.58 423.179 918.384 424.558 918.427 425.935C918.469 427.304 918.436 428.675 918.436 430.045C918.436 431.451 918.587 432.879 918.394 434.258C918.199 435.644 918.29 437.012 918.211 438.364C918.54 438.693 918.845 438.999 919.11 439.263C919.324 439.049 919.54 438.833 919.771 438.602C920.072 439.029 920.46 438.999 920.71 438.885C921.739 438.419 922.636 437.817 923.217 436.752C924.103 435.124 925.109 433.561 926.083 431.982C926.83 430.77 927.631 429.588 928.443 428.433C929.49 426.947 930.477 425.405 931.683 424.026C932.156 423.486 932.427 422.756 933.009 422.324C933.3 422.109 932.862 421.62 933.422 421.586C933.781 421.564 933.731 421.08 933.973 420.888C934.252 420.667 934.376 420.316 934.605 420.078C934.832 419.84 934.845 419.498 935.116 419.302C935.371 419.118 935.488 418.812 935.67 418.566C936.094 417.99 936.459 417.38 936.796 416.755C937.2 416.008 937.157 415.239 936.751 414.495C936.702 414.406 936.651 414.285 936.602 414.239C936.348 413.998 936.53 413.547 936.285 413.403C935.675 413.043 935.164 412.486 934.469 412.321C934.121 412.239 933.834 412.091 933.548 411.924C933.267 411.76 932.945 411.966 932.647 411.726C932.439 411.559 932.044 411.516 931.748 411.868Z" fill="#DDE1E7"/>
<path fill-rule="evenodd" clip-rule="evenodd" d="M933.497 113.726C932.724 113.406 932.055 112.876 931.255 112.604C931.129 112.56 930.93 112.424 930.937 112.345C931.007 111.57 930.207 111.312 929.971 110.685C929.763 110.131 929.865 109.81 930.22 109.501C931.597 108.305 932.904 107.037 934.174 105.73C934.508 105.386 934.841 105.038 935.141 104.663C935.428 104.305 935.833 104.329 936.187 104.352C936.571 104.377 936.433 104.794 936.533 105.043C937.001 106.209 936.543 107.306 936.336 108.423C936.068 109.864 935.766 111.299 935.545 112.748C935.361 113.953 934.718 114.474 933.497 113.726Z" fill="#DDE1E7"/>
<path fill-rule="evenodd" clip-rule="evenodd" d="M934.489 88.8765C934.266 89.4411 933.74 89.6699 933.087 89.4673C932.177 89.185 931.26 88.9191 930.366 88.5934C929.549 88.296 929.42 87.4642 929.249 86.7827C929.132 86.3135 929.539 85.8958 930.004 85.6038C931.56 84.6263 932.931 83.4141 934.255 82.1481C934.486 81.9274 934.713 81.7305 935.082 81.8404C935.481 81.9591 935.43 82.2782 935.505 82.5812C935.728 83.4862 935.481 84.3484 935.334 85.2216C935.126 86.4568 934.901 87.6885 934.489 88.8765Z" fill="#DDE1E7"/>
<path fill-rule="evenodd" clip-rule="evenodd" d="M927.175 100.472C926.864 101.172 926.81 101.806 926.012 101.831C925.823 101.836 925.64 101.877 925.489 101.776C924.811 101.322 924.075 101.045 923.255 101.08C922.615 101.108 922.41 100.773 922.19 100.217C921.768 99.1482 921.882 98.8437 922.757 98.1407C924.157 97.0173 925.64 95.9779 926.814 94.5923C926.985 94.3911 927.164 94.1894 927.371 94.0287C927.799 93.6963 928.228 93.8769 928.389 94.3903C928.728 95.4726 928.371 96.4871 928.095 97.4996C927.805 98.568 927.443 99.6166 927.175 100.472Z" fill="#DDE1E7"/>
<path fill-rule="evenodd" clip-rule="evenodd" d="M916.224 126.532C915.518 126.118 915.101 125.448 914.797 124.728C914.687 124.468 914.867 124.116 915.128 123.899C916.003 123.171 916.642 122.216 917.541 121.487C917.966 121.143 918.336 120.566 918.74 120.105C919.024 119.78 919.397 119.448 919.865 119.614C920.331 119.779 920.386 120.298 920.434 120.704C920.556 121.743 920.299 122.761 920.085 123.765C919.849 124.863 919.531 125.945 919.228 127.028C919.107 127.461 918.72 127.597 918.597 127.983C918.531 128.189 918.269 128.107 918.062 127.936C917.468 127.445 916.839 126.997 916.224 126.532Z" fill="#DDE1E7"/>
<path fill-rule="evenodd" clip-rule="evenodd" d="M920.434 89.3455C920.145 90.0026 919.667 90.1572 919.005 89.7083C918.464 89.3408 917.852 89.1409 917.276 88.8904C916.564 88.5813 916.236 88.0623 915.941 87.4282C915.669 86.8435 915.847 86.3839 916.305 86.0364C917.766 84.9288 919.107 83.6979 920.334 82.3356C920.812 81.8051 921.249 81.9538 921.469 82.6391C921.62 83.1083 921.673 83.5831 921.622 84.0614C921.43 85.8837 920.992 87.6526 920.434 89.3455Z" fill="#DDE1E7"/>
<path fill-rule="evenodd" clip-rule="evenodd" d="M906.106 90.0388C905.61 89.79 905.167 89.6132 904.76 89.3435C903.791 88.7016 903.597 88.2426 904.226 87.2863C905.029 86.0639 905.776 84.7938 906.762 83.6986C906.97 83.4677 907.189 83.227 907.451 83.0697C907.911 82.7935 908.319 82.8304 908.55 83.4104C908.747 83.9062 908.9 84.408 908.915 84.9457C908.96 86.4623 908.85 87.9685 908.683 89.4754C908.594 90.2764 907.814 90.7039 907.115 90.4239C906.758 90.2806 906.396 90.1493 906.106 90.0388Z" fill="#DDE1E7"/>
<path fill-rule="evenodd" clip-rule="evenodd" d="M907.667 115.848C907.169 115.742 906.679 115.688 906.241 115.381C905.596 114.928 905.271 113.521 905.787 112.962C906.931 111.722 907.901 110.342 909.005 109.07C909.256 108.781 909.495 108.437 909.963 108.58C910.434 108.724 910.46 109.151 910.477 109.526C910.561 111.409 910.338 113.276 910.117 115.139C910.052 115.69 909.711 115.997 909.094 116.057C908.577 116.107 908.164 115.729 907.667 115.848Z" fill="#DDE1E7"/>
<path fill-rule="evenodd" clip-rule="evenodd" d="M913.589 77.2239C913.095 78.533 912.27 78.8581 910.877 78.5381C910.147 78.3704 909.797 77.8684 909.376 77.4191C908.886 76.8951 908.863 76.3375 909.36 75.6939C909.999 74.8662 910.779 74.1926 911.505 73.4609C912.099 72.8625 912.684 72.2603 913.247 71.6323C913.694 71.1333 913.923 71.2596 914.286 71.7403C914.915 72.5716 914.741 73.4158 914.512 74.2676C914.245 75.2638 913.9 76.2394 913.589 77.2239Z" fill="#DDE1E7"/>
<path fill-rule="evenodd" clip-rule="evenodd" d="M894.772 102.917C894.979 102.437 895.33 102.066 895.739 101.768C896.775 101.013 897.676 100.11 898.593 99.224C899.336 98.5042 899.383 98.6073 899.911 99.4029C900.461 100.231 900.332 101.041 900.26 101.881C900.183 102.792 900.058 103.702 899.892 104.602C899.741 105.421 899.524 105.507 898.706 105.436C897.952 105.371 897.19 105.462 896.448 105.189C896.094 105.059 895.986 104.881 896.015 104.538C896.041 104.228 895.829 104.156 895.57 104.15C894.87 104.134 894.491 103.546 894.772 102.917Z" fill="#DDE1E7"/>
<path fill-rule="evenodd" clip-rule="evenodd" d="M893.242 119.123C892.47 118.675 891.783 118.324 891.146 117.897C890.099 117.195 889.989 116.141 890.739 115.106C891.487 114.074 892.22 113.036 893.149 112.154C893.905 111.438 894.385 111.514 894.719 112.476C894.866 112.898 894.939 113.372 894.928 113.819C894.889 115.354 894.883 116.895 894.543 118.406C894.358 119.225 893.908 119.441 893.242 119.123Z" fill="#DDE1E7"/>
<path fill-rule="evenodd" clip-rule="evenodd" d="M896.999 82.0862C896.889 81.8256 897.371 81.4853 896.997 81.178C896.866 81.0705 896.662 81.2771 896.653 81.4456C896.636 81.7584 896.368 82.1113 896.689 82.3791C896.846 82.51 896.91 82.289 896.999 82.0862ZM898.144 83.9987C897.726 84.9996 897.414 85.0678 896.573 84.6757C896.095 84.453 895.539 84.3965 895.018 84.2657C894.205 84.0618 893.355 82.8927 893.438 82.162C893.466 81.9205 893.544 81.7648 893.712 81.6117C894.887 80.5399 896.052 79.4564 897.232 78.3894C897.747 77.9238 898.066 78.0096 898.356 78.6572C899.006 80.1142 898.622 81.5895 898.413 83.0569C898.359 83.434 898.203 83.7968 898.144 83.9987Z" fill="#DDE1E7"/>
<path fill-rule="evenodd" clip-rule="evenodd" d="M885.241 92.7383C886.07 91.2826 887.196 90.0653 888.347 88.8785C888.839 88.3716 889.14 88.4922 889.479 89.1263C889.781 89.6923 889.821 90.2925 889.663 90.8791C889.289 92.2714 888.875 93.6536 888.451 95.032C888.272 95.6135 887.799 95.7418 887.193 95.6101C886.227 95.3999 885.678 94.7369 885.19 93.98C884.922 93.564 885.114 93.149 885.241 92.7383Z" fill="#DDE1E7"/>
<path fill-rule="evenodd" clip-rule="evenodd" d="M911.055 103.468C910.825 103.343 910.596 103.114 910.453 103.159C909.947 103.316 909.6 102.9 909.134 102.868C908.637 102.835 908.452 101.492 908.737 100.988C909.159 100.243 910.052 100.048 910.508 99.3137C910.958 98.5888 911.598 97.9803 912.166 97.3304C912.331 97.1406 912.547 97.0453 912.814 97.1473C913.099 97.2561 913.191 97.4472 913.206 97.7553C913.291 99.4631 912.993 101.146 912.884 102.84C912.824 103.776 911.96 103.732 911.055 103.468Z" fill="#DDE1E7"/>
<path fill-rule="evenodd" clip-rule="evenodd" d="M922.071 112.364C921.893 113.263 920.794 113.309 920.264 112.894C920.018 112.7 919.834 112.508 919.428 112.518C918.929 112.53 918.198 112.491 918.477 111.574C918.499 111.501 918.336 111.386 918.293 111.277C918.027 110.603 918.307 109.93 918.974 109.594C919.124 109.519 919.28 109.432 919.391 109.311C920.147 108.489 921.226 107.995 921.772 106.957C921.913 106.688 922.13 106.476 922.468 106.566C922.808 106.656 922.861 106.952 922.881 107.254C922.891 107.398 922.949 107.545 922.93 107.684C922.717 109.257 922.456 110.822 922.071 112.364Z" fill="#DDE1E7"/>
</svg>