<svg width="60" height="23" viewBox="0 0 60 23" fill="none" xmlns="http://www.w3.org/2000/svg">
<path fill-rule="evenodd" clip-rule="evenodd" d="M11.5 0.00012207C5.14873 0.00012207 0 5.14885 0 11.5001C0 17.8514 5.14872 23.0001 11.5 23.0001H48.133C54.4843 23.0001 59.633 17.8514 59.633 11.5001C59.633 5.14885 54.4843 0.00012207 48.133 0.00012207H11.5ZM17.9712 13.1105V16.0001H16V8.24963H21.2744V9.83411H17.9712V11.6012H20.9683V13.1105H17.9712ZM25.6613 13.2877H24.6408V16.0001H22.6696V8.24963H26.0803C27.8903 8.24963 28.9753 9.20569 28.9753 10.8063C28.9753 11.757 28.5026 12.6271 27.654 12.9977L29.2009 16.0001H26.988L25.6613 13.2877ZM25.801 9.73743H24.6408V11.8966H25.8063C26.5314 11.8966 26.9611 11.4938 26.9611 10.8224C26.9611 10.1617 26.5046 9.73743 25.801 9.73743ZM35.8006 14.4156H32.4598V12.8312H35.6019V11.381H32.4598V9.83411H35.8006V8.24963H30.4886V16.0001H35.8006V14.4156ZM39.398 14.4156H42.7388V16.0001H37.4268V8.24963H42.7388V9.83411H39.398V11.381H42.5401V12.8312H39.398V14.4156Z" fill="#2BC569"/>
</svg>
