<svg width="324" height="325" viewBox="0 0 324 325" fill="none" xmlns="http://www.w3.org/2000/svg">
<path opacity="0.3" fill-rule="evenodd" clip-rule="evenodd" d="M9.80023 153.336C-2.87232 169.729 -3.38343 190.109 9.0171 204.099C11.9763 207.487 15.6694 210.33 19.929 212.497C36.0443 220.604 48.7402 212.511 59.7159 220.795C75.3551 232.597 58.8939 256.058 68.2741 286.234C72.305 299.202 77.3296 319.217 94.8 323.328C112.933 327.596 134.241 312.576 138.955 309.253C170.974 286.684 165.653 258.647 189.781 247.395C206.624 239.541 227.961 244.887 239.3 250.23C246.341 253.548 250.402 258.478 255.564 263.461C260.945 268.654 269.017 271.03 277.509 270.888C295.822 270.581 320.861 260.433 323.249 242.295C323.871 237.577 322.952 232.95 321.427 228.607C316.081 213.367 303.528 199.782 291.009 188.79C273.198 173.15 251.325 164.319 228.493 154.745C216.329 149.644 205.306 143.244 197.369 133.804C182.681 116.332 201.035 106.156 191.753 36.0576C190.238 24.6127 189.833 7.5697 176.865 1.77776C171.36 -0.680946 164.255 -0.214005 157.915 1.81682C145.773 5.70598 132.263 14.3678 127.373 25.1089C117.908 45.8997 144.311 67.2156 128.025 86.9604C116.874 100.48 97.808 95.6827 70.0113 106.263C53.3326 112.612 31.5012 125.262 9.80023 153.336Z" fill="#DDE1E7"/>
</svg>
