<svg width="579" height="382" viewBox="0 0 579 382" fill="none" xmlns="http://www.w3.org/2000/svg">
<path opacity="0.3" fill-rule="evenodd" clip-rule="evenodd" d="M48.5693 337.359H553.053C563.07 315.696 575.308 281.97 577.264 239.49C578.674 208.876 579.899 182.249 563.139 168.863C541.475 151.56 512.295 186.989 473.341 183.997C398.236 178.228 385.421 37.1099 306.863 28.6173C232.201 20.5451 156.222 121.144 139.376 180.97C137.503 187.621 134.283 202.103 121.887 210.567C98.4905 226.541 72.5011 200.526 41.5065 212.248C18.9266 220.788 -1.90857 247.691 0.139424 277.83C1.94381 304.379 21.1341 328.013 48.5693 337.359Z" fill="#DDE1E7"/>
<path fill-rule="evenodd" clip-rule="evenodd" d="M172.149 336.204C174.352 335.387 169.246 292.734 138.235 254.258C128.328 241.966 109.323 218.386 87.1203 220.679C81.1624 221.295 71.5881 224.123 69.4628 230.623C67.0035 238.144 75.2717 248.281 83.4124 253.248C93.7858 259.576 99.9048 255.038 105.911 261.141C112.748 268.087 106.209 275.38 113.458 286.928C119.343 296.303 129.471 300.767 133.288 302.45C139.612 305.237 141.787 304.646 146.451 306.33C165.022 313.033 170.471 336.826 172.149 336.204Z" fill="url(#paint0_linear)"/>
<path fill-rule="evenodd" clip-rule="evenodd" d="M172.453 336.874C174.15 334.131 138.582 298.717 87.2705 289.902C55.6675 284.473 40.4661 292.977 35.0766 296.545C32.9242 297.97 20.5675 306.152 22.1374 313.25C23.753 320.556 39.9451 325.926 51.4968 321.295C62.0167 317.08 61.9717 307.259 69.8834 306.294C78.9574 305.186 81.7007 317.774 96.0949 323.641C108.161 328.558 113.463 322.659 131.261 323.634C156.836 325.035 171.381 338.608 172.453 336.874Z" fill="url(#paint1_linear)"/>
<path fill-rule="evenodd" clip-rule="evenodd" d="M172.952 337.02C176.976 337.418 197.242 277.871 178.896 215.256C167.597 176.691 149.65 164.264 142.665 160.164C139.875 158.526 123.856 149.125 116.732 154.803C109.4 160.646 112.275 181.831 123.851 192.283C134.393 201.802 145.421 196.342 150.867 204.715C157.113 214.319 144.455 224.342 145.782 243.776C146.893 260.068 156.455 262.786 165.163 283.358C177.674 312.916 170.409 336.768 172.952 337.02Z" fill="url(#paint2_linear)"/>
<path fill-rule="evenodd" clip-rule="evenodd" d="M467.883 234.474C461.359 256.44 469.397 265.925 463.987 281.042C458.443 296.535 438.655 292.903 431.585 310.443C430.101 314.124 429.733 316.954 426.808 320.764C421.546 327.624 413.479 330.527 406.727 331.843C405.981 331.988 405.208 331.862 404.548 331.487C404.485 331.454 404.423 331.416 404.365 331.376C403.737 330.969 403.272 330.356 403.051 329.642C401.65 325.117 400.8 319.359 402.823 313.645C405.601 305.802 411.506 304.488 417.437 297.853C420.538 294.382 423.269 289.884 428.375 257.885C432.875 229.68 431.386 229.241 434.558 222.061C440.939 207.626 446.594 210.245 456.375 193.418C466.343 176.264 463.054 169.085 474.123 156.319C477.881 151.986 487.111 141.338 495.21 143.668C495.273 143.687 495.338 143.706 495.402 143.728C495.477 143.749 495.551 143.775 495.626 143.801C502.381 146.132 506.124 156.98 505.899 165.789C505.556 179.245 496.079 183.295 481.128 208.033C474.058 219.73 470.525 225.582 467.883 234.474Z" fill="url(#paint3_linear)"/>
<path fill-rule="evenodd" clip-rule="evenodd" d="M495.626 143.802C494.926 150.189 493.67 156.502 491.871 162.671C489.079 172.203 484.94 181.375 479.347 189.603L478.295 191.141C477.925 191.641 477.544 192.13 477.168 192.625L476.037 194.109L474.842 195.54C474.437 196.011 474.05 196.499 473.635 196.96L472.385 198.342C471.562 199.276 470.683 200.155 469.829 201.059C466.373 204.623 462.8 208.094 459.852 212.093C456.89 216.078 454.696 220.583 453.017 225.245C451.359 229.919 450.253 234.801 449.963 239.756C449.81 242.23 449.825 244.713 450.006 247.186C450.179 249.661 450.496 252.126 450.85 254.582C451.204 257.038 451.596 259.495 451.843 261.968C452.125 264.443 452.178 266.939 452.001 269.424C451.796 271.909 451.25 274.354 450.377 276.691C449.495 279.021 448.353 281.245 446.972 283.319C446.285 284.357 445.544 285.358 444.751 286.318C443.951 287.272 443.096 288.179 442.192 289.035C441.285 289.887 440.338 290.692 439.349 291.451C438.36 292.204 437.343 292.921 436.313 293.615C434.248 294.999 432.132 296.303 430.086 297.704C428.028 299.092 426.056 300.605 424.184 302.235C420.447 305.504 417.232 309.333 414.426 313.422C410.532 319.095 407.222 325.148 404.548 331.487C403.36 334.303 402.301 337.167 401.369 340.08L401.279 340.052C402.177 337.116 403.206 334.224 404.366 331.376C406.961 324.99 410.197 318.883 414.023 313.148C416.809 309.009 420.031 305.115 423.788 301.78C425.665 300.119 427.644 298.576 429.711 297.159C431.766 295.73 433.875 294.407 435.913 293.02C436.931 292.322 437.928 291.61 438.896 290.86C439.858 290.107 440.78 289.311 441.662 288.473C442.538 287.632 443.367 286.744 444.146 285.813C444.918 284.874 445.64 283.895 446.307 282.879C447.647 280.852 448.755 278.681 449.61 276.407C450.449 274.137 450.972 271.764 451.166 269.352C451.329 266.92 451.27 264.478 450.989 262.056C450.735 259.616 450.339 257.171 449.979 254.708C449.619 252.245 449.29 249.757 449.107 247.251C448.915 244.738 448.894 242.214 449.043 239.698C449.352 234.653 450.498 229.685 452.189 224.953C453.902 220.232 456.15 215.647 459.178 211.597C462.188 207.536 465.81 204.042 469.258 200.502C472.705 196.963 475.957 193.251 478.76 189.2L479.816 187.684C480.154 187.168 480.468 186.639 480.794 186.116L481.77 184.545C481.929 184.28 482.102 184.023 482.25 183.754L482.696 182.944L484.478 179.699L486.114 176.373C488.212 171.894 489.981 167.268 491.407 162.533C493.288 156.394 494.625 150.102 495.404 143.728C495.477 143.749 495.552 143.775 495.626 143.802Z" fill="white"/>
<path fill-rule="evenodd" clip-rule="evenodd" d="M412.984 309.701C412.008 322.703 418.381 331.391 413.656 335.598C412.533 336.604 411.056 337.101 409.472 337.256C409.358 337.266 409.247 337.276 409.137 337.283C406.622 337.454 403.887 336.798 401.886 335.934C387.367 329.669 386.846 301.882 386.752 296.921C386.399 278.067 392.486 276.271 392.805 257.235C393.108 239.242 387.733 237.08 386.079 218.222C384.054 195.198 389.341 167.364 397.624 163.755C397.728 163.707 397.829 163.668 397.934 163.63C398.233 163.523 398.543 163.447 398.858 163.402C406.527 162.349 418.187 181.586 420.719 200.061C423.272 218.676 414.642 222.584 417.356 242.773C419.714 260.305 427.076 263.699 426.773 277.75C426.45 292.843 414.174 293.834 412.984 309.701Z" fill="url(#paint4_linear)"/>
<path fill-rule="evenodd" clip-rule="evenodd" d="M415.708 341.031L415.64 341.105C413.244 338.837 411.066 336.348 409.136 333.672C408.591 332.922 408.066 332.152 407.562 331.373C405.232 327.823 403.319 324.017 401.861 320.029C400.413 316.022 399.452 311.857 398.999 307.621C398.727 305.477 398.739 303.307 399.036 301.167C399.356 299.029 399.931 296.937 400.748 294.935C402.338 290.943 404.471 287.311 405.89 283.426C407.336 279.557 408.087 275.462 408.11 271.332C408.135 269.274 407.998 267.217 407.699 265.181C407.358 263.155 406.817 261.168 406.085 259.248C405.369 257.301 404.565 255.333 403.879 253.308C403.196 251.279 402.625 249.214 402.17 247.123C401.968 246.073 401.743 245.028 401.595 243.971L401.35 242.391L401.165 240.803L400.983 239.216C400.916 238.689 400.902 238.153 400.859 237.622L400.754 236.024C400.714 235.49 400.728 234.955 400.711 234.419C400.626 230.148 400.986 225.88 401.787 221.683C402.55 217.499 403.593 213.416 404.33 209.306C405.094 205.204 405.532 201.048 405.638 196.876C405.72 192.699 405.454 188.522 404.844 184.388C404.222 180.246 403.295 176.155 402.069 172.15C400.851 168.133 399.397 164.191 397.714 160.345L397.623 160.143C397.727 160.095 397.828 160.056 397.933 160.019L398.02 160.207C399.769 164.042 401.29 167.977 402.574 171.992C403.853 176.011 404.829 180.12 405.496 184.284C406.153 188.452 406.461 192.667 406.418 196.886C406.363 201.104 405.951 205.31 405.187 209.458C404.457 213.611 403.431 217.701 402.688 221.844C401.913 225.983 401.573 230.19 401.672 234.399C401.689 234.924 401.679 235.449 401.72 235.973L401.831 237.547C401.875 238.072 401.892 238.597 401.959 239.121L402.144 240.685L402.332 242.252L402.581 243.809C402.729 244.852 402.955 245.878 403.156 246.91C403.599 248.965 404.152 250.995 404.814 252.991C405.48 254.985 406.274 256.939 406.994 258.92C407.739 260.898 408.287 262.945 408.628 265.031C408.931 267.121 409.065 269.232 409.029 271.344C408.991 275.577 408.206 279.771 406.708 283.731C405.975 285.708 405.073 287.618 404.149 289.512C403.224 291.405 402.269 293.282 401.475 295.229C400.663 297.168 400.085 299.197 399.753 301.273C399.444 303.354 399.413 305.466 399.659 307.555C400.067 311.747 400.976 315.875 402.366 319.851C403.749 323.83 405.587 327.635 407.844 331.192C408.362 332.026 408.905 332.843 409.473 333.644C410.12 334.562 410.795 335.456 411.494 336.338C412.804 337.984 414.211 339.551 415.708 341.031Z" fill="white"/>
<path fill-rule="evenodd" clip-rule="evenodd" d="M401.17 334.379C398.183 329.785 405.555 317.808 414.959 311.51C423.896 305.524 429.163 308.354 439.511 303.438C450.921 298.016 456.874 288.702 462.717 279.559C476.26 258.367 470.084 249.926 480.878 240.209C491.565 230.589 511.147 226.684 522.918 235.837C528.995 240.562 534.491 249.935 531.999 259.38C529.667 268.215 517.103 264.216 503.748 276.195C500.958 278.698 494.25 284.854 490.968 294.692C487.16 306.102 491.893 310.674 488.277 316.889C483.622 324.891 472.306 323.279 450.273 326.306C417.716 330.78 404.503 339.509 401.17 334.379Z" fill="url(#paint5_linear)"/>
<path fill-rule="evenodd" clip-rule="evenodd" d="M409.202 336.702C413.496 331.066 418.727 326.211 424.667 322.349C430.669 318.576 437.462 315.958 444.535 314.969C446.298 314.713 448.071 314.545 449.838 314.428C451.605 314.311 453.366 314.257 455.106 314.15C456.827 314.069 458.541 313.871 460.235 313.558C461.066 313.399 461.885 313.185 462.687 312.917C464.283 312.39 465.791 311.63 467.164 310.661C467.496 310.408 467.85 310.182 468.157 309.9L468.632 309.495C468.791 309.362 468.929 309.206 469.079 309.064C470.266 307.898 471.234 306.529 471.939 305.021C473.387 301.996 473.909 298.543 474.319 295.092C474.74 291.629 475.032 288.098 475.62 284.585C476.172 281.045 477.109 277.577 478.413 274.24C479.758 270.914 481.507 267.765 483.62 264.866C484.147 264.143 484.715 263.453 485.261 262.744L485.675 262.217L486.12 261.717L487.015 260.721C487.316 260.391 487.609 260.055 487.917 259.732L488.874 258.798L489.83 257.864L490.309 257.397L490.814 256.961L492.834 255.217C493.514 254.645 494.238 254.128 494.937 253.582L495.995 252.772C496.346 252.501 496.724 252.268 497.087 252.014L499.288 250.52C499.648 250.262 500.037 250.048 500.413 249.815L501.55 249.129L502.687 248.443C503.066 248.215 503.442 247.981 503.837 247.78L506.175 246.527L507.344 245.901C507.732 245.69 508.139 245.515 508.537 245.326C511.721 243.793 514.973 242.417 518.27 241.169L520.753 240.264C521.583 239.967 522.402 239.642 523.246 239.39L528.284 237.81L528.315 237.905C521.629 240.08 515.055 242.631 508.777 245.801C508.385 245.999 507.983 246.178 507.599 246.391L506.445 247.027L504.136 248.299C503.746 248.503 503.376 248.74 503.003 248.971L501.882 249.666L500.762 250.361C500.391 250.596 500.007 250.812 499.653 251.072L497.49 252.578C497.133 252.834 496.761 253.069 496.417 253.342L495.38 254.155C494.694 254.703 493.984 255.223 493.32 255.796L491.345 257.54C488.757 259.917 486.408 262.542 484.332 265.377C482.274 268.226 480.573 271.317 479.268 274.581C478.004 277.86 477.1 281.266 476.573 284.741C476.007 288.209 475.732 291.717 475.323 295.213C475.113 296.96 474.863 298.706 474.484 300.43C474.124 302.161 473.561 303.843 472.809 305.443C472.05 307.046 471.011 308.501 469.741 309.739C469.58 309.89 469.431 310.055 469.262 310.196L468.755 310.624C468.426 310.922 468.052 311.16 467.699 311.426C466.249 312.44 464.656 313.234 462.973 313.782C462.134 314.058 461.278 314.278 460.41 314.44C458.675 314.754 456.921 314.949 455.16 315.025C451.646 315.211 448.125 315.272 444.642 315.751C437.668 316.642 430.941 319.147 424.95 322.807C421.959 324.654 419.141 326.768 416.531 329.124C413.927 331.487 411.504 334.042 409.284 336.769L409.202 336.702Z" fill="white"/>
<path fill-rule="evenodd" clip-rule="evenodd" d="M314.263 326.689V276.914H264.486V326.689L239.264 336.778H339.487L314.263 326.689Z" fill="#3D476C"/>
<path fill-rule="evenodd" clip-rule="evenodd" d="M167.875 93.6191H417.264C420.373 93.6191 422.893 96.1393 422.893 99.2481V281.038C422.893 284.147 420.373 286.667 417.264 286.667H167.875C164.766 286.667 162.246 284.147 162.246 281.038V99.2481C162.246 96.1393 164.766 93.6191 167.875 93.6191Z" fill="#3D476C"/>
<path fill-rule="evenodd" clip-rule="evenodd" d="M172.189 98.9263H412.988C416.276 98.9263 418.941 101.655 418.941 105.022V273.916C418.941 277.283 416.276 280.012 412.988 280.012H172.189C168.901 280.012 166.235 277.283 166.235 273.916V105.022C166.235 101.655 168.901 98.9263 172.189 98.9263Z" fill="#E2F0FF"/>
<path fill-rule="evenodd" clip-rule="evenodd" d="M395.974 97.2272C395.974 97.2272 396.878 77.7207 383.325 77.7207L274.861 77.9673C274.861 77.9673 286.042 85.4561 283.934 97.2272H395.974Z" fill="#3D476C"/>
<path fill-rule="evenodd" clip-rule="evenodd" d="M260.813 78.0365C274.602 78.0365 359.69 77.3668 372.806 77.7026L373.301 77.7157C377.383 77.8252 380.205 77.7026 379.869 78.3724C377.162 83.7626 372.42 100.324 372.134 116.549C371.584 147.746 372.831 193.924 373.305 209.768C373.349 211.23 372.796 212.648 371.772 213.698C370.748 214.748 369.341 215.34 367.872 215.339H257.736C254.774 215.34 252.356 212.978 252.301 210.028C251.918 189.356 250.669 114.77 252.404 101.814C254.423 86.7435 256.441 78.0365 260.813 78.0365Z" fill="url(#paint6_linear)"/>
<path fill-rule="evenodd" clip-rule="evenodd" d="M238.254 195.768C238.254 195.768 237.283 215.275 251.853 215.275H368.41C368.41 215.275 356.431 207.54 358.697 195.769L238.254 195.768Z" fill="url(#paint7_linear)"/>
<rect x="314.025" y="93.3589" width="39.586" height="1.43719" rx="0.718594" fill="white"/>
<rect x="314.025" y="106.307" width="39.586" height="1.43719" rx="0.718594" fill="white"/>
<rect x="314.025" y="119.255" width="39.586" height="1.43719" rx="0.718594" fill="white"/>
<rect x="314.025" y="132.204" width="39.586" height="1.43719" rx="0.718594" fill="white"/>
<rect x="314.025" y="145.152" width="39.586" height="1.43719" rx="0.718594" fill="white"/>
<rect x="268.858" y="158.1" width="84.7527" height="1.43719" rx="0.718594" fill="white"/>
<rect x="268.858" y="171.049" width="84.7527" height="1.43719" rx="0.718594" fill="white"/>
<rect x="268.858" y="183.997" width="84.7527" height="1.43719" rx="0.718594" fill="white"/>
<rect x="270" y="93" width="36" height="54" rx="3" fill="white"/>
<path fill-rule="evenodd" clip-rule="evenodd" d="M397.619 122.349C397.619 122.349 390.556 115.287 396.946 114.95C403.337 114.613 414.435 113.268 413.426 119.658C412.417 126.048 412.081 128.627 409.727 128.851C407.372 129.075 397.619 122.349 397.619 122.349Z" fill="#3D476C"/>
<path fill-rule="evenodd" clip-rule="evenodd" d="M398.049 118.412C398.049 118.412 392.311 133.041 401.378 132.757C406.998 132.581 409.277 128.486 409.277 128.486C409.277 128.486 411.193 129.222 411.674 125.259C411.96 122.905 409.083 121.454 408.722 125.149C408.722 125.149 406.556 125.672 406.336 122.493C406.116 119.313 404.462 119.351 402.646 119.791C400.829 120.232 398.265 119.388 398.049 118.412Z" fill="#FFD5C0"/>
<path fill-rule="evenodd" clip-rule="evenodd" d="M409.957 128.046C409.957 128.046 410.64 134.451 412.417 137.483C412.417 137.483 414.519 139.671 416.306 140.31C418.48 141.088 407.539 158.285 404.376 152.587C401.212 146.889 401.991 144.209 401.991 144.209C401.991 144.209 404.691 140.562 404.587 140.005C404.483 139.448 402.322 131.953 402.322 131.953C402.322 131.953 402.685 124.818 409.957 128.046Z" fill="#FFD5C0"/>
<path fill-rule="evenodd" clip-rule="evenodd" d="M461.856 321.114L448.995 326.344C448.991 326.339 448.988 326.333 448.985 326.327C448.225 324.818 422.036 272.768 419.974 268.066C409.697 244.605 410.665 205.42 410.665 205.42H436.969C443.752 222.828 435.96 259.567 435.96 259.567C448.74 265.621 461.856 321.114 461.856 321.114Z" fill="#3D476C"/>
<path fill-rule="evenodd" clip-rule="evenodd" d="M418.807 329.522C418.836 329.739 413.827 329.401 413.856 329.611C414.203 332.227 414.74 334.814 415.463 337.352H391.274L404.416 329.773C404.416 329.727 404.416 329.674 404.413 329.611C404.365 324.807 402.377 273.146 400.466 264.787C398.531 256.321 403.368 205.284 403.368 205.284L432.259 205.083C435.201 221.894 417.798 261.585 417.798 261.585C426.878 277.729 418.161 324.523 418.807 329.522Z" fill="#4E587F"/>
<path fill-rule="evenodd" clip-rule="evenodd" d="M391.274 337.352L404.416 329.773C404.416 329.728 404.416 329.674 404.413 329.611H413.856C414.203 332.227 414.74 334.814 415.463 337.352H391.274Z" fill="#3D476C"/>
<path fill-rule="evenodd" clip-rule="evenodd" d="M399.799 147.685L412.467 137.483C412.467 137.483 425.247 135.241 428.947 158.896C432.647 182.55 437.019 205.42 437.019 205.42H403.387C403.387 205.42 406.414 187.259 403.387 180.868C400.36 174.477 393.185 149.815 399.799 147.685Z" fill="#3D476C"/>
<path fill-rule="evenodd" clip-rule="evenodd" d="M381.767 152.347L361.346 138.492L361.338 138.495C359.16 136.753 356.492 134.553 355.915 133.784C354.906 132.439 352.215 127.394 351.207 128.739C350.198 130.084 347.171 135.465 348.852 137.147C350.534 138.828 353.561 139.164 353.561 139.164L356.239 141.984L374.024 162.419C376.388 164.553 380.576 157.89 382.339 154.788C382.814 153.95 382.565 152.888 381.767 152.347Z" fill="#FFD5C0"/>
<path fill-rule="evenodd" clip-rule="evenodd" d="M418.184 145.555C418.52 149.255 416.621 157.549 410.112 160.017C400.723 163.578 394.87 166.585 387.967 168.49C384.008 169.582 377.073 165.172 374.024 162.42L383.157 153.29C383.157 153.29 403.012 143.395 406.701 142.2C410.389 141.005 417.664 139.832 418.184 145.555Z" fill="#4E587F"/>
<path fill-rule="evenodd" clip-rule="evenodd" d="M440.295 337.729L449.002 326.361C448.999 326.356 448.996 326.35 448.995 326.344L457.733 322.772L457.817 322.914L463.03 331.681L440.295 337.729Z" fill="#3D476C"/>
<path fill-rule="evenodd" clip-rule="evenodd" d="M379.508 150.6C379.508 150.6 381.189 150.6 381.525 151.945C381.525 151.945 382.871 151.609 383.207 153.29L374.463 163.043C374.463 163.043 371.772 162.708 372.445 161.362C372.445 161.362 370.091 160.689 370.763 159.344L379.508 150.6Z" fill="#3D476C"/>
<path fill-rule="evenodd" clip-rule="evenodd" d="M263.4 129.737L263.389 129.752L255.743 121.773L250.698 126.818L259.036 136.05C259.475 136.93 260.921 139.531 263.44 141.208L269.003 145.301L271.187 142.334L265.773 138.28C265.773 138.28 275.18 136.841 278.557 132.251L280.74 129.284C280.74 129.284 273.318 134.256 263.4 129.737Z" fill="#FFACDC"/>
<path fill-rule="evenodd" clip-rule="evenodd" d="M203.49 146.608L205.295 140.607L197.559 139.935L195.886 146.629C195.526 147.301 194.113 150.161 194.264 153.379V160.286H197.947L198.005 153.523C198.005 153.523 204.738 160.248 210.437 160.248H214.12C214.12 160.248 204.829 155.244 203.49 146.608Z" fill="#12b7e0"/>
<path fill-rule="evenodd" clip-rule="evenodd" d="M228.163 81.4144C224.974 98.025 207.139 134.249 203.817 146.607L194.25 143.685C194.25 143.685 198.236 129.732 199.432 121.892C200.628 114.052 205.279 95.8469 208.468 89.2025C208.468 89.2025 161.561 106.61 167.94 71.6621C167.939 71.6612 231.352 64.8039 228.163 81.4144Z" fill="#FFACDC"/>
<path fill-rule="evenodd" clip-rule="evenodd" d="M166.954 73.3424C166.954 73.3424 163.954 93.1881 172.459 94.118C180.963 95.0478 204.351 92.3907 207.672 95.7128C210.994 99.0348 223.486 112.19 235.445 119.631C247.405 127.073 253.916 133.319 253.916 133.319L262.022 127.073C262.022 127.073 236.243 95.4471 231.06 89.6006C225.878 83.7542 221.057 74.2107 212.021 73.6792C202.985 73.1477 168.636 73.3424 166.954 73.3424Z" fill="#12b7e0"/>
<path fill-rule="evenodd" clip-rule="evenodd" d="M183.771 0.035294C188.084 -0.380053 191.568 2.9983 192.035 3.46371C195.745 7.16351 195.367 12.5616 194.737 16.2932C193.897 21.2731 198.297 22.1888 200.234 26.236C202.064 30.0603 199.907 36.0124 195.892 38.5146C190.371 41.9554 182.732 38.0068 178.89 34.4057C170.652 26.6844 173.366 14.4663 173.761 12.8133C174.175 11.081 176.652 0.720833 183.771 0.035294Z" fill="#3D476C"/>
<path fill-rule="evenodd" clip-rule="evenodd" d="M190.596 5.94141C190.596 5.94141 195.985 21.0903 188.218 20.0306C183.666 19.4093 181.415 15.2216 181.415 15.2216C181.415 15.2216 179.285 15.6271 178.782 13.022C178.446 11.2873 180.755 9.69247 181.566 12.8287C181.566 12.8287 182.484 12.8392 183.274 10.7759C183.768 9.48479 183.941 7.8179 185.753 8.21719C187.564 8.61649 190.402 6.91534 190.596 5.94141Z" fill="#FFD5C0"/>
<path fill-rule="evenodd" clip-rule="evenodd" d="M189.523 19.3279C189.523 19.3279 185.355 25.3061 186.162 28.7611C186.968 32.2161 173.246 33.6044 176.217 27.2521C179.188 20.8997 181.391 19.4551 184.018 13.4551C186.645 7.45504 189.523 19.3279 189.523 19.3279Z" fill="#FFD5C0"/>
<path fill-rule="evenodd" clip-rule="evenodd" d="M192.178 24.9131C189.581 25.5546 188.112 27.5 188.705 30.109C191.152 40.9042 197.313 66.5465 200.597 66.5561C204.757 66.5678 220.094 67.2895 220.094 67.2895L222.448 59.8904L203.95 60.563L197.895 32.6485C197.488 30.3279 197.345 27.7767 195.478 26.3388C193.626 24.9131 192.178 24.9131 192.178 24.9131Z" fill="#FFD5C0"/>
<path fill-rule="evenodd" clip-rule="evenodd" d="M192.072 24.9307C194.712 24.5027 197.209 26.2662 197.688 28.8973C199.667 39.7878 210.362 54.222 207.344 55.5179C203.521 57.1591 191.873 55.1825 191.873 55.1825L188.017 30.6124C187.794 29.3203 188.097 27.9929 188.859 26.9257C189.621 25.8584 190.777 25.1401 192.072 24.9307Z" fill="#12b7e0"/>
<path fill-rule="evenodd" clip-rule="evenodd" d="M198.231 44.4195C191.169 58.8812 199.913 73.3429 199.913 73.3429H166.954C166.954 73.3429 176.035 58.8812 171.999 52.1547C167.963 45.4281 162.918 32.3119 164.263 28.6123C165.252 25.8881 171.713 24.9868 175.049 24.701C176.247 24.6002 177.044 24.5764 177.044 24.5764L188.549 24.3369L190.833 24.5764C192.851 24.9118 193.651 25.1583 194.404 26.6113C197.239 32.0733 201.237 38.2666 198.231 44.4195Z" fill="#FFACDC"/>
<path fill-rule="evenodd" clip-rule="evenodd" d="M227.828 58.8812C227.828 58.8812 232.537 56.1905 232.873 55.1816C233.209 54.1727 234.891 55.517 233.208 57.1994C231.526 58.8819 230.181 59.5538 230.181 59.5538L227.828 58.8812Z" fill="#FFD5C0"/>
<path fill-rule="evenodd" clip-rule="evenodd" d="M179.481 76.8737H216.766L232.368 65.7676L195.612 66.2965L179.481 76.8737Z" fill="#AFAFAF"/>
<path fill-rule="evenodd" clip-rule="evenodd" d="M232.367 65.7682L216.766 76.8746V42.366L231.739 28.7808L232.367 65.7682Z" fill="#DDDDDD"/>
<path fill-rule="evenodd" clip-rule="evenodd" d="M181.752 65.6085C181.752 65.6085 188.142 67.29 189.151 66.9537C190.16 66.6174 193.523 64.5996 195.877 65.6085C197.549 66.3249 199.9 67.8898 201.122 68.7363C201.331 68.8811 201.437 69.1335 201.395 69.3843C201.353 69.635 201.17 69.8389 200.925 69.9076C200.264 70.0735 199.576 70.098 198.904 69.9794C196.282 69.6486 193.619 69.996 191.169 70.9884C189.42 71.7376 179.398 69.6431 179.398 69.6431L181.752 65.6085Z" fill="#FFD5C0"/>
<path fill-rule="evenodd" clip-rule="evenodd" d="M168.774 25.9397C166.134 25.5109 163.636 27.2748 163.157 29.9063C161.178 40.7971 157.883 64.9845 160.9 66.2803C164.723 67.9216 182.425 70.3162 182.425 70.3162L184.106 65.944L167.905 60.2104L172.828 31.6204C173.05 30.3286 172.747 29.0014 171.986 27.9345C171.224 26.8675 170.068 26.1492 168.774 25.9397Z" fill="#FFD5C0"/>
<path fill-rule="evenodd" clip-rule="evenodd" d="M168.774 25.9397C166.133 25.5109 163.636 27.2748 163.157 29.9063C161.178 40.7971 150.483 55.2312 153.501 56.5271C157.324 58.1684 168.972 56.1918 168.972 56.1918L172.828 31.6216C173.051 30.3295 172.748 29.0019 171.986 27.9347C171.225 26.8674 170.068 26.1491 168.774 25.9397Z" fill="#12b7e0"/>
<path fill-rule="evenodd" clip-rule="evenodd" d="M229.62 59.1818C229.736 58.5843 230.244 58.1425 230.851 58.1108C232.046 58.056 233.881 58.1935 233.881 59.554C233.881 61.5718 233.546 64.9351 230.854 64.5988C228.845 64.3477 229.274 60.9078 229.62 59.1818Z" fill="#FFD5C0"/>
<path fill-rule="evenodd" clip-rule="evenodd" d="M187.468 36.0114C183.92 35.7154 176.73 26.84 175.048 24.701C176.246 24.6002 177.042 24.5764 177.042 24.5764L188.548 24.3369C191.497 30.1764 191.333 36.3343 187.468 36.0114Z" fill="#FFD5C0"/>
<path fill-rule="evenodd" clip-rule="evenodd" d="M153.769 150.531C153.769 150.531 158.334 146.762 158.361 152.091L152.596 164.417L144.833 165.325L153.769 150.531Z" fill="#FFD5C0"/>
<path fill-rule="evenodd" clip-rule="evenodd" d="M149.465 155.746L134.332 179.625L109.78 195.095L115.329 205.017L140.721 188.369L155.856 160.118L149.465 155.746Z" fill="#3B427B"/>
<mask id="mask0" mask-type="alpha" maskUnits="userSpaceOnUse" x="109" y="155" width="47" height="51">
<path fill-rule="evenodd" clip-rule="evenodd" d="M149.465 155.746L134.332 179.625L109.78 195.095L115.329 205.017L140.721 188.369L155.856 160.118L149.465 155.746Z" fill="white"/>
</mask>
<g mask="url(#mask0)">
<path fill-rule="evenodd" clip-rule="evenodd" d="M124.054 146.418L187.291 192.126L186.01 193.899L122.774 148.191L124.054 146.418ZM177.847 200.399L114.611 154.691L115.892 152.918L179.128 198.626L177.847 200.399ZM173.021 207.077L109.784 161.369L108.504 163.142L171.74 208.85L173.021 207.077ZM103.676 169.819L166.912 215.527L165.631 217.3L102.395 171.591L103.676 169.819ZM160.805 223.976L97.5686 178.268L96.2878 180.041L159.524 225.749L160.805 223.976Z" fill="#808BD1"/>
</g>
<path fill-rule="evenodd" clip-rule="evenodd" d="M185.452 180.634L147.112 169.535V116.589L185.452 127.687V180.634Z" fill="#12b7e0"/>
<path fill-rule="evenodd" clip-rule="evenodd" d="M126.449 163.084C130.178 163.501 132.529 166.986 132.842 167.464C135.327 171.262 134.045 175.77 132.846 178.821C131.245 182.893 134.812 184.453 135.732 188.229C136.602 191.798 133.712 196.458 129.862 197.863C124.569 199.795 118.798 195.086 116.183 191.348C110.577 183.334 115.055 173.461 115.685 172.13C116.345 170.737 120.291 162.396 126.449 163.084Z" fill="#353B6E"/>
<path fill-rule="evenodd" clip-rule="evenodd" d="M129.385 166.707C129.385 166.707 134.775 181.856 127.008 180.796C122.456 180.175 120.204 175.987 120.204 175.987C120.204 175.987 118.074 176.393 117.571 173.788C117.236 172.053 119.544 170.458 120.355 173.594C120.355 173.594 121.274 173.605 122.063 171.541C122.557 170.25 122.73 168.584 124.542 168.983C126.354 169.382 129.191 167.681 129.385 166.707Z" fill="#FFD5C0"/>
<path fill-rule="evenodd" clip-rule="evenodd" d="M128.314 180.094C128.314 180.094 124.146 186.072 124.953 189.527C125.759 192.982 112.037 194.37 115.008 188.018C117.979 181.665 120.182 180.221 122.809 174.221C125.436 168.221 128.314 180.094 128.314 180.094Z" fill="#FFD5C0"/>
<path fill-rule="evenodd" clip-rule="evenodd" d="M179.734 156.755C179.734 156.755 185.115 154.288 183.77 159.445L175.026 169.871L167.291 168.75L179.734 156.755Z" fill="#FFD5C0"/>
<path fill-rule="evenodd" clip-rule="evenodd" d="M66.64 351.585C65.964 353.731 65.1903 358.601 70.094 362.583C76.5918 367.86 74.3215 373.305 74.3215 373.305L52.4204 361.961C52.4204 361.961 55.0471 349.904 59.1771 347.435C59.1771 347.435 59.2176 347.314 59.2914 347.079C60.7611 342.649 75.7508 298.329 90.8549 290.332C90.8549 290.332 87.9187 253.952 104.624 236.127L130.362 240.63C130.362 240.63 111.327 288.636 105.72 297.825C100.114 307.013 68.4628 343.45 67.068 350.475C66.8975 350.834 66.7544 351.205 66.64 351.585Z" fill="#12b7e0"/>
<path fill-rule="evenodd" clip-rule="evenodd" d="M158.546 381.192H133.433C133.433 381.192 129.397 369.535 131.64 365.274C131.64 365.274 131.583 365.042 131.485 364.601C130.113 358.618 120.387 314.439 128.949 300.028C128.949 300.028 117.514 290.164 106.978 237.472L136.123 237.361C136.123 237.361 145.54 287.919 145.54 298.682C145.54 309.445 137.583 357.37 140.048 364.096C140.048 364.096 140.068 364.281 140.129 364.6C140.485 366.517 142.244 373.281 149.354 374.243C157.648 375.363 158.546 381.192 158.546 381.192Z" fill="#12b7e0"/>
<path fill-rule="evenodd" clip-rule="evenodd" d="M178.5 166.061C178.5 166.061 158.432 190.276 157.201 191.059C155.97 191.843 136.46 200.923 136.46 200.923C136.46 200.923 136.457 200.944 136.447 200.984C136.221 202.198 132.707 221.859 137.92 245.096C137.92 245.096 118.188 238.648 98.6814 243.972C98.6814 243.972 108.771 231.643 106.306 223.121C103.84 214.598 88.3665 195.768 115.497 189.267L133.342 186.808L153.501 180.97L174.017 161.017L178.5 166.061Z" fill="#3B427B"/>
<mask id="mask1" mask-type="alpha" maskUnits="userSpaceOnUse" x="98" y="186" width="40" height="60">
<path fill-rule="evenodd" clip-rule="evenodd" d="M136.447 200.984C136.221 202.198 132.707 221.859 137.92 245.096C137.92 245.096 118.188 238.648 98.6814 243.972C98.6814 243.972 108.771 231.643 106.306 223.121C103.84 214.598 88.3662 195.768 115.496 189.267L133.342 186.809C133.342 186.809 136.455 200.944 136.447 200.984Z" fill="white"/>
</mask>
<g mask="url(#mask1)">
<path fill-rule="evenodd" clip-rule="evenodd" d="M130.155 192.237H81.0242V194.423H130.634C130.577 194.284 130.517 194.147 130.463 194.003C130.249 193.439 130.144 192.84 130.155 192.237Z" fill="#808BD1"/>
<rect x="81.0242" y="202.663" width="78.0261" height="2.18596" fill="#808BD1"/>
<rect x="81.0242" y="213.089" width="78.0261" height="2.18596" fill="#808BD1"/>
<rect x="81.0242" y="223.515" width="78.0261" height="2.18596" fill="#808BD1"/>
<rect x="81.0242" y="233.94" width="78.0261" height="2.18596" fill="#808BD1"/>
</g>
<path fill-rule="evenodd" clip-rule="evenodd" d="M126.821 187.697C126.821 187.697 114.265 209.109 112.247 218.975C110.23 228.84 101.373 243.414 101.373 243.414C101.373 243.414 103.166 247.674 105.745 242.965C105.745 242.965 113.942 228.854 115.61 219.423C116.533 214.205 122.042 199.006 130.338 187.235C130.338 187.234 129.175 185.455 126.821 187.697Z" fill="#12b7e0"/>
<path fill-rule="evenodd" clip-rule="evenodd" d="M112.92 189.603C112.92 189.603 116.058 211.015 123.346 226.934C127.965 237.026 131.978 243.862 131.978 243.862C131.978 243.862 130.745 246.44 128.278 243.189C125.811 239.938 121.552 230.521 116.731 217.517C111.911 204.513 110.453 190.162 110.453 190.162C110.453 190.162 110.788 186.239 112.92 189.603Z" fill="#12b7e0"/>
<path fill-rule="evenodd" clip-rule="evenodd" d="M129.299 163.625C127.283 160.473 116.994 161.027 111.571 166.502C107.602 170.51 109.342 172.173 105.071 178.111C100.516 184.444 94.1837 183.771 91.4502 188.705C88.1686 194.629 88.3631 203.536 95.4861 208.884C103.645 215.01 119.842 214.297 121.743 209.399C123.399 205.128 116.236 201.183 117.868 194.17C118.868 189.871 122.181 188.685 122.072 184.827C121.952 180.547 120.75 180.439 121.215 177.858C121.778 174.73 125.078 174.687 128.39 169.177C128.643 168.756 130.526 165.543 129.299 163.625Z" fill="#3D476C"/>
<path fill-rule="evenodd" clip-rule="evenodd" d="M158.546 381.191H133.433C133.433 381.191 129.397 369.534 131.64 365.273L140.129 364.601C140.486 366.517 142.245 373.281 149.354 374.243C157.648 375.363 158.546 381.191 158.546 381.191Z" fill="#3D476C"/>
<path fill-rule="evenodd" clip-rule="evenodd" d="M74.3215 373.305L52.4204 361.961C52.4204 361.961 55.0471 349.904 59.1771 347.436L66.64 351.586C65.964 353.731 65.1903 358.601 70.094 362.583C76.5918 367.86 74.3215 373.305 74.3215 373.305Z" fill="#3D476C"/>
<mask id="mask2" mask-type="alpha" maskUnits="userSpaceOnUse" x="98" y="161" width="81" height="85">
<path fill-rule="evenodd" clip-rule="evenodd" d="M178.5 166.061C178.5 166.061 158.432 190.276 157.201 191.059C155.97 191.843 136.46 200.923 136.46 200.923C136.46 200.923 136.457 200.944 136.447 200.984C136.221 202.198 132.707 221.859 137.92 245.096C137.92 245.096 118.188 238.648 98.6814 243.972C98.6814 243.972 108.771 231.643 106.306 223.121C103.84 214.598 88.3665 195.768 115.497 189.267L133.342 186.808L153.501 180.97L174.017 161.017L178.5 166.061Z" fill="white"/>
</mask>
<g mask="url(#mask2)">
<path fill-rule="evenodd" clip-rule="evenodd" d="M153.918 138.342L197.065 203.353L195.245 204.562L152.098 139.551L153.918 138.342ZM185.318 207.782L142.172 142.77L143.992 141.561L187.139 206.573L185.318 207.782ZM178.453 212.338L135.306 147.327L133.486 148.536L176.632 213.548L178.453 212.338ZM126.619 153.093L169.766 218.103L167.945 219.312L124.799 154.301L126.619 153.093ZM161.078 223.868L117.932 158.858L116.111 160.066L159.258 225.078L161.078 223.868Z" fill="#808BD1"/>
</g>
<rect x="114.726" y="134.11" width="8.02933" height="6.19045" fill="#12b7e0"/>
<path fill-rule="evenodd" clip-rule="evenodd" d="M127.184 123.139C127.184 117.936 122.861 113.786 117.758 114.387C114.066 114.821 111.006 117.836 110.411 121.663C109.945 124.472 110.829 127.338 112.797 129.396C114.013 130.619 114.704 132.267 114.725 133.991V134.111H122.755V134.033C122.762 132.309 123.443 130.656 124.653 129.427C126.286 127.743 127.195 125.485 127.184 123.139Z" fill="#468EF1"/>
<path fill-rule="evenodd" clip-rule="evenodd" d="M115.907 122.315C116.354 122.315 116.567 122.692 116.754 123.025C116.946 123.367 117.081 123.574 117.327 123.574C117.572 123.574 117.705 123.367 117.897 123.025C118.085 122.692 118.297 122.314 118.743 122.314C119.189 122.314 119.402 122.692 119.589 123.025C119.78 123.367 119.915 123.574 120.16 123.574C120.404 123.574 120.538 123.367 120.73 123.025C120.917 122.692 121.13 122.314 121.576 122.314C122.022 122.314 122.233 122.692 122.421 123.025C122.612 123.367 122.747 123.574 122.991 123.574C123.078 123.574 123.148 123.645 123.148 123.732C123.148 123.818 123.078 123.889 122.991 123.889C122.545 123.889 122.333 123.512 122.146 123.179C121.955 122.837 121.82 122.629 121.576 122.629C121.332 122.629 121.197 122.837 121.005 123.18C120.818 123.513 120.606 123.89 120.16 123.89C119.714 123.89 119.502 123.513 119.315 123.18C119.123 122.838 118.988 122.629 118.743 122.629C118.499 122.629 118.365 122.837 118.172 123.18C117.985 123.513 117.773 123.89 117.327 123.89C116.881 123.89 116.668 123.513 116.48 123.18C116.289 122.838 116.153 122.631 115.908 122.631C115.662 122.631 115.528 122.838 115.336 123.18C115.148 123.513 114.936 123.89 114.489 123.89C114.402 123.89 114.332 123.82 114.332 123.733C114.332 123.646 114.402 123.575 114.489 123.575C114.734 123.575 114.869 123.368 115.062 123.024C115.248 122.692 115.46 122.315 115.907 122.315Z" fill="white"/>
<path fill-rule="evenodd" clip-rule="evenodd" d="M119.036 128.728H118.446C117.911 128.728 117.478 129.076 117.478 129.507V134.111H120.004V129.507C120.003 129.076 119.57 128.728 119.036 128.728Z" fill="white"/>
<path fill-rule="evenodd" clip-rule="evenodd" d="M117.957 129.503C117.886 129.503 117.821 129.468 117.783 129.409L114.158 123.846C114.117 123.784 114.113 123.705 114.146 123.638C114.18 123.572 114.246 123.529 114.32 123.525C114.394 123.521 114.465 123.556 114.506 123.619L118.13 129.182C118.173 129.245 118.176 129.327 118.14 129.395C118.103 129.462 118.033 129.504 117.957 129.504V129.503Z" fill="white"/>
<path fill-rule="evenodd" clip-rule="evenodd" d="M119.524 129.503C119.447 129.503 119.377 129.461 119.34 129.394C119.304 129.327 119.308 129.245 119.35 129.181L122.975 123.618C123.016 123.556 123.086 123.52 123.16 123.524C123.234 123.528 123.301 123.572 123.334 123.638C123.368 123.704 123.363 123.783 123.323 123.845L119.697 129.409C119.659 129.468 119.594 129.503 119.524 129.503Z" fill="white"/>
<path fill-rule="evenodd" clip-rule="evenodd" d="M127.664 108.755C127.862 108.407 127.741 107.964 127.395 107.764C127.048 107.564 126.605 107.681 126.402 108.026L124.424 111.454C124.328 111.62 124.302 111.818 124.353 112.003C124.404 112.188 124.526 112.345 124.693 112.439L124.706 112.446C125.049 112.643 125.487 112.525 125.685 112.183L127.664 108.755Z" fill="#468EF1"/>
<path fill-rule="evenodd" clip-rule="evenodd" d="M133.467 115.092C133.812 114.889 133.929 114.446 133.729 114.099C133.529 113.752 133.086 113.632 132.738 113.83L129.311 115.809C128.969 116.007 128.851 116.445 129.048 116.788L129.055 116.801C129.149 116.968 129.306 117.09 129.491 117.141C129.676 117.192 129.874 117.166 130.04 117.07L133.467 115.092Z" fill="#468EF1"/>
<path fill-rule="evenodd" clip-rule="evenodd" d="M135.325 122.025H131.349C130.953 122.025 130.632 122.347 130.632 122.743V122.762C130.632 123.158 130.953 123.479 131.349 123.48H135.325C135.589 123.485 135.834 123.347 135.967 123.12C136.1 122.893 136.1 122.611 135.967 122.384C135.834 122.157 135.589 122.019 135.325 122.024V122.025Z" fill="#468EF1"/>
<path fill-rule="evenodd" clip-rule="evenodd" d="M132.738 131.676C133.086 131.874 133.528 131.753 133.728 131.407C133.928 131.06 133.811 130.617 133.466 130.414L130.039 128.436C129.872 128.34 129.675 128.314 129.49 128.365C129.304 128.416 129.147 128.538 129.053 128.705L129.046 128.718C128.85 129.061 128.968 129.499 129.31 129.697L132.738 131.676Z" fill="#468EF1"/>
<path fill-rule="evenodd" clip-rule="evenodd" d="M104.015 130.414C103.79 130.544 103.651 130.784 103.651 131.045C103.651 131.305 103.79 131.545 104.015 131.675C104.241 131.806 104.518 131.806 104.744 131.676L108.171 129.697C108.513 129.499 108.631 129.061 108.434 128.718L108.427 128.705C108.333 128.538 108.176 128.416 107.991 128.365C107.806 128.314 107.608 128.34 107.442 128.436L104.015 130.414Z" fill="#468EF1"/>
<path fill-rule="evenodd" clip-rule="evenodd" d="M106.851 122.744C106.851 122.348 106.53 122.026 106.133 122.026H102.157C101.76 122.033 101.441 122.357 101.441 122.754C101.441 123.151 101.76 123.475 102.157 123.482H106.133C106.53 123.482 106.851 123.161 106.851 122.764V122.744Z" fill="#468EF1"/>
<path fill-rule="evenodd" clip-rule="evenodd" d="M104.742 113.83C104.394 113.636 103.955 113.757 103.756 114.102C103.557 114.447 103.672 114.888 104.014 115.092L107.441 117.07C107.607 117.166 107.805 117.192 107.99 117.141C108.175 117.09 108.332 116.968 108.426 116.801L108.433 116.788C108.63 116.445 108.512 116.007 108.17 115.809L104.742 113.83Z" fill="#468EF1"/>
<path fill-rule="evenodd" clip-rule="evenodd" d="M111.079 108.026C110.877 107.681 110.434 107.564 110.087 107.764C109.74 107.964 109.62 108.407 109.818 108.755L111.797 112.182C111.995 112.524 112.432 112.642 112.775 112.445L112.788 112.438C112.955 112.344 113.078 112.187 113.129 112.002C113.18 111.817 113.154 111.619 113.058 111.453L111.079 108.026Z" fill="#468EF1"/>
<path fill-rule="evenodd" clip-rule="evenodd" d="M118.749 110.864C119.146 110.864 119.468 110.542 119.468 110.146V106.169C119.473 105.906 119.335 105.661 119.108 105.528C118.88 105.394 118.599 105.394 118.372 105.528C118.144 105.661 118.007 105.906 118.011 106.169V110.146C118.011 110.542 118.333 110.864 118.73 110.864H118.749Z" fill="#468EF1"/>
<rect x="542.409" y="206.955" width="8.02933" height="6.19045" fill="#12b7e0"/>
<path fill-rule="evenodd" clip-rule="evenodd" d="M554.867 195.983C554.867 190.78 550.544 186.63 545.442 187.231C541.75 187.665 538.69 190.68 538.095 194.507C537.628 197.317 538.512 200.182 540.481 202.241C541.696 203.463 542.388 205.111 542.409 206.835V206.955H550.438V206.877C550.445 205.153 551.126 203.5 552.336 202.272C553.97 200.587 554.879 198.329 554.867 195.983Z" fill="#468EF1"/>
<path fill-rule="evenodd" clip-rule="evenodd" d="M543.591 195.159C544.038 195.159 544.25 195.537 544.438 195.87C544.629 196.212 544.765 196.419 545.01 196.419C545.256 196.419 545.388 196.212 545.581 195.87C545.768 195.537 545.98 195.159 546.427 195.159C546.873 195.159 547.086 195.537 547.272 195.87C547.464 196.212 547.599 196.419 547.843 196.419C548.087 196.419 548.222 196.212 548.414 195.87C548.601 195.537 548.813 195.159 549.26 195.159C549.706 195.159 549.917 195.537 550.104 195.869C550.296 196.211 550.43 196.419 550.674 196.419C550.761 196.419 550.832 196.489 550.832 196.576C550.832 196.663 550.761 196.734 550.674 196.734C550.228 196.734 550.017 196.356 549.83 196.024C549.638 195.682 549.504 195.474 549.26 195.474C549.015 195.474 548.881 195.682 548.688 196.025C548.501 196.358 548.289 196.735 547.843 196.735C547.398 196.735 547.185 196.358 546.998 196.025C546.807 195.683 546.672 195.474 546.427 195.474C546.182 195.474 546.048 195.682 545.856 196.025C545.669 196.358 545.457 196.735 545.011 196.735C544.565 196.735 544.351 196.358 544.164 196.025C543.972 195.683 543.837 195.475 543.591 195.475C543.346 195.475 543.212 195.683 543.019 196.025C542.831 196.358 542.62 196.735 542.173 196.735C542.086 196.735 542.015 196.664 542.015 196.577C542.015 196.491 542.086 196.42 542.173 196.42C542.418 196.42 542.553 196.213 542.745 195.869C542.932 195.537 543.144 195.159 543.591 195.159Z" fill="white"/>
<path fill-rule="evenodd" clip-rule="evenodd" d="M546.72 201.572H546.129C545.595 201.572 545.161 201.921 545.161 202.351V206.956H547.687V202.351C547.686 201.921 547.253 201.572 546.72 201.572Z" fill="white"/>
<path fill-rule="evenodd" clip-rule="evenodd" d="M545.64 202.348C545.57 202.348 545.505 202.313 545.466 202.254L541.841 196.691C541.801 196.628 541.796 196.549 541.83 196.483C541.863 196.417 541.93 196.374 542.004 196.369C542.078 196.365 542.149 196.401 542.189 196.463L545.814 202.026C545.856 202.09 545.86 202.172 545.823 202.239C545.787 202.307 545.717 202.348 545.64 202.348V202.348Z" fill="white"/>
<path fill-rule="evenodd" clip-rule="evenodd" d="M547.207 202.347C547.131 202.347 547.06 202.306 547.024 202.238C546.988 202.171 546.991 202.089 547.033 202.025L550.659 196.462C550.699 196.4 550.77 196.364 550.844 196.368C550.918 196.373 550.984 196.416 551.018 196.482C551.051 196.548 551.047 196.627 551.006 196.69L547.381 202.253C547.343 202.312 547.277 202.347 547.207 202.347Z" fill="white"/>
<path fill-rule="evenodd" clip-rule="evenodd" d="M555.347 181.6C555.545 181.252 555.425 180.81 555.078 180.609C554.732 180.409 554.288 180.526 554.086 180.872L552.107 184.299C552.011 184.465 551.986 184.663 552.036 184.848C552.087 185.033 552.21 185.19 552.377 185.285L552.39 185.292C552.733 185.488 553.17 185.37 553.369 185.028L555.347 181.6Z" fill="#468EF1"/>
<path fill-rule="evenodd" clip-rule="evenodd" d="M561.15 187.936C561.495 187.733 561.613 187.29 561.412 186.943C561.212 186.597 560.77 186.477 560.422 186.674L556.995 188.653C556.653 188.852 556.535 189.289 556.731 189.632L556.738 189.645C556.832 189.812 556.99 189.935 557.175 189.985C557.36 190.036 557.557 190.01 557.724 189.914L561.15 187.936Z" fill="#468EF1"/>
<path fill-rule="evenodd" clip-rule="evenodd" d="M563.009 194.869H559.033C558.636 194.87 558.315 195.191 558.315 195.588V195.606C558.315 196.003 558.636 196.324 559.033 196.325H563.009C563.272 196.33 563.518 196.192 563.651 195.965C563.784 195.737 563.784 195.456 563.651 195.229C563.518 195.001 563.272 194.864 563.009 194.868V194.869Z" fill="#468EF1"/>
<path fill-rule="evenodd" clip-rule="evenodd" d="M560.421 204.521C560.769 204.719 561.212 204.599 561.412 204.252C561.612 203.905 561.495 203.462 561.15 203.259L557.722 201.281C557.556 201.185 557.358 201.159 557.173 201.21C556.988 201.261 556.831 201.383 556.737 201.551L556.73 201.563C556.533 201.906 556.651 202.344 556.993 202.542L560.421 204.521Z" fill="#468EF1"/>
<path fill-rule="evenodd" clip-rule="evenodd" d="M531.699 203.259C531.474 203.389 531.335 203.63 531.335 203.89C531.335 204.15 531.473 204.391 531.699 204.521C531.924 204.651 532.202 204.651 532.427 204.521L535.854 202.542C536.196 202.344 536.314 201.906 536.118 201.563L536.111 201.551C536.017 201.383 535.86 201.261 535.674 201.21C535.489 201.159 535.292 201.185 535.125 201.281L531.699 203.259Z" fill="#468EF1"/>
<path fill-rule="evenodd" clip-rule="evenodd" d="M534.535 195.59C534.535 195.193 534.213 194.871 533.816 194.871H529.84C529.443 194.878 529.125 195.202 529.125 195.599C529.125 195.997 529.443 196.32 529.84 196.328H533.816C534.213 196.328 534.535 196.006 534.535 195.609V195.59Z" fill="#468EF1"/>
<path fill-rule="evenodd" clip-rule="evenodd" d="M532.425 186.674C532.078 186.48 531.639 186.602 531.44 186.946C531.241 187.291 531.355 187.732 531.697 187.936L535.125 189.915C535.291 190.011 535.488 190.036 535.674 189.985C535.859 189.935 536.016 189.812 536.11 189.645L536.117 189.632C536.313 189.289 536.196 188.852 535.853 188.653L532.425 186.674Z" fill="#468EF1"/>
<path fill-rule="evenodd" clip-rule="evenodd" d="M538.763 180.872C538.561 180.526 538.117 180.409 537.771 180.609C537.424 180.81 537.304 181.252 537.501 181.6L539.48 185.027C539.678 185.369 540.116 185.487 540.459 185.291L540.472 185.284C540.639 185.19 540.762 185.032 540.812 184.847C540.863 184.662 540.838 184.464 540.742 184.298L538.763 180.872Z" fill="#468EF1"/>
<path fill-rule="evenodd" clip-rule="evenodd" d="M546.433 183.709C546.83 183.709 547.152 183.387 547.152 182.99V179.014C547.156 178.751 547.019 178.505 546.791 178.372C546.564 178.239 546.283 178.239 546.055 178.372C545.828 178.505 545.69 178.751 545.695 179.014V182.99C545.695 183.387 546.017 183.709 546.414 183.709H546.433Z" fill="#468EF1"/>
<path fill-rule="evenodd" clip-rule="evenodd" d="M274.783 2.69556L272.573 2.56885L271.674 4.70068L270.028 5.27555L267.998 4.16413L266.346 5.63701L267.218 7.78009L266.459 9.35022L264.238 9.99935L264.111 12.209L266.243 13.1077L266.818 14.7543L265.707 16.7836L267.179 18.4364L269.323 17.5645L270.893 18.3228L271.542 20.5438L273.752 20.6705L274.65 18.5386L276.297 17.9638L278.326 19.0752L279.979 17.6023L279.107 15.4592L279.865 13.8891L282.086 13.24L282.213 11.0301L280.081 10.1313L279.506 8.48479L280.617 6.45548L279.145 4.80272L277.001 5.67461L275.431 4.91626L274.783 2.69556Z" fill="#12b7e0"/>
<path fill-rule="evenodd" clip-rule="evenodd" d="M265.394 8.37511L264.554 5.96422L261.885 5.94746L260.547 4.44607L260.834 1.79303L258.535 0.682558L256.636 2.55761L254.628 2.44239L252.956 0.362305L250.545 1.20258L250.528 3.8712L249.027 5.20946L246.374 4.92202L245.263 7.22152L247.139 9.12029L247.023 11.1283L244.943 12.8002L245.784 15.2109L248.452 15.2276L249.791 16.729L249.503 19.3821L251.803 20.4925L253.702 18.6175L255.71 18.7327L257.382 20.8128L259.792 19.9725L259.809 17.3039L261.31 15.9656L263.963 16.2531L265.074 13.9536L263.199 12.0545L263.314 10.0466L265.394 8.37511Z" fill="#468EF1"/>
<path fill-rule="evenodd" clip-rule="evenodd" d="M249.662 10.2705C249.535 12.4979 250.761 14.583 252.77 15.5535C254.779 16.524 257.175 16.1887 258.84 14.704C260.506 13.2194 261.113 10.8777 260.378 8.77089C259.644 6.66412 257.713 5.20716 255.485 5.07939C254.025 4.99554 252.591 5.49537 251.499 6.4689C250.407 7.44244 249.746 8.80993 249.662 10.2705Z" fill="white"/>
<path fill-rule="evenodd" clip-rule="evenodd" d="M268.099 11.3284C267.981 13.3765 269.109 15.2936 270.956 16.1858C272.803 17.0781 275.006 16.7697 276.537 15.4045C278.069 14.0393 278.627 11.8862 277.951 9.94914C277.276 8.01209 275.5 6.67261 273.452 6.55531C270.656 6.39528 268.259 8.53216 268.099 11.3284Z" fill="white"/>
<path fill-rule="evenodd" clip-rule="evenodd" d="M251.013 10.348C250.917 12.0289 251.842 13.6025 253.358 14.335C254.874 15.0674 256.682 14.8145 257.939 13.6941C259.196 12.5737 259.654 10.8065 259.1 9.21661C258.546 7.62669 257.089 6.52714 255.408 6.43068C254.305 6.36737 253.223 6.74453 252.399 7.47917C251.575 8.21381 251.076 9.24576 251.013 10.348Z" fill="#468EF1"/>
<path fill-rule="evenodd" clip-rule="evenodd" d="M269.386 11.4024C269.298 12.9307 270.139 14.3616 271.518 15.0277C272.896 15.6938 274.54 15.4639 275.683 14.4452C276.826 13.4265 277.242 11.8196 276.738 10.3741C276.234 8.92855 274.909 7.92904 273.38 7.84172C271.294 7.72255 269.506 9.3164 269.386 11.4024Z" fill="#12b7e0"/>
<g opacity="0.3">
<path fill-rule="evenodd" clip-rule="evenodd" d="M439.334 31.2061H368.879C368.879 31.2061 374.493 -8.93365 389.651 16.8907C389.651 16.8907 402.563 -18.4773 416.036 18.8549C416.036 18.8546 439.334 10.9958 439.334 31.2061Z" fill="#DDE1E7"/>
</g>
<g opacity="0.3">
<path fill-rule="evenodd" clip-rule="evenodd" d="M531.792 96.8379H461.337C461.337 96.8379 466.951 56.6982 482.109 82.5225C482.109 82.5225 495.021 47.1545 508.494 84.4867C508.494 84.4865 531.792 76.6277 531.792 96.8379Z" fill="#DDE1E7"/>
</g>
<g opacity="0.3">
<path fill-rule="evenodd" clip-rule="evenodd" d="M86.1489 169.872H15.6938C15.6938 169.872 21.308 129.732 36.4655 155.556C36.4655 155.556 49.3775 120.188 62.8509 157.52C62.8509 157.52 86.1489 149.661 86.1489 169.872Z" fill="#DDE1E7"/>
</g>
<defs>
<linearGradient id="paint0_linear" x1="92.6494" y1="255.764" x2="151.803" y2="303.897" gradientUnits="userSpaceOnUse">
<stop stop-color="#136BDE"/>
<stop offset="1" stop-color="#68ADFD"/>
</linearGradient>
<linearGradient id="paint1_linear" x1="56.3346" y1="303.03" x2="72.5159" y2="348.307" gradientUnits="userSpaceOnUse">
<stop stop-color="#136BDE"/>
<stop offset="1" stop-color="#68ADFD"/>
</linearGradient>
<linearGradient id="paint2_linear" x1="129.534" y1="209.054" x2="191.345" y2="231.57" gradientUnits="userSpaceOnUse">
<stop stop-color="#136BDE"/>
<stop offset="1" stop-color="#68ADFD"/>
</linearGradient>
<linearGradient id="paint3_linear" x1="488.695" y1="157.555" x2="417.639" y2="317.686" gradientUnits="userSpaceOnUse">
<stop stop-color="#12b7e0"/>
<stop offset="1" stop-color="#FC4AB1"/>
</linearGradient>
<linearGradient id="paint4_linear" x1="395.03" y1="216.346" x2="432.355" y2="224.368" gradientUnits="userSpaceOnUse">
<stop stop-color="#136BDE"/>
<stop offset="1" stop-color="#68ADFD"/>
</linearGradient>
<linearGradient id="paint5_linear" x1="430.635" y1="262.724" x2="485.15" y2="324.893" gradientUnits="userSpaceOnUse">
<stop stop-color="#136BDE"/>
<stop offset="1" stop-color="#68ADFD"/>
</linearGradient>
<linearGradient id="paint6_linear" x1="280.795" y1="119.561" x2="351.742" y2="179.671" gradientUnits="userSpaceOnUse">
<stop stop-color="#136BDE"/>
<stop offset="1" stop-color="#68ADFD"/>
</linearGradient>
<linearGradient id="paint7_linear" x1="319.775" y1="208.573" x2="318.208" y2="192.269" gradientUnits="userSpaceOnUse">
<stop stop-color="#136BDE"/>
<stop offset="1" stop-color="#68ADFD"/>
</linearGradient>
</defs>
</svg>
