<svg width="645" height="385" viewBox="0 0 645 385" fill="none" xmlns="http://www.w3.org/2000/svg">
<path opacity="0.3" fill-rule="evenodd" clip-rule="evenodd" d="M320.49 37.4247C314.334 17.6397 297.935 5.5286 279.362 7.65848C274.889 8.13796 270.442 9.53201 266.224 11.7775C250.337 20.3249 249.681 35.3666 236.6 39.6036C217.96 45.6411 208.19 18.6985 178.092 9.0679C165.159 4.92941 145.882 -2.43901 132.492 9.51117C118.593 21.9146 118.669 47.984 118.686 53.7511C118.801 92.9252 144.817 104.652 140.189 130.87C136.959 149.171 120.338 163.58 109.457 169.801C102.699 173.665 96.3313 174.163 89.2886 175.531C81.948 176.958 75.371 182.207 70.6152 189.244C60.3594 204.419 54.3047 230.749 67.7907 243.112C71.2984 246.329 75.6148 248.23 80.0474 249.473C95.5966 253.838 113.926 251.35 130.111 247.404C153.14 241.789 172.922 228.941 193.863 215.734C205.02 208.697 216.586 203.341 228.872 202.257C251.608 200.251 249.413 221.122 312.151 253.738C322.395 259.063 336.586 268.51 348.77 261.211C353.942 258.114 357.636 252.027 359.61 245.669C363.392 233.492 364.048 217.457 358.057 207.29C346.458 187.609 313.852 197.004 307.024 172.337C302.348 155.447 317.216 142.584 324.499 113.747C328.868 96.4443 331.032 71.3054 320.49 37.4247Z" fill="#DDE1E7"/>
<path opacity="0.3" fill-rule="evenodd" clip-rule="evenodd" d="M468.234 381.211C487.504 384.033 504.432 375.057 510.174 358.45C511.585 354.464 512.21 350.129 512.022 345.641C511.233 328.703 498.751 322.036 500.476 309.227C502.933 290.976 529.737 293.643 550.129 272.048C558.892 262.768 572.97 249.425 568.283 233.22C563.419 216.4 541.293 205.872 536.398 203.543C503.151 187.723 482.64 205.006 462.301 190.431C448.102 180.257 442.644 160.315 441.793 148.565C441.265 141.268 443.43 135.669 445.132 129.144C446.905 122.342 445.129 114.635 441.098 107.746C432.404 92.8873 412.549 77.0566 396.591 83.4628C392.44 85.1287 389.074 88.0143 386.219 91.2658C376.202 102.67 370.862 119.216 367.631 134.537C363.032 156.336 365.882 178.322 368.566 201.437C369.996 213.752 369.836 225.731 365.763 236.584C358.224 256.669 341.428 246.328 288.291 286.247C279.616 292.765 265.843 300.954 267.078 314.246C267.601 319.888 271.259 325.492 275.846 329.749C284.629 337.901 297.952 344.973 309.004 344.027C330.397 342.194 335.684 310.741 359.364 314.978C375.579 317.879 380.439 335.706 401.92 353.596C414.809 364.33 435.236 376.379 468.234 381.211Z" fill="#DDE1E7"/>
<circle cx="360.143" cy="358.5" r="23.5" fill="url(#paint0_linear)"/>
<circle cx="275.643" cy="183" r="23" fill="url(#paint1_linear)"/>
<circle cx="362.143" cy="12.5" r="12.5" fill="url(#paint2_linear)"/>
<circle cx="169.143" cy="66.5" r="12.5" fill="url(#paint3_linear)"/>
<circle cx="463.143" cy="293.5" r="10.5" fill="url(#paint4_linear)"/>
<circle cx="487.143" cy="56.5" r="10.5" fill="url(#paint5_linear)"/>
<circle cx="186.143" cy="155.5" r="4.5" fill="url(#paint6_linear)"/>
<circle cx="135.143" cy="361.5" r="10.5" fill="url(#paint7_linear)"/>
<circle cx="56.1426" cy="137.5" r="4.5" fill="url(#paint8_linear)"/>
<g filter="url(#filter0_d)">
<rect x="282.643" y="76" width="341.478" height="165.565" rx="5" fill="white"/>
</g>
<path fill-rule="evenodd" clip-rule="evenodd" d="M376.929 106.345C381.133 106.345 382.232 110.824 382.232 110.824L374.301 114.102C374.301 114.102 374.814 115.915 377.198 115.927C379.065 115.937 380.119 114.272 380.119 114.272L382.132 115.635C382.132 115.635 380.508 118.261 377.182 118.261C373.096 118.261 371.296 114.688 371.296 112.367C371.296 110.131 372.725 106.345 376.929 106.345ZM376.687 108.658C373.45 109.25 373.857 112.083 373.857 112.083L379.215 109.896C379.215 109.896 378.217 108.378 376.687 108.658Z" fill="#FF6B4D"/>
<path d="M370.173 100.423H367.521V117.939H370.173V100.423Z" fill="#FF6B4D"/>
<path fill-rule="evenodd" clip-rule="evenodd" d="M360.046 106.343C362.264 106.28 363.33 107.815 363.33 107.815V106.722L365.782 106.743V117.795C365.782 120.619 364.101 123.6 360.143 123.6C356.185 123.6 354.907 120.093 354.907 120.093L357.159 119.146C357.159 119.146 357.846 121.307 360.26 121.307C363.009 121.307 363.33 118.806 363.33 117.95V116.75C363.33 116.75 362.379 118.239 360.016 118.239C357.454 118.239 354.41 116.044 354.41 112.303C354.41 108.561 357.277 106.421 360.046 106.343ZM360.225 108.675C358.437 108.675 356.987 110.313 356.987 112.334C356.987 114.355 358.437 115.993 360.225 115.993C362.014 115.993 363.464 114.355 363.464 112.334C363.464 110.313 362.014 108.675 360.225 108.675Z" fill="#FF6B4D"/>
<path fill-rule="evenodd" clip-rule="evenodd" d="M347.35 106.339C350.647 106.339 353.319 109.006 353.319 112.295C353.319 115.584 350.647 118.251 347.35 118.251C344.053 118.251 341.381 115.584 341.381 112.295C341.381 109.006 344.053 106.339 347.35 106.339ZM347.311 108.675C345.458 108.675 343.956 110.296 343.956 112.295C343.956 114.294 345.458 115.915 347.311 115.915C349.164 115.915 350.666 114.294 350.666 112.295C350.666 110.296 349.164 108.675 347.311 108.675Z" fill="#FF6B4D"/>
<path fill-rule="evenodd" clip-rule="evenodd" d="M334.398 106.339C337.694 106.339 340.367 109.006 340.367 112.295C340.367 115.584 337.694 118.251 334.398 118.251C331.101 118.251 328.429 115.584 328.429 112.295C328.429 109.006 331.101 106.339 334.398 106.339ZM334.359 108.675C332.506 108.675 331.004 110.296 331.004 112.295C331.004 114.294 332.506 115.915 334.359 115.915C336.212 115.915 337.714 114.294 337.714 112.295C337.714 110.296 336.212 108.675 334.359 108.675Z" fill="#FF6B4D"/>
<path fill-rule="evenodd" clip-rule="evenodd" d="M318.909 108.208H326.79L326.712 110.699H318.909V108.208Z" fill="#FF6B4D"/>
<path fill-rule="evenodd" clip-rule="evenodd" d="M318.793 99.8C321.462 99.8 323.706 100.73 325.24 102.346L323.437 104.146C322.312 102.998 320.714 102.369 318.871 102.369C315.187 102.369 312.2 105.349 312.2 109.025C312.2 112.702 315.187 115.682 318.871 115.682C322.556 115.682 325.172 113.556 325.166 109.025C325.172 108.745 325.166 108.473 325.147 108.208L327.449 108.208L327.449 108.301C328.307 114.581 324.071 118.224 318.949 118.251L318.793 118.251C313.687 118.244 309.547 114.12 309.547 109.025C309.547 103.93 313.687 99.8 318.793 99.8Z" fill="#FF6B4D"/>
<rect x="309.546" y="136.017" width="288.704" height="12.4174" rx="6.20868" fill="#E4E9F0"/>
<rect x="309.546" y="181.548" width="288.704" height="12.4174" rx="6.20868" fill="#E4E9F0"/>
<rect x="309.546" y="204.313" width="246.278" height="12.4174" rx="6.20868" fill="#E4E9F0"/>
<rect x="340.589" y="158.782" width="136.591" height="12.4174" rx="6.20868" fill="#4AD7A0"/>
<rect x="309.546" y="158.782" width="24.8347" height="12.4174" rx="6.20868" fill="#4AD7A0"/>
<path d="M316.789 165.708C316.789 167.142 317.72 168.095 318.884 168.095C319.616 168.095 320.139 167.747 320.414 167.349V168.021H321.586V163.429H320.414V164.083C320.139 163.702 319.632 163.354 318.892 163.354C317.72 163.354 316.789 164.274 316.789 165.708ZM320.414 165.725C320.414 166.595 319.832 167.076 319.192 167.076C318.568 167.076 317.978 166.579 317.978 165.708C317.978 164.838 318.568 164.374 319.192 164.374C319.832 164.374 320.414 164.854 320.414 165.725Z" fill="white"/>
<path d="M322.34 165.708C322.34 167.142 323.271 168.095 324.443 168.095C325.167 168.095 325.682 167.764 325.956 167.341V168.021H327.137V161.887H325.956V164.067C325.64 163.636 325.059 163.354 324.452 163.354C323.271 163.354 322.34 164.274 322.34 165.708ZM325.965 165.725C325.965 166.595 325.383 167.076 324.743 167.076C324.119 167.076 323.529 166.579 323.529 165.708C323.529 164.838 324.119 164.374 324.743 164.374C325.383 164.374 325.965 164.854 325.965 165.725Z" fill="white"/>
<g filter="url(#filter1_d)">
<rect x="20.6426" y="195" width="341.478" height="165.565" rx="5" fill="white"/>
</g>
<path fill-rule="evenodd" clip-rule="evenodd" d="M114.93 225.345C119.134 225.345 120.233 229.824 120.233 229.824L112.302 233.102C112.302 233.102 112.815 234.915 115.199 234.927C117.066 234.937 118.12 233.272 118.12 233.272L120.132 234.635C120.132 234.635 118.509 237.261 115.183 237.261C111.097 237.261 109.297 233.688 109.297 231.367C109.297 229.131 110.726 225.345 114.93 225.345ZM114.688 227.658C111.451 228.25 111.858 231.083 111.858 231.083L117.216 228.896C117.216 228.896 116.218 227.378 114.688 227.658Z" fill="#FF6B4D"/>
<path d="M108.174 219.423H105.521V236.939H108.174V219.423Z" fill="#FF6B4D"/>
<path fill-rule="evenodd" clip-rule="evenodd" d="M98.0457 225.343C100.264 225.28 101.33 226.815 101.33 226.815V225.722L103.782 225.743V236.795C103.782 239.619 102.101 242.6 98.1429 242.6C94.1848 242.6 92.9065 239.093 92.9065 239.093L95.1588 238.146C95.1588 238.146 95.8457 240.307 98.2599 240.307C101.009 240.307 101.33 237.806 101.33 236.95V235.75C101.33 235.75 100.379 237.239 98.0161 237.239C95.4544 237.239 92.4102 235.044 92.4102 231.303C92.4102 227.561 95.2767 225.421 98.0457 225.343ZM98.2255 227.675C96.4371 227.675 94.9874 229.313 94.9874 231.334C94.9874 233.355 96.4371 234.993 98.2255 234.993C100.014 234.993 101.464 233.355 101.464 231.334C101.464 229.313 100.014 227.675 98.2255 227.675Z" fill="#FF6B4D"/>
<path fill-rule="evenodd" clip-rule="evenodd" d="M85.3509 225.339C88.6476 225.339 91.3201 228.006 91.3201 231.295C91.3201 234.584 88.6476 237.251 85.3509 237.251C82.0543 237.251 79.3818 234.584 79.3818 231.295C79.3818 228.006 82.0543 225.339 85.3509 225.339ZM85.3119 227.675C83.4589 227.675 81.9567 229.296 81.9567 231.295C81.9567 233.294 83.4589 234.915 85.3119 234.915C87.1649 234.915 88.6671 233.294 88.6671 231.295C88.6671 229.296 87.1649 227.675 85.3119 227.675Z" fill="#FF6B4D"/>
<path fill-rule="evenodd" clip-rule="evenodd" d="M72.3978 225.339C75.6945 225.339 78.3669 228.006 78.3669 231.295C78.3669 234.584 75.6945 237.251 72.3978 237.251C69.1012 237.251 66.4287 234.584 66.4287 231.295C66.4287 228.006 69.1012 225.339 72.3978 225.339ZM72.3588 227.675C70.5058 227.675 69.0036 229.296 69.0036 231.295C69.0036 233.294 70.5058 234.915 72.3588 234.915C74.2118 234.915 75.714 233.294 75.714 231.295C75.714 229.296 74.2118 227.675 72.3588 227.675Z" fill="#FF6B4D"/>
<path fill-rule="evenodd" clip-rule="evenodd" d="M56.9092 227.208H64.79L64.7119 229.699H56.9092V227.208Z" fill="#FF6B4D"/>
<path fill-rule="evenodd" clip-rule="evenodd" d="M56.7931 218.8C59.4624 218.8 61.7063 219.73 63.2402 221.346L61.4368 223.146C60.312 221.998 58.7145 221.369 56.8712 221.369C53.1867 221.369 50.1998 224.349 50.1998 228.025C50.1998 231.702 53.1867 234.682 56.8712 234.682C60.5557 234.682 63.1716 232.556 63.1661 228.025C63.1723 227.745 63.1658 227.473 63.147 227.208L65.4488 227.208L65.4495 227.301C66.3067 233.581 62.0711 237.224 56.9486 237.251L56.7931 237.251C51.6866 237.244 47.5469 233.12 47.5469 228.025C47.5469 222.93 51.6866 218.8 56.7931 218.8Z" fill="#FF6B4D"/>
<rect x="47.5469" y="255.017" width="288.704" height="12.4174" rx="6.20868" fill="#E4E9F0"/>
<rect x="47.5469" y="300.548" width="288.704" height="12.4174" rx="6.20868" fill="#E4E9F0"/>
<rect x="47.5469" y="323.313" width="246.278" height="12.4174" rx="6.20868" fill="#E4E9F0"/>
<rect x="78.5898" y="277.782" width="136.591" height="12.4174" rx="6.20868" fill="#4AD7A0"/>
<rect x="47.5469" y="277.782" width="24.8347" height="12.4174" rx="6.20868" fill="#4AD7A0"/>
<path d="M54.79 284.708C54.79 286.142 55.7211 287.095 56.885 287.095C57.6165 287.095 58.1403 286.747 58.4146 286.349V287.021H59.5868V282.429H58.4146V283.083C58.1403 282.702 57.6332 282.354 56.8933 282.354C55.7211 282.354 54.79 283.274 54.79 284.708ZM58.4146 284.725C58.4146 285.595 57.8327 286.076 57.1926 286.076C56.5691 286.076 55.9788 285.579 55.9788 284.708C55.9788 283.838 56.5691 283.374 57.1926 283.374C57.8327 283.374 58.4146 283.854 58.4146 284.725Z" fill="white"/>
<path d="M60.3411 284.708C60.3411 286.142 61.2722 287.095 62.4443 287.095C63.1676 287.095 63.683 286.764 63.9574 286.341V287.021H65.1378V280.887H63.9574V283.067C63.6415 282.636 63.0595 282.354 62.4527 282.354C61.2722 282.354 60.3411 283.274 60.3411 284.708ZM63.9657 284.725C63.9657 285.595 63.3837 286.076 62.7436 286.076C62.1201 286.076 61.5299 285.579 61.5299 284.708C61.5299 283.838 62.1201 283.374 62.7436 283.374C63.3837 283.374 63.9657 283.854 63.9657 284.725Z" fill="white"/>
<defs>
<filter id="filter0_d" x="262.643" y="60" width="381.478" height="205.565" filterUnits="userSpaceOnUse" color-interpolation-filters="sRGB">
<feFlood flood-opacity="0" result="BackgroundImageFix"/>
<feColorMatrix in="SourceAlpha" type="matrix" values="0 0 0 0 0 0 0 0 0 0 0 0 0 0 0 0 0 0 127 0"/>
<feOffset dy="4"/>
<feGaussianBlur stdDeviation="10"/>
<feColorMatrix type="matrix" values="0 0 0 0 0 0 0 0 0 0 0 0 0 0 0 0 0 0 0.1 0"/>
<feBlend mode="normal" in2="BackgroundImageFix" result="effect1_dropShadow"/>
<feBlend mode="normal" in="SourceGraphic" in2="effect1_dropShadow" result="shape"/>
</filter>
<filter id="filter1_d" x="0.642578" y="179" width="381.478" height="205.565" filterUnits="userSpaceOnUse" color-interpolation-filters="sRGB">
<feFlood flood-opacity="0" result="BackgroundImageFix"/>
<feColorMatrix in="SourceAlpha" type="matrix" values="0 0 0 0 0 0 0 0 0 0 0 0 0 0 0 0 0 0 127 0"/>
<feOffset dy="4"/>
<feGaussianBlur stdDeviation="10"/>
<feColorMatrix type="matrix" values="0 0 0 0 0 0 0 0 0 0 0 0 0 0 0 0 0 0 0.1 0"/>
<feBlend mode="normal" in2="BackgroundImageFix" result="effect1_dropShadow"/>
<feBlend mode="normal" in="SourceGraphic" in2="effect1_dropShadow" result="shape"/>
</filter>
<linearGradient id="paint0_linear" x1="378.82" y1="376.104" x2="339.64" y2="346.753" gradientUnits="userSpaceOnUse">
<stop stop-color="#FF6B4D"/>
<stop offset="1" stop-color="#F69866"/>
</linearGradient>
<linearGradient id="paint1_linear" x1="293.922" y1="200.229" x2="255.577" y2="171.503" gradientUnits="userSpaceOnUse">
<stop stop-color="#FF6B4D"/>
<stop offset="1" stop-color="#F69866"/>
</linearGradient>
<linearGradient id="paint2_linear" x1="372.077" y1="21.8636" x2="351.237" y2="6.25139" gradientUnits="userSpaceOnUse">
<stop stop-color="#FF6B4D"/>
<stop offset="1" stop-color="#F69866"/>
</linearGradient>
<linearGradient id="paint3_linear" x1="179.077" y1="75.8636" x2="158.237" y2="60.2514" gradientUnits="userSpaceOnUse">
<stop stop-color="#FF6B4D"/>
<stop offset="1" stop-color="#F69866"/>
</linearGradient>
<linearGradient id="paint4_linear" x1="471.488" y1="301.365" x2="453.982" y2="288.251" gradientUnits="userSpaceOnUse">
<stop stop-color="#FF6B4D"/>
<stop offset="1" stop-color="#F69866"/>
</linearGradient>
<linearGradient id="paint5_linear" x1="495.488" y1="64.3655" x2="477.982" y2="51.2512" gradientUnits="userSpaceOnUse">
<stop stop-color="#FF6B4D"/>
<stop offset="1" stop-color="#F69866"/>
</linearGradient>
<linearGradient id="paint6_linear" x1="189.719" y1="158.871" x2="182.217" y2="153.251" gradientUnits="userSpaceOnUse">
<stop stop-color="#FF6B4D"/>
<stop offset="1" stop-color="#F69866"/>
</linearGradient>
<linearGradient id="paint7_linear" x1="143.488" y1="369.365" x2="125.982" y2="356.251" gradientUnits="userSpaceOnUse">
<stop stop-color="#FF6B4D"/>
<stop offset="1" stop-color="#F69866"/>
</linearGradient>
<linearGradient id="paint8_linear" x1="59.7191" y1="140.871" x2="52.2166" y2="135.251" gradientUnits="userSpaceOnUse">
<stop stop-color="#FF6B4D"/>
<stop offset="1" stop-color="#F69866"/>
</linearGradient>
</defs>
</svg>
