<svg width="365" height="197" viewBox="0 0 365 197" fill="none" xmlns="http://www.w3.org/2000/svg">
<g filter="url(#filter0_d)">
<rect x="20" y="16" width="325" height="157.576" rx="4.75873" fill="white"/>
</g>
<path fill-rule="evenodd" clip-rule="evenodd" d="M109.737 44.8807C113.738 44.8807 114.785 49.144 114.785 49.144L107.237 52.2635C107.237 52.2635 107.724 53.9889 109.993 54.0004C111.77 54.0095 112.774 52.4253 112.774 52.4253L114.689 53.7223C114.689 53.7223 113.143 56.2216 109.978 56.2216C106.089 56.2216 104.376 52.8207 104.376 50.612C104.376 48.484 105.736 44.8807 109.737 44.8807ZM109.507 47.0818C106.426 47.6455 106.814 50.3416 106.814 50.3416L111.913 48.2602C111.913 48.2602 110.963 46.8153 109.507 47.0818Z" fill="#FF6B4D"/>
<path d="M103.307 39.2443H100.782V55.9157H103.307V39.2443Z" fill="#FF6B4D"/>
<path fill-rule="evenodd" clip-rule="evenodd" d="M93.6683 44.8785C95.7793 44.8191 96.794 46.2794 96.794 46.2794V45.239L99.128 45.2592V55.7783C99.128 58.4659 97.5279 61.303 93.7608 61.303C89.9937 61.303 88.7771 57.9653 88.7771 57.9653L90.9207 57.0638C90.9207 57.0638 91.5745 59.1208 93.8722 59.1208C96.4888 59.1208 96.7942 56.7403 96.7942 55.9254V54.7838C96.7942 54.7838 95.8889 56.2008 93.6401 56.2008C91.202 56.2008 88.3047 54.1119 88.3047 50.5507C88.3047 46.9895 91.0329 44.9526 93.6683 44.8785ZM93.8394 47.0983C92.1373 47.0983 90.7575 48.6574 90.7575 50.5807C90.7575 52.5041 92.1373 54.0632 93.8394 54.0632C95.5415 54.0632 96.9213 52.5041 96.9213 50.5807C96.9213 48.6574 95.5415 47.0983 93.8394 47.0983Z" fill="#FF6B4D"/>
<path fill-rule="evenodd" clip-rule="evenodd" d="M81.5854 44.8754C84.7229 44.8754 87.2664 47.4131 87.2664 50.5436C87.2664 53.6741 84.7229 56.2119 81.5854 56.2119C78.4478 56.2119 75.9043 53.6741 75.9043 50.5436C75.9043 47.4131 78.4478 44.8754 81.5854 44.8754ZM81.5482 47.0982C79.7846 47.0982 78.355 48.6408 78.355 50.5436C78.355 52.4465 79.7846 53.9891 81.5482 53.9891C83.3118 53.9891 84.7415 52.4465 84.7415 50.5436C84.7415 48.6408 83.3118 47.0982 81.5482 47.0982Z" fill="#FF6B4D"/>
<path fill-rule="evenodd" clip-rule="evenodd" d="M69.2582 44.8754C72.3958 44.8754 74.9393 47.4131 74.9393 50.5436C74.9393 53.6741 72.3958 56.2119 69.2582 56.2119C66.1207 56.2119 63.5771 53.6741 63.5771 50.5436C63.5771 47.4131 66.1207 44.8754 69.2582 44.8754ZM69.2211 47.0982C67.4575 47.0982 66.0278 48.6408 66.0278 50.5436C66.0278 52.4465 67.4575 53.9891 69.2211 53.9891C70.9847 53.9891 72.4144 52.4465 72.4144 50.5436C72.4144 48.6408 70.9847 47.0982 69.2211 47.0982Z" fill="#FF6B4D"/>
<path fill-rule="evenodd" clip-rule="evenodd" d="M54.5176 46.6537H62.0181L61.9438 49.0248H54.5176V46.6537Z" fill="#FF6B4D"/>
<path fill-rule="evenodd" clip-rule="evenodd" d="M54.4065 38.6515C56.947 38.6515 59.0826 39.5371 60.5425 41.0749L58.8262 42.7874C57.7556 41.6953 56.2352 41.0966 54.4808 41.0966C50.9741 41.0966 48.1314 43.933 48.1314 47.4318C48.1314 50.9305 50.9741 53.7669 54.4808 53.7669C57.9875 53.7669 60.4772 51.7442 60.472 47.4318C60.4779 47.1652 60.4717 46.9058 60.4538 46.6537L62.6446 46.6537L62.6452 46.7419C63.4611 52.7194 59.4298 56.1867 54.5545 56.2123L54.4065 56.212C49.5464 56.2051 45.6064 52.281 45.6064 47.4318C45.6064 42.5825 49.5464 38.6515 54.4065 38.6515Z" fill="#FF6B4D"/>
<rect x="45.6055" y="73.1212" width="274.773" height="11.8182" rx="5.90909" fill="#E4E9F0"/>
<rect x="45.6055" y="116.455" width="274.773" height="11.8182" rx="5.90909" fill="#E4E9F0"/>
<rect x="45.6055" y="138.121" width="234.394" height="11.8182" rx="5.90909" fill="#E4E9F0"/>
<rect x="75.1504" y="94.7879" width="130" height="11.8182" rx="5.90909" fill="#4AD7A0"/>
<rect x="45.6055" y="94.7879" width="23.6364" height="11.8182" rx="5.90909" fill="#4AD7A0"/>
<path d="M52.498 101.379C52.498 102.744 53.3842 103.651 54.4919 103.651C55.1882 103.651 55.6866 103.32 55.9477 102.941V103.58H57.0633V99.2098H55.9477V99.833C55.6866 99.4701 55.204 99.1388 54.4998 99.1388C53.3842 99.1388 52.498 100.014 52.498 101.379ZM55.9477 101.395C55.9477 102.223 55.3939 102.681 54.7846 102.681C54.1912 102.681 53.6295 102.208 53.6295 101.379C53.6295 100.551 54.1912 100.109 54.7846 100.109C55.3939 100.109 55.9477 100.567 55.9477 101.395Z" fill="white"/>
<path d="M57.7812 101.379C57.7812 102.744 58.6674 103.651 59.783 103.651C60.4714 103.651 60.9619 103.336 61.223 102.934V103.58H62.3465V97.7424H61.223V99.8173C60.9224 99.407 60.3685 99.1388 59.7909 99.1388C58.6674 99.1388 57.7812 100.014 57.7812 101.379ZM61.2309 101.395C61.2309 102.223 60.6771 102.681 60.0678 102.681C59.4744 102.681 58.9127 102.208 58.9127 101.379C58.9127 100.551 59.4744 100.109 60.0678 100.109C60.6771 100.109 61.2309 100.567 61.2309 101.395Z" fill="white"/>
<defs>
<filter id="filter0_d" x="0.965078" y="0.772063" width="363.07" height="195.646" filterUnits="userSpaceOnUse" color-interpolation-filters="sRGB">
<feFlood flood-opacity="0" result="BackgroundImageFix"/>
<feColorMatrix in="SourceAlpha" type="matrix" values="0 0 0 0 0 0 0 0 0 0 0 0 0 0 0 0 0 0 127 0"/>
<feOffset dy="3.80698"/>
<feGaussianBlur stdDeviation="9.51746"/>
<feColorMatrix type="matrix" values="0 0 0 0 0 0 0 0 0 0 0 0 0 0 0 0 0 0 0.1 0"/>
<feBlend mode="normal" in2="BackgroundImageFix" result="effect1_dropShadow"/>
<feBlend mode="normal" in="SourceGraphic" in2="effect1_dropShadow" result="shape"/>
</filter>
</defs>
</svg>
