<svg width="46" height="40" viewBox="0 0 46 40" fill="none" xmlns="http://www.w3.org/2000/svg">
<path d="M42.8511 15.1054V37.2315C42.8511 38.7051 41.6583 39.8989 40.1837 39.8989H5.39396C3.92043 39.8989 2.72656 38.705 2.72656 37.2315V15.1054C3.5573 15.597 4.52662 15.8788 5.56123 15.8788C6.97055 15.8788 8.26764 15.3529 9.25638 14.4775C10.2452 13.6033 10.9235 12.3773 11.0942 10.9794L11.2844 9.4165C11.2568 9.65138 11.242 9.88625 11.242 10.1166C11.242 13.2526 13.7913 15.8788 17.0156 15.8788C20.2043 15.8788 22.7892 13.2939 22.7892 10.1063C22.7892 13.294 25.373 15.8788 28.5617 15.8788C31.7883 15.8788 34.3365 13.2526 34.3365 10.1143C34.3365 9.88634 34.3228 9.65601 34.2941 9.42229L34.4843 10.9795C34.655 12.3773 35.3332 13.6033 36.321 14.4776C37.3098 15.353 38.608 15.8789 40.0162 15.8789C41.0511 15.8789 42.0205 15.597 42.8511 15.1054Z" fill="#518EF8"/>
<path d="M34.3065 13.9524C34.3352 14.1861 34.3489 14.4165 34.3489 14.6445C34.3489 17.7828 31.8007 20.4089 28.5741 20.4089C25.3854 20.4089 22.8016 17.824 22.8016 14.6365L20.0518 7.92513L22.8015 0.0285645H32.6096L35.5581 7.93421L34.3053 13.9375C34.3065 13.9421 34.3065 13.9479 34.3065 13.9524Z" fill="url(#paint0_linear)"/>
<path d="M12.9922 0.0288086L15.5447 8.70542L11.2976 13.9376V13.9377L11.1063 15.5097C10.9356 16.9075 10.2573 18.1335 9.26847 19.0078C8.27964 19.8831 6.98264 20.4091 5.57332 20.4091C4.53871 20.4091 3.5693 20.1272 2.73865 19.6357V19.6346C1.09883 18.6651 0 16.8788 0 14.8359V14.4222L3.79615 1.42138C4.03708 0.596081 4.7938 0.0288086 5.65357 0.0288086H12.9922Z" fill="url(#paint1_linear)"/>
<path d="M42.863 19.6355C42.0323 20.127 41.063 20.4088 40.0284 20.4088C38.6202 20.4088 37.322 19.8829 36.3332 19.0075C35.3455 18.1333 34.6672 16.9073 34.4965 15.5094L34.3063 13.9522C34.3063 13.9477 34.3063 13.9419 34.3051 13.9374L32.6094 0.0285645H39.9481C40.8078 0.0285645 41.5645 0.595836 41.8055 1.42105L45.6027 14.4221V14.8357C45.6027 16.8787 44.5027 18.665 42.863 19.6355Z" fill="#3A5BBC"/>
<path d="M22.8012 0.0286535V14.6364C22.8012 17.824 20.2163 20.4088 17.0275 20.4088C13.8033 20.4088 11.2539 17.7827 11.2539 14.6466C11.2539 14.4163 11.2688 14.1814 11.2963 13.9465C11.2963 13.9431 11.2975 13.9408 11.2975 13.9374L12.9921 0.0285645H22.8012V0.0286535Z" fill="#3A5BBC"/>
<defs>
<linearGradient id="paint0_linear" x1="33.9669" y1="17.8521" x2="18.735" y2="9.17018" gradientUnits="userSpaceOnUse">
<stop stop-color="#FF6B4D"/>
<stop offset="1" stop-color="#F69866"/>
</linearGradient>
<linearGradient id="paint1_linear" x1="13.9496" y1="17.8523" x2="-1.30142" y2="9.13787" gradientUnits="userSpaceOnUse">
<stop stop-color="#FF6B4D"/>
<stop offset="1" stop-color="#F69866"/>
</linearGradient>
</defs>
</svg>
