<svg width="46" height="40" viewBox="0 0 46 40" fill="none" xmlns="http://www.w3.org/2000/svg">
<path d="M42.8508 15.1081V36.9112C42.8508 38.3633 41.6581 39.5397 40.1835 39.5397H5.39372C3.92018 39.5397 2.72632 38.3632 2.72632 36.9112V15.1081C3.55705 15.5925 4.52638 15.8702 5.56099 15.8702C6.9703 15.8702 8.2674 15.3519 9.25613 14.4893C10.245 13.6279 10.9233 12.4198 11.094 11.0423L11.2841 9.5022C11.2566 9.73364 11.2417 9.96508 11.2417 10.1921C11.2417 13.2823 13.7911 15.8702 17.0154 15.8702C20.2041 15.8702 22.789 13.323 22.789 10.182C22.789 13.3231 25.3727 15.8702 28.5615 15.8702C31.788 15.8702 34.3363 13.2823 34.3363 10.1899C34.3363 9.96517 34.3225 9.7382 34.2939 9.5079L34.484 11.0423C34.6548 12.4198 35.333 13.6279 36.3208 14.4894C37.3096 15.352 38.6078 15.8703 40.0159 15.8703C41.0509 15.8703 42.0202 15.5925 42.8508 15.1081Z" fill="#518EF8"/>
<path d="M34.3067 13.9718C34.3354 14.2021 34.3491 14.4291 34.3491 14.6538C34.3491 17.7463 31.8009 20.3341 28.5744 20.3341C25.3856 20.3341 22.8019 17.7869 22.8019 14.6459L20.052 8.03252L22.8018 0.251221H32.6098L35.5583 8.04148L34.3056 13.9571C34.3067 13.9617 34.3067 13.9674 34.3067 13.9718Z" fill="#FFC107"/>
<path d="M12.9922 0.251465L15.5447 8.80143L11.2976 13.9573V13.9573L11.1063 15.5064C10.9356 16.8838 10.2573 18.0919 9.26847 18.9534C8.27964 19.816 6.98264 20.3343 5.57332 20.3343C4.53871 20.3343 3.5693 20.0565 2.73865 19.5722V19.571C1.09883 18.6158 0 16.8555 0 14.8424V14.4348L3.79615 1.62371C4.03708 0.810457 4.7938 0.251465 5.65357 0.251465H12.9922Z" fill="#FFC107"/>
<path d="M42.8633 19.5719C42.0325 20.0563 41.0632 20.334 40.0286 20.334C38.6204 20.334 37.3223 19.8158 36.3335 18.9532C35.3458 18.0917 34.6674 16.8836 34.4967 15.5061L34.3065 13.9717C34.3065 13.9672 34.3065 13.9615 34.3054 13.957L32.6096 0.251221H39.9483C40.808 0.251221 41.5647 0.810212 41.8058 1.62338L45.6029 14.4346V14.8422C45.6029 16.8554 44.5029 18.6156 42.8633 19.5719Z" fill="#3A5BBC"/>
<path d="M22.8013 0.251308V14.6458C22.8013 17.7869 20.2164 20.334 17.0277 20.334C13.8034 20.334 11.254 17.7462 11.254 14.6559C11.254 14.4289 11.2689 14.1975 11.2964 13.9661C11.2964 13.9626 11.2976 13.9604 11.2976 13.957L12.9922 0.251221H22.8013V0.251308Z" fill="#3A5BBC"/>
<rect x="17.597" y="25.4061" width="10.1615" height="14.1649" fill="white"/>
</svg>
