<svg width="26" height="25" viewBox="0 0 26 25" fill="none" xmlns="http://www.w3.org/2000/svg">
<path fill-rule="evenodd" clip-rule="evenodd" d="M13.4375 0C6.53394 0 0.9375 5.59644 0.9375 12.5C0.9375 19.4036 6.53394 25 13.4375 25C20.3411 25 25.9375 19.4036 25.9375 12.5C25.9375 5.59644 20.3411 0 13.4375 0ZM10.6901 5.87361C11.4012 5.84125 11.6284 5.83334 13.439 5.83334H13.4369C15.2481 5.83334 15.4745 5.84125 16.1856 5.87361C16.8953 5.90611 17.38 6.01848 17.805 6.18334C18.2439 6.35348 18.6148 6.58126 18.9856 6.9521C19.3564 7.32266 19.5842 7.69461 19.7551 8.13308C19.9189 8.55698 20.0314 9.04142 20.0648 9.75115C20.0967 10.4623 20.1051 10.6895 20.1051 12.5001C20.1051 14.3106 20.0967 14.5373 20.0648 15.2484C20.0314 15.9579 19.9189 16.4425 19.7551 16.8665C19.5842 17.3048 19.3564 17.6768 18.9856 18.0474C18.6152 18.4182 18.2438 18.6465 17.8055 18.8168C17.3813 18.9817 16.8963 19.094 16.1865 19.1265C15.4754 19.1589 15.2489 19.1668 13.4382 19.1668C11.6278 19.1668 11.4007 19.1589 10.6895 19.1265C9.97995 19.094 9.49537 18.9817 9.0712 18.8168C8.633 18.6465 8.26105 18.4182 7.89063 18.0474C7.51993 17.6768 7.29215 17.3048 7.12173 16.8664C6.95701 16.4425 6.84464 15.958 6.81201 15.2483C6.77978 14.5372 6.77173 14.3106 6.77173 12.5001C6.77173 10.6895 6.78006 10.4621 6.81187 9.75102C6.84381 9.04156 6.95631 8.55698 7.12159 8.13294C7.29243 7.69461 7.52021 7.32266 7.89104 6.9521C8.2616 6.5814 8.63355 6.35362 9.07203 6.18334C9.49592 6.01848 9.98037 5.90611 10.6901 5.87361Z" fill="#12b7e0"/>
<path fill-rule="evenodd" clip-rule="evenodd" d="M12.8404 7.03487C12.9565 7.03469 13.0815 7.03474 13.2163 7.0348L13.4385 7.03487C15.2185 7.03487 15.4295 7.04126 16.1324 7.0732C16.7824 7.10293 17.1352 7.21154 17.3702 7.30279C17.6813 7.42362 17.9031 7.56807 18.1363 7.80141C18.3696 8.03474 18.5141 8.25697 18.6352 8.56808C18.7265 8.80281 18.8352 9.15559 18.8648 9.80559C18.8967 10.5084 18.9037 10.7195 18.9037 12.4987C18.9037 14.2779 18.8967 14.489 18.8648 15.1918C18.8351 15.8418 18.7265 16.1945 18.6352 16.4293C18.5144 16.7404 18.3696 16.9619 18.1363 17.1951C17.903 17.4285 17.6814 17.5729 17.3702 17.6937C17.1355 17.7854 16.7824 17.8937 16.1324 17.9235C15.4296 17.9554 15.2185 17.9623 13.4385 17.9623C11.6583 17.9623 11.4473 17.9554 10.7446 17.9235C10.0946 17.8935 9.74177 17.7848 9.50663 17.6936C9.19552 17.5728 8.97329 17.4283 8.73996 17.195C8.50662 16.9616 8.36218 16.74 8.24106 16.4287C8.14981 16.194 8.04106 15.8412 8.01148 15.1912C7.97953 14.4884 7.97314 14.2773 7.97314 12.497C7.97314 10.7167 7.97953 10.5067 8.01148 9.80393C8.0412 9.15392 8.14981 8.80114 8.24106 8.56614C8.3619 8.25502 8.50662 8.0328 8.73996 7.79946C8.97329 7.56613 9.19552 7.42168 9.50663 7.30057C9.74164 7.2089 10.0946 7.10056 10.7446 7.0707C11.3596 7.04293 11.5979 7.03459 12.8404 7.0332V7.03487ZM16.9963 8.14131C16.5546 8.14131 16.1963 8.49923 16.1963 8.94104C16.1963 9.38271 16.5546 9.74105 16.9963 9.74105C17.438 9.74105 17.7963 9.38271 17.7963 8.94104C17.7963 8.49937 17.438 8.14103 16.9963 8.14103V8.14131ZM10.0145 12.4998C10.0145 10.6092 11.5473 9.07627 13.438 9.0762C15.3287 9.0762 16.8612 10.6091 16.8612 12.4998C16.8612 14.3906 15.3288 15.9228 13.4381 15.9228C11.5474 15.9228 10.0145 14.3906 10.0145 12.4998Z" fill="#12b7e0"/>
<path d="M13.4381 10.2778C14.6653 10.2778 15.6603 11.2727 15.6603 12.5001C15.6603 13.7273 14.6653 14.7223 13.4381 14.7223C12.2107 14.7223 11.2158 13.7273 11.2158 12.5001C11.2158 11.2727 12.2107 10.2778 13.4381 10.2778Z" fill="#12b7e0"/>
</svg>
