<svg width="36" height="101" viewBox="0 0 36 101" fill="none" xmlns="http://www.w3.org/2000/svg">
<path d="M13.2118 12.9467C7.25094 10.7045 2.50083 6.06781 0.117834 0.157715C6.54753 0.321775 13.1998 6.90381 13.2118 12.9467ZM28.3288 82.7127C23.8522 80.6424 17.8638 84.0018 13.4698 89.4783C17.1534 92.7049 24.6298 90.0525 28.3178 82.7166L28.3288 82.7127ZM33.4929 69.3417C28.7038 68.1776 23.5398 72.6073 20.4109 78.6425C24.6648 81.1113 31.3989 77.1581 33.4769 69.3691L33.4929 69.3417ZM35.9109 55.3887C30.9929 55.1895 26.7703 60.5059 24.9339 67.0177C29.5823 68.4825 35.3169 63.3927 35.8989 55.3807L35.9109 55.3887ZM35.575 41.2247C30.7156 41.9903 27.5867 48.0372 27.0516 54.7247C31.8993 55.2755 36.5243 49.1935 35.5594 41.2167L35.575 41.2247ZM32.4773 27.3337C27.9109 29.0407 25.9773 35.6228 26.7468 42.2987C31.6062 41.8925 34.989 35.0409 32.4773 27.3337ZM26.6648 14.1817C22.4656 16.7755 22.0125 23.6817 24.0593 30.1227C28.7234 28.775 30.7116 21.3336 26.6413 14.1817H26.6648ZM18.0476 2.21671C14.4773 5.61121 15.5593 12.5997 18.9187 18.5877C23.2585 16.3455 23.6765 8.57572 18.0476 2.21671ZM2.19959 16.2047C6.00039 20.4391 11.6176 22.5524 15.9886 20.2633C12.5824 14.2985 5.72259 12.8219 2.19959 16.2047ZM8.2699 24.6695C11.0355 29.4468 16.1058 32.564 20.8399 31.1812C18.7227 24.7632 12.4219 22.0757 8.2699 24.6695ZM12.3988 33.9703C14.1215 39.1109 18.4926 43.1344 23.3988 42.7047C22.5824 36.0524 16.9769 32.2517 12.3988 33.9703ZM14.5863 43.7945C15.2738 49.1304 18.7855 53.9355 23.6801 54.4705C24.1645 47.8338 19.4106 43.0055 14.5824 43.7985L14.5863 43.7945ZM14.8207 53.8065C14.473 59.1776 16.9848 64.5955 21.6801 66.0835C23.4535 59.5874 19.6996 53.9815 14.8168 53.8105L14.8207 53.8065ZM13.1215 63.701C11.727 68.9237 13.1215 74.806 17.3871 77.189C20.4652 71.0874 17.8636 64.834 13.1176 63.705L13.1215 63.701ZM9.45347 73.1698C6.97687 78.0643 7.08237 84.1928 10.8168 87.3688C15.1879 81.9118 13.9535 75.2048 9.45347 73.1698ZM0.629274 98.4468C0.0706839 98.8765 -0.159785 99.5171 0.117555 99.8999C0.394895 100.283 1.11756 100.236 1.68786 99.7944V99.7983C14.3009 90.0835 22.6999 75.9004 25.1569 60.1693C27.6139 44.4423 23.9342 28.3684 14.8869 15.2744C32.4769 41.6454 27.4219 78.5163 0.652853 98.4223L0.629274 98.4468Z" fill="#1215e0"/>
</svg>
