<svg width="36" height="101" viewBox="0 0 36 101" fill="none" xmlns="http://www.w3.org/2000/svg">
<path d="M22.6993 12.9467C28.6602 10.7045 33.4103 6.06781 35.7933 0.157715C29.3636 0.321775 22.7113 6.90381 22.6993 12.9467ZM7.5823 82.7127C12.0589 80.6424 18.0473 84.0018 22.4413 89.4783C18.7577 92.7049 11.2813 90.0525 7.5933 82.7166L7.5823 82.7127ZM2.4182 69.3417C7.2073 68.1776 12.3713 72.6073 15.5002 78.6425C11.2463 81.1113 4.5122 77.1581 2.4342 69.3691L2.4182 69.3417ZM0.000202179 55.3887C4.9182 55.1895 9.1408 60.5059 10.9772 67.0177C6.3288 68.4825 0.594204 63.3927 0.0122032 55.3807L0.000202179 55.3887ZM0.33614 41.2247C5.19554 41.9903 8.32444 48.0372 8.85954 54.7247C4.01184 55.2755 -0.613159 49.1935 0.351742 41.2167L0.33614 41.2247ZM3.43384 27.3337C8.00024 29.0407 9.93384 35.6228 9.16434 42.2987C4.30494 41.8925 0.922142 35.0409 3.43384 27.3337ZM9.24634 14.1817C13.4455 16.7755 13.8986 23.6817 11.8518 30.1227C7.18774 28.775 5.19954 21.3336 9.26984 14.1817H9.24634ZM17.8635 2.21671C21.4338 5.61121 20.3518 12.5997 16.9924 18.5877C12.6526 16.3455 12.2346 8.57572 17.8635 2.21671ZM33.7115 16.2047C29.9107 20.4391 24.2935 22.5524 19.9225 20.2633C23.3287 14.2985 30.1885 12.8219 33.7115 16.2047ZM27.6412 24.6695C24.8756 29.4468 19.8053 32.564 15.0712 31.1812C17.1884 24.7632 23.4892 22.0757 27.6412 24.6695ZM23.5123 33.9703C21.7896 39.1109 17.4185 43.1344 12.5123 42.7047C13.3287 36.0524 18.9342 32.2517 23.5123 33.9703ZM21.3248 43.7945C20.6373 49.1304 17.1256 53.9355 12.231 54.4705C11.7467 47.8338 16.5005 43.0055 21.3287 43.7985L21.3248 43.7945ZM21.0905 53.8065C21.4381 59.1776 18.9264 64.5955 14.2311 66.0835C12.4577 59.5874 16.2116 53.9815 21.0944 53.8105L21.0905 53.8065ZM22.7897 63.701C24.1842 68.9237 22.7897 74.806 18.5241 77.189C15.446 71.0874 18.0475 64.834 22.7936 63.705L22.7897 63.701ZM26.4577 73.1698C28.9343 78.0643 28.8288 84.1928 25.0944 87.3688C20.7233 81.9118 21.9577 75.2048 26.4577 73.1698ZM35.2819 98.4468C35.8404 98.8765 36.0709 99.5171 35.7936 99.8999C35.5162 100.283 34.7936 100.236 34.2233 99.7944V99.7983C21.6103 90.0835 13.2113 75.9004 10.7543 60.1693C8.29728 44.4423 11.977 28.3684 21.0243 15.2744C3.43428 41.6454 8.48928 78.5163 35.2583 98.4223L35.2819 98.4468Z" fill="#DDE1E7"/>
</svg>
