<svg width="26" height="25" viewBox="0 0 26 25" fill="none" xmlns="http://www.w3.org/2000/svg">
<path fill-rule="evenodd" clip-rule="evenodd" d="M13.4585 0C6.55494 0 0.958496 5.59644 0.958496 12.5C0.958496 19.4036 6.55494 25 13.4585 25C20.3621 25 25.9585 19.4036 25.9585 12.5C25.9585 5.59644 20.3621 0 13.4585 0ZM7.89275 9.70199H10.6362V17.945H7.89275V9.70199ZM10.8163 7.15259C10.7985 6.34436 10.2206 5.72877 9.28204 5.72877C8.34351 5.72877 7.72993 6.34436 7.72993 7.15259C7.72993 7.94407 8.32537 8.57739 9.24643 8.57739H9.26396C10.2206 8.57739 10.8163 7.94407 10.8163 7.15259ZM17.3718 9.50877C19.1772 9.50877 20.5306 10.6872 20.5306 13.2191L20.5305 17.9454H17.7871V13.5353C17.7871 12.4276 17.3901 11.6718 16.397 11.6718C15.639 11.6718 15.1876 12.1813 14.9893 12.6735C14.9167 12.8499 14.8989 13.0956 14.8989 13.342V17.9456H12.1551C12.1551 17.9456 12.1913 10.476 12.1551 9.70255H14.8989V10.8701C15.2631 10.3088 15.9152 9.50877 17.3718 9.50877Z" fill="#1215e0"/>
</svg>
