<svg width="183" height="153" viewBox="0 0 183 153" fill="none" xmlns="http://www.w3.org/2000/svg">
<path opacity="0.3" fill-rule="evenodd" clip-rule="evenodd" d="M2.99796 94.6104C-1.13563 100.455 -1.01175 107.51 3.4757 112.179C4.54731 113.31 5.86423 114.242 7.36679 114.933C13.0501 117.515 17.3141 114.542 21.2255 117.255C26.7989 121.122 21.4614 129.463 25.1446 139.771C26.7274 144.201 28.7571 151.054 34.8494 152.236C41.1728 153.462 48.308 147.974 49.8864 146.76C60.6084 138.514 58.3581 128.89 66.5223 124.666C72.2215 121.718 79.6672 123.273 83.6605 124.965C86.1405 126.016 87.6153 127.665 89.4707 129.318C91.4049 131.04 94.2269 131.75 97.1566 131.584C103.475 131.226 111.97 127.372 112.527 121.066C112.672 119.425 112.287 117.838 111.696 116.356C109.626 111.159 105.092 106.633 100.608 103.004C94.2278 97.8392 86.5461 95.0857 78.5224 92.0885C74.2474 90.4917 70.3475 88.4298 67.4682 85.2739C62.1397 79.4332 68.3264 75.6611 64.0887 51.5439C63.3969 47.6063 63.0058 41.7172 58.4432 39.8924C56.5066 39.1177 54.0606 39.377 51.9015 40.1666C47.7666 41.6789 43.23 44.8606 41.7 48.6429C38.7387 55.9641 48.1684 62.9732 42.8367 70.0265C39.186 74.856 32.5329 73.459 23.092 77.5008C17.4273 79.9262 10.0765 84.6021 2.99796 94.6104Z" fill="#DDE1E7"/>
<path opacity="0.3" fill-rule="evenodd" clip-rule="evenodd" d="M179.904 57.8031C184.037 51.9587 183.914 44.903 179.426 40.235C178.355 39.1036 177.038 38.1714 175.535 37.4805C169.852 34.8981 165.588 37.8719 161.676 35.158C156.103 31.291 161.44 22.9502 157.757 12.6423C156.174 8.21268 154.145 1.35905 148.052 0.177502C141.729 -1.04897 134.594 4.43904 133.015 5.65316C122.293 13.9 124.544 23.5236 116.38 27.7473C110.68 30.6957 103.235 29.1401 99.2414 27.4483C96.7614 26.3976 95.2866 24.7483 93.4311 23.0959C91.4969 21.3737 88.6749 20.6632 85.7452 20.8291C79.4272 21.1872 70.9319 25.0416 70.3747 31.348C70.2295 32.9885 70.615 34.5759 71.2054 36.0573C73.2758 41.2547 77.8102 45.7805 82.2941 49.4099C88.6741 54.5742 96.3557 57.3278 104.379 60.3249C108.654 61.9218 112.554 63.9836 115.434 67.1396C120.762 72.9803 114.575 76.7524 118.813 100.87C119.505 104.807 119.896 110.696 124.459 112.521C126.395 113.296 128.841 113.036 131 112.247C135.135 110.735 139.672 107.553 141.202 103.771C144.163 96.4494 134.733 89.4402 140.065 82.387C143.716 77.5575 150.369 78.9545 159.81 74.9126C165.475 72.4873 172.825 67.8114 179.904 57.8031Z" fill="#DDE1E7"/>
<path d="M96.0189 41.3839C96.0189 41.3839 112.401 19.42 107.398 14.8322C104.853 12.4976 100.76 18.6253 94.1224 18.6253C87.4845 18.6253 87.4845 12.9357 80.8465 12.9357C74.2086 12.9357 74.2086 18.6253 67.5707 18.6253C60.9327 18.6253 56.8381 12.5014 54.2948 14.8322C49.2898 19.4181 65.6741 41.3839 65.6741 41.3839L80.8465 45.177L96.0189 41.3839Z" fill="#1257e0"/>
<path d="M100.514 50.8667C111.404 61.9729 118.778 73.1721 118.778 88.7977C118.778 115.349 101.803 122.936 80.8466 122.936C59.8897 122.936 42.9155 115.349 42.9155 88.7977C42.9155 73.1721 50.2893 61.9729 61.1793 50.8667L80.8466 47.0736L100.514 50.8667Z" fill="#1257e0"/>
<path d="M100.76 41.3839C103.379 41.3839 105.502 43.5067 105.502 46.1253C105.502 48.7439 103.379 50.8667 100.76 50.8667H60.9328C58.3142 50.8667 56.1914 48.7439 56.1914 46.1253C56.1914 43.5067 58.3142 41.3839 60.9328 41.3839H100.76Z" fill="#FF32A9"/>
<path d="M149.122 60.3495H107.398C105.303 60.3495 103.605 62.0477 103.605 64.1426V119.143C103.605 121.237 105.303 122.936 107.398 122.936H149.122C151.217 122.936 152.916 121.237 152.916 119.143V64.1426C152.916 62.0477 151.217 60.3495 149.122 60.3495Z" fill="#468EF1"/>
<path d="M144.666 69.9357H113.166C111.923 69.9357 110.916 70.7565 110.916 71.769V79.1023C110.916 80.1149 111.923 80.9357 113.166 80.9357H144.666C145.908 80.9357 146.916 80.1149 146.916 79.1023V71.769C146.916 70.7565 145.908 69.9357 144.666 69.9357Z" fill="white"/>
<path d="M118.778 92.5908H113.088C112.041 92.5908 111.191 91.7417 111.191 90.6943C111.191 89.6468 112.041 88.7977 113.088 88.7977H118.778C119.825 88.7977 120.674 89.6468 120.674 90.6943C120.674 91.7417 119.825 92.5908 118.778 92.5908Z" fill="white"/>
<path d="M118.778 100.177H113.088C112.041 100.177 111.191 99.3279 111.191 98.2805C111.191 97.233 112.041 96.3839 113.088 96.3839H118.778C119.825 96.3839 120.674 97.233 120.674 98.2805C120.674 99.3279 119.825 100.177 118.778 100.177Z" fill="white"/>
<path d="M118.778 107.763H113.088C112.041 107.763 111.191 106.914 111.191 105.867C111.191 104.819 112.041 103.97 113.088 103.97H118.778C119.825 103.97 120.674 104.819 120.674 105.867C120.674 106.914 119.825 107.763 118.778 107.763Z" fill="white"/>
<path d="M118.778 115.349H113.088C112.041 115.349 111.191 114.5 111.191 113.453C111.191 112.406 112.041 111.556 113.088 111.556H118.778C119.825 111.556 120.674 112.406 120.674 113.453C120.674 114.5 119.825 115.349 118.778 115.349Z" fill="white"/>
<path d="M132.053 92.5908H126.364C125.316 92.5908 124.467 91.7417 124.467 90.6943C124.467 89.6468 125.316 88.7977 126.364 88.7977H132.053C133.101 88.7977 133.95 89.6468 133.95 90.6943C133.95 91.7417 133.101 92.5908 132.053 92.5908Z" fill="white"/>
<path d="M132.053 100.177H126.364C125.316 100.177 124.467 99.3279 124.467 98.2805C124.467 97.233 125.316 96.3839 126.364 96.3839H132.053C133.101 96.3839 133.95 97.233 133.95 98.2805C133.95 99.3279 133.101 100.177 132.053 100.177Z" fill="white"/>
<path d="M132.053 107.763H126.364C125.316 107.763 124.467 106.914 124.467 105.867C124.467 104.819 125.316 103.97 126.364 103.97H132.053C133.101 103.97 133.95 104.819 133.95 105.867C133.95 106.914 133.101 107.763 132.053 107.763Z" fill="white"/>
<path d="M132.053 115.349H126.364C125.316 115.349 124.467 114.5 124.467 113.453C124.467 112.406 125.316 111.556 126.364 111.556H132.053C133.101 111.556 133.95 112.406 133.95 113.453C133.95 114.5 133.101 115.349 132.053 115.349Z" fill="white"/>
<path d="M145.329 92.5908H139.64C138.592 92.5908 137.743 91.7417 137.743 90.6943C137.743 89.6468 138.592 88.7977 139.64 88.7977H145.329C146.377 88.7977 147.226 89.6468 147.226 90.6943C147.226 91.7417 146.377 92.5908 145.329 92.5908Z" fill="white"/>
<path d="M145.329 100.177H139.64C138.592 100.177 137.743 99.3279 137.743 98.2805C137.743 97.233 138.592 96.3839 139.64 96.3839H145.329C146.377 96.3839 147.226 97.233 147.226 98.2805C147.226 99.3279 146.377 100.177 145.329 100.177Z" fill="white"/>
<path d="M145.329 107.763H139.64C138.592 107.763 137.743 106.914 137.743 105.867C137.743 104.819 138.592 103.97 139.64 103.97H145.329C146.377 103.97 147.226 104.819 147.226 105.867C147.226 106.914 146.377 107.763 145.329 107.763Z" fill="white"/>
<path d="M145.329 115.349H139.64C138.592 115.349 137.743 114.5 137.743 113.453C137.743 112.406 138.592 111.556 139.64 111.556H145.329C146.377 111.556 147.226 112.406 147.226 113.453C147.226 114.5 146.377 115.349 145.329 115.349Z" fill="white"/>
<path d="M83.4025 82.1463H77.5975C75.9976 82.1463 74.6962 80.8417 74.6962 79.238C74.6962 77.6344 75.9976 76.3298 77.5975 76.3298H86.7994C88.0962 76.3298 89.1475 75.2763 89.1475 73.9761C89.1475 72.6762 88.0965 71.6224 86.7994 71.6224H83.3424V69.3537C83.3424 68.0538 82.2914 67 80.9944 67C79.6976 67 78.6463 68.0535 78.6463 69.3537V71.6224H77.5975C73.4085 71.6224 70 75.0387 70 79.238C70 83.4374 73.4082 86.8537 77.5975 86.8537H83.4025C85.0024 86.8537 86.3038 88.1583 86.3038 89.762C86.3038 91.3656 85.0024 92.6702 83.4025 92.6702H74.2006C72.9038 92.6702 71.8525 93.7237 71.8525 95.0239C71.8525 96.3238 72.9035 97.3776 74.2006 97.3776H78.6463V99.6463C78.6463 100.946 79.6973 102 80.9944 102C82.2911 102 83.3424 100.946 83.3424 99.6463V97.3776H83.4025C87.5915 97.3776 91 93.9613 91 89.762C91 85.5626 87.5918 82.1463 83.4025 82.1463Z" fill="white"/>
</svg>
