<svg width="366" height="376" viewBox="0 0 366 376" fill="none" xmlns="http://www.w3.org/2000/svg">
<g filter="url(#filter0_d)">
<rect x="20" y="16" width="325.2" height="157.673" rx="5" fill="white"/>
</g>
<rect x="45.6211" y="73.1563" width="274.942" height="11.8254" rx="5.91272" fill="#E4E9F0"/>
<rect x="45.6211" y="116.516" width="274.942" height="11.8254" rx="5.91272" fill="#E4E9F0"/>
<rect x="45.6211" y="138.196" width="234.538" height="11.8254" rx="5.91272" fill="#E4E9F0"/>
<rect x="75.1836" y="94.8363" width="130.08" height="11.8254" rx="5.91272" fill="#4AD7A0"/>
<rect x="45.6211" y="94.8363" width="23.6509" height="11.8254" rx="5.91272" fill="#4AD7A0"/>
<path d="M52.5186 101.432C52.5186 102.798 53.4053 103.705 54.5136 103.705C55.2103 103.705 55.7091 103.374 55.9704 102.995V103.634H57.0867V99.261H55.9704V99.8846C55.7091 99.5215 55.2262 99.1899 54.5216 99.1899C53.4053 99.1899 52.5186 100.066 52.5186 101.432ZM55.9704 101.448C55.9704 102.277 55.4162 102.734 54.8066 102.734C54.2128 102.734 53.6507 102.261 53.6507 101.432C53.6507 100.603 54.2128 100.161 54.8066 100.161C55.4162 100.161 55.9704 100.619 55.9704 101.448Z" fill="white"/>
<path d="M57.805 101.432C57.805 102.798 58.6917 103.705 59.808 103.705C60.4968 103.705 60.9876 103.39 61.2489 102.987V103.634H62.3731V97.7927H61.2489V99.8688C60.948 99.4583 60.3938 99.1899 59.8159 99.1899C58.6917 99.1899 57.805 100.066 57.805 101.432ZM61.2568 101.448C61.2568 102.277 60.7026 102.734 60.093 102.734C59.4992 102.734 58.9371 102.261 58.9371 101.432C58.9371 100.603 59.4992 100.161 60.093 100.161C60.7026 100.161 61.2568 100.619 61.2568 101.448Z" fill="white"/>
<path d="M45.7129 41.9096H50.0825L52.6269 48.4192L55.2042 41.9096H59.4588L53.0524 57.3198H48.771L50.5245 53.2364L45.7129 41.9096Z" fill="#1257e0"/>
<path d="M63.8907 41.6506C60.6076 41.6506 58.5322 44.595 58.5322 47.5272C58.5322 50.8268 60.8077 53.4426 63.8284 53.4426C66.0819 53.4426 66.9315 52.0698 66.9315 52.0698V53.1393H70.7426V41.9098H66.9315V42.9307C66.9315 42.9307 65.9836 41.6506 63.8907 41.6506ZM64.7014 45.2593C66.2163 45.2593 66.998 46.458 66.998 47.5395C66.998 48.7041 66.1605 49.8471 64.7014 49.8471C63.4921 49.8471 62.3994 48.8589 62.3994 47.5891C62.3994 46.3013 63.2784 45.2593 64.7014 45.2593Z" fill="#1257e0"/>
<path d="M72.0557 53.1391V36.9513H76.0418V42.9694C76.0418 42.9694 76.9888 41.6519 78.9717 41.6519C81.3973 41.6519 82.8185 43.4592 82.8185 46.0417V53.1391H78.8613V47.014C78.8613 46.14 78.445 45.2957 77.5021 45.2957C76.5421 45.2957 76.0418 46.1528 76.0418 47.014V53.1391H72.0557Z" fill="#1257e0"/>
<path d="M89.6147 41.6519C85.8548 41.6519 83.6162 44.5108 83.6162 47.5739C83.6162 51.0596 86.3267 53.4426 89.6288 53.4426C92.8295 53.4426 95.6301 51.1678 95.6301 47.6323C95.6301 43.7638 92.6978 41.6519 89.6147 41.6519ZM89.6505 45.2924C90.9786 45.2924 91.8975 46.3984 91.8975 47.5781C91.8975 48.5841 91.0414 49.825 89.6505 49.825C88.3762 49.825 87.4199 48.8028 87.4199 47.5671C87.4199 46.3766 88.215 45.2924 89.6505 45.2924Z" fill="#1257e0"/>
<path d="M102.271 41.6519C98.5113 41.6519 96.2725 44.5108 96.2725 47.5739C96.2725 51.0596 98.983 53.4426 102.285 53.4426C105.486 53.4426 108.286 51.1678 108.286 47.6323C108.286 43.7638 105.354 41.6519 102.271 41.6519ZM102.307 45.2924C103.635 45.2924 104.554 46.3984 104.554 47.5781C104.554 48.5841 103.698 49.825 102.307 49.825C101.032 49.825 100.076 48.8028 100.076 47.5671C100.076 46.3766 100.871 45.2924 102.307 45.2924Z" fill="#1257e0"/>
<path d="M111.432 53.3775C112.894 53.3775 114.079 52.1924 114.079 50.7305C114.079 49.2687 112.894 48.0836 111.432 48.0836C109.97 48.0836 108.785 49.2687 108.785 50.7305C108.785 52.1924 109.97 53.3775 111.432 53.3775Z" fill="#1257e0"/>
<path d="M114.949 47.1112H110.184L114.413 36.9513H119.16L114.949 47.1112Z" fill="#1257e0"/>
<g filter="url(#filter1_d)">
<rect x="20" y="194" width="325.2" height="157.673" rx="5" fill="white"/>
</g>
<rect x="45.6221" y="251.156" width="274.942" height="11.8254" rx="5.91272" fill="#E4E9F0"/>
<rect x="45.6211" y="294.516" width="274.942" height="11.8254" rx="5.91272" fill="#E4E9F0"/>
<rect x="45.6211" y="316.196" width="234.538" height="11.8254" rx="5.91272" fill="#E4E9F0"/>
<rect x="75.1836" y="272.836" width="130.08" height="11.8254" rx="5.91272" fill="#4AD7A0"/>
<rect x="45.6211" y="272.836" width="23.6509" height="11.8254" rx="5.91272" fill="#4AD7A0"/>
<path d="M52.5186 279.432C52.5186 280.798 53.4053 281.705 54.5136 281.705C55.2103 281.705 55.7091 281.374 55.9704 280.995V281.634H57.0867V277.261H55.9704V277.885C55.7091 277.521 55.2262 277.19 54.5216 277.19C53.4053 277.19 52.5186 278.066 52.5186 279.432ZM55.9704 279.448C55.9704 280.277 55.4162 280.734 54.8066 280.734C54.2128 280.734 53.6507 280.261 53.6507 279.432C53.6507 278.603 54.2128 278.161 54.8066 278.161C55.4162 278.161 55.9704 278.619 55.9704 279.448Z" fill="white"/>
<path d="M57.805 279.432C57.805 280.798 58.6917 281.705 59.808 281.705C60.4968 281.705 60.9876 281.39 61.2489 280.987V281.634H62.3731V275.793H61.2489V277.869C60.948 277.458 60.3938 277.19 59.8159 277.19C58.6917 277.19 57.805 278.066 57.805 279.432ZM61.2568 279.448C61.2568 280.277 60.7026 280.734 60.093 280.734C59.4992 280.734 58.9371 280.261 58.9371 279.432C58.9371 278.603 59.4992 278.161 60.093 278.161C60.7026 278.161 61.2568 278.619 61.2568 279.448Z" fill="white"/>
<path d="M45.7129 212.094V232.937L50.0899 236.197L63.4513 229.094V223.855L52.7391 220.536L54.6973 225.252L57.7497 226.765L50.6658 230.666V213.492L45.7129 212.094Z" fill="#1257e0"/>
<path d="M74.9839 228.026C74.9839 229.188 74.2439 229.865 73.0314 229.865H70.6066V226.1H72.9684C74.1651 226.1 74.9839 226.829 74.9839 228.026ZM74.7005 222.769C74.7005 223.88 73.9919 224.487 72.8267 224.487H70.6066V221.034H72.8267C73.9919 221.034 74.7005 221.676 74.7005 222.769ZM76.7789 228.234C76.7789 226.794 75.8342 225.51 74.669 225.285C75.724 224.868 76.527 223.984 76.527 222.526C76.527 220.826 75.2988 219.421 72.9842 219.421H68.8115V231.478H73.1889C75.4248 231.478 76.7789 230.073 76.7789 228.234Z" fill="#1257e0"/>
<path d="M78.5721 231.478H80.3672V221.919H78.5721V231.478ZM79.4854 220.653C80.1152 220.653 80.6191 220.098 80.6191 219.386C80.6191 218.675 80.1152 218.12 79.4854 218.12C78.8398 218.12 78.3359 218.675 78.3359 219.386C78.3359 220.098 78.8398 220.653 79.4854 220.653Z" fill="#1257e0"/>
<path d="M88.723 231.478H90.5023V225.84C90.5023 223.168 88.975 221.763 86.9438 221.763C85.9045 221.763 84.944 222.231 84.3614 223.012V221.919H82.5664V231.478H84.3614V226.135C84.3614 224.383 85.2275 223.481 86.5501 223.481C87.857 223.481 88.723 224.383 88.723 226.135V231.478Z" fill="#1257e0"/>
<path d="M92.0362 226.655C92.0362 229.605 93.847 231.634 96.1301 231.634C97.5473 231.634 98.5865 230.854 99.1376 230.038V231.634C99.1376 233.543 98.0984 234.479 96.7127 234.479C95.4688 234.479 94.5083 233.803 94.2406 232.814H92.4613C92.6818 234.93 94.3981 236.197 96.7127 236.197C99.421 236.197 100.948 234.237 100.948 231.634V221.919H99.1376V223.307C98.6022 222.492 97.5473 221.763 96.1301 221.763C93.847 221.763 92.0362 223.706 92.0362 226.655ZM99.1376 226.69C99.1376 228.754 97.8622 229.917 96.508 229.917C95.1696 229.917 93.8785 228.72 93.8785 226.655C93.8785 224.591 95.1696 223.481 96.508 223.481C97.8622 223.481 99.1376 224.643 99.1376 226.69Z" fill="#1257e0"/>
<defs>
<filter id="filter0_d" x="0" y="0" width="365.2" height="197.673" filterUnits="userSpaceOnUse" color-interpolation-filters="sRGB">
<feFlood flood-opacity="0" result="BackgroundImageFix"/>
<feColorMatrix in="SourceAlpha" type="matrix" values="0 0 0 0 0 0 0 0 0 0 0 0 0 0 0 0 0 0 127 0"/>
<feOffset dy="4"/>
<feGaussianBlur stdDeviation="10"/>
<feColorMatrix type="matrix" values="0 0 0 0 0 0 0 0 0 0 0 0 0 0 0 0 0 0 0.1 0"/>
<feBlend mode="normal" in2="BackgroundImageFix" result="effect1_dropShadow"/>
<feBlend mode="normal" in="SourceGraphic" in2="effect1_dropShadow" result="shape"/>
</filter>
<filter id="filter1_d" x="0" y="178" width="365.2" height="197.673" filterUnits="userSpaceOnUse" color-interpolation-filters="sRGB">
<feFlood flood-opacity="0" result="BackgroundImageFix"/>
<feColorMatrix in="SourceAlpha" type="matrix" values="0 0 0 0 0 0 0 0 0 0 0 0 0 0 0 0 0 0 127 0"/>
<feOffset dy="4"/>
<feGaussianBlur stdDeviation="10"/>
<feColorMatrix type="matrix" values="0 0 0 0 0 0 0 0 0 0 0 0 0 0 0 0 0 0 0.1 0"/>
<feBlend mode="normal" in2="BackgroundImageFix" result="effect1_dropShadow"/>
<feBlend mode="normal" in="SourceGraphic" in2="effect1_dropShadow" result="shape"/>
</filter>
</defs>
</svg>
