<svg width="644" height="386" viewBox="0 0 644 386" fill="none" xmlns="http://www.w3.org/2000/svg">
<circle cx="135.5" cy="361.5" r="10.5" fill="url(#paint0_linear)"/>
<path opacity="0.3" fill-rule="evenodd" clip-rule="evenodd" d="M325.49 46.4247C319.334 26.6397 302.935 14.5286 284.362 16.6585C279.889 17.138 275.442 18.532 271.224 20.7775C255.337 29.3249 254.681 44.3666 241.6 48.6036C222.96 54.6411 213.19 27.6985 183.092 18.0679C170.159 13.9294 150.882 6.56099 137.492 18.5112C123.593 30.9146 123.669 56.984 123.686 62.7511C123.801 101.925 149.817 113.652 145.189 139.87C141.959 158.171 125.338 172.58 114.457 178.801C107.699 182.665 101.331 183.163 94.2886 184.531C86.948 185.958 80.371 191.207 75.6152 198.244C65.3594 213.419 59.3047 239.749 72.7907 252.112C76.2984 255.329 80.6148 257.23 85.0474 258.473C100.597 262.838 118.926 260.35 135.111 256.404C158.14 250.789 177.922 237.941 198.863 224.734C210.02 217.697 221.586 212.341 233.872 211.257C256.608 209.251 254.413 230.122 317.151 262.738C327.395 268.063 341.586 277.51 353.77 270.211C358.942 267.114 362.636 261.027 364.61 254.669C368.392 242.492 369.048 226.457 363.057 216.29C351.458 196.609 318.852 206.004 312.024 181.337C307.348 164.447 322.216 151.584 329.499 122.747C333.868 105.444 336.032 80.3054 325.49 46.4247Z" fill="#DDE1E7"/>
<circle cx="360.5" cy="358.5" r="23.5" fill="url(#paint1_linear)"/>
<circle cx="276" cy="183" r="23" fill="url(#paint2_linear)"/>
<path opacity="0.3" fill-rule="evenodd" clip-rule="evenodd" d="M466.234 377.211C485.504 380.033 502.432 371.057 508.174 354.45C509.585 350.464 510.21 346.129 510.022 341.641C509.233 324.703 496.751 318.036 498.476 305.227C500.933 286.976 527.737 289.643 548.129 268.048C556.892 258.768 570.97 245.425 566.283 229.22C561.419 212.4 539.293 201.872 534.398 199.543C501.151 183.723 480.64 201.006 460.301 186.431C446.102 176.257 440.644 156.315 439.793 144.565C439.265 137.268 441.43 131.669 443.132 125.144C444.905 118.342 443.129 110.635 439.098 103.746C430.404 88.8873 410.549 73.0566 394.591 79.4628C390.44 81.1287 387.074 84.0143 384.219 87.2658C374.202 98.6705 368.862 115.216 365.631 130.537C361.032 152.336 363.882 174.322 366.566 197.437C367.996 209.752 367.836 221.731 363.763 232.584C356.224 252.669 339.428 242.328 286.291 282.247C277.616 288.765 263.843 296.954 265.078 310.246C265.601 315.888 269.259 321.492 273.846 325.749C282.629 333.901 295.952 340.973 307.004 340.027C328.397 338.194 333.684 306.741 357.364 310.978C373.579 313.879 378.439 331.706 399.92 349.596C412.809 360.33 433.236 372.379 466.234 377.211Z" fill="#DDE1E7"/>
<g filter="url(#filter0_d)">
<rect x="20" y="196" width="341.478" height="165.565" rx="5" fill="white"/>
</g>
<rect x="46.9043" y="256.017" width="288.704" height="12.4174" rx="6.20868" fill="#E4E9F0"/>
<rect x="46.9043" y="301.548" width="288.704" height="12.4174" rx="6.20868" fill="#E4E9F0"/>
<rect x="46.9043" y="324.313" width="246.278" height="12.4174" rx="6.20868" fill="#E4E9F0"/>
<rect x="77.9473" y="278.782" width="136.591" height="12.4174" rx="6.20868" fill="#4AD7A0"/>
<rect x="46.9043" y="278.782" width="24.8347" height="12.4174" rx="6.20868" fill="#4AD7A0"/>
<path d="M54.1475 285.708C54.1475 287.142 55.0785 288.095 56.2424 288.095C56.974 288.095 57.4977 287.747 57.772 287.349V288.021H58.9442V283.429H57.772V284.083C57.4977 283.702 56.9906 283.354 56.2507 283.354C55.0785 283.354 54.1475 284.274 54.1475 285.708ZM57.772 285.725C57.772 286.595 57.1901 287.076 56.55 287.076C55.9265 287.076 55.3363 286.579 55.3363 285.708C55.3363 284.838 55.9265 284.374 56.55 284.374C57.1901 284.374 57.772 284.854 57.772 285.725Z" fill="white"/>
<path d="M59.6985 285.708C59.6985 287.142 60.6296 288.095 61.8018 288.095C62.525 288.095 63.0404 287.764 63.3148 287.341V288.021H64.4953V281.887H63.3148V284.067C62.9989 283.636 62.417 283.354 61.8101 283.354C60.6296 283.354 59.6985 284.274 59.6985 285.708ZM63.3231 285.725C63.3231 286.595 62.7412 287.076 62.101 287.076C61.4776 287.076 60.8873 286.579 60.8873 285.708C60.8873 284.838 61.4776 284.374 62.101 284.374C62.7412 284.374 63.3231 284.854 63.3231 285.725Z" fill="white"/>
<path d="M47 215V236.886L51.5961 240.309L65.6263 232.851V227.349L54.378 223.864L56.4341 228.816L59.6393 230.406L52.2009 234.501V216.467L47 215Z" fill="#1257e0"/>
<path d="M77.7362 231.729C77.7362 232.95 76.9591 233.66 75.686 233.66H73.1398V229.707H75.6199C76.8765 229.707 77.7362 230.472 77.7362 231.729ZM77.4386 226.209C77.4386 227.375 76.6946 228.013 75.4711 228.013H73.1398V224.388H75.4711C76.6946 224.388 77.4386 225.062 77.4386 226.209ZM79.6211 231.948C79.6211 230.436 78.6291 229.088 77.4055 228.851C78.5133 228.414 79.3566 227.485 79.3566 225.954C79.3566 224.169 78.0669 222.694 75.6364 222.694H71.2549V235.354H75.8513C78.1992 235.354 79.6211 233.879 79.6211 231.948Z" fill="#1257e0"/>
<path d="M81.504 235.354H83.3889V225.317H81.504V235.354ZM82.463 223.987C83.1244 223.987 83.6535 223.404 83.6535 222.657C83.6535 221.91 83.1244 221.327 82.463 221.327C81.7851 221.327 81.256 221.91 81.256 222.657C81.256 223.404 81.7851 223.987 82.463 223.987Z" fill="#1257e0"/>
<path d="M92.1631 235.354H94.0314V229.434C94.0314 226.628 92.4276 225.153 90.2947 225.153C89.2035 225.153 88.1949 225.645 87.5832 226.464V225.317H85.6983V235.354H87.5832V229.743C87.5832 227.904 88.4925 226.956 89.8814 226.956C91.2537 226.956 92.1631 227.904 92.1631 229.743V235.354Z" fill="#1257e0"/>
<path d="M95.6421 230.29C95.6421 233.387 97.5435 235.518 99.9409 235.518C101.429 235.518 102.52 234.698 103.099 233.842V235.518C103.099 237.522 102.008 238.506 100.553 238.506C99.2465 238.506 98.2379 237.795 97.9568 236.757H96.0885C96.32 238.979 98.1222 240.309 100.553 240.309C103.397 240.309 105 238.251 105 235.518V225.317H103.099V226.774C102.537 225.918 101.429 225.153 99.9409 225.153C97.5435 225.153 95.6421 227.193 95.6421 230.29ZM103.099 230.326C103.099 232.494 101.76 233.715 100.338 233.715C98.9323 233.715 97.5766 232.458 97.5766 230.29C97.5766 228.122 98.9323 226.956 100.338 226.956C101.76 226.956 103.099 228.177 103.099 230.326Z" fill="#1257e0"/>
<circle cx="362.5" cy="12.5" r="12.5" fill="url(#paint3_linear)"/>
<circle cx="169.5" cy="66.5" r="12.5" fill="url(#paint4_linear)"/>
<circle cx="463.5" cy="293.5" r="10.5" fill="url(#paint5_linear)"/>
<circle cx="487.5" cy="56.5" r="10.5" fill="url(#paint6_linear)"/>
<circle cx="186.5" cy="155.5" r="4.5" fill="url(#paint7_linear)"/>
<circle cx="56.5" cy="137.5" r="4.5" fill="url(#paint8_linear)"/>
<g filter="url(#filter1_d)">
<rect x="282" y="77" width="341.478" height="165.565" rx="5" fill="white"/>
</g>
<rect x="308.903" y="137.017" width="288.704" height="12.4174" rx="6.20868" fill="#E4E9F0"/>
<rect x="308.903" y="182.548" width="288.704" height="12.4174" rx="6.20868" fill="#E4E9F0"/>
<rect x="308.903" y="205.313" width="246.278" height="12.4174" rx="6.20868" fill="#E4E9F0"/>
<rect x="339.946" y="159.782" width="136.591" height="12.4174" rx="6.20868" fill="#4AD7A0"/>
<rect x="308.903" y="159.782" width="24.8347" height="12.4174" rx="6.20868" fill="#4AD7A0"/>
<path d="M316.146 166.708C316.146 168.142 317.078 169.095 318.241 169.095C318.973 169.095 319.497 168.747 319.771 168.349V169.021H320.943V164.429H319.771V165.083C319.497 164.702 318.99 164.354 318.25 164.354C317.078 164.354 316.146 165.274 316.146 166.708ZM319.771 166.725C319.771 167.595 319.189 168.076 318.549 168.076C317.926 168.076 317.335 167.579 317.335 166.708C317.335 165.838 317.926 165.374 318.549 165.374C319.189 165.374 319.771 165.854 319.771 166.725Z" fill="white"/>
<path d="M321.698 166.708C321.698 168.142 322.629 169.095 323.801 169.095C324.524 169.095 325.039 168.764 325.314 168.341V169.021H326.494V162.887H325.314V165.067C324.998 164.636 324.416 164.354 323.809 164.354C322.629 164.354 321.698 165.274 321.698 166.708ZM325.322 166.725C325.322 167.595 324.74 168.076 324.1 168.076C323.477 168.076 322.886 167.579 322.886 166.708C322.886 165.838 323.477 165.374 324.1 165.374C324.74 165.374 325.322 165.854 325.322 166.725Z" fill="white"/>
<path d="M309 104.207H313.588L316.26 111.042L318.966 104.207H323.434L316.707 120.388H312.211L314.052 116.1L309 104.207Z" fill="#1257e0"/>
<path d="M328.088 103.934C324.64 103.934 322.461 107.026 322.461 110.105C322.461 113.57 324.85 116.317 328.022 116.317C330.389 116.317 331.281 114.875 331.281 114.875V115.998H335.282V104.207H331.281V105.279C331.281 105.279 330.285 103.934 328.088 103.934ZM328.939 107.724C330.53 107.724 331.35 108.983 331.35 110.118C331.35 111.341 330.471 112.541 328.939 112.541C327.669 112.541 326.522 111.504 326.522 110.17C326.522 108.818 327.445 107.724 328.939 107.724Z" fill="#1257e0"/>
<path d="M336.661 115.998V99H340.847V105.319C340.847 105.319 341.841 103.936 343.923 103.936C346.47 103.936 347.963 105.834 347.963 108.545V115.998H343.807V109.566C343.807 108.649 343.37 107.762 342.38 107.762C341.372 107.762 340.847 108.662 340.847 109.566V115.998H336.661Z" fill="#1257e0"/>
<path d="M355.099 103.936C351.151 103.936 348.801 106.938 348.801 110.154C348.801 113.814 351.647 116.317 355.114 116.317C358.475 116.317 361.416 113.928 361.416 110.216C361.416 106.154 358.337 103.936 355.099 103.936ZM355.137 107.759C356.532 107.759 357.497 108.92 357.497 110.159C357.497 111.215 356.598 112.518 355.137 112.518C353.799 112.518 352.795 111.445 352.795 110.147C352.795 108.897 353.63 107.759 355.137 107.759Z" fill="#1257e0"/>
<path d="M368.389 103.936C364.441 103.936 362.09 106.938 362.09 110.154C362.09 113.814 364.936 116.317 368.404 116.317C371.764 116.317 374.705 113.928 374.705 110.216C374.705 106.154 371.626 103.936 368.389 103.936ZM368.426 107.759C369.821 107.759 370.786 108.92 370.786 110.159C370.786 111.215 369.887 112.518 368.426 112.518C367.088 112.518 366.084 111.445 366.084 110.147C366.084 108.897 366.919 107.759 368.426 107.759Z" fill="#1257e0"/>
<path d="M378.009 116.248C379.544 116.248 380.788 115.004 380.788 113.469C380.788 111.934 379.544 110.69 378.009 110.69C376.474 110.69 375.229 111.934 375.229 113.469C375.229 115.004 376.474 116.248 378.009 116.248Z" fill="#1257e0"/>
<path d="M381.702 109.668H376.698L381.139 99H386.124L381.702 109.668Z" fill="#1257e0"/>
<defs>
<filter id="filter0_d" x="0" y="180" width="381.478" height="205.565" filterUnits="userSpaceOnUse" color-interpolation-filters="sRGB">
<feFlood flood-opacity="0" result="BackgroundImageFix"/>
<feColorMatrix in="SourceAlpha" type="matrix" values="0 0 0 0 0 0 0 0 0 0 0 0 0 0 0 0 0 0 127 0"/>
<feOffset dy="4"/>
<feGaussianBlur stdDeviation="10"/>
<feColorMatrix type="matrix" values="0 0 0 0 0 0 0 0 0 0 0 0 0 0 0 0 0 0 0.1 0"/>
<feBlend mode="normal" in2="BackgroundImageFix" result="effect1_dropShadow"/>
<feBlend mode="normal" in="SourceGraphic" in2="effect1_dropShadow" result="shape"/>
</filter>
<filter id="filter1_d" x="262" y="61" width="381.478" height="205.565" filterUnits="userSpaceOnUse" color-interpolation-filters="sRGB">
<feFlood flood-opacity="0" result="BackgroundImageFix"/>
<feColorMatrix in="SourceAlpha" type="matrix" values="0 0 0 0 0 0 0 0 0 0 0 0 0 0 0 0 0 0 127 0"/>
<feOffset dy="4"/>
<feGaussianBlur stdDeviation="10"/>
<feColorMatrix type="matrix" values="0 0 0 0 0 0 0 0 0 0 0 0 0 0 0 0 0 0 0.1 0"/>
<feBlend mode="normal" in2="BackgroundImageFix" result="effect1_dropShadow"/>
<feBlend mode="normal" in="SourceGraphic" in2="effect1_dropShadow" result="shape"/>
</filter>
<linearGradient id="paint0_linear" x1="128.942" y1="353.291" x2="145.198" y2="366.408" gradientUnits="userSpaceOnUse">
<stop stop-color="#A3EDD0"/>
<stop offset="1" stop-color="#42DB9B"/>
</linearGradient>
<linearGradient id="paint1_linear" x1="345.823" y1="340.127" x2="382.205" y2="369.485" gradientUnits="userSpaceOnUse">
<stop stop-color="#A3EDD0"/>
<stop offset="1" stop-color="#42DB9B"/>
</linearGradient>
<linearGradient id="paint2_linear" x1="261.636" y1="165.018" x2="297.243" y2="193.752" gradientUnits="userSpaceOnUse">
<stop stop-color="#A3EDD0"/>
<stop offset="1" stop-color="#42DB9B"/>
</linearGradient>
<linearGradient id="paint3_linear" x1="354.693" y1="2.72727" x2="374.045" y2="18.3433" gradientUnits="userSpaceOnUse">
<stop stop-color="#A3EDD0"/>
<stop offset="1" stop-color="#42DB9B"/>
</linearGradient>
<linearGradient id="paint4_linear" x1="161.693" y1="56.7273" x2="181.045" y2="72.3433" gradientUnits="userSpaceOnUse">
<stop stop-color="#A3EDD0"/>
<stop offset="1" stop-color="#42DB9B"/>
</linearGradient>
<linearGradient id="paint5_linear" x1="456.942" y1="285.291" x2="473.198" y2="298.408" gradientUnits="userSpaceOnUse">
<stop stop-color="#A3EDD0"/>
<stop offset="1" stop-color="#42DB9B"/>
</linearGradient>
<linearGradient id="paint6_linear" x1="480.942" y1="48.2909" x2="497.198" y2="61.4084" gradientUnits="userSpaceOnUse">
<stop stop-color="#A3EDD0"/>
<stop offset="1" stop-color="#42DB9B"/>
</linearGradient>
<linearGradient id="paint7_linear" x1="183.69" y1="151.982" x2="190.656" y2="157.604" gradientUnits="userSpaceOnUse">
<stop stop-color="#A3EDD0"/>
<stop offset="1" stop-color="#42DB9B"/>
</linearGradient>
<linearGradient id="paint8_linear" x1="53.6896" y1="133.982" x2="60.6562" y2="139.604" gradientUnits="userSpaceOnUse">
<stop stop-color="#A3EDD0"/>
<stop offset="1" stop-color="#42DB9B"/>
</linearGradient>
</defs>
</svg>
