<svg width="615" height="284" viewBox="0 0 615 284" fill="none" xmlns="http://www.w3.org/2000/svg">
<path fill-rule="evenodd" clip-rule="evenodd" d="M238.215 121.538C238.55 121.783 238.623 122.252 238.378 122.586C237.942 123.183 237.504 123.772 237.064 124.355C236.814 124.685 236.344 124.751 236.013 124.501C235.683 124.251 235.617 123.781 235.867 123.451C236.302 122.874 236.736 122.291 237.167 121.701C237.412 121.367 237.881 121.294 238.215 121.538ZM231.49 130.107C231.804 130.378 231.839 130.851 231.569 131.165C230.605 132.283 229.634 133.372 228.657 134.433C228.376 134.737 227.902 134.757 227.597 134.476C227.293 134.195 227.273 133.721 227.554 133.416C228.52 132.368 229.48 131.291 230.433 130.186C230.703 129.872 231.177 129.837 231.49 130.107ZM222.536 139.605C222.821 139.906 222.807 140.38 222.506 140.665C221.433 141.68 220.354 142.664 219.271 143.617C218.96 143.891 218.486 143.861 218.213 143.55C217.939 143.239 217.969 142.765 218.28 142.492C219.349 141.55 220.415 140.578 221.476 139.575C221.777 139.29 222.252 139.304 222.536 139.605ZM212.636 148.115C212.886 148.445 212.822 148.916 212.492 149.166C211.314 150.061 210.135 150.922 208.955 151.751C208.616 151.989 208.149 151.907 207.91 151.568C207.672 151.229 207.754 150.762 208.093 150.523C209.257 149.705 210.422 148.855 211.585 147.972C211.915 147.721 212.385 147.785 212.636 148.115ZM201.869 155.484C202.081 155.84 201.964 156.3 201.608 156.512C200.336 157.27 199.066 157.993 197.802 158.681C197.438 158.88 196.983 158.745 196.785 158.382C196.587 158.018 196.721 157.562 197.085 157.364C198.332 156.685 199.585 155.971 200.841 155.223C201.197 155.011 201.657 155.128 201.869 155.484ZM190.322 161.583C190.491 161.961 190.322 162.405 189.944 162.574C188.589 163.18 187.245 163.749 185.915 164.281C185.531 164.435 185.094 164.248 184.94 163.864C184.786 163.479 184.973 163.043 185.358 162.889C186.669 162.364 187.995 161.803 189.331 161.205C189.709 161.036 190.153 161.205 190.322 161.583ZM178.142 166.269C178.263 166.665 178.041 167.085 177.645 167.206C176.213 167.647 174.806 168.046 173.426 168.406C173.025 168.511 172.615 168.271 172.511 167.87C172.406 167.469 172.646 167.06 173.047 166.955C174.406 166.6 175.793 166.207 177.204 165.773C177.6 165.651 178.02 165.873 178.142 166.269ZM165.46 169.373C165.527 169.782 165.25 170.168 164.841 170.235C163.336 170.481 161.883 170.679 160.49 170.832C160.078 170.877 159.707 170.58 159.662 170.169C159.617 169.757 159.914 169.386 160.325 169.341C161.693 169.191 163.119 168.997 164.599 168.754C165.008 168.687 165.393 168.965 165.46 169.373ZM148.809 170.316C148.841 169.903 149.202 169.595 149.615 169.627C150.282 169.679 150.99 169.717 151.737 169.738C152.151 169.75 152.478 170.095 152.466 170.509C152.454 170.923 152.109 171.249 151.695 171.237C150.925 171.216 150.192 171.177 149.498 171.123C149.085 171.09 148.777 170.729 148.809 170.316Z" fill="#DDE1E7"/>
<path fill-rule="evenodd" clip-rule="evenodd" d="M376.199 121.538C375.864 121.783 375.791 122.252 376.036 122.586C376.472 123.183 376.91 123.772 377.35 124.355C377.6 124.685 378.07 124.751 378.401 124.501C378.731 124.251 378.797 123.781 378.547 123.451C378.112 122.874 377.678 122.291 377.247 121.701C377.002 121.367 376.533 121.294 376.199 121.538ZM382.924 130.107C382.61 130.378 382.575 130.851 382.845 131.165C383.809 132.283 384.78 133.372 385.757 134.433C386.038 134.737 386.512 134.757 386.817 134.476C387.122 134.195 387.141 133.721 386.86 133.416C385.894 132.368 384.934 131.291 383.981 130.186C383.711 129.872 383.237 129.837 382.924 130.107ZM391.878 139.605C391.593 139.906 391.607 140.38 391.908 140.665C392.981 141.68 394.06 142.664 395.143 143.617C395.454 143.891 395.928 143.861 396.201 143.55C396.475 143.239 396.445 142.765 396.134 142.492C395.065 141.55 393.999 140.578 392.938 139.575C392.637 139.29 392.162 139.304 391.878 139.605ZM401.778 148.115C401.528 148.445 401.592 148.916 401.922 149.166C403.1 150.061 404.279 150.922 405.459 151.751C405.798 151.989 406.266 151.907 406.504 151.568C406.742 151.229 406.66 150.762 406.321 150.523C405.157 149.705 403.992 148.855 402.829 147.972C402.499 147.721 402.029 147.785 401.778 148.115ZM412.545 155.484C412.333 155.84 412.45 156.3 412.806 156.512C414.079 157.27 415.348 157.993 416.612 158.681C416.976 158.88 417.431 158.745 417.629 158.382C417.827 158.018 417.693 157.562 417.329 157.364C416.082 156.685 414.83 155.971 413.573 155.223C413.217 155.011 412.757 155.128 412.545 155.484ZM424.092 161.583C423.923 161.961 424.092 162.405 424.47 162.574C425.825 163.18 427.169 163.749 428.499 164.281C428.883 164.435 429.32 164.248 429.474 163.864C429.628 163.479 429.441 163.043 429.056 162.889C427.745 162.364 426.419 161.803 425.083 161.205C424.705 161.036 424.261 161.205 424.092 161.583ZM436.272 166.269C436.151 166.665 436.373 167.085 436.769 167.206C438.201 167.647 439.609 168.046 440.988 168.406C441.389 168.511 441.799 168.271 441.903 167.87C442.008 167.469 441.768 167.06 441.367 166.955C440.008 166.6 438.621 166.207 437.21 165.773C436.814 165.651 436.394 165.873 436.272 166.269ZM448.954 169.373C448.887 169.782 449.164 170.168 449.573 170.235C451.078 170.481 452.531 170.679 453.925 170.832C454.336 170.877 454.707 170.58 454.752 170.169C454.797 169.757 454.5 169.386 454.089 169.341C452.722 169.191 451.295 168.997 449.815 168.754C449.406 168.687 449.021 168.965 448.954 169.373ZM465.605 170.316C465.573 169.903 465.212 169.595 464.799 169.627C464.132 169.679 463.424 169.717 462.677 169.738C462.263 169.75 461.936 170.095 461.948 170.509C461.96 170.923 462.305 171.249 462.719 171.237C463.489 171.216 464.222 171.177 464.916 171.123C465.329 171.09 465.637 170.729 465.605 170.316Z" fill="#DDE1E7"/>
<path fill-rule="evenodd" clip-rule="evenodd" d="M292.979 121.394C293.393 121.394 293.729 121.729 293.729 122.144C293.729 122.939 293.722 123.731 293.709 124.517C293.702 124.931 293.36 125.261 292.946 125.254C292.532 125.247 292.202 124.906 292.209 124.492C292.222 123.714 292.229 122.931 292.229 122.144C292.229 121.729 292.565 121.394 292.979 121.394ZM292.545 133.15C292.957 133.185 293.263 133.548 293.228 133.961C293.092 135.553 292.93 137.124 292.744 138.671C292.695 139.082 292.322 139.375 291.91 139.326C291.499 139.277 291.206 138.903 291.255 138.492C291.439 136.961 291.599 135.409 291.734 133.834C291.769 133.421 292.132 133.115 292.545 133.15ZM290.693 147.139C291.1 147.217 291.367 147.61 291.289 148.017C290.987 149.589 290.661 151.133 290.315 152.648C290.222 153.052 289.82 153.304 289.416 153.212C289.012 153.12 288.76 152.717 288.852 152.314C289.195 150.815 289.517 149.289 289.815 147.734C289.893 147.327 290.287 147.061 290.693 147.139ZM287.377 160.854C287.773 160.975 287.996 161.395 287.875 161.791C287.406 163.327 286.916 164.827 286.41 166.29C286.274 166.681 285.847 166.889 285.456 166.753C285.064 166.618 284.857 166.191 284.992 165.799C285.493 164.354 285.977 162.871 286.441 161.352C286.562 160.956 286.981 160.733 287.377 160.854ZM282.592 174.128C282.972 174.293 283.147 174.734 282.983 175.114C282.339 176.602 281.683 178.039 281.019 179.423C280.839 179.796 280.391 179.954 280.018 179.774C279.645 179.595 279.487 179.147 279.666 178.774C280.322 177.407 280.97 175.988 281.606 174.519C281.77 174.139 282.212 173.964 282.592 174.128ZM276.304 186.758C276.661 186.968 276.78 187.428 276.57 187.785C275.728 189.214 274.891 190.557 274.067 191.811C273.839 192.158 273.374 192.254 273.028 192.027C272.682 191.799 272.585 191.334 272.813 190.988C273.623 189.754 274.448 188.432 275.277 187.024C275.487 186.667 275.947 186.548 276.304 186.758ZM268.305 198.366C268.618 198.638 268.651 199.112 268.379 199.424C267.818 200.07 267.279 200.657 266.767 201.183C266.478 201.479 266.003 201.486 265.706 201.197C265.41 200.908 265.403 200.433 265.692 200.136C266.183 199.633 266.702 199.067 267.247 198.44C267.519 198.128 267.992 198.095 268.305 198.366Z" fill="#DDE1E7"/>
<path fill-rule="evenodd" clip-rule="evenodd" d="M321.435 121.394C321.021 121.394 320.685 121.729 320.685 122.144C320.685 122.939 320.692 123.731 320.705 124.517C320.712 124.931 321.054 125.261 321.468 125.254C321.882 125.247 322.212 124.906 322.205 124.492C322.192 123.714 322.185 122.931 322.185 122.144C322.185 121.729 321.849 121.394 321.435 121.394ZM321.87 133.15C321.457 133.185 321.151 133.548 321.186 133.961C321.322 135.553 321.484 137.124 321.67 138.671C321.719 139.082 322.093 139.375 322.504 139.326C322.915 139.277 323.208 138.903 323.159 138.492C322.975 136.961 322.815 135.409 322.681 133.834C322.645 133.421 322.282 133.115 321.87 133.15ZM323.721 147.139C323.314 147.217 323.047 147.61 323.126 148.017C323.427 149.589 323.753 151.133 324.1 152.648C324.192 153.052 324.594 153.304 324.998 153.212C325.402 153.12 325.654 152.717 325.562 152.314C325.219 150.815 324.897 149.289 324.599 147.734C324.521 147.327 324.128 147.061 323.721 147.139ZM327.037 160.854C326.641 160.975 326.418 161.395 326.539 161.791C327.008 163.327 327.498 164.827 328.004 166.29C328.14 166.681 328.567 166.889 328.958 166.753C329.35 166.618 329.557 166.191 329.422 165.799C328.921 164.354 328.438 162.871 327.973 161.352C327.852 160.956 327.433 160.733 327.037 160.854ZM331.822 174.128C331.442 174.293 331.267 174.734 331.431 175.114C332.075 176.602 332.731 178.039 333.395 179.423C333.575 179.796 334.023 179.954 334.396 179.774C334.769 179.595 334.927 179.147 334.748 178.774C334.092 177.407 333.444 175.988 332.808 174.519C332.644 174.139 332.202 173.964 331.822 174.128ZM338.11 186.758C337.753 186.968 337.634 187.428 337.845 187.785C338.686 189.214 339.524 190.557 340.347 191.811C340.575 192.158 341.04 192.254 341.386 192.027C341.732 191.799 341.829 191.334 341.601 190.988C340.791 189.754 339.966 188.432 339.137 187.024C338.927 186.667 338.467 186.548 338.11 186.758ZM346.109 198.366C345.796 198.638 345.763 199.112 346.035 199.424C346.596 200.07 347.135 200.657 347.647 201.183C347.936 201.479 348.411 201.486 348.708 201.197C349.005 200.908 349.011 200.433 348.722 200.136C348.232 199.633 347.712 199.067 347.167 198.44C346.895 198.128 346.422 198.095 346.109 198.366Z" fill="#DDE1E7"/>
<g filter="url(#filter0_d)">
<rect x="200" y="7" width="215" height="95.4439" rx="5" fill="white"/>
</g>
<path d="M324.685 74.3579H326.196C326.792 77.2658 328.909 79.0088 331.825 79.0088C334.591 79.0088 336.459 77.5771 336.983 75.3361H335.036C334.627 76.4922 333.515 77.2747 331.834 77.2747C330.074 77.2747 328.731 76.1987 328.224 74.3579H333.097V73.3086H328.028C328.01 73.0685 327.993 72.8284 327.993 72.5794C327.993 72.3304 328.01 72.0814 328.028 71.8502H333.097V70.8008H328.224C328.749 68.9778 330.082 67.8929 331.825 67.8929C333.471 67.8929 334.68 68.8444 335.045 70.1072H336.983C336.628 67.8484 334.6 66.1588 331.825 66.1588C328.926 66.1588 326.81 67.9107 326.205 70.8008H324.685V71.8502H326.054C326.036 72.0903 326.027 72.3304 326.027 72.5794C326.027 72.8284 326.036 73.0685 326.054 73.3086H324.685V74.3579Z" fill="url(#paint0_linear)"/>
<path d="M344.929 78.9999H346.85V76.4477H348.62V74.7581H346.85V66.1677H344.013C342.243 68.8266 340.358 71.859 338.669 74.7581V76.4477H344.929V78.9999ZM340.581 74.6692C341.897 72.4193 343.462 69.9204 344.84 67.8484H344.956V74.7937H340.581V74.6692Z" fill="url(#paint1_linear)"/>
<path d="M355.4 79.3112C358.388 79.3112 360.131 76.8479 360.131 72.5971C360.131 68.3375 358.362 65.8564 355.4 65.8564C352.421 65.8564 350.652 68.3375 350.652 72.5705C350.652 76.839 352.404 79.3112 355.4 79.3112ZM355.4 77.6571C353.657 77.6571 352.661 75.8786 352.661 72.5705C352.661 69.3068 353.675 67.5194 355.4 67.5194C357.126 67.5194 358.122 69.289 358.122 72.5705C358.122 75.8875 357.143 77.6571 355.4 77.6571Z" fill="url(#paint2_linear)"/>
<path d="M367.046 79.3112C370.034 79.3112 371.777 76.8479 371.777 72.5971C371.777 68.3375 370.007 65.8564 367.046 65.8564C364.067 65.8564 362.297 68.3375 362.297 72.5705C362.297 76.839 364.049 79.3112 367.046 79.3112ZM367.046 77.6571C365.303 77.6571 364.307 75.8786 364.307 72.5705C364.307 69.3068 365.32 67.5194 367.046 67.5194C368.771 67.5194 369.767 69.289 369.767 72.5705C369.767 75.8875 368.789 77.6571 367.046 77.6571Z" fill="url(#paint3_linear)"/>
<g opacity="0.4">
<path d="M248.883 79C251.622 79 253.267 77.6305 253.267 75.3718C253.267 73.6911 252.111 72.4639 250.377 72.2771V72.1259C251.64 71.9125 252.627 70.712 252.627 69.3692C252.627 67.395 251.177 66.1678 248.767 66.1678H243.609V79H248.883ZM245.601 67.7952H248.305C249.781 67.7952 250.644 68.4977 250.644 69.716C250.644 70.9699 249.728 71.6279 247.967 71.6279H245.601V67.7952ZM245.601 77.3727V73.1486H248.367C250.243 73.1486 251.23 73.86 251.23 75.2473C251.23 76.6346 250.279 77.3727 248.483 77.3727H245.601Z" fill="#2D3440"/>
<path d="M258.1 79.1601C259.372 79.1601 260.43 78.6087 261.008 77.6305H261.159V79H263V72.3927C263 70.3652 261.631 69.1558 259.203 69.1558C257.006 69.1558 255.441 70.214 255.246 71.8414H257.095C257.309 71.1388 258.047 70.7387 259.114 70.7387C260.421 70.7387 261.097 71.3345 261.097 72.3927V73.2375L258.474 73.3976C256.171 73.5399 254.872 74.5448 254.872 76.2788C254.872 78.0396 256.233 79.1601 258.1 79.1601ZM258.589 77.6217C257.549 77.6217 256.793 77.097 256.793 76.1988C256.793 75.3184 257.398 74.8471 258.732 74.7582L261.097 74.5981V75.434C261.097 76.679 260.03 77.6217 258.589 77.6217Z" fill="#2D3440"/>
<path d="M265.628 79H267.54V65.5542H265.628V79Z" fill="#2D3440"/>
<path d="M272.907 79.1601C274.179 79.1601 275.237 78.6087 275.815 77.6305H275.966V79H277.807V72.3927C277.807 70.3652 276.437 69.1558 274.01 69.1558C271.813 69.1558 270.248 70.214 270.052 71.8414H271.902C272.116 71.1388 272.854 70.7387 273.921 70.7387C275.228 70.7387 275.904 71.3345 275.904 72.3927V73.2375L273.281 73.3976C270.977 73.5399 269.679 74.5448 269.679 76.2788C269.679 78.0396 271.04 79.1601 272.907 79.1601ZM273.396 77.6217C272.356 77.6217 271.6 77.097 271.6 76.1988C271.6 75.3184 272.205 74.8471 273.538 74.7582L275.904 74.5981V75.434C275.904 76.679 274.837 77.6217 273.396 77.6217Z" fill="#2D3440"/>
<path d="M280.346 79H282.258V73.3353C282.258 71.7791 283.156 70.8187 284.57 70.8187C285.984 70.8187 286.66 71.6013 286.66 73.202V79H288.572V72.7484C288.572 70.4452 287.38 69.1558 285.219 69.1558C283.761 69.1558 282.8 69.8049 282.329 70.8721H282.187V69.3425H280.346V79Z" fill="#2D3440"/>
<path d="M299.283 72.4461C299.034 70.5697 297.567 69.1558 295.139 69.1558C292.32 69.1558 290.604 71.0677 290.604 74.1357C290.604 77.2659 292.329 79.1868 295.148 79.1868C297.54 79.1868 299.034 77.844 299.283 75.9409H297.425C297.176 76.9903 296.349 77.5594 295.139 77.5594C293.547 77.5594 292.56 76.27 292.56 74.1357C292.56 72.0459 293.539 70.7831 295.139 70.7831C296.42 70.7831 297.202 71.5034 297.425 72.4461H299.283Z" fill="#2D3440"/>
<path d="M307.638 76.4122C307.282 77.1948 306.491 77.6217 305.335 77.6217C303.805 77.6217 302.818 76.519 302.756 74.7671V74.6782H309.595V74.0201C309.595 70.9966 307.967 69.1558 305.273 69.1558C302.543 69.1558 300.809 71.1211 300.809 74.1891C300.809 77.2748 302.507 79.1868 305.282 79.1868C307.496 79.1868 309.061 78.1196 309.479 76.4122H307.638ZM305.264 70.712C306.678 70.712 307.603 71.7347 307.647 73.2998H302.756C302.863 71.7435 303.85 70.712 305.264 70.712Z" fill="#2D3440"/>
<path d="M313.192 72.455C313.948 72.455 314.499 71.8947 314.499 71.1744C314.499 70.4541 313.948 69.8939 313.192 69.8939C312.445 69.8939 311.885 70.4541 311.885 71.1744C311.885 71.8947 312.445 72.455 313.192 72.455ZM313.192 79.1334C313.948 79.1334 314.499 78.5732 314.499 77.8529C314.499 77.1326 313.948 76.5723 313.192 76.5723C312.445 76.5723 311.885 77.1326 311.885 77.8529C311.885 78.5732 312.445 79.1334 313.192 79.1334Z" fill="#2D3440"/>
</g>
<path d="M284.833 45.3153H287.631V30.9343H284.833V45.3153Z" fill="#468EF1"/>
<path d="M298.152 45.3153H300.95V38.6193C300.95 35.467 299.111 33.7364 296.533 33.7364C295.114 33.7364 293.914 34.3545 293.195 35.3228V33.9012H290.396V45.3153H293.195V39.0108C293.195 37.1771 294.174 36.1881 295.693 36.1881C297.172 36.1881 298.152 37.1771 298.152 39.0108V45.3153Z" fill="#468EF1"/>
<path d="M312.207 42.06C312.127 37.8776 305.99 39.1756 305.99 37.0947C305.99 36.4354 306.53 36.0027 307.569 36.0027C308.669 36.0027 309.348 36.6002 309.428 37.4861H312.107C311.947 35.2198 310.328 33.7158 307.649 33.7158C304.911 33.7158 303.272 35.2404 303.272 37.1359C303.272 41.3183 309.528 40.0203 309.528 42.06C309.528 42.7193 308.928 43.2344 307.829 43.2344C306.71 43.2344 305.93 42.5751 305.83 41.7098H303.012C303.132 43.8319 305.071 45.5008 307.849 45.5008C310.548 45.5008 312.207 44.0173 312.207 42.06Z" fill="#468EF1"/>
<path d="M314.944 41.7716C314.944 44.3882 316.363 45.3153 318.482 45.3153H320.241V42.8842H318.941C318.062 42.8842 317.762 42.5545 317.762 41.7922V36.2705H320.241V33.9012H317.762V31.0785H314.944V33.9012H313.624V36.2705H314.944V41.7716Z" fill="#468EF1"/>
<path d="M321.534 39.5671C321.534 43.1314 323.772 45.5008 326.571 45.5008C328.33 45.5008 329.589 44.6354 330.249 43.6465V45.3153H333.067V33.9012H330.249V35.5288C329.589 34.5811 328.37 33.7158 326.591 33.7158C323.772 33.7158 321.534 36.0027 321.534 39.5671ZM330.249 39.6083C330.249 41.7716 328.85 42.9666 327.31 42.9666C325.811 42.9666 324.392 41.7304 324.392 39.5671C324.392 37.4037 325.811 36.2499 327.31 36.2499C328.85 36.2499 330.249 37.4449 330.249 39.6083Z" fill="#468EF1"/>
<path d="M346.494 39.6083C346.494 36.0027 343.996 33.7158 340.798 33.7158C337.599 33.7158 335.101 36.0027 335.101 39.6083C335.101 43.1932 337.519 45.5008 340.718 45.5008C343.936 45.5008 346.494 43.1932 346.494 39.6083ZM337.939 39.6083C337.939 37.3213 339.278 36.2293 340.758 36.2293C342.237 36.2293 343.616 37.3213 343.616 39.6083C343.616 41.8746 342.197 42.9872 340.718 42.9872C339.218 42.9872 337.939 41.8746 337.939 39.6083Z" fill="#468EF1"/>
<path d="M356.303 45.3153H359.101V38.6193C359.101 35.467 357.262 33.7364 354.684 33.7364C353.264 33.7364 352.065 34.3545 351.345 35.3228V33.9012H348.547V45.3153H351.345V39.0108C351.345 37.1771 352.325 36.1881 353.844 36.1881C355.323 36.1881 356.303 37.1771 356.303 39.0108V45.3153Z" fill="#468EF1"/>
<path d="M278.836 37.9458C278.844 38.5311 278.813 39.1163 278.736 39.7016C278.651 40.2869 278.528 40.8645 278.351 41.4267C278.312 41.5653 278.259 41.7039 278.212 41.8502L278.135 42.0582L278.051 42.2661C277.997 42.4047 277.943 42.5433 277.881 42.6742L277.697 43.0747C277.435 43.6061 277.135 44.1143 276.804 44.5918C276.465 45.077 276.095 45.5236 275.695 45.9472C275.287 46.3708 274.856 46.7635 274.402 47.1178C273.94 47.472 273.455 47.7955 272.947 48.0727C272.438 48.3576 271.915 48.5964 271.368 48.7966C270.829 48.9968 270.268 49.1508 269.706 49.2741C269.144 49.3896 268.574 49.4666 268.004 49.4974C267.434 49.5282 266.865 49.5128 266.303 49.4666C265.741 49.4127 265.179 49.3203 264.632 49.1817C264.086 49.043 263.547 48.8736 263.031 48.658C262.515 48.4423 262.015 48.1959 261.537 47.911C261.06 47.626 260.606 47.3103 260.175 46.956C259.751 46.6018 259.343 46.2321 258.974 45.8317C258.604 45.4235 258.266 45 257.958 44.5456C257.65 44.0989 257.38 43.6215 257.134 43.1363C256.895 42.6511 256.695 42.1429 256.526 41.6346C256.356 41.1186 256.233 40.5949 256.141 40.0636C256.048 39.5322 256.002 39.0008 255.987 38.4617C255.979 37.9304 256.002 37.399 256.064 36.8676C256.133 36.3362 256.225 35.8126 256.364 35.2966C256.503 34.7806 256.672 34.2801 256.888 33.7872C257.727 31.8311 259.12 30.1446 260.875 28.9509C261.314 28.6506 261.776 28.3887 262.246 28.15C262.723 27.919 263.216 27.7187 263.724 27.5493L264.109 27.4338C264.24 27.3953 264.37 27.3645 264.494 27.3337L264.686 27.2875L264.879 27.249C265.009 27.2259 265.14 27.1951 265.271 27.172C265.795 27.0795 266.334 27.0256 266.865 26.9948H266.903C268.174 26.9409 269.244 27.9036 269.313 29.1588C269.382 30.4141 268.42 31.4846 267.165 31.5539C267.073 31.5616 266.973 31.5539 266.88 31.5539C265.618 31.4615 264.332 31.808 263.254 32.5088C262.176 33.2096 261.322 34.257 260.86 35.4506C260.737 35.7433 260.652 36.059 260.583 36.3671C260.513 36.6751 260.475 36.9908 260.452 37.3066C260.437 37.6223 260.437 37.9458 260.46 38.2615C260.49 38.5773 260.537 38.893 260.614 39.1933C260.914 40.4101 261.599 41.5114 262.523 42.3046C262.754 42.4971 263 42.6819 263.254 42.8437C263.508 43.0054 263.778 43.1363 264.047 43.2595C264.317 43.375 264.601 43.4674 264.879 43.5445C265.163 43.6215 265.448 43.6677 265.733 43.6985C266.018 43.7293 266.31 43.737 266.595 43.7293C266.88 43.7139 267.165 43.6831 267.442 43.6292C267.719 43.5753 267.989 43.5137 268.25 43.4212C268.512 43.3288 268.766 43.2287 269.013 43.0978C269.99 42.6049 270.806 41.8348 271.353 40.9261C271.492 40.7028 271.607 40.464 271.715 40.2253C271.823 39.9866 271.907 39.7401 271.984 39.4937L272.038 39.3089C272.054 39.2473 272.069 39.1779 272.084 39.1163C272.092 39.0855 272.1 39.0547 272.107 39.0239L272.123 38.9238C272.131 38.8622 272.154 38.7929 272.161 38.7313C272.2 38.4694 272.223 38.2076 272.246 37.9458L272.261 37.7532C272.4 35.9358 273.978 34.5804 275.795 34.7113C277.496 34.8345 278.805 36.2592 278.836 37.9458Z" fill="#468EF1"/>
<path d="M273.407 33.577C274.984 33.577 276.263 32.3164 276.263 30.7614C276.263 29.2064 274.984 27.9458 273.407 27.9458C271.829 27.9458 270.55 29.2064 270.55 30.7614C270.55 32.3164 271.829 33.577 273.407 33.577Z" fill="#12b7e0"/>
<g filter="url(#filter1_d)">
<rect x="10" y="142" width="119" height="50" rx="3" fill="white"/>
</g>
<path d="M70.6768 169.939H72.1709C72.7598 172.813 74.8516 174.536 77.7344 174.536C80.4678 174.536 82.3135 173.121 82.832 170.906H80.9072C80.5029 172.049 79.4043 172.822 77.7432 172.822C76.0029 172.822 74.6758 171.759 74.1748 169.939H78.9912V168.902H73.9814C73.9639 168.665 73.9463 168.428 73.9463 168.182C73.9463 167.936 73.9639 167.689 73.9814 167.461H78.9912V166.424H74.1748C74.6934 164.622 76.0117 163.55 77.7344 163.55C79.3604 163.55 80.5557 164.49 80.916 165.738H82.832C82.4805 163.506 80.4766 161.836 77.7344 161.836C74.8691 161.836 72.7773 163.567 72.1797 166.424H70.6768V167.461H72.0303C72.0127 167.698 72.0039 167.936 72.0039 168.182C72.0039 168.428 72.0127 168.665 72.0303 168.902H70.6768V169.939Z" fill="url(#paint4_linear)"/>
<path d="M89.279 174.835C91.9684 174.835 93.7878 173.033 93.7878 170.396C93.7878 167.865 92.03 166.213 89.8854 166.213C88.6022 166.213 87.6618 166.626 87.0817 167.408H86.9323L87.3014 163.515H93.1286V161.845H85.7721L85.0602 169.166H86.862C87.3278 168.287 88.2155 167.76 89.3405 167.76C90.8346 167.76 91.863 168.832 91.863 170.432C91.863 172.084 90.8259 173.191 89.2878 173.191C87.9079 173.191 86.8796 172.356 86.7389 171.091H84.8581C84.9811 173.297 86.7565 174.835 89.279 174.835Z" fill="url(#paint5_linear)"/>
<path d="M100.577 174.835C103.531 174.835 105.253 172.4 105.253 168.199C105.253 163.989 103.504 161.537 100.577 161.537C97.6332 161.537 95.8841 163.989 95.8841 168.173C95.8841 172.392 97.6156 174.835 100.577 174.835ZM100.577 173.2C98.8548 173.2 97.8705 171.442 97.8705 168.173C97.8705 164.947 98.8724 163.181 100.577 163.181C102.283 163.181 103.267 164.93 103.267 168.173C103.267 171.451 102.3 173.2 100.577 173.2Z" fill="url(#paint6_linear)"/>
<path fill-rule="evenodd" clip-rule="evenodd" d="M46.1869 154.971C48.6559 154.974 49.1465 154.992 50.3598 155.047C51.7435 155.109 52.6886 155.326 53.5155 155.643C54.3704 155.97 55.0954 156.408 55.8182 157.12C56.5409 157.832 56.9855 158.547 57.3177 159.389C57.639 160.204 57.8588 161.135 57.9219 162.499C57.9813 163.78 57.9981 164.243 58 167.163V168.398C57.9981 171.318 57.9813 171.782 57.9219 173.063C57.8588 174.426 57.639 175.357 57.3177 176.172C56.9855 177.015 56.5409 177.729 55.8182 178.441C55.0954 179.153 54.3704 179.591 53.5155 179.919C52.6886 180.236 51.7435 180.452 50.3598 180.514C49.0598 180.573 48.5895 180.589 45.6265 180.591H44.3729C41.41 180.589 40.9396 180.573 39.6396 180.514C38.2559 180.452 37.3108 180.236 36.4839 179.919C35.629 179.591 34.904 179.153 34.1812 178.441C33.4585 177.729 33.014 177.015 32.6818 176.172C32.3604 175.357 32.1406 174.426 32.0775 173.063C32.0221 171.867 32.0037 171.383 32 168.95V166.611C32.0037 164.178 32.0221 163.694 32.0775 162.499C32.1406 161.135 32.3604 160.204 32.6818 159.389C33.014 158.547 33.4585 157.832 34.1812 157.12C34.904 156.408 35.629 155.97 36.4839 155.643C37.3108 155.326 38.2559 155.109 39.6396 155.047C40.8529 154.992 41.3436 154.974 43.8126 154.971H46.1869ZM44.9997 161.202C41.3127 161.202 38.3238 164.147 38.3238 167.781C38.3238 171.414 41.3127 174.359 44.9997 174.359C48.6867 174.359 51.6756 171.414 51.6756 167.781C51.6756 164.147 48.6867 161.202 44.9997 161.202ZM44.9997 163.51C47.393 163.51 49.3332 165.422 49.3332 167.781C49.3332 170.139 47.393 172.051 44.9997 172.051C42.6064 172.051 40.6662 170.139 40.6662 167.781C40.6662 165.422 42.6064 163.51 44.9997 163.51ZM51.9394 159.405C51.0778 159.405 50.3793 160.093 50.3793 160.942C50.3793 161.791 51.0778 162.48 51.9394 162.48C52.801 162.48 53.4995 161.791 53.4995 160.942C53.4995 160.093 52.801 159.405 51.9394 159.405Z" fill="#468EF1"/>
<g filter="url(#filter2_d)">
<rect x="162" y="221" width="119" height="50" rx="3" fill="white"/>
</g>
<path d="M219.998 248.94H221.492C222.081 251.814 224.173 253.536 227.056 253.536C229.789 253.536 231.635 252.121 232.153 249.906H230.229C229.824 251.049 228.726 251.823 227.064 251.823C225.324 251.823 223.997 250.759 223.496 248.94H228.312V247.903H223.303C223.285 247.665 223.268 247.428 223.268 247.182C223.268 246.936 223.285 246.69 223.303 246.461H228.312V245.424H223.496C224.015 243.622 225.333 242.55 227.056 242.55C228.682 242.55 229.877 243.49 230.237 244.739H232.153C231.802 242.506 229.798 240.836 227.056 240.836C224.19 240.836 222.099 242.568 221.501 245.424H219.998V246.461H221.352C221.334 246.698 221.325 246.936 221.325 247.182C221.325 247.428 221.334 247.665 221.352 247.903H219.998V248.94Z" fill="url(#paint7_linear)"/>
<path d="M234.707 253.528H236.772L242.292 242.55V240.845H233.652V242.506H240.297V242.647L234.707 253.528Z" fill="url(#paint8_linear)"/>
<path d="M248.739 253.835C251.428 253.835 253.247 252.033 253.247 249.397C253.247 246.865 251.49 245.213 249.345 245.213C248.062 245.213 247.121 245.626 246.541 246.408H246.392L246.761 242.515H252.588V240.845H245.232L244.52 248.166H246.322C246.787 247.287 247.675 246.76 248.8 246.76C250.294 246.76 251.323 247.832 251.323 249.432C251.323 251.084 250.286 252.192 248.747 252.192C247.368 252.192 246.339 251.357 246.199 250.091H244.318C244.441 252.297 246.216 253.835 248.739 253.835Z" fill="url(#paint9_linear)"/>
<path d="M187 234.127V256.391L192.014 259.873L207.321 252.286V246.689L195.049 243.145L197.292 248.182L200.789 249.799L192.674 253.965V235.62L187 234.127Z" fill="#468EF1"/>
<g filter="url(#filter3_d)">
<rect x="334" y="221" width="119" height="50" rx="3" fill="white"/>
</g>
<path d="M391.677 249.412H393.171C393.76 252.286 395.852 254.009 398.734 254.009C401.468 254.009 403.313 252.594 403.832 250.379H401.907C401.503 251.521 400.404 252.295 398.743 252.295C397.003 252.295 395.676 251.231 395.175 249.412H399.991V248.375H394.981C394.964 248.138 394.946 247.9 394.946 247.654C394.946 247.408 394.964 247.162 394.981 246.934H399.991V245.896H395.175C395.693 244.095 397.012 243.022 398.734 243.022C400.36 243.022 401.556 243.963 401.916 245.211H403.832C403.48 242.979 401.477 241.309 398.734 241.309C395.869 241.309 393.777 243.04 393.18 245.896H391.677V246.934H393.03C393.013 247.171 393.004 247.408 393.004 247.654C393.004 247.9 393.013 248.138 393.03 248.375H391.677V249.412Z" fill="url(#paint10_linear)"/>
<path d="M408.89 254H410.859V241.317H408.899L405.559 243.69V245.624L408.741 243.348H408.89V254Z" fill="url(#paint11_linear)"/>
<path d="M414.265 244.991H416.128C416.128 243.585 417.069 242.636 418.501 242.636C419.908 242.636 420.743 243.576 420.743 244.807C420.743 245.835 420.321 246.468 418.712 248.146L414.37 252.664V254H422.913V252.321H417.06V252.172L419.855 249.359C422.078 247.127 422.72 246.081 422.72 244.613C422.72 242.53 421.006 241.01 418.624 241.01C416.067 241.01 414.265 242.662 414.265 244.991Z" fill="url(#paint12_linear)"/>
<path d="M429.747 254.308C432.437 254.308 434.256 252.506 434.256 249.869C434.256 247.338 432.498 245.686 430.354 245.686C429.07 245.686 428.13 246.099 427.55 246.881H427.4L427.77 242.987H433.597V241.317H426.24L425.528 248.639H427.33C427.796 247.76 428.684 247.232 429.809 247.232C431.303 247.232 432.331 248.305 432.331 249.904C432.331 251.557 431.294 252.664 429.756 252.664C428.376 252.664 427.348 251.829 427.207 250.563H425.326C425.449 252.77 427.225 254.308 429.747 254.308Z" fill="url(#paint13_linear)"/>
<path fill-rule="evenodd" clip-rule="evenodd" d="M366.887 259.591H354.435C353.642 259.591 353 258.958 353 258.177V235.385C353 234.604 353.642 233.971 354.435 233.971H377.565C378.358 233.971 379 234.604 379 235.385V258.177C379 258.958 378.357 259.591 377.565 259.591H370.94V249.67H374.319L374.825 245.803H370.94V243.334C370.94 242.215 371.255 241.452 372.884 241.452L374.962 241.451V237.993C374.603 237.946 373.369 237.84 371.934 237.84C368.938 237.84 366.887 239.642 366.887 242.951V245.803H363.499V249.67H366.887V259.591Z" fill="#468EF1"/>
<g filter="url(#filter4_d)">
<rect x="486" y="142" width="119" height="50" rx="3" fill="white"/>
</g>
<path d="M547.677 168.516H549.171C549.76 171.39 551.852 173.113 554.734 173.113C557.468 173.113 559.313 171.698 559.832 169.483H557.907C557.503 170.625 556.404 171.399 554.743 171.399C553.003 171.399 551.676 170.335 551.175 168.516H555.991V167.479H550.981C550.964 167.242 550.946 167.004 550.946 166.758C550.946 166.512 550.964 166.266 550.981 166.038H555.991V165H551.175C551.693 163.199 553.012 162.126 554.734 162.126C556.36 162.126 557.556 163.067 557.916 164.315H559.832C559.48 162.083 557.477 160.413 554.734 160.413C551.869 160.413 549.777 162.144 549.18 165H547.677V166.038H549.03C549.013 166.275 549.004 166.512 549.004 166.758C549.004 167.004 549.013 167.242 549.03 167.479H547.677V168.516Z" fill="url(#paint14_linear)"/>
<path d="M566.279 173.412C568.968 173.412 570.788 171.61 570.788 168.973C570.788 166.442 569.03 164.79 566.885 164.79C565.602 164.79 564.662 165.203 564.082 165.985H563.932L564.301 162.091H570.129V160.421H562.772L562.06 167.743H563.862C564.328 166.864 565.216 166.336 566.341 166.336C567.835 166.336 568.863 167.409 568.863 169.008C568.863 170.661 567.826 171.768 566.288 171.768C564.908 171.768 563.88 170.933 563.739 169.667H561.858C561.981 171.874 563.757 173.412 566.279 173.412Z" fill="url(#paint15_linear)"/>
<path d="M577.577 173.412C580.531 173.412 582.253 170.977 582.253 166.776C582.253 162.566 580.504 160.114 577.577 160.114C574.633 160.114 572.884 162.566 572.884 166.75C572.884 170.968 574.616 173.412 577.577 173.412ZM577.577 171.777C575.855 171.777 574.87 170.019 574.87 166.75C574.87 163.524 575.872 161.757 577.577 161.757C579.283 161.757 580.267 163.506 580.267 166.75C580.267 170.028 579.3 171.777 577.577 171.777Z" fill="url(#paint16_linear)"/>
<path fill-rule="evenodd" clip-rule="evenodd" d="M534.721 164.269C534.904 165.126 535 166.014 535 166.925C535 167.374 534.977 167.818 534.931 168.256C534.592 171.489 533.034 174.364 530.717 176.429L526.458 173.042C527.68 172.176 528.633 170.963 529.166 169.549H522.079V164.269H534.721Z" fill="#468EF1"/>
<mask id="mask0" mask-type="alpha" maskUnits="userSpaceOnUse" x="510" y="169" width="21" height="11">
<path d="M522 174.455C523.661 174.455 525.199 173.933 526.453 173.045L530.715 176.43C528.409 178.484 525.353 179.735 522 179.735C516.948 179.735 512.57 176.896 510.418 172.749L514.783 169.409C515.825 172.347 518.662 174.455 522 174.455Z" fill="#468EF1"/>
</mask>
<g mask="url(#mask0)">
<path d="M522 174.455C523.661 174.455 525.199 173.933 526.453 173.045L530.715 176.43C528.409 178.484 525.353 179.735 522 179.735C516.948 179.735 512.57 176.896 510.418 172.749L514.783 169.409C515.825 172.347 518.662 174.455 522 174.455Z" fill="#468EF1"/>
</g>
<mask id="mask1" mask-type="alpha" maskUnits="userSpaceOnUse" x="509" y="160" width="6" height="13">
<path d="M510.474 160.994L514.836 164.297C514.526 165.115 514.358 166 514.358 166.924C514.358 167.829 514.519 168.697 514.816 169.5L510.427 172.766C509.515 171.014 509 169.029 509 166.924C509 164.785 509.532 162.767 510.474 160.994Z" fill="#468EF1"/>
</mask>
<g mask="url(#mask1)">
<path d="M510.474 160.994L514.836 164.297C514.526 165.115 514.358 166 514.358 166.924C514.358 167.829 514.519 168.697 514.816 169.5L510.427 172.766C509.515 171.014 509 169.029 509 166.924C509 164.785 509.532 162.767 510.474 160.994Z" fill="#468EF1"/>
</g>
<mask id="mask2" mask-type="alpha" maskUnits="userSpaceOnUse" x="510" y="154" width="22" height="11">
<path d="M522.001 154.114C525.601 154.114 528.86 155.556 531.214 157.887L527.44 161.634C526.054 160.251 524.129 159.393 522.001 159.393C518.718 159.393 515.918 161.433 514.836 164.297L510.475 160.993C512.646 156.904 516.993 154.114 522.001 154.114Z" fill="#468EF1"/>
</mask>
<g mask="url(#mask2)">
<path d="M522.001 154.114C525.601 154.114 528.86 155.556 531.214 157.887L527.44 161.634C526.054 160.251 524.129 159.393 522.001 159.393C518.718 159.393 515.918 161.433 514.836 164.297L510.475 160.993C512.646 156.904 516.993 154.114 522.001 154.114Z" fill="#468EF1"/>
</g>
<defs>
<filter id="filter0_d" x="190" y="0" width="235" height="115.444" filterUnits="userSpaceOnUse" color-interpolation-filters="sRGB">
<feFlood flood-opacity="0" result="BackgroundImageFix"/>
<feColorMatrix in="SourceAlpha" type="matrix" values="0 0 0 0 0 0 0 0 0 0 0 0 0 0 0 0 0 0 127 0"/>
<feOffset dy="3"/>
<feGaussianBlur stdDeviation="5"/>
<feColorMatrix type="matrix" values="0 0 0 0 0 0 0 0 0 0 0 0 0 0 0 0 0 0 0.1 0"/>
<feBlend mode="normal" in2="BackgroundImageFix" result="effect1_dropShadow"/>
<feBlend mode="normal" in="SourceGraphic" in2="effect1_dropShadow" result="shape"/>
</filter>
<filter id="filter1_d" x="0" y="135" width="139" height="70" filterUnits="userSpaceOnUse" color-interpolation-filters="sRGB">
<feFlood flood-opacity="0" result="BackgroundImageFix"/>
<feColorMatrix in="SourceAlpha" type="matrix" values="0 0 0 0 0 0 0 0 0 0 0 0 0 0 0 0 0 0 127 0"/>
<feOffset dy="3"/>
<feGaussianBlur stdDeviation="5"/>
<feColorMatrix type="matrix" values="0 0 0 0 0 0 0 0 0 0 0 0 0 0 0 0 0 0 0.1 0"/>
<feBlend mode="normal" in2="BackgroundImageFix" result="effect1_dropShadow"/>
<feBlend mode="normal" in="SourceGraphic" in2="effect1_dropShadow" result="shape"/>
</filter>
<filter id="filter2_d" x="152" y="214" width="139" height="70" filterUnits="userSpaceOnUse" color-interpolation-filters="sRGB">
<feFlood flood-opacity="0" result="BackgroundImageFix"/>
<feColorMatrix in="SourceAlpha" type="matrix" values="0 0 0 0 0 0 0 0 0 0 0 0 0 0 0 0 0 0 127 0"/>
<feOffset dy="3"/>
<feGaussianBlur stdDeviation="5"/>
<feColorMatrix type="matrix" values="0 0 0 0 0 0 0 0 0 0 0 0 0 0 0 0 0 0 0.1 0"/>
<feBlend mode="normal" in2="BackgroundImageFix" result="effect1_dropShadow"/>
<feBlend mode="normal" in="SourceGraphic" in2="effect1_dropShadow" result="shape"/>
</filter>
<filter id="filter3_d" x="324" y="214" width="139" height="70" filterUnits="userSpaceOnUse" color-interpolation-filters="sRGB">
<feFlood flood-opacity="0" result="BackgroundImageFix"/>
<feColorMatrix in="SourceAlpha" type="matrix" values="0 0 0 0 0 0 0 0 0 0 0 0 0 0 0 0 0 0 127 0"/>
<feOffset dy="3"/>
<feGaussianBlur stdDeviation="5"/>
<feColorMatrix type="matrix" values="0 0 0 0 0 0 0 0 0 0 0 0 0 0 0 0 0 0 0.1 0"/>
<feBlend mode="normal" in2="BackgroundImageFix" result="effect1_dropShadow"/>
<feBlend mode="normal" in="SourceGraphic" in2="effect1_dropShadow" result="shape"/>
</filter>
<filter id="filter4_d" x="476" y="135" width="139" height="70" filterUnits="userSpaceOnUse" color-interpolation-filters="sRGB">
<feFlood flood-opacity="0" result="BackgroundImageFix"/>
<feColorMatrix in="SourceAlpha" type="matrix" values="0 0 0 0 0 0 0 0 0 0 0 0 0 0 0 0 0 0 127 0"/>
<feOffset dy="3"/>
<feGaussianBlur stdDeviation="5"/>
<feColorMatrix type="matrix" values="0 0 0 0 0 0 0 0 0 0 0 0 0 0 0 0 0 0 0.1 0"/>
<feBlend mode="normal" in2="BackgroundImageFix" result="effect1_dropShadow"/>
<feBlend mode="normal" in="SourceGraphic" in2="effect1_dropShadow" result="shape"/>
</filter>
<linearGradient id="paint0_linear" x1="366.944" y1="77.6232" x2="359.162" y2="57.2174" gradientUnits="userSpaceOnUse">
<stop stop-color="#FF6B4D"/>
<stop offset="1" stop-color="#F69866"/>
</linearGradient>
<linearGradient id="paint1_linear" x1="366.944" y1="77.6232" x2="359.162" y2="57.2174" gradientUnits="userSpaceOnUse">
<stop stop-color="#FF6B4D"/>
<stop offset="1" stop-color="#F69866"/>
</linearGradient>
<linearGradient id="paint2_linear" x1="366.944" y1="77.6232" x2="359.162" y2="57.2174" gradientUnits="userSpaceOnUse">
<stop stop-color="#FF6B4D"/>
<stop offset="1" stop-color="#F69866"/>
</linearGradient>
<linearGradient id="paint3_linear" x1="366.944" y1="77.6232" x2="359.162" y2="57.2174" gradientUnits="userSpaceOnUse">
<stop stop-color="#FF6B4D"/>
<stop offset="1" stop-color="#F69866"/>
</linearGradient>
<linearGradient id="paint4_linear" x1="101.705" y1="173.167" x2="92.3193" y2="154.884" gradientUnits="userSpaceOnUse">
<stop stop-color="#FF6B4D"/>
<stop offset="1" stop-color="#F69866"/>
</linearGradient>
<linearGradient id="paint5_linear" x1="101.705" y1="173.167" x2="92.3193" y2="154.884" gradientUnits="userSpaceOnUse">
<stop stop-color="#FF6B4D"/>
<stop offset="1" stop-color="#F69866"/>
</linearGradient>
<linearGradient id="paint6_linear" x1="101.705" y1="173.167" x2="92.3193" y2="154.884" gradientUnits="userSpaceOnUse">
<stop stop-color="#FF6B4D"/>
<stop offset="1" stop-color="#F69866"/>
</linearGradient>
<linearGradient id="paint7_linear" x1="249.836" y1="252.204" x2="240.573" y2="234.456" gradientUnits="userSpaceOnUse">
<stop stop-color="#FF6B4D"/>
<stop offset="1" stop-color="#F69866"/>
</linearGradient>
<linearGradient id="paint8_linear" x1="249.836" y1="252.204" x2="240.573" y2="234.456" gradientUnits="userSpaceOnUse">
<stop stop-color="#FF6B4D"/>
<stop offset="1" stop-color="#F69866"/>
</linearGradient>
<linearGradient id="paint9_linear" x1="249.836" y1="252.204" x2="240.573" y2="234.456" gradientUnits="userSpaceOnUse">
<stop stop-color="#FF6B4D"/>
<stop offset="1" stop-color="#F69866"/>
</linearGradient>
<linearGradient id="paint10_linear" x1="429.887" y1="252.639" x2="421.682" y2="232.958" gradientUnits="userSpaceOnUse">
<stop stop-color="#FF6B4D"/>
<stop offset="1" stop-color="#F69866"/>
</linearGradient>
<linearGradient id="paint11_linear" x1="429.887" y1="252.639" x2="421.682" y2="232.958" gradientUnits="userSpaceOnUse">
<stop stop-color="#FF6B4D"/>
<stop offset="1" stop-color="#F69866"/>
</linearGradient>
<linearGradient id="paint12_linear" x1="429.887" y1="252.639" x2="421.682" y2="232.958" gradientUnits="userSpaceOnUse">
<stop stop-color="#FF6B4D"/>
<stop offset="1" stop-color="#F69866"/>
</linearGradient>
<linearGradient id="paint13_linear" x1="429.887" y1="252.639" x2="421.682" y2="232.958" gradientUnits="userSpaceOnUse">
<stop stop-color="#FF6B4D"/>
<stop offset="1" stop-color="#F69866"/>
</linearGradient>
<linearGradient id="paint14_linear" x1="578.705" y1="171.743" x2="569.319" y2="153.46" gradientUnits="userSpaceOnUse">
<stop stop-color="#FF6B4D"/>
<stop offset="1" stop-color="#F69866"/>
</linearGradient>
<linearGradient id="paint15_linear" x1="578.705" y1="171.743" x2="569.319" y2="153.46" gradientUnits="userSpaceOnUse">
<stop stop-color="#FF6B4D"/>
<stop offset="1" stop-color="#F69866"/>
</linearGradient>
<linearGradient id="paint16_linear" x1="578.705" y1="171.743" x2="569.319" y2="153.46" gradientUnits="userSpaceOnUse">
<stop stop-color="#FF6B4D"/>
<stop offset="1" stop-color="#F69866"/>
</linearGradient>
</defs>
</svg>
