<svg width="615" height="284" viewBox="0 0 615 284" fill="none" xmlns="http://www.w3.org/2000/svg">
<path d="M149.914 170.375C166.609 171.683 207.624 163.869 238.13 122.144" stroke="#DDE1E7" stroke-width="2.27654" stroke-linecap="round" stroke-linejoin="bevel" stroke-dasharray="4.55 9.11"/>
<path d="M465.215 170.375C448.52 171.683 407.504 163.869 376.999 122.144" stroke="#DDE1E7" stroke-width="2.27654" stroke-linecap="round" stroke-linejoin="bevel" stroke-dasharray="4.55 9.11"/>
<path d="M266.587 200.66C275.503 191.499 293.336 162.972 293.336 122.144" stroke="#DDE1E7" stroke-width="2.27654" stroke-linecap="round" stroke-linejoin="bevel" stroke-dasharray="4.55 9.11"/>
<path d="M348.542 200.66C339.626 191.499 321.793 162.972 321.793 122.144" stroke="#DDE1E7" stroke-width="2.27654" stroke-linecap="round" stroke-linejoin="bevel" stroke-dasharray="4.55 9.11"/>
<g filter="url(#filter0_d)">
<rect x="200.357" y="7" width="215" height="95.4439" rx="5" fill="white"/>
</g>
<path d="M325.042 74.358H326.554C327.15 77.2659 329.266 79.0089 332.183 79.0089C334.949 79.0089 336.816 77.5772 337.341 75.3362H335.393C334.984 76.4922 333.873 77.2748 332.192 77.2748C330.431 77.2748 329.088 76.1988 328.581 74.358H333.455V73.3086H328.386C328.368 73.0685 328.35 72.8284 328.35 72.5794C328.35 72.3304 328.368 72.0814 328.386 71.8502H333.455V70.8009H328.581C329.106 68.9779 330.44 67.893 332.183 67.893C333.828 67.893 335.038 68.8445 335.402 70.1073H337.341C336.985 67.8485 334.958 66.1589 332.183 66.1589C329.284 66.1589 327.168 67.9107 326.563 70.8009H325.042V71.8502H326.412C326.394 72.0903 326.385 72.3304 326.385 72.5794C326.385 72.8284 326.394 73.0685 326.412 73.3086H325.042V74.358ZM345.287 79H347.208V76.4478H348.977V74.7582H347.208V66.1678H344.371C342.601 68.8267 340.716 71.8591 339.026 74.7582V76.4478H345.287V79ZM340.938 74.6692C342.254 72.4194 343.819 69.9205 345.198 67.8485H345.313V74.7937H340.938V74.6692ZM355.758 79.3112C358.746 79.3112 360.489 76.848 360.489 72.5972C360.489 68.3376 358.719 65.8565 355.758 65.8565C352.779 65.8565 351.009 68.3376 351.009 72.5705C351.009 76.8391 352.761 79.3112 355.758 79.3112ZM355.758 77.6572C354.015 77.6572 353.019 75.8786 353.019 72.5705C353.019 69.3069 354.033 67.5195 355.758 67.5195C357.483 67.5195 358.479 69.2891 358.479 72.5705C358.479 75.8875 357.501 77.6572 355.758 77.6572ZM367.403 79.3112C370.391 79.3112 372.134 76.848 372.134 72.5972C372.134 68.3376 370.365 65.8565 367.403 65.8565C364.424 65.8565 362.655 68.3376 362.655 72.5705C362.655 76.8391 364.406 79.3112 367.403 79.3112ZM367.403 77.6572C365.66 77.6572 364.664 75.8786 364.664 72.5705C364.664 69.3069 365.678 67.5195 367.403 67.5195C369.128 67.5195 370.124 69.2891 370.124 72.5705C370.124 75.8875 369.146 77.6572 367.403 77.6572Z" fill="url(#paint0_linear)"/>
<path opacity="0.4" d="M249.24 79C251.979 79 253.625 77.6305 253.625 75.3718C253.625 73.691 252.468 72.4638 250.734 72.2771V72.1259C251.997 71.9125 252.984 70.712 252.984 69.3692C252.984 67.395 251.535 66.1678 249.125 66.1678H243.967V79H249.24ZM245.959 67.7951H248.662C250.139 67.7951 251.001 68.4977 251.001 69.716C251.001 70.9699 250.085 71.6279 248.324 71.6279H245.959V67.7951ZM245.959 77.3726V73.1486H248.725C250.601 73.1486 251.588 73.86 251.588 75.2473C251.588 76.6345 250.637 77.3726 248.84 77.3726H245.959ZM258.458 79.1601C259.73 79.1601 260.788 78.6087 261.366 77.6305H261.517V79H263.358V72.3927C263.358 70.3651 261.988 69.1557 259.561 69.1557C257.364 69.1557 255.799 70.214 255.603 71.8413H257.453C257.666 71.1388 258.405 70.7386 259.472 70.7386C260.779 70.7386 261.455 71.3345 261.455 72.3927V73.2375L258.831 73.3976C256.528 73.5399 255.23 74.5447 255.23 76.2788C255.23 78.0396 256.59 79.1601 258.458 79.1601ZM258.947 77.6216C257.907 77.6216 257.151 77.097 257.151 76.1988C257.151 75.3184 257.755 74.8471 259.089 74.7582L261.455 74.5981V75.434C261.455 76.679 260.388 77.6216 258.947 77.6216ZM265.986 79H267.898V65.5542H265.986V79ZM273.265 79.1601C274.536 79.1601 275.595 78.6087 276.173 77.6305H276.324V79H278.165V72.3927C278.165 70.3651 276.795 69.1557 274.367 69.1557C272.171 69.1557 270.606 70.214 270.41 71.8413H272.26C272.473 71.1388 273.211 70.7386 274.278 70.7386C275.586 70.7386 276.262 71.3345 276.262 72.3927V73.2375L273.638 73.3976C271.335 73.5399 270.037 74.5447 270.037 76.2788C270.037 78.0396 271.397 79.1601 273.265 79.1601ZM273.754 77.6216C272.713 77.6216 271.957 77.097 271.957 76.1988C271.957 75.3184 272.562 74.8471 273.896 74.7582L276.262 74.5981V75.434C276.262 76.679 275.194 77.6216 273.754 77.6216ZM280.704 79H282.616V73.3353C282.616 71.7791 283.514 70.8187 284.928 70.8187C286.342 70.8187 287.017 71.6012 287.017 73.2019V79H288.929V72.7484C288.929 70.4452 287.738 69.1557 285.577 69.1557C284.118 69.1557 283.158 69.8049 282.687 70.872H282.544V69.3425H280.704V79ZM299.641 72.446C299.392 70.5697 297.925 69.1557 295.497 69.1557C292.678 69.1557 290.962 71.0677 290.962 74.1357C290.962 77.2659 292.687 79.1867 295.506 79.1867C297.898 79.1867 299.392 77.8439 299.641 75.9409H297.782C297.533 76.9902 296.706 77.5594 295.497 77.5594C293.905 77.5594 292.918 76.2699 292.918 74.1357C292.918 72.0459 293.896 70.7831 295.497 70.7831C296.777 70.7831 297.56 71.5034 297.782 72.446H299.641ZM307.996 76.4122C307.64 77.1948 306.849 77.6216 305.693 77.6216C304.163 77.6216 303.176 76.5189 303.114 74.7671V74.6781H309.952V74.0201C309.952 70.9965 308.325 69.1557 305.63 69.1557C302.9 69.1557 301.166 71.121 301.166 74.189C301.166 77.2748 302.865 79.1867 305.639 79.1867C307.854 79.1867 309.419 78.1196 309.837 76.4122H307.996ZM305.621 70.712C307.035 70.712 307.96 71.7346 308.005 73.2998H303.114C303.22 71.7435 304.208 70.712 305.621 70.712ZM313.55 72.4549C314.305 72.4549 314.857 71.8947 314.857 71.1744C314.857 70.4541 314.305 69.8938 313.55 69.8938C312.803 69.8938 312.242 70.4541 312.242 71.1744C312.242 71.8947 312.803 72.4549 313.55 72.4549ZM313.55 79.1334C314.305 79.1334 314.857 78.5731 314.857 77.8528C314.857 77.1325 314.305 76.5723 313.55 76.5723C312.803 76.5723 312.242 77.1325 312.242 77.8528C312.242 78.5731 312.803 79.1334 313.55 79.1334Z" fill="#2D3440"/>
<path d="M285.19 45.3153H287.989V30.9343H285.19V45.3153Z" fill="#468EF1"/>
<path d="M298.509 45.3153H301.308V38.6193C301.308 35.467 299.469 33.7364 296.89 33.7364C295.471 33.7364 294.272 34.3545 293.552 35.3228V33.9012H290.754V45.3153H293.552V39.0108C293.552 37.1771 294.532 36.1881 296.051 36.1881C297.53 36.1881 298.509 37.1771 298.509 39.0108V45.3153Z" fill="#468EF1"/>
<path d="M312.564 42.06C312.484 37.8776 306.348 39.1756 306.348 37.0947C306.348 36.4354 306.887 36.0027 307.927 36.0027C309.026 36.0027 309.706 36.6002 309.786 37.4861H312.464C312.304 35.2198 310.685 33.7158 308.007 33.7158C305.268 33.7158 303.629 35.2404 303.629 37.1359C303.629 41.3183 309.886 40.0203 309.886 42.06C309.886 42.7193 309.286 43.2344 308.187 43.2344C307.067 43.2344 306.288 42.5751 306.188 41.7098H303.369C303.489 43.8319 305.428 45.5008 308.207 45.5008C310.905 45.5008 312.564 44.0173 312.564 42.06Z" fill="#468EF1"/>
<path d="M315.301 41.7716C315.301 44.3882 316.72 45.3153 318.839 45.3153H320.598V42.8842H319.299C318.419 42.8842 318.119 42.5545 318.119 41.7922V36.2705H320.598V33.9012H318.119V31.0785H315.301V33.9012H313.982V36.2705H315.301V41.7716Z" fill="#468EF1"/>
<path d="M321.891 39.5671C321.891 43.1314 324.13 45.5008 326.928 45.5008C328.687 45.5008 329.947 44.6354 330.606 43.6465V45.3153H333.425V33.9012H330.606V35.5288C329.947 34.5811 328.727 33.7158 326.948 33.7158C324.13 33.7158 321.891 36.0027 321.891 39.5671ZM330.606 39.6083C330.606 41.7716 329.207 42.9666 327.668 42.9666C326.169 42.9666 324.75 41.7304 324.75 39.5671C324.75 37.4037 326.169 36.2499 327.668 36.2499C329.207 36.2499 330.606 37.4449 330.606 39.6083Z" fill="#468EF1"/>
<path d="M346.852 39.6083C346.852 36.0027 344.353 33.7158 341.155 33.7158C337.957 33.7158 335.458 36.0027 335.458 39.6083C335.458 43.1932 337.877 45.5008 341.075 45.5008C344.293 45.5008 346.852 43.1932 346.852 39.6083ZM338.297 39.6083C338.297 37.3213 339.636 36.2293 341.115 36.2293C342.594 36.2293 343.973 37.3213 343.973 39.6083C343.973 41.8746 342.554 42.9872 341.075 42.9872C339.576 42.9872 338.297 41.8746 338.297 39.6083Z" fill="#468EF1"/>
<path d="M356.66 45.3153H359.459V38.6193C359.459 35.467 357.62 33.7364 355.041 33.7364C353.622 33.7364 352.423 34.3545 351.703 35.3228V33.9012H348.904V45.3153H351.703V39.0108C351.703 37.1771 352.682 36.1881 354.201 36.1881C355.681 36.1881 356.66 37.1771 356.66 39.0108V45.3153Z" fill="#468EF1"/>
<path d="M279.193 37.9458C279.201 38.5311 279.17 39.1163 279.093 39.7016C279.009 40.2869 278.885 40.8645 278.708 41.4267C278.67 41.5653 278.616 41.7039 278.57 41.8502L278.493 42.0582L278.408 42.2661C278.354 42.4047 278.3 42.5433 278.239 42.6742L278.054 43.0747C277.792 43.6061 277.492 44.1143 277.161 44.5918C276.822 45.077 276.453 45.5236 276.052 45.9472C275.644 46.3708 275.213 46.7635 274.759 47.1178C274.297 47.472 273.812 47.7955 273.304 48.0727C272.796 48.3576 272.272 48.5964 271.726 48.7966C271.187 48.9968 270.625 49.1508 270.063 49.2741C269.501 49.3896 268.931 49.4666 268.362 49.4974C267.792 49.5282 267.222 49.5128 266.66 49.4666C266.098 49.4127 265.536 49.3203 264.99 49.1817C264.443 49.043 263.904 48.8736 263.388 48.658C262.873 48.4424 262.372 48.1959 261.895 47.911C261.418 47.626 260.963 47.3103 260.532 46.956C260.109 46.6018 259.701 46.2321 259.331 45.8317C258.962 45.4235 258.623 45 258.315 44.5456C258.007 44.0989 257.738 43.6215 257.491 43.1363C257.253 42.6511 257.052 42.1429 256.883 41.6346C256.714 41.1186 256.591 40.5949 256.498 40.0636C256.406 39.5322 256.36 39.0008 256.344 38.4617C256.337 37.9304 256.36 37.399 256.421 36.8676C256.49 36.3362 256.583 35.8126 256.721 35.2966C256.86 34.7806 257.029 34.2801 257.245 33.7872C258.084 31.8311 259.477 30.1446 261.233 28.9509C261.672 28.6506 262.133 28.3887 262.603 28.15C263.08 27.919 263.573 27.7187 264.081 27.5493L264.466 27.4338C264.597 27.3953 264.728 27.3645 264.851 27.3337L265.044 27.2875L265.236 27.249C265.367 27.2259 265.498 27.1951 265.629 27.172C266.152 27.0795 266.691 27.0256 267.222 26.9948H267.261C268.531 26.9409 269.601 27.9036 269.67 29.1588C269.74 30.4141 268.777 31.4846 267.522 31.5539C267.43 31.5616 267.33 31.5539 267.238 31.5539C265.975 31.4615 264.689 31.808 263.612 32.5088C262.534 33.2096 261.679 34.257 261.217 35.4506C261.094 35.7433 261.009 36.059 260.94 36.3671C260.871 36.6751 260.832 36.9908 260.809 37.3066C260.794 37.6223 260.794 37.9458 260.817 38.2615C260.848 38.5773 260.894 38.893 260.971 39.1933C261.271 40.4101 261.956 41.5114 262.88 42.3046C263.111 42.4971 263.358 42.6819 263.612 42.8437C263.866 43.0054 264.135 43.1363 264.405 43.2595C264.674 43.375 264.959 43.4674 265.236 43.5445C265.521 43.6215 265.806 43.6677 266.091 43.6985C266.375 43.7293 266.668 43.737 266.953 43.7293C267.238 43.7139 267.522 43.6831 267.8 43.6292C268.077 43.5753 268.346 43.5137 268.608 43.4212C268.87 43.3288 269.124 43.2287 269.37 43.0978C270.348 42.6049 271.164 41.8348 271.71 40.9261C271.849 40.7028 271.964 40.464 272.072 40.2253C272.18 39.9866 272.265 39.7401 272.342 39.4937L272.396 39.3089C272.411 39.2473 272.426 39.1779 272.442 39.1163C272.449 39.0855 272.457 39.0547 272.465 39.0239L272.48 38.9238C272.488 38.8622 272.511 38.7929 272.519 38.7313C272.557 38.4694 272.58 38.2076 272.603 37.9458L272.619 37.7532C272.757 35.9358 274.336 34.5804 276.152 34.7113C277.854 34.8345 279.163 36.2592 279.193 37.9458Z" fill="#468EF1"/>
<path d="M273.764 33.577C275.342 33.577 276.621 32.3164 276.621 30.7614C276.621 29.2064 275.342 27.9458 273.764 27.9458C272.186 27.9458 270.907 29.2064 270.907 30.7614C270.907 32.3164 272.186 33.577 273.764 33.577Z" fill="#12b7e0"/>
<g filter="url(#filter1_d)">
<rect x="10.3574" y="142" width="119" height="50" rx="3" fill="white"/>
</g>
<path d="M70.6768 169.412H72.1709C72.7598 172.286 74.8516 174.009 77.7344 174.009C80.4678 174.009 82.3135 172.594 82.832 170.379H80.9072C80.5029 171.521 79.4043 172.295 77.7432 172.295C76.0029 172.295 74.6758 171.231 74.1748 169.412H78.9912V168.375H73.9814C73.9639 168.138 73.9463 167.9 73.9463 167.654C73.9463 167.408 73.9639 167.162 73.9814 166.934H78.9912V165.896H74.1748C74.6934 164.095 76.0117 163.022 77.7344 163.022C79.3604 163.022 80.5557 163.963 80.916 165.211H82.832C82.4805 162.979 80.4766 161.309 77.7344 161.309C74.8691 161.309 72.7773 163.04 72.1797 165.896H70.6768V166.934H72.0303C72.0127 167.171 72.0039 167.408 72.0039 167.654C72.0039 167.9 72.0127 168.138 72.0303 168.375H70.6768V169.412ZM89.279 174.308C91.9684 174.308 93.7878 172.506 93.7878 169.869C93.7878 167.338 92.03 165.686 89.8854 165.686C88.6022 165.686 87.6618 166.099 87.0817 166.881H86.9323L87.3014 162.987H93.1286V161.317H85.7721L85.0602 168.639H86.862C87.3278 167.76 88.2155 167.232 89.3405 167.232C90.8346 167.232 91.863 168.305 91.863 169.904C91.863 171.557 90.8259 172.664 89.2878 172.664C87.9079 172.664 86.8796 171.829 86.7389 170.563H84.8581C84.9811 172.77 86.7565 174.308 89.279 174.308ZM100.577 174.308C103.531 174.308 105.253 171.873 105.253 167.672C105.253 163.462 103.504 161.01 100.577 161.01C97.6332 161.01 95.8841 163.462 95.8841 167.646C95.8841 171.864 97.6156 174.308 100.577 174.308ZM100.577 172.673C98.8548 172.673 97.8705 170.915 97.8705 167.646C97.8705 164.42 98.8724 162.653 100.577 162.653C102.283 162.653 103.267 164.402 103.267 167.646C103.267 170.924 102.3 172.673 100.577 172.673Z" fill="url(#paint1_linear)"/>
<path fill-rule="evenodd" clip-rule="evenodd" d="M46.5443 153.971C49.0133 153.974 49.5039 153.992 50.7172 154.047C52.101 154.109 53.046 154.326 53.8729 154.643C54.7278 154.97 55.4528 155.408 56.1756 156.12C56.8984 156.832 57.3429 157.547 57.6751 158.389C57.9965 159.204 58.2163 160.135 58.2794 161.499C58.3387 162.78 58.3555 163.243 58.3574 166.163V167.398C58.3555 170.318 58.3387 170.782 58.2794 172.063C58.2163 173.426 57.9965 174.357 57.6751 175.172C57.3429 176.015 56.8984 176.729 56.1756 177.441C55.4528 178.153 54.7278 178.591 53.8729 178.919C53.046 179.236 52.101 179.452 50.7172 179.514C49.4172 179.573 48.9469 179.589 45.984 179.591H44.7303C41.7674 179.589 41.297 179.573 39.9971 179.514C38.6133 179.452 37.6683 179.236 36.8413 178.919C35.9864 178.591 35.2614 178.153 34.5386 177.441C33.8159 176.729 33.3714 176.015 33.0392 175.172C32.7178 174.357 32.498 173.426 32.4349 172.063C32.3795 170.867 32.3612 170.383 32.3574 167.95V165.611C32.3612 163.178 32.3795 162.694 32.4349 161.499C32.498 160.135 32.7178 159.204 33.0392 158.389C33.3714 157.547 33.8159 156.832 34.5386 156.12C35.2614 155.408 35.9864 154.97 36.8413 154.643C37.6683 154.326 38.6133 154.109 39.9971 154.047C41.2104 153.992 41.701 153.974 44.17 153.971H46.5443ZM45.3572 160.202C41.6701 160.202 38.6812 163.147 38.6812 166.781C38.6812 170.414 41.6701 173.359 45.3572 173.359C49.0442 173.359 52.033 170.414 52.033 166.781C52.033 163.147 49.0442 160.202 45.3572 160.202ZM45.3572 162.51C47.7505 162.51 49.6906 164.422 49.6906 166.781C49.6906 169.139 47.7505 171.051 45.3572 171.051C42.9638 171.051 41.0236 169.139 41.0236 166.781C41.0236 164.422 42.9638 162.51 45.3572 162.51ZM52.2968 158.405C51.4352 158.405 50.7368 159.093 50.7368 159.942C50.7368 160.791 51.4352 161.48 52.2968 161.48C53.1584 161.48 53.8569 160.791 53.8569 159.942C53.8569 159.093 53.1584 158.405 52.2968 158.405Z" fill="#468EF1"/>
<g filter="url(#filter2_d)">
<rect x="162.357" y="221" width="119" height="50" rx="3" fill="white"/>
</g>
<path d="M220.355 247.939H221.85C222.438 250.813 224.53 252.536 227.413 252.536C230.146 252.536 231.992 251.121 232.511 248.906H230.586C230.182 250.049 229.083 250.822 227.422 250.822C225.682 250.822 224.354 249.759 223.854 247.939H228.67V246.902H223.66C223.643 246.665 223.625 246.428 223.625 246.182C223.625 245.936 223.643 245.689 223.66 245.461H228.67V244.424H223.854C224.372 242.622 225.69 241.55 227.413 241.55C229.039 241.55 230.234 242.49 230.595 243.738H232.511C232.159 241.506 230.155 239.836 227.413 239.836C224.548 239.836 222.456 241.567 221.858 244.424H220.355V245.461H221.709C221.691 245.698 221.683 245.936 221.683 246.182C221.683 246.428 221.691 246.665 221.709 246.902H220.355V247.939ZM235.064 252.527H237.13L242.649 241.55V239.845H234.009V241.506H240.654V241.646L235.064 252.527ZM249.096 252.835C251.786 252.835 253.605 251.033 253.605 248.396C253.605 245.865 251.847 244.213 249.702 244.213C248.419 244.213 247.479 244.626 246.899 245.408H246.749L247.119 241.515H252.946V239.845H245.589L244.877 247.166H246.679C247.145 246.287 248.033 245.76 249.158 245.76C250.652 245.76 251.68 246.832 251.68 248.432C251.68 250.084 250.643 251.191 249.105 251.191C247.725 251.191 246.697 250.356 246.556 249.091H244.675C244.798 251.297 246.574 252.835 249.096 252.835Z" fill="url(#paint2_linear)"/>
<path d="M187.357 233.127V255.39L192.372 258.873L207.678 251.286V245.689L195.407 242.144L197.65 247.182L201.147 248.798L193.031 252.965V234.62L187.357 233.127Z" fill="#468EF1"/>
<g filter="url(#filter3_d)">
<rect x="334.357" y="221" width="119" height="50" rx="3" fill="white"/>
</g>
<path d="M391.034 248.412H392.528C393.117 251.286 395.209 253.009 398.092 253.009C400.825 253.009 402.671 251.594 403.189 249.379H401.265C400.86 250.521 399.762 251.295 398.101 251.295C396.36 251.295 395.033 250.231 394.532 248.412H399.349V247.375H394.339C394.321 247.138 394.304 246.9 394.304 246.654C394.304 246.408 394.321 246.162 394.339 245.934H399.349V244.896H394.532C395.051 243.095 396.369 242.022 398.092 242.022C399.718 242.022 400.913 242.963 401.273 244.211H403.189C402.838 241.979 400.834 240.309 398.092 240.309C395.227 240.309 393.135 242.04 392.537 244.896H391.034V245.934H392.388C392.37 246.171 392.361 246.408 392.361 246.654C392.361 246.9 392.37 247.138 392.388 247.375H391.034V248.412ZM408.248 253H410.216V240.317H408.257L404.917 242.69V244.624L408.098 242.348H408.248V253ZM413.622 243.991H415.486C415.486 242.585 416.426 241.636 417.859 241.636C419.265 241.636 420.1 242.576 420.1 243.807C420.1 244.835 419.678 245.468 418.07 247.146L413.728 251.664V253H422.271V251.321H416.417V251.172L419.212 248.359C421.436 246.127 422.077 245.081 422.077 243.613C422.077 241.53 420.364 240.01 417.982 240.01C415.424 240.01 413.622 241.662 413.622 243.991ZM429.105 253.308C431.794 253.308 433.613 251.506 433.613 248.869C433.613 246.338 431.856 244.686 429.711 244.686C428.428 244.686 427.487 245.099 426.907 245.881H426.758L427.127 241.987H432.954V240.317H425.598L424.886 247.639H426.688C427.153 246.76 428.041 246.232 429.166 246.232C430.66 246.232 431.689 247.305 431.689 248.904C431.689 250.557 430.651 251.664 429.113 251.664C427.733 251.664 426.705 250.829 426.564 249.563H424.684C424.807 251.77 426.582 253.308 429.105 253.308Z" fill="url(#paint3_linear)"/>
<path fill-rule="evenodd" clip-rule="evenodd" d="M366.245 258.591H353.792C353 258.591 352.357 257.958 352.357 257.177V234.385C352.357 233.604 353 232.971 353.792 232.971H376.923C377.715 232.971 378.357 233.604 378.357 234.385V257.177C378.357 257.958 377.715 258.591 376.923 258.591H370.297V248.67H373.677L374.183 244.803H370.297V242.334C370.297 241.215 370.613 240.452 372.242 240.452L374.319 240.451V236.993C373.96 236.946 372.727 236.84 371.292 236.84C368.296 236.84 366.245 238.642 366.245 241.951V244.803H362.857V248.67H366.245V258.591Z" fill="#468EF1"/>
<g filter="url(#filter4_d)">
<rect x="486" y="142" width="119" height="50" rx="3" fill="white"/>
</g>
<path d="M545.677 168.939H547.171C547.76 171.813 549.852 173.536 552.734 173.536C555.468 173.536 557.313 172.121 557.832 169.906H555.907C555.503 171.049 554.404 171.822 552.743 171.822C551.003 171.822 549.676 170.759 549.175 168.939H553.991V167.902H548.981C548.964 167.665 548.946 167.428 548.946 167.182C548.946 166.936 548.964 166.689 548.981 166.461H553.991V165.424H549.175C549.693 163.622 551.012 162.55 552.734 162.55C554.36 162.55 555.556 163.49 555.916 164.738H557.832C557.48 162.506 555.477 160.836 552.734 160.836C549.869 160.836 547.777 162.567 547.18 165.424H545.677V166.461H547.03C547.013 166.698 547.004 166.936 547.004 167.182C547.004 167.428 547.013 167.665 547.03 167.902H545.677V168.939ZM564.279 173.835C566.968 173.835 568.788 172.033 568.788 169.396C568.788 166.865 567.03 165.213 564.885 165.213C563.602 165.213 562.662 165.626 562.082 166.408H561.932L562.301 162.515H568.129V160.845H560.772L560.06 168.166H561.862C562.328 167.287 563.216 166.76 564.341 166.76C565.835 166.76 566.863 167.832 566.863 169.432C566.863 171.084 565.826 172.191 564.288 172.191C562.908 172.191 561.88 171.356 561.739 170.091H559.858C559.981 172.297 561.757 173.835 564.279 173.835ZM575.577 173.835C578.531 173.835 580.253 171.4 580.253 167.199C580.253 162.989 578.504 160.537 575.577 160.537C572.633 160.537 570.884 162.989 570.884 167.173C570.884 171.392 572.616 173.835 575.577 173.835ZM575.577 172.2C573.855 172.2 572.87 170.442 572.87 167.173C572.87 163.947 573.872 162.181 575.577 162.181C577.283 162.181 578.267 163.93 578.267 167.173C578.267 170.451 577.3 172.2 575.577 172.2Z" fill="url(#paint4_linear)"/>
<path fill-rule="evenodd" clip-rule="evenodd" d="M532.721 164.126C532.904 164.983 533 165.871 533 166.782C533 167.231 532.977 167.676 532.931 168.113C532.592 171.346 531.034 174.222 528.717 176.286L524.458 172.899C525.68 172.033 526.633 170.82 527.166 169.406H520.079V164.126H532.721Z" fill="#468EF1"/>
<mask id="mask0" mask-type="alpha" maskUnits="userSpaceOnUse" x="508" y="169" width="21" height="11">
<path d="M520 174.312C521.661 174.312 523.199 173.79 524.453 172.902L528.715 176.287C526.409 178.341 523.353 179.592 520 179.592C514.948 179.592 510.57 176.753 508.418 172.606L512.783 169.266C513.825 172.205 516.662 174.312 520 174.312Z" fill="#468EF1"/>
</mask>
<g mask="url(#mask0)">
<path d="M520 174.312C521.661 174.312 523.199 173.79 524.453 172.902L528.715 176.287C526.409 178.341 523.353 179.592 520 179.592C514.948 179.592 510.57 176.753 508.418 172.606L512.783 169.266C513.825 172.205 516.662 174.312 520 174.312Z" fill="#468EF1"/>
</g>
<mask id="mask1" mask-type="alpha" maskUnits="userSpaceOnUse" x="507" y="160" width="6" height="13">
<path d="M508.474 160.851L512.836 164.154C512.526 164.972 512.358 165.858 512.358 166.782C512.358 167.686 512.519 168.554 512.816 169.357L508.427 172.623C507.515 170.872 507 168.886 507 166.782C507 164.642 507.532 162.624 508.474 160.851Z" fill="#468EF1"/>
</mask>
<g mask="url(#mask1)">
<path d="M508.474 160.851L512.836 164.154C512.526 164.972 512.358 165.858 512.358 166.782C512.358 167.686 512.519 168.554 512.816 169.357L508.427 172.623C507.515 170.872 507 168.886 507 166.782C507 164.642 507.532 162.624 508.474 160.851Z" fill="#468EF1"/>
</g>
<mask id="mask2" mask-type="alpha" maskUnits="userSpaceOnUse" x="508" y="153" width="22" height="12">
<path d="M520.001 153.971C523.601 153.971 526.86 155.414 529.214 157.744L525.44 161.491C524.054 160.108 522.129 159.25 520.001 159.25C516.718 159.25 513.918 161.29 512.836 164.154L508.475 160.851C510.646 156.761 514.993 153.971 520.001 153.971Z" fill="#468EF1"/>
</mask>
<g mask="url(#mask2)">
<path d="M520.001 153.971C523.601 153.971 526.86 155.414 529.214 157.744L525.44 161.491C524.054 160.108 522.129 159.25 520.001 159.25C516.718 159.25 513.918 161.29 512.836 164.154L508.475 160.851C510.646 156.761 514.993 153.971 520.001 153.971Z" fill="#468EF1"/>
</g>
<defs>
<filter id="filter0_d" x="190.357" y="0" width="235" height="115.444" filterUnits="userSpaceOnUse" color-interpolation-filters="sRGB">
<feFlood flood-opacity="0" result="BackgroundImageFix"/>
<feColorMatrix in="SourceAlpha" type="matrix" values="0 0 0 0 0 0 0 0 0 0 0 0 0 0 0 0 0 0 127 0"/>
<feOffset dy="3"/>
<feGaussianBlur stdDeviation="5"/>
<feColorMatrix type="matrix" values="0 0 0 0 0 0 0 0 0 0 0 0 0 0 0 0 0 0 0.1 0"/>
<feBlend mode="normal" in2="BackgroundImageFix" result="effect1_dropShadow"/>
<feBlend mode="normal" in="SourceGraphic" in2="effect1_dropShadow" result="shape"/>
</filter>
<filter id="filter1_d" x="0.357422" y="135" width="139" height="70" filterUnits="userSpaceOnUse" color-interpolation-filters="sRGB">
<feFlood flood-opacity="0" result="BackgroundImageFix"/>
<feColorMatrix in="SourceAlpha" type="matrix" values="0 0 0 0 0 0 0 0 0 0 0 0 0 0 0 0 0 0 127 0"/>
<feOffset dy="3"/>
<feGaussianBlur stdDeviation="5"/>
<feColorMatrix type="matrix" values="0 0 0 0 0 0 0 0 0 0 0 0 0 0 0 0 0 0 0.1 0"/>
<feBlend mode="normal" in2="BackgroundImageFix" result="effect1_dropShadow"/>
<feBlend mode="normal" in="SourceGraphic" in2="effect1_dropShadow" result="shape"/>
</filter>
<filter id="filter2_d" x="152.357" y="214" width="139" height="70" filterUnits="userSpaceOnUse" color-interpolation-filters="sRGB">
<feFlood flood-opacity="0" result="BackgroundImageFix"/>
<feColorMatrix in="SourceAlpha" type="matrix" values="0 0 0 0 0 0 0 0 0 0 0 0 0 0 0 0 0 0 127 0"/>
<feOffset dy="3"/>
<feGaussianBlur stdDeviation="5"/>
<feColorMatrix type="matrix" values="0 0 0 0 0 0 0 0 0 0 0 0 0 0 0 0 0 0 0.1 0"/>
<feBlend mode="normal" in2="BackgroundImageFix" result="effect1_dropShadow"/>
<feBlend mode="normal" in="SourceGraphic" in2="effect1_dropShadow" result="shape"/>
</filter>
<filter id="filter3_d" x="324.357" y="214" width="139" height="70" filterUnits="userSpaceOnUse" color-interpolation-filters="sRGB">
<feFlood flood-opacity="0" result="BackgroundImageFix"/>
<feColorMatrix in="SourceAlpha" type="matrix" values="0 0 0 0 0 0 0 0 0 0 0 0 0 0 0 0 0 0 127 0"/>
<feOffset dy="3"/>
<feGaussianBlur stdDeviation="5"/>
<feColorMatrix type="matrix" values="0 0 0 0 0 0 0 0 0 0 0 0 0 0 0 0 0 0 0.1 0"/>
<feBlend mode="normal" in2="BackgroundImageFix" result="effect1_dropShadow"/>
<feBlend mode="normal" in="SourceGraphic" in2="effect1_dropShadow" result="shape"/>
</filter>
<filter id="filter4_d" x="476" y="135" width="139" height="70" filterUnits="userSpaceOnUse" color-interpolation-filters="sRGB">
<feFlood flood-opacity="0" result="BackgroundImageFix"/>
<feColorMatrix in="SourceAlpha" type="matrix" values="0 0 0 0 0 0 0 0 0 0 0 0 0 0 0 0 0 0 127 0"/>
<feOffset dy="3"/>
<feGaussianBlur stdDeviation="5"/>
<feColorMatrix type="matrix" values="0 0 0 0 0 0 0 0 0 0 0 0 0 0 0 0 0 0 0.1 0"/>
<feBlend mode="normal" in2="BackgroundImageFix" result="effect1_dropShadow"/>
<feBlend mode="normal" in="SourceGraphic" in2="effect1_dropShadow" result="shape"/>
</filter>
<linearGradient id="paint0_linear" x1="324.139" y1="65.1486" x2="331.91" y2="81.1927" gradientUnits="userSpaceOnUse">
<stop stop-color="#A3EDD0"/>
<stop offset="1" stop-color="#42DB9B"/>
</linearGradient>
<linearGradient id="paint1_linear" x1="69.8351" y1="161.13" x2="77.2326" y2="174.31" gradientUnits="userSpaceOnUse">
<stop stop-color="#A3EDD0"/>
<stop offset="1" stop-color="#42DB9B"/>
</linearGradient>
<linearGradient id="paint2_linear" x1="219.518" y1="238.667" x2="227.823" y2="252.104" gradientUnits="userSpaceOnUse">
<stop stop-color="#A3EDD0"/>
<stop offset="1" stop-color="#42DB9B"/>
</linearGradient>
<linearGradient id="paint3_linear" x1="390.152" y1="239.139" x2="397.432" y2="254.188" gradientUnits="userSpaceOnUse">
<stop stop-color="#A3EDD0"/>
<stop offset="1" stop-color="#42DB9B"/>
</linearGradient>
<linearGradient id="paint4_linear" x1="544.826" y1="159.676" x2="553.623" y2="174.131" gradientUnits="userSpaceOnUse">
<stop stop-color="#A3EDD0"/>
<stop offset="1" stop-color="#42DB9B"/>
</linearGradient>
</defs>
</svg>
