<svg width="34" height="48" viewBox="0 0 34 48" fill="none" xmlns="http://www.w3.org/2000/svg">
<circle cx="16.5" cy="12.5" r="2.5" fill="url(#paint0_linear)"/>
<circle cx="7.5" cy="7.5" r="2.5" fill="url(#paint1_linear)"/>
<circle cx="25.5" cy="7.5" r="2.5" fill="url(#paint2_linear)"/>
<circle cx="16.5" cy="2.5" r="2.5" fill="url(#paint3_linear)"/>
<path d="M13.852 35.3389V46.4068C13.852 46.8749 14.3445 47.1794 14.7632 46.97L19.4522 44.6255C19.8788 44.4121 20.1483 43.9761 20.1483 43.4992V35.3389C20.1483 34.9042 20.2983 34.4828 20.5728 34.1458L33.5757 18.1878C33.8503 17.8508 34.0002 17.4294 34.0002 16.9946V13.2593C34.0002 12.5638 33.4364 12 32.741 12H1.25926C0.563752 12 0 12.5638 0 13.2593V16.9946C0 17.4293 0.149973 17.8507 0.42453 18.1877L13.4274 34.1457C13.702 34.4828 13.852 34.9042 13.852 35.3389Z" fill="#518EF8"/>
<defs>
<linearGradient id="paint0_linear" x1="18.4869" y1="14.3727" x2="14.3189" y2="11.2503" gradientUnits="userSpaceOnUse">
<stop stop-color="#FFC41B"/>
<stop offset="1" stop-color="#F69866"/>
</linearGradient>
<linearGradient id="paint1_linear" x1="9.48694" y1="9.37273" x2="5.31892" y2="6.25028" gradientUnits="userSpaceOnUse">
<stop stop-color="#FFC41B"/>
<stop offset="1" stop-color="#F69866"/>
</linearGradient>
<linearGradient id="paint2_linear" x1="27.4869" y1="9.37273" x2="23.3189" y2="6.25028" gradientUnits="userSpaceOnUse">
<stop stop-color="#FFC41B"/>
<stop offset="1" stop-color="#F69866"/>
</linearGradient>
<linearGradient id="paint3_linear" x1="18.4869" y1="4.37273" x2="14.3189" y2="1.25028" gradientUnits="userSpaceOnUse">
<stop stop-color="#FFC41B"/>
<stop offset="1" stop-color="#F69866"/>
</linearGradient>
</defs>
</svg>
