<svg width="526" height="324" viewBox="0 0 526 324" fill="none" xmlns="http://www.w3.org/2000/svg">
<g opacity="0.3">
<path fill-rule="evenodd" clip-rule="evenodd" d="M389.013 29.1637H326.361C326.361 29.1637 331.354 -6.53051 344.833 16.4336C344.833 16.4336 356.315 -15.0175 368.296 18.1808C368.296 18.1808 389.013 11.1918 389.013 29.1637Z" fill="#DDE1E7"/>
</g>
<g opacity="0.3">
<path fill-rule="evenodd" clip-rule="evenodd" d="M211.495 26.2046H148.843C148.843 26.2046 153.835 -9.48936 167.314 13.4745C167.314 13.4745 178.796 -17.9764 190.778 15.2217C190.777 15.2217 211.495 8.23315 211.495 26.2046Z" fill="#DDE1E7"/>
</g>
<g opacity="0.3">
<path fill-rule="evenodd" clip-rule="evenodd" d="M62.652 165.855H0C0 165.855 4.99237 130.161 18.4713 153.125C18.4713 153.125 29.9533 121.674 41.9345 154.872C41.934 154.872 62.652 147.883 62.652 165.855Z" fill="#DDE1E7"/>
</g>
<path fill-rule="evenodd" clip-rule="evenodd" d="M380.171 176.451L477.601 200.051C489.18 202.855 500.354 194.195 500.354 182.416V62.3309C500.354 53.8252 494.378 46.4596 485.975 44.6092L388.545 23.1547C383.102 21.9562 377.403 23.2641 373.052 26.71C368.701 30.1559 366.169 35.3672 366.169 40.8764V158.817C366.17 167.179 371.95 174.46 380.171 176.451Z" fill="white"/>
<path fill-rule="evenodd" clip-rule="evenodd" d="M501.926 182.416C501.921 193.285 493.02 202.102 482.019 202.135C480.404 202.134 478.795 201.941 477.226 201.56L379.796 177.96C370.863 175.812 364.58 167.9 364.596 158.816V40.8762C364.596 34.8957 367.345 29.2387 372.068 25.4979C376.791 21.7572 382.977 20.3373 388.885 21.6381L486.316 43.0926C495.438 45.1012 501.926 53.0972 501.926 62.3307V182.416ZM388.203 24.6714C386.993 24.4043 385.757 24.2693 384.517 24.2689C375.248 24.29 367.745 31.7186 367.742 40.8764V158.816C367.729 166.468 373.021 173.133 380.546 174.942L477.976 198.542C482.989 199.756 488.288 198.627 492.349 195.48C496.41 192.332 498.782 187.516 498.782 182.416V62.3309C498.819 54.5403 493.338 47.7848 485.633 46.1259L388.203 24.6714Z" fill="#4C93F4"/>
<path opacity="0.3" fill-rule="evenodd" clip-rule="evenodd" d="M509.571 320.671H55.3047C55.3047 320.671 105.08 296.734 102.219 265.618C99.358 234.501 85.6272 199.192 139.407 175.854C193.186 152.515 199.48 135.76 210.922 83.6974C222.365 31.6349 270.995 -6.66377 304.75 113.02C338.506 232.703 382.559 168.074 414.026 188.42C445.493 208.766 418.603 254.246 459.224 268.01C499.844 281.774 509.571 300.923 509.571 320.671Z" fill="#DDE1E7"/>
<path fill-rule="evenodd" clip-rule="evenodd" d="M421.431 70.9427C420.667 70.7525 419.146 71.1198 419.146 71.1198C418.26 71.3342 417.528 70.6676 417.461 69.6223L417.46 69.4552V61.0697L415.859 60.671V60.6674L408.414 58.8132C408.295 58.7838 408.215 58.7659 408.177 58.7579C408.197 58.7624 408.229 58.7684 408.275 58.7763C407.246 58.4534 406.762 57.6015 407.197 56.8243C407.197 56.8243 407.943 55.4877 407.943 54.7239C407.943 53.2528 406.609 51.7286 404.963 51.3189C403.318 50.9093 401.982 51.7684 401.982 53.2396C401.982 54.0034 402.729 55.7116 402.729 55.7116C403.164 56.7055 402.679 57.3161 401.651 57.1268L401.484 57.0872L398.448 56.3314L393.087 54.9961V54.9997L393.223 55.0339V63.4184L393.225 63.5859C393.292 64.6308 394.024 65.2979 394.909 65.083C394.909 65.083 396.431 64.7157 397.195 64.906C398.666 65.2724 399.858 66.9042 399.858 68.5496C399.858 70.1951 398.666 71.2329 397.195 70.8665C396.431 70.6762 394.909 69.5497 394.909 69.5497C394.024 68.8949 393.292 69.1971 393.225 70.2097C393.222 70.1623 393.221 70.1316 393.22 70.1107C393.221 70.1489 393.224 70.2299 393.224 70.348V79.3833C393.504 79.4516 394.153 79.6125 394.568 79.7153L401.51 81.4405C401.628 81.4698 401.708 81.4873 401.746 81.4958C401.726 81.4919 401.695 81.4851 401.648 81.4769C402.677 81.8007 403.161 82.6521 402.727 83.4289C402.727 83.4289 401.981 84.7648 401.981 85.5291C401.981 87.0004 403.314 88.5248 404.96 88.9349C406.607 89.3451 407.942 88.4852 407.942 87.0134C407.942 86.2494 407.194 84.5416 407.194 84.5416C406.76 83.5484 407.244 82.938 408.273 83.1267L408.44 83.166L412.096 84.0805V84.0834L415.614 84.9594C415.746 84.9924 417.458 85.4223 417.458 85.4223V76.3844C417.458 76.2662 417.456 76.1852 417.455 76.147C417.455 76.1677 417.457 76.1987 417.46 76.246C417.527 75.2339 418.259 74.9319 419.144 75.586C419.144 75.586 420.666 76.7123 421.43 76.9026C422.901 77.269 424.093 76.2317 424.093 74.5857C424.093 72.9398 422.902 71.3092 421.431 70.9427Z" fill="#FF6BC1"/>
<path fill-rule="evenodd" clip-rule="evenodd" d="M448.26 82.6383C448.26 82.6383 446.738 83.0067 445.974 82.8165C444.503 82.45 443.311 80.8189 443.311 79.1728C443.311 77.5266 444.504 76.4895 445.974 76.8559C446.738 77.0462 448.26 78.1716 448.26 78.1716C449.145 78.8275 449.877 78.5248 449.944 77.513L449.946 77.3464V68.9611L448.617 68.6304V68.6268L444.004 67.4777L441.172 66.7722C441.053 66.7426 440.973 66.7246 440.935 66.7167C440.95 66.7201 440.972 66.7242 440.999 66.7292L434.242 65.0464L431.207 64.2906L430.871 64.2068L425.846 62.9551V62.9587L425.982 62.9929V71.3783L425.984 71.5458C426.051 72.5907 426.783 73.2578 427.668 73.0429C427.668 73.0429 429.19 72.6756 429.954 72.8659C431.425 73.2323 432.617 74.8639 432.617 76.5095C432.617 78.1552 431.425 79.1928 429.954 78.8264C429.19 78.6361 427.668 77.5096 427.668 77.5096C426.783 76.855 426.051 77.157 425.984 78.1696C425.981 78.122 425.98 78.0913 425.979 78.0703C425.98 78.1086 425.982 78.1901 425.982 78.3077V87.343C426.263 87.4112 426.912 87.5724 427.327 87.675L434.269 89.4001C434.387 89.4295 434.467 89.447 434.505 89.4554C434.485 89.4516 434.454 89.4447 434.407 89.4365C435.436 89.7604 435.921 90.6123 435.486 91.3888C435.486 91.3888 434.739 92.7247 434.739 93.4885C434.739 94.9603 436.073 96.4847 437.719 96.8944C439.366 97.304 440.701 96.4447 440.701 94.9731C440.701 94.2088 439.954 92.501 439.954 92.501C439.52 91.5081 440.004 90.8974 441.033 91.0861L441.199 91.1255L444.855 92.0399V92.0429L448.373 92.9189C448.472 92.9435 449.457 93.192 449.946 93.3137V84.276C449.946 84.1579 449.948 84.078 449.949 84.04C449.949 84.0607 449.947 84.091 449.944 84.1367C449.877 83.0912 449.145 82.4248 448.26 82.6383Z" fill="#468EF1" stroke="white" stroke-width="2"/>
<path fill-rule="evenodd" clip-rule="evenodd" d="M440.666 118.98C440.666 118.217 439.92 116.509 439.92 116.509C439.485 115.515 439.97 114.904 440.998 115.093L441.165 115.133L449.55 117.221V115.621H449.554V108.176C449.554 108.057 449.551 107.976 449.55 107.938C449.55 107.959 449.553 107.99 449.556 108.038C449.623 107.025 450.353 106.723 451.24 107.378C451.24 107.378 452.763 108.503 453.527 108.694C454.998 109.06 456.19 108.023 456.19 106.377C456.19 104.732 454.998 103.1 453.527 102.733C452.763 102.543 451.24 102.911 451.24 102.911C450.355 103.125 449.625 102.459 449.556 101.413L449.554 101.246V92.8502H449.55V92.9867L441.165 90.8984L440.998 90.8585C439.97 90.6692 439.485 91.2803 439.92 92.2744C439.92 92.2744 440.666 93.9813 440.666 94.746C440.666 96.2171 439.332 97.0769 437.686 96.6673C436.041 96.2576 434.706 94.7328 434.706 93.2616C434.706 92.4976 435.453 91.1619 435.453 91.1619C435.887 90.3847 435.403 89.5321 434.374 89.209C434.421 89.2176 434.451 89.224 434.472 89.2283C434.434 89.2199 434.353 89.2024 434.235 89.1728L425.2 86.9229C425.2 87.2035 425.202 87.853 425.203 88.2681L425.207 95.2116C425.207 95.33 425.21 95.4103 425.211 95.4485C425.21 95.4285 425.208 95.3971 425.205 95.3495C425.137 96.3618 424.406 96.6641 423.521 96.0095C423.521 96.0095 421.999 94.8841 421.235 94.6938C419.764 94.3272 418.571 95.3636 418.571 97.0098C418.571 98.6559 419.764 100.287 421.235 100.654C421.999 100.844 423.521 100.476 423.521 100.476C424.406 100.262 425.137 100.928 425.205 101.974L425.207 102.141L425.203 105.797H425.2V109.314C425.2 109.447 425.196 111.158 425.196 111.158L434.235 113.408C434.353 113.438 434.434 113.456 434.472 113.464C434.451 113.459 434.421 113.453 434.374 113.445C435.403 113.768 435.887 114.62 435.453 115.398C435.453 115.398 434.706 116.733 434.706 117.497C434.706 118.968 436.04 120.493 437.686 120.903C439.332 121.313 440.666 120.452 440.666 118.98Z" fill="#468EF1" stroke="white" stroke-width="2"/>
<path fill-rule="evenodd" clip-rule="evenodd" d="M165.822 176.451L68.3918 200.051C56.8135 202.855 45.6387 194.195 45.6387 182.416V62.3309C45.6388 53.8252 51.6153 46.4596 60.0181 44.6092L157.449 23.1547C162.891 21.9562 168.59 23.2641 172.941 26.71C177.292 30.1559 179.824 35.3672 179.824 40.8764V158.817C179.824 167.179 174.043 174.46 165.822 176.451Z" fill="white"/>
<path fill-rule="evenodd" clip-rule="evenodd" d="M44.0664 182.416C44.0707 193.285 52.9726 202.102 63.9733 202.135C65.5884 202.134 67.1975 201.941 68.7659 201.56L166.196 177.96C175.13 175.812 181.412 167.9 181.396 158.816V40.8762C181.396 34.8957 178.647 29.2387 173.924 25.4979C169.201 21.7572 163.015 20.3373 157.107 21.6381L59.6762 43.0926C50.5543 45.1012 44.0664 53.0972 44.0664 62.3307V182.416ZM157.79 24.6714C159 24.4043 160.235 24.2693 161.475 24.2689C170.744 24.29 178.248 31.7186 178.25 40.8764V158.816C178.264 166.468 172.972 173.133 165.447 174.942L68.0166 198.542C63.0037 199.756 57.7042 198.627 53.6433 195.48C49.5824 192.332 47.2106 187.516 47.2107 182.416V62.3309C47.1734 54.5403 52.6548 47.7848 60.3594 46.1259L157.79 24.6714Z" fill="#4C93F4"/>
<path fill-rule="evenodd" clip-rule="evenodd" d="M118.203 151.763C135.607 151.763 149.716 134.43 149.716 113.048C149.716 91.6656 135.607 74.332 118.203 74.332C100.799 74.332 86.6895 91.6656 86.6895 113.048C86.6895 134.43 100.799 151.763 118.203 151.763Z" fill="#468EF1"/>
<path fill-rule="evenodd" clip-rule="evenodd" d="M118.203 144.02C111.469 144.02 105.139 140.798 100.376 134.948C95.6135 129.098 92.9922 121.321 92.9922 113.048C92.9922 104.775 95.6138 96.9973 100.376 91.1476C105.139 85.2979 111.469 82.0762 118.203 82.0762C124.936 82.0762 131.266 85.2979 136.029 91.1476C140.792 96.9973 143.413 104.775 143.413 113.048C143.413 121.32 140.79 129.098 136.029 134.948C131.267 140.798 124.936 144.02 118.203 144.02Z" fill="#FAFCFB"/>
<path fill-rule="evenodd" clip-rule="evenodd" d="M118.203 136.276C113.153 136.276 108.405 133.86 104.834 129.472C101.263 125.085 99.2959 119.252 99.2959 113.047C99.2959 106.843 101.262 101.01 104.834 96.6226C108.405 92.2352 113.153 89.8193 118.203 89.8193C123.253 89.8193 128.001 92.2356 131.572 96.6229C135.144 101.01 137.11 106.843 137.11 113.047C137.11 119.251 135.143 125.085 131.572 129.472C128.001 133.859 123.253 136.276 118.203 136.276Z" fill="#468EF1"/>
<path fill-rule="evenodd" clip-rule="evenodd" d="M118.203 128.532C114.837 128.532 111.672 126.921 109.291 123.997C106.911 121.073 105.6 117.184 105.6 113.048C105.6 108.911 106.911 105.023 109.291 102.099C111.672 99.1739 114.837 97.5635 118.203 97.5635C121.57 97.5635 124.735 99.1739 127.116 102.099C129.496 105.023 130.807 108.912 130.807 113.048C130.807 117.184 129.496 121.072 127.116 123.997C124.735 126.922 121.569 128.532 118.203 128.532Z" fill="#FAFCFB"/>
<path fill-rule="evenodd" clip-rule="evenodd" d="M118.203 119.3C116.844 119.3 115.566 118.65 114.605 117.469C112.617 114.857 112.617 111.239 114.605 108.627C115.566 107.446 116.844 106.796 118.203 106.796C119.562 106.796 120.841 107.446 121.802 108.627C123.789 111.239 123.789 114.857 121.802 117.469C120.84 118.65 119.562 119.3 118.203 119.3Z" fill="#FF6BC1"/>
<path fill-rule="evenodd" clip-rule="evenodd" d="M148.322 76.0455C148.175 75.8439 147.941 75.7246 147.691 75.7246C147.442 75.7246 147.208 75.8439 147.061 76.0455L144.239 79.5117L143.56 76.3828L136.892 84.576L137.243 88.1077L117.572 112.274C117.225 112.732 117.225 113.365 117.572 113.822C117.719 114.024 117.953 114.143 118.202 114.143C118.452 114.143 118.686 114.024 118.833 113.822L138.561 89.5852L141.455 90.0194L148.123 81.8262L145.559 80.9862L148.321 77.5933C148.669 77.1362 148.669 76.5031 148.322 76.0455Z" fill="#423565"/>
<path fill-rule="evenodd" clip-rule="evenodd" d="M179.09 320.686C179.09 320.686 188.553 305.266 188.903 293C189.254 280.734 174.042 277.689 171.589 263.32C169.136 248.952 172.782 236.225 158.063 229.566C143.343 222.907 120.213 213.445 120.213 208.889C120.213 208.889 127.373 236.768 139.289 244.479C151.204 252.19 146.147 275.827 153.857 287.042L179.09 320.686Z" fill="url(#paint0_linear)"/>
<path fill-rule="evenodd" clip-rule="evenodd" d="M177.869 323.135C178.954 320.375 179.804 317.529 180.409 314.626C180.706 313.176 180.92 311.711 181.05 310.237C181.093 309.499 181.164 308.763 181.157 308.024C181.157 307.655 181.176 307.286 181.163 306.917L181.117 305.811C180.973 302.862 180.326 299.958 179.206 297.226C178.891 296.562 178.585 295.893 178.252 295.239L177.689 294.292L177.408 293.819C177.317 293.659 177.198 293.518 177.094 293.367L176.449 292.475C176.344 292.325 176.229 292.182 176.106 292.046L175.747 291.628L175.388 291.211L175.209 291.003L175.014 290.807L174.237 290.025C172.124 287.975 169.654 286.309 167.465 284.267C166.358 283.257 165.339 282.154 164.42 280.969L163.782 280.042C163.56 279.739 163.356 279.423 163.171 279.097L162.617 278.118C162.526 277.953 162.429 277.793 162.344 277.626L162.112 277.114C160.775 274.414 160.002 271.471 159.839 268.463C159.779 266.964 159.848 265.463 160.044 263.977C160.22 262.493 160.479 261.032 160.663 259.57C160.873 258.12 160.943 256.654 160.871 255.19C160.775 253.735 160.481 252.3 159.996 250.924C159.748 250.237 159.461 249.564 159.139 248.909C158.825 248.252 158.465 247.618 158.061 247.012C157.648 246.415 157.182 245.856 156.669 245.341C156.163 244.814 155.621 244.314 155.077 243.816C152.874 241.848 150.578 239.968 148.295 238.079L141.429 232.424C139.14 230.545 136.775 228.765 134.385 227.007C133.195 226.122 132 225.235 130.865 224.27C129.728 223.306 128.66 222.264 127.668 221.152C123.711 216.701 122.784 215.653 120.746 210.086C122.875 215.618 123.883 216.6 127.885 220.956C128.88 222.046 129.948 223.067 131.081 224.013C132.214 224.958 133.411 225.83 134.609 226.703C137.013 228.437 139.405 230.203 141.719 232.066C144.032 233.929 146.329 235.799 148.624 237.679C150.918 239.56 153.215 241.434 155.442 243.412C155.993 243.913 156.543 244.418 157.066 244.96C157.602 245.495 158.089 246.077 158.523 246.698C158.944 247.324 159.32 247.981 159.647 248.661C159.982 249.335 160.278 250.028 160.536 250.735C161.043 252.159 161.353 253.645 161.457 255.153C161.536 256.654 161.469 258.159 161.258 259.647C161.066 261.126 160.803 262.586 160.625 264.048C160.429 265.502 160.357 266.971 160.41 268.437C160.561 271.371 161.308 274.244 162.604 276.881L162.83 277.381C162.912 277.545 163.007 277.702 163.095 277.862L163.632 278.821C163.811 279.14 164.009 279.448 164.224 279.744L164.844 280.651C165.74 281.813 166.735 282.896 167.816 283.889C168.342 284.402 168.921 284.863 169.475 285.348L171.194 286.756C172.348 287.687 173.485 288.657 174.557 289.697L175.341 290.5L175.537 290.701L175.719 290.916L176.081 291.345L176.443 291.774C176.568 291.914 176.683 292.061 176.79 292.216L177.439 293.132C177.544 293.288 177.665 293.432 177.756 293.596L178.038 294.082L178.602 295.052C178.936 295.721 179.241 296.404 179.554 297.083L179.943 298.134L180.137 298.659C180.194 298.837 180.243 299.017 180.296 299.196L180.609 300.272C180.7 300.634 180.772 301 180.854 301.364C181.036 302.089 181.111 302.834 181.231 303.569C181.281 303.939 181.3 304.312 181.336 304.682C181.368 305.054 181.409 305.424 181.408 305.798L181.436 306.915C181.443 307.287 181.419 307.659 181.411 308.03C181.406 308.775 181.323 309.516 181.267 310.257C181.113 311.736 180.874 313.204 180.551 314.655C179.898 317.553 179.001 320.389 177.869 323.135Z" fill="white"/>
<path fill-rule="evenodd" clip-rule="evenodd" d="M179.089 320.686C178.742 320.557 178.398 320.434 178.057 320.318C177.967 320.288 177.881 320.255 177.794 320.228C169.184 317.289 162.401 317.142 153.345 314.761C145.545 312.709 138.505 304.458 132.984 298.937C130.37 296.323 127.762 293.659 124.804 291.439C122.187 289.474 118.999 289.008 115.802 288.909C107.24 288.643 98.5814 289.023 90.9611 284.42C84.6267 280.598 81.66 273.979 81.66 266.715C81.66 245.816 71.2941 224.597 70.1876 222.395C70.1546 222.327 70.1307 222.276 70.1127 222.243C70.1068 222.228 70.1006 222.216 70.0977 222.21C70.2745 222.285 76.9164 225.204 88.67 239.38C100.585 253.747 101.288 267.415 127.22 270.57C153.153 273.725 161.542 291.074 166.474 300.008C172.081 310.173 179.089 320.686 179.089 320.686Z" fill="url(#paint1_linear)"/>
<path fill-rule="evenodd" clip-rule="evenodd" d="M178.057 320.318C177.968 320.288 177.881 320.255 177.794 320.228C173.063 317.552 168.557 314.497 164.321 311.091C161.664 308.942 159.145 306.628 156.778 304.162C154.416 301.688 152.249 299.041 150.031 296.461C147.813 293.88 145.527 291.35 142.964 289.127C141.699 288.014 140.302 287.059 138.804 286.286C137.301 285.523 135.715 284.933 134.079 284.528C130.801 283.702 127.387 283.517 123.996 283.514C123.15 283.52 122.286 283.514 121.428 283.491L120.138 283.413L118.852 283.277C117.145 283.056 115.458 282.695 113.81 282.197C110.516 281.182 107.396 279.672 104.556 277.72C101.728 275.768 99.1546 273.469 96.8972 270.877C94.6371 268.292 92.6739 265.462 91.0443 262.44C90.2257 260.933 89.4899 259.383 88.8401 257.796C88.2232 256.19 87.7441 254.535 87.4079 252.849C87.0518 251.174 86.7736 249.49 86.4359 247.824C86.1072 246.16 85.6675 244.519 85.1198 242.914L84.698 241.711C84.5485 241.316 84.3751 240.928 84.2165 240.536C83.9053 239.743 83.5225 238.987 83.1548 238.221C82.9784 237.834 82.766 237.467 82.563 237.094L81.9501 235.978L81.2799 234.896C81.0587 234.534 80.8402 234.169 80.5923 233.822C78.6996 230.992 76.5266 228.36 74.1061 225.965C72.85 224.721 71.544 223.532 70.1882 222.398C70.1552 222.329 70.1313 222.278 70.1133 222.245C71.528 223.391 72.8927 224.596 74.2076 225.861C76.6714 228.233 78.8925 230.845 80.8379 233.658C81.0883 234.004 81.3133 234.369 81.5407 234.731L82.2235 235.82L82.8516 236.938C83.0612 237.312 83.2763 237.683 83.4556 238.069C83.8355 238.837 84.2272 239.6 84.5481 240.396C84.7126 240.79 84.8894 241.182 85.0444 241.579L85.4812 242.787C86.0463 244.406 86.5029 246.061 86.8478 247.74C87.2008 249.412 87.4937 251.093 87.8617 252.749C88.205 254.407 88.6892 256.032 89.3092 257.606C89.9568 259.174 90.6886 260.705 91.5013 262.194C93.1193 265.177 95.0675 267.969 97.3094 270.517C99.5421 273.068 102.086 275.329 104.882 277.246C107.678 279.157 110.747 280.634 113.985 281.625C115.601 282.117 117.255 282.475 118.929 282.695L120.188 282.835L121.453 282.913C122.297 282.94 123.137 282.949 123.998 282.946C127.414 282.955 130.868 283.15 134.215 284.002C135.889 284.421 137.511 285.029 139.048 285.814C140.581 286.611 142.01 287.594 143.304 288.739C145.899 290.992 148.179 293.557 150.38 296.162C152.581 298.767 154.722 301.426 157.052 303.902C159.39 306.376 161.881 308.702 164.508 310.867C168.757 314.384 173.289 317.545 178.057 320.318Z" fill="white"/>
<path fill-rule="evenodd" clip-rule="evenodd" d="M415.153 216.376C418.586 226.248 417.94 244.489 411.504 252.429C405.068 260.369 395.839 271.74 397.34 285.261C398.745 297.912 387.751 305.081 381.498 305.951L381.396 305.966C381.026 306.014 380.654 306.038 380.281 306.041C380.281 306.041 362.148 282.256 375.882 262.729C389.615 243.203 387.255 242.772 387.683 230.325C388.111 217.878 390.689 205.002 400.989 200.926C411.223 196.873 405.355 187.949 419.597 186.783C419.618 186.783 419.639 186.78 419.663 186.78L419.872 186.762C419.872 186.762 411.719 206.504 415.153 216.376Z" fill="url(#paint2_linear)"/>
<path fill-rule="evenodd" clip-rule="evenodd" d="M419.663 186.78C418.285 188.273 416.942 189.794 415.635 191.344C413.766 193.542 412.013 195.836 410.196 198.082C408.383 200.328 406.547 202.559 404.929 204.94C404.115 206.121 403.38 207.355 402.728 208.634C402.085 209.913 401.566 211.251 401.179 212.629C400.383 215.382 400.09 218.257 400.314 221.114C400.508 223.973 401.179 226.787 401.528 229.673C401.943 232.576 401.783 235.532 401.059 238.373C400.684 239.785 400.182 241.161 399.56 242.482C399.246 243.137 398.968 243.81 398.606 244.444C398.259 245.082 397.933 245.733 397.539 246.346C396.043 248.844 394.234 251.135 392.424 253.378C390.63 255.631 388.856 257.907 387.594 260.478L387.128 261.441C386.964 261.761 386.853 262.101 386.715 262.431L386.317 263.427L385.992 264.447C385.89 264.791 385.767 265.126 385.677 265.473L385.427 266.516C385.346 266.866 385.257 267.213 385.179 267.563L384.987 268.619C384.75 270.029 384.633 271.457 384.637 272.887C384.64 274.316 384.781 275.746 384.922 277.185C385.604 282.939 385.31 288.792 384.371 294.492C383.722 298.383 382.762 302.215 381.5 305.952L381.398 305.967C382.603 302.206 383.501 298.353 384.084 294.447C384.96 288.75 385.199 282.951 384.467 277.23C384.311 275.797 384.156 274.35 384.141 272.89C384.126 271.431 384.239 269.974 384.479 268.536L384.67 267.462C384.748 267.106 384.835 266.753 384.919 266.397L385.169 265.335C385.258 264.983 385.381 264.639 385.486 264.289L385.815 263.248L386.216 262.231C386.356 261.893 386.47 261.546 386.634 261.22L387.11 260.233C388.39 257.604 390.187 255.283 391.979 253.022C393.785 250.767 395.559 248.503 397.027 246.039C397.416 245.438 397.739 244.798 398.083 244.17C398.442 243.548 398.714 242.884 399.028 242.241C399.64 240.95 400.134 239.607 400.506 238.227C401.221 235.457 401.385 232.573 400.987 229.74C400.655 226.892 399.988 224.06 399.8 221.15C399.695 219.694 399.717 218.232 399.866 216.78C400.024 215.329 400.317 213.895 400.739 212.498C401.148 211.099 401.689 209.742 402.355 208.445C403.027 207.157 403.784 205.914 404.619 204.725C406.275 202.344 408.13 200.122 409.969 197.897C411.823 195.687 413.615 193.417 415.526 191.249C416.851 189.73 418.208 188.241 419.6 186.784C419.618 186.783 419.639 186.78 419.663 186.78Z" fill="white"/>
<path fill-rule="evenodd" clip-rule="evenodd" d="M490.687 181.615C490.337 181.884 467.934 199.129 466.654 216.161C465.367 233.328 460.217 244.701 449.702 253.5C439.187 262.3 434.895 285.262 413.006 290.84C391.117 296.417 380.281 306.042 380.281 306.042C380.281 306.042 380.222 305.711 380.156 305.1C380.15 305.032 380.141 304.964 380.132 304.888C379.689 300.375 379.315 283.624 396.268 272.389C416.013 259.298 429.531 252.431 432.536 234.834C435.542 217.237 440.904 206.721 451.205 201.356C461.505 195.99 460.862 191.914 468.802 187.837C475.666 184.314 487.016 182.232 489.971 181.73C490.078 181.712 490.177 181.697 490.261 181.684C490.513 181.639 490.66 181.615 490.687 181.615Z" fill="url(#paint3_linear)"/>
<path fill-rule="evenodd" clip-rule="evenodd" d="M490.259 181.684C477.776 186.971 466.549 195.115 457.409 205.057C454.843 207.968 452.555 211.113 450.575 214.451C448.574 217.771 447.063 221.363 446.089 225.116C445.584 226.988 445.138 228.884 444.651 230.774C444.157 232.662 443.622 234.54 443.009 236.397C442.716 237.327 442.366 238.242 442.049 239.166C441.714 240.081 441.349 240.987 440.999 241.9C440.254 243.703 439.486 245.501 438.693 247.277C437.894 249.054 437.102 250.836 436.265 252.598C435.855 253.483 435.413 254.353 434.988 255.229C434.532 256.097 434.105 256.973 433.624 257.825C432.696 259.548 431.676 261.22 430.567 262.832C429.465 264.455 428.24 265.991 426.903 267.426L426.401 267.961C426.236 268.143 426.063 268.32 425.883 268.485L424.822 269.505C424.46 269.834 424.08 270.145 423.709 270.468C423.524 270.627 423.341 270.788 423.15 270.943L422.567 271.389C421.018 272.596 419.368 273.667 417.635 274.592C415.893 275.502 414.062 276.231 412.171 276.769C410.29 277.317 408.367 277.69 406.471 278.103C404.572 278.483 402.708 279.02 400.899 279.709C399.101 280.422 397.382 281.321 395.77 282.391C392.528 284.515 389.744 287.29 387.426 290.394C385.139 293.541 383.248 296.957 381.798 300.566C381.194 302.055 380.646 303.567 380.156 305.1C380.15 305.032 380.141 304.963 380.132 304.888C380.589 303.413 381.098 301.952 381.663 300.512C383.075 296.869 384.932 293.414 387.19 290.225C389.482 287.041 392.316 284.283 395.561 282.077C397.189 280.982 398.926 280.06 400.744 279.324C402.57 278.611 404.453 278.054 406.373 277.658C408.275 277.227 410.18 276.844 412.034 276.291C413.888 275.752 415.685 275.031 417.396 274.138C419.099 273.222 420.72 272.162 422.242 270.971L422.816 270.531C423.004 270.379 423.184 270.217 423.366 270.059C423.73 269.742 424.105 269.437 424.461 269.107L425.504 268.102C425.681 267.938 425.848 267.764 426.01 267.585L426.506 267.056C427.822 265.638 429.026 264.121 430.11 262.519C431.203 260.919 432.208 259.26 433.122 257.551C433.597 256.708 434.025 255.835 434.471 254.973C434.895 254.097 435.332 253.233 435.736 252.347C436.567 250.592 437.354 248.812 438.147 247.036C438.945 245.257 439.715 243.472 440.455 241.683C440.805 240.776 441.171 239.876 441.508 238.967C441.825 238.049 442.175 237.143 442.465 236.219C443.078 234.376 443.614 232.513 444.11 230.635C444.601 228.754 445.052 226.861 445.564 224.974C446.558 221.178 448.097 217.545 450.131 214.189C451.129 212.505 452.218 210.878 453.369 209.299C454.527 207.726 455.768 206.213 457.066 204.754C459.679 201.849 462.51 199.148 465.535 196.676C467.031 195.428 468.556 194.214 470.111 193.033C470.895 192.453 471.669 191.86 472.477 191.31L473.673 190.473L474.896 189.668C479.659 186.553 484.706 183.895 489.969 181.729C490.077 181.71 490.175 181.695 490.259 181.684Z" fill="white"/>
<path fill-rule="evenodd" clip-rule="evenodd" d="M478.67 262.084C478.67 262.084 478.527 262.216 478.264 262.467C478.218 262.509 478.168 262.556 478.114 262.607C475.841 264.775 467.207 273.272 463.867 280.324C460.003 288.48 452.493 297.922 438.545 297.922C424.596 297.922 409.573 304.145 409.358 312.729C409.185 319.697 390.487 325.062 383.165 315.379C383.139 315.343 383.112 315.304 383.085 315.268C381.434 313.034 380.381 310.011 380.282 306.041C380.282 306.041 393.265 285.046 405.497 285.474C417.729 285.902 422.233 283.972 428.244 279.897C434.256 275.821 440.046 273.673 447.128 273.03C454.21 272.387 459.144 263.801 467.085 263.373C475.026 262.945 478.67 262.084 478.67 262.084Z" fill="url(#paint4_linear)"/>
<path fill-rule="evenodd" clip-rule="evenodd" d="M525.352 282.481C523.602 282.528 521.858 282.71 520.136 283.026C520.19 282.975 520.24 282.927 520.285 282.885C521.961 282.618 523.655 282.483 525.352 282.481Z" fill="white"/>
<path fill-rule="evenodd" clip-rule="evenodd" d="M383.164 315.378C382.087 317.101 381.095 318.88 380.149 320.681C381.059 318.841 382.022 317.026 383.083 315.268C383.11 315.303 383.137 315.342 383.164 315.378Z" fill="white"/>
<path fill-rule="evenodd" clip-rule="evenodd" d="M478.263 262.467C478.217 262.509 478.167 262.556 478.113 262.607C477.294 262.763 476.483 262.954 475.682 263.181C473.196 263.873 470.854 265.004 468.767 266.522C468.513 266.722 468.241 266.896 468.002 267.108L467.269 267.73L466.584 268.403C466.354 268.624 466.156 268.879 465.941 269.115C465.122 270.103 464.394 271.163 463.767 272.282C463.142 273.426 462.445 274.529 461.68 275.584C460.881 276.633 459.924 277.55 458.841 278.302C457.758 279.048 456.591 279.663 455.363 280.136C454.13 280.583 452.854 280.9 451.556 281.084C450.27 281.287 448.99 281.434 447.731 281.675C446.473 281.913 445.235 282.247 444.028 282.674L443.128 283.006L442.246 283.386C441.656 283.635 441.083 283.937 440.502 284.206C439.36 284.792 438.223 285.396 437.141 286.087C436.052 286.77 435.001 287.507 433.973 288.285C432.945 289.063 431.937 289.87 430.89 290.642C429.843 291.413 428.758 292.14 427.635 292.81C426.514 293.475 425.358 294.079 424.172 294.619C421.81 295.738 419.314 296.548 416.746 297.032C414.171 297.498 411.56 297.567 409 297.779C407.719 297.879 406.445 298.05 405.184 298.291L404.245 298.5C404.089 298.536 403.93 298.568 403.778 298.608L403.314 298.742L402.39 299.009C402.082 299.095 401.786 299.221 401.484 299.323C399.06 300.186 396.761 301.366 394.647 302.834C392.541 304.318 390.598 306.021 388.851 307.915C387.096 309.808 385.494 311.838 384.06 313.986C383.755 314.446 383.456 314.91 383.163 315.376C383.136 315.341 383.109 315.302 383.082 315.266C383.355 314.805 383.638 314.351 383.928 313.899C385.332 311.717 386.906 309.65 388.636 307.717C390.377 305.785 392.32 304.044 394.432 302.525C396.56 301.015 398.879 299.793 401.328 298.892C401.633 298.784 401.935 298.655 402.246 298.563L403.185 298.282L403.655 298.141C403.81 298.095 403.972 298.063 404.13 298.024L405.084 297.803C406.363 297.549 407.654 297.37 408.953 297.265C411.543 297.04 414.121 296.966 416.646 296.496C419.166 296.012 421.614 295.208 423.931 294.104C425.097 293.565 426.233 292.965 427.335 292.306C428.435 291.646 429.497 290.927 430.532 290.161C431.566 289.396 432.58 288.594 433.618 287.814C434.656 287.033 435.73 286.289 436.836 285.601C437.937 284.901 439.091 284.294 440.252 283.705C440.841 283.432 441.418 283.13 442.022 282.882L442.922 282.495L443.844 282.157C445.078 281.725 446.343 281.389 447.63 281.152C448.913 280.91 450.205 280.765 451.476 280.569C452.741 280.395 453.985 280.091 455.187 279.663C456.381 279.215 457.519 278.631 458.578 277.922C459.63 277.204 460.564 276.327 461.348 275.323C462.137 274.322 462.771 273.197 463.438 272.087C464.088 270.956 464.839 269.886 465.681 268.89C465.906 268.651 466.109 268.394 466.348 268.172L467.057 267.494L467.811 266.868C468.056 266.653 468.331 266.477 468.592 266.282C470.726 264.785 473.112 263.682 475.635 263.025C476.501 262.795 477.378 262.608 478.263 262.467Z" fill="white"/>
<path fill-rule="evenodd" clip-rule="evenodd" d="M173.343 94.7627C173.343 94.7627 179.175 144.137 173.791 148.67C168.408 153.203 170.651 168.905 170.651 168.905L184.558 161.782C184.558 161.782 190.689 102.857 173.343 94.7627Z" fill="#3D476C"/>
<path fill-rule="evenodd" clip-rule="evenodd" d="M169.304 67.3988C168.108 64.6077 167.061 58.8752 169.555 57.4799C172.048 56.0845 173.542 57.1808 173.542 57.1808C173.542 57.1808 173.343 51.9968 178.228 52.5949C183.113 53.193 183.212 55.6856 183.212 55.6856C183.212 55.6856 189.193 51.9968 191.387 58.9753C191.387 58.9753 196.072 63.4613 191.686 67.2495C191.686 67.2495 191.549 73.2062 185.131 75.8478C175.49 79.8165 169.304 67.3988 169.304 67.3988Z" fill="#FF6BC1"/>
<path fill-rule="evenodd" clip-rule="evenodd" d="M169.733 63.0615C169.733 63.0615 163.745 81.5451 174.915 80.5175C181.838 79.8803 184.343 74.6567 184.343 74.6567C184.343 74.6567 186.765 75.4214 187.061 70.4941C187.237 67.5669 183.579 65.9922 183.408 70.579C183.408 70.579 180.775 71.3858 180.265 67.4786C179.756 63.5713 177.716 63.7411 175.509 64.4209C173.301 65.1007 170.073 64.2509 169.733 63.0615Z" fill="#FFD5C0"/>
<path fill-rule="evenodd" clip-rule="evenodd" d="M185.151 74.0619C185.151 74.0619 186.34 82.0887 188.76 85.699C188.76 85.699 193.32 86.5319 195.573 87.1874C198.315 87.984 184.428 111.564 180.097 104.768C175.766 97.9728 177.634 92.3671 177.634 92.3671C177.634 92.3671 179.588 89.9037 179.418 89.2241C179.248 88.5445 176.02 79.4558 176.02 79.4558C176.02 79.4558 175.934 70.6217 185.151 74.0619Z" fill="#FFD5C0"/>
<path fill-rule="evenodd" clip-rule="evenodd" d="M162.41 108.789L147.722 130.253L126.986 96.0097C118.475 93.8838 121.042 101.81 121.042 101.81C121.042 101.81 140.353 146.511 147.423 146.204C154.302 145.905 176.117 115.933 182.464 104.159C183.472 102.288 183.911 101.365 182.222 100.073C178.268 97.0491 170.319 93.9964 162.41 108.789Z" fill="#FFD5C0"/>
<path fill-rule="evenodd" clip-rule="evenodd" d="M171.324 96.7575C165.94 100.496 147.723 130.254 147.723 130.254L131.971 104.135L123.497 109.219C123.497 109.219 141.641 148.398 147.621 146.603C153.602 144.809 175.435 127.263 182.015 112.908C188.594 98.5523 175.489 95.0517 171.324 96.7575Z" fill="#485584"/>
<path fill-rule="evenodd" clip-rule="evenodd" d="M189.792 85.8418C189.792 85.8418 203.312 87.3211 208.016 88.9313C208.804 89.1965 209.368 89.8934 209.463 90.7197C210.364 98.7449 209.42 140.372 220.097 156.573L180.221 157.171C180.221 157.171 177.774 128.918 172.794 111.762C170.417 103.573 172.485 95.7621 178.763 89.9914L179.773 91.0756L189.792 85.8418Z" fill="#CDE2FF"/>
<path fill-rule="evenodd" clip-rule="evenodd" d="M175.809 92.7949C175.809 92.7949 176.205 112.848 176.931 132.158C177.545 148.477 178.181 164.717 172.246 168.474C159.286 176.676 159.264 178.421 167.211 157.47C173.791 140.123 172.222 138.126 172.146 122.03C172.107 113.748 171.392 105.383 171.327 97.1016L171.324 96.7579L175.809 92.7949Z" fill="#3D476C"/>
<path fill-rule="evenodd" clip-rule="evenodd" d="M193.081 310.096C193.117 310.365 193.153 310.634 193.189 310.895C193.991 316.637 195.175 320.465 195.175 320.465H165.268L181.516 311.095C181.516 311.038 181.516 310.972 181.513 310.895C181.453 304.955 178.995 241.079 176.632 230.743C174.24 220.276 180.221 157.171 180.221 157.171L212.273 156.923C215.91 177.708 195.175 229.846 195.175 229.846C202.951 250.182 192.283 303.917 193.081 310.096Z" fill="#3D476C"/>
<path fill-rule="evenodd" clip-rule="evenodd" d="M195.948 107.728L196.682 134.919L155.724 160.552C151.959 165.993 158.688 166.442 158.688 166.442C158.688 166.442 202.392 147.548 208.135 143.413C213.119 139.824 212.812 106.113 211.063 92.8526C210.794 90.7406 209.033 89.1352 206.906 89.0614C201.93 88.9251 193.698 91.1056 195.948 107.728Z" fill="#FFD5C0"/>
<path fill-rule="evenodd" clip-rule="evenodd" d="M228.372 320.763L239.138 306.706C239.132 306.692 239.125 306.678 239.117 306.665C238.178 304.798 205.795 240.444 203.249 234.63C190.539 205.62 191.735 157.17 191.735 157.17L220.184 156.783C228.573 178.304 219.101 229.545 219.101 229.545C231.662 238.518 249.905 302.22 249.905 302.22L250.037 302.441L256.485 313.285L228.372 320.763Z" fill="#485584"/>
<path fill-rule="evenodd" clip-rule="evenodd" d="M177.866 92.5715L181.642 92.5342L180.071 96.6465L177.679 96.3101L177.866 92.5715Z" fill="#FF6BC1"/>
<path fill-rule="evenodd" clip-rule="evenodd" d="M177.828 95.7117C177.828 95.7117 172.423 133.13 158.488 141.138L169.766 140.673C169.766 140.673 181.49 116.758 180.05 96.6594C180.05 96.6603 179.632 94.2883 177.828 95.7117Z" fill="#FF6BC1"/>
<path fill-rule="evenodd" clip-rule="evenodd" d="M179.772 91.075L181.317 96.7574L192.981 86.4893L188.196 84.0967L179.772 91.075Z" fill="#AACEF2"/>
<path fill-rule="evenodd" clip-rule="evenodd" d="M178.652 87.1875L179.774 91.0754L176.633 96.1597L175.586 91.4486L178.652 87.1875Z" fill="#AACEF2"/>
<path fill-rule="evenodd" clip-rule="evenodd" d="M203.336 87.6566C200.153 87.0648 193.23 86.3652 193.23 86.3652C193.23 86.3652 190.089 101.896 193.978 123.974C196.445 137.984 196.632 151.736 191.412 163.233C188.519 169.601 193.417 176.832 200.394 176.34C209.318 175.712 220.165 170.726 224.883 158.645C224.883 158.645 222.091 143.053 219.101 130.055C216.11 117.057 207.773 88.7203 207.773 88.7203C207.773 88.7203 206.583 88.2599 203.336 87.6566Z" fill="#3D476C"/>
<path fill-rule="evenodd" clip-rule="evenodd" d="M206.838 88.3835C211.324 89.5797 215.698 93.2061 215.212 107.823C214.8 120.234 213.059 126.142 212.117 134.946C211.556 139.997 208.456 144.413 203.896 146.658L170.651 163.152L165.566 154.329L196.371 134.839C196.371 134.839 195.474 102.739 195.773 97.9538C196.072 93.1688 199.972 86.5526 206.838 88.3835Z" fill="#485584"/>
<path fill-rule="evenodd" clip-rule="evenodd" d="M228.372 320.763L239.139 306.707C239.132 306.693 239.125 306.679 239.118 306.665L250.037 302.442L256.485 313.287L228.372 320.763Z" fill="#3D476C"/>
<path fill-rule="evenodd" clip-rule="evenodd" d="M165.268 320.465L181.516 311.095C181.516 311.038 181.516 310.972 181.513 310.895H193.189C193.99 316.637 195.174 320.465 195.174 320.465H165.268Z" fill="#3D476C"/>
<path fill-rule="evenodd" clip-rule="evenodd" d="M178.278 161.507H145.122L131.248 151.63L163.934 152.1L178.278 161.507Z" fill="#AFAFAF"/>
<path fill-rule="evenodd" clip-rule="evenodd" d="M131.249 151.631L145.123 161.509V130.821L131.808 118.74L131.249 151.631Z" fill="#DDDDDD"/>
<path fill-rule="evenodd" clip-rule="evenodd" d="M309.052 189.906C309.052 189.906 311.41 194.017 312.385 195.296C312.385 195.296 311.087 196.876 309.21 194.109C307.332 191.342 304.974 191.757 309.052 189.906Z" fill="#FFD5C0"/>
<path fill-rule="evenodd" clip-rule="evenodd" d="M332.594 73.1305C332.594 73.1305 340.669 71.635 344.407 82.1027C348.145 92.5704 339.11 95.8852 340.968 100.496C342.986 105.505 350.239 119.636 339.273 118.241C328.307 116.845 291.023 104.782 332.594 73.1305Z" fill="#FF6BC1"/>
<path fill-rule="evenodd" clip-rule="evenodd" d="M324.588 72.0151C331.41 69.3296 339.143 73.1517 341.234 80.1782C341.556 81.2734 341.792 82.392 341.941 83.5238C342.838 90.1782 343.212 94.9633 339.922 95.2623C336.632 95.5614 335.435 94.5151 335.435 94.5151L338.426 104.16L379.922 104.136L402.453 77.6176C402.453 77.6176 407.338 73.3806 407.039 79.8107L384.952 111.077C383.574 112.89 381.427 113.955 379.149 113.955H354.29C354.29 113.955 347.025 114.902 349.218 124.672C351.412 134.441 354.402 151.389 354.402 151.389L330.278 157.171L325.492 142.219C325.492 142.219 286.015 108.124 327.686 105.133L324.894 94.9651C324.894 94.9651 311.882 77.0161 324.588 72.0151Z" fill="#FFD5C0"/>
<path fill-rule="evenodd" clip-rule="evenodd" d="M313.528 108.719C313.528 108.719 307.148 106.127 298.375 147.599L303.958 188.871C303.958 188.871 306.749 195.451 309.54 188.074L307.546 147.201L318.712 120.285C318.712 120.285 325.292 107.324 313.528 108.719Z" fill="#FFD5C0"/>
<path fill-rule="evenodd" clip-rule="evenodd" d="M332.156 156.723C330.923 157.017 329.779 157.621 329.053 158.659C327.106 161.443 323.667 168.305 325.179 180.7C325.354 182.129 325.18 183.585 324.626 184.913C321.978 191.26 314.042 211.498 312.083 230.42C311.797 233.182 310.194 235.81 308.386 237.917C303.603 243.488 294.57 258.865 287.129 299.645C286.623 302.42 288.765 304.968 291.585 304.968C294.046 304.968 296.12 303.024 296.519 300.596C297.976 291.71 303.499 269.711 324.294 238.519C344.245 208.592 349.415 176.672 350.75 161.386C351.161 156.671 346.836 153.228 342.232 154.324L332.156 156.723Z" fill="#FF4AB3"/>
<path fill-rule="evenodd" clip-rule="evenodd" d="M371.847 241.508C373.641 200.835 354.401 151.388 354.401 151.388L334.662 155.974C327.883 167.937 340.145 183.489 340.145 183.489C340.145 195.452 359.884 240.911 359.884 240.911C349.715 263.641 368.756 286.669 372.944 302.819C372.944 302.819 372.923 302.854 372.888 302.919H382.697C382.594 302.76 371.847 241.508 371.847 241.508Z" fill="#FF6BC1"/>
<path fill-rule="evenodd" clip-rule="evenodd" d="M370.725 311.79V320.762H375.511L375.585 311.978C375.585 311.978 384.333 320.713 391.735 320.713H396.521C396.521 320.713 385.604 316.776 382.698 302.918H372.889C372.527 303.575 370.522 307.434 370.725 311.79Z" fill="#3D476C"/>
<path fill-rule="evenodd" clip-rule="evenodd" d="M284.21 311.79V320.762H288.995L289.07 311.978C289.07 311.978 297.817 320.713 305.22 320.713H310.005C310.005 320.713 297.877 314.183 296.182 302.918H286.373C286.011 303.575 284.006 307.434 284.21 311.79Z" fill="#3D476C"/>
<path fill-rule="evenodd" clip-rule="evenodd" d="M379.922 104.134H325.69C325.69 104.134 311.087 105.623 308.05 112.72C307.981 112.733 307.915 112.744 307.845 112.757L298.125 146.702C298.125 146.702 302.013 151.487 308.144 147.449L314.781 131.591C314.922 131.763 315.067 131.936 315.215 132.111C321.327 139.334 326.128 147.572 329.4 156.45L329.728 157.343L354.402 151.387L349.912 128.241C349.351 125.345 347.174 118.141 354.501 117.693C361.829 117.244 379.848 114.178 379.848 114.178C379.848 114.178 378.726 108.969 379.922 104.134Z" fill="#3B427B"/>
<path fill-rule="evenodd" clip-rule="evenodd" d="M402.453 77.6163C402.842 76.8292 402.965 75.9369 402.802 75.0741C402.503 73.7284 403.598 69.9898 402.802 69.1427C402.802 69.1427 404.497 68.5942 404.347 71.2859C404.198 73.9776 404.247 72.7814 404.247 72.7814C404.247 72.7814 407.836 64.4574 408.584 64.4073C409.332 64.3572 408.634 66.1021 406.69 70.9869C406.69 70.9869 412.123 72.6817 410.977 74.5261C409.83 76.3705 408.634 77.5168 407.039 79.8095C405.445 82.1023 402.453 77.6163 402.453 77.6163Z" fill="#FFD5C0"/>
<path fill-rule="evenodd" clip-rule="evenodd" d="M309.54 188.472L309.64 199.196C309.64 199.196 300.967 202.688 301.366 198.697C301.765 194.707 303.958 189.47 303.958 189.47C303.958 189.47 306.849 183.484 309.54 188.472Z" fill="#FFD5C0"/>
<path fill-rule="evenodd" clip-rule="evenodd" d="M338.949 73.1302C343.013 75.3378 332.47 83.1991 331.273 85.9902C331.273 85.9902 328.282 85.1937 328.681 87.7848C329.08 90.3759 331.074 90.1774 331.074 90.1774C331.074 90.1774 329.279 94.7631 329.678 97.9534C330.077 101.144 335.061 116.097 326.089 123.076C317.117 130.054 320.507 147.998 283.422 142.615C266.075 140.023 270.861 131.45 264.281 127.263C257.702 123.076 247.733 113.903 265.278 112.708C282.824 111.512 279.235 101.742 288.406 99.3483C297.578 96.9548 310.938 98.9493 312.93 89.3799C314.923 79.8105 322.799 64.3573 338.949 73.1302Z" fill="#FF6BC1"/>
<path fill-rule="evenodd" clip-rule="evenodd" d="M354.402 151.388L364.57 176.709C364.57 176.709 331.872 190.666 319.311 185.682C319.311 185.682 324.893 160.161 329.728 157.344" fill="#3B427B"/>
<defs>
<linearGradient id="paint0_linear" x1="178.716" y1="213.139" x2="124.509" y2="306.15" gradientUnits="userSpaceOnUse">
<stop stop-color="#A3EDD0"/>
<stop offset="1" stop-color="#4DE1A3"/>
</linearGradient>
<linearGradient id="paint1_linear" x1="94.9607" y1="252.206" x2="146.384" y2="303.936" gradientUnits="userSpaceOnUse">
<stop stop-color="#136BDE"/>
<stop offset="1" stop-color="#68ADFD"/>
</linearGradient>
<linearGradient id="paint2_linear" x1="381.949" y1="223.094" x2="422.854" y2="238.408" gradientUnits="userSpaceOnUse">
<stop stop-color="#136BDE"/>
<stop offset="1" stop-color="#68ADFD"/>
</linearGradient>
<linearGradient id="paint3_linear" x1="474.262" y1="186.345" x2="426.222" y2="305.686" gradientUnits="userSpaceOnUse">
<stop stop-color="#A3EDD0"/>
<stop offset="1" stop-color="#4DE1A3"/>
</linearGradient>
<linearGradient id="paint4_linear" x1="402.726" y1="279.92" x2="430.754" y2="322.724" gradientUnits="userSpaceOnUse">
<stop stop-color="#136BDE"/>
<stop offset="1" stop-color="#68ADFD"/>
</linearGradient>
</defs>
</svg>
