<svg width="54" height="63" viewBox="0 0 54 63" fill="none" xmlns="http://www.w3.org/2000/svg">
<path d="M54.0001 1.24408V54.6839C54.0001 55.303 53.4982 55.8049 52.8791 55.8049H7.70599C7.08689 55.8049 6.58496 55.303 6.58496 54.6839V1.24408C6.58484 0.624978 7.08677 0.123047 7.70599 0.123047H52.8791C53.4982 0.123047 54.0001 0.624978 54.0001 1.24408Z" fill="#D7E8FF"/>
<path d="M34.4283 62.4838H1.12103C0.501931 62.4838 0 61.9819 0 61.3628V7.92334C0 7.30424 0.501931 6.80231 1.12103 6.80231H46.2935C46.9126 6.80231 47.4146 7.30424 47.4146 7.92334V61.3628C47.4146 61.9819 46.9126 62.4838 46.2935 62.4838H41.6172H34.4283Z" fill="#468EF1"/>
<path d="M19.6659 55.3215H9.60471C9.0241 55.3215 8.55371 54.8511 8.55371 54.2705C8.55371 53.6899 9.0241 53.2195 9.60471 53.2195H19.6659C20.2465 53.2195 20.7169 53.6899 20.7169 54.2705C20.7169 54.8511 20.2465 55.3215 19.6659 55.3215Z" fill="white"/>
<path d="M32.6369 58.9509H9.60471C9.0241 58.9509 8.55371 58.4806 8.55371 57.8999C8.55371 57.3193 9.0241 56.8489 9.60471 56.8489H32.6367C33.2173 56.8489 33.6877 57.3193 33.6877 57.8999C33.6877 58.4806 33.2174 58.9509 32.6369 58.9509Z" fill="white"/>
<path d="M42.4935 12.8826V48.5558C42.4935 49.1115 42.043 49.5619 41.4873 49.5619H5.74836C5.19272 49.5619 4.74219 49.1114 4.74219 48.5558V12.8826C4.74219 12.2635 5.24412 11.7615 5.86322 11.7615H41.3725C41.9917 11.7614 42.4935 12.2633 42.4935 12.8826Z" fill="#12b7e0"/>
<path d="M42.4936 37.7343V48.5556C42.4936 49.1113 42.0431 49.5618 41.4875 49.5618H14.9736L29.2367 35.2987L33.8546 30.6808C34.2923 30.2431 35.0023 30.2431 35.44 30.6808L42.4936 37.7343Z" fill="#DDE1E7"/>
<path d="M39.1386 49.5619H5.74836C5.19272 49.5619 4.74219 49.1114 4.74219 48.5557V39.8981L16.3165 28.3238C16.7542 27.886 17.4642 27.886 17.9019 28.3238L39.1386 49.5619Z" fill="white"/>
<path d="M27.3575 26.0135C30.2732 26.0135 32.6368 23.6468 32.6368 20.7274C32.6368 17.808 30.2732 15.4413 27.3575 15.4413C24.4418 15.4413 22.0781 17.808 22.0781 20.7274C22.0781 23.6468 24.4418 26.0135 27.3575 26.0135Z" fill="white"/>
</svg>
