<svg width="54" height="63" viewBox="0 0 54 63" fill="none" xmlns="http://www.w3.org/2000/svg">
<path d="M54.0001 1.12103V54.5609C54.0001 55.18 53.4982 55.6819 52.8791 55.6819H7.70599C7.08689 55.6819 6.58496 55.18 6.58496 54.5609V1.12103C6.58484 0.501932 7.08677 0 7.70599 0H52.8791C53.4982 0 54.0001 0.501932 54.0001 1.12103Z" fill="#D7E8FF"/>
<path d="M34.4283 62.3608H1.12103C0.501931 62.3608 0 61.8588 0 61.2397V7.80029C0 7.18119 0.501931 6.67926 1.12103 6.67926H46.2935C46.9126 6.67926 47.4146 7.18119 47.4146 7.80029V61.2397C47.4146 61.8588 46.9126 62.3608 46.2935 62.3608H41.6172H34.4283Z" fill="#468EF1"/>
<path d="M19.6659 55.1984H9.60471C9.0241 55.1984 8.55371 54.728 8.55371 54.1474C8.55371 53.5668 9.0241 53.0964 9.60471 53.0964H19.6659C20.2465 53.0964 20.7169 53.5668 20.7169 54.1474C20.7169 54.728 20.2465 55.1984 19.6659 55.1984Z" fill="white"/>
<path d="M32.6369 58.8279H9.60471C9.0241 58.8279 8.55371 58.3575 8.55371 57.7769C8.55371 57.1963 9.0241 56.7259 9.60471 56.7259H32.6367C33.2173 56.7259 33.6877 57.1963 33.6877 57.7769C33.6877 58.3575 33.2174 58.8279 32.6369 58.8279Z" fill="white"/>
<path d="M42.4935 12.7595V48.4327C42.4935 48.9885 42.043 49.4389 41.4873 49.4389H5.74836C5.19272 49.4389 4.74219 48.9884 4.74219 48.4327V12.7595C4.74219 12.1404 5.24412 11.6385 5.86322 11.6385H41.3725C41.9917 11.6384 42.4935 12.1403 42.4935 12.7595Z" fill="url(#paint0_linear)"/>
<path d="M42.4936 37.6113V48.4326C42.4936 48.9882 42.0431 49.4388 41.4875 49.4388H14.9736L29.2367 35.1757L33.8546 30.5578C34.2923 30.1201 35.0023 30.1201 35.44 30.5578L42.4936 37.6113Z" fill="#DDE1E7"/>
<path d="M39.1386 49.4389H5.74836C5.19272 49.4389 4.74219 48.9883 4.74219 48.4327V39.775L16.3165 28.2007C16.7542 27.763 17.4642 27.763 17.9019 28.2007L39.1386 49.4389Z" fill="white"/>
<path d="M27.3575 25.8904C30.2732 25.8904 32.6368 23.5238 32.6368 20.6044C32.6368 17.6849 30.2732 15.3183 27.3575 15.3183C24.4418 15.3183 22.0781 17.6849 22.0781 20.6044C22.0781 23.5238 24.4418 25.8904 27.3575 25.8904Z" fill="white"/>
<defs>
<linearGradient id="paint0_linear" x1="38.6198" y1="44.6967" x2="7.12074" y2="21.13" gradientUnits="userSpaceOnUse">
<stop stop-color="#FFC41B"/>
<stop offset="1" stop-color="#F69866"/>
</linearGradient>
</defs>
</svg>
