<svg width="66" height="64" viewBox="0 0 66 64" fill="none" xmlns="http://www.w3.org/2000/svg">
<path d="M46.9434 0C36.4708 0 27.9434 8.52559 27.9434 19C27.9434 29.4726 36.469 38 46.9434 38C57.4159 38 65.9434 29.4744 65.9434 19C65.941 8.52498 57.4159 0 46.9434 0ZM46.9434 33.4558C38.9726 33.4558 32.4851 26.969 32.4851 18.9976C32.4851 11.0261 38.9719 4.53928 46.9434 4.53928C54.9148 4.53928 61.4016 11.0261 61.4016 18.9976C61.4924 26.9684 54.9123 33.4558 46.9434 33.4558Z" fill="url(#paint0_linear)"/>
<path d="M46.8965 6C39.7547 6 33.9434 11.8305 33.9434 18.9987C33.9434 26.167 39.7547 32 46.8965 32C54.0384 32 59.9434 26.1671 59.9434 18.9987C59.9434 11.8304 54.0387 6 46.8965 6ZM46.8965 18.0455C49.2781 18.0455 51.1808 19.9578 51.1808 22.3457C51.1808 24.3541 49.7519 26.0741 47.8467 26.5522V27.4122C47.8467 27.8903 47.3704 28.3684 46.8941 28.3684C46.4178 28.3684 45.9415 27.8903 45.9415 27.4122V26.5522C44.0363 26.0741 42.6074 24.4502 42.6074 22.3457C42.6074 21.8676 43.0837 21.3895 43.56 21.3895C44.0363 21.3895 44.5126 21.8676 44.5126 22.3457C44.5126 23.6838 45.5609 24.736 46.8941 24.736C48.2297 24.736 49.2756 23.5877 49.2756 22.3457C49.2756 21.1036 48.2272 19.9553 46.8941 19.9553C44.5126 19.9553 42.6098 18.0431 42.6098 15.6552C42.6098 13.6468 44.0387 11.9267 45.9439 11.4486V10.5886C45.9439 10.1105 46.4202 9.63245 46.8965 9.63245C47.3728 9.63245 47.8491 10.1105 47.8491 10.5886V11.4486C49.7543 11.9267 51.1832 13.5506 51.1832 15.6552C51.1832 16.2293 50.8027 16.6113 50.2306 16.6113C49.6586 16.6113 49.2781 16.2293 49.2781 15.6552C49.2781 14.317 48.2297 13.2648 46.8965 13.2648C45.5634 13.2648 44.515 14.317 44.515 15.6552C44.6108 16.8972 45.6567 18.0455 46.8965 18.0455Z" fill="url(#paint1_linear)"/>
<path d="M28.153 34.4474L0.707335 44.8888C-0.369266 45.3189 -0.152823 46.8256 0.92377 46.9338L14.914 49.087L17.0672 63.0773C17.1755 64.1539 18.6821 64.3675 19.1123 63.2937L29.5508 35.848C29.8727 34.9851 29.0125 34.1249 28.1523 34.4467L28.153 34.4474Z" fill="#468EF1"/>
<defs>
<linearGradient id="paint0_linear" x1="62.0441" y1="33.2327" x2="30.3672" y2="9.50212" gradientUnits="userSpaceOnUse">
<stop stop-color="#FF6B4D"/>
<stop offset="1" stop-color="#F69866"/>
</linearGradient>
<linearGradient id="paint1_linear" x1="57.2755" y1="28.7382" x2="35.6018" y2="12.5014" gradientUnits="userSpaceOnUse">
<stop stop-color="#FF6B4D"/>
<stop offset="1" stop-color="#F69866"/>
</linearGradient>
</defs>
</svg>
