<svg width="66" height="65" viewBox="0 0 66 65" fill="none" xmlns="http://www.w3.org/2000/svg">
<path d="M46.9434 0.123047C36.4708 0.123047 27.9434 8.64864 27.9434 19.123C27.9434 29.5956 36.469 38.123 46.9434 38.123C57.4159 38.123 65.9434 29.5975 65.9434 19.123C65.941 8.64803 57.4159 0.123047 46.9434 0.123047ZM46.9434 33.5789C38.9726 33.5789 32.4851 27.092 32.4851 19.1206C32.4851 11.1492 38.9719 4.66232 46.9434 4.66232C54.9148 4.66232 61.4016 11.1492 61.4016 19.1206C61.4924 27.0914 54.9123 33.5789 46.9434 33.5789Z" fill="url(#paint0_linear)"/>
<path d="M46.8965 6.12305C39.7547 6.12305 33.9434 11.9535 33.9434 19.1218C33.9434 26.2901 39.7547 32.123 46.8965 32.123C54.0384 32.123 59.9434 26.2901 59.9434 19.1218C59.9434 11.9535 54.0387 6.12305 46.8965 6.12305ZM46.8965 18.1686C49.2781 18.1686 51.1808 20.0808 51.1808 22.4687C51.1808 24.4771 49.7519 26.1972 47.8467 26.6752V27.5353C47.8467 28.0134 47.3704 28.4914 46.8941 28.4914C46.4178 28.4914 45.9415 28.0133 45.9415 27.5353V26.6752C44.0363 26.1972 42.6074 24.5732 42.6074 22.4687C42.6074 21.9906 43.0837 21.5126 43.56 21.5126C44.0363 21.5126 44.5126 21.9907 44.5126 22.4687C44.5126 23.8068 45.5609 24.8591 46.8941 24.8591C48.2297 24.8591 49.2756 23.7107 49.2756 22.4687C49.2756 21.2267 48.2272 20.0784 46.8941 20.0784C44.5126 20.0784 42.6098 18.1661 42.6098 15.7782C42.6098 13.7698 44.0387 12.0497 45.9439 11.5717V10.7116C45.9439 10.2336 46.4202 9.7555 46.8965 9.7555C47.3728 9.7555 47.8491 10.2336 47.8491 10.7116V11.5717C49.7543 12.0497 51.1832 13.6737 51.1832 15.7782C51.1832 16.3524 50.8027 16.7343 50.2306 16.7343C49.6586 16.7343 49.2781 16.3524 49.2781 15.7782C49.2781 14.4401 48.2297 13.3878 46.8965 13.3878C45.5634 13.3878 44.515 14.4401 44.515 15.7782C44.6108 17.0202 45.6567 18.1686 46.8965 18.1686Z" fill="url(#paint1_linear)"/>
<path d="M28.153 34.5704L0.707335 45.0118C-0.369266 45.4419 -0.152823 46.9486 0.92377 47.0568L14.914 49.21L17.0672 63.2003C17.1755 64.2769 18.6821 64.4906 19.1123 63.4167L29.5508 35.9711C29.8727 35.1082 29.0125 34.2479 28.1523 34.5698L28.153 34.5704Z" fill="#468EF1"/>
<defs>
<linearGradient id="paint0_linear" x1="35.0772" y1="4.2685" x2="64.4917" y2="28.0049" gradientUnits="userSpaceOnUse">
<stop stop-color="#A3EDD0"/>
<stop offset="1" stop-color="#42DB9B"/>
</linearGradient>
<linearGradient id="paint1_linear" x1="38.8244" y1="8.95941" x2="58.9501" y2="25.2001" gradientUnits="userSpaceOnUse">
<stop stop-color="#A3EDD0"/>
<stop offset="1" stop-color="#42DB9B"/>
</linearGradient>
</defs>
</svg>
