<svg width="40" height="39" viewBox="0 0 40 39" fill="none" xmlns="http://www.w3.org/2000/svg">
<path d="M34.1902 30.3483C32.9535 28.0453 28.392 25.411 28.392 25.411C27.36 24.8313 26.1149 24.7664 25.5259 25.8001C25.5259 25.8001 24.0443 27.5516 23.667 27.8032C21.945 28.9531 20.35 28.9088 18.74 27.3217L14.9982 23.6345L11.2563 19.9473C9.64572 18.3602 9.60076 16.7891 10.7677 15.0922C11.0231 14.7204 12.8005 13.2604 12.8005 13.2604C13.8489 12.68 13.7837 11.4531 13.1953 10.4361C13.1953 10.4361 10.522 5.94122 8.18495 4.72263C7.19069 4.20386 5.96969 4.38492 5.17415 5.16885L3.52117 6.79769C-1.72053 11.9629 0.860249 17.7952 6.10195 22.9604L10.8928 27.6813L15.6836 32.4022C20.9253 37.5674 26.844 40.1111 32.0857 34.9453L33.7386 33.3164C34.5329 32.5319 34.7166 31.328 34.1902 30.3483Z" fill="#4285F4"/>
<path d="M25.8364 38.416C25.1497 38.416 24.4499 38.3345 23.7358 38.1721C21.0436 37.5589 18.1788 35.7702 15.2214 32.8554L5.64039 23.4129C-0.870523 16.9977 -1.76314 11.0954 3.05896 6.34306L4.71194 4.71421C5.71597 3.72419 7.23147 3.50012 8.48831 4.15436C10.9616 5.44357 13.6434 9.9205 13.7561 10.1105C14.2343 10.9368 14.3842 11.785 14.1815 12.506C14.0291 13.0485 13.6811 13.4896 13.1742 13.7875C12.3793 14.4424 11.4502 15.2545 11.3049 15.4536C10.2605 16.9714 10.3837 18.1803 11.7161 19.4933L19.1998 26.8677C20.5309 28.1794 21.7564 28.3014 23.3012 27.2716C23.5 27.1297 24.3242 26.2148 24.9901 25.4308C25.2917 24.9313 25.74 24.5885 26.2899 24.4382C27.0222 24.2373 27.8829 24.3856 28.7143 24.853C28.9143 24.9686 33.4576 27.6118 34.7659 30.0484C35.4305 31.2849 35.2018 32.7802 34.1977 33.7696L32.5448 35.3985C30.5074 37.4055 28.2582 38.416 25.8364 38.416ZM6.98258 5.06798C6.48871 5.06798 6.00265 5.25802 5.63388 5.62141L3.9809 7.25026C-0.298463 11.4678 0.570049 16.6003 6.56233 22.5051L16.1433 31.9469C22.1356 37.8523 27.3441 38.7069 31.6241 34.49L33.2771 32.8611C33.8739 32.273 34.0094 31.3838 33.6152 30.6487C32.6718 28.8921 29.287 26.6719 28.0634 25.9644C27.5578 25.68 27.0209 25.5734 26.6398 25.6755C26.4052 25.7403 26.2267 25.8835 26.0951 26.1146L26.0273 26.2116C25.5641 26.7592 24.4421 28.0613 24.0336 28.3348C21.9812 29.7042 20.0461 29.5168 18.2798 27.7762L10.7948 20.4011C9.02779 18.6606 8.83689 16.7524 10.2273 14.7313C10.5042 14.3287 11.8268 13.2231 12.3826 12.766L12.4803 12.6992C12.7149 12.5695 12.8608 12.3936 12.926 12.1625C13.0322 11.785 12.9208 11.2579 12.6282 10.7526C12.6067 10.716 10.0253 6.40727 7.87911 5.2882C7.59438 5.14053 7.2862 5.06798 6.98258 5.06798Z" fill="#4285F4"/>
<path d="M17.8287 0.520508C17.4684 0.520508 17.1771 0.807499 17.1771 1.16255C17.1771 1.51759 17.4684 1.80458 17.8287 1.80458C28.8346 1.80458 37.7888 10.6281 37.7888 21.4734C37.7888 21.8285 38.0801 22.1154 38.4404 22.1154C38.8007 22.1154 39.0919 21.8285 39.0919 21.4734C39.0919 9.91994 29.5533 0.520508 17.8287 0.520508Z" fill="#FFC107"/>
<path d="M17.8275 5.03485C17.4671 5.03485 17.1759 5.32184 17.1759 5.67689C17.1759 6.03194 17.4671 6.31893 17.8275 6.31893C26.308 6.31893 33.2066 13.1175 33.2066 21.4736C33.2066 21.8286 33.4978 22.1156 33.8581 22.1156C34.2184 22.1156 34.5097 21.8286 34.5097 21.4736C34.5103 12.4099 27.026 5.03485 17.8275 5.03485Z" fill="#FFC107"/>
<path d="M17.8273 9.54773C17.467 9.54773 17.1758 9.83472 17.1758 10.1898C17.1758 10.5448 17.467 10.8318 17.8273 10.8318C23.7825 10.8318 28.6267 15.606 28.6267 21.4736C28.6267 21.8286 28.918 22.1156 29.2783 22.1156C29.6386 22.1156 29.9298 21.8286 29.9298 21.4736C29.9298 14.8978 24.5005 9.54773 17.8273 9.54773Z" fill="#FFC107"/>
</svg>
