<svg width="40" height="39" viewBox="0 0 40 39" fill="none" xmlns="http://www.w3.org/2000/svg">
<path d="M34.1902 30.2689C32.9535 27.9318 28.392 25.2585 28.392 25.2585C27.36 24.6702 26.1149 24.6044 25.5259 25.6534C25.5259 25.6534 24.0443 27.4308 23.667 27.6862C21.945 28.8531 20.35 28.8082 18.74 27.1975L14.9982 23.4557L11.2563 19.7139C9.64572 18.1032 9.60076 16.5089 10.7677 14.7869C11.0231 14.4096 12.8005 12.928 12.8005 12.928C13.8489 12.339 13.7837 11.0939 13.1953 10.0618C13.1953 10.0618 10.522 5.50036 8.18495 4.26372C7.19069 3.73727 5.96969 3.92101 5.17415 4.71655L3.52117 6.36952C-1.72053 11.6112 0.860249 17.5299 6.10195 22.7716L10.8928 27.5624L15.6836 32.3532C20.9253 37.5949 26.844 40.1764 32.0857 34.934L33.7386 33.2811C34.5329 32.4849 34.7166 31.2632 34.1902 30.2689Z" fill="#4285F4"/>
<path d="M25.8364 38.4563C25.1497 38.4563 24.4499 38.3735 23.7358 38.2087C21.0436 37.5865 18.1788 35.7712 15.2214 32.8132L5.64039 23.2309C-0.870523 16.7206 -1.76314 10.731 3.05896 5.90821L4.71194 4.25523C5.71597 3.25054 7.23147 3.02315 8.48831 3.68708C10.9616 4.99539 13.6434 9.53863 13.7561 9.73149C14.2343 10.57 14.3842 11.4307 14.1815 12.1624C14.0291 12.713 13.6811 13.1606 13.1742 13.4629C12.3793 14.1275 11.4502 14.9517 11.3049 15.1537C10.2605 16.6939 10.3837 17.9208 11.7161 19.2532L19.1998 26.7369C20.5309 28.068 21.7564 28.1918 23.3012 27.1467C23.5 27.0027 24.3242 26.0743 24.9901 25.2787C25.2917 24.7718 25.74 24.4239 26.2899 24.2714C27.0222 24.0675 27.8829 24.218 28.7143 24.6923C28.9143 24.8096 33.4576 27.492 34.7659 29.9646C35.4305 31.2195 35.2018 32.737 34.1977 33.741L32.5448 35.394C30.5074 37.4307 28.2582 38.4563 25.8364 38.4563ZM6.98258 4.61423C6.48871 4.61423 6.00265 4.80709 5.63388 5.17587L3.9809 6.82884C-0.298463 11.1089 0.570049 16.3173 6.56233 22.3096L16.1433 31.8913C22.1356 37.8842 27.3441 38.7514 31.6241 34.4721L33.2771 32.8191C33.8739 32.2223 34.0094 31.3199 33.6152 30.5738C32.6718 28.7912 29.287 26.5382 28.0634 25.8202C27.5578 25.5315 27.0209 25.4234 26.6398 25.527C26.4052 25.5928 26.2267 25.7381 26.0951 25.9726L26.0273 26.071C25.5641 26.6268 24.4421 27.9481 24.0336 28.2257C21.9812 29.6154 20.0461 29.4252 18.2798 27.6588L10.7948 20.1745C9.02779 18.4081 8.83689 16.4718 10.2273 14.4207C10.5042 14.0122 11.8268 12.8902 12.3826 12.4263L12.4803 12.3585C12.7149 12.2269 12.8608 12.0484 12.926 11.8138C13.0322 11.4307 12.9208 10.8958 12.6282 10.383C12.6067 10.3459 10.0253 5.97336 7.87911 4.83771C7.59438 4.68786 7.2862 4.61423 6.98258 4.61423Z" fill="#4285F4"/>
<path d="M17.8278 0C17.4675 0 17.1763 0.291242 17.1763 0.651548C17.1763 1.01185 17.4675 1.3031 17.8278 1.3031C28.8338 1.3031 37.788 10.2573 37.788 21.2633C37.788 21.6236 38.0792 21.9148 38.4395 21.9148C38.7998 21.9148 39.0911 21.6236 39.0911 21.2633C39.0911 9.53866 29.5524 0 17.8278 0Z" fill="#1257e0"/>
<path d="M17.8273 4.58044C17.467 4.58044 17.1758 4.87169 17.1758 5.23199C17.1758 5.5923 17.467 5.88354 17.8273 5.88354C26.3079 5.88354 33.2065 12.7828 33.2065 21.2627C33.2065 21.623 33.4977 21.9142 33.858 21.9142C34.2183 21.9142 34.5096 21.623 34.5096 21.2627C34.5102 12.0648 27.0259 4.58044 17.8273 4.58044Z" fill="#1257e0"/>
<path d="M17.8273 9.16089C17.467 9.16089 17.1758 9.45213 17.1758 9.81244C17.1758 10.1727 17.467 10.464 17.8273 10.464C23.7825 10.464 28.6267 15.3089 28.6267 21.2634C28.6267 21.6237 28.918 21.9149 29.2783 21.9149C29.6386 21.9149 29.9298 21.6237 29.9298 21.2634C29.9298 14.5902 24.5005 9.16089 17.8273 9.16089Z" fill="#1257e0"/>
</svg>
