<svg width="14" height="11" viewBox="0 0 14 11" fill="none" xmlns="http://www.w3.org/2000/svg">
<path fill-rule="evenodd" clip-rule="evenodd" d="M11.5728 6.18094L7.76044 9.83522C7.48185 10.1023 7.48185 10.5341 7.7591 10.7999C8.03902 11.0682 8.48756 11.0656 8.76615 10.7986L13.79 5.98233H13.7907L13.7914 5.98169C13.9313 5.84753 14 5.67313 14 5.49936C13.9993 5.32495 13.93 5.15055 13.7914 5.01767L13.79 5.01639L8.76615 0.20012C8.48756 -0.0662807 8.03702 -0.0669186 7.7591 0.199481C7.47985 0.467157 7.48185 0.897103 7.76044 1.16414L11.5728 4.81842H0.712474C0.320578 4.81842 0 5.12315 0 5.49944C0 5.87892 0.319247 6.1811 0.712474 6.1811L11.5728 6.18094Z" fill="#12b7e0"/>
</svg>
