<svg width="209" height="164" viewBox="0 0 209 164" fill="none" xmlns="http://www.w3.org/2000/svg">
<path opacity="0.3" fill-rule="evenodd" clip-rule="evenodd" d="M2.81147 109.356C-1.06499 114.837 -0.948817 121.454 3.25949 125.832C4.26444 126.893 5.49944 127.767 6.90852 128.415C12.2383 130.837 16.237 128.048 19.9051 130.593C25.1318 134.219 20.1264 142.041 23.5805 151.708C25.0648 155.862 26.9683 162.289 32.6815 163.397C38.6116 164.548 45.3029 159.401 46.7832 158.262C56.8382 150.529 54.7278 141.504 62.3842 137.543C67.7289 134.778 74.7113 136.236 78.4563 137.823C80.782 138.808 82.165 140.355 83.9051 141.905C85.719 143.52 88.3654 144.186 91.1129 144.03C97.0379 143.695 105.005 140.08 105.527 134.166C105.663 132.628 105.302 131.139 104.748 129.75C102.807 124.875 98.5543 120.631 94.3493 117.228C88.3662 112.385 81.1624 109.802 73.6378 106.992C69.6288 105.494 65.9715 103.56 63.2713 100.601C58.2742 95.1235 64.076 91.586 60.102 68.969C59.4532 65.2764 59.0864 59.7536 54.8077 58.0423C52.9915 57.3159 50.6976 57.559 48.6729 58.2995C44.7952 59.7177 40.5409 62.7015 39.106 66.2485C36.3289 73.1142 45.172 79.6874 40.1719 86.3019C36.7484 90.8309 30.5092 89.5209 21.6556 93.3113C16.3432 95.5858 9.44965 99.9708 2.81147 109.356Z" fill="#DDE1E7"/>
<path opacity="0.3" fill-rule="evenodd" clip-rule="evenodd" d="M205.287 54.2074C209.163 48.7265 209.047 42.1098 204.839 37.7321C203.834 36.6711 202.599 35.7969 201.19 35.149C195.86 32.7272 191.861 35.516 188.193 32.9709C182.966 29.3445 187.972 21.5226 184.518 11.8558C183.033 7.7018 181.13 1.27451 175.417 0.16646C169.486 -0.98372 162.795 4.1629 161.315 5.30149C151.26 13.0353 153.37 22.0603 145.714 26.0212C140.369 28.7863 133.387 27.3274 129.642 25.7408C127.316 24.7555 125.933 23.2088 124.193 21.6591C122.379 20.0441 119.733 19.3778 116.985 19.5334C111.06 19.8692 103.093 23.4838 102.571 29.3979C102.435 30.9364 102.796 32.425 103.35 33.8143C105.291 38.6884 109.544 42.9326 113.749 46.3363C119.732 51.1794 126.936 53.7616 134.46 56.5723C138.469 58.0699 142.127 60.0035 144.827 62.9631C149.824 68.4404 144.022 71.9779 147.996 94.5949C148.645 98.2875 149.012 103.81 153.29 105.522C155.107 106.248 157.4 106.005 159.425 105.264C163.303 103.846 167.557 100.862 168.992 97.3154C171.769 90.4496 162.926 83.8765 167.926 77.262C171.35 72.7329 177.589 74.043 186.442 70.2526C191.755 67.9781 198.648 63.5931 205.287 54.2074Z" fill="#DDE1E7"/>
<path d="M41.3721 53.7062L58.4579 113.291C59.1937 115.857 61.8704 117.341 64.4367 116.605L103.589 105.379C106.155 104.643 107.639 101.966 106.903 99.3999L89.8176 39.8145C89.0818 37.2485 86.4051 35.7646 83.8388 36.5003L44.6862 47.7271C42.1202 48.4631 40.6363 51.1399 41.3721 53.7062Z" fill="#468EF1"/>
<path d="M91.5531 45.8669L89.8178 39.8148C89.082 37.2485 86.4053 35.7648 83.839 36.5006L77.7869 38.2362C79.4809 44.1445 85.6442 47.5612 91.5531 45.8669Z" fill="#C2E8EF"/>
<path d="M50.7382 45.9918L44.6861 47.7274C42.1201 48.4631 40.6361 51.1399 41.3722 53.7062L43.1075 59.7583C49.0161 58.064 52.4325 51.9007 50.7382 45.9918Z" fill="#FFC41B"/>
<path d="M56.7227 107.239L58.458 113.291C59.1937 115.858 61.8705 117.341 64.4368 116.605L70.4889 114.87C68.7946 108.961 62.6313 105.545 56.7227 107.239Z" fill="#FFC41B"/>
<path d="M106.904 99.3995L105.168 93.3474C99.2597 95.0417 95.8433 101.205 97.5375 107.114L103.59 105.378C106.156 104.643 107.639 101.966 106.904 99.3995Z" fill="#C2E8EF"/>
<path d="M77.9907 89.9981C83.5674 88.3993 86.3628 81.0852 84.2345 73.6616C82.1062 66.238 75.8601 61.5161 70.2834 63.1149C64.7068 64.7137 61.9114 72.0278 64.0397 79.4514C66.168 86.875 72.4141 91.5969 77.9907 89.9981Z" fill="#FFC41B"/>
<path d="M169.259 53.7062L152.173 113.291C151.437 115.857 148.76 117.341 146.194 116.605L107.041 105.379C104.475 104.643 102.992 101.966 103.727 99.3999L120.813 39.8148C121.549 37.2487 124.226 35.7648 126.792 36.5006L165.944 47.7274C168.511 48.4631 169.994 51.1399 169.259 53.7062Z" fill="#468EF1"/>
<path d="M119.077 45.8669L120.813 39.8148C121.548 37.2485 124.225 35.7648 126.792 36.5006L132.844 38.2362C131.15 44.1445 124.986 47.5612 119.077 45.8669Z" fill="#C2E8EF"/>
<path d="M159.892 45.9918L165.944 47.7274C168.51 48.4631 169.994 51.1399 169.258 53.7062L167.523 59.7583C161.614 58.064 158.198 51.9007 159.892 45.9918Z" fill="#FFC41B"/>
<path d="M153.908 107.239L152.173 113.291C151.437 115.858 148.76 117.341 146.194 116.605L140.142 114.87C141.836 108.961 147.999 105.545 153.908 107.239Z" fill="#FFC41B"/>
<path d="M103.727 99.3995L105.462 93.3474C111.371 95.0417 114.787 101.205 113.093 107.114L107.041 105.378C104.475 104.643 102.991 101.966 103.727 99.3995Z" fill="#C2E8EF"/>
<path d="M146.589 79.4419C148.717 72.0183 145.922 64.7042 140.345 63.1054C134.769 61.5066 128.522 66.2285 126.394 73.6521C124.266 81.0757 127.061 88.3898 132.638 89.9886C138.215 91.5874 144.461 86.8655 146.589 79.4419Z" fill="#FFC41B"/>
<path d="M77.4338 33.422V102.007C77.4338 104.961 79.8283 107.355 82.7822 107.355H127.848C130.802 107.355 133.197 104.961 133.197 102.007V33.422C133.197 30.4683 130.802 28.0736 127.848 28.0736H82.7822C79.8283 28.0739 77.4338 30.4683 77.4338 33.422Z" fill="#12b7e0"/>
<path d="M133.196 40.3883V33.4218C133.196 30.4682 130.802 28.0735 127.848 28.0735H120.882C120.882 34.8748 126.395 40.3883 133.196 40.3883Z" fill="#FFC41B"/>
<path d="M89.7484 28.0743H82.7822C79.8285 28.0743 77.4338 30.4688 77.4338 33.4227V40.3889C84.2349 40.3889 89.7484 34.8754 89.7484 28.0743Z" fill="#FFC41B"/>
<path d="M77.4338 95.0404V102.007C77.4338 104.96 79.8283 107.355 82.7822 107.355H89.7484C89.7484 100.554 84.2349 95.0404 77.4338 95.0404Z" fill="#FFC41B"/>
<path d="M133.196 102.007V95.0404C126.395 95.0404 120.882 100.554 120.882 107.355H127.848C130.802 107.355 133.196 104.961 133.196 102.007Z" fill="#FFC41B"/>
<path d="M105.315 83.1856C111.734 83.1856 116.937 76.2588 116.937 67.7142C116.937 59.1697 111.734 52.2429 105.315 52.2429C98.8967 52.2429 93.6934 59.1697 93.6934 67.7142C93.6934 76.2588 98.8967 83.1856 105.315 83.1856Z" fill="#FFC41B"/>
<path d="M105.597 138.733C118.557 138.733 129.063 128.226 129.063 115.266C129.063 102.306 118.557 91.7992 105.597 91.7992C92.6363 91.7992 82.1299 102.306 82.1299 115.266C82.1299 128.226 92.6363 138.733 105.597 138.733Z" fill="#2BC569"/>
<path d="M107.989 113.329H103.204C101.885 113.329 100.813 112.257 100.813 110.938C100.813 109.619 101.885 108.546 103.204 108.546H110.789C111.858 108.546 112.725 107.68 112.725 106.611C112.725 105.542 111.859 104.675 110.789 104.675H107.94V102.809C107.94 101.741 107.073 100.874 106.004 100.874C104.935 100.874 104.069 101.74 104.069 102.809V104.675H103.204C99.7511 104.675 96.9414 107.484 96.9414 110.938C96.9414 114.391 99.7508 117.2 103.204 117.2H107.989C109.308 117.2 110.381 118.273 110.381 119.592C110.381 120.911 109.308 121.984 107.989 121.984H100.404C99.3351 121.984 98.4684 122.85 98.4684 123.919C98.4684 124.988 99.3348 125.855 100.404 125.855H104.069V127.72C104.069 128.789 104.935 129.656 106.004 129.656C107.073 129.656 107.94 128.79 107.94 127.72V125.855H107.989C111.442 125.855 114.252 123.045 114.252 119.592C114.252 116.139 111.443 113.329 107.989 113.329Z" fill="white"/>
</svg>
