<svg width="595" height="422" viewBox="0 0 595 422" fill="none" xmlns="http://www.w3.org/2000/svg">
<path opacity="0.3" fill-rule="evenodd" clip-rule="evenodd" d="M6.06074 262.587C-4.12592 281.241 -1.35005 301.966 13.4714 314.132C17.0165 317.086 21.2165 319.368 25.8813 320.875C43.5148 326.483 55.0667 316.234 67.5226 322.85C85.271 332.277 72.389 358.701 86.767 387.751C92.9456 400.234 101.27 419.696 119.63 421.037C138.687 422.429 157.843 403.772 162.08 399.644C190.865 371.608 180.944 344.07 203.564 328.774C219.355 318.096 241.832 320.063 254.18 323.642C261.849 325.865 266.759 330.202 272.793 334.416C279.082 338.806 287.643 339.908 296.221 338.392C314.721 335.122 338.443 320.796 337.931 302.038C337.798 297.158 336.12 292.62 333.873 288.467C325.995 273.894 311.084 262.163 296.628 253.053C276.059 240.09 252.477 234.679 227.803 228.672C214.657 225.471 202.458 220.77 192.893 212.49C175.192 197.167 192.138 183.894 171.408 114.391C168.023 103.043 164.858 85.8456 150.787 82.0747C144.814 80.4739 137.693 82.0951 131.599 85.1767C119.929 91.0785 107.644 102.035 104.427 113.705C98.2 136.294 128.389 153.618 115.083 176.25C105.973 191.746 85.8866 189.968 59.441 205.177C43.5732 214.303 23.5047 230.645 6.06074 262.587Z" fill="#DDE1E7"/>
<path opacity="0.3" fill-rule="evenodd" clip-rule="evenodd" d="M568.388 241.017C587.704 232.15 597.865 213.875 593.254 195.263C592.178 190.775 590.174 186.435 587.335 182.44C576.549 167.404 561.162 168.717 555.13 155.968C546.535 137.802 572.656 124.316 578.491 92.4328C580.999 78.7316 585.957 58.1533 572.038 46.1047C557.592 33.5986 531.083 37.1076 525.219 37.8841C485.385 43.1572 476.88 71.1647 449.602 69.9085C430.559 69.0316 413.715 54.0203 405.954 43.7705C401.134 37.4049 399.79 30.9927 397.471 24.0088C395.053 16.7296 388.848 10.7301 381.064 6.81848C364.278 -1.6167 336.696 -4.31008 325.896 11.0355C323.085 15.027 321.719 19.6681 321.038 24.3407C318.644 40.7324 323.588 59.0498 329.732 74.9943C338.475 97.6811 354.148 116.113 370.339 135.677C378.966 146.1 385.936 157.16 388.656 169.515C393.69 192.38 372.17 192.893 347.249 261.006C343.181 272.127 335.439 287.806 344.467 299.24C348.299 304.093 354.977 307.049 361.704 308.221C374.589 310.464 390.986 309.022 400.54 301.589C419.034 287.2 405.185 255.268 429.378 245.076C445.944 238.097 460.986 251.528 491.278 255.141C509.454 257.308 535.311 256.2 568.388 241.017Z" fill="#DDE1E7"/>
<g filter="url(#filter0_d)">
<rect x="27.0166" y="195.325" width="330" height="160" rx="5" fill="white"/>
</g>
<path fill-rule="evenodd" clip-rule="evenodd" d="M118.135 224.65C122.198 224.65 123.261 228.979 123.261 228.979L115.596 232.146C115.596 232.146 116.091 233.898 118.396 233.91C120.2 233.919 121.219 232.31 121.219 232.31L123.163 233.627C123.163 233.627 121.594 236.165 118.38 236.165C114.431 236.165 112.692 232.712 112.692 230.469C112.692 228.309 114.073 224.65 118.135 224.65ZM117.902 226.885C114.773 227.457 115.167 230.195 115.167 230.195L120.345 228.081C120.345 228.081 119.38 226.614 117.902 226.885Z" fill="#12b7e0"/>
<path d="M111.606 218.927H109.042V235.855H111.606V218.927Z" fill="#12b7e0"/>
<path fill-rule="evenodd" clip-rule="evenodd" d="M101.819 224.648C103.962 224.587 104.992 226.07 104.992 226.07V225.014L107.362 225.034V235.715C107.362 238.444 105.738 241.325 101.913 241.325C98.0876 241.325 96.8522 237.936 96.8522 237.936L99.0288 237.02C99.0288 237.02 99.6927 239.109 102.026 239.109C104.683 239.109 104.993 236.692 104.993 235.864V234.705C104.993 234.705 104.073 236.144 101.79 236.144C99.3145 236.144 96.3726 234.023 96.3726 230.407C96.3726 226.791 99.1427 224.723 101.819 224.648ZM101.992 226.902C100.264 226.902 98.8631 228.485 98.8631 230.438C98.8631 232.39 100.264 233.974 101.992 233.974C103.721 233.974 105.122 232.39 105.122 230.438C105.122 228.485 103.721 226.902 101.992 226.902Z" fill="#12b7e0"/>
<path fill-rule="evenodd" clip-rule="evenodd" d="M89.5502 224.644C92.7361 224.644 95.3187 227.221 95.3187 230.4C95.3187 233.579 92.7361 236.155 89.5502 236.155C86.3644 236.155 83.7817 233.579 83.7817 230.4C83.7817 227.221 86.3644 224.644 89.5502 224.644ZM89.5125 226.901C87.7218 226.901 86.2701 228.468 86.2701 230.4C86.2701 232.332 87.7218 233.898 89.5125 233.898C91.3032 233.898 92.7549 232.332 92.7549 230.4C92.7549 228.468 91.3032 226.901 89.5125 226.901Z" fill="#12b7e0"/>
<path fill-rule="evenodd" clip-rule="evenodd" d="M77.0331 224.644C80.219 224.644 82.8016 227.221 82.8016 230.4C82.8016 233.579 80.219 236.155 77.0331 236.155C73.8473 236.155 71.2646 233.579 71.2646 230.4C71.2646 227.221 73.8473 224.644 77.0331 224.644ZM76.9954 226.901C75.2047 226.901 73.753 228.468 73.753 230.4C73.753 232.332 75.2047 233.898 76.9954 233.898C78.7862 233.898 80.2378 232.332 80.2378 230.4C80.2378 228.468 78.7862 226.901 76.9954 226.901Z" fill="#12b7e0"/>
<path fill-rule="evenodd" clip-rule="evenodd" d="M62.0654 226.45H69.6813L69.6059 228.858H62.0654V226.45Z" fill="#12b7e0"/>
<path fill-rule="evenodd" clip-rule="evenodd" d="M61.9521 218.325C64.5316 218.325 66.7001 219.224 68.1824 220.785L66.4397 222.524C65.3527 221.415 63.8088 220.807 62.0275 220.807C58.4668 220.807 55.5804 223.687 55.5804 227.24C55.5804 230.793 58.4668 233.673 62.0275 233.673C65.5881 233.673 68.1161 231.619 68.1108 227.24C68.1169 226.969 68.1105 226.706 68.0924 226.45L70.3168 226.45L70.3175 226.54C71.1459 232.609 67.0527 236.13 62.1024 236.156L61.9521 236.155C57.0172 236.148 53.0166 232.164 53.0166 227.24C53.0166 222.316 57.0172 218.325 61.9521 218.325Z" fill="#12b7e0"/>
<rect x="53.0166" y="253.325" width="279" height="12" rx="6" fill="#E4E9F0"/>
<rect x="53.0166" y="297.325" width="279" height="12" rx="6" fill="#E4E9F0"/>
<rect x="53.0166" y="319.325" width="238" height="12" rx="6" fill="#E4E9F0"/>
<rect x="83.0166" y="275.325" width="132" height="12" rx="6" fill="#4AD7A0"/>
<rect x="53.0166" y="275.325" width="24" height="12" rx="6" fill="#4AD7A0"/>
<path d="M60.0166 282.018C60.0166 283.403 60.9164 284.325 62.0411 284.325C62.7481 284.325 63.2542 283.988 63.5194 283.604V284.253H64.6521V279.815H63.5194V280.448C63.2542 280.079 62.7642 279.743 62.0492 279.743C60.9164 279.743 60.0166 280.632 60.0166 282.018ZM63.5194 282.034C63.5194 282.875 62.957 283.339 62.3384 283.339C61.7358 283.339 61.1654 282.859 61.1654 282.018C61.1654 281.177 61.7358 280.728 62.3384 280.728C62.957 280.728 63.5194 281.193 63.5194 282.034Z" fill="white"/>
<path d="M65.3811 282.018C65.3811 283.403 66.2809 284.325 67.4136 284.325C68.1126 284.325 68.6107 284.004 68.8758 283.596V284.253H70.0166V278.325H68.8758V280.432C68.5705 280.015 68.0081 279.743 67.4217 279.743C66.2809 279.743 65.3811 280.632 65.3811 282.018ZM68.8838 282.034C68.8838 282.875 68.3215 283.339 67.7029 283.339C67.1003 283.339 66.5299 282.859 66.5299 282.018C66.5299 281.177 67.1003 280.728 67.7029 280.728C68.3215 280.728 68.8838 281.193 68.8838 282.034Z" fill="white"/>
<g filter="url(#filter1_d)">
<rect x="195.017" y="74.3247" width="330" height="160" rx="5" fill="white"/>
</g>
<rect x="221.017" y="134.325" width="279" height="12" rx="6" fill="#E4E9F0"/>
<rect x="221.017" y="178.325" width="279" height="12" rx="6" fill="#E4E9F0"/>
<rect x="221.017" y="200.325" width="238" height="12" rx="6" fill="#E4E9F0"/>
<rect x="251.017" y="156.325" width="132" height="12" rx="6" fill="#4AD7A0"/>
<rect x="221.017" y="156.325" width="24" height="12" rx="6" fill="#4AD7A0"/>
<path d="M228.017 163.018C228.017 164.403 228.916 165.325 230.041 165.325C230.748 165.325 231.254 164.988 231.519 164.604V165.253H232.652V160.815H231.519V161.448C231.254 161.079 230.764 160.743 230.049 160.743C228.916 160.743 228.017 161.632 228.017 163.018ZM231.519 163.034C231.519 163.875 230.957 164.339 230.338 164.339C229.736 164.339 229.165 163.859 229.165 163.018C229.165 162.177 229.736 161.728 230.338 161.728C230.957 161.728 231.519 162.193 231.519 163.034Z" fill="white"/>
<path d="M233.381 163.018C233.381 164.403 234.281 165.325 235.414 165.325C236.113 165.325 236.611 165.004 236.876 164.596V165.253H238.017V159.325H236.876V161.432C236.571 161.015 236.008 160.743 235.422 160.743C234.281 160.743 233.381 161.632 233.381 163.018ZM236.884 163.034C236.884 163.875 236.321 164.339 235.703 164.339C235.1 164.339 234.53 163.859 234.53 163.018C234.53 162.177 235.1 161.728 235.703 161.728C236.321 161.728 236.884 162.193 236.884 163.034Z" fill="white"/>
<path d="M221.017 96.3247V117.078L225.375 120.325L238.679 113.252V108.035L228.013 104.731L229.963 109.426L233.002 110.933L225.948 114.817V97.716L221.017 96.3247Z" fill="#12b7e0"/>
<path d="M250.163 112.188C250.163 113.346 249.426 114.02 248.219 114.02H245.804V110.271H248.156C249.347 110.271 250.163 110.996 250.163 112.188ZM249.88 106.954C249.88 108.06 249.175 108.664 248.015 108.664H245.804V105.227H248.015C249.175 105.227 249.88 105.866 249.88 106.954ZM251.95 112.396C251.95 110.962 251.009 109.684 249.849 109.459C250.9 109.044 251.699 108.163 251.699 106.712C251.699 105.02 250.476 103.62 248.171 103.62H244.017V115.626H248.375C250.602 115.626 251.95 114.227 251.95 112.396Z" fill="#12b7e0"/>
<path d="M253.736 115.626H255.523V106.108H253.736V115.626ZM254.645 104.847C255.272 104.847 255.774 104.294 255.774 103.586C255.774 102.877 255.272 102.325 254.645 102.325C254.002 102.325 253.5 102.877 253.5 103.586C253.5 104.294 254.002 104.847 254.645 104.847Z" fill="#12b7e0"/>
<path d="M263.843 115.626H265.615V110.012C265.615 107.352 264.094 105.952 262.072 105.952C261.037 105.952 260.08 106.419 259.5 107.196V106.108H257.713V115.626H259.5V110.306C259.5 108.561 260.363 107.663 261.68 107.663C262.981 107.663 263.843 108.561 263.843 110.306V115.626Z" fill="#12b7e0"/>
<path d="M267.142 110.824C267.142 113.76 268.945 115.782 271.219 115.782C272.63 115.782 273.665 115.004 274.214 114.192V115.782C274.214 117.682 273.179 118.615 271.799 118.615C270.56 118.615 269.604 117.941 269.337 116.956H267.566C267.785 119.064 269.494 120.325 271.799 120.325C274.496 120.325 276.017 118.373 276.017 115.782V106.108H274.214V107.49C273.68 106.678 272.63 105.952 271.219 105.952C268.945 105.952 267.142 107.887 267.142 110.824ZM274.214 110.858C274.214 112.914 272.944 114.071 271.595 114.071C270.262 114.071 268.977 112.879 268.977 110.824C268.977 108.768 270.262 107.663 271.595 107.663C272.944 107.663 274.214 108.82 274.214 110.858Z" fill="#12b7e0"/>
<defs>
<filter id="filter0_d" x="7.0166" y="179.325" width="370" height="200" filterUnits="userSpaceOnUse" color-interpolation-filters="sRGB">
<feFlood flood-opacity="0" result="BackgroundImageFix"/>
<feColorMatrix in="SourceAlpha" type="matrix" values="0 0 0 0 0 0 0 0 0 0 0 0 0 0 0 0 0 0 127 0"/>
<feOffset dy="4"/>
<feGaussianBlur stdDeviation="10"/>
<feColorMatrix type="matrix" values="0 0 0 0 0 0 0 0 0 0 0 0 0 0 0 0 0 0 0.1 0"/>
<feBlend mode="normal" in2="BackgroundImageFix" result="effect1_dropShadow"/>
<feBlend mode="normal" in="SourceGraphic" in2="effect1_dropShadow" result="shape"/>
</filter>
<filter id="filter1_d" x="175.017" y="58.3247" width="370" height="200" filterUnits="userSpaceOnUse" color-interpolation-filters="sRGB">
<feFlood flood-opacity="0" result="BackgroundImageFix"/>
<feColorMatrix in="SourceAlpha" type="matrix" values="0 0 0 0 0 0 0 0 0 0 0 0 0 0 0 0 0 0 127 0"/>
<feOffset dy="4"/>
<feGaussianBlur stdDeviation="10"/>
<feColorMatrix type="matrix" values="0 0 0 0 0 0 0 0 0 0 0 0 0 0 0 0 0 0 0.1 0"/>
<feBlend mode="normal" in2="BackgroundImageFix" result="effect1_dropShadow"/>
<feBlend mode="normal" in="SourceGraphic" in2="effect1_dropShadow" result="shape"/>
</filter>
</defs>
</svg>
