<svg width="12" height="12" viewBox="0 0 12 12" fill="none" xmlns="http://www.w3.org/2000/svg">
<path d="M6 0C2.69017 0 0 2.69017 0 6C0 9.30983 2.69017 12 6 12C9.30983 12 12 9.30983 12 6C12 2.69017 9.30983 0 6 0ZM6 0.666667C8.94917 0.666667 11.3333 3.05083 11.3333 6C11.3333 8.94917 8.94917 11.3333 6 11.3333C3.05083 11.3333 0.666667 8.94917 0.666667 6C0.666667 3.05083 3.05083 0.666667 6 0.666667ZM5.99479 2.83333C5.15559 2.8418 4.39388 3.38412 4.03129 4.1927C3.98507 4.27408 3.9753 4.37108 4.0046 4.45963C4.03325 4.54883 4.0977 4.62109 4.18298 4.66015C4.26762 4.69921 4.36528 4.70052 4.45122 4.66406C4.53715 4.6276 4.60421 4.55663 4.63547 4.46874C4.89978 3.88086 5.45317 3.50781 6.00005 3.49999H6.00526C6.48897 3.50455 6.86007 3.64843 7.10942 3.87499C7.35942 4.10286 7.50006 4.41731 7.50006 4.83332C7.50006 5.04947 7.42779 5.21744 7.28652 5.40624C7.14526 5.59504 6.93106 5.78711 6.70319 5.98957C6.24811 6.39517 5.68301 6.88086 5.66672 7.65624C5.66477 7.74478 5.69732 7.83072 5.75852 7.89452C5.81972 7.95898 5.9037 7.99608 5.99224 7.99804C6.08077 7.99999 6.16672 7.96679 6.23052 7.90559C6.29432 7.84439 6.33143 7.76041 6.33338 7.67187C6.3425 7.22331 6.6908 6.89517 7.14588 6.48957C7.37375 6.28711 7.61918 6.07096 7.81775 5.80727C8.01632 5.54296 8.16672 5.21677 8.16672 4.83331C8.16672 4.25452 7.94732 3.73501 7.55735 3.38017C7.16739 3.02534 6.6192 2.83786 6.00005 2.83331H5.99484L5.99479 2.83333ZM5.83333 8.5C5.74089 8.5 5.66667 8.57422 5.66667 8.66667V9C5.66667 9.09245 5.74089 9.16667 5.83333 9.16667H6.16667C6.25912 9.16667 6.33333 9.09245 6.33333 9V8.66667C6.33333 8.57422 6.25912 8.5 6.16667 8.5H5.83333Z" fill="#1257e0"/>
</svg>
