<svg width="82" height="57" viewBox="0 0 82 57" fill="none" xmlns="http://www.w3.org/2000/svg">
<path d="M54.954 17C47.7991 17 42 22.8951 42 30.1684V36.021H67.9081V30.1684C67.9081 22.8951 62.109 17 54.954 17Z" fill="#D7E8FF"/>
<path d="M54.8264 15.9118C59.1488 15.9118 62.6528 12.3498 62.6528 7.95591C62.6528 3.56198 59.1488 0 54.8264 0C50.504 0 47 3.56198 47 7.95591C47 12.3498 50.504 15.9118 54.8264 15.9118Z" fill="#D7E8FF"/>
<path d="M27.954 17C20.7991 17 15 22.8951 15 30.1684V36.021H40.9081V30.1684C40.9081 22.8951 35.109 17 27.954 17Z" fill="#D7E8FF"/>
<path d="M27.8264 15.9118C32.1488 15.9118 35.6528 12.3498 35.6528 7.95591C35.6528 3.56198 32.1488 0 27.8264 0C23.504 0 20 3.56198 20 7.95591C20 12.3498 23.504 15.9118 27.8264 15.9118Z" fill="#D7E8FF"/>
<path d="M40.954 32C33.7991 32 28 37.8951 28 45.1684V56.8736H53.9081V45.1684C53.9081 37.8951 48.109 32 40.954 32Z" fill="#468EF1"/>
<path d="M12.954 26C5.79909 26 0 31.8951 0 39.1684V45.021H25.9081V39.1684C25.9081 31.8951 20.109 26 12.954 26Z" fill="#468EF1"/>
<path d="M12.8264 24.9118C17.1488 24.9118 20.6528 21.3498 20.6528 16.9559C20.6528 12.562 17.1488 9 12.8264 9C8.504 9 5 12.562 5 16.9559C5 21.3498 8.504 24.9118 12.8264 24.9118Z" fill="url(#paint0_linear)"/>
<path d="M68.954 26C61.7991 26 56 31.8951 56 39.1684V45.021H81.9081V39.1684C81.9081 31.8951 76.109 26 68.954 26Z" fill="#468EF1"/>
<path d="M68.8264 24.9118C73.1488 24.9118 76.6528 21.3498 76.6528 16.9559C76.6528 12.562 73.1488 9 68.8264 9C64.504 9 61 12.562 61 16.9559C61 21.3498 64.504 24.9118 68.8264 24.9118Z" fill="url(#paint1_linear)"/>
<path d="M41.1991 27.9118C45.7273 27.9118 49.3982 24.3498 49.3982 19.9559C49.3982 15.562 45.7273 12 41.1991 12C36.6709 12 33 15.562 33 19.9559C33 24.3498 36.6709 27.9118 41.1991 27.9118Z" fill="url(#paint2_linear)"/>
<defs>
<linearGradient id="paint0_linear" x1="19.0466" y1="22.9156" x2="5.84516" y2="13.1868" gradientUnits="userSpaceOnUse">
<stop stop-color="#FFC41B"/>
<stop offset="1" stop-color="#F69866"/>
</linearGradient>
<linearGradient id="paint1_linear" x1="75.0466" y1="22.9156" x2="61.8452" y2="13.1868" gradientUnits="userSpaceOnUse">
<stop stop-color="#FFC41B"/>
<stop offset="1" stop-color="#F69866"/>
</linearGradient>
<linearGradient id="paint2_linear" x1="47.7155" y1="25.9156" x2="34.3443" y2="15.5924" gradientUnits="userSpaceOnUse">
<stop stop-color="#FFC41B"/>
<stop offset="1" stop-color="#F69866"/>
</linearGradient>
</defs>
</svg>
