<svg width="466" height="371" viewBox="0 0 466 371" fill="none" xmlns="http://www.w3.org/2000/svg">
<g opacity="0.4">
<path fill-rule="evenodd" clip-rule="evenodd" d="M110.014 370.424H405.243C405.243 370.424 502.246 254.856 432.235 227.98C362.224 201.103 383.312 185.874 424.644 106.14C465.976 26.4074 411.991 -4.0524 367.285 0.427011C322.579 4.90642 286.308 26.4074 244.976 100.765C203.644 175.123 174.121 172.137 131.102 171.838C88.0829 171.539 -36.7564 241.418 110.014 370.424Z" fill="#DDE1E7"/>
</g>
<path fill-rule="evenodd" clip-rule="evenodd" d="M122.093 182.871C122.093 182.871 146.498 151.633 128.601 125.536C110.704 99.4383 113.84 98.907 113.466 82.4037C113.092 65.9003 109.88 48.796 96.2926 43.231C82.7049 37.666 90.8092 25.8145 71.4858 24.1641C71.4858 24.1641 81.9848 50.4577 77.2793 63.4869C72.5738 76.516 73.1419 100.701 81.55 111.325C89.9581 121.95 102.01 137.168 99.8076 155.062C97.6053 172.957 114.272 182.778 122.093 182.871Z" fill="url(#paint0_linear)"/>
<path fill-rule="evenodd" clip-rule="evenodd" d="M119.097 191.052C121.067 183.734 122.014 176.122 121.558 168.571C121.344 164.799 120.771 161.056 119.847 157.392L119.501 156.021C119.386 155.563 119.223 155.119 119.087 154.668L118.66 153.32L118.447 152.646C118.374 152.422 118.28 152.205 118.198 151.984L117.18 149.346C116.827 148.479 116.425 147.633 115.976 146.812C115.523 145.996 115.015 145.197 114.52 144.387C114.024 143.577 113.528 142.766 113.045 141.948C112.075 140.315 111.146 138.656 110.221 137.001C108.369 133.691 106.526 130.376 104.692 127.055C102.87 123.726 101.07 120.383 99.3602 116.988C97.6225 113.6 96.0648 110.121 94.6936 106.568L94.2003 105.224C94.0371 104.776 93.9024 104.317 93.7518 103.864C93.6087 103.408 93.4488 102.958 93.3203 102.498L92.9389 101.115L92.7485 100.423L92.5902 99.724L92.2738 98.3253C92.1773 97.8565 92.1051 97.3828 92.0197 96.9121C91.9414 96.4401 91.8426 95.971 91.795 95.4943C91.2355 91.6964 91.2217 87.8379 91.754 84.0361C92.0545 82.1424 92.498 80.2742 93.0809 78.4476C93.6441 76.6225 94.3139 74.8457 94.8423 73.046C95.1079 72.1499 95.3263 71.2405 95.4965 70.3215C95.6541 69.4063 95.7465 68.4809 95.7729 67.5526C95.7914 66.6229 95.7453 65.6931 95.6349 64.7698C95.5129 63.8436 95.3378 62.9252 95.1104 62.019C94.2456 58.3631 92.4832 54.991 90.5942 51.7227C88.6929 48.4532 86.6287 45.2716 84.5735 42.0868C82.513 38.9042 80.4632 35.7129 78.3649 32.5562C76.262 29.4013 74.12 26.2727 71.939 23.1704C74.2004 26.2149 76.4086 29.2985 78.5637 32.4212C80.7203 35.5431 82.8267 38.6961 84.9448 41.8429C85.997 43.4208 87.0389 45.006 88.0707 46.5985C89.1013 48.1921 90.1168 49.7971 91.088 51.4318C92.0591 53.0664 92.9914 54.729 93.8122 56.4557C94.6447 58.1841 95.3059 59.9899 95.7862 61.8472C96.0307 62.7781 96.2214 63.7222 96.3574 64.675C96.4829 65.6337 96.5415 66.5999 96.5327 67.5668C96.5129 68.5345 96.4213 69.4994 96.2585 70.4535C96.0866 71.4006 95.8648 72.3379 95.5941 73.2616C95.0598 75.1032 94.3966 76.8808 93.8486 78.6816C93.2843 80.4712 92.8566 82.3011 92.5692 84.1554C92.0235 87.862 92.1295 91.6532 92.6524 95.3703C93.1602 99.0939 94.2241 102.723 95.5405 106.249C96.8882 109.777 98.4212 113.232 100.133 116.599C101.823 119.985 103.606 123.327 105.414 126.658C107.229 129.984 109.059 133.305 110.904 136.618C111.821 138.278 112.745 139.927 113.696 141.564C114.169 142.383 114.65 143.198 115.139 144.008C115.624 144.821 116.125 145.628 116.584 146.476C117.036 147.323 117.439 148.196 117.792 149.089L118.793 151.77C118.874 151.994 118.966 152.214 119.037 152.442L119.246 153.126L119.662 154.493C119.795 154.951 119.954 155.401 120.065 155.865L120.4 157.254C121.294 160.959 121.829 164.74 121.999 168.547C122.153 172.349 121.978 176.156 121.473 179.927L121.279 181.338C121.214 181.808 121.122 182.274 121.046 182.743C120.897 183.68 120.702 184.609 120.51 185.539C120.103 187.393 119.64 189.235 119.097 191.052Z" fill="white"/>
<path fill-rule="evenodd" clip-rule="evenodd" d="M152.015 224.234C152.015 224.234 156.38 196.871 129.829 180.112C103.278 163.354 85.1589 154.657 80.6546 131.429C76.1503 108.202 68.7276 94.4271 54.9184 87.6245C41.1092 80.8219 41.8405 75.4 31.1986 70.2339C20.5568 65.0678 2.00879 62.6387 2.00879 62.6387C2.00879 62.6387 32.6682 84.9947 34.8852 107.705C37.1021 130.416 44.2649 145.334 58.4618 156.679C72.6587 168.025 79.0277 198.324 108.198 205.066C137.369 211.808 152.015 224.234 152.015 224.234Z" fill="url(#paint1_linear)"/>
<path fill-rule="evenodd" clip-rule="evenodd" d="M152.786 228.153C151.605 223.385 149.881 218.767 147.649 214.391C145.409 210.024 142.57 205.992 139.214 202.411C138.35 201.544 137.508 200.655 136.6 199.835C135.697 199.008 134.762 198.221 133.793 197.473C131.839 195.997 129.805 194.628 127.701 193.374L115.124 185.705C110.934 183.143 106.747 180.577 102.594 177.954C100.514 176.646 98.4473 175.318 96.3926 173.967C94.3412 172.612 92.3049 171.232 90.3379 169.744C86.4516 166.705 82.8753 163.288 79.661 159.545C79.2442 159.091 78.8726 158.599 78.4789 158.125L77.3152 156.689L76.2048 155.212C75.834 154.721 75.4589 154.231 75.1148 153.72C74.4098 152.71 73.696 151.706 73.0386 150.665C72.706 150.147 72.3607 149.636 72.0386 149.112L71.0784 147.534C68.5334 143.316 66.3318 138.909 64.2065 134.48C62.1143 130.04 59.97 125.602 58.2986 120.962C57.4484 118.65 56.739 116.286 56.1166 113.904C55.4942 111.523 54.9832 109.118 54.3216 106.766C53.0301 102.054 50.8687 97.61 48.1801 93.5307C45.4751 89.4462 42.2636 85.7209 38.6223 82.4436C34.9709 79.1712 31.0163 76.254 26.8118 73.7315L25.2483 72.764L23.6412 71.8703L22.0327 70.98C21.4942 70.6867 20.9659 70.3739 20.4104 70.114L17.1113 68.4847L16.2856 68.0791L15.4436 67.7087L13.7591 66.9671L12.0746 66.226C11.7932 66.1039 11.5151 65.9754 11.2307 65.8586L10.3737 65.5236L6.94458 64.1832C5.8093 63.7153 4.63671 63.3459 3.48068 62.9367L0 61.7329L3.49281 62.9018C4.65443 63.2981 5.83028 63.6573 6.97069 64.114L10.415 65.4208L11.2775 65.7472C11.5624 65.861 11.8426 65.9868 12.1256 66.1062L13.8195 66.8314L15.5133 67.5567L16.3604 67.9194L17.1913 68.3173L20.5125 69.9163C21.072 70.1727 21.6047 70.4793 22.1471 70.7676L23.7692 71.6441L25.3893 72.5242L26.9675 73.4786C31.206 75.986 35.195 78.8932 38.8799 82.1603C42.5661 85.4411 45.8219 89.1755 48.5697 93.2745C51.3065 97.3682 53.5169 101.857 54.8265 106.625C55.5 108.999 56.0122 111.402 56.6383 113.769C57.2645 116.135 57.9694 118.479 58.8184 120.775C60.4855 125.377 62.6299 129.795 64.7303 134.231C66.8594 138.649 69.0628 143.034 71.5987 147.224L72.5505 148.795C72.8699 149.317 73.2121 149.824 73.5417 150.34C74.1928 151.376 74.9003 152.375 75.5987 153.379C75.9407 153.887 76.3111 154.373 76.6785 154.863L77.7782 156.331L78.9309 157.759C79.3207 158.229 79.6888 158.719 80.1014 159.171C83.2827 162.889 86.8233 166.285 90.6717 169.307C92.6184 170.786 94.6468 172.165 96.6896 173.521C98.7324 174.877 100.798 176.202 102.873 177.513C107.022 180.136 111.194 182.724 115.368 185.311L127.902 193.051C130.01 194.323 132.046 195.71 134.003 197.204C134.974 197.963 135.912 198.761 136.817 199.6C137.726 200.432 138.571 201.328 139.43 202.211C142.765 205.84 145.576 209.917 147.782 214.325C149.972 218.728 151.652 223.368 152.786 228.153Z" fill="white"/>
<path fill-rule="evenodd" clip-rule="evenodd" d="M97.0765 210.022C92.1403 200.167 80.3524 190.478 61.865 190.259C43.3776 190.04 33.5713 177.409 28.5779 166.542C23.5891 155.673 9.24121 142.135 9.24121 142.135C9.24121 142.135 9.42071 142.179 9.78461 142.254C9.85454 142.27 9.93241 142.286 10.0177 142.303C11.7624 142.657 16.4842 143.492 24.5787 144.025C35.0944 144.717 41.4998 156.172 50.8777 157.137C60.2532 158.098 67.8986 161.032 75.798 166.531C83.6974 172.03 89.6382 174.661 105.856 174.281C122.074 173.902 138.953 201.934 138.953 201.934C138.918 202.885 138.844 203.793 138.733 204.66C138.731 204.686 138.728 204.712 138.724 204.738C135.478 229.619 101.994 219.846 97.0765 210.022Z" fill="url(#paint2_linear)"/>
<path fill-rule="evenodd" clip-rule="evenodd" d="M138.725 204.737C134.19 203.752 129.709 202.558 125.281 201.154C119.167 199.198 113.203 196.801 107.436 193.982C104.551 192.579 101.729 191.043 98.949 189.45C96.1677 187.865 93.3901 186.274 90.5234 184.871C87.6591 183.456 84.7206 182.199 81.7302 181.067C78.7527 179.917 75.7175 178.922 72.637 178.085C71.0914 177.689 69.5346 177.351 67.9662 177.056C66.3978 176.76 64.8049 176.478 63.2444 176.049C61.6878 175.622 60.1621 175.089 58.6781 174.454C57.9321 174.148 57.2036 173.805 56.4703 173.475L54.3076 172.411C51.445 170.933 48.7197 169.204 46.1639 167.243C43.604 165.297 41.2024 163.171 38.7384 161.13C33.823 157.032 28.6379 153.268 23.2181 149.864C18.8706 147.108 14.3928 144.571 9.78467 142.252C9.8546 142.269 9.93246 142.284 10.0178 142.301C14.5825 144.515 19.0339 146.951 23.3719 149.611C28.8374 152.975 34.0696 156.703 39.0326 160.772L42.7391 163.83L44.5938 165.352C45.2205 165.847 45.8431 166.349 46.4791 166.828C49.0163 168.76 51.7196 170.465 54.5573 171.921L56.7076 172.97C57.4356 173.294 58.1578 173.633 58.894 173.931C60.3577 174.553 61.8619 175.074 63.3962 175.492C64.9257 175.906 66.4967 176.18 68.0732 176.474C69.6498 176.768 71.2273 177.102 72.7883 177.5C75.8881 178.35 78.9419 179.36 81.9372 180.526C84.9344 181.672 87.8883 182.944 90.7642 184.377C93.6488 185.799 96.4332 187.401 99.2066 188.996C101.984 190.588 104.781 192.141 107.643 193.567C113.37 196.423 119.293 198.865 125.369 200.873C129.759 202.347 134.214 203.608 138.734 204.656C138.733 204.683 138.73 204.71 138.725 204.737Z" fill="white"/>
<path fill-rule="evenodd" clip-rule="evenodd" d="M136.822 79.9731H326.498C334.738 79.9731 341.418 86.6529 341.418 94.8927V237.973C341.418 246.213 334.738 252.893 326.498 252.893H136.822C128.582 252.893 121.902 246.213 121.902 237.973V94.8927C121.902 86.6529 128.582 79.9731 136.822 79.9731Z" fill="#3D476C"/>
<path fill-rule="evenodd" clip-rule="evenodd" d="M251.116 61.3335L228.189 78.3357C228.189 78.3357 227.075 80.6061 227.886 81.8791C228.787 83.2941 231.583 82.4479 231.583 82.4479L252.845 71.2436C252.073 68.7324 255.706 64.1015 251.116 61.3335Z" fill="#FFD5C0"/>
<path fill-rule="evenodd" clip-rule="evenodd" d="M250.03 61.8384C250.03 61.8384 251.289 65.8481 252.525 71.5636L274.104 54.8153C274.104 54.8153 281.709 42.4367 274.278 40.383C269.306 39.0078 250.03 61.8384 250.03 61.8384Z" fill="#3D476C"/>
<path fill-rule="evenodd" clip-rule="evenodd" d="M251.522 23.9194C251.522 23.9194 251.173 39.7111 259.236 36.1348C259.236 36.1348 264.685 38.2219 265.525 48.6215C266.32 58.4614 283.895 52.6822 282.97 46.6135C282.044 40.5447 274.643 38.9418 269.878 36.2707C265.112 33.5997 265.099 30.536 265.099 30.536C265.099 30.536 266.182 24.8803 262.656 27.537C262.655 27.5381 256.729 30.7078 251.522 23.9194Z" fill="#FFD5C0"/>
<path fill-rule="evenodd" clip-rule="evenodd" d="M264.631 44.4973C264.631 44.4973 261.74 51.2111 259.854 56.6509C257.967 62.0907 267.6 67.927 267.235 72.4096C266.871 76.8923 266.173 111.03 271.97 158.51C271.97 158.51 297.048 165.239 316.572 148.148C316.572 148.148 307.506 90.9297 287.784 73.8084C287.784 73.8084 285.507 51.7857 282.224 43.4016C277.516 31.3788 264.631 44.4973 264.631 44.4973Z" fill="#525B7E"/>
<path fill-rule="evenodd" clip-rule="evenodd" d="M105.032 249.291C105.032 253.229 106.596 257.007 109.38 259.792C112.165 262.577 115.942 264.141 119.88 264.141H309.699C313.637 264.141 317.415 262.577 320.2 259.792C322.985 257.007 324.549 253.23 324.548 249.291V109.496H105.032V249.291Z" fill="#A9D2FF"/>
<path fill-rule="evenodd" clip-rule="evenodd" d="M309.7 91.2202H119.881C115.943 91.2199 112.166 92.7844 109.381 95.5693C106.597 98.3543 105.033 102.131 105.033 106.07V109.497H324.548V106.07C324.549 102.131 322.984 98.3542 320.2 95.5693C317.415 92.7844 313.638 91.2199 309.7 91.2202V91.2202Z" fill="#7AB6F0"/>
<path fill-rule="evenodd" clip-rule="evenodd" d="M121.052 105.028C120.101 105.027 119.192 104.634 118.539 103.942C117.151 102.469 117.151 100.17 118.539 98.697C119.191 98.0042 120.101 97.6113 121.052 97.6113C122.003 97.6113 122.912 98.0042 123.564 98.697C124.953 100.17 124.953 102.469 123.564 103.942C122.912 104.634 122.003 105.027 121.052 105.028Z" fill="white"/>
<path fill-rule="evenodd" clip-rule="evenodd" d="M130.893 105.028C129.942 105.027 129.033 104.634 128.381 103.942C126.992 102.469 126.992 100.17 128.381 98.697C129.033 98.0042 129.942 97.6113 130.893 97.6113C131.845 97.6113 132.754 98.0042 133.406 98.697C134.794 100.17 134.794 102.469 133.406 103.942C132.753 104.634 131.844 105.027 130.893 105.028Z" fill="white"/>
<path fill-rule="evenodd" clip-rule="evenodd" d="M140.734 105.028C139.783 105.027 138.874 104.634 138.222 103.942C136.833 102.469 136.833 100.17 138.222 98.697C138.874 98.0042 139.783 97.6113 140.734 97.6113C141.685 97.6113 142.595 98.0042 143.247 98.697C144.635 100.17 144.635 102.469 143.247 103.942C142.594 104.634 141.685 105.027 140.734 105.028Z" fill="white"/>
<rect x="117.499" y="118.774" width="62.2322" height="46.6742" rx="20" fill="white"/>
<rect x="117.887" y="179.507" width="183.042" height="3.93643" rx="1.96821" fill="white"/>
<rect x="198.864" y="152.796" width="102.065" height="3.93643" rx="1.96821" fill="white"/>
<rect x="198.864" y="135.925" width="102.065" height="3.93643" rx="1.96821" fill="white"/>
<rect x="198.864" y="119.055" width="102.065" height="3.93643" rx="1.96821" fill="white"/>
<rect x="117.887" y="193.284" width="183.042" height="3.93643" rx="1.96821" fill="white"/>
<rect x="117.887" y="207.062" width="183.042" height="3.93643" rx="1.96821" fill="white"/>
<rect x="117.887" y="220.838" width="183.042" height="3.93643" rx="1.96821" fill="white"/>
<rect x="117.887" y="234.616" width="183.042" height="3.93643" rx="1.96821" fill="white"/>
<path fill-rule="evenodd" clip-rule="evenodd" d="M258.183 68.0381L242.049 89.4304C242.049 89.4304 242.129 91.0699 243.11 91.9266C244.371 93.0269 246.604 93.4057 246.604 93.4057L265.408 71.2414C265.408 71.2414 264.331 70.7527 258.183 68.0381Z" fill="#FFD5C0"/>
<path fill-rule="evenodd" clip-rule="evenodd" d="M256.39 69.9537C256.39 69.9537 257.668 70.5563 264.442 73.8185L275.622 56.8182C277.772 53.1116 278.058 49.2015 276.749 45.0924C275.833 42.2145 271.953 41.4501 269.857 42.5824C265.465 44.9548 256.39 69.9537 256.39 69.9537Z" fill="#3D476C"/>
<path fill-rule="evenodd" clip-rule="evenodd" d="M252.06 30.4037C252.06 30.4037 245.235 27.8443 249.785 22.7252C249.785 22.7252 250.638 9.6436 265.711 15.3312C272.536 18.1752 272.536 25.0005 276.517 26.9911C280.499 28.9817 289.883 27.844 291.874 32.3943C293.865 36.9445 294.718 46.3291 303.25 48.8885C311.782 51.4479 312.919 67.3734 301.544 66.2362C290.168 65.0991 283.059 66.8048 282.775 57.7041C282.49 48.6034 281.352 42.9161 276.802 42.9161C272.252 42.9161 268.27 42.0631 266.848 37.5128C265.426 32.9626 262.014 28.9807 259.17 29.2656C256.326 29.5505 251.492 24.1466 251.492 24.1466L252.06 30.4037Z" fill="#12b7e0"/>
<path fill-rule="evenodd" clip-rule="evenodd" d="M218.788 133.593C232.709 133.593 243.993 121.817 243.993 107.29C243.993 92.7628 232.709 80.9863 218.788 80.9863C204.868 80.9863 193.583 92.7628 193.583 107.29C193.583 121.817 204.868 133.593 218.788 133.593Z" fill="#468EF1"/>
<path fill-rule="evenodd" clip-rule="evenodd" d="M218.788 128.331C213.39 128.326 208.233 126.097 204.53 122.168C196.656 113.812 196.656 100.766 204.53 92.4098C208.23 88.4768 213.389 86.2466 218.788 86.2466C224.188 86.2466 229.347 88.4768 233.046 92.4098C240.92 100.767 240.92 113.811 233.046 122.168C229.344 126.097 224.186 128.326 218.788 128.331Z" fill="#FAFCFB"/>
<path fill-rule="evenodd" clip-rule="evenodd" d="M218.788 123.071C214.739 123.067 210.871 121.395 208.095 118.449C202.189 112.182 202.189 102.398 208.095 96.1309C210.869 93.1814 214.739 91.5088 218.788 91.5088C222.837 91.5088 226.707 93.1814 229.481 96.1309C235.387 102.398 235.387 112.182 229.481 118.449C226.704 121.395 222.836 123.067 218.788 123.071Z" fill="#468EF1"/>
<path fill-rule="evenodd" clip-rule="evenodd" d="M218.788 117.811C216.089 117.808 213.511 116.693 211.66 114.729C207.723 110.551 207.723 104.029 211.66 99.8514C213.509 97.8851 216.089 96.77 218.788 96.77C221.488 96.77 224.067 97.8851 225.917 99.8514C229.854 104.029 229.854 110.551 225.917 114.729C224.066 116.693 221.487 117.808 218.788 117.811Z" fill="#FAFCFB"/>
<path fill-rule="evenodd" clip-rule="evenodd" d="M218.788 111.538C217.698 111.537 216.657 111.087 215.91 110.294C214.32 108.607 214.32 105.974 215.91 104.287C216.657 103.493 217.698 103.042 218.788 103.042C219.878 103.042 220.92 103.493 221.666 104.287C223.256 105.974 223.256 108.607 221.666 110.294C220.919 111.087 219.878 111.537 218.788 111.538Z" fill="#12b7e0"/>
<path fill-rule="evenodd" clip-rule="evenodd" d="M228.456 78.1802L220.209 81.3079C220.209 81.3079 221.347 83.0141 223.622 81.8765C225.897 80.7389 227.319 84.1517 230.447 81.5923C233.575 79.0329 228.456 78.1802 228.456 78.1802Z" fill="#FFD5C0"/>
<path fill-rule="evenodd" clip-rule="evenodd" d="M242.542 89.0831L237.422 92.2115C237.422 92.2115 237.137 97.6147 242.825 96.7617L248.336 91.5336C248.336 91.5336 246.523 87.9459 242.542 89.0831Z" fill="#FFD5C0"/>
<path fill-rule="evenodd" clip-rule="evenodd" d="M237.423 92.2117L231.903 97.545C231.702 97.6409 231.552 97.8175 231.488 98.0308C231.425 98.2441 231.455 98.4742 231.572 98.664C232.322 99.8776 232.762 100.096 236.286 99.8892C241.12 99.6046 243.396 96.1922 243.396 96.1922C243.396 96.1922 240.835 91.359 237.423 92.2117Z" fill="#FFD5C0"/>
<path fill-rule="evenodd" clip-rule="evenodd" d="M242.257 89.3667L232.873 90.7887C232.873 90.7887 232.873 92.4949 235.148 92.2107C236.755 92.0484 238.375 92.0484 239.982 92.2107L242.257 89.3667Z" fill="#FFD5C0"/>
<rect x="166.202" y="156.876" width="5.73027" height="63.3204" rx="2.86514" transform="rotate(-29.876 166.202 156.876)" fill="#404884"/>
<path fill-rule="evenodd" clip-rule="evenodd" d="M179.464 172.913C190.202 166.744 193.688 152.66 187.251 141.454C180.814 130.249 166.891 126.166 156.153 132.334C145.416 138.502 141.929 152.587 148.367 163.792C154.804 174.998 168.727 179.081 179.464 172.913Z" fill="#468EF1"/>
<path fill-rule="evenodd" clip-rule="evenodd" d="M177.645 169.746C186.707 164.54 189.649 152.654 184.216 143.197C178.784 133.741 167.034 130.295 157.972 135.5C148.91 140.706 145.968 152.592 151.401 162.049C156.833 171.506 168.583 174.952 177.645 169.746Z" fill="#FAFCFB"/>
<path fill-rule="evenodd" clip-rule="evenodd" d="M154.02 161.548C153.661 161.548 153.329 161.356 153.15 161.044C148.317 152.63 150.959 142.007 159.042 137.364C159.353 137.185 159.736 137.186 160.045 137.366C160.355 137.546 160.546 137.877 160.545 138.236C160.544 138.594 160.353 138.925 160.042 139.103C152.918 143.195 150.606 152.59 154.89 160.045C155.069 160.356 155.068 160.738 154.889 161.047C154.71 161.357 154.379 161.548 154.021 161.548H154.02Z" fill="#468EF1"/>
<path fill-rule="evenodd" clip-rule="evenodd" d="M222.562 189.594C222.562 189.594 216.676 183.34 221.091 180.029C221.091 180.029 234.335 172.303 239.117 184.076C243.899 195.849 232.31 195.297 231.851 196.676C231.393 198.055 222.562 189.594 222.562 189.594Z" fill="#3D476C"/>
<path fill-rule="evenodd" clip-rule="evenodd" d="M222.987 184.661C222.987 184.661 217.092 201.231 225.587 200.072C230.567 199.392 233.03 194.812 233.03 194.812C233.03 194.812 235.36 195.255 235.91 192.406C236.277 190.508 233.752 188.764 232.865 192.194C232.865 192.194 231.86 192.206 230.996 189.948C230.456 188.536 230.267 186.713 228.285 187.15C226.303 187.587 223.199 185.726 222.987 184.661Z" fill="#FFD5C0"/>
<path fill-rule="evenodd" clip-rule="evenodd" d="M224.161 199.303C224.161 199.303 228.718 205.843 227.837 209.622C226.955 213.4 241.965 214.92 238.715 207.972C235.466 201.025 233.056 199.443 230.182 192.881C227.308 186.319 224.161 199.303 224.161 199.303Z" fill="#FFD5C0"/>
<path fill-rule="evenodd" clip-rule="evenodd" d="M183.555 177.307C183.555 177.307 178.684 177.593 181.263 183.896L185.847 188.481L189.859 187.335L183.555 177.307Z" fill="#FFD5C0"/>
<path fill-rule="evenodd" clip-rule="evenodd" d="M279.171 345.293C279.747 347.121 280.407 351.27 276.229 354.662C270.693 359.158 272.627 363.796 272.627 363.796L291.285 354.132C291.285 354.132 289.047 343.86 285.529 341.757C285.529 341.757 285.495 341.654 285.432 341.454C284.18 337.681 271.41 299.924 258.542 293.11C258.542 293.11 261.043 262.118 246.812 246.932L224.885 250.769C224.885 250.769 241.102 291.666 245.878 299.494C250.654 307.322 277.618 338.363 278.807 344.348C278.952 344.654 279.074 344.97 279.171 345.293Z" fill="#3D476C"/>
<path fill-rule="evenodd" clip-rule="evenodd" d="M200.875 370.514H222.269C222.269 370.514 225.707 360.583 223.796 356.953C223.796 356.953 223.845 356.755 223.928 356.38C225.097 351.283 233.383 313.646 226.088 301.369C226.088 301.369 235.829 292.965 244.806 248.077L219.976 247.982C219.976 247.982 211.954 291.054 211.954 300.224C211.954 309.393 218.733 350.221 216.633 355.951C216.633 355.951 216.615 356.109 216.564 356.381C216.261 358.014 214.762 363.776 208.705 364.595C201.64 365.548 200.875 370.514 200.875 370.514Z" fill="#525B7E"/>
<path fill-rule="evenodd" clip-rule="evenodd" d="M183.875 187.241C183.875 187.241 200.972 207.87 202.02 208.538C203.069 209.205 219.691 216.941 219.691 216.941C219.691 216.941 219.694 216.958 219.702 216.993C219.894 218.027 222.888 234.777 218.447 254.573C218.447 254.573 235.988 258.678 251.875 253.615C251.875 253.615 249.353 243.587 248.881 236.043C248.022 222.289 250.314 209.684 237.549 207.01L222.347 204.916L205.173 199.942L187.695 182.943L183.875 187.241Z" fill="#12b7e0"/>
<path fill-rule="evenodd" clip-rule="evenodd" d="M200.875 370.514H222.269C222.269 370.514 225.707 360.583 223.796 356.953L216.564 356.38C216.261 358.013 214.762 363.775 208.705 364.595C201.64 365.549 200.875 370.514 200.875 370.514Z" fill="#3D476C"/>
<path fill-rule="evenodd" clip-rule="evenodd" d="M272.627 363.795L291.285 354.131C291.285 354.131 289.047 343.859 285.529 341.756L279.171 345.292C279.747 347.12 280.406 351.269 276.228 354.661C270.693 359.157 272.627 363.795 272.627 363.795Z" fill="#3D476C"/>
<path fill-rule="evenodd" clip-rule="evenodd" d="M384.053 316.525C384.053 316.525 360.81 302.643 327.236 316.525L355.321 350.423L384.053 316.525Z" fill="#3D476C"/>
<path fill-rule="evenodd" clip-rule="evenodd" d="M360.648 310.875C363.04 283.313 380.933 264.492 396.482 243.727C406.512 230.331 419.656 210.666 432.316 184.003C445.285 208.846 443.223 221.559 439.095 228.552C433.07 238.763 422.456 237.119 417.465 247.922C410.2 263.648 426.223 281.141 419.402 287.63C413.617 293.135 399.764 282.758 393.254 289.244C388.262 294.216 393.348 303.361 387.766 307.645C383.507 310.912 379.187 306.639 373.238 309.582C364.603 313.855 364.186 327.579 362.262 327.337C360.844 327.161 359.896 319.541 360.648 310.875Z" fill="url(#paint3_linear)"/>
<path fill-rule="evenodd" clip-rule="evenodd" d="M356.192 330.726C382.551 273.833 386.478 209.09 367.186 149.428C372.216 171.81 368.206 185.46 363.638 193.778C358.157 203.757 352.364 205.165 350.078 214.85C346.628 229.47 357.811 234.81 356.97 251.007C356.119 267.407 344.215 270.356 341.06 286.091C339.178 295.482 340.298 309.988 356.192 330.726Z" fill="url(#paint4_linear)"/>
<path fill-rule="evenodd" clip-rule="evenodd" d="M351.608 327.016C359.775 277.874 351.251 227.413 327.397 183.681C332.249 201.493 330.278 214.063 327.397 222.42C322.792 235.775 315.359 239.828 316.743 250.184C318.169 260.852 326.814 262.211 328.365 275.365C329.453 284.586 325.525 286.64 328.365 293.12C331.609 300.524 338.473 301.812 339.341 309.262C339.787 313.08 338.152 314.19 339.018 317.332C340.463 322.572 346.646 325.427 351.608 327.016Z" fill="url(#paint5_linear)"/>
<path fill-rule="evenodd" clip-rule="evenodd" d="M384.053 316.524C384.053 316.524 361.455 328.146 327.236 316.524L333.693 370.113H375.015L384.053 316.524Z" fill="#485584"/>
<g opacity="0.4">
<path fill-rule="evenodd" clip-rule="evenodd" d="M466 152.067H418.447C418.447 152.067 422.235 124.975 432.467 142.405C432.467 142.405 441.182 118.534 450.276 143.731C450.276 143.731 466 138.426 466 152.067Z" fill="#DDE1E7"/>
</g>
<g opacity="0.4">
<path fill-rule="evenodd" clip-rule="evenodd" d="M209.425 36.4446H145.699C145.699 36.4446 150.777 0.138847 164.487 23.4966C164.487 23.4966 176.166 -8.49351 188.352 25.2736C188.352 25.2745 209.425 18.1645 209.425 36.4446Z" fill="#DDE1E7"/>
</g>
<defs>
<linearGradient id="paint0_linear" x1="86.0111" y1="72.5065" x2="139.36" y2="91.9606" gradientUnits="userSpaceOnUse">
<stop stop-color="#136BDE"/>
<stop offset="1" stop-color="#68ADFD"/>
</linearGradient>
<linearGradient id="paint1_linear" x1="129.984" y1="68.7816" x2="69.5843" y2="225.627" gradientUnits="userSpaceOnUse">
<stop stop-color="#A3EDD0"/>
<stop offset="1" stop-color="#4DE1A3"/>
</linearGradient>
<linearGradient id="paint2_linear" x1="38.8311" y1="165.989" x2="76.5281" y2="222.74" gradientUnits="userSpaceOnUse">
<stop stop-color="#136BDE"/>
<stop offset="1" stop-color="#68ADFD"/>
</linearGradient>
<linearGradient id="paint3_linear" x1="379.057" y1="227.664" x2="440.271" y2="259.439" gradientUnits="userSpaceOnUse">
<stop stop-color="#136BDE"/>
<stop offset="1" stop-color="#68ADFD"/>
</linearGradient>
<linearGradient id="paint4_linear" x1="373.495" y1="156.32" x2="284.423" y2="209.669" gradientUnits="userSpaceOnUse">
<stop stop-color="#A3EDD0"/>
<stop offset="1" stop-color="#4DE1A3"/>
</linearGradient>
<linearGradient id="paint5_linear" x1="325.254" y1="227.341" x2="359.388" y2="235.577" gradientUnits="userSpaceOnUse">
<stop stop-color="#136BDE"/>
<stop offset="1" stop-color="#68ADFD"/>
</linearGradient>
</defs>
</svg>
