<svg width="82" height="58" viewBox="0 0 82 58" fill="none" xmlns="http://www.w3.org/2000/svg">
<path d="M54.954 17.123C47.7991 17.123 42 23.0181 42 30.2914V36.1441H67.9081V30.2914C67.9081 23.0181 62.109 17.123 54.954 17.123Z" fill="#D7E8FF"/>
<path d="M54.8264 16.0349C59.1488 16.0349 62.6528 12.4729 62.6528 8.07896C62.6528 3.68503 59.1488 0.123047 54.8264 0.123047C50.504 0.123047 47 3.68503 47 8.07896C47 12.4729 50.504 16.0349 54.8264 16.0349Z" fill="#D7E8FF"/>
<path d="M27.954 17.123C20.7991 17.123 15 23.0181 15 30.2914V36.1441H40.9081V30.2914C40.9081 23.0181 35.109 17.123 27.954 17.123Z" fill="#D7E8FF"/>
<path d="M27.8264 16.0349C32.1488 16.0349 35.6528 12.4729 35.6528 8.07896C35.6528 3.68503 32.1488 0.123047 27.8264 0.123047C23.504 0.123047 20 3.68503 20 8.07896C20 12.4729 23.504 16.0349 27.8264 16.0349Z" fill="#D7E8FF"/>
<path d="M40.954 33.123C33.7991 33.123 28 39.0181 28 46.2914V57.9967H53.9081V46.2914C53.9081 39.0181 48.109 33.123 40.954 33.123Z" fill="#468EF1"/>
<path d="M12.954 27.123C5.79909 27.123 0 33.0181 0 40.2914V46.1441H25.9081V40.2914C25.9081 33.0181 20.109 27.123 12.954 27.123Z" fill="#468EF1"/>
<path d="M12.8264 26.0349C17.1488 26.0349 20.6528 22.4729 20.6528 18.079C20.6528 13.685 17.1488 10.123 12.8264 10.123C8.504 10.123 5 13.685 5 18.079C5 22.4729 8.504 26.0349 12.8264 26.0349Z" fill="#12b7e0"/>
<path d="M68.954 27.123C61.7991 27.123 56 33.0181 56 40.2914V46.1441H81.9081V40.2914C81.9081 33.0181 76.109 27.123 68.954 27.123Z" fill="#468EF1"/>
<path d="M68.8264 26.0349C73.1488 26.0349 76.6528 22.4729 76.6528 18.079C76.6528 13.685 73.1488 10.123 68.8264 10.123C64.504 10.123 61 13.685 61 18.079C61 22.4729 64.504 26.0349 68.8264 26.0349Z" fill="#12b7e0"/>
<path d="M41.1991 29.0349C45.7273 29.0349 49.3982 25.4729 49.3982 21.079C49.3982 16.685 45.7273 13.123 41.1991 13.123C36.6709 13.123 33 16.685 33 21.079C33 25.4729 36.6709 29.0349 41.1991 29.0349Z" fill="#12b7e0"/>
</svg>
