<svg width="82" height="59" viewBox="0 0 82 59" fill="none" xmlns="http://www.w3.org/2000/svg">
<path d="M54.954 17.6569C47.7991 17.6569 42 23.5519 42 30.8253V36.6779H67.9081V30.8253C67.9081 23.5519 62.109 17.6569 54.954 17.6569Z" fill="#D7E8FF"/>
<path d="M54.8264 16.5687C59.1488 16.5687 62.6528 13.0067 62.6528 8.61277C62.6528 4.21884 59.1488 0.65686 54.8264 0.65686C50.504 0.65686 47 4.21884 47 8.61277C47 13.0067 50.504 16.5687 54.8264 16.5687Z" fill="#D7E8FF"/>
<path d="M27.954 17.6569C20.7991 17.6569 15 23.5519 15 30.8253V36.6779H40.9081V30.8253C40.9081 23.5519 35.109 17.6569 27.954 17.6569Z" fill="#D7E8FF"/>
<path d="M27.8264 16.5687C32.1488 16.5687 35.6528 13.0067 35.6528 8.61277C35.6528 4.21884 32.1488 0.65686 27.8264 0.65686C23.504 0.65686 20 4.21884 20 8.61277C20 13.0067 23.504 16.5687 27.8264 16.5687Z" fill="#D7E8FF"/>
<path d="M40.954 33.6569C33.7991 33.6569 28 39.5519 28 46.8253V58.5305H53.9081V46.8253C53.9081 39.5519 48.109 33.6569 40.954 33.6569Z" fill="#468EF1"/>
<path d="M12.954 27.6569C5.79909 27.6569 0 33.5519 0 40.8253V46.6779H25.9081V40.8253C25.9081 33.5519 20.109 27.6569 12.954 27.6569Z" fill="#468EF1"/>
<path d="M12.8264 26.5687C17.1488 26.5687 20.6528 23.0067 20.6528 18.6128C20.6528 14.2188 17.1488 10.6569 12.8264 10.6569C8.504 10.6569 5 14.2188 5 18.6128C5 23.0067 8.504 26.5687 12.8264 26.5687Z" fill="url(#paint0_linear)"/>
<path d="M68.954 27.6569C61.7991 27.6569 56 33.5519 56 40.8253V46.6779H81.9081V40.8253C81.9081 33.5519 76.109 27.6569 68.954 27.6569Z" fill="#468EF1"/>
<path d="M68.8264 26.5687C73.1488 26.5687 76.6528 23.0067 76.6528 18.6128C76.6528 14.2188 73.1488 10.6569 68.8264 10.6569C64.504 10.6569 61 14.2188 61 18.6128C61 23.0067 64.504 26.5687 68.8264 26.5687Z" fill="url(#paint1_linear)"/>
<path d="M41.1991 29.5687C45.7273 29.5687 49.3982 26.0067 49.3982 21.6128C49.3982 17.2188 45.7273 13.6569 41.1991 13.6569C36.6709 13.6569 33 17.2188 33 21.6128C33 26.0067 36.6709 29.5687 41.1991 29.5687Z" fill="url(#paint2_linear)"/>
<defs>
<linearGradient id="paint0_linear" x1="19.0466" y1="24.5725" x2="5.84516" y2="14.8436" gradientUnits="userSpaceOnUse">
<stop stop-color="#FF6B4D"/>
<stop offset="1" stop-color="#F69866"/>
</linearGradient>
<linearGradient id="paint1_linear" x1="75.0466" y1="24.5725" x2="61.8452" y2="14.8436" gradientUnits="userSpaceOnUse">
<stop stop-color="#FF6B4D"/>
<stop offset="1" stop-color="#F69866"/>
</linearGradient>
<linearGradient id="paint2_linear" x1="47.7155" y1="27.5725" x2="34.3443" y2="17.2493" gradientUnits="userSpaceOnUse">
<stop stop-color="#FF6B4D"/>
<stop offset="1" stop-color="#F69866"/>
</linearGradient>
</defs>
</svg>
