<svg width="82" height="52" viewBox="0 0 82 52" fill="none" xmlns="http://www.w3.org/2000/svg">
<path d="M13.4225 11.5186C13.4225 12.1682 12.8909 12.6998 12.2412 12.6998H2.02695C1.37727 12.6998 0.845703 12.1682 0.845703 11.5186V1.3043C0.845703 0.654609 1.37727 0.123047 2.02695 0.123047H12.2412C12.8909 0.123047 13.4225 0.654609 13.4225 1.3043V11.5186Z" fill="url(#paint0_linear)"/>
<path d="M55.2729 5.35106H19.0062C18.0275 5.35106 17.2344 4.55797 17.2344 3.57919C17.2344 2.6004 18.0275 1.80731 19.0062 1.80731H55.2729C56.2517 1.80731 57.0448 2.6004 57.0448 3.57919C57.0448 4.55797 56.2515 5.35106 55.2729 5.35106Z" fill="url(#paint1_linear)"/>
<path d="M43.6946 11.0163H19.0062C18.0275 11.0163 17.2344 10.2232 17.2344 9.24441C17.2344 8.26562 18.0275 7.47253 19.0062 7.47253H43.6946C44.6734 7.47253 45.4665 8.26562 45.4665 9.24441C45.4665 10.2232 44.6734 11.0163 43.6946 11.0163Z" fill="url(#paint2_linear)"/>
<path d="M13.4225 27.4661C13.4225 28.1158 12.8909 28.6474 12.2412 28.6474H2.02695C1.37727 28.6474 0.845703 28.1158 0.845703 27.4661V17.2516C0.845703 16.6019 1.37727 16.0704 2.02695 16.0704H12.2412C12.8909 16.0704 13.4225 16.6019 13.4225 17.2516V27.4661Z" fill="url(#paint3_linear)"/>
<path d="M55.2729 21.2983H19.0062C18.0275 21.2983 17.2344 20.5052 17.2344 19.5265C17.2344 18.5477 18.0275 17.7546 19.0062 17.7546H55.2729C56.2517 17.7546 57.0448 18.5477 57.0448 19.5265C57.0448 20.5052 56.2515 21.2983 55.2729 21.2983Z" fill="url(#paint4_linear)"/>
<path d="M43.6946 26.9635H19.0062C18.0275 26.9635 17.2344 26.1704 17.2344 25.1916C17.2344 24.2128 18.0275 23.4197 19.0062 23.4197H43.6946C44.6734 23.4197 45.4665 24.2128 45.4665 25.1916C45.4665 26.1704 44.6734 26.9635 43.6946 26.9635Z" fill="url(#paint5_linear)"/>
<path d="M13.4225 43.4135C13.4225 44.0631 12.8909 44.5947 12.2412 44.5947H2.02695C1.37727 44.5947 0.845703 44.0631 0.845703 43.4135V33.1992C0.845703 32.5495 1.37727 32.0179 2.02695 32.0179H12.2412C12.8909 32.0179 13.4225 32.5495 13.4225 33.1992V43.4135Z" fill="url(#paint6_linear)"/>
<path d="M55.2739 37.2457H19.0072C18.0284 37.2457 17.2354 36.4526 17.2354 35.4738C17.2354 34.495 18.0284 33.7019 19.0072 33.7019H55.2739C56.2527 33.7019 57.0458 34.495 57.0458 35.4738C57.0458 36.4523 56.2525 37.2457 55.2739 37.2457Z" fill="url(#paint7_linear)"/>
<path d="M43.6946 42.9109H19.0062C18.0275 42.9109 17.2344 42.1178 17.2344 41.139C17.2344 40.1605 18.0275 39.3671 19.0062 39.3671H43.6946C44.6734 39.3671 45.4665 40.1605 45.4665 41.139C45.4665 42.1178 44.6734 42.9109 43.6946 42.9109Z" fill="url(#paint8_linear)"/>
<path d="M80.8023 50.9261C79.3944 52.3339 77.112 52.3339 75.7042 50.9261L60.7881 36.0106L65.8868 30.9119L80.8028 45.8286C82.2101 47.2359 82.2101 49.5183 80.8023 50.9261Z" fill="#468EF1"/>
<path d="M70.7372 24.9922C70.7372 33.7565 63.6324 40.8613 54.8681 40.8613C46.1038 40.8613 38.999 33.7565 38.999 24.9922C38.999 16.2279 46.1038 9.12311 54.8681 9.12311C63.6324 9.12311 70.7372 16.2279 70.7372 24.9922Z" fill="#468EF1"/>
<path d="M66.0888 24.9922C66.0888 31.189 61.0645 36.2133 54.8676 36.2133C48.6702 36.2133 43.6465 31.189 43.6465 24.9922C43.6465 18.7947 48.6702 13.771 54.8676 13.771C61.0645 13.771 66.0888 18.7947 66.0888 24.9922Z" fill="white"/>
<defs>
<linearGradient id="paint0_linear" x1="3.20677" y1="1.49506" x2="12.942" y2="9.35103" gradientUnits="userSpaceOnUse">
<stop stop-color="#A3EDD0"/>
<stop offset="1" stop-color="#42DB9B"/>
</linearGradient>
<linearGradient id="paint1_linear" x1="24.7081" y1="2.1939" x2="25.3198" y2="7.73929" gradientUnits="userSpaceOnUse">
<stop stop-color="#A3EDD0"/>
<stop offset="1" stop-color="#42DB9B"/>
</linearGradient>
<linearGradient id="paint2_linear" x1="22.5344" y1="7.85912" x2="23.3869" y2="13.3394" gradientUnits="userSpaceOnUse">
<stop stop-color="#A3EDD0"/>
<stop offset="1" stop-color="#42DB9B"/>
</linearGradient>
<linearGradient id="paint3_linear" x1="3.20677" y1="17.4424" x2="12.9422" y2="25.2983" gradientUnits="userSpaceOnUse">
<stop stop-color="#A3EDD0"/>
<stop offset="1" stop-color="#42DB9B"/>
</linearGradient>
<linearGradient id="paint4_linear" x1="24.7081" y1="18.1412" x2="25.3198" y2="23.6866" gradientUnits="userSpaceOnUse">
<stop stop-color="#A3EDD0"/>
<stop offset="1" stop-color="#42DB9B"/>
</linearGradient>
<linearGradient id="paint5_linear" x1="22.5344" y1="23.8063" x2="23.3869" y2="29.2866" gradientUnits="userSpaceOnUse">
<stop stop-color="#A3EDD0"/>
<stop offset="1" stop-color="#42DB9B"/>
</linearGradient>
<linearGradient id="paint6_linear" x1="3.20677" y1="33.39" x2="12.942" y2="41.2459" gradientUnits="userSpaceOnUse">
<stop stop-color="#A3EDD0"/>
<stop offset="1" stop-color="#42DB9B"/>
</linearGradient>
<linearGradient id="paint7_linear" x1="24.7091" y1="34.0885" x2="25.3208" y2="39.6339" gradientUnits="userSpaceOnUse">
<stop stop-color="#A3EDD0"/>
<stop offset="1" stop-color="#42DB9B"/>
</linearGradient>
<linearGradient id="paint8_linear" x1="22.5344" y1="39.7537" x2="23.3869" y2="45.234" gradientUnits="userSpaceOnUse">
<stop stop-color="#A3EDD0"/>
<stop offset="1" stop-color="#42DB9B"/>
</linearGradient>
</defs>
</svg>
