<svg width="62" height="67" viewBox="0 0 62 67" fill="none" xmlns="http://www.w3.org/2000/svg">
<path d="M53.8288 31.1304C53.8289 31.1304 53.8289 31.1304 53.8289 31.1303C53.8025 31.0933 51.3051 27.4264 48.3715 23.8131C42.8293 16.9863 40.5527 16.1958 39.3225 16.1958H35.3129C35.2508 16.1958 35.1894 16.1884 35.1367 16.1557L29.2777 12.5246C28.8056 12.2319 28.5183 11.7159 28.5183 11.1604C28.5183 10.4156 29.0468 9.79208 29.7055 9.4446C31.2976 8.60478 32.3867 6.93586 32.3867 5.01388C32.3867 2.24921 30.1355 0 27.3683 0C24.6011 0 22.3498 2.24921 22.3498 5.01388C22.3498 5.64735 22.8658 6.16284 23.4999 6.16284C24.1339 6.16284 24.6499 5.64735 24.6499 5.01388C24.6499 3.51616 25.8692 2.29793 27.3683 2.29793C28.8674 2.29793 30.0867 3.51616 30.0867 5.01388C30.0867 6.5116 28.8674 7.72984 27.3683 7.72984C26.7342 7.72984 26.2183 8.24533 26.2183 8.8788C26.2183 10.8544 25.1965 12.6895 23.5172 13.73L21.7954 14.7969C20.317 15.713 18.6124 16.1983 16.8732 16.1983H14.79C10.96 16.1983 2.63798 27.619 0.178935 31.1197C-0.118832 31.5429 -0.0366884 32.1225 0.363758 32.4482L9.61508 39.9834C9.79733 40.1322 10.0181 40.2065 10.2363 40.2065C10.5238 40.2065 10.8062 40.0834 11.0013 39.8449C11.3169 39.4582 11.9434 39.6814 11.9434 40.1806V57.0152C11.9434 57.5589 12.3849 58 12.9291 58H41.2968C41.841 58 42.2826 57.5589 42.2826 57.0152V40.0986C42.2826 39.7178 42.7604 39.5474 43.0013 39.8423C43.1964 40.0808 43.4788 40.2039 43.7663 40.2039C43.9845 40.2039 44.2053 40.1321 44.3875 39.9808L53.6389 32.4436C54.0342 32.1256 54.1163 31.5537 53.8289 31.1306C53.8288 31.1305 53.8288 31.1305 53.8288 31.1304ZM24.1434 16.0451C26.1189 14.821 28.6173 14.8211 30.5926 16.0455L30.7022 16.1134C32.8623 17.4524 34.1687 20.3797 31.9851 21.6801C31.2644 22.1093 30.4209 22.3563 29.5192 22.3563H25.6842C24.5439 22.3563 23.4954 21.9575 22.6723 21.2928C20.8648 19.8331 22.1685 17.2689 24.1434 16.0451Z" fill="url(#paint0_linear)"/>
<path d="M60.2256 65.2254C59.0056 66.4454 57.0277 66.4454 55.8077 65.2254L42.8818 52.3L47.3002 47.8816L60.2261 60.808C61.4456 62.0275 61.4456 64.0054 60.2256 65.2254Z" fill="#468EF1"/>
<path d="M51.5035 42.7517C51.5035 50.3467 45.3467 56.5035 37.7517 56.5035C30.1568 56.5035 24 50.3467 24 42.7517C24 35.1568 30.1568 29 37.7517 29C45.3467 29 51.5035 35.1568 51.5035 42.7517Z" fill="#468EF1"/>
<path d="M47.4753 42.7517C47.4753 48.1217 43.1213 52.4757 37.7513 52.4757C32.3808 52.4757 28.0273 48.1217 28.0273 42.7517C28.0273 37.3812 32.3808 33.0277 37.7513 33.0277C43.1213 33.0277 47.4753 37.3812 47.4753 42.7517Z" fill="white"/>
<defs>
<linearGradient id="paint0_linear" x1="48.459" y1="50.7236" x2="1.18103" y2="17.7483" gradientUnits="userSpaceOnUse">
<stop stop-color="#FF6B4D"/>
<stop offset="1" stop-color="#F69866"/>
</linearGradient>
</defs>
</svg>
