<svg width="72" height="67" viewBox="0 0 72 67" fill="none" xmlns="http://www.w3.org/2000/svg">
<path fill-rule="evenodd" clip-rule="evenodd" d="M68.8678 47.2514C68.4865 48.22 67.7989 49.0373 66.9099 49.5788C68.3119 50.1602 69.5071 51.149 70.3407 52.4173C71.1743 53.6855 71.608 55.1748 71.5857 56.6924V66.9963H64.4269V66.9968H57.2684V56.6929C57.2461 55.1753 57.6798 53.686 58.5134 52.4178C58.5396 52.378 58.5661 52.3384 58.593 52.2992C58.6155 52.2663 58.6383 52.2336 58.6613 52.2011C59.4855 51.0368 60.6228 50.1271 61.9438 49.5791C61.2462 49.1561 60.6692 48.5606 60.2682 47.85C59.8672 47.1393 59.6559 46.3374 59.6546 45.5214C59.6546 45.4874 59.6549 45.4535 59.6556 45.4196C59.6627 45.0143 59.7215 44.6091 59.8324 44.2139C60.1136 43.2116 60.7148 42.3288 61.5443 41.7C62.3739 41.0712 63.3863 40.7308 64.4272 40.7308C65.4682 40.7308 66.4806 41.0712 67.3101 41.7C68.1397 42.3288 68.7409 43.2116 69.0221 44.2139C69.3033 45.2161 69.2491 46.2828 68.8678 47.2514Z" fill="#468EF1"/>
<path d="M60.9753 20.4328C60.0305 19.5686 58.7964 19.0894 57.516 19.0894C56.2355 19.0894 55.0015 19.5686 54.0566 20.4328C53.1118 19.5686 51.8778 19.0894 50.5973 19.0894C49.3169 19.0894 48.0828 19.5686 47.138 20.4328C46.6866 20.844 46.326 21.3448 46.0793 21.9033C45.8325 22.4618 45.7051 23.0657 45.7051 23.6762C45.7051 24.2868 45.8325 24.8906 46.0793 25.4491C46.326 26.0076 46.6866 26.5085 47.138 26.9196L54.0566 33.4063L60.9753 26.9195C61.4267 26.5084 61.7873 26.0076 62.034 25.4491C62.2807 24.8906 62.4082 24.2867 62.4082 23.6762C62.4082 23.0656 62.2807 22.4618 62.034 21.9033C61.7873 21.3448 61.4267 20.844 60.9753 20.4328Z" fill="url(#paint0_linear)"/>
<path d="M24.448 20.4328C23.5032 19.5686 22.2691 19.0894 20.9886 19.0894C19.7082 19.0894 18.4741 19.5686 17.5293 20.4328C16.5845 19.5686 15.3504 19.0894 14.07 19.0894C12.7895 19.0894 11.5554 19.5686 10.6106 20.4328C10.1592 20.844 9.79865 21.3448 9.55192 21.9033C9.30518 22.4618 9.17773 23.0657 9.17773 23.6762C9.17773 24.2868 9.30518 24.8906 9.55192 25.4491C9.79865 26.0076 10.1592 26.5085 10.6106 26.9196L17.5293 33.4063L24.448 26.9195C24.8994 26.5084 25.2599 26.0076 25.5067 25.4491C25.7534 24.8906 25.8808 24.2867 25.8808 23.6762C25.8808 23.0656 25.7534 22.4618 25.5067 21.9033C25.2599 21.3448 24.8994 20.844 24.448 20.4328Z" fill="url(#paint1_linear)"/>
<path d="M49.0001 2.32943C47.4746 0.836219 45.4249 0 43.2902 0C41.1555 0 39.1058 0.836219 37.5803 2.32943L35.7932 4.09765L34.0062 2.32943C32.4807 0.836219 30.431 0 28.2963 0C26.1616 0 24.1119 0.836219 22.5864 2.32943C21.8573 3.0431 21.2779 3.89519 20.8824 4.83571C20.4869 5.77623 20.2832 6.78625 20.2832 7.80654C20.2832 8.82684 20.4869 9.83686 20.8824 10.7774C21.2779 11.7179 21.8573 12.57 22.5864 13.2837L35.7932 26.2478L49.0001 13.2837C49.7292 12.57 50.3085 11.7179 50.7041 10.7774C51.0996 9.83686 51.3033 8.82684 51.3033 7.80654C51.3033 6.78625 51.0996 5.77623 50.7041 4.83571C50.3085 3.89519 49.7292 3.0431 49.0001 2.32943Z" fill="url(#paint2_linear)"/>
<path d="M28.1088 5.80275C28.9802 4.75366 30.1718 4.01965 31.5008 3.71347C30.5095 3.20842 29.385 3.02652 28.2852 3.1933C27.1853 3.36009 26.1652 3.86719 25.3683 4.64339C24.8915 5.11001 24.5127 5.66714 24.2541 6.2821C23.9955 6.89706 23.8623 7.55746 23.8623 8.22459C23.8623 8.89171 23.9955 9.55212 24.2541 10.1671C24.5127 10.782 24.8915 11.3392 25.3683 11.8058L26.4844 12.9101C26.1903 11.6803 26.1839 10.3992 26.4657 9.16651C26.7474 7.93381 27.3097 6.78272 28.1088 5.80275Z" fill="white"/>
<path d="M13.0242 21.5844C13.6184 21.0485 14.3539 20.6944 15.1434 20.5642C14.5174 20.3155 13.8392 20.2267 13.1702 20.306C12.5012 20.3853 11.8626 20.6301 11.312 21.0183C11.0228 21.2092 10.7855 21.4689 10.6213 21.774C10.457 22.0792 10.3711 22.4203 10.3711 22.7669C10.3711 23.1134 10.457 23.4545 10.6213 23.7597C10.7855 24.0649 11.0228 24.3245 11.312 24.5155L12.0093 25.0547C11.8321 24.4395 11.8334 23.7867 12.0131 23.1722C12.1928 22.5578 12.5435 22.0071 13.0242 21.5844Z" fill="white"/>
<path d="M49.5515 21.5844C50.1457 21.0485 50.8813 20.6944 51.6708 20.5642C51.0447 20.3155 50.3665 20.2267 49.6975 20.306C49.0286 20.3853 48.3899 20.6301 47.8393 21.0183C47.5501 21.2092 47.3128 21.4689 47.1486 21.774C46.9844 22.0792 46.8984 22.4203 46.8984 22.7669C46.8984 23.1134 46.9844 23.4545 47.1486 23.7597C47.3128 24.0649 47.5501 24.3245 47.8393 24.5155L48.5366 25.0547C48.3594 24.4395 48.3608 23.7867 48.5404 23.1722C48.7201 22.5578 49.0708 22.0071 49.5515 21.5844Z" fill="white"/>
<path fill-rule="evenodd" clip-rule="evenodd" d="M54.5515 47.2514C54.1702 48.22 53.4827 49.0373 52.5937 49.5788C53.9956 50.1602 55.1908 51.149 56.0244 52.4173C56.858 53.6855 57.2918 55.1748 57.2694 56.6924V66.9963H50.1105V66.9968H42.952V56.6929C42.9297 55.1753 43.3634 53.686 44.197 52.4178C44.4446 52.0411 44.7241 51.689 45.0315 51.365C45.0552 51.3399 45.0791 51.3151 45.1032 51.2904C45.8166 50.5584 46.6742 49.9746 47.6275 49.5792C46.9298 49.1561 46.3528 48.5606 45.9518 47.85C45.5508 47.1393 45.3395 46.3374 45.3382 45.5214C45.3382 45.4758 45.3388 45.4303 45.3401 45.3849C45.3499 44.9912 45.4084 44.5978 45.5161 44.2139C45.7973 43.2116 46.3985 42.3288 47.2281 41.7C48.0576 41.0712 49.07 40.7308 50.111 40.7308C51.1519 40.7308 52.1643 41.0712 52.9938 41.7C53.8234 42.3288 54.4246 43.2116 54.7058 44.2139C54.987 45.2161 54.9329 46.2828 54.5515 47.2514Z" fill="#D7E8FF"/>
<path fill-rule="evenodd" clip-rule="evenodd" d="M40.2342 47.2514C39.8529 48.22 39.1653 49.0373 38.2763 49.5788C39.6783 50.1602 40.8734 51.149 41.7071 52.4173C42.5407 53.6855 42.9744 55.1748 42.9521 56.6924V66.9963H35.7931V66.9968H28.6346V56.6929C28.6123 55.1753 29.046 53.686 29.8796 52.4178C30.1703 51.9755 30.505 51.5672 30.8771 51.1984C31.5719 50.5094 32.3971 49.9579 33.3101 49.5792C32.6124 49.1561 32.0354 48.5606 31.6344 47.85C31.2334 47.1393 31.0221 46.3374 31.0208 45.5214C31.0208 45.4735 31.0215 45.4257 31.0229 45.378C31.0332 44.9866 31.0916 44.5956 31.1987 44.2139C31.48 43.2116 32.0812 42.3288 32.9107 41.7C33.7403 41.0712 34.7527 40.7308 35.7936 40.7308C36.8345 40.7308 37.8469 41.0712 38.6765 41.7C39.506 42.3288 40.1072 43.2116 40.3885 44.2139C40.6697 45.2161 40.6155 46.2828 40.2342 47.2514Z" fill="#468EF1"/>
<path fill-rule="evenodd" clip-rule="evenodd" d="M25.9163 47.2514C25.535 48.22 24.8474 49.0373 23.9584 49.5788C25.3604 50.1602 26.5555 51.149 27.3892 52.4173C28.2228 53.6855 28.6565 55.1748 28.6342 56.6924V66.9963H21.4761V66.9968H14.3176V66.9963H14.3172V56.6924C14.2949 55.1748 14.7286 53.6855 15.5623 52.4173C16.3958 51.1491 17.5909 50.1603 18.9927 49.5789C18.2952 49.1559 17.7183 48.5605 17.3174 47.85C16.9435 47.1872 16.7345 46.4451 16.7069 45.6861C16.688 45.1925 16.7456 44.6957 16.8808 44.2139C17.1621 43.2116 17.7633 42.3288 18.5928 41.7C19.4224 41.0712 20.4348 40.7308 21.4757 40.7308C22.5167 40.7308 23.529 41.0712 24.3586 41.7C25.1881 42.3288 25.7893 43.2116 26.0706 44.2139C26.3518 45.2161 26.2976 46.2828 25.9163 47.2514Z" fill="#D7E8FF"/>
<path fill-rule="evenodd" clip-rule="evenodd" d="M11.5999 47.2514C11.2186 48.22 10.531 49.0373 9.64202 49.5788C11.044 50.1602 12.2391 51.149 13.0728 52.4173C13.9064 53.6855 14.3401 55.1748 14.3178 56.6924V66.9963H7.15961V66.9968H0.00112403V66.9963H0.00082094V56.6924C-0.0215105 55.1748 0.412216 53.6855 1.24585 52.4173C2.07942 51.1491 3.27446 50.1603 4.67627 49.579C3.97876 49.1559 3.40183 48.5605 3.00095 47.85C2.6206 47.1759 2.41089 46.4197 2.38916 45.6473C2.37463 45.1665 2.43277 44.6831 2.56444 44.2139C2.84566 43.2116 3.44687 42.3288 4.27641 41.7C5.10596 41.0712 6.11836 40.7308 7.1593 40.7308C8.20025 40.7308 9.21264 41.0712 10.0422 41.7C10.8717 42.3288 11.4729 43.2116 11.7542 44.2139C12.0354 45.2161 11.9812 46.2828 11.5999 47.2514Z" fill="#468EF1"/>
<defs>
<linearGradient id="paint0_linear" x1="60.6942" y1="31.6102" x2="48.3702" y2="20.839" gradientUnits="userSpaceOnUse">
<stop stop-color="#FFC41B"/>
<stop offset="1" stop-color="#F69866"/>
</linearGradient>
<linearGradient id="paint1_linear" x1="24.1669" y1="31.6102" x2="11.8429" y2="20.839" gradientUnits="userSpaceOnUse">
<stop stop-color="#FFC41B"/>
<stop offset="1" stop-color="#F69866"/>
</linearGradient>
<linearGradient id="paint2_linear" x1="48.1203" y1="22.9549" x2="25.489" y2="2.91826" gradientUnits="userSpaceOnUse">
<stop stop-color="#FFC41B"/>
<stop offset="1" stop-color="#F69866"/>
</linearGradient>
</defs>
</svg>
