<svg width="72" height="68" viewBox="0 0 72 68" fill="none" xmlns="http://www.w3.org/2000/svg">
<path fill-rule="evenodd" clip-rule="evenodd" d="M68.8678 47.3744C68.4865 48.343 67.7989 49.1603 66.9099 49.7019C68.3119 50.2832 69.5071 51.2721 70.3407 52.5403C71.1743 53.8086 71.608 55.2979 71.5857 56.8154V67.1194H64.4269V67.1199H57.2684V56.8159C57.2461 55.2984 57.6798 53.8091 58.5134 52.5408C58.5396 52.501 58.5661 52.4615 58.593 52.4222C58.6155 52.3893 58.6383 52.3567 58.6613 52.3242C59.4855 51.1598 60.6228 50.2501 61.9438 49.7022C61.2462 49.2791 60.6692 48.6837 60.2682 47.9731C59.8672 47.2624 59.6559 46.4604 59.6546 45.6444C59.6546 45.6105 59.6549 45.5765 59.6556 45.5426C59.6627 45.1373 59.7215 44.7321 59.8324 44.3369C60.1136 43.3347 60.7148 42.4519 61.5443 41.823C62.3739 41.1942 63.3863 40.8539 64.4272 40.8539C65.4682 40.8539 66.4806 41.1942 67.3101 41.823C68.1397 42.4519 68.7409 43.3347 69.0221 44.3369C69.3033 45.3391 69.2491 46.4058 68.8678 47.3744Z" fill="#468EF1"/>
<path d="M60.9753 20.5559C60.0305 19.6917 58.7964 19.2124 57.516 19.2124C56.2355 19.2124 55.0015 19.6917 54.0566 20.5559C53.1118 19.6917 51.8778 19.2124 50.5973 19.2124C49.3169 19.2124 48.0828 19.6917 47.138 20.5559C46.6866 20.967 46.326 21.4679 46.0793 22.0264C45.8325 22.5849 45.7051 23.1887 45.7051 23.7993C45.7051 24.4098 45.8325 25.0137 46.0793 25.5722C46.326 26.1307 46.6866 26.6315 47.138 27.0427L54.0566 33.5294L60.9753 27.0426C61.4267 26.6314 61.7873 26.1306 62.034 25.5721C62.2807 25.0136 62.4082 24.4098 62.4082 23.7992C62.4082 23.1887 62.2807 22.5848 62.034 22.0264C61.7873 21.4679 61.4267 20.967 60.9753 20.5559Z" fill="#1257e0"/>
<path d="M24.448 20.5559C23.5032 19.6917 22.2691 19.2124 20.9886 19.2124C19.7082 19.2124 18.4741 19.6917 17.5293 20.5559C16.5845 19.6917 15.3504 19.2124 14.07 19.2124C12.7895 19.2124 11.5554 19.6917 10.6106 20.5559C10.1592 20.967 9.79865 21.4679 9.55192 22.0264C9.30518 22.5849 9.17773 23.1887 9.17773 23.7993C9.17773 24.4098 9.30518 25.0137 9.55192 25.5722C9.79865 26.1307 10.1592 26.6315 10.6106 27.0427L17.5293 33.5294L24.448 27.0426C24.8994 26.6314 25.2599 26.1306 25.5067 25.5721C25.7534 25.0136 25.8808 24.4098 25.8808 23.7992C25.8808 23.1887 25.7534 22.5848 25.5067 22.0264C25.2599 21.4679 24.8994 20.967 24.448 20.5559Z" fill="#1257e0"/>
<path d="M49.001 2.45248C47.4756 0.959266 45.4258 0.123047 43.2912 0.123047C41.1565 0.123047 39.1068 0.959266 37.5813 2.45248L35.7942 4.2207L34.0072 2.45248C32.4817 0.959266 30.4319 0.123047 28.2973 0.123047C26.1626 0.123047 24.1129 0.959266 22.5874 2.45248C21.8582 3.16615 21.2789 4.01823 20.8834 4.95875C20.4879 5.89927 20.2842 6.9093 20.2842 7.92959C20.2842 8.94989 20.4879 9.95991 20.8834 10.9004C21.2789 11.8409 21.8582 12.693 22.5874 13.4067L35.7942 26.3708L49.001 13.4067C49.7302 12.693 50.3095 11.8409 50.705 10.9004C51.1005 9.95991 51.3043 8.94989 51.3043 7.92959C51.3043 6.9093 51.1005 5.89927 50.705 4.95875C50.3095 4.01823 49.7302 3.16615 49.001 2.45248Z" fill="#1257e0"/>
<path d="M28.1088 5.9258C28.9802 4.87671 30.1718 4.1427 31.5008 3.83652C30.5095 3.33147 29.385 3.14957 28.2852 3.31635C27.1853 3.48314 26.1652 3.99023 25.3683 4.76643C24.8915 5.23306 24.5127 5.79018 24.2541 6.40514C23.9955 7.0201 23.8623 7.68051 23.8623 8.34764C23.8623 9.01476 23.9955 9.67517 24.2541 10.2901C24.5127 10.9051 24.8915 11.4622 25.3683 11.9288L26.4844 13.0332C26.1903 11.8033 26.1839 10.5223 26.4657 9.28956C26.7474 8.05686 27.3097 6.90576 28.1088 5.9258Z" fill="white"/>
<path d="M13.0242 21.7074C13.6184 21.1715 14.3539 20.8175 15.1434 20.6873C14.5174 20.4385 13.8392 20.3498 13.1702 20.429C12.5012 20.5083 11.8626 20.7531 11.312 21.1413C11.0228 21.3323 10.7855 21.5919 10.6213 21.8971C10.457 22.2023 10.3711 22.5434 10.3711 22.8899C10.3711 23.2365 10.457 23.5776 10.6213 23.8828C10.7855 24.1879 11.0228 24.4476 11.312 24.6385L12.0093 25.1777C11.8321 24.5626 11.8334 23.9097 12.0131 23.2953C12.1928 22.6808 12.5435 22.1302 13.0242 21.7074Z" fill="white"/>
<path d="M49.5515 21.7074C50.1457 21.1715 50.8813 20.8175 51.6708 20.6873C51.0447 20.4385 50.3665 20.3498 49.6975 20.429C49.0286 20.5083 48.3899 20.7531 47.8393 21.1413C47.5501 21.3323 47.3128 21.5919 47.1486 21.8971C46.9844 22.2023 46.8984 22.5434 46.8984 22.8899C46.8984 23.2365 46.9844 23.5776 47.1486 23.8828C47.3128 24.1879 47.5501 24.4476 47.8393 24.6385L48.5366 25.1777C48.3594 24.5626 48.3608 23.9097 48.5404 23.2953C48.7201 22.6808 49.0708 22.1302 49.5515 21.7074Z" fill="white"/>
<path fill-rule="evenodd" clip-rule="evenodd" d="M54.5515 47.3744C54.1702 48.343 53.4827 49.1603 52.5937 49.7019C53.9956 50.2832 55.1908 51.2721 56.0244 52.5403C56.858 53.8086 57.2918 55.2979 57.2694 56.8154V67.1194H50.1105V67.1199H42.952V56.8159C42.9297 55.2984 43.3634 53.8091 44.197 52.5408C44.4446 52.1641 44.7241 51.8121 45.0315 51.488C45.0552 51.463 45.0791 51.4381 45.1032 51.4134C45.8166 50.6815 46.6742 50.0976 47.6275 49.7022C46.9298 49.2791 46.3528 48.6837 45.9518 47.9731C45.5508 47.2624 45.3395 46.4604 45.3382 45.6444C45.3382 45.5989 45.3388 45.5534 45.3401 45.508C45.3499 45.1142 45.4084 44.7208 45.5161 44.3369C45.7973 43.3347 46.3985 42.4519 47.2281 41.823C48.0576 41.1942 49.07 40.8539 50.111 40.8539C51.1519 40.8539 52.1643 41.1942 52.9938 41.823C53.8234 42.4519 54.4246 43.3347 54.7058 44.3369C54.987 45.3391 54.9329 46.4058 54.5515 47.3744Z" fill="#D7E8FF"/>
<path fill-rule="evenodd" clip-rule="evenodd" d="M40.2353 47.3744C39.854 48.343 39.1665 49.1603 38.2775 49.7019C39.6794 50.2832 40.8746 51.2721 41.7082 52.5403C42.5418 53.8086 42.9756 55.2979 42.9532 56.8154V67.1194H35.7931V67.1198H28.6346V56.8159C28.6123 55.2984 29.046 53.8091 29.8796 52.5408C30.7133 51.2725 31.9084 50.2837 33.3104 49.7024C32.6126 49.2793 32.0354 48.6838 31.6344 47.9731C31.2334 47.2624 31.0221 46.4604 31.0208 45.6444C31.0208 45.4953 31.0277 45.347 31.0415 45.1998C31.0675 44.9095 31.1203 44.6206 31.1999 44.3369C31.4811 43.3347 32.0823 42.4519 32.9119 41.823C33.7414 41.1942 34.7538 40.8539 35.7948 40.8539C36.8357 40.8539 37.8481 41.1942 38.6776 41.823C39.5072 42.4519 40.1084 43.3347 40.3896 44.3369C40.6708 45.3391 40.6167 46.4058 40.2353 47.3744Z" fill="#468EF1"/>
<path fill-rule="evenodd" clip-rule="evenodd" d="M25.9169 47.3744C25.5356 48.343 24.8481 49.1603 23.9591 49.7019C25.361 50.2832 26.5562 51.2721 27.3898 52.5403C28.2234 53.8086 28.6572 55.2979 28.6348 56.8154V67.1194H21.4757V67.1199H14.3172V56.816C14.2949 55.2984 14.7286 53.8091 15.5623 52.5408C15.9662 51.9263 16.455 51.3774 17.0111 50.9086C17.0291 50.8935 17.0471 50.8785 17.0651 50.8635C17.6431 50.3853 18.2921 49.9929 18.9927 49.7023C18.2951 49.2792 17.718 48.6837 17.3171 47.9731C16.9161 47.2624 16.7047 46.4605 16.7034 45.6444C16.7034 45.5862 16.7045 45.528 16.7066 45.47C16.7191 45.0889 16.7772 44.7085 16.8815 44.3369C17.1627 43.3347 17.7639 42.4519 18.5935 41.823C19.423 41.1942 20.4354 40.8539 21.4763 40.8539C22.5173 40.8539 23.5297 41.1942 24.3592 41.823C25.1888 42.4519 25.79 43.3347 26.0712 44.3369C26.3524 45.3391 26.2982 46.4058 25.9169 47.3744Z" fill="#D7E8FF"/>
<path fill-rule="evenodd" clip-rule="evenodd" d="M11.5999 47.3744C11.2186 48.343 10.531 49.1603 9.64206 49.7019C11.044 50.2832 12.2392 51.2721 13.0728 52.5403C13.9064 53.8086 14.3402 55.2979 14.3178 56.8154V67.1194H7.15964V67.1199H0.00116102V67.1194H0.000857932V56.8154C-0.0214735 55.2979 0.412253 53.8086 1.24589 52.5403C2.07946 51.2722 3.27449 50.2834 4.67631 49.702C3.9788 49.279 3.40186 48.6836 3.00099 47.9731C2.62064 47.299 2.41093 46.5428 2.3892 45.7703C2.37466 45.2895 2.43281 44.8061 2.56448 44.3369C2.8457 43.3347 3.4469 42.4519 4.27645 41.823C5.106 41.1942 6.1184 40.8539 7.15934 40.8539C8.20028 40.8539 9.21268 41.1942 10.0422 41.823C10.8718 42.4519 11.473 43.3347 11.7542 44.3369C12.0354 45.3391 11.9812 46.4058 11.5999 47.3744Z" fill="#468EF1"/>
</svg>
