<svg width="141" height="20" viewBox="0 0 141 20" fill="none" xmlns="http://www.w3.org/2000/svg">
<path d="M15.7316 11.0197C16.4031 13.047 17.1184 15.1496 17.7792 17.2705C17.8668 17.5506 17.7632 18.1413 17.6031 18.2046H17.602C17.2166 18.367 16.7853 18.3724 16.3956 18.2198C14.6383 17.2748 12.9014 16.2852 11.1995 15.2398C10.3881 14.7417 9.96965 14.9161 9.27251 15.5832C7.65938 17.1254 5.86357 18.4717 4.11278 19.8579C3.91527 20.0148 3.37827 20.053 3.2619 19.9156L3.26083 19.9145C3.0708 19.6333 3.0014 19.2856 3.06866 18.9499C3.50103 16.9237 3.94409 14.8976 4.46509 12.8931C4.669 12.1062 4.38288 11.8674 3.73591 11.5666C2.68112 11.0489 1.66048 10.4603 0.679265 9.80745C0.380323 9.6178 -0.0595068 9.10335 0.00668774 8.97472C0.203126 8.57144 0.539414 8.25754 0.949372 8.09185C1.89632 7.82045 2.89987 7.49892 3.85652 7.56541C6.4337 7.74198 7.32831 5.94574 8.24443 4.04492C8.80173 2.88741 9.43695 1.76801 10.0722 0.65307C10.5739 -0.228712 11.2401 -0.234153 11.8305 0.738087C12.6408 2.07108 13.3657 3.46187 14.0671 4.85932C15.1048 6.92585 15.5297 7.17982 17.7406 6.8343L17.7417 6.83321C18.4324 6.6828 19.1317 6.57598 19.8353 6.51386C20.2196 6.50296 20.6114 6.77218 21 6.91605C20.8452 7.29972 20.7972 7.85015 20.5164 8.03978C19.0495 9.02508 17.524 9.91777 15.7314 11.0198L15.7316 11.0197Z" fill="url(#paint0_linear)"/>
<path d="M45.7316 11.0197C46.4031 13.047 47.1184 15.1496 47.7792 17.2705C47.8668 17.5506 47.7632 18.1413 47.6031 18.2046H47.602C47.2166 18.367 46.7853 18.3724 46.3956 18.2198C44.6383 17.2748 42.9014 16.2852 41.1995 15.2398C40.3881 14.7417 39.9697 14.9161 39.2725 15.5832C37.6594 17.1254 35.8636 18.4717 34.1128 19.8579C33.9153 20.0148 33.3783 20.053 33.2619 19.9156L33.2608 19.9145C33.0708 19.6333 33.0014 19.2856 33.0687 18.9499C33.501 16.9237 33.9441 14.8976 34.4651 12.8931C34.669 12.1062 34.3829 11.8674 33.7359 11.5666C32.6811 11.0489 31.6605 10.4603 30.6793 9.80745C30.3803 9.6178 29.9405 9.10335 30.0067 8.97472C30.2031 8.57144 30.5394 8.25754 30.9494 8.09185C31.8963 7.82045 32.8999 7.49892 33.8565 7.56541C36.4337 7.74198 37.3283 5.94574 38.2444 4.04492C38.8017 2.88741 39.4369 1.76801 40.0722 0.65307C40.5739 -0.228712 41.2401 -0.234153 41.8305 0.738087C42.6408 2.07108 43.3657 3.46187 44.0671 4.85932C45.1048 6.92585 45.5297 7.17982 47.7406 6.8343L47.7417 6.83321C48.4324 6.6828 49.1317 6.57598 49.8353 6.51386C50.2196 6.50296 50.6114 6.77218 51 6.91605C50.8452 7.29972 50.7972 7.85015 50.5164 8.03978C49.0495 9.02508 47.524 9.91777 45.7314 11.0198L45.7316 11.0197Z" fill="url(#paint1_linear)"/>
<path d="M75.7316 11.0197C76.4031 13.047 77.1184 15.1496 77.7792 17.2705C77.8668 17.5506 77.7632 18.1413 77.6031 18.2046H77.602C77.2166 18.367 76.7853 18.3724 76.3956 18.2198C74.6383 17.2748 72.9014 16.2852 71.1995 15.2398C70.3881 14.7417 69.9697 14.9161 69.2725 15.5832C67.6594 17.1254 65.8636 18.4717 64.1128 19.8579C63.9153 20.0148 63.3783 20.053 63.2619 19.9156L63.2608 19.9145C63.0708 19.6333 63.0014 19.2856 63.0687 18.9499C63.501 16.9237 63.9441 14.8976 64.4651 12.8931C64.669 12.1062 64.3829 11.8674 63.7359 11.5666C62.6811 11.0489 61.6605 10.4603 60.6793 9.80745C60.3803 9.6178 59.9405 9.10335 60.0067 8.97472C60.2031 8.57144 60.5394 8.25754 60.9494 8.09185C61.8963 7.82045 62.8999 7.49892 63.8565 7.56541C66.4337 7.74198 67.3283 5.94574 68.2444 4.04492C68.8017 2.88741 69.4369 1.76801 70.0722 0.65307C70.5739 -0.228712 71.2401 -0.234153 71.8305 0.738087C72.6408 2.07108 73.3657 3.46187 74.0671 4.85932C75.1048 6.92585 75.5297 7.17982 77.7406 6.8343L77.7417 6.83321C78.4324 6.6828 79.1317 6.57598 79.8353 6.51386C80.2196 6.50296 80.6114 6.77218 81 6.91605C80.8452 7.29972 80.7972 7.85015 80.5164 8.03978C79.0495 9.02508 77.524 9.91777 75.7314 11.0198L75.7316 11.0197Z" fill="url(#paint2_linear)"/>
<path d="M105.732 11.0197C106.403 13.047 107.118 15.1496 107.779 17.2705C107.867 17.5506 107.763 18.1413 107.603 18.2046H107.602C107.217 18.367 106.785 18.3724 106.396 18.2198C104.638 17.2748 102.901 16.2852 101.2 15.2398C100.388 14.7417 99.9697 14.9161 99.2725 15.5832C97.6594 17.1254 95.8636 18.4717 94.1128 19.8579C93.9153 20.0148 93.3783 20.053 93.2619 19.9156L93.2608 19.9145C93.0708 19.6333 93.0014 19.2856 93.0687 18.9499C93.501 16.9237 93.9441 14.8976 94.4651 12.8931C94.669 12.1062 94.3829 11.8674 93.7359 11.5666C92.6811 11.0489 91.6605 10.4603 90.6793 9.80745C90.3803 9.6178 89.9405 9.10335 90.0067 8.97472C90.2031 8.57144 90.5394 8.25754 90.9494 8.09185C91.8963 7.82045 92.8999 7.49892 93.8565 7.56541C96.4337 7.74198 97.3283 5.94574 98.2444 4.04492C98.8017 2.88741 99.4369 1.76801 100.072 0.65307C100.574 -0.228712 101.24 -0.234153 101.83 0.738087C102.641 2.07108 103.366 3.46187 104.067 4.85932C105.105 6.92585 105.53 7.17982 107.741 6.8343L107.742 6.83321C108.432 6.6828 109.132 6.57598 109.835 6.51386C110.22 6.50296 110.611 6.77218 111 6.91605C110.845 7.29972 110.797 7.85015 110.516 8.03978C109.05 9.02508 107.524 9.91777 105.731 11.0198L105.732 11.0197Z" fill="url(#paint3_linear)"/>
<path d="M135.732 11.0197C136.403 13.047 137.118 15.1496 137.779 17.2705C137.867 17.5506 137.763 18.1413 137.603 18.2046H137.602C137.217 18.367 136.785 18.3724 136.396 18.2198C134.638 17.2748 132.901 16.2852 131.2 15.2398C130.388 14.7417 129.97 14.9161 129.273 15.5832C127.659 17.1254 125.864 18.4717 124.113 19.8579C123.915 20.0148 123.378 20.053 123.262 19.9156L123.261 19.9145C123.071 19.6333 123.001 19.2856 123.069 18.9499C123.501 16.9237 123.944 14.8976 124.465 12.8931C124.669 12.1062 124.383 11.8674 123.736 11.5666C122.681 11.0489 121.66 10.4603 120.679 9.80745C120.38 9.6178 119.94 9.10335 120.007 8.97472C120.203 8.57144 120.539 8.25754 120.949 8.09185C121.896 7.82045 122.9 7.49892 123.857 7.56541C126.434 7.74198 127.328 5.94574 128.244 4.04492C128.802 2.88741 129.437 1.76801 130.072 0.65307C130.574 -0.228712 131.24 -0.234153 131.83 0.738087C132.641 2.07108 133.366 3.46187 134.067 4.85932C135.105 6.92585 135.53 7.17982 137.741 6.8343L137.742 6.83321C138.432 6.6828 139.132 6.57598 139.835 6.51386C140.22 6.50296 140.611 6.77218 141 6.91605C140.845 7.29972 140.797 7.85015 140.516 8.03978C139.05 9.02508 137.524 9.91777 135.731 11.0198L135.732 11.0197Z" fill="url(#paint4_linear)"/>
<defs>
<linearGradient id="paint0_linear" x1="-0.0936009" y1="0.185773" x2="11.5825" y2="8.45084" gradientUnits="userSpaceOnUse">
<stop stop-color="#A3EDD0"/>
<stop offset="1" stop-color="#42DB9B"/>
</linearGradient>
<linearGradient id="paint1_linear" x1="29.9064" y1="0.185773" x2="41.5825" y2="8.45084" gradientUnits="userSpaceOnUse">
<stop stop-color="#A3EDD0"/>
<stop offset="1" stop-color="#42DB9B"/>
</linearGradient>
<linearGradient id="paint2_linear" x1="59.9064" y1="0.185773" x2="71.5825" y2="8.45084" gradientUnits="userSpaceOnUse">
<stop stop-color="#A3EDD0"/>
<stop offset="1" stop-color="#42DB9B"/>
</linearGradient>
<linearGradient id="paint3_linear" x1="89.9064" y1="0.185773" x2="101.583" y2="8.45084" gradientUnits="userSpaceOnUse">
<stop stop-color="#A3EDD0"/>
<stop offset="1" stop-color="#42DB9B"/>
</linearGradient>
<linearGradient id="paint4_linear" x1="119.906" y1="0.185773" x2="131.583" y2="8.45084" gradientUnits="userSpaceOnUse">
<stop stop-color="#A3EDD0"/>
<stop offset="1" stop-color="#42DB9B"/>
</linearGradient>
</defs>
</svg>
