<svg width="183" height="154" viewBox="0 0 183 154" fill="none" xmlns="http://www.w3.org/2000/svg">
<path opacity="0.3" fill-rule="evenodd" clip-rule="evenodd" d="M2.99796 95.5878C-1.13563 101.432 -1.01175 108.488 3.4757 113.156C4.54731 114.287 5.86423 115.219 7.36679 115.91C13.0501 118.493 17.3141 115.519 21.2255 118.233C26.7989 122.1 21.4614 130.441 25.1446 140.749C26.7274 145.178 28.7571 152.032 34.8494 153.213C41.1728 154.44 48.308 148.952 49.8864 147.738C60.6084 139.491 58.3581 129.867 66.5223 125.644C72.2215 122.695 79.6672 124.251 83.6605 125.943C86.1405 126.993 87.6153 128.643 89.4707 130.295C91.4049 132.017 94.2269 132.728 97.1566 132.562C103.475 132.204 111.97 128.349 112.527 122.043C112.672 120.402 112.287 118.815 111.696 117.334C109.626 112.136 105.092 107.61 100.608 103.981C94.2278 98.8167 86.5461 96.0631 78.5224 93.066C74.2474 91.4691 70.3475 89.4072 67.4682 86.2513C62.1397 80.4106 68.3264 76.6385 64.0887 52.5213C63.3969 48.5837 63.0058 42.6946 58.4432 40.8698C56.5066 40.0952 54.0606 40.3544 51.9015 41.1441C47.7666 42.6563 43.23 45.838 41.7 49.6203C38.7387 56.9415 48.1684 63.9507 42.8367 71.0039C39.186 75.8334 32.5329 74.4364 23.092 78.4782C17.4273 80.9036 10.0765 85.5795 2.99796 95.5878Z" fill="#DDE1E7"/>
<path opacity="0.3" fill-rule="evenodd" clip-rule="evenodd" d="M179.904 58.7804C184.037 52.936 183.914 45.8803 179.426 41.2123C178.355 40.0809 177.038 39.1487 175.535 38.4578C169.852 35.8754 165.588 38.8492 161.676 36.1353C156.103 32.2683 161.44 23.9275 157.757 13.6196C156.174 9.18998 154.145 2.33635 148.052 1.1548C141.729 -0.0716782 134.594 5.41633 133.015 6.63045C122.293 14.8773 124.544 24.5009 116.38 28.7246C110.68 31.673 103.235 30.1174 99.2414 28.4256C96.7614 27.3749 95.2866 25.7256 93.4311 24.0732C91.4969 22.351 88.6749 21.6405 85.7452 21.8064C79.4272 22.1645 70.9319 26.0189 70.3747 32.3252C70.2295 33.9658 70.615 35.5532 71.2054 37.0346C73.2758 42.232 77.8102 46.7578 82.2941 50.3872C88.6741 55.5515 96.3557 58.3051 104.379 61.3022C108.654 62.8991 112.554 64.9609 115.434 68.1169C120.762 73.9576 114.575 77.7297 118.813 101.847C119.505 105.784 119.896 111.674 124.459 113.498C126.395 114.273 128.841 114.014 131 113.224C135.135 111.712 139.672 108.53 141.202 104.748C144.163 97.4267 134.733 90.4175 140.065 83.3643C143.716 78.5348 150.369 79.9318 159.81 75.8899C165.475 73.4646 172.825 68.7887 179.904 58.7804Z" fill="#DDE1E7"/>
<path d="M138.037 32.6394H122.636V44.4864C122.636 46.5005 121.096 48.0404 119.082 48.0404C117.068 48.0404 115.528 46.5002 115.528 44.4864V32.6394H75.248V44.4864C75.248 46.5005 73.7078 48.0404 71.694 48.0404C69.6802 48.0404 68.14 46.5002 68.14 44.4864V32.6394H51.554C49.5399 32.6394 48 34.1795 48 36.1934V58.7026H141.591V36.1936C141.591 34.1795 140.051 32.6394 138.037 32.6394Z" fill="#12b7e0"/>
<path d="M48 115.568C48 117.583 49.5401 119.122 51.554 119.122H138.037C140.051 119.122 141.591 117.582 141.591 115.568V57.5183H48V115.568Z" fill="#468EF1"/>
<path d="M71.6941 48.0407C73.7082 48.0407 75.2481 46.5006 75.2481 44.4867V32.6395V25.5313C75.2481 23.5174 73.7079 21.9773 71.6941 21.9773C69.6803 21.9773 68.1399 23.5174 68.1399 25.5313V32.6395V44.4865C68.1399 46.5006 69.68 48.0407 71.6941 48.0407Z" fill="#468EF1"/>
<path d="M119.082 48.0407C121.096 48.0407 122.636 46.5006 122.636 44.4867V32.6395V25.5313C122.636 23.5174 121.096 21.9773 119.082 21.9773C117.068 21.9773 115.528 23.5174 115.528 25.5313V32.6395V44.4865C115.528 46.5006 117.068 48.0407 119.082 48.0407Z" fill="#468EF1"/>
<path d="M82.3562 100.167H108.42C110.434 100.167 111.974 98.6269 111.974 96.6131C111.974 94.5992 110.433 93.0591 108.42 93.0591H82.3562C80.3422 93.0591 78.8022 94.5992 78.8022 96.6131C78.8022 98.6269 80.3422 100.167 82.3562 100.167Z" fill="white"/>
<path d="M82.3562 83.5814H108.42C110.434 83.5814 111.974 82.0412 111.974 80.0274C111.974 78.0133 110.433 76.4734 108.42 76.4734H82.3562C80.3422 76.4734 78.8022 78.0135 78.8022 80.0274C78.802 82.0414 80.3422 83.5814 82.3562 83.5814Z" fill="white"/>
</svg>
