<svg width="595" height="449" viewBox="0 0 595 449" fill="none" xmlns="http://www.w3.org/2000/svg">
<path opacity="0.25" fill-rule="evenodd" clip-rule="evenodd" d="M407.28 160.262C384.665 143.695 382.305 112.005 386.55 84.2949C390.257 60.1031 400.468 36.8896 419.621 21.6535C431.444 12.2486 445.466 3.26073 458.239 0.714066C481.815 -3.98643 483.952 41.6348 507.918 39.7364C516.719 39.0391 529.337 35.5475 547.542 31.7383C593.071 22.2121 600.485 48.8266 591.865 67.7392C583.246 86.6518 567.375 100.115 524.517 110.207C481.659 120.299 487.693 120.132 481.689 138.816C476.918 153.662 442.745 186.241 407.28 160.262Z" fill="#DDE1E7"/>
<path opacity="0.25" fill-rule="evenodd" clip-rule="evenodd" d="M243.53 239.666C273 261.342 276.013 302.705 270.507 338.872C265.692 370.501 252.414 400.88 227.422 420.854C208.613 435.886 185.549 450.06 166.444 448.937C142.571 447.534 147.023 404.685 124.104 397.858C113.092 394.578 94.2833 400.668 61.5847 407.553C2.50299 419.994 -7.11783 385.238 4.0676 360.541C15.253 335.843 35.8482 318.262 91.4641 305.083C147.08 291.903 139.249 292.122 147.041 267.723C153.229 248.345 197.533 205.834 243.53 239.666Z" fill="#DDE1E7"/>
</svg>
