<svg width="26" height="25" viewBox="0 0 26 25" fill="none" xmlns="http://www.w3.org/2000/svg">
<path fill-rule="evenodd" clip-rule="evenodd" d="M13.479 0C6.57544 0 0.979004 5.59644 0.979004 12.5C0.979004 19.4036 6.57544 25 13.479 25C20.3826 25 25.979 19.4036 25.979 12.5C25.979 5.59644 20.3826 0 13.479 0ZM14.1729 11.1132L14.1467 10.6807C14.068 9.55967 14.7587 8.53572 15.8516 8.1385C16.2538 7.99727 16.9358 7.97961 17.3817 8.10319C17.5566 8.15616 17.8889 8.3327 18.1249 8.49159L18.5534 8.78288L19.0255 8.63282C19.2878 8.55338 19.6376 8.42097 19.795 8.3327C19.9436 8.25325 20.0747 8.20912 20.0747 8.2356C20.0747 8.38566 19.7512 8.89763 19.4802 9.1801C19.113 9.57732 19.2179 9.61263 19.9611 9.34782C20.407 9.19776 20.4157 9.19776 20.3283 9.36547C20.2758 9.45374 20.0048 9.76269 19.7163 10.0452C19.2266 10.5306 19.2004 10.5836 19.2004 10.9897C19.2004 11.6164 18.9031 12.9228 18.6058 13.6378C18.055 14.9795 16.8746 16.3654 15.6943 17.0627C14.033 18.0425 11.8209 18.2897 9.95852 17.7159C9.33774 17.5217 8.27103 17.0274 8.27103 16.9391C8.27103 16.9126 8.59454 16.8773 8.988 16.8685C9.80989 16.8509 10.6318 16.6214 11.3313 16.2153L11.8034 15.9328L11.2613 15.7475C10.4919 15.4827 9.80114 14.8736 9.62627 14.2998C9.57381 14.1145 9.5913 14.1056 10.0809 14.1056L10.5881 14.0968L10.1596 13.8938C9.6525 13.6378 9.1891 13.2053 8.96177 12.7639C8.79564 12.4461 8.5858 11.6429 8.647 11.5811C8.66449 11.5546 8.8481 11.6076 9.05795 11.6782C9.66125 11.8989 9.73994 11.8459 9.3902 11.4751C8.73444 10.8043 8.53334 9.80683 8.8481 8.86233L8.99674 8.43862L9.57381 9.01239C10.7542 10.1687 12.1444 10.8573 13.7357 11.0603L14.1729 11.1132Z" fill="#12b7e0"/>
</svg>
