<svg width="20" height="51" viewBox="0 0 20 51" fill="none" xmlns="http://www.w3.org/2000/svg">
<path fill-rule="evenodd" clip-rule="evenodd" d="M11.0174 17.0729L9.95263 13.2217C10.5216 14.4395 10.8658 15.7286 11.0174 17.0729ZM15.4013 24.5496C14.8347 23.1297 14.3196 21.7029 13.611 20.3658C14.6001 21.5789 15.0448 23.0518 15.4013 24.5496ZM9.76901 24.2541C9.31751 24.6086 9.16129 24.2552 9.00449 23.9412C8.4737 22.8798 8.8371 21.8485 9.19357 20.866C9.4533 20.1499 9.809 19.44 10.4269 18.9563C10.6624 18.7717 10.8972 18.6941 10.9505 19.1474C11.0959 20.3851 11.08 21.6098 10.6709 22.7969C10.476 23.3625 10.1865 23.8728 9.76901 24.2541ZM13.0751 20.7824C13.6505 21.5361 13.9625 22.4425 14.2977 23.3293C15.7454 27.1614 15.987 31.1358 15.6014 35.1997C15.3437 37.9144 14.8427 40.5765 14.2514 43.2253C14.1976 43.467 14.1341 43.7092 14.2044 43.9575C14.2834 44.2365 14.4086 44.3806 14.618 44.0611C14.6698 43.9826 14.6648 43.8317 14.8006 43.9394C15.2691 44.3107 15.5105 43.9288 15.7529 43.6145C16.2078 43.0247 16.3788 42.2873 16.6075 41.5935C17.2485 39.6498 17.8202 37.6786 18.1412 35.6456C18.4392 33.7582 18.4741 31.8466 18.4581 29.935C18.4479 28.7182 18.4215 27.4806 18.0159 26.3486C17.7465 25.5966 17.7614 24.8116 17.5053 24.0728C17.0142 22.6564 16.5107 21.251 15.7304 19.9748C15.088 18.9245 14.2409 18.1158 13.1587 17.6017C12.8018 17.4323 12.6033 17.1684 12.5158 16.7867C12.2797 15.758 12.0115 14.7342 11.7326 13.7225C11.279 12.0765 10.5794 10.5138 9.82722 8.9896C8.62745 6.55859 7.2125 4.28706 5.288 2.4084C4.15689 1.30424 2.97354 0.293 1.37793 0.0334628C0.95784 -0.0348941 0.557771 -0.0180518 0.202696 0.271228C0.0495401 0.395713 -0.0330858 0.538215 0.0125024 0.749572C0.0666547 0.999301 0.206628 0.917999 0.384627 0.916294C1.60545 0.904205 2.37278 1.78447 3.18021 2.56115C5.40544 4.70145 6.90421 7.37689 8.20937 10.1909C9.20805 12.3442 9.99759 14.5795 10.5377 16.9095C10.5806 17.0945 10.7209 17.2877 10.3831 17.3643C9.20592 17.6311 8.33988 18.394 7.68444 19.4085C6.67258 20.9744 6.14545 22.6695 6.79359 24.5505C7.14179 25.5612 7.78437 25.922 8.79959 25.8959C11.386 25.83 12.7707 23.7258 12.9005 21.451C12.9118 21.2472 12.9233 21.0436 12.9348 20.8404C12.9816 20.8209 13.0284 20.8018 13.0751 20.7824Z" fill="#DDE1E7"/>
<path fill-rule="evenodd" clip-rule="evenodd" d="M12.2672 45.9775C12.6488 47.1802 12.8681 48.4103 12.8492 49.6797C12.6552 48.4457 12.4614 47.2116 12.2672 45.9775ZM17.5702 45.0182C16.5983 45.7951 15.7693 46.733 14.9078 47.6345C14.7791 47.7693 14.6957 47.9991 14.4366 47.9039C14.1877 47.8123 14.2141 47.575 14.2061 47.3904C14.1621 46.3847 13.8401 45.4488 13.6209 44.4839C13.4825 43.8743 13.4526 43.2323 13.2923 42.6105C13.0452 41.6534 12.8661 40.6755 12.6822 39.7016C12.5889 39.2081 12.2802 38.7819 12.3665 38.2248C12.4511 37.6783 12.1243 37.4055 11.3531 37.4011C10.9595 37.3987 10.561 37.5788 10.5498 38.1026C10.5407 38.5334 10.5631 38.9724 10.6339 39.3961C11.1027 42.2001 11.593 45 12.0648 47.8034C12.1708 48.4326 12.2366 49.0701 12.3136 49.7046C12.4536 50.8582 12.8097 51.12 13.9082 50.9551C14.7609 50.8271 15.3885 50.3899 15.8866 49.658C16.8456 48.2492 17.8428 46.8692 19.0421 45.6703C19.2824 45.4301 19.5547 45.2257 19.8043 44.995C20.0935 44.7282 20.0672 44.5147 19.6918 44.3738C18.8599 44.061 18.6877 44.1124 17.5702 45.0182Z" fill="#DDE1E7"/>
</svg>
