<svg width="20" height="46" viewBox="0 0 20 46" fill="none" xmlns="http://www.w3.org/2000/svg">
<g opacity="0.5">
<path fill-rule="evenodd" clip-rule="evenodd" d="M8.6717 15.6116L9.70859 12.2706C9.16753 13.3232 8.83164 14.4418 8.6717 15.6116ZM4.53203 22.0601C5.07408 20.8311 5.56889 19.5953 6.24007 18.4409C5.31336 19.4826 4.88242 20.7598 4.53203 22.0601ZM9.707 21.8939C10.116 22.2103 10.2649 21.9047 10.4136 21.6335C10.9173 20.7165 10.5996 19.8113 10.2875 18.9488C10.0601 18.3201 9.74453 17.6953 9.18477 17.2635C8.97142 17.0987 8.7571 17.0272 8.70116 17.4217C8.54862 18.4986 8.54429 19.5667 8.90153 20.6086C9.07172 21.1049 9.32958 21.5546 9.707 21.8939ZM6.72557 18.8129C6.18576 19.4607 5.8853 20.2461 5.56398 21.0139C4.17583 24.332 3.8928 27.7938 4.18409 31.3438C4.37877 33.7152 4.79765 36.0447 5.29959 38.364C5.34521 38.5757 5.39982 38.7879 5.33147 39.0033C5.25457 39.2453 5.13745 39.369 4.95012 39.0869C4.90381 39.0176 4.91072 38.8861 4.78441 38.9779C4.3486 39.294 4.13286 38.9571 3.91524 38.679C3.50667 38.1573 3.36108 37.5116 3.16185 36.9029C2.60344 35.1975 2.10904 33.4694 1.84564 31.6914C1.60123 30.0407 1.5987 28.3732 1.64287 26.7066C1.67101 25.6457 1.71432 24.5669 2.1041 23.5864C2.36305 22.935 2.3614 22.2503 2.60792 21.6101C3.0806 20.383 3.56445 19.1657 4.30048 18.0655C4.90636 17.1601 5.69646 16.4686 6.6979 16.0379C7.02813 15.896 7.21446 15.6691 7.30066 15.3377C7.53322 14.4445 7.79519 13.556 8.0669 12.6784C8.50865 11.2504 9.17495 9.89908 9.88899 8.58221C11.0279 6.48184 12.3618 4.52403 14.1575 2.91708C15.2129 1.97261 16.3148 1.11002 17.7835 0.909611C18.1702 0.856824 18.5372 0.878007 18.8587 1.13602C18.9974 1.24706 19.071 1.37267 19.0259 1.55623C18.9724 1.77312 18.8451 1.69995 18.6818 1.69557C17.5612 1.66521 16.8433 2.42035 16.0901 3.0845C14.0143 4.91472 12.5972 7.22338 11.3556 9.65598C10.4056 11.5175 9.64638 13.4539 9.11461 15.4768C9.07235 15.6375 8.94058 15.8037 9.24956 15.876C10.3261 16.1277 11.1093 16.807 11.6954 17.7023C12.6001 19.0842 13.0578 20.571 12.4338 22.2006C12.0986 23.0763 11.5032 23.3805 10.5716 23.3413C8.19827 23.2418 6.95957 21.3845 6.87557 19.3987C6.86827 19.2208 6.86085 19.0431 6.85347 18.8657C6.81077 18.8479 6.76811 18.8305 6.72557 18.8129Z" fill="#2882f7"/>
<path fill-rule="evenodd" clip-rule="evenodd" d="M7.07849 40.7961C6.70967 41.8388 6.48936 42.9079 6.48715 44.0151C6.68428 42.9422 6.88125 41.8692 7.07849 40.7961ZM2.22522 39.8736C3.1054 40.5668 3.85195 41.3981 4.62891 42.1982C4.74502 42.3179 4.81796 42.5196 5.05733 42.4407C5.28722 42.365 5.26669 42.1575 5.2768 41.9968C5.33272 41.1204 5.64273 40.3096 5.85892 39.4718C5.99529 38.9424 6.03272 38.3831 6.18944 37.8435C6.43099 37.0129 6.61053 36.1631 6.79439 35.3169C6.88764 34.888 7.17762 34.5214 7.10694 34.0342C7.03771 33.5563 7.34196 33.3237 8.04998 33.3323C8.41134 33.3366 8.77439 33.5002 8.77655 33.9571C8.77827 34.3329 8.75094 34.7154 8.67942 35.0837C8.20581 37.5212 7.71254 39.9548 7.23615 42.3917C7.12917 42.9386 7.05895 43.4934 6.97844 44.0454C6.83211 45.0491 6.50125 45.2717 5.49536 45.11C4.71451 44.9846 4.14517 44.5931 3.69918 43.9468C2.84053 42.7028 1.94641 41.4832 0.863982 40.4183C0.64702 40.2049 0.400285 40.0222 0.17471 39.8171C-0.0866869 39.5797 -0.0592915 39.394 0.287509 39.2772C1.05602 39.0179 1.21334 39.0656 2.22522 39.8736Z" fill="#2882f7"/>
</g>
</svg>
