<svg width="1923" height="1036" viewBox="0 0 1923 1036" fill="none" xmlns="http://www.w3.org/2000/svg">
<mask id="mask0" mask-type="alpha" maskUnits="userSpaceOnUse" x="0" y="0" width="1923" height="1036">
<path d="M1922 1H1V880.415C533 1086.53 1333 1086.53 1922 880.415V1Z" fill="url(#paint0_linear)" stroke="#7131FF"/>
</mask>
<g mask="url(#mask0)">
<path d="M1928 -1H-8V888.621C528.154 1097.13 1334.4 1097.13 1928 888.621V-1Z" fill="url(#paint1_linear)" stroke="#7131FF"/>
<g opacity="0.5">
<path d="M162.878 687.924C162.947 688.051 163.017 688.177 163.086 688.304C207.635 769.858 189.041 868.942 123.809 929.448C103.74 948.063 94.2857 977.76 107.391 1001.75L147.223 1074.67C308.091 986.794 367.358 785.318 279.598 624.66C279.528 624.533 279.459 624.406 279.39 624.279L162.878 687.924Z" fill="#2F326A"/>
<path d="M162.879 687.924C162.81 687.797 162.741 687.669 162.672 687.543C118.123 605.988 24.703 568.093 -61.4583 590.285C-87.9653 597.113 -118.062 589.021 -131.168 565.029L-170.999 492.112C-10.1303 404.237 191.423 463.239 279.183 623.898C279.252 624.025 279.322 624.152 279.391 624.279L162.879 687.924Z" fill="#2F326A"/>
</g>
<circle opacity="0.5" cx="1849" cy="627" r="109" fill="#6D6E97"/>
<circle opacity="0.5" cx="540" cy="223" r="127" fill="#2F326A"/>
<circle opacity="0.5" cx="843" cy="766" r="78" fill="#2F326A"/>
<g opacity="0.4">
<path d="M1291.09 208.789C1291.12 208.71 1291.15 208.631 1291.18 208.552C1309.84 157.837 1360.34 128.061 1411.79 133.466C1427.62 135.129 1444.24 127.904 1449.73 112.985L1466.41 67.6407C1366.38 30.8362 1255.48 81.9899 1218.73 181.896C1218.7 181.974 1218.67 182.053 1218.64 182.132L1291.09 208.789Z" fill="#6D6E97"/>
<path d="M1291.09 208.788C1291.06 208.867 1291.03 208.946 1291.01 209.025C1272.35 259.739 1291.51 315.143 1334.2 344.374C1347.33 353.367 1355.3 369.641 1349.81 384.561L1333.13 429.904C1233.1 393.1 1181.8 282.274 1218.55 182.369C1218.58 182.29 1218.61 182.211 1218.64 182.132L1291.09 208.788Z" fill="#6D6E97"/>
</g>
</g>
<defs>
<linearGradient id="paint0_linear" x1="1922" y1="1.00019" x2="-57.3837" y2="844.716" gradientUnits="userSpaceOnUse">
<stop stop-color="#7131FF"/>
<stop offset="1" stop-color="#AF64FF"/>
</linearGradient>
<linearGradient id="paint1_linear" x1="1928" y1="-0.999806" x2="-69.1404" y2="847.09" gradientUnits="userSpaceOnUse">
<stop stop-color="#2F326A"/>
<stop offset="1" stop-color="#6D6E97"/>
</linearGradient>
</defs>
</svg>
