<svg width="1923" height="1035" viewBox="0 0 1923 1035" fill="none" xmlns="http://www.w3.org/2000/svg">
<mask id="mask0" mask-type="alpha" maskUnits="userSpaceOnUse" x="0" y="0" width="1923" height="1036">
<path d="M1922 1H1V880.415C533 1086.53 1333 1086.53 1922 880.415V1Z" fill="url(#paint0_linear)" stroke="#7131FF"/>
</mask>
<g mask="url(#mask0)">
<path d="M1922 -1H1V878.415C533 1084.53 1333 1084.53 1922 878.415V-1Z" fill="url(#paint1_linear)" stroke="#7131FF"/>
<g opacity="0.5">
<path d="M254.375 264.062C254.301 264.186 254.227 264.31 254.153 264.434C206.407 344.159 111.559 378.323 26.3448 352.734C0.129147 344.861 -30.2647 351.754 -44.3108 375.208L-87 446.49C70.2604 540.67 273.994 489.7 368.051 332.645C368.125 332.521 368.199 332.397 368.273 332.273L254.375 264.062Z" fill="#7131FF"/>
<path d="M254.376 264.063C254.45 263.939 254.525 263.815 254.599 263.691C302.345 183.966 287.691 84.2234 224.907 21.1797C205.592 1.78489 197.322 -28.2636 211.368 -51.7175L254.057 -122.999C411.318 -28.8191 462.554 174.847 368.497 331.902C368.423 332.026 368.349 332.15 368.274 332.274L254.376 264.063Z" fill="#7131FF"/>
</g>
<circle opacity="0.8" cx="1684.5" cy="203.5" r="165.5" fill="#AF64FF"/>
<circle opacity="0.5" cx="624" cy="623" r="127" fill="#7131FF"/>
<circle opacity="0.5" cx="1025.5" cy="127.5" r="63.5" fill="#7131FF"/>
<g opacity="0.4">
<path d="M1280.33 705.461C1280.39 705.404 1280.45 705.347 1280.51 705.29C1320.29 668.715 1378.82 665.318 1422.11 693.65C1435.43 702.366 1453.51 703.538 1465.22 692.778L1500.78 660.077C1428.64 581.61 1306.63 576.409 1228.26 648.459C1228.2 648.516 1228.14 648.573 1228.08 648.63L1280.33 705.461Z" fill="#AF64FF"/>
<path d="M1280.33 705.46C1280.27 705.517 1280.2 705.573 1280.14 705.63C1240.36 742.205 1232.07 800.239 1256.68 845.753C1264.25 859.755 1263.9 877.874 1252.2 888.634L1216.63 921.335C1144.48 842.868 1149.53 720.85 1227.89 648.8C1227.95 648.743 1228.02 648.686 1228.08 648.629L1280.33 705.46Z" fill="#AF64FF"/>
</g>
</g>
<defs>
<linearGradient id="paint0_linear" x1="1922" y1="1.00019" x2="-57.3837" y2="844.716" gradientUnits="userSpaceOnUse">
<stop stop-color="#7131FF"/>
<stop offset="1" stop-color="#AF64FF"/>
</linearGradient>
<linearGradient id="paint1_linear" x1="1922" y1="-0.999809" x2="-57.3837" y2="842.716" gradientUnits="userSpaceOnUse">
<stop stop-color="#7131FF"/>
<stop offset="1" stop-color="#AF64FF"/>
</linearGradient>
</defs>
</svg>
