<svg width="791" height="833" viewBox="0 0 791 833" fill="none" xmlns="http://www.w3.org/2000/svg">
<path opacity="0.3" d="M669.064 705.503C687.751 674.985 678.159 635.096 647.642 616.41L579.971 726.925C610.489 745.611 650.377 736.02 669.064 705.503Z" fill="#DDE1E7"/>
<circle opacity="0.3" cx="168.403" cy="24.6138" r="62.9994" fill="#DDE1E7"/>
<g filter="url(#filter0_d)">
<rect x="440.364" y="-386" width="796.389" height="805.045" rx="48.0911" transform="rotate(31.4774 440.364 -386)" fill="white"/>
</g>
<circle opacity="0.3" cx="776.473" cy="101.361" r="104.358" fill="#DDE1E7"/>
<g opacity="0.3">
<circle cx="531.547" cy="309.255" r="4.66682" fill="#ABB1BA"/>
<circle cx="562.659" cy="309.255" r="4.66682" fill="#ABB1BA"/>
<circle cx="593.772" cy="309.255" r="4.66682" fill="#ABB1BA"/>
<circle cx="624.883" cy="309.255" r="4.66682" fill="#ABB1BA"/>
<circle cx="655.996" cy="309.255" r="4.66682" fill="#ABB1BA"/>
<circle cx="687.108" cy="309.255" r="4.66682" fill="#ABB1BA"/>
<circle cx="531.547" cy="335.701" r="4.66682" fill="#ABB1BA"/>
<circle cx="562.659" cy="335.701" r="4.66682" fill="#ABB1BA"/>
<circle cx="593.772" cy="335.701" r="4.66682" fill="#ABB1BA"/>
<circle cx="624.883" cy="335.701" r="4.66682" fill="#ABB1BA"/>
<circle cx="655.996" cy="335.701" r="4.66682" fill="#ABB1BA"/>
<circle cx="687.108" cy="335.701" r="4.66682" fill="#ABB1BA"/>
<circle cx="531.547" cy="362.146" r="4.66682" fill="#ABB1BA"/>
<circle cx="562.659" cy="362.146" r="4.66682" fill="#ABB1BA"/>
<circle cx="593.772" cy="362.146" r="4.66682" fill="#ABB1BA"/>
<circle cx="624.883" cy="362.146" r="4.66682" fill="#ABB1BA"/>
<circle cx="655.996" cy="362.146" r="4.66682" fill="#ABB1BA"/>
<circle cx="687.108" cy="362.146" r="4.66682" fill="#ABB1BA"/>
<circle cx="531.547" cy="388.591" r="4.66682" fill="#ABB1BA"/>
<circle cx="562.659" cy="388.591" r="4.66682" fill="#ABB1BA"/>
<circle cx="593.772" cy="388.591" r="4.66682" fill="#ABB1BA"/>
<circle cx="624.883" cy="388.591" r="4.66682" fill="#ABB1BA"/>
<circle cx="655.996" cy="388.591" r="4.66682" fill="#ABB1BA"/>
<circle cx="687.108" cy="388.591" r="4.66682" fill="#ABB1BA"/>
<circle cx="531.547" cy="415.037" r="4.66682" fill="#ABB1BA"/>
<circle cx="562.659" cy="415.037" r="4.66682" fill="#ABB1BA"/>
<circle cx="593.772" cy="415.037" r="4.66682" fill="#ABB1BA"/>
<circle cx="624.883" cy="415.037" r="4.66682" fill="#ABB1BA"/>
<circle cx="655.996" cy="415.037" r="4.66682" fill="#ABB1BA"/>
<circle cx="687.108" cy="415.037" r="4.66682" fill="#ABB1BA"/>
<circle cx="531.547" cy="441.482" r="4.66682" fill="#ABB1BA"/>
<circle cx="562.659" cy="441.482" r="4.66682" fill="#ABB1BA"/>
<circle cx="593.772" cy="441.482" r="4.66682" fill="#ABB1BA"/>
<circle cx="624.883" cy="441.482" r="4.66682" fill="#ABB1BA"/>
<circle cx="655.996" cy="441.482" r="4.66682" fill="#ABB1BA"/>
<circle cx="687.108" cy="441.482" r="4.66682" fill="#ABB1BA"/>
</g>
<g opacity="0.3">
<circle cx="278.588" cy="167.867" r="4.66682" fill="#ABB1BA"/>
<circle cx="309.7" cy="167.867" r="4.66682" fill="#ABB1BA"/>
<circle cx="340.812" cy="167.867" r="4.66682" fill="#ABB1BA"/>
<circle cx="371.924" cy="167.867" r="4.66682" fill="#ABB1BA"/>
<circle cx="403.036" cy="167.867" r="4.66682" fill="#ABB1BA"/>
<circle cx="434.148" cy="167.867" r="4.66682" fill="#ABB1BA"/>
<circle cx="278.588" cy="194.313" r="4.66682" fill="#ABB1BA"/>
<circle cx="309.7" cy="194.313" r="4.66682" fill="#ABB1BA"/>
<circle cx="340.812" cy="194.313" r="4.66682" fill="#ABB1BA"/>
<circle cx="371.924" cy="194.313" r="4.66682" fill="#ABB1BA"/>
<circle cx="403.036" cy="194.313" r="4.66682" fill="#ABB1BA"/>
<circle cx="434.148" cy="194.313" r="4.66682" fill="#ABB1BA"/>
<circle cx="278.588" cy="220.758" r="4.66682" fill="#ABB1BA"/>
<circle cx="309.7" cy="220.758" r="4.66682" fill="#ABB1BA"/>
<circle cx="340.812" cy="220.758" r="4.66682" fill="#ABB1BA"/>
<circle cx="371.924" cy="220.758" r="4.66682" fill="#ABB1BA"/>
<circle cx="403.036" cy="220.758" r="4.66682" fill="#ABB1BA"/>
<circle cx="434.148" cy="220.758" r="4.66682" fill="#ABB1BA"/>
<circle cx="278.588" cy="247.203" r="4.66682" fill="#ABB1BA"/>
<circle cx="309.7" cy="247.203" r="4.66682" fill="#ABB1BA"/>
<circle cx="340.812" cy="247.203" r="4.66682" fill="#ABB1BA"/>
<circle cx="371.924" cy="247.203" r="4.66682" fill="#ABB1BA"/>
<circle cx="403.036" cy="247.203" r="4.66682" fill="#ABB1BA"/>
<circle cx="434.148" cy="247.203" r="4.66682" fill="#ABB1BA"/>
<circle cx="278.588" cy="273.649" r="4.66682" fill="#ABB1BA"/>
<circle cx="309.7" cy="273.649" r="4.66682" fill="#ABB1BA"/>
<circle cx="340.812" cy="273.649" r="4.66682" fill="#ABB1BA"/>
<circle cx="371.924" cy="273.649" r="4.66682" fill="#ABB1BA"/>
<circle cx="403.036" cy="273.649" r="4.66682" fill="#ABB1BA"/>
<circle cx="434.148" cy="273.649" r="4.66682" fill="#ABB1BA"/>
<circle cx="278.588" cy="300.094" r="4.66682" fill="#ABB1BA"/>
<circle cx="309.7" cy="300.094" r="4.66682" fill="#ABB1BA"/>
<circle cx="340.812" cy="300.094" r="4.66682" fill="#ABB1BA"/>
<circle cx="371.924" cy="300.094" r="4.66682" fill="#ABB1BA"/>
<circle cx="403.036" cy="300.094" r="4.66682" fill="#ABB1BA"/>
<circle cx="434.148" cy="300.094" r="4.66682" fill="#ABB1BA"/>
</g>
<circle opacity="0.3" cx="296.524" cy="53.0719" r="29.3356" fill="#DDE1E7"/>
<circle opacity="0.3" cx="612.591" cy="149.236" r="19.2365" fill="#DDE1E7"/>
<path fill-rule="evenodd" clip-rule="evenodd" d="M613.301 141.46C614.778 141.462 615.072 141.473 615.798 141.506C616.625 141.544 617.191 141.676 617.685 141.868C618.197 142.067 618.63 142.332 619.063 142.765C619.495 143.197 619.761 143.631 619.96 144.142C620.152 144.637 620.283 145.202 620.321 146.03C620.357 146.808 620.367 147.089 620.368 148.861V149.611C620.367 151.384 620.357 151.665 620.321 152.443C620.283 153.27 620.152 153.836 619.96 154.33C619.761 154.842 619.495 155.275 619.063 155.708C618.63 156.14 618.197 156.406 617.685 156.605C617.191 156.797 616.625 156.928 615.798 156.966C615.02 157.002 614.739 157.012 612.966 157.013H612.216C610.444 157.012 610.163 157.002 609.385 156.966C608.557 156.928 607.992 156.797 607.497 156.605C606.986 156.406 606.552 156.14 606.12 155.708C605.687 155.275 605.422 154.842 605.223 154.33C605.031 153.836 604.899 153.27 604.861 152.443C604.828 151.717 604.817 151.423 604.815 149.946V148.526C604.817 147.049 604.828 146.756 604.861 146.03C604.899 145.202 605.031 144.637 605.223 144.142C605.422 143.631 605.687 143.197 606.12 142.765C606.552 142.332 606.986 142.067 607.497 141.868C607.992 141.676 608.557 141.544 609.385 141.506C610.111 141.473 610.404 141.462 611.881 141.46H613.301ZM612.591 145.243C610.386 145.243 608.598 147.031 608.598 149.236C608.598 151.442 610.386 153.23 612.591 153.23C614.797 153.23 616.585 151.442 616.585 149.236C616.585 147.031 614.797 145.243 612.591 145.243ZM612.591 146.644C614.023 146.644 615.184 147.805 615.184 149.236C615.184 150.668 614.023 151.829 612.591 151.829C611.16 151.829 609.999 150.668 609.999 149.236C609.999 147.805 611.16 146.644 612.591 146.644ZM616.743 144.152C616.227 144.152 615.809 144.57 615.809 145.085C615.809 145.6 616.227 146.018 616.743 146.018C617.258 146.018 617.676 145.6 617.676 145.085C617.676 144.57 617.258 144.152 616.743 144.152Z" fill="#ABB1BA"/>
<path d="M746.176 365.857V351.718L749.398 352.666V364.317L754.008 361.671L752.022 360.644L750.748 357.445L757.718 359.696V363.25L749.024 368.069L746.176 365.857Z" fill="#ABB1BA"/>
<circle opacity="0.3" cx="750.985" cy="359.412" r="19.2365" fill="#DDE1E7"/>
<circle opacity="0.3" cx="515.591" cy="228.236" r="19.2365" fill="#DDE1E7"/>
<path d="M516 221.279C518.041 221.279 519.888 222.108 521.222 223.449L519.083 225.603C518.297 224.808 517.206 224.315 516 224.315C514.14 224.315 512.553 225.488 511.94 227.134C511.765 227.605 511.67 228.114 511.67 228.646C511.67 229.146 511.755 229.627 511.911 230.075C512.501 231.764 514.11 232.976 516.001 232.976C516.943 232.976 517.814 232.676 518.525 232.166L520.94 234.112C519.633 235.293 517.901 236.013 516.001 236.013C513.142 236.013 510.664 234.385 509.442 232.005C508.925 230.998 508.633 229.856 508.633 228.646C508.633 227.415 508.935 226.255 509.469 225.235C510.699 222.884 513.162 221.279 516 221.279Z" fill="#ABB1BA"/>
<path d="M523.209 227.119C523.313 227.611 523.368 228.122 523.368 228.646C523.368 228.904 523.354 229.16 523.328 229.411C523.136 231.27 522.253 232.925 520.94 234.112L518.527 232.164C519.219 231.666 519.759 230.968 520.061 230.155H516.045V227.119H523.209Z" fill="#ABB1BA"/>
<circle opacity="0.3" cx="189.281" cy="194.941" r="19.2365" fill="#DDE1E7"/>
<path fill-rule="evenodd" clip-rule="evenodd" d="M189.755 201.899H183.09C182.666 201.899 182.322 201.555 182.322 201.131V188.751C182.322 188.327 182.666 187.983 183.09 187.983H195.47C195.894 187.983 196.238 188.327 196.238 188.751V201.131C196.238 201.555 195.894 201.899 195.47 201.899H191.924V196.51H193.733L194.004 194.41H191.924V193.069C191.924 192.461 192.093 192.046 192.965 192.046L194.077 192.046V190.167C193.884 190.142 193.224 190.085 192.456 190.085C190.853 190.085 189.755 191.063 189.755 192.861V194.41H187.942V196.51H189.755V201.899Z" fill="#ABB1BA"/>
<rect x="130.493" y="286" width="270.522" height="131.162" rx="15" transform="rotate(31.48 130.493 286)" fill="#FFC41B"/>
<path d="M317.168 463.059C311.832 471.773 314.762 483.279 323.711 488.758L343.032 457.204C334.083 451.724 322.503 454.346 317.168 463.059Z" fill="#468EF1"/>
<rect opacity="0.6" x="106.743" y="366.267" width="222.611" height="9.83717" rx="4.91859" transform="rotate(31.48 106.743 366.267)" fill="white"/>
<rect opacity="0.6" x="95.3612" y="382.94" width="224" height="10" rx="5" transform="rotate(31.48 95.3612 382.94)" fill="white"/>
<g opacity="0.6">
<path d="M135.507 366.386C136.925 364.07 139.953 363.342 142.27 364.76L200.579 400.464C202.896 401.882 203.624 404.91 202.205 407.227C200.787 409.544 197.759 410.272 195.442 408.853L137.133 373.149C134.816 371.731 134.088 368.703 135.507 366.386Z" fill="white"/>
<path d="M123.938 361.239C124.371 361.504 124.963 361.42 125.323 360.832C125.683 360.244 125.489 359.678 125.056 359.414C124.635 359.156 124.044 359.225 123.684 359.813C123.324 360.401 123.517 360.981 123.938 361.239Z" fill="white"/>
<path d="M120.188 358.943C120.62 359.208 121.212 359.124 121.573 358.536C121.933 357.948 121.738 357.382 121.306 357.117C120.885 356.859 120.294 356.929 119.934 357.517C119.574 358.105 119.767 358.685 120.188 358.943Z" fill="white"/>
<path fill-rule="evenodd" clip-rule="evenodd" d="M121.297 351.918C118.98 350.499 115.952 351.227 114.534 353.544C113.115 355.861 113.843 358.889 116.16 360.307L124.549 365.444C126.866 366.863 129.894 366.135 131.312 363.818C132.731 361.501 132.003 358.473 129.686 357.055L121.297 351.918ZM123.314 361.804C122.522 361.319 122.288 360.29 122.881 359.321C123.474 358.352 124.484 358.116 125.281 358.604C125.691 358.855 125.968 359.287 126.003 359.709L126.905 358.236L127.703 358.724L125.165 362.868L124.367 362.38L124.649 361.921C124.288 362.093 123.803 362.104 123.314 361.804ZM119.558 359.505C118.772 359.023 118.537 357.994 119.131 357.025C119.724 356.056 120.734 355.82 121.525 356.305C122.025 356.611 122.224 357.056 122.251 357.427L122.522 356.984L123.314 357.469L121.415 360.572L120.623 360.087L120.9 359.633C120.55 359.789 120.053 359.807 119.558 359.505Z" fill="white"/>
</g>
<path d="M136.993 317.515L140.696 319.783L139.474 326.621L145.038 322.441L148.644 324.649L135.216 334.386L131.586 332.164L135.192 329.613L136.993 317.515Z" fill="white"/>
<path d="M152.535 326.73C149.752 325.026 146.465 326.445 144.943 328.93C143.23 331.727 143.801 335.125 146.362 336.693C148.272 337.863 149.705 337.14 149.705 337.14L149.149 338.046L152.38 340.024L158.208 330.506L154.978 328.528L154.448 329.393C154.448 329.393 154.309 327.816 152.535 326.73ZM151.349 330.21C152.633 330.996 152.674 332.418 152.112 333.334C151.508 334.322 150.205 334.856 148.968 334.098C147.943 333.471 147.53 332.066 148.189 330.99C148.857 329.898 150.143 329.471 151.349 330.21Z" fill="white"/>
<path d="M153.493 340.706L161.895 326.985L165.274 329.054L162.15 334.155C162.15 334.155 163.637 333.529 165.318 334.559C167.374 335.818 167.64 338.087 166.3 340.276L162.616 346.292L159.262 344.238L162.441 339.046C162.895 338.306 162.98 337.374 162.181 336.884C161.367 336.386 160.498 336.853 160.051 337.583L156.872 342.775L153.493 340.706Z" fill="white"/>
<path d="M174.339 340.083C171.152 338.131 167.77 339.393 166.181 341.989C164.372 344.943 165.432 348.37 168.231 350.084C170.944 351.745 174.499 351.271 176.334 348.274C178.341 344.995 176.952 341.683 174.339 340.083ZM172.48 343.187C173.605 343.876 173.81 345.291 173.198 346.291C172.676 347.143 171.306 347.751 170.127 347.029C169.047 346.368 168.767 345.005 169.408 343.957C170.026 342.948 171.263 342.442 172.48 343.187Z" fill="white"/>
<path d="M185.066 346.651C181.88 344.7 178.498 345.961 176.908 348.558C175.099 351.512 176.16 354.939 178.959 356.653C181.672 358.314 185.226 357.839 187.061 354.843C189.069 351.564 187.68 348.251 185.066 346.651ZM183.207 349.756C184.333 350.445 184.538 351.859 183.926 352.859C183.403 353.712 182.034 354.32 180.855 353.598C179.775 352.936 179.495 351.573 180.136 350.526C180.754 349.517 181.99 349.011 183.207 349.756Z" fill="white"/>
<path d="M186.746 361.345C187.985 362.104 189.604 361.714 190.363 360.475C191.122 359.236 190.732 357.617 189.493 356.858C188.254 356.099 186.635 356.489 185.876 357.728C185.117 358.967 185.507 360.586 186.746 361.345Z" fill="white"/>
<path d="M192.979 357.859L188.94 355.386L197.798 348.969L201.822 351.433L192.979 357.859Z" fill="white"/>
<rect x="456.047" y="340" width="315" height="385" rx="15" transform="rotate(31.48 456.047 340)" fill="#FFC41B"/>
<path d="M550.819 593.115C521.582 640.862 537.251 703.387 584.998 732.623L690.743 559.927C642.997 530.69 580.055 545.369 550.819 593.115Z" fill="#468EF1"/>
<rect opacity="0.6" x="325.389" y="622.321" width="244" height="13" rx="6.5" transform="rotate(31.48 325.389 622.321)" fill="white"/>
<rect opacity="0.6" width="243.921" height="12.4174" rx="6.20869" transform="matrix(0.852822 0.522201 -0.521889 0.853014 313.441 641.878)" fill="white"/>
<g opacity="0.6">
<path d="M357.554 622.801C359.349 619.88 363.172 618.967 366.094 620.762L451.09 673.009C454.012 674.804 454.925 678.628 453.129 681.55C451.334 684.471 447.511 685.384 444.589 683.589L359.593 631.342C356.671 629.546 355.758 625.723 357.554 622.801Z" fill="white"/>
<path d="M339.373 614.195C339.898 614.518 340.628 614.402 341.083 613.66C341.539 612.919 341.313 612.216 340.788 611.893C340.276 611.579 339.549 611.677 339.093 612.418C338.637 613.16 338.861 613.881 339.373 614.195Z" fill="white"/>
<path d="M343.928 616.995C344.454 617.317 345.183 617.201 345.639 616.46C346.094 615.718 345.869 615.015 345.343 614.692C344.832 614.378 344.104 614.476 343.649 615.217C343.193 615.959 343.417 616.68 343.928 616.995Z" fill="white"/>
<path fill-rule="evenodd" clip-rule="evenodd" d="M342.435 606.223C339.513 604.428 335.69 605.341 333.894 608.263C332.099 611.184 333.012 615.008 335.934 616.803L344.282 621.933C347.204 623.728 351.027 622.815 352.822 619.894C354.618 616.972 353.705 613.148 350.783 611.353L342.435 606.223ZM338.587 614.909C337.632 614.322 337.367 613.04 338.117 611.819C338.868 610.597 340.114 610.282 341.076 610.873C341.683 611.247 341.917 611.799 341.943 612.262L342.285 611.704L343.247 612.295L340.843 616.208L339.881 615.617L340.233 615.045C339.799 615.245 339.187 615.278 338.587 614.909ZM343.149 617.712C342.187 617.121 341.922 615.84 342.673 614.618C343.424 613.396 344.67 613.082 345.638 613.677C346.136 613.983 346.466 614.516 346.5 615.043L347.641 613.186L348.61 613.781L345.399 619.007L344.43 618.412L344.786 617.833C344.339 618.055 343.743 618.077 343.149 617.712Z" fill="white"/>
</g>
<path opacity="0.2" d="M622.528 478.876C637.836 488.249 657.321 484.291 666.695 468.984L611.261 435.041C601.888 450.348 607.221 469.503 622.528 478.876Z" fill="#FAFBFC"/>
<rect opacity="0.6" x="404.433" y="491.317" width="141" height="111" rx="5" transform="rotate(31.48 404.433 491.317)" fill="white"/>
<path fill-rule="evenodd" clip-rule="evenodd" d="M530.311 451.259C534.75 453.978 533.015 459.419 533.015 459.419L522.521 457.752C522.521 457.752 521.889 459.997 524.4 461.552C526.365 462.769 528.554 461.693 528.554 461.693L529.798 464.433C529.798 464.433 526.385 466.156 522.874 464.006C518.559 461.364 518.968 456.427 520.469 453.976C521.915 451.615 525.871 448.541 530.311 451.259ZM528.56 453.545C524.759 452.077 523.357 455.332 523.357 455.332L530.429 456.487C530.429 456.487 530.357 454.239 528.56 453.545Z" fill="white"/>
<path d="M527.006 440.637L524.205 438.922L512.879 457.419L515.68 459.134L527.006 440.637Z" fill="white"/>
<path fill-rule="evenodd" clip-rule="evenodd" d="M512.484 440.34C514.866 441.708 515 444.018 515 444.018L515.707 442.864L518.283 444.472L511.136 456.143C509.31 459.125 505.608 461.185 501.428 458.626C497.249 456.067 498.166 451.537 498.166 451.537L501.157 451.993C501.157 451.993 500.485 454.719 503.034 456.28C505.937 458.058 507.894 455.624 508.447 454.72L509.223 453.454C509.223 453.454 507.255 454.411 504.761 452.883C502.055 451.227 500.26 446.941 502.679 442.99C505.099 439.039 509.509 438.632 512.484 440.34ZM511.166 442.919C509.277 441.763 506.687 442.555 505.38 444.689C504.074 446.823 504.545 449.491 506.434 450.647C508.322 451.803 510.912 451.011 512.219 448.877C513.526 446.743 513.054 444.076 511.166 442.919Z" fill="white"/>
<path fill-rule="evenodd" clip-rule="evenodd" d="M499.08 432.128C502.561 434.259 503.659 438.803 501.532 442.276C499.405 445.75 494.859 446.837 491.378 444.706C487.897 442.574 486.799 438.03 488.926 434.557C491.052 431.084 495.599 429.996 499.08 432.128ZM497.528 434.569C495.572 433.371 492.937 434.111 491.645 436.222C490.352 438.333 490.89 441.016 492.847 442.214C494.804 443.412 497.438 442.672 498.731 440.561C500.023 438.45 499.485 435.767 497.528 434.569Z" fill="white"/>
<path fill-rule="evenodd" clip-rule="evenodd" d="M485.403 423.753C488.884 425.885 489.982 430.428 487.855 433.902C485.728 437.375 481.182 438.463 477.701 436.331C474.22 434.2 473.122 429.656 475.249 426.183C477.376 422.709 481.922 421.622 485.403 423.753ZM483.851 426.194C481.895 424.996 479.261 425.736 477.968 427.847C476.675 429.959 477.213 432.641 479.17 433.84C481.127 435.038 483.761 434.298 485.054 432.186C486.346 430.075 485.808 427.392 483.851 426.194Z" fill="white"/>
<path fill-rule="evenodd" clip-rule="evenodd" d="M467.839 415.711L476.161 420.807L474.468 423.387L466.228 418.342L467.839 415.711Z" fill="white"/>
<path fill-rule="evenodd" clip-rule="evenodd" d="M473.153 406.758C475.971 408.483 477.739 410.917 478.314 413.615L475.246 414.349C474.801 412.41 473.52 410.713 471.574 409.521C467.683 407.139 462.602 408.354 460.225 412.236C457.848 416.118 459.075 421.196 462.966 423.579C466.857 425.961 470.993 425.408 473.917 420.62C474.105 420.328 474.274 420.036 474.426 419.744L476.856 421.233L476.797 421.331C473.641 428.517 466.813 429.625 461.387 426.342L461.223 426.241C455.835 422.931 454.13 415.901 457.424 410.521C460.718 405.141 467.76 403.456 473.153 406.758Z" fill="white"/>
<defs>
<filter id="filter0_d" x="0.763491" y="-402.351" width="1138.03" height="1140.9" filterUnits="userSpaceOnUse" color-interpolation-filters="sRGB">
<feFlood flood-opacity="0" result="BackgroundImageFix"/>
<feColorMatrix in="SourceAlpha" type="matrix" values="0 0 0 0 0 0 0 0 0 0 0 0 0 0 0 0 0 0 127 0"/>
<feOffset dy="2.88547"/>
<feGaussianBlur stdDeviation="9.61822"/>
<feColorMatrix type="matrix" values="0 0 0 0 0 0 0 0 0 0 0 0 0 0 0 0 0 0 0.1 0"/>
<feBlend mode="normal" in2="BackgroundImageFix" result="effect1_dropShadow"/>
<feBlend mode="normal" in="SourceGraphic" in2="effect1_dropShadow" result="shape"/>
</filter>
</defs>
</svg>
